<?xml version="1.0" encoding="utf-8"?>
<!-- Generator: Adobe Illustrator 15.0.2, SVG Export Plug-In . SVG Version: 6.00 Build 0)  -->
<!DOCTYPE svg PUBLIC "-//W3C//DTD SVG 1.1//EN" "http://www.w3.org/Graphics/SVG/1.1/DTD/svg11.dtd">
<svg version="1.1" xmlns="http://www.w3.org/2000/svg" xmlns:xlink="http://www.w3.org/1999/xlink" x="0px" y="0px"
	 width="595.28px" height="841.89px" viewBox="0 0 595.28 841.89" enable-background="new 0 0 595.28 841.89" xml:space="preserve">
<g id="MST">
	<g>
		<path d="M84.846,548.87c0-0.104,0.008-0.479,0-1.111c-0.008-0.271-0.04-0.447-0.192-0.447c-0.072,0-0.192,0.023-0.32,0.063
			l-0.56,0.185c-0.032,0.008-0.063,0.008-0.08-0.024l-0.064-0.144c-0.016-0.032-0.008-0.064,0.048-0.097l1.655-0.951
			c0.04-0.024,0.072-0.048,0.112-0.048c0.048,0,0.056,0.048,0.056,0.112c0,0.071-0.024,1.327-0.024,2.358v0.336
			c0,0.096,0.008,1.791,0.008,1.895c0.008,0.416,0.04,0.472,0.56,0.472h0.288c0.056,0,0.08,0.024,0.08,0.064v0.184
			c0,0.048-0.016,0.064-0.072,0.064c-0.072,0-1.16-0.024-1.231-0.024s-1.199,0.024-1.239,0.024s-0.064-0.017-0.064-0.064v-0.2
			c0-0.04,0.048-0.048,0.112-0.048h0.368c0.52,0,0.536-0.023,0.552-0.447c0.008-0.104,0.008-1.72,0.008-1.863V548.87z"/>
	</g>
	<g>
		<path d="M96.567,551.756c-0.136,0-0.28,0.008-0.4,0.016c-0.12,0.009-0.216,0.017-0.248,0.017c-0.04,0-0.064,0-0.088-0.048
			c-0.024-0.057-0.016-0.08,0.024-0.12c0.376-0.352,1.08-0.968,1.719-1.655s1.007-1.304,0.983-1.999
			c-0.024-0.712-0.456-1.136-1.031-1.127c-0.68,0.008-0.936,0.535-1.071,0.775c-0.032,0.056-0.056,0.063-0.096,0.04l-0.112-0.048
			c-0.024-0.017-0.032-0.04,0-0.112c0.128-0.312,0.52-1.199,1.599-1.199c0.671,0,1.399,0.552,1.399,1.455
			c0,0.68-0.271,1.256-0.991,2.062c-0.544,0.624-1.175,1.088-1.527,1.399h1.623c0.544,0,0.752-0.376,0.928-0.671
			c0.04-0.072,0.064-0.08,0.144-0.04c0.064,0.031,0.096,0.063,0.064,0.111l-0.52,1.247c-0.04,0.088,0.024,0.088-0.12,0.088
			c-0.072,0-0.072-0.008-0.104-0.079c-0.048-0.104-0.2-0.112-0.44-0.112H96.567z"/>
	</g>
	<g>
		<path d="M147.999,548.318c0.2-0.016,0.735,0.04,0.912,0.088c0.783,0.208,1.231,0.768,1.231,1.487
			c0.008,1.144-0.927,1.983-2.015,1.983c-0.592,0-1.04-0.216-1.04-0.448c0-0.111,0.072-0.208,0.176-0.208
			c0.144,0,0.28,0.089,0.4,0.16c0.12,0.072,0.392,0.152,0.632,0.152c0.624,0,1.247-0.528,1.247-1.231c0-0.56-0.184-1-0.704-1.224
			c-0.432-0.191-0.832-0.191-1.039-0.176c-0.048,0.008-0.088,0.016-0.144-0.016c-0.04-0.017-0.048-0.04-0.04-0.088l0.288-2.255
			c0.008-0.096,0.024-0.128,0.128-0.128h1.711c0.28,0,0.352-0.136,0.488-0.4c0.024-0.048,0.048-0.056,0.096-0.04
			c0.088,0.04,0.128,0.049,0.112,0.097l-0.288,0.799c-0.056,0.128-0.096,0.16-0.344,0.16h-1.663L147.999,548.318z"/>
	</g>
	<polyline fill="none" stroke="#010101" stroke-width="0.1" stroke-linecap="square" stroke-miterlimit="10" points="
		85.039,561.128 85.039,554.756 97.783,554.756 97.783,561.128 148.867,561.128 148.867,554.756 	"/>
</g>
<g id="HAUS_OHNE_EIGENSCHAFTEN">
	<g>
		<path d="M29.536,31.537c0-0.62-0.02-1.969-0.02-2.109c0-0.509-0.07-0.649-0.34-0.649h-0.41c-0.11,0-0.12-0.04-0.12-0.1v-0.19
			c0-0.06,0.01-0.12,0.11-0.12c0.17,0,0.49,0.03,1.489,0.03c0.979,0,1.339-0.03,1.509-0.03c0.11,0,0.12,0.03,0.12,0.11v0.21
			c0,0.06-0.01,0.09-0.12,0.09h-0.24c-0.36,0-0.41,0.17-0.44,0.55c-0.01,0.14-0.06,1.459-0.06,2.019v0.15
			c0,0.05,0.03,0.08,0.16,0.08h2.988c0.15,0,0.2-0.02,0.2-0.13v-0.1c0-0.569-0.07-1.958-0.07-2.059c-0.01-0.32-0.05-0.51-0.23-0.51
			h-0.41c-0.09,0-0.1-0.03-0.1-0.1v-0.22c0-0.06,0.01-0.09,0.09-0.09c0.18,0,0.61,0.03,1.459,0.03c0.83,0,1.249-0.03,1.379-0.03
			c0.12,0,0.13,0.03,0.13,0.11v0.19c0,0.07-0.01,0.11-0.13,0.11h-0.3c-0.29,0-0.32,0.17-0.32,0.51c0,0.14-0.02,1.829-0.02,2.199
			v0.34c0,0.32,0.02,2.219,0.03,2.769c0,0.36,0.1,0.5,0.4,0.5h0.34c0.08,0,0.09,0.03,0.09,0.09v0.22c0,0.05-0.01,0.1-0.11,0.1
			c-0.16,0-0.5-0.03-1.399-0.03c-1.02,0-1.339,0.03-1.569,0.03c-0.11,0-0.13-0.05-0.13-0.1v-0.22c0-0.06,0.01-0.09,0.11-0.09h0.439
			c0.24,0,0.27-0.19,0.28-0.439c0.02-0.47,0.04-2.079,0.04-2.399v-0.12c0-0.11-0.1-0.12-0.22-0.12h-2.988
			c-0.11,0-0.14,0.03-0.14,0.12v0.15c0,0.25,0.04,1.789,0.07,2.469c0.01,0.24,0.11,0.34,0.33,0.34h0.28c0.08,0,0.09,0.02,0.09,0.08
			v0.24c0,0.06-0.01,0.09-0.09,0.09c-0.18,0-0.53-0.03-1.369-0.03c-1.06,0-1.359,0.03-1.559,0.03c-0.09,0-0.1-0.03-0.1-0.11v-0.21
			c0-0.07,0.01-0.09,0.1-0.09h0.459c0.25,0,0.28-0.24,0.28-0.459c0.01-0.47,0.03-2.409,0.03-2.669V31.537z"/>
		<path d="M39.575,32.286c0-0.2-0.02-0.43-0.15-0.549c-0.1-0.09-0.26-0.12-0.42-0.12c-0.18,0-0.35,0.04-0.53,0.16
			c-0.15,0.1-0.03,0.27-0.03,0.589c0,0.34-0.25,0.57-0.649,0.57c-0.23,0-0.43-0.14-0.43-0.36s0.07-0.52,0.28-0.7
			c0.419-0.38,1.109-0.739,1.919-0.739c0.64,0,0.81,0.1,1.019,0.29c0.22,0.2,0.28,0.49,0.28,0.85l0.02,1.989
			c0.01,0.52,0.04,0.68,0.23,0.68c0.14,0,0.25-0.11,0.29-0.18c0.04-0.06,0.07-0.07,0.1-0.05l0.14,0.08
			c0.04,0.02,0.07,0.05,0.03,0.14c-0.09,0.21-0.39,0.68-1.009,0.68c-0.39,0-0.759-0.14-0.949-0.61h-0.05
			c-0.25,0.23-0.459,0.37-0.859,0.52c-0.2,0.07-0.43,0.09-0.72,0.09c-0.35,0-0.66-0.38-0.66-0.92c0-0.439,0.21-0.899,0.86-1.219
			c0.779-0.37,1.029-0.479,1.289-0.66V32.286z M39.585,33.216c-0.49,0.28-0.9,0.43-0.9,1.12c0,0.459,0.21,0.649,0.43,0.659
			c0.27-0.02,0.47-0.27,0.47-0.359V33.216z"/>
		<path d="M45.524,35.575c-0.06,0.02-0.13,0.04-0.22,0.04c-0.1,0-0.16-0.05-0.17-0.12l-0.06-0.54h-0.06
			c-0.2,0.35-0.779,0.66-1.319,0.66c-0.399,0-0.699,0-1.049-0.46c-0.419-0.56-0.38-0.879-0.38-1.739l0.01-0.439
			c0-0.38,0-0.78-0.01-1c-0.01-0.24-0.22-0.33-0.34-0.35c-0.169-0.03-0.22-0.02-0.22-0.07v-0.2c0-0.06,0.02-0.08,0.11-0.08h1.459
			c0.06,0,0.1-0.01,0.14-0.02c0.04,0,0.08-0.01,0.11-0.01c0.07,0,0.12,0.05,0.11,0.12c-0.01,0.09-0.04,0.56-0.04,1.35v0.54
			c0,0.4-0.06,1.149,0.19,1.539c0.15,0.23,0.31,0.21,0.49,0.21c0.17,0,0.39-0.13,0.54-0.32c0.09-0.1,0.16-0.26,0.16-0.36
			l-0.01-2.349c0-0.25-0.18-0.33-0.43-0.35c-0.12-0.01-0.17-0.02-0.17-0.07v-0.19c0-0.08,0.02-0.09,0.12-0.09h1.489
			c0.07,0,0.12-0.01,0.17-0.02c0.05,0,0.09-0.01,0.12-0.01c0.06,0,0.1,0.05,0.09,0.1c-0.01,0.09-0.06,0.35-0.06,1.359v0.74
			c0,0.479,0,0.969,0.02,1.149c0.03,0.31,0.14,0.35,0.18,0.35c0.06,0,0.21,0,0.33-0.03c0.08-0.02,0.11,0,0.12,0.04l0.03,0.19
			c0.01,0.05-0.01,0.07-0.05,0.08L45.524,35.575z"/>
		<path d="M50.484,32.276c0.01,0.05,0,0.07-0.04,0.09l-0.18,0.08c-0.03,0.02-0.06,0.01-0.1-0.03l-0.56-0.6
			c-0.13-0.13-0.32-0.29-0.62-0.29s-0.59,0.2-0.59,0.54c0.02,0.35,0.14,0.45,0.88,0.65c0.49,0.13,0.729,0.2,1.029,0.52
			c0.26,0.26,0.32,0.5,0.32,0.85c0,0.89-0.7,1.529-1.789,1.529c-0.56,0-1.049-0.2-1.169-0.29c-0.04-0.03-0.05-0.07-0.06-0.13
			l-0.13-0.959c0-0.05,0.03-0.07,0.07-0.08l0.18-0.05c0.03-0.01,0.05,0,0.07,0.04l0.4,0.589c0.18,0.26,0.41,0.51,0.87,0.51
			c0.37,0,0.589-0.26,0.589-0.609c0-0.4-0.29-0.53-0.939-0.73c-0.709-0.209-1.219-0.549-1.219-1.269c0-0.47,0.14-0.859,0.52-1.14
			c0.399-0.29,0.679-0.359,1.099-0.359c0.54,0,0.87,0.12,1.049,0.209c0.15,0.07,0.17,0.12,0.18,0.19L50.484,32.276z"/>
		<path d="M53.776,34.885c-0.38-0.419-0.53-0.949-0.53-1.579c0-0.45,0.25-1.189,0.859-1.659c0.51-0.399,1.02-0.509,1.489-0.509
			c0.69,0,1.16,0.209,1.609,0.629c0.49,0.44,0.689,0.979,0.689,1.589c0,0.58-0.25,1.139-0.64,1.559c-0.479,0.5-1.06,0.7-1.739,0.7
			C54.785,35.615,54.286,35.465,53.776,34.885z M56.375,33.286c0-1.159-0.4-1.729-0.84-1.729c-0.25,0-0.41,0.07-0.54,0.27
			c-0.2,0.31-0.33,0.74-0.33,1.549c0,0.58,0.05,0.959,0.25,1.389c0.13,0.27,0.29,0.43,0.66,0.43
			C56.125,35.195,56.375,34.385,56.375,33.286z"/>
		<path d="M60.215,34.715c0,0.3,0.06,0.41,0.15,0.41h0.2c0.05,0,0.08,0.02,0.08,0.08v0.19c0,0.07-0.01,0.11-0.07,0.11
			c-0.08,0-0.54-0.03-1.129-0.03c-0.7,0-1.08,0.03-1.169,0.03c-0.04,0-0.07-0.03-0.07-0.1v-0.2c0-0.07,0.04-0.08,0.15-0.08h0.16
			c0.16,0,0.31-0.04,0.34-0.17c0.05-0.18,0.05-0.36,0.05-0.66l-0.02-4.158c0-0.5-0.13-0.79-0.47-0.919l-0.18-0.06
			c-0.06-0.03-0.08-0.06-0.08-0.09v-0.13c0-0.04,0.03-0.08,0.17-0.12c0.55-0.16,0.91-0.32,1.509-0.61c0.13-0.06,0.21-0.1,0.31-0.1
			c0.09,0,0.11,0.08,0.09,0.25s-0.03,2.199-0.03,2.789v0.6h0.07c0.24-0.38,0.729-0.609,1.279-0.609c0.45,0,0.709,0.13,1.02,0.39
			c0.47,0.39,0.43,0.89,0.43,1.529v0.62c0,0.5-0.02,1.109-0.02,1.299c0,0.14,0.2,0.15,0.32,0.15h0.19c0.08,0,0.11,0.02,0.11,0.07
			v0.21c0,0.06-0.02,0.1-0.08,0.1c-0.07,0-0.39-0.03-1.089-0.03c-0.689,0-1.049,0.03-1.139,0.03c-0.07,0-0.09-0.03-0.09-0.11v-0.19
			c0-0.05,0.01-0.08,0.07-0.08h0.13c0.09,0,0.22-0.05,0.24-0.19c0.01-0.14,0.03-0.67,0.03-0.97v-0.609
			c0-0.49,0.03-1.189-0.229-1.449c-0.14-0.14-0.26-0.19-0.47-0.19c-0.22,0-0.44,0.18-0.59,0.35c-0.08,0.1-0.17,0.23-0.17,0.49
			V34.715z"/>
		<path d="M65.845,31.687h0.08c0.11-0.13,0.29-0.26,0.48-0.36c0.22-0.12,0.439-0.189,0.77-0.189c0.39,0,0.77,0.04,1.029,0.28
			c0.42,0.39,0.45,0.64,0.45,1.139v1.06c0,0.34-0.02,0.81-0.04,1.159c-0.01,0.3,0.15,0.35,0.24,0.35h0.27
			c0.09,0,0.11,0.03,0.11,0.09v0.18c0,0.07-0.02,0.11-0.08,0.11c-0.07,0-0.38-0.03-1.18-0.03c-0.66,0-0.979,0.03-1.049,0.03
			c-0.06,0-0.08-0.03-0.08-0.11v-0.18c0-0.07,0.03-0.09,0.13-0.09h0.11c0.07,0,0.16-0.05,0.18-0.23c0.04-0.26,0.06-0.58,0.06-1.04
			v-1.069c0-0.38-0.03-0.64-0.24-0.83c-0.18-0.16-0.32-0.18-0.49-0.18c-0.18,0-0.31,0.05-0.51,0.2c-0.12,0.09-0.2,0.36-0.2,0.77
			l-0.02,2.049c0,0.18,0.07,0.33,0.16,0.33h0.13c0.08,0,0.1,0.03,0.1,0.1v0.19c0,0.06-0.02,0.09-0.07,0.09c-0.07,0-0.34-0.03-1-0.03
			c-0.709,0-1.029,0.03-1.089,0.03c-0.05,0-0.07-0.03-0.07-0.09v-0.2c0-0.06,0.02-0.09,0.1-0.09h0.15c0.11,0,0.28-0.03,0.28-0.2
			v-2.219c0-0.3-0.17-0.47-0.4-0.58l-0.09-0.04c-0.06-0.03-0.07-0.07-0.07-0.11v-0.09c0-0.05,0.04-0.08,0.09-0.1l1.279-0.58
			c0.08-0.03,0.15-0.07,0.23-0.07c0.06,0,0.12,0.05,0.14,0.12L65.845,31.687z"/>
		<path d="M70.996,32.986v0.27c0,1.04,0.59,1.549,1.319,1.549c0.49,0,0.89-0.23,1.089-0.55c0.02-0.05,0.06-0.06,0.1-0.03l0.17,0.09
			c0.04,0.02,0.07,0.07-0.02,0.24c-0.18,0.37-0.83,1.06-1.769,1.06c-0.64,0-1.169-0.11-1.5-0.47c-0.51-0.55-0.679-0.94-0.689-1.719
			c0-0.28,0-0.81,0.45-1.469c0.36-0.53,0.97-0.819,1.739-0.819c1.619,0,1.709,1.549,1.709,1.709c0,0.13-0.09,0.14-0.31,0.14H70.996z
			 M71.965,32.606c0.22,0,0.32-0.05,0.32-0.2c0-0.44-0.18-0.87-0.49-0.87c-0.47,0-0.719,0.37-0.79,1.069H71.965z"/>
		<path d="M78.645,31.646c0.46,0,0.9-0.03,1.02-0.06c0.17-0.04,0.31-0.13,0.46-0.31c0.11-0.15,0.23-0.43,0.23-0.62
			c0-0.07,0.03-0.09,0.08-0.09l0.27,0.03c0.05,0.01,0.09,0.02,0.08,0.08c-0.03,0.17-0.03,0.689-0.03,1.04
			c0,0.45,0.04,0.929,0.06,1.139c0.01,0.06-0.03,0.07-0.08,0.08l-0.24,0.05c-0.04,0.01-0.06-0.01-0.08-0.08
			c-0.04-0.16-0.14-0.39-0.2-0.51c-0.11-0.19-0.35-0.32-0.55-0.35c-0.27-0.04-0.58-0.06-1.02-0.06v0.6c0,0.54,0.05,1.509,0.05,1.689
			c0,0.52,0.11,0.7,0.24,0.759c0.15,0.06,0.34,0.09,0.839,0.09c0.17,0,0.59-0.01,0.8-0.03c0.2-0.02,0.5-0.12,0.76-0.33
			c0.26-0.21,0.819-0.83,1.019-1.069c0.04-0.04,0.07-0.05,0.1-0.03l0.17,0.1c0.04,0.02,0.05,0.05,0.04,0.08l-0.45,1.509
			c-0.03,0.09-0.1,0.15-0.22,0.15c-0.05,0-0.27-0.01-0.909-0.02c-0.65,0-1.709-0.01-3.438-0.01c-0.37,0-0.65,0.01-0.85,0.01
			c-0.21,0.01-0.34,0.02-0.43,0.02c-0.07,0-0.09-0.03-0.09-0.11v-0.21c0-0.06,0.03-0.09,0.1-0.09h0.3c0.46,0,0.5-0.07,0.5-0.419
			v-3.349c0-0.829-0.02-2.059-0.03-2.159c-0.04-0.32-0.14-0.39-0.41-0.39h-0.39c-0.04,0-0.05-0.03-0.05-0.1v-0.24
			c0-0.03,0.01-0.07,0.07-0.07c0.22,0,0.569,0.03,1.479,0.03l3.508-0.01c0.16,0,0.35-0.02,0.4-0.02c0.05,0,0.07,0.02,0.08,0.05
			c0.04,0.14,0.37,1.509,0.41,1.609c0.02,0.05,0.02,0.07-0.03,0.1l-0.16,0.08c-0.04,0.02-0.09,0.01-0.12-0.04
			c-0.05-0.08-0.95-0.979-1.18-1.119c-0.209-0.13-0.49-0.26-0.759-0.27l-1.319-0.04L78.645,31.646z"/>
		<path d="M85.555,35.504c-0.08,0-0.54-0.03-1.41-0.03c-0.58,0-0.969,0.03-1.079,0.03c-0.05,0-0.08-0.02-0.08-0.1v-0.2
			c0-0.06,0.03-0.08,0.1-0.08h0.37c0.11,0,0.18-0.04,0.19-0.2c0.02-0.3,0.02-0.609,0.02-0.889l-0.02-1.399
			c0-0.28-0.06-0.48-0.479-0.63c-0.11-0.04-0.12-0.08-0.12-0.14v-0.11c0-0.03,0.02-0.05,0.11-0.08l1.489-0.48
			c0.11-0.04,0.2-0.06,0.27-0.06c0.08,0,0.11,0.05,0.1,0.12c-0.02,0.17-0.02,0.8-0.02,1.679v1.069c0,0.39,0,0.75,0.01,0.859
			c0.02,0.19,0.07,0.26,0.18,0.26h0.36c0.08,0,0.1,0.03,0.1,0.09v0.19C85.645,35.475,85.625,35.504,85.555,35.504z M84.185,30.348
			c-0.399,0.01-0.699-0.26-0.699-0.65c0-0.32,0.33-0.61,0.75-0.61c0.47,0,0.709,0.3,0.709,0.58
			C84.945,29.988,84.725,30.337,84.185,30.348z"/>
		<path d="M86.315,37.883c-0.37-0.21-0.49-0.47-0.49-0.78c0-0.5,0.56-0.859,1.03-1.049v-0.05c-0.46-0.14-0.69-0.45-0.69-0.8
			c0-0.58,0.56-0.899,0.89-1.059v-0.03c-0.43-0.25-0.879-0.669-0.879-1.519c0-0.649,0.52-1.459,1.939-1.459
			c0.879,0,1.319,0.459,1.409,0.56c0.23-0.19,0.6-0.35,0.879-0.35c0.36,0,0.55,0.2,0.55,0.52c0,0.23-0.21,0.43-0.44,0.43
			c-0.17,0-0.25-0.07-0.31-0.17c-0.05-0.08-0.17-0.15-0.28-0.15c-0.05,0-0.14,0.04-0.189,0.09c0.04,0.07,0.12,0.29,0.12,0.65
			c0,0.379-0.11,0.75-0.45,1.079c-0.38,0.36-0.949,0.48-1.349,0.48c-0.2,0-0.34,0-0.59-0.03c-0.13,0.08-0.37,0.26-0.37,0.46
			c0,0.35,0.29,0.38,1.369,0.35c0.68-0.02,1.189,0.02,1.679,0.4c0.36,0.29,0.49,0.64,0.49,1.009c0,0.42-0.19,0.78-0.58,1.109
			c-0.37,0.3-1.129,0.62-2.139,0.62C87.435,38.193,86.706,38.113,86.315,37.883z M89.564,36.954c0-0.549-0.39-0.849-1.299-0.81
			l-0.87,0.04c-0.29,0.07-0.5,0.38-0.5,0.68c0,0.29,0.16,0.54,0.35,0.68c0.28,0.2,0.56,0.26,1.009,0.26
			C88.914,37.803,89.564,37.454,89.564,36.954z M87.575,31.836c-0.14,0.2-0.2,0.66-0.2,1.109c0,0.29,0.09,0.61,0.22,0.76
			c0.11,0.14,0.26,0.2,0.46,0.2c0.439,0,0.589-0.669,0.589-1.439c0-0.37-0.04-0.58-0.09-0.67c-0.09-0.169-0.21-0.28-0.49-0.28
			C87.845,31.517,87.715,31.637,87.575,31.836z"/>
		<path d="M92.325,32.986v0.27c0,1.04,0.59,1.549,1.319,1.549c0.49,0,0.89-0.23,1.089-0.55c0.02-0.05,0.06-0.06,0.1-0.03l0.17,0.09
			c0.04,0.02,0.07,0.07-0.02,0.24c-0.18,0.37-0.83,1.06-1.769,1.06c-0.64,0-1.169-0.11-1.5-0.47c-0.51-0.55-0.679-0.94-0.689-1.719
			c0-0.28,0-0.81,0.45-1.469c0.36-0.53,0.97-0.819,1.739-0.819c1.619,0,1.709,1.549,1.709,1.709c0,0.13-0.09,0.14-0.31,0.14H92.325z
			 M93.294,32.606c0.22,0,0.32-0.05,0.32-0.2c0-0.44-0.18-0.87-0.49-0.87c-0.47,0-0.719,0.37-0.79,1.069H93.294z"/>
		<path d="M97.334,31.687h0.08c0.11-0.13,0.29-0.26,0.48-0.36c0.22-0.12,0.439-0.189,0.77-0.189c0.39,0,0.77,0.04,1.029,0.28
			c0.42,0.39,0.45,0.64,0.45,1.139v1.06c0,0.34-0.02,0.81-0.04,1.159c-0.01,0.3,0.15,0.35,0.24,0.35h0.27
			c0.09,0,0.11,0.03,0.11,0.09v0.18c0,0.07-0.02,0.11-0.08,0.11c-0.07,0-0.38-0.03-1.18-0.03c-0.66,0-0.979,0.03-1.049,0.03
			c-0.06,0-0.08-0.03-0.08-0.11v-0.18c0-0.07,0.03-0.09,0.13-0.09h0.11c0.07,0,0.16-0.05,0.18-0.23c0.04-0.26,0.06-0.58,0.06-1.04
			v-1.069c0-0.38-0.03-0.64-0.24-0.83c-0.18-0.16-0.32-0.18-0.49-0.18c-0.18,0-0.31,0.05-0.51,0.2c-0.12,0.09-0.2,0.36-0.2,0.77
			l-0.02,2.049c0,0.18,0.07,0.33,0.16,0.33h0.13c0.08,0,0.1,0.03,0.1,0.1v0.19c0,0.06-0.02,0.09-0.07,0.09
			c-0.07,0-0.34-0.03-0.999-0.03c-0.71,0-1.03,0.03-1.09,0.03c-0.05,0-0.07-0.03-0.07-0.09v-0.2c0-0.06,0.02-0.09,0.1-0.09h0.15
			c0.11,0,0.28-0.03,0.28-0.2v-2.219c0-0.3-0.17-0.47-0.4-0.58l-0.09-0.04c-0.06-0.03-0.07-0.07-0.07-0.11v-0.09
			c0-0.05,0.04-0.08,0.09-0.1l1.279-0.58c0.08-0.03,0.15-0.07,0.23-0.07c0.06,0,0.12,0.05,0.14,0.12L97.334,31.687z"/>
		<path d="M104.303,32.276c0.01,0.05,0,0.07-0.04,0.09l-0.18,0.08c-0.03,0.02-0.06,0.01-0.1-0.03l-0.56-0.6
			c-0.13-0.13-0.32-0.29-0.62-0.29s-0.59,0.2-0.59,0.54c0.02,0.35,0.14,0.45,0.88,0.65c0.49,0.13,0.729,0.2,1.029,0.52
			c0.26,0.26,0.32,0.5,0.32,0.85c0,0.89-0.7,1.529-1.789,1.529c-0.56,0-1.049-0.2-1.169-0.29c-0.04-0.03-0.05-0.07-0.06-0.13
			l-0.13-0.959c0-0.05,0.03-0.07,0.07-0.08l0.18-0.05c0.03-0.01,0.05,0,0.07,0.04l0.4,0.589c0.18,0.26,0.41,0.51,0.87,0.51
			c0.37,0,0.589-0.26,0.589-0.609c0-0.4-0.29-0.53-0.939-0.73c-0.709-0.209-1.219-0.549-1.219-1.269c0-0.47,0.14-0.859,0.52-1.14
			c0.399-0.29,0.679-0.359,1.099-0.359c0.54,0,0.87,0.12,1.049,0.209c0.15,0.07,0.17,0.12,0.18,0.19L104.303,32.276z"/>
		<path d="M108.893,32.106c0,0.28-0.2,0.47-0.52,0.47c-0.419,0-0.64-0.28-0.72-0.53c-0.12-0.36-0.31-0.479-0.589-0.479
			c-0.27,0-0.66,0.39-0.66,1.02c0,0.629-0.02,1.079,0.32,1.699c0.25,0.45,0.62,0.58,1.069,0.58c0.46,0,0.68-0.09,1-0.32
			c0.05-0.03,0.08-0.05,0.11-0.01l0.14,0.14c0.03,0.04,0.02,0.08-0.01,0.13c-0.19,0.33-0.969,0.81-1.889,0.81
			c-0.75,0-1.25-0.21-1.569-0.61c-0.39-0.48-0.51-0.87-0.51-1.379c0-0.68,0.22-1.409,0.75-1.899c0.45-0.41,0.939-0.589,1.479-0.589
			C108.603,31.137,108.893,31.796,108.893,32.106z"/>
		<path d="M111.244,34.715c0,0.3,0.06,0.41,0.15,0.41h0.2c0.05,0,0.08,0.02,0.08,0.08v0.19c0,0.07-0.01,0.11-0.07,0.11
			c-0.08,0-0.54-0.03-1.129-0.03c-0.7,0-1.08,0.03-1.169,0.03c-0.04,0-0.07-0.03-0.07-0.1v-0.2c0-0.07,0.04-0.08,0.15-0.08h0.16
			c0.16,0,0.31-0.04,0.34-0.17c0.05-0.18,0.05-0.36,0.05-0.66l-0.02-4.158c0-0.5-0.13-0.79-0.47-0.919l-0.18-0.06
			c-0.06-0.03-0.08-0.06-0.08-0.09v-0.13c0-0.04,0.03-0.08,0.17-0.12c0.55-0.16,0.91-0.32,1.509-0.61c0.13-0.06,0.21-0.1,0.31-0.1
			c0.09,0,0.11,0.08,0.09,0.25s-0.03,2.199-0.03,2.789v0.6h0.07c0.24-0.38,0.729-0.609,1.279-0.609c0.45,0,0.709,0.13,1.02,0.39
			c0.47,0.39,0.43,0.89,0.43,1.529v0.62c0,0.5-0.02,1.109-0.02,1.299c0,0.14,0.2,0.15,0.32,0.15h0.19c0.08,0,0.11,0.02,0.11,0.07
			v0.21c0,0.06-0.02,0.1-0.08,0.1c-0.07,0-0.39-0.03-1.089-0.03c-0.689,0-1.049,0.03-1.139,0.03c-0.07,0-0.09-0.03-0.09-0.11v-0.19
			c0-0.05,0.01-0.08,0.07-0.08h0.13c0.09,0,0.22-0.05,0.24-0.19c0.01-0.14,0.03-0.67,0.03-0.97v-0.609
			c0-0.49,0.03-1.189-0.229-1.449c-0.14-0.14-0.26-0.19-0.47-0.19c-0.22,0-0.44,0.18-0.59,0.35c-0.08,0.1-0.17,0.23-0.17,0.49
			V34.715z"/>
		<path d="M117.314,32.286c0-0.2-0.02-0.43-0.15-0.549c-0.1-0.09-0.26-0.12-0.42-0.12c-0.18,0-0.35,0.04-0.529,0.16
			c-0.15,0.1-0.03,0.27-0.03,0.589c0,0.34-0.25,0.57-0.649,0.57c-0.23,0-0.43-0.14-0.43-0.36s0.07-0.52,0.28-0.7
			c0.419-0.38,1.109-0.739,1.919-0.739c0.64,0,0.81,0.1,1.019,0.29c0.22,0.2,0.28,0.49,0.28,0.85l0.02,1.989
			c0.01,0.52,0.04,0.68,0.23,0.68c0.14,0,0.25-0.11,0.29-0.18c0.04-0.06,0.07-0.07,0.1-0.05l0.14,0.08
			c0.04,0.02,0.07,0.05,0.03,0.14c-0.09,0.21-0.39,0.68-1.01,0.68c-0.39,0-0.759-0.14-0.949-0.61h-0.05
			c-0.25,0.23-0.459,0.37-0.859,0.52c-0.2,0.07-0.43,0.09-0.72,0.09c-0.35,0-0.66-0.38-0.66-0.92c0-0.439,0.21-0.899,0.86-1.219
			c0.779-0.37,1.029-0.479,1.289-0.66V32.286z M117.324,33.216c-0.49,0.28-0.9,0.43-0.9,1.12c0,0.459,0.21,0.649,0.43,0.659
			c0.27-0.02,0.47-0.27,0.47-0.359V33.216z"/>
		<path d="M121.544,31.807v0.87c0,0.479-0.03,1.749-0.01,2.139c0.01,0.22,0.13,0.31,0.29,0.31h0.36c0.09,0,0.11,0.02,0.11,0.08v0.2
			c0,0.06-0.02,0.1-0.07,0.1c-0.06,0-0.43-0.03-1.399-0.03c-0.65,0-1.16,0.03-1.239,0.03c-0.06,0-0.08-0.02-0.08-0.09v-0.22
			c0-0.05,0.02-0.07,0.1-0.07h0.33c0.19,0,0.27-0.12,0.27-0.33l-0.03-2.988h-0.64c-0.05,0-0.07-0.02-0.06-0.11l0.05-0.35
			c0.01-0.06,0.04-0.07,0.12-0.07h0.529v-0.3c0-1.049,0.33-1.699,0.84-2.179c0.54-0.5,1.069-0.689,1.689-0.689
			c0.59,0,1.029,0.24,1.029,0.699c0,0.31-0.32,0.5-0.55,0.5c-0.32,0-0.52-0.12-0.669-0.38c-0.12-0.2-0.26-0.3-0.36-0.3
			c-0.2,0-0.34,0.06-0.5,0.32c-0.18,0.28-0.11,0.989-0.11,1.909v0.42h1.159c0.07,0,0.08,0.06,0.07,0.1l-0.05,0.38
			c-0.01,0.04-0.05,0.05-0.13,0.05H121.544z"/>
		<path d="M124.884,34.016c0,0.819,0.31,0.999,0.55,0.999c0.21,0,0.36-0.03,0.52-0.12c0.03-0.02,0.06-0.02,0.09,0.04l0.07,0.15
			c0.03,0.05,0,0.1-0.04,0.13c-0.17,0.12-0.62,0.4-1.399,0.4c-0.68,0-1.109-0.47-1.109-0.93c0-0.35,0.02-1.109,0.02-1.489
			l0.01-1.319h-0.55c-0.09,0-0.16-0.04-0.16-0.14c0-0.1,0.06-0.17,0.22-0.25c0.33-0.15,1.169-0.899,1.539-1.319
			c0.07-0.08,0.14-0.1,0.19-0.1c0.09,0,0.13,0.07,0.13,0.15l-0.04,1.06h1.269c0.06,0,0.09,0.05,0.07,0.09l-0.1,0.43
			c-0.01,0.04-0.03,0.08-0.09,0.08h-1.169c-0.02,0.41-0.02,0.89-0.02,1.35V34.016z"/>
		<path d="M127.804,32.986v0.27c0,1.04,0.59,1.549,1.319,1.549c0.49,0,0.89-0.23,1.089-0.55c0.02-0.05,0.06-0.06,0.1-0.03l0.17,0.09
			c0.04,0.02,0.07,0.07-0.02,0.24c-0.18,0.37-0.83,1.06-1.769,1.06c-0.64,0-1.169-0.11-1.5-0.47c-0.509-0.55-0.679-0.94-0.689-1.719
			c0-0.28,0-0.81,0.45-1.469c0.36-0.53,0.97-0.819,1.739-0.819c1.619,0,1.709,1.549,1.709,1.709c0,0.13-0.09,0.14-0.31,0.14H127.804
			z M128.773,32.606c0.22,0,0.32-0.05,0.32-0.2c0-0.44-0.18-0.87-0.489-0.87c-0.47,0-0.72,0.37-0.79,1.069H128.773z"/>
		<path d="M132.813,31.687h0.08c0.11-0.13,0.29-0.26,0.48-0.36c0.22-0.12,0.439-0.189,0.77-0.189c0.39,0,0.77,0.04,1.029,0.28
			c0.42,0.39,0.45,0.64,0.45,1.139v1.06c0,0.34-0.02,0.81-0.04,1.159c-0.01,0.3,0.15,0.35,0.24,0.35h0.27
			c0.09,0,0.11,0.03,0.11,0.09v0.18c0,0.07-0.02,0.11-0.08,0.11c-0.07,0-0.38-0.03-1.18-0.03c-0.66,0-0.979,0.03-1.049,0.03
			c-0.06,0-0.08-0.03-0.08-0.11v-0.18c0-0.07,0.03-0.09,0.13-0.09h0.11c0.07,0,0.16-0.05,0.18-0.23c0.04-0.26,0.06-0.58,0.06-1.04
			v-1.069c0-0.38-0.03-0.64-0.24-0.83c-0.18-0.16-0.32-0.18-0.49-0.18c-0.18,0-0.31,0.05-0.51,0.2c-0.12,0.09-0.2,0.36-0.2,0.77
			l-0.02,2.049c0,0.18,0.07,0.33,0.16,0.33h0.13c0.08,0,0.1,0.03,0.1,0.1v0.19c0,0.06-0.02,0.09-0.07,0.09c-0.07,0-0.34-0.03-1-0.03
			c-0.709,0-1.029,0.03-1.089,0.03c-0.05,0-0.07-0.03-0.07-0.09v-0.2c0-0.06,0.02-0.09,0.1-0.09h0.15c0.11,0,0.28-0.03,0.28-0.2
			v-2.219c0-0.3-0.17-0.47-0.4-0.58l-0.09-0.04c-0.06-0.03-0.07-0.07-0.07-0.11v-0.09c0-0.05,0.04-0.08,0.09-0.1l1.279-0.58
			c0.08-0.03,0.15-0.07,0.23-0.07c0.06,0,0.12,0.05,0.14,0.12L132.813,31.687z"/>
	</g>
</g>
<g id="Calque_4">
	
		<line fill="none" stroke="#000000" stroke-width="0.0283" stroke-linecap="round" stroke-linejoin="round" stroke-miterlimit="10" x1="254.438" y1="525.595" x2="214.478" y2="525.595"/>
	
		<line fill="none" stroke="#000000" stroke-width="0.0283" stroke-linecap="round" stroke-linejoin="round" stroke-miterlimit="10" x1="254.438" y1="504.644" x2="214.478" y2="504.644"/>
	
		<line fill="none" stroke="#000000" stroke-width="0.0283" stroke-linecap="round" stroke-linejoin="round" stroke-miterlimit="10" x1="218.474" y1="557.24" x2="218.474" y2="490.71"/>
	
		<line fill="none" stroke="#000000" stroke-width="0.0283" stroke-linecap="round" stroke-linejoin="round" stroke-miterlimit="10" x1="222.471" y1="557.24" x2="222.471" y2="490.71"/>
	
		<line fill="none" stroke="#000000" stroke-width="0.0283" stroke-linecap="round" stroke-linejoin="round" stroke-miterlimit="10" x1="226.466" y1="557.24" x2="226.466" y2="490.71"/>
	
		<line fill="none" stroke="#000000" stroke-width="0.0283" stroke-linecap="round" stroke-linejoin="round" stroke-miterlimit="10" x1="234.458" y1="557.24" x2="234.458" y2="490.71"/>
	
		<line fill="none" stroke="#000000" stroke-width="0.0283" stroke-linecap="round" stroke-linejoin="round" stroke-miterlimit="10" x1="230.462" y1="557.24" x2="230.462" y2="490.71"/>
	
		<line fill="none" stroke="#000000" stroke-width="0.0283" stroke-linecap="round" stroke-linejoin="round" stroke-miterlimit="10" x1="250.442" y1="557.24" x2="250.442" y2="490.71"/>
	
		<line fill="none" stroke="#000000" stroke-width="0.0283" stroke-linecap="round" stroke-linejoin="round" stroke-miterlimit="10" x1="246.446" y1="557.24" x2="246.446" y2="490.71"/>
	
		<line fill="none" stroke="#000000" stroke-width="0.0283" stroke-linecap="round" stroke-linejoin="round" stroke-miterlimit="10" x1="242.451" y1="557.24" x2="242.451" y2="490.71"/>
	
		<line fill="none" stroke="#000000" stroke-width="0.0283" stroke-linecap="round" stroke-linejoin="round" stroke-miterlimit="10" x1="238.455" y1="557.24" x2="238.455" y2="490.71"/>
	
		<line fill="none" stroke="#000000" stroke-width="0.0283" stroke-linecap="round" stroke-linejoin="round" stroke-miterlimit="10" x1="254.438" y1="546.546" x2="214.478" y2="546.546"/>
	
		<line fill="none" stroke="#000000" stroke-width="0.0283" stroke-linecap="round" stroke-linejoin="round" stroke-miterlimit="10" x1="254.438" y1="536.072" x2="214.478" y2="536.072"/>
	
		<line fill="none" stroke="#000000" stroke-width="0.0283" stroke-linecap="round" stroke-linejoin="round" stroke-miterlimit="10" x1="254.438" y1="515.119" x2="214.478" y2="515.119"/>
	
		<line fill="none" stroke="#000000" stroke-width="0.0283" stroke-linecap="round" stroke-linejoin="round" stroke-miterlimit="10" x1="254.438" y1="494.275" x2="214.478" y2="494.275"/>
	
		<line fill="none" stroke="#000000" stroke-width="0.0283" stroke-linecap="round" stroke-linejoin="round" stroke-miterlimit="10" x1="340.838" y1="366.188" x2="380.798" y2="366.188"/>
	
		<line fill="none" stroke="#000000" stroke-width="0.0283" stroke-linecap="round" stroke-linejoin="round" stroke-miterlimit="10" x1="340.838" y1="316.401" x2="372.807" y2="316.401"/>
	
		<line fill="none" stroke="#000000" stroke-width="0.0283" stroke-linecap="round" stroke-linejoin="round" stroke-miterlimit="10" x1="340.838" y1="337.352" x2="380.798" y2="337.352"/>
	
		<line fill="none" stroke="#000000" stroke-width="0.0283" stroke-linecap="round" stroke-linejoin="round" stroke-miterlimit="10" x1="376.802" y1="284.756" x2="376.802" y2="305.924"/>
	
		<line fill="none" stroke="#000000" stroke-width="0.0283" stroke-linecap="round" stroke-linejoin="round" stroke-miterlimit="10" x1="372.807" y1="284.756" x2="372.807" y2="420.404"/>
	
		<line fill="none" stroke="#000000" stroke-width="0.0283" stroke-linecap="round" stroke-linejoin="round" stroke-miterlimit="10" x1="368.81" y1="284.756" x2="368.81" y2="420.404"/>
	
		<line fill="none" stroke="#000000" stroke-width="0.0283" stroke-linecap="round" stroke-linejoin="round" stroke-miterlimit="10" x1="360.818" y1="284.756" x2="360.818" y2="420.404"/>
	
		<line fill="none" stroke="#000000" stroke-width="0.0283" stroke-linecap="round" stroke-linejoin="round" stroke-miterlimit="10" x1="364.814" y1="284.756" x2="364.814" y2="420.404"/>
	
		<line fill="none" stroke="#000000" stroke-width="0.0283" stroke-linecap="round" stroke-linejoin="round" stroke-miterlimit="10" x1="344.835" y1="284.756" x2="344.835" y2="420.404"/>
	
		<line fill="none" stroke="#000000" stroke-width="0.0283" stroke-linecap="round" stroke-linejoin="round" stroke-miterlimit="10" x1="348.829" y1="284.756" x2="348.829" y2="420.404"/>
	
		<line fill="none" stroke="#000000" stroke-width="0.0283" stroke-linecap="round" stroke-linejoin="round" stroke-miterlimit="10" x1="352.827" y1="284.756" x2="352.827" y2="420.404"/>
	
		<line fill="none" stroke="#000000" stroke-width="0.0283" stroke-linecap="round" stroke-linejoin="round" stroke-miterlimit="10" x1="356.821" y1="284.756" x2="356.821" y2="420.404"/>
	
		<line fill="none" stroke="#000000" stroke-width="0.0283" stroke-linecap="round" stroke-linejoin="round" stroke-miterlimit="10" x1="340.838" y1="295.448" x2="380.798" y2="295.448"/>
	
		<line fill="none" stroke="#000000" stroke-width="0.0283" stroke-linecap="round" stroke-linejoin="round" stroke-miterlimit="10" x1="340.838" y1="305.924" x2="380.798" y2="305.924"/>
	
		<line fill="none" stroke="#000000" stroke-width="0.0283" stroke-linecap="round" stroke-linejoin="round" stroke-miterlimit="10" x1="340.838" y1="326.876" x2="380.798" y2="326.876"/>
	
		<line fill="none" stroke="#000000" stroke-width="0.0283" stroke-linecap="round" stroke-linejoin="round" stroke-miterlimit="10" x1="340.838" y1="347.72" x2="380.798" y2="347.72"/>
	
		<polyline fill="none" stroke="#000000" stroke-width="0.2551" stroke-linecap="round" stroke-linejoin="round" stroke-miterlimit="10" points="
		299.583,557.24 318.915,557.24 318.915,561.128 299.583,561.128 299.583,557.24 	"/>
	<path stroke="#000000" stroke-width="0.2551" stroke-linecap="round" stroke-linejoin="round" stroke-miterlimit="10" d="
		M384.579,303.44v-22.572h-173.88l3.779,3.889h125.064V305.6h1.188v-20.844h39.96v21.168h7.668v20.952h-7.668v93.527h-7.992v1.188
		h7.992v67.823h-39.96v-3.133h-1.188v3.133h-3.24v1.295h3.24v3.242h1.188v-3.242h19.44v7.453h1.188v-7.453h19.332v22.682h-19.332
		v-3.781h-1.188v29.594h1.188v-24.518h19.332v24.518l-0.01-0.012c-0.336,10.535-8.798,18.996-19.332,19.332
		c-11.03,0.354-20.266-8.293-20.618-19.32v-25.273h-1.188v43.309h-1.297v3.889h46.334V329.361h11.447V303.44H384.579z
		 M392.247,314.024c0.477,0,0.864,0.387,0.864,0.865c0,0.476-0.388,0.863-0.864,0.863s-0.865-0.388-0.865-0.863
		C391.382,314.411,391.771,314.024,392.247,314.024z M392.247,318.993c0.477,0,0.864,0.387,0.864,0.863
		c0,0.478-0.388,0.864-0.864,0.864s-0.865-0.387-0.865-0.864C391.382,319.379,391.771,318.993,392.247,318.993z M392.247,326.445
		c-0.836,0-1.514-0.677-1.514-1.513s0.678-1.512,1.514-1.512c0.835,0,1.512,0.676,1.512,1.512S393.082,326.445,392.247,326.445z"/>
	
		<polyline fill="none" stroke="#000000" stroke-width="0.0283" stroke-linecap="round" stroke-linejoin="round" stroke-miterlimit="10" points="
		382.094,307.22 387.171,307.22 387.171,325.472 382.094,325.472 382.094,307.22 	"/>
	
		<line fill="none" stroke="#000000" stroke-width="0.0283" stroke-linecap="round" stroke-linejoin="round" stroke-miterlimit="10" x1="380.798" y1="305.924" x2="380.798" y2="326.876"/>
	
		<line fill="none" stroke="#000000" stroke-width="0.0283" stroke-linecap="round" stroke-linejoin="round" stroke-miterlimit="10" x1="378.638" y1="305.924" x2="378.638" y2="326.768"/>
	
		<line fill="none" stroke="#000000" stroke-width="0.0283" stroke-linecap="round" stroke-linejoin="round" stroke-miterlimit="10" x1="376.802" y1="305.924" x2="376.802" y2="326.768"/>
	
		<line fill="none" stroke="#000000" stroke-width="0.0283" stroke-linecap="round" stroke-linejoin="round" stroke-miterlimit="10" x1="374.858" y1="305.924" x2="374.858" y2="326.768"/>
	
		<polyline fill="none" stroke="#000000" stroke-width="0.085" stroke-linecap="round" stroke-linejoin="round" stroke-miterlimit="10" points="
		380.798,305.924 372.807,305.924 372.807,326.876 380.798,326.876 	"/>
	
		<line fill="none" stroke="#000000" stroke-width="0.0283" stroke-linecap="round" stroke-linejoin="round" stroke-miterlimit="10" x1="380.798" y1="307.868" x2="372.807" y2="307.868"/>
	
		<line fill="none" stroke="#000000" stroke-width="0.0283" stroke-linecap="round" stroke-linejoin="round" stroke-miterlimit="10" x1="380.798" y1="309.812" x2="372.807" y2="309.812"/>
	
		<line fill="none" stroke="#000000" stroke-width="0.0283" stroke-linecap="round" stroke-linejoin="round" stroke-miterlimit="10" x1="380.798" y1="313.7" x2="372.807" y2="313.7"/>
	
		<line fill="none" stroke="#000000" stroke-width="0.0283" stroke-linecap="round" stroke-linejoin="round" stroke-miterlimit="10" x1="380.798" y1="315.536" x2="372.807" y2="315.536"/>
	
		<line fill="none" stroke="#000000" stroke-width="0.0283" stroke-linecap="round" stroke-linejoin="round" stroke-miterlimit="10" x1="380.798" y1="317.481" x2="372.807" y2="317.481"/>
	
		<line fill="none" stroke="#000000" stroke-width="0.0283" stroke-linecap="round" stroke-linejoin="round" stroke-miterlimit="10" x1="380.798" y1="319.424" x2="372.807" y2="319.424"/>
	
		<line fill="none" stroke="#000000" stroke-width="0.0283" stroke-linecap="round" stroke-linejoin="round" stroke-miterlimit="10" x1="380.798" y1="321.26" x2="372.807" y2="321.26"/>
	
		<line fill="none" stroke="#000000" stroke-width="0.0283" stroke-linecap="round" stroke-linejoin="round" stroke-miterlimit="10" x1="380.798" y1="323.204" x2="372.807" y2="323.204"/>
	
		<line fill="none" stroke="#000000" stroke-width="0.0283" stroke-linecap="round" stroke-linejoin="round" stroke-miterlimit="10" x1="380.798" y1="325.148" x2="372.807" y2="325.148"/>
	
		<line fill="none" stroke="#000000" stroke-width="0.0283" stroke-linecap="round" stroke-linejoin="round" stroke-miterlimit="10" x1="380.798" y1="311.648" x2="372.807" y2="311.648"/>
	
		<line fill="none" stroke="#000000" stroke-width="0.085" stroke-linecap="round" stroke-linejoin="round" stroke-miterlimit="10" x1="340.838" y1="513.931" x2="360.171" y2="513.931"/>
	
		<path fill="none" stroke="#000000" stroke-width="0.085" stroke-linecap="round" stroke-linejoin="round" stroke-miterlimit="10" d="
		M340.838,539.205"/>
	
		<path fill="none" stroke="#000000" stroke-width="0.085" stroke-linecap="round" stroke-linejoin="round" stroke-miterlimit="10" d="
		M360.171,539.205"/>
	
		<line fill="none" stroke="#000000" stroke-width="0.085" stroke-linecap="round" stroke-linejoin="round" stroke-miterlimit="10" x1="340.838" y1="517.064" x2="360.171" y2="517.064"/>
	
		<line fill="none" stroke="#000000" stroke-width="0.085" stroke-linecap="round" stroke-linejoin="round" stroke-miterlimit="10" x1="340.838" y1="520.195" x2="360.171" y2="520.195"/>
	
		<line fill="none" stroke="#000000" stroke-width="0.085" stroke-linecap="round" stroke-linejoin="round" stroke-miterlimit="10" x1="340.838" y1="523.435" x2="360.171" y2="523.435"/>
	
		<line fill="none" stroke="#000000" stroke-width="0.085" stroke-linecap="round" stroke-linejoin="round" stroke-miterlimit="10" x1="340.838" y1="526.568" x2="360.171" y2="526.568"/>
	
		<line fill="none" stroke="#000000" stroke-width="0.085" stroke-linecap="round" stroke-linejoin="round" stroke-miterlimit="10" x1="340.838" y1="529.699" x2="360.171" y2="529.699"/>
	
		<line fill="none" stroke="#000000" stroke-width="0.085" stroke-linecap="round" stroke-linejoin="round" stroke-miterlimit="10" x1="340.838" y1="532.832" x2="360.171" y2="532.832"/>
	
		<line fill="none" stroke="#000000" stroke-width="0.085" stroke-linecap="round" stroke-linejoin="round" stroke-miterlimit="10" x1="340.838" y1="536.072" x2="360.171" y2="536.072"/>
	
		<line fill="none" stroke="#000000" stroke-width="0.085" stroke-linecap="round" stroke-linejoin="round" stroke-miterlimit="10" x1="361.466" y1="539.205" x2="380.798" y2="539.205"/>
	
		<line fill="none" stroke="#000000" stroke-width="0.085" stroke-linecap="round" stroke-linejoin="round" stroke-miterlimit="10" x1="380.798" y1="517.064" x2="361.466" y2="517.064"/>
	
		<line fill="none" stroke="#000000" stroke-width="0.085" stroke-linecap="round" stroke-linejoin="round" stroke-miterlimit="10" x1="380.798" y1="520.195" x2="361.466" y2="520.195"/>
	
		<line fill="none" stroke="#000000" stroke-width="0.085" stroke-linecap="round" stroke-linejoin="round" stroke-miterlimit="10" x1="380.798" y1="523.435" x2="361.466" y2="523.435"/>
	
		<line fill="none" stroke="#000000" stroke-width="0.085" stroke-linecap="round" stroke-linejoin="round" stroke-miterlimit="10" x1="380.798" y1="526.568" x2="361.466" y2="526.568"/>
	
		<line fill="none" stroke="#000000" stroke-width="0.085" stroke-linecap="round" stroke-linejoin="round" stroke-miterlimit="10" x1="380.798" y1="529.699" x2="361.466" y2="529.699"/>
	
		<line fill="none" stroke="#000000" stroke-width="0.085" stroke-linecap="round" stroke-linejoin="round" stroke-miterlimit="10" x1="380.798" y1="532.832" x2="361.466" y2="532.832"/>
	
		<line fill="none" stroke="#000000" stroke-width="0.085" stroke-linecap="round" stroke-linejoin="round" stroke-miterlimit="10" x1="380.798" y1="536.072" x2="361.466" y2="536.072"/>
	
		<polyline fill="none" stroke="#000000" stroke-width="0.085" stroke-linecap="round" stroke-linejoin="round" stroke-miterlimit="10" points="
		255.734,306.249 254.438,306.249 254.438,326.553 255.734,326.553 255.734,306.249 	"/>
	
		<polyline fill="none" stroke="#000000" stroke-width="0.085" stroke-linecap="round" stroke-linejoin="round" stroke-miterlimit="10" points="
		373.346,491.361 368.271,491.361 368.271,499.675 373.346,499.675 373.346,491.361 	"/>
	
		<line fill="none" stroke="#000000" stroke-width="0.085" stroke-linecap="round" stroke-linejoin="round" stroke-miterlimit="10" x1="368.271" y1="493.953" x2="373.346" y2="493.953"/>
	
		<line fill="none" stroke="#000000" stroke-width="0.085" stroke-linecap="round" stroke-linejoin="round" stroke-miterlimit="10" x1="370.755" y1="491.361" x2="370.755" y2="490.71"/>
	
		<polyline fill="none" stroke="#000000" stroke-width="0.085" stroke-linecap="round" stroke-linejoin="round" stroke-miterlimit="10" points="
		373.993,513.392 373.993,508.964 367.622,508.964 367.622,513.392 	"/>
	
		<line fill="none" stroke="#000000" stroke-width="0.085" stroke-linecap="round" stroke-linejoin="round" stroke-miterlimit="10" x1="373.993" y1="512.203" x2="367.622" y2="512.203"/>
	
		<line fill="none" stroke="#000000" stroke-width="0.085" stroke-linecap="round" stroke-linejoin="round" stroke-miterlimit="10" x1="339.542" y1="493.953" x2="339.542" y2="513.931"/>
	
		<line fill="none" stroke="#000000" stroke-width="0.085" stroke-linecap="round" stroke-linejoin="round" stroke-miterlimit="10" x1="340.838" y1="493.953" x2="340.838" y2="513.931"/>
	
		<line fill="none" stroke="#000000" stroke-width="0.085" stroke-linecap="round" stroke-linejoin="round" stroke-miterlimit="10" x1="361.466" y1="498.164" x2="361.466" y2="509.611"/>
	
		<line fill="none" stroke="#000000" stroke-width="0.085" stroke-linecap="round" stroke-linejoin="round" stroke-miterlimit="10" x1="360.171" y1="498.164" x2="360.171" y2="509.611"/>
	<polyline stroke="#000000" stroke-width="0.2551" stroke-linecap="round" stroke-linejoin="round" stroke-miterlimit="10" points="
		298.286,489.416 298.286,486.283 296.989,486.283 296.989,489.416 293.858,489.416 293.858,490.71 296.989,490.71 296.989,493.953 
		298.286,493.953 298.286,490.71 301.526,490.71 301.526,489.416 298.286,489.416 	"/>
	
		<line fill="none" stroke="#000000" stroke-width="0.0283" stroke-linecap="round" stroke-linejoin="round" stroke-miterlimit="10" x1="297.638" y1="486.283" x2="297.638" y2="424.833"/>
	
		<line fill="none" stroke="#000000" stroke-width="0.0283" stroke-linecap="round" stroke-linejoin="round" stroke-miterlimit="10" x1="336.302" y1="490.064" x2="301.526" y2="490.064"/>
	
		<line fill="none" stroke="#000000" stroke-width="0.085" stroke-linecap="round" stroke-linejoin="round" stroke-miterlimit="10" x1="340.838" y1="503.455" x2="340.838" y2="492.007"/>
	
		<line fill="none" stroke="#000000" stroke-width="0.085" stroke-linecap="round" stroke-linejoin="round" stroke-miterlimit="10" x1="339.542" y1="503.455" x2="339.542" y2="492.007"/>
	
		<polyline fill="none" stroke="#000000" stroke-width="0.1984" stroke-linecap="round" stroke-linejoin="round" stroke-miterlimit="10" points="
		255.734,326.553 254.438,326.553 254.438,327.2 255.734,327.2 255.734,326.553 	"/>
	
		<polyline fill="none" stroke="#000000" stroke-width="0.1984" stroke-linecap="round" stroke-linejoin="round" stroke-miterlimit="10" points="
		255.734,306.249 254.438,306.249 254.438,305.6 255.734,305.6 255.734,306.249 	"/>
	<polyline stroke="#000000" stroke-width="0.2551" stroke-linecap="round" stroke-linejoin="round" stroke-miterlimit="10" points="
		298.286,420.404 298.286,417.165 296.989,417.165 296.989,420.404 293.858,420.404 293.858,421.592 296.989,421.592 
		296.989,424.833 298.286,424.833 298.286,421.592 301.526,421.592 301.526,420.404 298.286,420.404 	"/>
	
		<line fill="none" stroke="#000000" stroke-width="0.085" stroke-linecap="round" stroke-linejoin="round" stroke-miterlimit="10" x1="255.734" y1="327.2" x2="255.734" y2="347.396"/>
	
		<line fill="none" stroke="#000000" stroke-width="0.085" stroke-linecap="round" stroke-linejoin="round" stroke-miterlimit="10" x1="254.438" y1="327.2" x2="254.438" y2="347.396"/>
	
		<polyline fill="none" stroke="#000000" stroke-width="0.085" stroke-linecap="round" stroke-linejoin="round" stroke-miterlimit="10" points="
		339.542,306.249 340.838,306.249 340.838,326.553 339.542,326.553 339.542,306.249 	"/>
	
		<polyline fill="none" stroke="#000000" stroke-width="0.1984" stroke-linecap="round" stroke-linejoin="round" stroke-miterlimit="10" points="
		339.542,326.553 340.838,326.553 340.838,327.2 339.542,327.2 339.542,326.553 	"/>
	
		<polyline fill="none" stroke="#000000" stroke-width="0.1984" stroke-linecap="round" stroke-linejoin="round" stroke-miterlimit="10" points="
		339.542,306.249 340.838,306.249 340.838,305.6 339.542,305.6 339.542,306.249 	"/>
	
		<polyline fill="none" stroke="#000000" stroke-width="0.1984" stroke-linecap="round" stroke-linejoin="round" stroke-miterlimit="10" points="
		339.542,347.396 340.838,347.396 340.838,348.044 339.542,348.044 339.542,347.396 	"/>
	
		<line fill="none" stroke="#000000" stroke-width="0.085" stroke-linecap="round" stroke-linejoin="round" stroke-miterlimit="10" x1="339.542" y1="327.2" x2="339.542" y2="347.396"/>
	
		<line fill="none" stroke="#000000" stroke-width="0.085" stroke-linecap="round" stroke-linejoin="round" stroke-miterlimit="10" x1="340.838" y1="327.2" x2="340.838" y2="347.396"/>
	
		<polyline fill="none" stroke="#000000" stroke-width="0.085" stroke-linecap="round" stroke-linejoin="round" stroke-miterlimit="10" points="
		339.542,398.803 340.838,398.803 340.838,376.665 339.542,376.665 339.542,398.803 	"/>
	
		<polyline fill="none" stroke="#000000" stroke-width="0.1984" stroke-linecap="round" stroke-linejoin="round" stroke-miterlimit="10" points="
		339.542,376.665 340.838,376.665 340.838,376.016 339.542,376.016 339.542,376.665 	"/>
	
		<polyline fill="none" stroke="#000000" stroke-width="0.1984" stroke-linecap="round" stroke-linejoin="round" stroke-miterlimit="10" points="
		339.542,398.803 340.838,398.803 340.838,399.453 339.542,399.453 339.542,398.803 	"/>
	
		<polyline fill="none" stroke="#000000" stroke-width="0.1984" stroke-linecap="round" stroke-linejoin="round" stroke-miterlimit="10" points="
		339.542,356.361 340.838,356.361 340.838,355.711 339.542,355.711 339.542,356.361 	"/>
	
		<line fill="none" stroke="#000000" stroke-width="0.085" stroke-linecap="round" stroke-linejoin="round" stroke-miterlimit="10" x1="339.542" y1="376.016" x2="339.542" y2="356.361"/>
	
		<line fill="none" stroke="#000000" stroke-width="0.085" stroke-linecap="round" stroke-linejoin="round" stroke-miterlimit="10" x1="340.838" y1="376.016" x2="340.838" y2="356.361"/>
	
		<line fill="none" stroke="#000000" stroke-width="0.8504" stroke-linecap="round" stroke-linejoin="round" stroke-miterlimit="10" x1="339.542" y1="366.188" x2="339.542" y2="366.188"/>
	
		<path fill="none" stroke="#000000" stroke-width="0.085" stroke-linecap="round" stroke-linejoin="round" stroke-miterlimit="10" d="
		M329.821,366.188c0,5.368,4.353,9.721,9.721,9.721l0,0"/>
	
		<path fill="none" stroke="#000000" stroke-width="0.085" stroke-linecap="round" stroke-linejoin="round" stroke-miterlimit="10" d="
		M349.263,366.188c0-5.367-4.354-9.721-9.721-9.721l0,0"/>
	
		<line fill="none" stroke="#000000" stroke-width="0.085" stroke-linecap="round" stroke-linejoin="round" stroke-miterlimit="10" x1="349.371" y1="366.188" x2="329.715" y2="366.188"/>
	
		<path fill="none" stroke="#000000" stroke-width="0.085" stroke-linecap="round" stroke-linejoin="round" stroke-miterlimit="10" d="
		M349.586,337.352c0-5.547-4.497-10.043-10.044-10.043l0,0"/>
	
		<path fill="none" stroke="#000000" stroke-width="0.085" stroke-linecap="round" stroke-linejoin="round" stroke-miterlimit="10" d="
		M329.499,337.352c0,5.547,4.496,10.044,10.043,10.044l0,0"/>
	
		<line fill="none" stroke="#000000" stroke-width="0.085" stroke-linecap="round" stroke-linejoin="round" stroke-miterlimit="10" x1="329.391" y1="337.352" x2="349.694" y2="337.352"/>
	
		<line fill="none" stroke="#000000" stroke-width="0.8504" stroke-linecap="round" stroke-linejoin="round" stroke-miterlimit="10" x1="339.542" y1="337.352" x2="339.542" y2="337.352"/>
	
		<line fill="none" stroke="#000000" stroke-width="0.8504" stroke-linecap="round" stroke-linejoin="round" stroke-miterlimit="10" x1="255.734" y1="337.352" x2="255.734" y2="337.352"/>
	
		<path fill="none" stroke="#000000" stroke-width="0.085" stroke-linecap="round" stroke-linejoin="round" stroke-miterlimit="10" d="
		M255.735,327.309c-5.547,0-10.044,4.496-10.044,10.043l0,0"/>
	
		<path fill="none" stroke="#000000" stroke-width="0.085" stroke-linecap="round" stroke-linejoin="round" stroke-miterlimit="10" d="
		M255.735,347.396c5.547,0,10.043-4.497,10.043-10.044"/>
	
		<line fill="none" stroke="#000000" stroke-width="0.085" stroke-linecap="round" stroke-linejoin="round" stroke-miterlimit="10" x1="265.887" y1="337.352" x2="245.582" y2="337.352"/>
	
		<polyline fill="none" stroke="#000000" stroke-width="0.2551" stroke-linecap="round" stroke-linejoin="round" stroke-miterlimit="10" points="
		298.718,562.425 296.666,562.425 296.666,562.533 297.53,562.533 297.53,564.693 296.666,564.693 296.666,564.908 298.718,564.908 
		298.718,564.693 297.745,564.693 297.745,562.533 298.718,562.533 298.718,562.425 	"/>
	
		<polyline fill="none" stroke="#000000" stroke-width="0.2551" stroke-linecap="round" stroke-linejoin="round" stroke-miterlimit="10" points="
		340.622,561.128 339.65,561.128 339.65,562.425 340.622,562.425 340.622,561.128 	"/>
	
		<polyline fill="none" stroke="#000000" stroke-width="0.2551" stroke-linecap="round" stroke-linejoin="round" stroke-miterlimit="10" points="
		298.179,561.128 297.207,561.128 297.207,562.425 298.179,562.425 298.179,561.128 	"/>
	
		<polyline fill="none" stroke="#000000" stroke-width="0.2551" stroke-linecap="round" stroke-linejoin="round" stroke-miterlimit="10" points="
		341.163,562.425 339.11,562.425 339.11,562.533 340.083,562.533 340.083,564.693 339.11,564.693 339.11,564.908 341.163,564.908 
		341.163,564.693 340.299,564.693 340.299,562.533 341.163,562.533 341.163,562.425 	"/>
	
		<polyline fill="none" stroke="#000000" stroke-width="0.1984" stroke-linecap="round" stroke-linejoin="round" stroke-miterlimit="10" points="
		317.942,562.964 338.245,562.964 338.245,561.775 317.942,561.775 317.942,562.964 	"/>
	
		<polyline fill="none" stroke="#000000" stroke-width="0.085" stroke-linecap="round" stroke-linejoin="round" stroke-miterlimit="10" points="
		342.243,574.519 295.479,574.519 295.479,564.908 342.243,564.908 342.243,574.519 	"/>
	
		<line fill="none" stroke="#000000" stroke-width="0.085" stroke-linecap="round" stroke-linejoin="round" stroke-miterlimit="10" x1="342.243" y1="568.148" x2="295.479" y2="568.148"/>
	
		<line fill="none" stroke="#000000" stroke-width="0.085" stroke-linecap="round" stroke-linejoin="round" stroke-miterlimit="10" x1="342.243" y1="571.279" x2="295.479" y2="571.279"/>
	
		<line fill="none" stroke="#000000" stroke-width="0.0283" stroke-linecap="round" stroke-linejoin="round" stroke-miterlimit="10" x1="317.942" y1="562.425" x2="298.718" y2="562.425"/>
	
		<line fill="none" stroke="#000000" stroke-width="0.085" stroke-linecap="round" stroke-linejoin="round" stroke-miterlimit="10" x1="337.274" y1="561.128" x2="337.274" y2="561.775"/>
	
		<line fill="none" stroke="#000000" stroke-width="0.085" stroke-linecap="round" stroke-linejoin="round" stroke-miterlimit="10" x1="318.915" y1="561.128" x2="318.915" y2="561.775"/>
	
		<line stroke="#000000" stroke-width="0.2551" stroke-linecap="round" stroke-linejoin="round" stroke-miterlimit="10" x1="342.135" y1="561.128" x2="338.245" y2="561.128"/>
	
		<line fill="none" stroke="#000000" stroke-width="0.085" stroke-linecap="round" stroke-linejoin="round" stroke-miterlimit="10" x1="337.274" y1="557.24" x2="318.915" y2="557.24"/>
	
		<polyline fill="none" stroke="#000000" stroke-width="0.085" stroke-linecap="round" stroke-linejoin="round" stroke-miterlimit="10" points="
		233.594,434.984 242.99,434.984 242.99,476.132 233.594,476.132 233.594,434.984 	"/>
	
		<line fill="none" stroke="#000000" stroke-width="0.085" stroke-linecap="round" stroke-linejoin="round" stroke-miterlimit="10" x1="233.594" y1="445.244" x2="242.99" y2="445.244"/>
	
		<line fill="none" stroke="#000000" stroke-width="0.085" stroke-linecap="round" stroke-linejoin="round" stroke-miterlimit="10" x1="233.594" y1="455.503" x2="242.99" y2="455.503"/>
	
		<line fill="none" stroke="#000000" stroke-width="0.0283" stroke-linecap="round" stroke-linejoin="round" stroke-miterlimit="10" x1="239.426" y1="446.107" x2="239.426" y2="454.855"/>
	
		<line fill="none" stroke="#000000" stroke-width="0.0283" stroke-linecap="round" stroke-linejoin="round" stroke-miterlimit="10" x1="241.694" y1="446.107" x2="241.694" y2="454.855"/>
	
		<line fill="none" stroke="#000000" stroke-width="0.0283" stroke-linecap="round" stroke-linejoin="round" stroke-miterlimit="10" x1="237.158" y1="446.107" x2="237.158" y2="454.855"/>
	
		<line fill="none" stroke="#000000" stroke-width="0.0283" stroke-linecap="round" stroke-linejoin="round" stroke-miterlimit="10" x1="234.782" y1="446.107" x2="234.782" y2="454.855"/>
	
		<circle fill="none" stroke="#000000" stroke-width="0.0283" stroke-linecap="round" stroke-linejoin="round" stroke-miterlimit="10" cx="240.615" cy="442.652" r="1.188"/>
	
		<circle fill="none" stroke="#000000" stroke-width="0.0283" stroke-linecap="round" stroke-linejoin="round" stroke-miterlimit="10" cx="235.863" cy="442.652" r="1.188"/>
	
		<circle fill="none" stroke="#000000" stroke-width="0.0283" stroke-linecap="round" stroke-linejoin="round" stroke-miterlimit="10" cx="240.615" cy="437.576" r="1.188"/>
	
		<circle fill="none" stroke="#000000" stroke-width="0.0283" stroke-linecap="round" stroke-linejoin="round" stroke-miterlimit="10" cx="235.863" cy="437.576" r="1.188"/>
	
		<polyline fill="none" stroke="#000000" stroke-width="0.0283" stroke-linecap="round" stroke-linejoin="round" stroke-miterlimit="10" points="
		241.694,456.8 234.782,456.8 234.782,464.576 241.694,464.576 241.694,456.8 	"/>
	
		<line fill="none" stroke="#000000" stroke-width="0.0283" stroke-linecap="round" stroke-linejoin="round" stroke-miterlimit="10" x1="233.918" y1="460.687" x2="235.754" y2="460.687"/>
	
		<polyline fill="none" stroke="#000000" stroke-width="0.085" stroke-linecap="round" stroke-linejoin="round" stroke-miterlimit="10" points="
		226.682,434.984 233.594,434.984 233.594,476.132 226.682,476.132 226.682,434.984 	"/>
	
		<polyline fill="none" stroke="#000000" stroke-width="0.085" stroke-linecap="round" stroke-linejoin="round" stroke-miterlimit="10" points="
		226.682,445.244 233.594,445.244 226.682,445.244 	"/>
	
		<line fill="none" stroke="#000000" stroke-width="0.085" stroke-linecap="round" stroke-linejoin="round" stroke-miterlimit="10" x1="233.594" y1="455.503" x2="226.682" y2="455.503"/>
	
		<polyline fill="none" stroke="#000000" stroke-width="0.085" stroke-linecap="round" stroke-linejoin="round" stroke-miterlimit="10" points="
		226.682,465.763 233.594,465.763 242.99,465.763 	"/>
	
		<polyline fill="none" stroke="#000000" stroke-width="0.085" stroke-linecap="round" stroke-linejoin="round" stroke-miterlimit="10" points="
		255.734,535.748 254.438,535.748 254.438,515.445 255.734,515.445 255.734,535.748 	"/>
	
		<polyline fill="none" stroke="#000000" stroke-width="0.1984" stroke-linecap="round" stroke-linejoin="round" stroke-miterlimit="10" points="
		255.734,515.445 254.438,515.445 254.438,514.794 255.734,514.794 255.734,515.445 	"/>
	
		<polyline fill="none" stroke="#000000" stroke-width="0.1984" stroke-linecap="round" stroke-linejoin="round" stroke-miterlimit="10" points="
		255.734,535.748 254.438,535.748 254.438,536.396 255.734,536.396 255.734,535.748 	"/>
	
		<polyline fill="none" stroke="#000000" stroke-width="0.1984" stroke-linecap="round" stroke-linejoin="round" stroke-miterlimit="10" points="
		255.734,494.599 254.438,494.599 254.438,493.953 255.734,493.953 255.734,494.599 	"/>
	
		<line fill="none" stroke="#000000" stroke-width="0.085" stroke-linecap="round" stroke-linejoin="round" stroke-miterlimit="10" x1="255.734" y1="514.794" x2="255.734" y2="494.599"/>
	
		<line fill="none" stroke="#000000" stroke-width="0.085" stroke-linecap="round" stroke-linejoin="round" stroke-miterlimit="10" x1="254.438" y1="514.794" x2="254.438" y2="494.599"/>
	
		<line fill="none" stroke="#000000" stroke-width="0.8504" stroke-linecap="round" stroke-linejoin="round" stroke-miterlimit="10" x1="255.734" y1="504.644" x2="255.734" y2="504.644"/>
	
		<path fill="none" stroke="#000000" stroke-width="0.085" stroke-linecap="round" stroke-linejoin="round" stroke-miterlimit="10" d="
		M245.691,504.644c0,5.547,4.497,10.043,10.044,10.043l0,0"/>
	
		<path fill="none" stroke="#000000" stroke-width="0.085" stroke-linecap="round" stroke-linejoin="round" stroke-miterlimit="10" d="
		M265.778,504.644c0-5.549-4.496-10.045-10.043-10.045l0,0"/>
	
		<line fill="none" stroke="#000000" stroke-width="0.085" stroke-linecap="round" stroke-linejoin="round" stroke-miterlimit="10" x1="265.887" y1="504.644" x2="245.582" y2="504.644"/>
	
		<line fill="none" stroke="#000000" stroke-width="0.085" stroke-linecap="round" stroke-linejoin="round" stroke-miterlimit="10" x1="250.658" y1="490.71" x2="215.126" y2="490.71"/>
	
		<line fill="none" stroke="#000000" stroke-width="0.085" stroke-linecap="round" stroke-linejoin="round" stroke-miterlimit="10" x1="250.658" y1="489.416" x2="215.126" y2="489.416"/>
	
		<polyline fill="none" stroke="#000000" stroke-width="0.1984" stroke-linecap="round" stroke-linejoin="round" stroke-miterlimit="10" points="
		250.658,490.71 250.658,489.416 251.307,489.416 251.307,490.71 250.658,490.71 	"/>
	
		<polyline fill="none" stroke="#000000" stroke-width="0.1984" stroke-linecap="round" stroke-linejoin="round" stroke-miterlimit="10" points="
		232.622,490.71 232.622,489.416 233.27,489.416 233.27,490.71 232.622,490.71 	"/>
	
		<line fill="none" stroke="#000000" stroke-width="0.9921" stroke-linecap="round" stroke-linejoin="round" stroke-miterlimit="10" x1="241.91" y1="490.71" x2="241.91" y2="490.71"/>
	
		<path fill="none" stroke="#000000" stroke-width="0.085" stroke-linecap="round" stroke-linejoin="round" stroke-miterlimit="10" d="
		M241.911,482.072c-4.772,0-8.641,3.867-8.641,8.639l0,0"/>
	
		<line fill="none" stroke="#000000" stroke-width="0.085" stroke-linecap="round" stroke-linejoin="round" stroke-miterlimit="10" x1="241.91" y1="481.964" x2="241.91" y2="499.46"/>
	
		<path fill="none" stroke="#000000" stroke-width="0.085" stroke-linecap="round" stroke-linejoin="round" stroke-miterlimit="10" d="
		M241.911,499.351c4.772,0,8.64-3.869,8.64-8.641"/>
	
		<polyline fill="none" stroke="#000000" stroke-width="0.1984" stroke-linecap="round" stroke-linejoin="round" stroke-miterlimit="10" points="
		215.126,490.71 215.126,489.416 214.478,489.416 214.478,490.71 215.126,490.71 	"/>
	
		<line fill="none" stroke="#000000" stroke-width="0.085" stroke-linecap="round" stroke-linejoin="round" stroke-miterlimit="10" x1="250.658" y1="351.284" x2="215.126" y2="351.284"/>
	
		<line fill="none" stroke="#000000" stroke-width="0.085" stroke-linecap="round" stroke-linejoin="round" stroke-miterlimit="10" x1="250.658" y1="352.581" x2="215.126" y2="352.581"/>
	
		<polyline fill="none" stroke="#000000" stroke-width="0.1984" stroke-linecap="round" stroke-linejoin="round" stroke-miterlimit="10" points="
		250.658,351.284 250.658,352.581 251.307,352.581 251.307,351.284 250.658,351.284 	"/>
	
		<polyline fill="none" stroke="#000000" stroke-width="0.1984" stroke-linecap="round" stroke-linejoin="round" stroke-miterlimit="10" points="
		232.622,351.284 232.622,352.581 233.27,352.581 233.27,351.284 232.622,351.284 	"/>
	
		<line fill="none" stroke="#000000" stroke-width="0.9921" stroke-linecap="round" stroke-linejoin="round" stroke-miterlimit="10" x1="241.91" y1="351.284" x2="241.91" y2="351.284"/>
	
		<path fill="none" stroke="#000000" stroke-width="0.085" stroke-linecap="round" stroke-linejoin="round" stroke-miterlimit="10" d="
		M233.27,351.284c0,4.771,3.869,8.641,8.641,8.641l0,0"/>
	
		<line fill="none" stroke="#000000" stroke-width="0.085" stroke-linecap="round" stroke-linejoin="round" stroke-miterlimit="10" x1="241.91" y1="360.033" x2="241.91" y2="342.536"/>
	
		<path fill="none" stroke="#000000" stroke-width="0.085" stroke-linecap="round" stroke-linejoin="round" stroke-miterlimit="10" d="
		M250.551,351.284c0-4.771-3.868-8.639-8.64-8.639l0,0"/>
	
		<polyline fill="none" stroke="#000000" stroke-width="0.1984" stroke-linecap="round" stroke-linejoin="round" stroke-miterlimit="10" points="
		215.126,351.284 215.126,352.581 214.478,352.581 214.478,351.284 215.126,351.284 	"/>
	
		<line fill="none" stroke="#000000" stroke-width="0.0283" stroke-linecap="round" stroke-linejoin="round" stroke-miterlimit="10" x1="254.438" y1="316.401" x2="214.478" y2="316.401"/>
	
		<line fill="none" stroke="#000000" stroke-width="0.0283" stroke-linecap="round" stroke-linejoin="round" stroke-miterlimit="10" x1="254.438" y1="337.352" x2="214.478" y2="337.352"/>
	
		<line fill="none" stroke="#000000" stroke-width="0.0283" stroke-linecap="round" stroke-linejoin="round" stroke-miterlimit="10" x1="218.474" y1="284.756" x2="218.474" y2="351.284"/>
	
		<line fill="none" stroke="#000000" stroke-width="0.0283" stroke-linecap="round" stroke-linejoin="round" stroke-miterlimit="10" x1="222.471" y1="284.756" x2="222.471" y2="351.284"/>
	
		<line fill="none" stroke="#000000" stroke-width="0.0283" stroke-linecap="round" stroke-linejoin="round" stroke-miterlimit="10" x1="226.466" y1="284.756" x2="226.466" y2="351.284"/>
	
		<line fill="none" stroke="#000000" stroke-width="0.0283" stroke-linecap="round" stroke-linejoin="round" stroke-miterlimit="10" x1="234.458" y1="284.756" x2="234.458" y2="351.284"/>
	
		<line fill="none" stroke="#000000" stroke-width="0.0283" stroke-linecap="round" stroke-linejoin="round" stroke-miterlimit="10" x1="230.462" y1="284.756" x2="230.462" y2="351.284"/>
	
		<line fill="none" stroke="#000000" stroke-width="0.0283" stroke-linecap="round" stroke-linejoin="round" stroke-miterlimit="10" x1="250.442" y1="284.756" x2="250.442" y2="351.284"/>
	
		<line fill="none" stroke="#000000" stroke-width="0.0283" stroke-linecap="round" stroke-linejoin="round" stroke-miterlimit="10" x1="246.446" y1="284.756" x2="246.446" y2="351.284"/>
	
		<line fill="none" stroke="#000000" stroke-width="0.0283" stroke-linecap="round" stroke-linejoin="round" stroke-miterlimit="10" x1="242.451" y1="284.756" x2="242.451" y2="351.284"/>
	
		<line fill="none" stroke="#000000" stroke-width="0.0283" stroke-linecap="round" stroke-linejoin="round" stroke-miterlimit="10" x1="238.455" y1="284.756" x2="238.455" y2="351.284"/>
	
		<line fill="none" stroke="#000000" stroke-width="0.0283" stroke-linecap="round" stroke-linejoin="round" stroke-miterlimit="10" x1="254.438" y1="295.448" x2="214.478" y2="295.448"/>
	
		<line fill="none" stroke="#000000" stroke-width="0.0283" stroke-linecap="round" stroke-linejoin="round" stroke-miterlimit="10" x1="254.438" y1="305.924" x2="214.478" y2="305.924"/>
	
		<line fill="none" stroke="#000000" stroke-width="0.0283" stroke-linecap="round" stroke-linejoin="round" stroke-miterlimit="10" x1="254.438" y1="326.876" x2="214.478" y2="326.876"/>
	
		<line fill="none" stroke="#000000" stroke-width="0.0283" stroke-linecap="round" stroke-linejoin="round" stroke-miterlimit="10" x1="254.438" y1="347.72" x2="214.478" y2="347.72"/>
	
		<line fill="none" stroke="#000000" stroke-width="0.0283" stroke-linecap="round" stroke-linejoin="round" stroke-miterlimit="10" x1="339.542" y1="420.945" x2="301.526" y2="420.945"/>
	
		<polyline fill="none" stroke="#000000" stroke-width="0.085" stroke-linecap="round" stroke-linejoin="round" stroke-miterlimit="10" points="
		312.542,294.801 312.542,323.529 325.286,323.529 325.286,294.801 312.542,294.801 	"/>
	
		<polyline fill="none" stroke="#000000" stroke-width="0.085" stroke-linecap="round" stroke-linejoin="round" stroke-miterlimit="10" points="
		331.657,306.249 331.657,311.432 326.583,311.432 326.583,306.249 331.657,306.249 	"/>
	
		<line fill="none" stroke="#000000" stroke-width="0.0283" stroke-linecap="round" stroke-linejoin="round" stroke-miterlimit="10" x1="331.01" y1="306.249" x2="331.01" y2="311.432"/>
	
		<polyline fill="none" stroke="#000000" stroke-width="0.085" stroke-linecap="round" stroke-linejoin="round" stroke-miterlimit="10" points="
		331.657,302.467 331.657,297.392 326.583,297.392 326.583,302.467 331.657,302.467 	"/>
	
		<line fill="none" stroke="#000000" stroke-width="0.0283" stroke-linecap="round" stroke-linejoin="round" stroke-miterlimit="10" x1="331.01" y1="302.467" x2="331.01" y2="297.392"/>
	
		<polyline fill="none" stroke="#000000" stroke-width="0.085" stroke-linecap="round" stroke-linejoin="round" stroke-miterlimit="10" points="
		306.171,306.249 306.171,311.432 311.245,311.432 311.245,306.249 306.171,306.249 	"/>
	
		<line fill="none" stroke="#000000" stroke-width="0.0283" stroke-linecap="round" stroke-linejoin="round" stroke-miterlimit="10" x1="306.818" y1="306.249" x2="306.818" y2="311.432"/>
	
		<polyline fill="none" stroke="#000000" stroke-width="0.085" stroke-linecap="round" stroke-linejoin="round" stroke-miterlimit="10" points="
		306.171,302.467 306.171,297.392 311.245,297.392 311.245,302.467 306.171,302.467 	"/>
	
		<line fill="none" stroke="#000000" stroke-width="0.0283" stroke-linecap="round" stroke-linejoin="round" stroke-miterlimit="10" x1="306.818" y1="302.467" x2="306.818" y2="297.392"/>
	
		<polyline fill="none" stroke="#000000" stroke-width="0.085" stroke-linecap="round" stroke-linejoin="round" stroke-miterlimit="10" points="
		306.171,315.211 306.171,320.289 311.245,320.289 311.245,315.211 306.171,315.211 	"/>
	
		<line fill="none" stroke="#000000" stroke-width="0.0283" stroke-linecap="round" stroke-linejoin="round" stroke-miterlimit="10" x1="306.818" y1="315.211" x2="306.818" y2="320.289"/>
	
		<polyline fill="none" stroke="#000000" stroke-width="0.085" stroke-linecap="round" stroke-linejoin="round" stroke-miterlimit="10" points="
		331.657,315.211 331.657,320.289 326.583,320.289 326.583,315.211 331.657,315.211 	"/>
	
		<line fill="none" stroke="#000000" stroke-width="0.0283" stroke-linecap="round" stroke-linejoin="round" stroke-miterlimit="10" x1="331.01" y1="315.211" x2="331.01" y2="320.289"/>
	
		<circle fill="none" stroke="#000000" stroke-width="0.085" stroke-linecap="round" stroke-linejoin="round" stroke-miterlimit="10" cx="273.664" cy="536.287" r="5.076"/>
	
		<polyline fill="none" stroke="#000000" stroke-width="0.085" stroke-linecap="round" stroke-linejoin="round" stroke-miterlimit="10" points="
		281.871,528.728 284.354,533.156 279.927,535.64 277.442,531.21 281.871,528.728 	"/>
	
		<line fill="none" stroke="#000000" stroke-width="0.0283" stroke-linecap="round" stroke-linejoin="round" stroke-miterlimit="10" x1="281.329" y1="529.052" x2="283.814" y2="533.48"/>
	
		<polyline fill="none" stroke="#000000" stroke-width="0.085" stroke-linecap="round" stroke-linejoin="round" stroke-miterlimit="10" points="
		262.971,539.312 265.455,543.847 269.99,541.363 267.398,536.828 262.971,539.312 	"/>
	
		<line fill="none" stroke="#000000" stroke-width="0.0283" stroke-linecap="round" stroke-linejoin="round" stroke-miterlimit="10" x1="263.511" y1="539.095" x2="266.102" y2="543.525"/>
	
		<polyline fill="none" stroke="#000000" stroke-width="0.085" stroke-linecap="round" stroke-linejoin="round" stroke-miterlimit="10" points="
		266.21,528.08 270.638,525.595 273.122,530.023 268.694,532.507 266.21,528.08 	"/>
	
		<line fill="none" stroke="#000000" stroke-width="0.0283" stroke-linecap="round" stroke-linejoin="round" stroke-miterlimit="10" x1="266.427" y1="528.619" x2="270.962" y2="526.136"/>
	
		<polyline fill="none" stroke="#000000" stroke-width="0.085" stroke-linecap="round" stroke-linejoin="round" stroke-miterlimit="10" points="
		276.794,546.98 281.222,544.496 278.738,540.068 274.31,542.552 276.794,546.98 	"/>
	
		<line fill="none" stroke="#000000" stroke-width="0.0283" stroke-linecap="round" stroke-linejoin="round" stroke-miterlimit="10" x1="276.471" y1="546.439" x2="280.898" y2="543.957"/>
	
		<polyline fill="none" stroke="#000000" stroke-width="0.2551" stroke-linecap="round" stroke-linejoin="round" stroke-miterlimit="10" points="
		338.245,557.24 337.274,557.24 337.274,561.128 338.245,561.128 338.245,557.24 	"/>
	
		<polyline fill="none" stroke="#000000" stroke-width="0.085" stroke-linecap="round" stroke-linejoin="round" stroke-miterlimit="10" points="
		300.229,509.179 295.046,509.179 295.046,542.011 300.229,542.011 300.229,509.179 	"/>
	
		<line fill="none" stroke="#000000" stroke-width="0.0283" stroke-linecap="round" stroke-linejoin="round" stroke-miterlimit="10" x1="376.802" y1="326.876" x2="376.802" y2="420.404"/>
	
		<line fill="none" stroke="#000000" stroke-width="0.0283" stroke-linecap="round" stroke-linejoin="round" stroke-miterlimit="10" x1="340.838" y1="376.34" x2="380.798" y2="376.34"/>
	
		<line fill="none" stroke="#000000" stroke-width="0.0283" stroke-linecap="round" stroke-linejoin="round" stroke-miterlimit="10" x1="340.838" y1="387.68" x2="380.798" y2="387.68"/>
	
		<line fill="none" stroke="#000000" stroke-width="0.0283" stroke-linecap="round" stroke-linejoin="round" stroke-miterlimit="10" x1="340.838" y1="399.453" x2="380.798" y2="399.453"/>
	
		<line fill="none" stroke="#000000" stroke-width="0.0283" stroke-linecap="round" stroke-linejoin="round" stroke-miterlimit="10" x1="340.838" y1="409.928" x2="380.798" y2="409.928"/>
	
		<line fill="none" stroke="#000000" stroke-width="0.0283" stroke-linecap="round" stroke-linejoin="round" stroke-miterlimit="10" x1="340.838" y1="356.036" x2="380.798" y2="356.036"/>
	<polyline stroke="#000000" stroke-width="0.2551" stroke-linecap="round" stroke-linejoin="round" stroke-miterlimit="10" points="
		340.838,352.581 340.838,355.711 339.542,355.711 339.542,352.581 336.302,352.581 336.302,351.284 339.542,351.284 
		339.542,348.044 340.838,348.044 340.838,351.284 343.971,351.284 343.971,352.581 340.838,352.581 	"/>
	
		<line fill="none" stroke="#000000" stroke-width="0.0283" stroke-linecap="round" stroke-linejoin="round" stroke-miterlimit="10" x1="343.971" y1="351.932" x2="380.798" y2="351.932"/>
	<g>
		<g>
			
				<line fill="none" stroke="#000000" stroke-width="0.0283" stroke-linecap="round" stroke-linejoin="round" x1="254.438" y1="351.284" x2="254.292" y2="351.042"/>
			
				<line fill="none" stroke="#000000" stroke-width="0.0283" stroke-linecap="round" stroke-linejoin="round" stroke-dasharray="0.5623,1.1247" x1="253.712" y1="350.078" x2="214.914" y2="285.481"/>
			
				<line fill="none" stroke="#000000" stroke-width="0.0283" stroke-linecap="round" stroke-linejoin="round" x1="214.624" y1="285" x2="214.478" y2="284.756"/>
		</g>
	</g>
	<g>
		<g>
			
				<line fill="none" stroke="#000000" stroke-width="0.0283" stroke-linecap="round" stroke-linejoin="round" x1="214.478" y1="351.284" x2="214.624" y2="351.042"/>
			
				<line fill="none" stroke="#000000" stroke-width="0.0283" stroke-linecap="round" stroke-linejoin="round" stroke-dasharray="0.5623,1.1247" x1="215.204" y1="350.078" x2="254.003" y2="285.481"/>
			
				<line fill="none" stroke="#000000" stroke-width="0.0283" stroke-linecap="round" stroke-linejoin="round" x1="254.292" y1="285" x2="254.438" y2="284.756"/>
		</g>
	</g>
	<g>
		<g>
			
				<line fill="none" stroke="#000000" stroke-width="0.0283" stroke-linecap="round" stroke-linejoin="round" x1="340.838" y1="420.404" x2="340.919" y2="420.131"/>
			
				<line fill="none" stroke="#000000" stroke-width="0.0283" stroke-linecap="round" stroke-linejoin="round" stroke-dasharray="0.5679,1.1358" x1="341.239" y1="419.042" x2="380.558" y2="285.573"/>
			
				<line fill="none" stroke="#000000" stroke-width="0.0283" stroke-linecap="round" stroke-linejoin="round" x1="380.718" y1="285.029" x2="380.798" y2="284.756"/>
		</g>
	</g>
	<g>
		<g>
			
				<line fill="none" stroke="#000000" stroke-width="0.0283" stroke-linecap="round" stroke-linejoin="round" x1="380.798" y1="420.404" x2="380.718" y2="420.131"/>
			
				<line fill="none" stroke="#000000" stroke-width="0.0283" stroke-linecap="round" stroke-linejoin="round" stroke-dasharray="0.5679,1.1358" x1="380.397" y1="419.042" x2="341.079" y2="285.573"/>
			
				<line fill="none" stroke="#000000" stroke-width="0.0283" stroke-linecap="round" stroke-linejoin="round" x1="340.919" y1="285.029" x2="340.838" y2="284.756"/>
		</g>
	</g>
	<g>
		<g>
			
				<line fill="none" stroke="#000000" stroke-width="0.0283" stroke-linecap="round" stroke-linejoin="round" x1="254.438" y1="490.71" x2="254.292" y2="490.955"/>
			
				<line fill="none" stroke="#000000" stroke-width="0.0283" stroke-linecap="round" stroke-linejoin="round" stroke-dasharray="0.5623,1.1247" x1="253.712" y1="491.917" x2="214.914" y2="556.513"/>
			
				<line fill="none" stroke="#000000" stroke-width="0.0283" stroke-linecap="round" stroke-linejoin="round" x1="214.624" y1="556.996" x2="214.478" y2="557.24"/>
		</g>
	</g>
	<g>
		<g>
			
				<line fill="none" stroke="#000000" stroke-width="0.0283" stroke-linecap="round" stroke-linejoin="round" x1="214.478" y1="490.71" x2="214.624" y2="490.955"/>
			
				<line fill="none" stroke="#000000" stroke-width="0.0283" stroke-linecap="round" stroke-linejoin="round" stroke-dasharray="0.5623,1.1247" x1="215.204" y1="491.917" x2="254.003" y2="556.513"/>
			
				<line fill="none" stroke="#000000" stroke-width="0.0283" stroke-linecap="round" stroke-linejoin="round" x1="254.292" y1="556.996" x2="254.438" y2="557.24"/>
		</g>
	</g>
	<polyline stroke="#000000" stroke-width="0.2551" stroke-linecap="round" stroke-linejoin="round" stroke-miterlimit="10" points="
		255.734,489.416 255.734,486.283 254.438,486.283 254.438,489.416 251.307,489.416 251.307,490.71 254.438,490.71 254.438,493.953 
		255.734,493.953 255.734,490.71 258.974,490.71 258.974,489.416 255.734,489.416 	"/>
	<polyline stroke="#000000" stroke-width="0.2551" stroke-linecap="round" stroke-linejoin="round" stroke-miterlimit="10" points="
		255.734,351.284 255.734,348.044 254.438,348.044 254.438,351.284 251.307,351.284 251.307,352.581 254.438,352.581 
		254.438,355.711 255.734,355.711 255.734,352.581 258.974,352.581 258.974,351.284 255.734,351.284 	"/>
	<polyline stroke="#000000" stroke-width="0.2551" stroke-linecap="round" stroke-linejoin="round" stroke-miterlimit="10" points="
		228.519,421.592 254.438,421.592 254.438,424.833 255.734,424.833 255.734,421.592 258.974,421.592 258.974,420.404 
		255.734,420.404 255.734,417.165 254.438,417.165 254.438,420.404 228.519,420.404 228.519,421.592 	"/>
	<polyline stroke="#000000" stroke-width="0.2551" stroke-linecap="round" stroke-linejoin="round" stroke-miterlimit="10" points="
		210.699,280.868 210.699,561.128 299.583,561.128 299.583,557.24 255.734,557.24 255.734,536.396 254.438,536.396 254.438,557.24 
		214.478,557.24 214.478,421.592 215.774,421.592 215.774,420.404 214.478,420.404 214.478,284.756 254.438,284.756 254.438,305.6 
		255.734,305.6 255.734,284.756 	"/>
	
		<line fill="none" stroke="#000000" stroke-width="0.2551" stroke-linecap="round" stroke-linejoin="round" stroke-miterlimit="10" x1="384.579" y1="303.44" x2="384.579" y2="280.868"/>
	<polyline stroke="#000000" stroke-width="0.2551" stroke-linecap="round" stroke-linejoin="round" stroke-miterlimit="10" points="
		298.286,351.284 298.286,348.044 296.989,348.044 296.989,351.284 293.858,351.284 293.858,352.581 296.989,352.581 
		296.989,355.711 298.286,355.711 298.286,352.581 301.526,352.581 301.526,351.284 298.286,351.284 	"/>
	<polyline stroke="#000000" stroke-width="0.2551" stroke-linecap="round" stroke-linejoin="round" stroke-miterlimit="10" points="
		340.838,420.404 340.838,399.453 339.542,399.453 339.542,473.539 340.838,473.539 340.838,421.592 348.829,421.592 
		348.829,420.404 340.838,420.404 	"/>
	
		<polyline fill="none" stroke="#000000" stroke-width="0.1984" stroke-linecap="round" stroke-linejoin="round" stroke-miterlimit="10" points="
		349.479,420.404 349.479,421.592 348.829,421.592 348.829,420.404 349.479,420.404 	"/>
	
		<polyline fill="none" stroke="#000000" stroke-width="0.1984" stroke-linecap="round" stroke-linejoin="round" stroke-miterlimit="10" points="
		372.157,420.404 372.157,421.592 372.807,421.592 372.807,420.404 372.157,420.404 	"/>
	
		<line fill="none" stroke="#000000" stroke-width="0.085" stroke-linecap="round" stroke-linejoin="round" stroke-miterlimit="10" x1="372.157" y1="421.592" x2="349.479" y2="421.592"/>
	
		<line fill="none" stroke="#000000" stroke-width="0.085" stroke-linecap="round" stroke-linejoin="round" stroke-miterlimit="10" x1="372.157" y1="420.404" x2="349.479" y2="420.404"/>
	
		<line fill="none" stroke="#000000" stroke-width="0.8504" stroke-linecap="round" stroke-linejoin="round" stroke-miterlimit="10" x1="360.818" y1="421.592" x2="360.818" y2="421.592"/>
	
		<path fill="none" stroke="#000000" stroke-width="0.085" stroke-linecap="round" stroke-linejoin="round" stroke-miterlimit="10" d="
		M360.819,410.252c-6.264,0-11.341,5.077-11.341,11.34l0,0"/>
	
		<path fill="none" stroke="#000000" stroke-width="0.085" stroke-linecap="round" stroke-linejoin="round" stroke-miterlimit="10" d="
		M360.819,432.931c6.263,0,11.34-5.075,11.34-11.339"/>
	
		<line fill="none" stroke="#000000" stroke-width="0.085" stroke-linecap="round" stroke-linejoin="round" stroke-miterlimit="10" x1="360.818" y1="410.252" x2="360.818" y2="432.931"/>
	
		<line fill="none" stroke="#000000" stroke-width="0.085" stroke-linecap="round" stroke-linejoin="round" stroke-miterlimit="10" x1="340.838" y1="473.539" x2="340.838" y2="486.283"/>
	
		<line fill="none" stroke="#000000" stroke-width="0.085" stroke-linecap="round" stroke-linejoin="round" stroke-miterlimit="10" x1="339.542" y1="486.283" x2="339.542" y2="473.539"/>
	
		<line fill="none" stroke="#000000" stroke-width="0.085" stroke-linecap="round" stroke-linejoin="round" stroke-miterlimit="10" x1="228.519" y1="420.404" x2="215.774" y2="420.404"/>
	
		<line fill="none" stroke="#000000" stroke-width="0.085" stroke-linecap="round" stroke-linejoin="round" stroke-miterlimit="10" x1="228.519" y1="421.592" x2="215.774" y2="421.592"/>
	
		<line fill="none" stroke="#000000" stroke-width="0.085" stroke-linecap="round" stroke-linejoin="round" stroke-miterlimit="10" x1="254.438" y1="424.833" x2="254.438" y2="486.283"/>
	
		<polyline fill="none" stroke="#000000" stroke-width="0.085" stroke-linecap="round" stroke-linejoin="round" stroke-miterlimit="10" points="
		255.734,424.833 258.974,424.833 258.974,486.283 255.734,486.283 	"/>
	
		<path fill="none" stroke="#000000" stroke-width="0.085" stroke-linecap="round" stroke-linejoin="round" stroke-miterlimit="10" d="
		M258.962,431.302c0.711,1.379,2.404,1.92,3.783,1.209s1.92-2.403,1.209-3.78c-0.71-1.379-2.404-1.921-3.781-1.211
		c-0.52,0.268-0.943,0.69-1.211,1.211"/>
	
		<line fill="none" stroke="#000000" stroke-width="0.085" stroke-linecap="round" stroke-linejoin="round" stroke-miterlimit="10" x1="261.458" y1="427.1" x2="261.458" y2="426.453"/>
	
		<path fill="none" stroke="#000000" stroke-width="0.085" stroke-linecap="round" stroke-linejoin="round" stroke-miterlimit="10" d="
		M261.458,433.472c1.909,0,3.457-1.549,3.457-3.456c0-1.908-1.548-3.455-3.457-3.455l0,0"/>
	
		<line fill="none" stroke="#000000" stroke-width="0.085" stroke-linecap="round" stroke-linejoin="round" stroke-miterlimit="10" x1="261.458" y1="433.472" x2="261.458" y2="432.824"/>
	
		<path fill="none" stroke="#000000" stroke-width="0.085" stroke-linecap="round" stroke-linejoin="round" stroke-miterlimit="10" d="
		M258.962,443.074c0.711,1.379,2.404,1.92,3.783,1.211c1.379-0.711,1.92-2.406,1.209-3.783c-0.71-1.379-2.404-1.92-3.781-1.209
		c-0.52,0.268-0.943,0.689-1.211,1.209"/>
	
		<line fill="none" stroke="#000000" stroke-width="0.085" stroke-linecap="round" stroke-linejoin="round" stroke-miterlimit="10" x1="261.458" y1="438.873" x2="261.458" y2="438.224"/>
	
		<path fill="none" stroke="#000000" stroke-width="0.085" stroke-linecap="round" stroke-linejoin="round" stroke-miterlimit="10" d="
		M261.458,445.244c1.909,0,3.457-1.547,3.457-3.455c0-1.91-1.548-3.457-3.457-3.457l0,0"/>
	
		<line fill="none" stroke="#000000" stroke-width="0.085" stroke-linecap="round" stroke-linejoin="round" stroke-miterlimit="10" x1="261.458" y1="445.244" x2="261.458" y2="444.703"/>
	
		<path fill="none" stroke="#000000" stroke-width="0.085" stroke-linecap="round" stroke-linejoin="round" stroke-miterlimit="10" d="
		M258.962,470.615c0.711,1.379,2.404,1.92,3.783,1.209s1.92-2.404,1.209-3.783c-0.71-1.377-2.404-1.92-3.781-1.209
		c-0.52,0.268-0.943,0.691-1.211,1.209"/>
	
		<line fill="none" stroke="#000000" stroke-width="0.085" stroke-linecap="round" stroke-linejoin="round" stroke-miterlimit="10" x1="261.458" y1="466.412" x2="261.458" y2="465.763"/>
	
		<path fill="none" stroke="#000000" stroke-width="0.085" stroke-linecap="round" stroke-linejoin="round" stroke-miterlimit="10" d="
		M261.458,472.783c1.909,0,3.457-1.547,3.457-3.455s-1.548-3.455-3.457-3.455l0,0"/>
	
		<line fill="none" stroke="#000000" stroke-width="0.085" stroke-linecap="round" stroke-linejoin="round" stroke-miterlimit="10" x1="261.458" y1="472.783" x2="261.458" y2="472.136"/>
	
		<line fill="none" stroke="#000000" stroke-width="0.0283" stroke-linecap="round" stroke-linejoin="round" stroke-miterlimit="10" x1="293.858" y1="420.945" x2="258.974" y2="420.945"/>
	
		<line fill="none" stroke="#000000" stroke-width="0.0283" stroke-linecap="round" stroke-linejoin="round" stroke-miterlimit="10" x1="297.638" y1="493.953" x2="297.638" y2="557.24"/>
	
		<line fill="none" stroke="#000000" stroke-width="0.0283" stroke-linecap="round" stroke-linejoin="round" stroke-miterlimit="10" x1="293.858" y1="490.064" x2="258.974" y2="490.064"/>
	
		<polyline fill="none" stroke="#000000" stroke-width="0.085" stroke-linecap="round" stroke-linejoin="round" stroke-miterlimit="10" points="
		317.187,370.077 240.615,370.077 240.615,377.745 317.187,377.745 317.187,370.077 	"/>
	
		<line fill="none" stroke="#000000" stroke-width="0.0283" stroke-linecap="round" stroke-linejoin="round" stroke-miterlimit="10" x1="293.858" y1="351.932" x2="258.974" y2="351.932"/>
	
		<line fill="none" stroke="#000000" stroke-width="0.0283" stroke-linecap="round" stroke-linejoin="round" stroke-miterlimit="10" x1="336.302" y1="351.932" x2="301.526" y2="351.932"/>
	
		<line fill="none" stroke="#000000" stroke-width="0.0283" stroke-linecap="round" stroke-linejoin="round" stroke-miterlimit="10" x1="255.087" y1="417.165" x2="255.087" y2="355.711"/>
	
		<line fill="none" stroke="#000000" stroke-width="0.0283" stroke-linecap="round" stroke-linejoin="round" stroke-miterlimit="10" x1="297.638" y1="355.711" x2="297.638" y2="417.165"/>
	
		<line fill="none" stroke="#000000" stroke-width="0.0283" stroke-linecap="round" stroke-linejoin="round" stroke-miterlimit="10" x1="297.638" y1="348.044" x2="297.638" y2="284.756"/>
	
		<polyline fill="none" stroke="#000000" stroke-width="0.085" stroke-linecap="round" stroke-linejoin="round" stroke-miterlimit="10" points="
		312.542,446 312.542,465.117 325.286,465.117 325.286,446 312.542,446 	"/>
	
		<polyline fill="none" stroke="#000000" stroke-width="0.085" stroke-linecap="round" stroke-linejoin="round" stroke-miterlimit="10" points="
		331.657,457.447 331.657,462.523 326.583,462.523 326.583,457.447 331.657,457.447 	"/>
	
		<line fill="none" stroke="#000000" stroke-width="0.0283" stroke-linecap="round" stroke-linejoin="round" stroke-miterlimit="10" x1="331.01" y1="457.447" x2="331.01" y2="462.523"/>
	
		<polyline fill="none" stroke="#000000" stroke-width="0.085" stroke-linecap="round" stroke-linejoin="round" stroke-miterlimit="10" points="
		331.657,453.667 331.657,448.484 326.583,448.484 326.583,453.667 331.657,453.667 	"/>
	
		<line fill="none" stroke="#000000" stroke-width="0.0283" stroke-linecap="round" stroke-linejoin="round" stroke-miterlimit="10" x1="331.01" y1="453.667" x2="331.01" y2="448.484"/>
	
		<polyline fill="none" stroke="#000000" stroke-width="0.085" stroke-linecap="round" stroke-linejoin="round" stroke-miterlimit="10" points="
		306.171,457.447 306.171,462.523 311.245,462.523 311.245,457.447 306.171,457.447 	"/>
	
		<line fill="none" stroke="#000000" stroke-width="0.0283" stroke-linecap="round" stroke-linejoin="round" stroke-miterlimit="10" x1="306.818" y1="457.447" x2="306.818" y2="462.523"/>
	
		<polyline fill="none" stroke="#000000" stroke-width="0.085" stroke-linecap="round" stroke-linejoin="round" stroke-miterlimit="10" points="
		306.171,453.667 306.171,448.484 311.245,448.484 311.245,453.667 306.171,453.667 	"/>
	
		<line fill="none" stroke="#000000" stroke-width="0.0283" stroke-linecap="round" stroke-linejoin="round" stroke-miterlimit="10" x1="306.818" y1="453.667" x2="306.818" y2="448.484"/>
	
		<line fill="none" stroke="#000000" stroke-width="0.3402" stroke-linecap="round" stroke-linejoin="round" stroke-miterlimit="10" x1="384.579" y1="235.321" x2="210.699" y2="235.321"/>
	
		<line fill="none" stroke="#000000" stroke-width="0.1701" stroke-linecap="round" stroke-linejoin="round" stroke-miterlimit="10" x1="341.054" y1="230.245" x2="341.054" y2="235.321"/>
	
		<line fill="none" stroke="#000000" stroke-width="0.1701" stroke-linecap="round" stroke-linejoin="round" stroke-miterlimit="10" x1="294.291" y1="232.729" x2="341.054" y2="232.729"/>
	
		<polyline fill="none" stroke="#000000" stroke-width="0.1701" stroke-linecap="round" stroke-linejoin="round" stroke-miterlimit="10" points="
		341.054,230.245 294.291,230.245 294.291,235.321 	"/>
	
		<polyline fill="none" stroke="#000000" stroke-width="0.1417" stroke-linecap="round" stroke-linejoin="round" stroke-miterlimit="10" points="
		384.579,149.893 210.699,149.893 210.699,177.541 	"/>
	
		<line fill="none" stroke="#000000" stroke-width="0.1417" stroke-linecap="round" stroke-linejoin="round" stroke-miterlimit="10" x1="210.699" y1="184.453" x2="210.699" y2="208.861"/>
	
		<line fill="none" stroke="#000000" stroke-width="0.1417" stroke-linecap="round" stroke-linejoin="round" stroke-miterlimit="10" x1="210.699" y1="215.772" x2="210.699" y2="235.321"/>
	
		<line fill="none" stroke="#000000" stroke-width="0.1417" stroke-linecap="round" stroke-linejoin="round" stroke-miterlimit="10" x1="384.579" y1="235.321" x2="384.579" y2="149.893"/>
	
		<polyline fill="none" stroke="#000000" stroke-width="0.085" stroke-linecap="round" stroke-linejoin="round" stroke-miterlimit="10" points="
		324.314,204.649 310.922,204.649 310.922,230.245 324.314,230.245 324.314,204.649 	"/>
	
		<polyline fill="none" stroke="#000000" stroke-width="0.0283" stroke-linecap="round" stroke-linejoin="round" stroke-miterlimit="10" points="
		323.45,205.621 311.786,205.621 311.786,229.272 323.45,229.272 323.45,205.621 	"/>
	
		<polyline fill="none" stroke="#000000" stroke-width="0.085" stroke-linecap="round" stroke-linejoin="round" stroke-miterlimit="10" points="
		366.435,208.537 374.102,208.537 374.102,216.205 366.435,216.205 366.435,208.537 	"/>
	
		<polyline fill="none" stroke="#000000" stroke-width="0.085" stroke-linecap="round" stroke-linejoin="round" stroke-miterlimit="10" points="
		366.435,177.217 374.102,177.217 374.102,184.777 366.435,184.777 366.435,177.217 	"/>
	
		<line fill="none" stroke="#000000" stroke-width="0.0283" stroke-linecap="round" stroke-linejoin="round" stroke-miterlimit="10" x1="370.214" y1="208.861" x2="370.214" y2="215.772"/>
	
		<line fill="none" stroke="#000000" stroke-width="0.0283" stroke-linecap="round" stroke-linejoin="round" stroke-miterlimit="10" x1="373.67" y1="212.317" x2="366.758" y2="212.317"/>
	
		<polyline fill="none" stroke="#000000" stroke-width="0.085" stroke-linecap="round" stroke-linejoin="round" stroke-miterlimit="10" points="
		366.758,208.861 373.67,208.861 373.67,215.772 366.758,215.772 366.758,208.861 	"/>
	
		<line fill="none" stroke="#000000" stroke-width="0.0283" stroke-linecap="round" stroke-linejoin="round" stroke-miterlimit="10" x1="370.214" y1="177.541" x2="370.214" y2="184.453"/>
	
		<line fill="none" stroke="#000000" stroke-width="0.0283" stroke-linecap="round" stroke-linejoin="round" stroke-miterlimit="10" x1="373.67" y1="180.997" x2="366.758" y2="180.997"/>
	
		<polyline fill="none" stroke="#000000" stroke-width="0.085" stroke-linecap="round" stroke-linejoin="round" stroke-miterlimit="10" points="
		366.758,177.541 373.67,177.541 373.67,184.453 366.758,184.453 366.758,177.541 	"/>
	
		<polyline fill="none" stroke="#000000" stroke-width="0.085" stroke-linecap="round" stroke-linejoin="round" stroke-miterlimit="10" points="
		340.083,177.217 347.751,177.217 347.751,184.777 340.083,184.777 340.083,177.217 	"/>
	
		<line fill="none" stroke="#000000" stroke-width="0.0283" stroke-linecap="round" stroke-linejoin="round" stroke-miterlimit="10" x1="343.971" y1="177.541" x2="343.971" y2="184.453"/>
	
		<line fill="none" stroke="#000000" stroke-width="0.0283" stroke-linecap="round" stroke-linejoin="round" stroke-miterlimit="10" x1="347.426" y1="180.997" x2="340.515" y2="180.997"/>
	
		<polyline fill="none" stroke="#000000" stroke-width="0.085" stroke-linecap="round" stroke-linejoin="round" stroke-miterlimit="10" points="
		340.515,177.541 347.426,177.541 347.426,184.453 340.515,184.453 340.515,177.541 	"/>
	
		<polyline fill="none" stroke="#000000" stroke-width="0.085" stroke-linecap="round" stroke-linejoin="round" stroke-miterlimit="10" points="
		340.083,208.537 347.751,208.537 347.751,216.205 340.083,216.205 340.083,208.537 	"/>
	
		<line fill="none" stroke="#000000" stroke-width="0.0283" stroke-linecap="round" stroke-linejoin="round" stroke-miterlimit="10" x1="343.971" y1="208.861" x2="343.971" y2="215.772"/>
	
		<line fill="none" stroke="#000000" stroke-width="0.0283" stroke-linecap="round" stroke-linejoin="round" stroke-miterlimit="10" x1="347.426" y1="212.317" x2="340.515" y2="212.317"/>
	
		<polyline fill="none" stroke="#000000" stroke-width="0.085" stroke-linecap="round" stroke-linejoin="round" stroke-miterlimit="10" points="
		340.515,208.861 347.426,208.861 347.426,215.772 340.515,215.772 340.515,208.861 	"/>
	
		<polyline fill="none" stroke="#000000" stroke-width="0.085" stroke-linecap="round" stroke-linejoin="round" stroke-miterlimit="10" points="
		313.838,177.217 321.507,177.217 321.507,184.777 313.838,184.777 313.838,177.217 	"/>
	
		<line fill="none" stroke="#000000" stroke-width="0.0283" stroke-linecap="round" stroke-linejoin="round" stroke-miterlimit="10" x1="317.618" y1="177.541" x2="317.618" y2="184.453"/>
	
		<line fill="none" stroke="#000000" stroke-width="0.0283" stroke-linecap="round" stroke-linejoin="round" stroke-miterlimit="10" x1="321.073" y1="180.997" x2="314.163" y2="180.997"/>
	
		<polyline fill="none" stroke="#000000" stroke-width="0.085" stroke-linecap="round" stroke-linejoin="round" stroke-miterlimit="10" points="
		314.163,177.541 321.073,177.541 321.073,184.453 314.163,184.453 314.163,177.541 	"/>
	
		<polyline fill="none" stroke="#000000" stroke-width="0.085" stroke-linecap="round" stroke-linejoin="round" stroke-miterlimit="10" points="
		268.909,208.537 261.243,208.537 261.243,216.205 268.909,216.205 268.909,208.537 	"/>
	
		<polyline fill="none" stroke="#000000" stroke-width="0.085" stroke-linecap="round" stroke-linejoin="round" stroke-miterlimit="10" points="
		268.909,177.217 261.243,177.217 261.243,184.777 268.909,184.777 268.909,177.217 	"/>
	
		<line fill="none" stroke="#000000" stroke-width="0.0283" stroke-linecap="round" stroke-linejoin="round" stroke-miterlimit="10" x1="265.022" y1="208.861" x2="265.022" y2="215.772"/>
	
		<line fill="none" stroke="#000000" stroke-width="0.0283" stroke-linecap="round" stroke-linejoin="round" stroke-miterlimit="10" x1="261.565" y1="212.317" x2="268.478" y2="212.317"/>
	
		<polyline fill="none" stroke="#000000" stroke-width="0.085" stroke-linecap="round" stroke-linejoin="round" stroke-miterlimit="10" points="
		268.478,208.861 261.565,208.861 261.565,215.772 268.478,215.772 268.478,208.861 	"/>
	
		<line fill="none" stroke="#000000" stroke-width="0.0283" stroke-linecap="round" stroke-linejoin="round" stroke-miterlimit="10" x1="265.022" y1="177.541" x2="265.022" y2="184.453"/>
	
		<line fill="none" stroke="#000000" stroke-width="0.0283" stroke-linecap="round" stroke-linejoin="round" stroke-miterlimit="10" x1="261.565" y1="180.997" x2="268.478" y2="180.997"/>
	
		<polyline fill="none" stroke="#000000" stroke-width="0.085" stroke-linecap="round" stroke-linejoin="round" stroke-miterlimit="10" points="
		268.478,177.541 261.565,177.541 261.565,184.453 268.478,184.453 268.478,177.541 	"/>
	
		<polyline fill="none" stroke="#000000" stroke-width="0.085" stroke-linecap="round" stroke-linejoin="round" stroke-miterlimit="10" points="
		295.153,177.217 287.487,177.217 287.487,184.777 295.153,184.777 295.153,177.217 	"/>
	
		<line fill="none" stroke="#000000" stroke-width="0.0283" stroke-linecap="round" stroke-linejoin="round" stroke-miterlimit="10" x1="291.374" y1="177.541" x2="291.374" y2="184.453"/>
	
		<line fill="none" stroke="#000000" stroke-width="0.0283" stroke-linecap="round" stroke-linejoin="round" stroke-miterlimit="10" x1="287.918" y1="180.997" x2="294.722" y2="180.997"/>
	
		<polyline fill="none" stroke="#000000" stroke-width="0.085" stroke-linecap="round" stroke-linejoin="round" stroke-miterlimit="10" points="
		294.722,177.541 287.918,177.541 287.918,184.453 294.722,184.453 294.722,177.541 	"/>
	
		<polyline fill="none" stroke="#000000" stroke-width="0.085" stroke-linecap="round" stroke-linejoin="round" stroke-miterlimit="10" points="
		295.153,208.537 287.487,208.537 287.487,216.205 295.153,216.205 295.153,208.537 	"/>
	
		<line fill="none" stroke="#000000" stroke-width="0.0283" stroke-linecap="round" stroke-linejoin="round" stroke-miterlimit="10" x1="291.374" y1="208.861" x2="291.374" y2="215.772"/>
	
		<line fill="none" stroke="#000000" stroke-width="0.0283" stroke-linecap="round" stroke-linejoin="round" stroke-miterlimit="10" x1="287.918" y1="212.317" x2="294.722" y2="212.317"/>
	
		<polyline fill="none" stroke="#000000" stroke-width="0.085" stroke-linecap="round" stroke-linejoin="round" stroke-miterlimit="10" points="
		294.722,208.861 287.918,208.861 287.918,215.772 294.722,215.772 294.722,208.861 	"/>
	
		<polyline fill="none" stroke="#000000" stroke-width="0.085" stroke-linecap="round" stroke-linejoin="round" stroke-miterlimit="10" points="
		242.558,208.537 234.891,208.537 234.891,216.205 242.558,216.205 242.558,208.537 	"/>
	
		<polyline fill="none" stroke="#000000" stroke-width="0.085" stroke-linecap="round" stroke-linejoin="round" stroke-miterlimit="10" points="
		242.558,177.217 234.891,177.217 234.891,184.777 242.558,184.777 242.558,177.217 	"/>
	
		<line fill="none" stroke="#000000" stroke-width="0.0283" stroke-linecap="round" stroke-linejoin="round" stroke-miterlimit="10" x1="238.779" y1="208.861" x2="238.779" y2="215.772"/>
	
		<line fill="none" stroke="#000000" stroke-width="0.0283" stroke-linecap="round" stroke-linejoin="round" stroke-miterlimit="10" x1="235.322" y1="212.317" x2="242.126" y2="212.317"/>
	
		<polyline fill="none" stroke="#000000" stroke-width="0.085" stroke-linecap="round" stroke-linejoin="round" stroke-miterlimit="10" points="
		242.126,208.861 235.322,208.861 235.322,215.772 242.126,215.772 242.126,208.861 	"/>
	
		<line fill="none" stroke="#000000" stroke-width="0.0283" stroke-linecap="round" stroke-linejoin="round" stroke-miterlimit="10" x1="238.779" y1="177.541" x2="238.779" y2="184.453"/>
	
		<line fill="none" stroke="#000000" stroke-width="0.0283" stroke-linecap="round" stroke-linejoin="round" stroke-miterlimit="10" x1="235.322" y1="180.997" x2="242.126" y2="180.997"/>
	
		<polyline fill="none" stroke="#000000" stroke-width="0.085" stroke-linecap="round" stroke-linejoin="round" stroke-miterlimit="10" points="
		242.126,177.541 235.322,177.541 235.322,184.453 242.126,184.453 242.126,177.541 	"/>
	
		<polyline fill="none" stroke="#000000" stroke-width="0.085" stroke-linecap="round" stroke-linejoin="round" stroke-miterlimit="10" points="
		210.699,216.205 216.207,216.205 216.207,208.537 210.699,208.537 	"/>
	
		<polyline fill="none" stroke="#000000" stroke-width="0.085" stroke-linecap="round" stroke-linejoin="round" stroke-miterlimit="10" points="
		210.699,184.777 216.207,184.777 216.207,177.217 210.699,177.217 	"/>
	
		<line fill="none" stroke="#000000" stroke-width="0.0283" stroke-linecap="round" stroke-linejoin="round" stroke-miterlimit="10" x1="212.426" y1="208.861" x2="212.426" y2="215.772"/>
	
		<line fill="none" stroke="#000000" stroke-width="0.0283" stroke-linecap="round" stroke-linejoin="round" stroke-miterlimit="10" x1="212.426" y1="212.317" x2="215.882" y2="212.317"/>
	
		<polyline fill="none" stroke="#000000" stroke-width="0.1417" stroke-linecap="round" stroke-linejoin="round" stroke-miterlimit="10" points="
		210.699,215.772 215.882,215.772 215.882,208.861 210.699,208.861 	"/>
	
		<line fill="none" stroke="#000000" stroke-width="0.0283" stroke-linecap="round" stroke-linejoin="round" stroke-miterlimit="10" x1="212.426" y1="177.541" x2="212.426" y2="184.453"/>
	
		<line fill="none" stroke="#000000" stroke-width="0.0283" stroke-linecap="round" stroke-linejoin="round" stroke-miterlimit="10" x1="212.426" y1="180.997" x2="215.882" y2="180.997"/>
	
		<polyline fill="none" stroke="#000000" stroke-width="0.1417" stroke-linecap="round" stroke-linejoin="round" stroke-miterlimit="10" points="
		210.699,184.453 215.882,184.453 215.882,177.541 210.699,177.541 	"/>
</g>
</svg>
