<?xml version="1.0" encoding="utf-8"?>
<!-- Generator: Adobe Illustrator 15.0.2, SVG Export Plug-In . SVG Version: 6.00 Build 0)  -->
<!DOCTYPE svg PUBLIC "-//W3C//DTD SVG 1.1//EN" "http://www.w3.org/Graphics/SVG/1.1/DTD/svg11.dtd">
<svg version="1.1" xmlns="http://www.w3.org/2000/svg" xmlns:xlink="http://www.w3.org/1999/xlink" x="0px" y="0px"
	 width="595.28px" height="841.89px" viewBox="0 0 595.28 841.89" enable-background="new 0 0 595.28 841.89" xml:space="preserve">
<g id="MST">
	<g>
		<path d="M84.846,548.87c0-0.104,0.008-0.479,0-1.111c-0.008-0.271-0.04-0.447-0.192-0.447c-0.072,0-0.192,0.023-0.32,0.063
			l-0.56,0.185c-0.032,0.008-0.063,0.008-0.08-0.024l-0.064-0.144c-0.016-0.032-0.008-0.064,0.048-0.097l1.655-0.951
			c0.04-0.024,0.072-0.048,0.112-0.048c0.048,0,0.056,0.048,0.056,0.112c0,0.071-0.024,1.327-0.024,2.358v0.336
			c0,0.096,0.008,1.791,0.008,1.895c0.008,0.416,0.04,0.472,0.56,0.472h0.288c0.056,0,0.08,0.024,0.08,0.064v0.184
			c0,0.048-0.016,0.064-0.072,0.064c-0.072,0-1.16-0.024-1.231-0.024s-1.199,0.024-1.239,0.024s-0.064-0.017-0.064-0.064v-0.2
			c0-0.04,0.048-0.048,0.112-0.048h0.368c0.52,0,0.536-0.023,0.552-0.447c0.008-0.104,0.008-1.72,0.008-1.863V548.87z"/>
	</g>
	<g>
		<path d="M96.567,551.756c-0.136,0-0.28,0.008-0.4,0.016c-0.12,0.009-0.216,0.017-0.248,0.017c-0.04,0-0.064,0-0.088-0.048
			c-0.024-0.057-0.016-0.08,0.024-0.12c0.376-0.352,1.08-0.968,1.719-1.655s1.007-1.304,0.983-1.999
			c-0.024-0.712-0.456-1.136-1.031-1.127c-0.68,0.008-0.936,0.535-1.071,0.775c-0.032,0.056-0.056,0.063-0.096,0.04l-0.112-0.048
			c-0.024-0.017-0.032-0.04,0-0.112c0.128-0.312,0.52-1.199,1.599-1.199c0.671,0,1.399,0.552,1.399,1.455
			c0,0.68-0.271,1.256-0.991,2.062c-0.544,0.624-1.175,1.088-1.527,1.399h1.623c0.544,0,0.752-0.376,0.928-0.671
			c0.04-0.072,0.064-0.08,0.144-0.04c0.064,0.031,0.096,0.063,0.064,0.111l-0.52,1.247c-0.04,0.088,0.024,0.088-0.12,0.088
			c-0.072,0-0.072-0.008-0.104-0.079c-0.048-0.104-0.2-0.112-0.44-0.112H96.567z"/>
	</g>
	<g>
		<path d="M147.999,548.318c0.2-0.016,0.735,0.04,0.912,0.088c0.783,0.208,1.231,0.768,1.231,1.487
			c0.008,1.144-0.927,1.983-2.015,1.983c-0.592,0-1.04-0.216-1.04-0.448c0-0.111,0.072-0.208,0.176-0.208
			c0.144,0,0.28,0.089,0.4,0.16c0.12,0.072,0.392,0.152,0.632,0.152c0.624,0,1.247-0.528,1.247-1.231c0-0.56-0.184-1-0.704-1.224
			c-0.432-0.191-0.832-0.191-1.039-0.176c-0.048,0.008-0.088,0.016-0.144-0.016c-0.04-0.017-0.048-0.04-0.04-0.088l0.288-2.255
			c0.008-0.096,0.024-0.128,0.128-0.128h1.711c0.28,0,0.352-0.136,0.488-0.4c0.024-0.048,0.048-0.056,0.096-0.04
			c0.088,0.04,0.128,0.049,0.112,0.097l-0.288,0.799c-0.056,0.128-0.096,0.16-0.344,0.16h-1.663L147.999,548.318z"/>
	</g>
	<polyline fill="none" stroke="#010101" stroke-width="0.1" stroke-linecap="square" stroke-miterlimit="10" points="
		85.039,561.128 85.039,554.756 97.783,554.756 97.783,561.128 148.867,561.128 148.867,554.756 	"/>
</g>
<g id="HAUS_OHNE_EIGENSCHAFTEN">
	<g>
		<path d="M29.536,31.537c0-0.62-0.02-1.969-0.02-2.109c0-0.509-0.07-0.649-0.34-0.649h-0.41c-0.11,0-0.12-0.04-0.12-0.1v-0.19
			c0-0.06,0.01-0.12,0.11-0.12c0.17,0,0.49,0.03,1.489,0.03c0.979,0,1.339-0.03,1.509-0.03c0.11,0,0.12,0.03,0.12,0.11v0.21
			c0,0.06-0.01,0.09-0.12,0.09h-0.24c-0.36,0-0.41,0.17-0.44,0.55c-0.01,0.14-0.06,1.459-0.06,2.019v0.15
			c0,0.05,0.03,0.08,0.16,0.08h2.988c0.15,0,0.2-0.02,0.2-0.13v-0.1c0-0.569-0.07-1.958-0.07-2.059c-0.01-0.32-0.05-0.51-0.23-0.51
			h-0.41c-0.09,0-0.1-0.03-0.1-0.1v-0.22c0-0.06,0.01-0.09,0.09-0.09c0.18,0,0.61,0.03,1.459,0.03c0.83,0,1.249-0.03,1.379-0.03
			c0.12,0,0.13,0.03,0.13,0.11v0.19c0,0.07-0.01,0.11-0.13,0.11h-0.3c-0.29,0-0.32,0.17-0.32,0.51c0,0.14-0.02,1.829-0.02,2.199
			v0.34c0,0.32,0.02,2.219,0.03,2.769c0,0.36,0.1,0.5,0.4,0.5h0.34c0.08,0,0.09,0.03,0.09,0.09v0.22c0,0.05-0.01,0.1-0.11,0.1
			c-0.16,0-0.5-0.03-1.399-0.03c-1.02,0-1.339,0.03-1.569,0.03c-0.11,0-0.13-0.05-0.13-0.1v-0.22c0-0.06,0.01-0.09,0.11-0.09h0.439
			c0.24,0,0.27-0.19,0.28-0.439c0.02-0.47,0.04-2.079,0.04-2.399v-0.12c0-0.11-0.1-0.12-0.22-0.12h-2.988
			c-0.11,0-0.14,0.03-0.14,0.12v0.15c0,0.25,0.04,1.789,0.07,2.469c0.01,0.24,0.11,0.34,0.33,0.34h0.28c0.08,0,0.09,0.02,0.09,0.08
			v0.24c0,0.06-0.01,0.09-0.09,0.09c-0.18,0-0.53-0.03-1.369-0.03c-1.06,0-1.359,0.03-1.559,0.03c-0.09,0-0.1-0.03-0.1-0.11v-0.21
			c0-0.07,0.01-0.09,0.1-0.09h0.459c0.25,0,0.28-0.24,0.28-0.459c0.01-0.47,0.03-2.409,0.03-2.669V31.537z"/>
		<path d="M39.575,32.286c0-0.2-0.02-0.43-0.15-0.549c-0.1-0.09-0.26-0.12-0.42-0.12c-0.18,0-0.35,0.04-0.53,0.16
			c-0.15,0.1-0.03,0.27-0.03,0.589c0,0.34-0.25,0.57-0.649,0.57c-0.23,0-0.43-0.14-0.43-0.36s0.07-0.52,0.28-0.7
			c0.419-0.38,1.109-0.739,1.919-0.739c0.64,0,0.81,0.1,1.019,0.29c0.22,0.2,0.28,0.49,0.28,0.85l0.02,1.989
			c0.01,0.52,0.04,0.68,0.23,0.68c0.14,0,0.25-0.11,0.29-0.18c0.04-0.06,0.07-0.07,0.1-0.05l0.14,0.08
			c0.04,0.02,0.07,0.05,0.03,0.14c-0.09,0.21-0.39,0.68-1.009,0.68c-0.39,0-0.759-0.14-0.949-0.61h-0.05
			c-0.25,0.23-0.459,0.37-0.859,0.52c-0.2,0.07-0.43,0.09-0.72,0.09c-0.35,0-0.66-0.38-0.66-0.92c0-0.439,0.21-0.899,0.86-1.219
			c0.779-0.37,1.029-0.479,1.289-0.66V32.286z M39.585,33.216c-0.49,0.28-0.9,0.43-0.9,1.12c0,0.459,0.21,0.649,0.43,0.659
			c0.27-0.02,0.47-0.27,0.47-0.359V33.216z"/>
		<path d="M45.524,35.575c-0.06,0.02-0.13,0.04-0.22,0.04c-0.1,0-0.16-0.05-0.17-0.12l-0.06-0.54h-0.06
			c-0.2,0.35-0.779,0.66-1.319,0.66c-0.399,0-0.699,0-1.049-0.46c-0.419-0.56-0.38-0.879-0.38-1.739l0.01-0.439
			c0-0.38,0-0.78-0.01-1c-0.01-0.24-0.22-0.33-0.34-0.35c-0.169-0.03-0.22-0.02-0.22-0.07v-0.2c0-0.06,0.02-0.08,0.11-0.08h1.459
			c0.06,0,0.1-0.01,0.14-0.02c0.04,0,0.08-0.01,0.11-0.01c0.07,0,0.12,0.05,0.11,0.12c-0.01,0.09-0.04,0.56-0.04,1.35v0.54
			c0,0.4-0.06,1.149,0.19,1.539c0.15,0.23,0.31,0.21,0.49,0.21c0.17,0,0.39-0.13,0.54-0.32c0.09-0.1,0.16-0.26,0.16-0.36
			l-0.01-2.349c0-0.25-0.18-0.33-0.43-0.35c-0.12-0.01-0.17-0.02-0.17-0.07v-0.19c0-0.08,0.02-0.09,0.12-0.09h1.489
			c0.07,0,0.12-0.01,0.17-0.02c0.05,0,0.09-0.01,0.12-0.01c0.06,0,0.1,0.05,0.09,0.1c-0.01,0.09-0.06,0.35-0.06,1.359v0.74
			c0,0.479,0,0.969,0.02,1.149c0.03,0.31,0.14,0.35,0.18,0.35c0.06,0,0.21,0,0.33-0.03c0.08-0.02,0.11,0,0.12,0.04l0.03,0.19
			c0.01,0.05-0.01,0.07-0.05,0.08L45.524,35.575z"/>
		<path d="M50.484,32.276c0.01,0.05,0,0.07-0.04,0.09l-0.18,0.08c-0.03,0.02-0.06,0.01-0.1-0.03l-0.56-0.6
			c-0.13-0.13-0.32-0.29-0.62-0.29s-0.59,0.2-0.59,0.54c0.02,0.35,0.14,0.45,0.88,0.65c0.49,0.13,0.729,0.2,1.029,0.52
			c0.26,0.26,0.32,0.5,0.32,0.85c0,0.89-0.7,1.529-1.789,1.529c-0.56,0-1.049-0.2-1.169-0.29c-0.04-0.03-0.05-0.07-0.06-0.13
			l-0.13-0.959c0-0.05,0.03-0.07,0.07-0.08l0.18-0.05c0.03-0.01,0.05,0,0.07,0.04l0.4,0.589c0.18,0.26,0.41,0.51,0.87,0.51
			c0.37,0,0.589-0.26,0.589-0.609c0-0.4-0.29-0.53-0.939-0.73c-0.709-0.209-1.219-0.549-1.219-1.269c0-0.47,0.14-0.859,0.52-1.14
			c0.399-0.29,0.679-0.359,1.099-0.359c0.54,0,0.87,0.12,1.049,0.209c0.15,0.07,0.17,0.12,0.18,0.19L50.484,32.276z"/>
		<path d="M53.776,34.885c-0.38-0.419-0.53-0.949-0.53-1.579c0-0.45,0.25-1.189,0.859-1.659c0.51-0.399,1.02-0.509,1.489-0.509
			c0.69,0,1.16,0.209,1.609,0.629c0.49,0.44,0.689,0.979,0.689,1.589c0,0.58-0.25,1.139-0.64,1.559c-0.479,0.5-1.06,0.7-1.739,0.7
			C54.785,35.615,54.286,35.465,53.776,34.885z M56.375,33.286c0-1.159-0.4-1.729-0.84-1.729c-0.25,0-0.41,0.07-0.54,0.27
			c-0.2,0.31-0.33,0.74-0.33,1.549c0,0.58,0.05,0.959,0.25,1.389c0.13,0.27,0.29,0.43,0.66,0.43
			C56.125,35.195,56.375,34.385,56.375,33.286z"/>
		<path d="M60.215,34.715c0,0.3,0.06,0.41,0.15,0.41h0.2c0.05,0,0.08,0.02,0.08,0.08v0.19c0,0.07-0.01,0.11-0.07,0.11
			c-0.08,0-0.54-0.03-1.129-0.03c-0.7,0-1.08,0.03-1.169,0.03c-0.04,0-0.07-0.03-0.07-0.1v-0.2c0-0.07,0.04-0.08,0.15-0.08h0.16
			c0.16,0,0.31-0.04,0.34-0.17c0.05-0.18,0.05-0.36,0.05-0.66l-0.02-4.158c0-0.5-0.13-0.79-0.47-0.919l-0.18-0.06
			c-0.06-0.03-0.08-0.06-0.08-0.09v-0.13c0-0.04,0.03-0.08,0.17-0.12c0.55-0.16,0.91-0.32,1.509-0.61c0.13-0.06,0.21-0.1,0.31-0.1
			c0.09,0,0.11,0.08,0.09,0.25s-0.03,2.199-0.03,2.789v0.6h0.07c0.24-0.38,0.729-0.609,1.279-0.609c0.45,0,0.709,0.13,1.02,0.39
			c0.47,0.39,0.43,0.89,0.43,1.529v0.62c0,0.5-0.02,1.109-0.02,1.299c0,0.14,0.2,0.15,0.32,0.15h0.19c0.08,0,0.11,0.02,0.11,0.07
			v0.21c0,0.06-0.02,0.1-0.08,0.1c-0.07,0-0.39-0.03-1.089-0.03c-0.689,0-1.049,0.03-1.139,0.03c-0.07,0-0.09-0.03-0.09-0.11v-0.19
			c0-0.05,0.01-0.08,0.07-0.08h0.13c0.09,0,0.22-0.05,0.24-0.19c0.01-0.14,0.03-0.67,0.03-0.97v-0.609
			c0-0.49,0.03-1.189-0.229-1.449c-0.14-0.14-0.26-0.19-0.47-0.19c-0.22,0-0.44,0.18-0.59,0.35c-0.08,0.1-0.17,0.23-0.17,0.49
			V34.715z"/>
		<path d="M65.845,31.687h0.08c0.11-0.13,0.29-0.26,0.48-0.36c0.22-0.12,0.439-0.189,0.77-0.189c0.39,0,0.77,0.04,1.029,0.28
			c0.42,0.39,0.45,0.64,0.45,1.139v1.06c0,0.34-0.02,0.81-0.04,1.159c-0.01,0.3,0.15,0.35,0.24,0.35h0.27
			c0.09,0,0.11,0.03,0.11,0.09v0.18c0,0.07-0.02,0.11-0.08,0.11c-0.07,0-0.38-0.03-1.18-0.03c-0.66,0-0.979,0.03-1.049,0.03
			c-0.06,0-0.08-0.03-0.08-0.11v-0.18c0-0.07,0.03-0.09,0.13-0.09h0.11c0.07,0,0.16-0.05,0.18-0.23c0.04-0.26,0.06-0.58,0.06-1.04
			v-1.069c0-0.38-0.03-0.64-0.24-0.83c-0.18-0.16-0.32-0.18-0.49-0.18c-0.18,0-0.31,0.05-0.51,0.2c-0.12,0.09-0.2,0.36-0.2,0.77
			l-0.02,2.049c0,0.18,0.07,0.33,0.16,0.33h0.13c0.08,0,0.1,0.03,0.1,0.1v0.19c0,0.06-0.02,0.09-0.07,0.09c-0.07,0-0.34-0.03-1-0.03
			c-0.709,0-1.029,0.03-1.089,0.03c-0.05,0-0.07-0.03-0.07-0.09v-0.2c0-0.06,0.02-0.09,0.1-0.09h0.15c0.11,0,0.28-0.03,0.28-0.2
			v-2.219c0-0.3-0.17-0.47-0.4-0.58l-0.09-0.04c-0.06-0.03-0.07-0.07-0.07-0.11v-0.09c0-0.05,0.04-0.08,0.09-0.1l1.279-0.58
			c0.08-0.03,0.15-0.07,0.23-0.07c0.06,0,0.12,0.05,0.14,0.12L65.845,31.687z"/>
		<path d="M70.996,32.986v0.27c0,1.04,0.59,1.549,1.319,1.549c0.49,0,0.89-0.23,1.089-0.55c0.02-0.05,0.06-0.06,0.1-0.03l0.17,0.09
			c0.04,0.02,0.07,0.07-0.02,0.24c-0.18,0.37-0.83,1.06-1.769,1.06c-0.64,0-1.169-0.11-1.5-0.47c-0.51-0.55-0.679-0.94-0.689-1.719
			c0-0.28,0-0.81,0.45-1.469c0.36-0.53,0.97-0.819,1.739-0.819c1.619,0,1.709,1.549,1.709,1.709c0,0.13-0.09,0.14-0.31,0.14H70.996z
			 M71.965,32.606c0.22,0,0.32-0.05,0.32-0.2c0-0.44-0.18-0.87-0.49-0.87c-0.47,0-0.719,0.37-0.79,1.069H71.965z"/>
		<path d="M78.645,31.646c0.46,0,0.9-0.03,1.02-0.06c0.17-0.04,0.31-0.13,0.46-0.31c0.11-0.15,0.23-0.43,0.23-0.62
			c0-0.07,0.03-0.09,0.08-0.09l0.27,0.03c0.05,0.01,0.09,0.02,0.08,0.08c-0.03,0.17-0.03,0.689-0.03,1.04
			c0,0.45,0.04,0.929,0.06,1.139c0.01,0.06-0.03,0.07-0.08,0.08l-0.24,0.05c-0.04,0.01-0.06-0.01-0.08-0.08
			c-0.04-0.16-0.14-0.39-0.2-0.51c-0.11-0.19-0.35-0.32-0.55-0.35c-0.27-0.04-0.58-0.06-1.02-0.06v0.6c0,0.54,0.05,1.509,0.05,1.689
			c0,0.52,0.11,0.7,0.24,0.759c0.15,0.06,0.34,0.09,0.839,0.09c0.17,0,0.59-0.01,0.8-0.03c0.2-0.02,0.5-0.12,0.76-0.33
			c0.26-0.21,0.819-0.83,1.019-1.069c0.04-0.04,0.07-0.05,0.1-0.03l0.17,0.1c0.04,0.02,0.05,0.05,0.04,0.08l-0.45,1.509
			c-0.03,0.09-0.1,0.15-0.22,0.15c-0.05,0-0.27-0.01-0.909-0.02c-0.65,0-1.709-0.01-3.438-0.01c-0.37,0-0.65,0.01-0.85,0.01
			c-0.21,0.01-0.34,0.02-0.43,0.02c-0.07,0-0.09-0.03-0.09-0.11v-0.21c0-0.06,0.03-0.09,0.1-0.09h0.3c0.46,0,0.5-0.07,0.5-0.419
			v-3.349c0-0.829-0.02-2.059-0.03-2.159c-0.04-0.32-0.14-0.39-0.41-0.39h-0.39c-0.04,0-0.05-0.03-0.05-0.1v-0.24
			c0-0.03,0.01-0.07,0.07-0.07c0.22,0,0.569,0.03,1.479,0.03l3.508-0.01c0.16,0,0.35-0.02,0.4-0.02c0.05,0,0.07,0.02,0.08,0.05
			c0.04,0.14,0.37,1.509,0.41,1.609c0.02,0.05,0.02,0.07-0.03,0.1l-0.16,0.08c-0.04,0.02-0.09,0.01-0.12-0.04
			c-0.05-0.08-0.95-0.979-1.18-1.119c-0.209-0.13-0.49-0.26-0.759-0.27l-1.319-0.04L78.645,31.646z"/>
		<path d="M85.555,35.504c-0.08,0-0.54-0.03-1.41-0.03c-0.58,0-0.969,0.03-1.079,0.03c-0.05,0-0.08-0.02-0.08-0.1v-0.2
			c0-0.06,0.03-0.08,0.1-0.08h0.37c0.11,0,0.18-0.04,0.19-0.2c0.02-0.3,0.02-0.609,0.02-0.889l-0.02-1.399
			c0-0.28-0.06-0.48-0.479-0.63c-0.11-0.04-0.12-0.08-0.12-0.14v-0.11c0-0.03,0.02-0.05,0.11-0.08l1.489-0.48
			c0.11-0.04,0.2-0.06,0.27-0.06c0.08,0,0.11,0.05,0.1,0.12c-0.02,0.17-0.02,0.8-0.02,1.679v1.069c0,0.39,0,0.75,0.01,0.859
			c0.02,0.19,0.07,0.26,0.18,0.26h0.36c0.08,0,0.1,0.03,0.1,0.09v0.19C85.645,35.475,85.625,35.504,85.555,35.504z M84.185,30.348
			c-0.399,0.01-0.699-0.26-0.699-0.65c0-0.32,0.33-0.61,0.75-0.61c0.47,0,0.709,0.3,0.709,0.58
			C84.945,29.988,84.725,30.337,84.185,30.348z"/>
		<path d="M86.315,37.883c-0.37-0.21-0.49-0.47-0.49-0.78c0-0.5,0.56-0.859,1.03-1.049v-0.05c-0.46-0.14-0.69-0.45-0.69-0.8
			c0-0.58,0.56-0.899,0.89-1.059v-0.03c-0.43-0.25-0.879-0.669-0.879-1.519c0-0.649,0.52-1.459,1.939-1.459
			c0.879,0,1.319,0.459,1.409,0.56c0.23-0.19,0.6-0.35,0.879-0.35c0.36,0,0.55,0.2,0.55,0.52c0,0.23-0.21,0.43-0.44,0.43
			c-0.17,0-0.25-0.07-0.31-0.17c-0.05-0.08-0.17-0.15-0.28-0.15c-0.05,0-0.14,0.04-0.189,0.09c0.04,0.07,0.12,0.29,0.12,0.65
			c0,0.379-0.11,0.75-0.45,1.079c-0.38,0.36-0.949,0.48-1.349,0.48c-0.2,0-0.34,0-0.59-0.03c-0.13,0.08-0.37,0.26-0.37,0.46
			c0,0.35,0.29,0.38,1.369,0.35c0.68-0.02,1.189,0.02,1.679,0.4c0.36,0.29,0.49,0.64,0.49,1.009c0,0.42-0.19,0.78-0.58,1.109
			c-0.37,0.3-1.129,0.62-2.139,0.62C87.435,38.193,86.706,38.113,86.315,37.883z M89.564,36.954c0-0.549-0.39-0.849-1.299-0.81
			l-0.87,0.04c-0.29,0.07-0.5,0.38-0.5,0.68c0,0.29,0.16,0.54,0.35,0.68c0.28,0.2,0.56,0.26,1.009,0.26
			C88.914,37.803,89.564,37.454,89.564,36.954z M87.575,31.836c-0.14,0.2-0.2,0.66-0.2,1.109c0,0.29,0.09,0.61,0.22,0.76
			c0.11,0.14,0.26,0.2,0.46,0.2c0.439,0,0.589-0.669,0.589-1.439c0-0.37-0.04-0.58-0.09-0.67c-0.09-0.169-0.21-0.28-0.49-0.28
			C87.845,31.517,87.715,31.637,87.575,31.836z"/>
		<path d="M92.325,32.986v0.27c0,1.04,0.59,1.549,1.319,1.549c0.49,0,0.89-0.23,1.089-0.55c0.02-0.05,0.06-0.06,0.1-0.03l0.17,0.09
			c0.04,0.02,0.07,0.07-0.02,0.24c-0.18,0.37-0.83,1.06-1.769,1.06c-0.64,0-1.169-0.11-1.5-0.47c-0.51-0.55-0.679-0.94-0.689-1.719
			c0-0.28,0-0.81,0.45-1.469c0.36-0.53,0.97-0.819,1.739-0.819c1.619,0,1.709,1.549,1.709,1.709c0,0.13-0.09,0.14-0.31,0.14H92.325z
			 M93.294,32.606c0.22,0,0.32-0.05,0.32-0.2c0-0.44-0.18-0.87-0.49-0.87c-0.47,0-0.719,0.37-0.79,1.069H93.294z"/>
		<path d="M97.334,31.687h0.08c0.11-0.13,0.29-0.26,0.48-0.36c0.22-0.12,0.439-0.189,0.77-0.189c0.39,0,0.77,0.04,1.029,0.28
			c0.42,0.39,0.45,0.64,0.45,1.139v1.06c0,0.34-0.02,0.81-0.04,1.159c-0.01,0.3,0.15,0.35,0.24,0.35h0.27
			c0.09,0,0.11,0.03,0.11,0.09v0.18c0,0.07-0.02,0.11-0.08,0.11c-0.07,0-0.38-0.03-1.18-0.03c-0.66,0-0.979,0.03-1.049,0.03
			c-0.06,0-0.08-0.03-0.08-0.11v-0.18c0-0.07,0.03-0.09,0.13-0.09h0.11c0.07,0,0.16-0.05,0.18-0.23c0.04-0.26,0.06-0.58,0.06-1.04
			v-1.069c0-0.38-0.03-0.64-0.24-0.83c-0.18-0.16-0.32-0.18-0.49-0.18c-0.18,0-0.31,0.05-0.51,0.2c-0.12,0.09-0.2,0.36-0.2,0.77
			l-0.02,2.049c0,0.18,0.07,0.33,0.16,0.33h0.13c0.08,0,0.1,0.03,0.1,0.1v0.19c0,0.06-0.02,0.09-0.07,0.09
			c-0.07,0-0.34-0.03-0.999-0.03c-0.71,0-1.03,0.03-1.09,0.03c-0.05,0-0.07-0.03-0.07-0.09v-0.2c0-0.06,0.02-0.09,0.1-0.09h0.15
			c0.11,0,0.28-0.03,0.28-0.2v-2.219c0-0.3-0.17-0.47-0.4-0.58l-0.09-0.04c-0.06-0.03-0.07-0.07-0.07-0.11v-0.09
			c0-0.05,0.04-0.08,0.09-0.1l1.279-0.58c0.08-0.03,0.15-0.07,0.23-0.07c0.06,0,0.12,0.05,0.14,0.12L97.334,31.687z"/>
		<path d="M104.303,32.276c0.01,0.05,0,0.07-0.04,0.09l-0.18,0.08c-0.03,0.02-0.06,0.01-0.1-0.03l-0.56-0.6
			c-0.13-0.13-0.32-0.29-0.62-0.29s-0.59,0.2-0.59,0.54c0.02,0.35,0.14,0.45,0.88,0.65c0.49,0.13,0.729,0.2,1.029,0.52
			c0.26,0.26,0.32,0.5,0.32,0.85c0,0.89-0.7,1.529-1.789,1.529c-0.56,0-1.049-0.2-1.169-0.29c-0.04-0.03-0.05-0.07-0.06-0.13
			l-0.13-0.959c0-0.05,0.03-0.07,0.07-0.08l0.18-0.05c0.03-0.01,0.05,0,0.07,0.04l0.4,0.589c0.18,0.26,0.41,0.51,0.87,0.51
			c0.37,0,0.589-0.26,0.589-0.609c0-0.4-0.29-0.53-0.939-0.73c-0.709-0.209-1.219-0.549-1.219-1.269c0-0.47,0.14-0.859,0.52-1.14
			c0.399-0.29,0.679-0.359,1.099-0.359c0.54,0,0.87,0.12,1.049,0.209c0.15,0.07,0.17,0.12,0.18,0.19L104.303,32.276z"/>
		<path d="M108.893,32.106c0,0.28-0.2,0.47-0.52,0.47c-0.419,0-0.64-0.28-0.72-0.53c-0.12-0.36-0.31-0.479-0.589-0.479
			c-0.27,0-0.66,0.39-0.66,1.02c0,0.629-0.02,1.079,0.32,1.699c0.25,0.45,0.62,0.58,1.069,0.58c0.46,0,0.68-0.09,1-0.32
			c0.05-0.03,0.08-0.05,0.11-0.01l0.14,0.14c0.03,0.04,0.02,0.08-0.01,0.13c-0.19,0.33-0.969,0.81-1.889,0.81
			c-0.75,0-1.25-0.21-1.569-0.61c-0.39-0.48-0.51-0.87-0.51-1.379c0-0.68,0.22-1.409,0.75-1.899c0.45-0.41,0.939-0.589,1.479-0.589
			C108.603,31.137,108.893,31.796,108.893,32.106z"/>
		<path d="M111.244,34.715c0,0.3,0.06,0.41,0.15,0.41h0.2c0.05,0,0.08,0.02,0.08,0.08v0.19c0,0.07-0.01,0.11-0.07,0.11
			c-0.08,0-0.54-0.03-1.129-0.03c-0.7,0-1.08,0.03-1.169,0.03c-0.04,0-0.07-0.03-0.07-0.1v-0.2c0-0.07,0.04-0.08,0.15-0.08h0.16
			c0.16,0,0.31-0.04,0.34-0.17c0.05-0.18,0.05-0.36,0.05-0.66l-0.02-4.158c0-0.5-0.13-0.79-0.47-0.919l-0.18-0.06
			c-0.06-0.03-0.08-0.06-0.08-0.09v-0.13c0-0.04,0.03-0.08,0.17-0.12c0.55-0.16,0.91-0.32,1.509-0.61c0.13-0.06,0.21-0.1,0.31-0.1
			c0.09,0,0.11,0.08,0.09,0.25s-0.03,2.199-0.03,2.789v0.6h0.07c0.24-0.38,0.729-0.609,1.279-0.609c0.45,0,0.709,0.13,1.02,0.39
			c0.47,0.39,0.43,0.89,0.43,1.529v0.62c0,0.5-0.02,1.109-0.02,1.299c0,0.14,0.2,0.15,0.32,0.15h0.19c0.08,0,0.11,0.02,0.11,0.07
			v0.21c0,0.06-0.02,0.1-0.08,0.1c-0.07,0-0.39-0.03-1.089-0.03c-0.689,0-1.049,0.03-1.139,0.03c-0.07,0-0.09-0.03-0.09-0.11v-0.19
			c0-0.05,0.01-0.08,0.07-0.08h0.13c0.09,0,0.22-0.05,0.24-0.19c0.01-0.14,0.03-0.67,0.03-0.97v-0.609
			c0-0.49,0.03-1.189-0.229-1.449c-0.14-0.14-0.26-0.19-0.47-0.19c-0.22,0-0.44,0.18-0.59,0.35c-0.08,0.1-0.17,0.23-0.17,0.49
			V34.715z"/>
		<path d="M117.314,32.286c0-0.2-0.02-0.43-0.15-0.549c-0.1-0.09-0.26-0.12-0.42-0.12c-0.18,0-0.35,0.04-0.529,0.16
			c-0.15,0.1-0.03,0.27-0.03,0.589c0,0.34-0.25,0.57-0.649,0.57c-0.23,0-0.43-0.14-0.43-0.36s0.07-0.52,0.28-0.7
			c0.419-0.38,1.109-0.739,1.919-0.739c0.64,0,0.81,0.1,1.019,0.29c0.22,0.2,0.28,0.49,0.28,0.85l0.02,1.989
			c0.01,0.52,0.04,0.68,0.23,0.68c0.14,0,0.25-0.11,0.29-0.18c0.04-0.06,0.07-0.07,0.1-0.05l0.14,0.08
			c0.04,0.02,0.07,0.05,0.03,0.14c-0.09,0.21-0.39,0.68-1.01,0.68c-0.39,0-0.759-0.14-0.949-0.61h-0.05
			c-0.25,0.23-0.459,0.37-0.859,0.52c-0.2,0.07-0.43,0.09-0.72,0.09c-0.35,0-0.66-0.38-0.66-0.92c0-0.439,0.21-0.899,0.86-1.219
			c0.779-0.37,1.029-0.479,1.289-0.66V32.286z M117.324,33.216c-0.49,0.28-0.9,0.43-0.9,1.12c0,0.459,0.21,0.649,0.43,0.659
			c0.27-0.02,0.47-0.27,0.47-0.359V33.216z"/>
		<path d="M121.544,31.807v0.87c0,0.479-0.03,1.749-0.01,2.139c0.01,0.22,0.13,0.31,0.29,0.31h0.36c0.09,0,0.11,0.02,0.11,0.08v0.2
			c0,0.06-0.02,0.1-0.07,0.1c-0.06,0-0.43-0.03-1.399-0.03c-0.65,0-1.16,0.03-1.239,0.03c-0.06,0-0.08-0.02-0.08-0.09v-0.22
			c0-0.05,0.02-0.07,0.1-0.07h0.33c0.19,0,0.27-0.12,0.27-0.33l-0.03-2.988h-0.64c-0.05,0-0.07-0.02-0.06-0.11l0.05-0.35
			c0.01-0.06,0.04-0.07,0.12-0.07h0.529v-0.3c0-1.049,0.33-1.699,0.84-2.179c0.54-0.5,1.069-0.689,1.689-0.689
			c0.59,0,1.029,0.24,1.029,0.699c0,0.31-0.32,0.5-0.55,0.5c-0.32,0-0.52-0.12-0.669-0.38c-0.12-0.2-0.26-0.3-0.36-0.3
			c-0.2,0-0.34,0.06-0.5,0.32c-0.18,0.28-0.11,0.989-0.11,1.909v0.42h1.159c0.07,0,0.08,0.06,0.07,0.1l-0.05,0.38
			c-0.01,0.04-0.05,0.05-0.13,0.05H121.544z"/>
		<path d="M124.884,34.016c0,0.819,0.31,0.999,0.55,0.999c0.21,0,0.36-0.03,0.52-0.12c0.03-0.02,0.06-0.02,0.09,0.04l0.07,0.15
			c0.03,0.05,0,0.1-0.04,0.13c-0.17,0.12-0.62,0.4-1.399,0.4c-0.68,0-1.109-0.47-1.109-0.93c0-0.35,0.02-1.109,0.02-1.489
			l0.01-1.319h-0.55c-0.09,0-0.16-0.04-0.16-0.14c0-0.1,0.06-0.17,0.22-0.25c0.33-0.15,1.169-0.899,1.539-1.319
			c0.07-0.08,0.14-0.1,0.19-0.1c0.09,0,0.13,0.07,0.13,0.15l-0.04,1.06h1.269c0.06,0,0.09,0.05,0.07,0.09l-0.1,0.43
			c-0.01,0.04-0.03,0.08-0.09,0.08h-1.169c-0.02,0.41-0.02,0.89-0.02,1.35V34.016z"/>
		<path d="M127.804,32.986v0.27c0,1.04,0.59,1.549,1.319,1.549c0.49,0,0.89-0.23,1.089-0.55c0.02-0.05,0.06-0.06,0.1-0.03l0.17,0.09
			c0.04,0.02,0.07,0.07-0.02,0.24c-0.18,0.37-0.83,1.06-1.769,1.06c-0.64,0-1.169-0.11-1.5-0.47c-0.509-0.55-0.679-0.94-0.689-1.719
			c0-0.28,0-0.81,0.45-1.469c0.36-0.53,0.97-0.819,1.739-0.819c1.619,0,1.709,1.549,1.709,1.709c0,0.13-0.09,0.14-0.31,0.14H127.804
			z M128.773,32.606c0.22,0,0.32-0.05,0.32-0.2c0-0.44-0.18-0.87-0.489-0.87c-0.47,0-0.72,0.37-0.79,1.069H128.773z"/>
		<path d="M132.813,31.687h0.08c0.11-0.13,0.29-0.26,0.48-0.36c0.22-0.12,0.439-0.189,0.77-0.189c0.39,0,0.77,0.04,1.029,0.28
			c0.42,0.39,0.45,0.64,0.45,1.139v1.06c0,0.34-0.02,0.81-0.04,1.159c-0.01,0.3,0.15,0.35,0.24,0.35h0.27
			c0.09,0,0.11,0.03,0.11,0.09v0.18c0,0.07-0.02,0.11-0.08,0.11c-0.07,0-0.38-0.03-1.18-0.03c-0.66,0-0.979,0.03-1.049,0.03
			c-0.06,0-0.08-0.03-0.08-0.11v-0.18c0-0.07,0.03-0.09,0.13-0.09h0.11c0.07,0,0.16-0.05,0.18-0.23c0.04-0.26,0.06-0.58,0.06-1.04
			v-1.069c0-0.38-0.03-0.64-0.24-0.83c-0.18-0.16-0.32-0.18-0.49-0.18c-0.18,0-0.31,0.05-0.51,0.2c-0.12,0.09-0.2,0.36-0.2,0.77
			l-0.02,2.049c0,0.18,0.07,0.33,0.16,0.33h0.13c0.08,0,0.1,0.03,0.1,0.1v0.19c0,0.06-0.02,0.09-0.07,0.09c-0.07,0-0.34-0.03-1-0.03
			c-0.709,0-1.029,0.03-1.089,0.03c-0.05,0-0.07-0.03-0.07-0.09v-0.2c0-0.06,0.02-0.09,0.1-0.09h0.15c0.11,0,0.28-0.03,0.28-0.2
			v-2.219c0-0.3-0.17-0.47-0.4-0.58l-0.09-0.04c-0.06-0.03-0.07-0.07-0.07-0.11v-0.09c0-0.05,0.04-0.08,0.09-0.1l1.279-0.58
			c0.08-0.03,0.15-0.07,0.23-0.07c0.06,0,0.12,0.05,0.14,0.12L132.813,31.687z"/>
	</g>
</g>
<g id="Calque_4">
	
		<line fill="none" stroke="#000000" stroke-width="0.3402" stroke-linecap="round" stroke-linejoin="round" stroke-miterlimit="10" x1="195.35" y1="235.321" x2="399.902" y2="235.321"/>
	
		<line fill="none" stroke="#000000" stroke-width="0.1701" stroke-linecap="round" stroke-linejoin="round" stroke-miterlimit="10" x1="243.734" y1="230.245" x2="243.734" y2="235.321"/>
	
		<line fill="none" stroke="#000000" stroke-width="0.1701" stroke-linecap="round" stroke-linejoin="round" stroke-miterlimit="10" x1="290.498" y1="232.729" x2="243.734" y2="232.729"/>
	
		<polyline fill="none" stroke="#000000" stroke-width="0.1701" stroke-linecap="round" stroke-linejoin="round" stroke-miterlimit="10" points="
		243.734,230.245 290.498,230.245 290.498,235.321 	"/>
	
		<polyline fill="none" stroke="#000000" stroke-width="0.1417" stroke-linecap="round" stroke-linejoin="round" stroke-miterlimit="10" points="
		195.35,142.225 399.902,142.225 399.902,177.541 	"/>
	
		<line fill="none" stroke="#000000" stroke-width="0.1417" stroke-linecap="round" stroke-linejoin="round" stroke-miterlimit="10" x1="399.902" y1="184.453" x2="399.902" y2="208.861"/>
	
		<line fill="none" stroke="#000000" stroke-width="0.1417" stroke-linecap="round" stroke-linejoin="round" stroke-miterlimit="10" x1="399.902" y1="215.772" x2="399.902" y2="235.321"/>
	
		<line fill="none" stroke="#000000" stroke-width="0.1417" stroke-linecap="round" stroke-linejoin="round" stroke-miterlimit="10" x1="195.35" y1="235.321" x2="195.35" y2="142.225"/>
	
		<polyline fill="none" stroke="#000000" stroke-width="0.085" stroke-linecap="round" stroke-linejoin="round" stroke-miterlimit="10" points="
		260.367,204.649 273.758,204.649 273.758,230.245 260.367,230.245 260.367,204.649 	"/>
	
		<polyline fill="none" stroke="#000000" stroke-width="0.0283" stroke-linecap="round" stroke-linejoin="round" stroke-miterlimit="10" points="
		261.23,205.621 272.895,205.621 272.895,229.272 261.23,229.272 261.23,205.621 	"/>
	
		<polyline fill="none" stroke="#000000" stroke-width="0.085" stroke-linecap="round" stroke-linejoin="round" stroke-miterlimit="10" points="
		218.354,208.537 210.686,208.537 210.686,216.205 218.354,216.205 218.354,208.537 	"/>
	
		<polyline fill="none" stroke="#000000" stroke-width="0.085" stroke-linecap="round" stroke-linejoin="round" stroke-miterlimit="10" points="
		218.354,177.217 210.686,177.217 210.686,184.777 218.354,184.777 218.354,177.217 	"/>
	
		<line fill="none" stroke="#000000" stroke-width="0.0283" stroke-linecap="round" stroke-linejoin="round" stroke-miterlimit="10" x1="214.467" y1="208.861" x2="214.467" y2="215.772"/>
	
		<line fill="none" stroke="#000000" stroke-width="0.0283" stroke-linecap="round" stroke-linejoin="round" stroke-miterlimit="10" x1="211.011" y1="212.317" x2="217.922" y2="212.317"/>
	
		<polyline fill="none" stroke="#000000" stroke-width="0.085" stroke-linecap="round" stroke-linejoin="round" stroke-miterlimit="10" points="
		217.922,208.861 211.011,208.861 211.011,215.772 217.922,215.772 217.922,208.861 	"/>
	
		<line fill="none" stroke="#000000" stroke-width="0.0283" stroke-linecap="round" stroke-linejoin="round" stroke-miterlimit="10" x1="214.467" y1="177.541" x2="214.467" y2="184.453"/>
	
		<line fill="none" stroke="#000000" stroke-width="0.0283" stroke-linecap="round" stroke-linejoin="round" stroke-miterlimit="10" x1="211.011" y1="180.997" x2="217.922" y2="180.997"/>
	
		<polyline fill="none" stroke="#000000" stroke-width="0.085" stroke-linecap="round" stroke-linejoin="round" stroke-miterlimit="10" points="
		217.922,177.541 211.011,177.541 211.011,184.453 217.922,184.453 217.922,177.541 	"/>
	
		<polyline fill="none" stroke="#000000" stroke-width="0.085" stroke-linecap="round" stroke-linejoin="round" stroke-miterlimit="10" points="
		244.598,177.217 236.931,177.217 236.931,184.777 244.598,184.777 244.598,177.217 	"/>
	
		<line fill="none" stroke="#000000" stroke-width="0.0283" stroke-linecap="round" stroke-linejoin="round" stroke-miterlimit="10" x1="240.818" y1="177.541" x2="240.818" y2="184.453"/>
	
		<line fill="none" stroke="#000000" stroke-width="0.0283" stroke-linecap="round" stroke-linejoin="round" stroke-miterlimit="10" x1="237.361" y1="180.997" x2="244.273" y2="180.997"/>
	
		<polyline fill="none" stroke="#000000" stroke-width="0.085" stroke-linecap="round" stroke-linejoin="round" stroke-miterlimit="10" points="
		244.273,177.541 237.361,177.541 237.361,184.453 244.273,184.453 244.273,177.541 	"/>
	
		<polyline fill="none" stroke="#000000" stroke-width="0.085" stroke-linecap="round" stroke-linejoin="round" stroke-miterlimit="10" points="
		244.598,208.537 236.931,208.537 236.931,216.205 244.598,216.205 244.598,208.537 	"/>
	
		<line fill="none" stroke="#000000" stroke-width="0.0283" stroke-linecap="round" stroke-linejoin="round" stroke-miterlimit="10" x1="240.818" y1="208.861" x2="240.818" y2="215.772"/>
	
		<line fill="none" stroke="#000000" stroke-width="0.0283" stroke-linecap="round" stroke-linejoin="round" stroke-miterlimit="10" x1="237.361" y1="212.317" x2="244.273" y2="212.317"/>
	
		<polyline fill="none" stroke="#000000" stroke-width="0.085" stroke-linecap="round" stroke-linejoin="round" stroke-miterlimit="10" points="
		244.273,208.861 237.361,208.861 237.361,215.772 244.273,215.772 244.273,208.861 	"/>
	
		<polyline fill="none" stroke="#000000" stroke-width="0.085" stroke-linecap="round" stroke-linejoin="round" stroke-miterlimit="10" points="
		270.951,177.217 263.281,177.217 263.281,184.777 270.951,184.777 270.951,177.217 	"/>
	
		<line fill="none" stroke="#000000" stroke-width="0.0283" stroke-linecap="round" stroke-linejoin="round" stroke-miterlimit="10" x1="267.062" y1="177.541" x2="267.062" y2="184.453"/>
	
		<line fill="none" stroke="#000000" stroke-width="0.0283" stroke-linecap="round" stroke-linejoin="round" stroke-miterlimit="10" x1="263.605" y1="180.997" x2="270.518" y2="180.997"/>
	
		<polyline fill="none" stroke="#000000" stroke-width="0.085" stroke-linecap="round" stroke-linejoin="round" stroke-miterlimit="10" points="
		270.518,177.541 263.605,177.541 263.605,184.453 270.518,184.453 270.518,177.541 	"/>
	
		<polyline fill="none" stroke="#000000" stroke-width="0.085" stroke-linecap="round" stroke-linejoin="round" stroke-miterlimit="10" points="
		315.879,208.537 323.545,208.537 323.545,216.205 315.879,216.205 315.879,208.537 	"/>
	
		<polyline fill="none" stroke="#000000" stroke-width="0.085" stroke-linecap="round" stroke-linejoin="round" stroke-miterlimit="10" points="
		315.879,177.217 323.545,177.217 323.545,184.777 315.879,184.777 315.879,177.217 	"/>
	
		<line fill="none" stroke="#000000" stroke-width="0.0283" stroke-linecap="round" stroke-linejoin="round" stroke-miterlimit="10" x1="319.658" y1="208.861" x2="319.658" y2="215.772"/>
	
		<line fill="none" stroke="#000000" stroke-width="0.0283" stroke-linecap="round" stroke-linejoin="round" stroke-miterlimit="10" x1="323.113" y1="212.317" x2="316.201" y2="212.317"/>
	
		<polyline fill="none" stroke="#000000" stroke-width="0.085" stroke-linecap="round" stroke-linejoin="round" stroke-miterlimit="10" points="
		316.201,208.861 323.113,208.861 323.113,215.772 316.201,215.772 316.201,208.861 	"/>
	
		<line fill="none" stroke="#000000" stroke-width="0.0283" stroke-linecap="round" stroke-linejoin="round" stroke-miterlimit="10" x1="319.658" y1="177.541" x2="319.658" y2="184.453"/>
	
		<line fill="none" stroke="#000000" stroke-width="0.0283" stroke-linecap="round" stroke-linejoin="round" stroke-miterlimit="10" x1="323.113" y1="180.997" x2="316.201" y2="180.997"/>
	
		<polyline fill="none" stroke="#000000" stroke-width="0.085" stroke-linecap="round" stroke-linejoin="round" stroke-miterlimit="10" points="
		316.201,177.541 323.113,177.541 323.113,184.453 316.201,184.453 316.201,177.541 	"/>
	
		<polyline fill="none" stroke="#000000" stroke-width="0.085" stroke-linecap="round" stroke-linejoin="round" stroke-miterlimit="10" points="
		289.525,177.217 297.195,177.217 297.195,184.777 289.525,184.777 289.525,177.217 	"/>
	
		<line fill="none" stroke="#000000" stroke-width="0.0283" stroke-linecap="round" stroke-linejoin="round" stroke-miterlimit="10" x1="293.414" y1="177.541" x2="293.414" y2="184.453"/>
	
		<line fill="none" stroke="#000000" stroke-width="0.0283" stroke-linecap="round" stroke-linejoin="round" stroke-miterlimit="10" x1="296.869" y1="180.997" x2="289.957" y2="180.997"/>
	
		<polyline fill="none" stroke="#000000" stroke-width="0.085" stroke-linecap="round" stroke-linejoin="round" stroke-miterlimit="10" points="
		289.957,177.541 296.869,177.541 296.869,184.453 289.957,184.453 289.957,177.541 	"/>
	
		<polyline fill="none" stroke="#000000" stroke-width="0.085" stroke-linecap="round" stroke-linejoin="round" stroke-miterlimit="10" points="
		289.525,208.537 297.195,208.537 297.195,216.205 289.525,216.205 289.525,208.537 	"/>
	
		<line fill="none" stroke="#000000" stroke-width="0.0283" stroke-linecap="round" stroke-linejoin="round" stroke-miterlimit="10" x1="293.414" y1="208.861" x2="293.414" y2="215.772"/>
	
		<line fill="none" stroke="#000000" stroke-width="0.0283" stroke-linecap="round" stroke-linejoin="round" stroke-miterlimit="10" x1="296.869" y1="212.317" x2="289.957" y2="212.317"/>
	
		<polyline fill="none" stroke="#000000" stroke-width="0.085" stroke-linecap="round" stroke-linejoin="round" stroke-miterlimit="10" points="
		289.957,208.861 296.869,208.861 296.869,215.772 289.957,215.772 289.957,208.861 	"/>
	
		<polyline fill="none" stroke="#000000" stroke-width="0.085" stroke-linecap="round" stroke-linejoin="round" stroke-miterlimit="10" points="
		342.123,208.537 349.789,208.537 349.789,216.205 342.123,216.205 342.123,208.537 	"/>
	
		<polyline fill="none" stroke="#000000" stroke-width="0.085" stroke-linecap="round" stroke-linejoin="round" stroke-miterlimit="10" points="
		342.123,177.217 349.789,177.217 349.789,184.777 342.123,184.777 342.123,177.217 	"/>
	
		<line fill="none" stroke="#000000" stroke-width="0.0283" stroke-linecap="round" stroke-linejoin="round" stroke-miterlimit="10" x1="346.011" y1="208.861" x2="346.011" y2="215.772"/>
	
		<line fill="none" stroke="#000000" stroke-width="0.0283" stroke-linecap="round" stroke-linejoin="round" stroke-miterlimit="10" x1="349.467" y1="212.317" x2="342.554" y2="212.317"/>
	
		<polyline fill="none" stroke="#000000" stroke-width="0.085" stroke-linecap="round" stroke-linejoin="round" stroke-miterlimit="10" points="
		342.554,208.861 349.467,208.861 349.467,215.772 342.554,215.772 342.554,208.861 	"/>
	
		<line fill="none" stroke="#000000" stroke-width="0.0283" stroke-linecap="round" stroke-linejoin="round" stroke-miterlimit="10" x1="346.011" y1="177.541" x2="346.011" y2="184.453"/>
	
		<line fill="none" stroke="#000000" stroke-width="0.0283" stroke-linecap="round" stroke-linejoin="round" stroke-miterlimit="10" x1="349.467" y1="180.997" x2="342.554" y2="180.997"/>
	
		<polyline fill="none" stroke="#000000" stroke-width="0.085" stroke-linecap="round" stroke-linejoin="round" stroke-miterlimit="10" points="
		342.554,177.541 349.467,177.541 349.467,184.453 342.554,184.453 342.554,177.541 	"/>
	
		<polyline fill="none" stroke="#000000" stroke-width="0.085" stroke-linecap="round" stroke-linejoin="round" stroke-miterlimit="10" points="
		368.475,208.537 376.141,208.537 376.141,216.205 368.475,216.205 368.475,208.537 	"/>
	
		<polyline fill="none" stroke="#000000" stroke-width="0.085" stroke-linecap="round" stroke-linejoin="round" stroke-miterlimit="10" points="
		368.475,177.217 376.141,177.217 376.141,184.777 368.475,184.777 368.475,177.217 	"/>
	
		<line fill="none" stroke="#000000" stroke-width="0.0283" stroke-linecap="round" stroke-linejoin="round" stroke-miterlimit="10" x1="372.254" y1="208.861" x2="372.254" y2="215.772"/>
	
		<line fill="none" stroke="#000000" stroke-width="0.0283" stroke-linecap="round" stroke-linejoin="round" stroke-miterlimit="10" x1="375.711" y1="212.317" x2="368.797" y2="212.317"/>
	
		<polyline fill="none" stroke="#000000" stroke-width="0.085" stroke-linecap="round" stroke-linejoin="round" stroke-miterlimit="10" points="
		368.797,208.861 375.711,208.861 375.711,215.772 368.797,215.772 368.797,208.861 	"/>
	
		<line fill="none" stroke="#000000" stroke-width="0.0283" stroke-linecap="round" stroke-linejoin="round" stroke-miterlimit="10" x1="372.254" y1="177.541" x2="372.254" y2="184.453"/>
	
		<line fill="none" stroke="#000000" stroke-width="0.0283" stroke-linecap="round" stroke-linejoin="round" stroke-miterlimit="10" x1="375.711" y1="180.997" x2="368.797" y2="180.997"/>
	
		<polyline fill="none" stroke="#000000" stroke-width="0.085" stroke-linecap="round" stroke-linejoin="round" stroke-miterlimit="10" points="
		368.797,177.541 375.711,177.541 375.711,184.453 368.797,184.453 368.797,177.541 	"/>
	
		<polyline fill="none" stroke="#000000" stroke-width="0.085" stroke-linecap="round" stroke-linejoin="round" stroke-miterlimit="10" points="
		399.902,216.205 394.72,216.205 394.72,208.537 399.902,208.537 	"/>
	
		<polyline fill="none" stroke="#000000" stroke-width="0.085" stroke-linecap="round" stroke-linejoin="round" stroke-miterlimit="10" points="
		399.902,184.777 394.72,184.777 394.72,177.217 399.902,177.217 	"/>
	
		<line fill="none" stroke="#000000" stroke-width="0.0283" stroke-linecap="round" stroke-linejoin="round" stroke-miterlimit="10" x1="398.605" y1="208.861" x2="398.605" y2="215.772"/>
	
		<line fill="none" stroke="#000000" stroke-width="0.0283" stroke-linecap="round" stroke-linejoin="round" stroke-miterlimit="10" x1="398.605" y1="212.317" x2="395.15" y2="212.317"/>
	
		<polyline fill="none" stroke="#000000" stroke-width="0.1417" stroke-linecap="round" stroke-linejoin="round" stroke-miterlimit="10" points="
		399.902,215.772 395.15,215.772 395.15,208.861 399.902,208.861 	"/>
	
		<line fill="none" stroke="#000000" stroke-width="0.0283" stroke-linecap="round" stroke-linejoin="round" stroke-miterlimit="10" x1="398.605" y1="177.541" x2="398.605" y2="184.453"/>
	
		<line fill="none" stroke="#000000" stroke-width="0.0283" stroke-linecap="round" stroke-linejoin="round" stroke-miterlimit="10" x1="398.605" y1="180.997" x2="395.15" y2="180.997"/>
	
		<polyline fill="none" stroke="#000000" stroke-width="0.1417" stroke-linecap="round" stroke-linejoin="round" stroke-miterlimit="10" points="
		399.902,184.453 395.15,184.453 395.15,177.541 399.902,177.541 	"/>
	
		<line fill="none" stroke="#000000" stroke-width="0.0283" stroke-linecap="round" stroke-linejoin="round" stroke-miterlimit="10" x1="254.426" y1="525.596" x2="214.465" y2="525.596"/>
	
		<line fill="none" stroke="#000000" stroke-width="0.0283" stroke-linecap="round" stroke-linejoin="round" stroke-miterlimit="10" x1="254.426" y1="504.645" x2="214.465" y2="504.645"/>
	
		<line fill="none" stroke="#000000" stroke-width="0.0283" stroke-linecap="round" stroke-linejoin="round" stroke-miterlimit="10" x1="218.461" y1="557.24" x2="218.461" y2="490.711"/>
	
		<line fill="none" stroke="#000000" stroke-width="0.0283" stroke-linecap="round" stroke-linejoin="round" stroke-miterlimit="10" x1="222.457" y1="557.24" x2="222.457" y2="490.711"/>
	
		<line fill="none" stroke="#000000" stroke-width="0.0283" stroke-linecap="round" stroke-linejoin="round" stroke-miterlimit="10" x1="226.453" y1="557.24" x2="226.453" y2="490.711"/>
	
		<line fill="none" stroke="#000000" stroke-width="0.0283" stroke-linecap="round" stroke-linejoin="round" stroke-miterlimit="10" x1="234.445" y1="557.24" x2="234.445" y2="490.711"/>
	
		<line fill="none" stroke="#000000" stroke-width="0.0283" stroke-linecap="round" stroke-linejoin="round" stroke-miterlimit="10" x1="230.449" y1="557.24" x2="230.449" y2="490.711"/>
	
		<line fill="none" stroke="#000000" stroke-width="0.0283" stroke-linecap="round" stroke-linejoin="round" stroke-miterlimit="10" x1="250.428" y1="557.24" x2="250.428" y2="490.711"/>
	
		<line fill="none" stroke="#000000" stroke-width="0.0283" stroke-linecap="round" stroke-linejoin="round" stroke-miterlimit="10" x1="246.434" y1="557.24" x2="246.434" y2="490.711"/>
	
		<line fill="none" stroke="#000000" stroke-width="0.0283" stroke-linecap="round" stroke-linejoin="round" stroke-miterlimit="10" x1="242.438" y1="557.24" x2="242.438" y2="490.711"/>
	
		<line fill="none" stroke="#000000" stroke-width="0.0283" stroke-linecap="round" stroke-linejoin="round" stroke-miterlimit="10" x1="238.441" y1="557.24" x2="238.441" y2="490.711"/>
	
		<line fill="none" stroke="#000000" stroke-width="0.0283" stroke-linecap="round" stroke-linejoin="round" stroke-miterlimit="10" x1="254.426" y1="546.547" x2="214.465" y2="546.547"/>
	
		<line fill="none" stroke="#000000" stroke-width="0.0283" stroke-linecap="round" stroke-linejoin="round" stroke-miterlimit="10" x1="254.426" y1="536.073" x2="214.465" y2="536.073"/>
	
		<line fill="none" stroke="#000000" stroke-width="0.0283" stroke-linecap="round" stroke-linejoin="round" stroke-miterlimit="10" x1="254.426" y1="515.12" x2="214.465" y2="515.12"/>
	
		<line fill="none" stroke="#000000" stroke-width="0.0283" stroke-linecap="round" stroke-linejoin="round" stroke-miterlimit="10" x1="254.426" y1="494.276" x2="214.465" y2="494.276"/>
	
		<line fill="none" stroke="#000000" stroke-width="0.0283" stroke-linecap="round" stroke-linejoin="round" stroke-miterlimit="10" x1="340.717" y1="366.188" x2="380.786" y2="366.188"/>
	
		<line fill="none" stroke="#000000" stroke-width="0.0283" stroke-linecap="round" stroke-linejoin="round" stroke-miterlimit="10" x1="340.717" y1="316.401" x2="372.793" y2="316.401"/>
	
		<line fill="none" stroke="#000000" stroke-width="0.0283" stroke-linecap="round" stroke-linejoin="round" stroke-miterlimit="10" x1="340.717" y1="337.352" x2="380.786" y2="337.352"/>
	
		<line fill="none" stroke="#000000" stroke-width="0.0283" stroke-linecap="round" stroke-linejoin="round" stroke-miterlimit="10" x1="376.789" y1="284.756" x2="376.789" y2="305.924"/>
	
		<line fill="none" stroke="#000000" stroke-width="0.0283" stroke-linecap="round" stroke-linejoin="round" stroke-miterlimit="10" x1="372.793" y1="284.756" x2="372.793" y2="420.404"/>
	
		<line fill="none" stroke="#000000" stroke-width="0.0283" stroke-linecap="round" stroke-linejoin="round" stroke-miterlimit="10" x1="368.797" y1="284.756" x2="368.797" y2="420.404"/>
	
		<line fill="none" stroke="#000000" stroke-width="0.0283" stroke-linecap="round" stroke-linejoin="round" stroke-miterlimit="10" x1="360.805" y1="284.756" x2="360.805" y2="420.404"/>
	
		<line fill="none" stroke="#000000" stroke-width="0.0283" stroke-linecap="round" stroke-linejoin="round" stroke-miterlimit="10" x1="364.801" y1="284.756" x2="364.801" y2="420.404"/>
	
		<line fill="none" stroke="#000000" stroke-width="0.0283" stroke-linecap="round" stroke-linejoin="round" stroke-miterlimit="10" x1="344.82" y1="284.756" x2="344.82" y2="420.404"/>
	
		<line fill="none" stroke="#000000" stroke-width="0.0283" stroke-linecap="round" stroke-linejoin="round" stroke-miterlimit="10" x1="348.816" y1="284.756" x2="348.816" y2="420.404"/>
	
		<line fill="none" stroke="#000000" stroke-width="0.0283" stroke-linecap="round" stroke-linejoin="round" stroke-miterlimit="10" x1="352.814" y1="284.756" x2="352.814" y2="420.404"/>
	
		<line fill="none" stroke="#000000" stroke-width="0.0283" stroke-linecap="round" stroke-linejoin="round" stroke-miterlimit="10" x1="356.809" y1="284.756" x2="356.809" y2="420.404"/>
	
		<line fill="none" stroke="#000000" stroke-width="0.0283" stroke-linecap="round" stroke-linejoin="round" stroke-miterlimit="10" x1="340.717" y1="295.448" x2="380.786" y2="295.448"/>
	
		<line fill="none" stroke="#000000" stroke-width="0.0283" stroke-linecap="round" stroke-linejoin="round" stroke-miterlimit="10" x1="340.717" y1="305.924" x2="380.786" y2="305.924"/>
	
		<line fill="none" stroke="#000000" stroke-width="0.0283" stroke-linecap="round" stroke-linejoin="round" stroke-miterlimit="10" x1="340.717" y1="326.876" x2="380.786" y2="326.876"/>
	
		<line fill="none" stroke="#000000" stroke-width="0.0283" stroke-linecap="round" stroke-linejoin="round" stroke-miterlimit="10" x1="340.717" y1="347.72" x2="380.786" y2="347.72"/>
	
		<polyline fill="none" stroke="#000000" stroke-width="0.2551" stroke-linecap="round" stroke-linejoin="round" stroke-miterlimit="10" points="
		299.57,557.24 318.9,557.24 318.9,561.128 299.57,561.128 299.57,557.24 	"/>
	<path stroke="#000000" stroke-width="0.2551" stroke-linecap="round" stroke-linejoin="round" stroke-miterlimit="10" d="
		M384.564,303.44v-22.572h-98.604v3.889h53.568V305.6h1.188v-20.844h40.069v21.168h7.558v20.952h-7.558v93.527h-7.993v1.188h7.993
		v67.824h-40.069v-3.133h-1.188v3.133h-3.24v1.295h3.24v3.241h1.188v-3.241h19.439v7.453h1.188v-7.453h19.442v22.681h-19.442v-3.78
		h-1.188v29.593h1.188v-24.517h19.442v24.517c-0.334,10.534-8.808,18.985-19.343,19.321c-11.029,0.353-20.375-8.293-20.727-19.321
		v-25.272h-1.188v43.308h-1.297v3.889h46.332V329.361h11.449V303.44H384.564z M392.234,314.024c0.477,0,0.863,0.387,0.863,0.865
		c0,0.476-0.387,0.863-0.863,0.863c-0.479,0-0.864-0.388-0.864-0.863C391.37,314.411,391.756,314.024,392.234,314.024z
		 M392.234,318.993c0.477,0,0.863,0.387,0.863,0.863c0,0.478-0.387,0.864-0.863,0.864c-0.479,0-0.864-0.387-0.864-0.864
		C391.37,319.379,391.756,318.993,392.234,318.993z M392.234,326.445c-0.836,0-1.514-0.677-1.514-1.513s0.678-1.512,1.514-1.512
		s1.513,0.676,1.513,1.512S393.07,326.445,392.234,326.445z"/>
	
		<polyline fill="none" stroke="#000000" stroke-width="0.0283" stroke-linecap="round" stroke-linejoin="round" stroke-miterlimit="10" points="
		381.973,307.22 387.156,307.22 387.156,325.472 381.973,325.472 381.973,307.22 	"/>
	
		<line fill="none" stroke="#000000" stroke-width="0.0283" stroke-linecap="round" stroke-linejoin="round" stroke-miterlimit="10" x1="380.786" y1="305.924" x2="380.786" y2="326.876"/>
	
		<line fill="none" stroke="#000000" stroke-width="0.0283" stroke-linecap="round" stroke-linejoin="round" stroke-miterlimit="10" x1="378.625" y1="305.924" x2="378.625" y2="326.768"/>
	
		<line fill="none" stroke="#000000" stroke-width="0.0283" stroke-linecap="round" stroke-linejoin="round" stroke-miterlimit="10" x1="376.789" y1="305.924" x2="376.789" y2="326.768"/>
	
		<line fill="none" stroke="#000000" stroke-width="0.0283" stroke-linecap="round" stroke-linejoin="round" stroke-miterlimit="10" x1="374.844" y1="305.924" x2="374.844" y2="326.768"/>
	
		<polyline fill="none" stroke="#000000" stroke-width="0.085" stroke-linecap="round" stroke-linejoin="round" stroke-miterlimit="10" points="
		380.786,305.924 372.793,305.924 372.793,326.876 380.786,326.876 	"/>
	
		<line fill="none" stroke="#000000" stroke-width="0.0283" stroke-linecap="round" stroke-linejoin="round" stroke-miterlimit="10" x1="380.786" y1="307.868" x2="372.793" y2="307.868"/>
	
		<line fill="none" stroke="#000000" stroke-width="0.0283" stroke-linecap="round" stroke-linejoin="round" stroke-miterlimit="10" x1="380.786" y1="309.812" x2="372.793" y2="309.812"/>
	
		<line fill="none" stroke="#000000" stroke-width="0.0283" stroke-linecap="round" stroke-linejoin="round" stroke-miterlimit="10" x1="380.786" y1="313.7" x2="372.793" y2="313.7"/>
	
		<line fill="none" stroke="#000000" stroke-width="0.0283" stroke-linecap="round" stroke-linejoin="round" stroke-miterlimit="10" x1="380.786" y1="315.536" x2="372.793" y2="315.536"/>
	
		<line fill="none" stroke="#000000" stroke-width="0.0283" stroke-linecap="round" stroke-linejoin="round" stroke-miterlimit="10" x1="380.786" y1="317.481" x2="372.793" y2="317.481"/>
	
		<line fill="none" stroke="#000000" stroke-width="0.0283" stroke-linecap="round" stroke-linejoin="round" stroke-miterlimit="10" x1="380.786" y1="319.424" x2="372.793" y2="319.424"/>
	
		<line fill="none" stroke="#000000" stroke-width="0.0283" stroke-linecap="round" stroke-linejoin="round" stroke-miterlimit="10" x1="380.786" y1="321.26" x2="372.793" y2="321.26"/>
	
		<line fill="none" stroke="#000000" stroke-width="0.0283" stroke-linecap="round" stroke-linejoin="round" stroke-miterlimit="10" x1="380.786" y1="323.204" x2="372.793" y2="323.204"/>
	
		<line fill="none" stroke="#000000" stroke-width="0.0283" stroke-linecap="round" stroke-linejoin="round" stroke-miterlimit="10" x1="380.786" y1="325.148" x2="372.793" y2="325.148"/>
	
		<line fill="none" stroke="#000000" stroke-width="0.0283" stroke-linecap="round" stroke-linejoin="round" stroke-miterlimit="10" x1="380.786" y1="311.648" x2="372.793" y2="311.648"/>
	
		<line fill="none" stroke="#000000" stroke-width="0.085" stroke-linecap="round" stroke-linejoin="round" stroke-miterlimit="10" x1="340.717" y1="513.932" x2="360.156" y2="513.932"/>
	
		<path fill="none" stroke="#000000" stroke-width="0.085" stroke-linecap="round" stroke-linejoin="round" stroke-miterlimit="10" d="
		M360.156,539.205"/>
	
		<line fill="none" stroke="#000000" stroke-width="0.085" stroke-linecap="round" stroke-linejoin="round" stroke-miterlimit="10" x1="340.717" y1="517.065" x2="360.156" y2="517.065"/>
	
		<line fill="none" stroke="#000000" stroke-width="0.085" stroke-linecap="round" stroke-linejoin="round" stroke-miterlimit="10" x1="340.717" y1="520.196" x2="360.156" y2="520.196"/>
	
		<line fill="none" stroke="#000000" stroke-width="0.085" stroke-linecap="round" stroke-linejoin="round" stroke-miterlimit="10" x1="340.717" y1="523.436" x2="360.156" y2="523.436"/>
	
		<line fill="none" stroke="#000000" stroke-width="0.085" stroke-linecap="round" stroke-linejoin="round" stroke-miterlimit="10" x1="340.717" y1="526.568" x2="360.156" y2="526.568"/>
	
		<line fill="none" stroke="#000000" stroke-width="0.085" stroke-linecap="round" stroke-linejoin="round" stroke-miterlimit="10" x1="340.717" y1="529.7" x2="360.156" y2="529.7"/>
	
		<line fill="none" stroke="#000000" stroke-width="0.085" stroke-linecap="round" stroke-linejoin="round" stroke-miterlimit="10" x1="340.717" y1="532.833" x2="360.156" y2="532.833"/>
	
		<line fill="none" stroke="#000000" stroke-width="0.085" stroke-linecap="round" stroke-linejoin="round" stroke-miterlimit="10" x1="340.717" y1="536.073" x2="360.156" y2="536.073"/>
	
		<path fill="none" stroke="#000000" stroke-width="0.085" stroke-linecap="round" stroke-linejoin="round" stroke-miterlimit="10" d="
		M361.344,539.205"/>
	
		<line fill="none" stroke="#000000" stroke-width="0.085" stroke-linecap="round" stroke-linejoin="round" stroke-miterlimit="10" x1="380.786" y1="517.065" x2="361.344" y2="517.065"/>
	
		<line fill="none" stroke="#000000" stroke-width="0.085" stroke-linecap="round" stroke-linejoin="round" stroke-miterlimit="10" x1="380.786" y1="520.196" x2="361.344" y2="520.196"/>
	
		<line fill="none" stroke="#000000" stroke-width="0.085" stroke-linecap="round" stroke-linejoin="round" stroke-miterlimit="10" x1="380.786" y1="523.436" x2="361.344" y2="523.436"/>
	
		<line fill="none" stroke="#000000" stroke-width="0.085" stroke-linecap="round" stroke-linejoin="round" stroke-miterlimit="10" x1="380.786" y1="526.568" x2="361.344" y2="526.568"/>
	
		<line fill="none" stroke="#000000" stroke-width="0.085" stroke-linecap="round" stroke-linejoin="round" stroke-miterlimit="10" x1="380.786" y1="529.7" x2="361.344" y2="529.7"/>
	
		<line fill="none" stroke="#000000" stroke-width="0.085" stroke-linecap="round" stroke-linejoin="round" stroke-miterlimit="10" x1="380.786" y1="532.833" x2="361.344" y2="532.833"/>
	
		<line fill="none" stroke="#000000" stroke-width="0.085" stroke-linecap="round" stroke-linejoin="round" stroke-miterlimit="10" x1="380.786" y1="536.073" x2="361.344" y2="536.073"/>
	
		<polyline fill="none" stroke="#000000" stroke-width="0.085" stroke-linecap="round" stroke-linejoin="round" stroke-miterlimit="10" points="
		255.721,306.249 254.426,306.249 254.426,326.553 255.721,326.553 255.721,306.249 	"/>
	
		<polyline fill="none" stroke="#000000" stroke-width="0.085" stroke-linecap="round" stroke-linejoin="round" stroke-miterlimit="10" points="
		373.332,491.361 368.148,491.361 368.148,499.676 373.332,499.676 373.332,491.361 	"/>
	
		<line fill="none" stroke="#000000" stroke-width="0.085" stroke-linecap="round" stroke-linejoin="round" stroke-miterlimit="10" x1="368.148" y1="493.953" x2="373.332" y2="493.953"/>
	
		<line fill="none" stroke="#000000" stroke-width="0.085" stroke-linecap="round" stroke-linejoin="round" stroke-miterlimit="10" x1="370.742" y1="491.361" x2="370.742" y2="490.711"/>
	
		<polyline fill="none" stroke="#000000" stroke-width="0.085" stroke-linecap="round" stroke-linejoin="round" stroke-miterlimit="10" points="
		373.982,513.392 373.982,508.965 367.609,508.965 367.609,513.392 	"/>
	
		<line fill="none" stroke="#000000" stroke-width="0.085" stroke-linecap="round" stroke-linejoin="round" stroke-miterlimit="10" x1="373.982" y1="512.204" x2="367.609" y2="512.204"/>
	
		<line fill="none" stroke="#000000" stroke-width="0.085" stroke-linecap="round" stroke-linejoin="round" stroke-miterlimit="10" x1="339.529" y1="493.953" x2="339.529" y2="513.932"/>
	
		<line fill="none" stroke="#000000" stroke-width="0.085" stroke-linecap="round" stroke-linejoin="round" stroke-miterlimit="10" x1="340.717" y1="493.953" x2="340.717" y2="513.932"/>
	
		<line fill="none" stroke="#000000" stroke-width="0.085" stroke-linecap="round" stroke-linejoin="round" stroke-miterlimit="10" x1="361.344" y1="498.165" x2="361.344" y2="509.612"/>
	
		<line fill="none" stroke="#000000" stroke-width="0.085" stroke-linecap="round" stroke-linejoin="round" stroke-miterlimit="10" x1="360.156" y1="498.165" x2="360.156" y2="509.612"/>
	<polyline stroke="#000000" stroke-width="0.2551" stroke-linecap="round" stroke-linejoin="round" stroke-miterlimit="10" points="
		298.273,489.417 298.273,486.284 296.977,486.284 296.977,489.417 293.738,489.417 293.738,490.711 296.977,490.711 
		296.977,493.953 298.273,493.953 298.273,490.711 301.404,490.711 301.404,489.417 298.273,489.417 	"/>
	
		<line fill="none" stroke="#000000" stroke-width="0.0283" stroke-linecap="round" stroke-linejoin="round" stroke-miterlimit="10" x1="297.625" y1="486.284" x2="297.625" y2="424.833"/>
	
		<line fill="none" stroke="#000000" stroke-width="0.0283" stroke-linecap="round" stroke-linejoin="round" stroke-miterlimit="10" x1="336.289" y1="490.065" x2="301.404" y2="490.065"/>
	
		<line fill="none" stroke="#000000" stroke-width="0.085" stroke-linecap="round" stroke-linejoin="round" stroke-miterlimit="10" x1="340.717" y1="503.456" x2="340.717" y2="492.008"/>
	
		<line fill="none" stroke="#000000" stroke-width="0.085" stroke-linecap="round" stroke-linejoin="round" stroke-miterlimit="10" x1="339.529" y1="503.456" x2="339.529" y2="492.008"/>
	
		<polyline fill="none" stroke="#000000" stroke-width="0.1984" stroke-linecap="round" stroke-linejoin="round" stroke-miterlimit="10" points="
		255.721,326.553 254.426,326.553 254.426,327.2 255.721,327.2 255.721,326.553 	"/>
	
		<polyline fill="none" stroke="#000000" stroke-width="0.1984" stroke-linecap="round" stroke-linejoin="round" stroke-miterlimit="10" points="
		255.721,306.249 254.426,306.249 254.426,305.6 255.721,305.6 255.721,306.249 	"/>
	<polyline stroke="#000000" stroke-width="0.2551" stroke-linecap="round" stroke-linejoin="round" stroke-miterlimit="10" points="
		298.273,420.404 298.273,417.165 296.977,417.165 296.977,420.404 293.738,420.404 293.738,421.592 296.977,421.592 
		296.977,424.833 298.273,424.833 298.273,421.592 301.404,421.592 301.404,420.404 298.273,420.404 	"/>
	
		<line fill="none" stroke="#000000" stroke-width="0.085" stroke-linecap="round" stroke-linejoin="round" stroke-miterlimit="10" x1="255.721" y1="327.2" x2="255.721" y2="347.396"/>
	
		<line fill="none" stroke="#000000" stroke-width="0.085" stroke-linecap="round" stroke-linejoin="round" stroke-miterlimit="10" x1="254.426" y1="327.2" x2="254.426" y2="347.396"/>
	
		<polyline fill="none" stroke="#000000" stroke-width="0.085" stroke-linecap="round" stroke-linejoin="round" stroke-miterlimit="10" points="
		339.529,306.249 340.717,306.249 340.717,326.553 339.529,326.553 339.529,306.249 	"/>
	
		<polyline fill="none" stroke="#000000" stroke-width="0.1984" stroke-linecap="round" stroke-linejoin="round" stroke-miterlimit="10" points="
		339.529,326.553 340.717,326.553 340.717,327.2 339.529,327.2 339.529,326.553 	"/>
	
		<polyline fill="none" stroke="#000000" stroke-width="0.1984" stroke-linecap="round" stroke-linejoin="round" stroke-miterlimit="10" points="
		339.529,306.249 340.717,306.249 340.717,305.6 339.529,305.6 339.529,306.249 	"/>
	
		<polyline fill="none" stroke="#000000" stroke-width="0.1984" stroke-linecap="round" stroke-linejoin="round" stroke-miterlimit="10" points="
		339.529,347.396 340.717,347.396 340.717,348.044 339.529,348.044 339.529,347.396 	"/>
	
		<line fill="none" stroke="#000000" stroke-width="0.085" stroke-linecap="round" stroke-linejoin="round" stroke-miterlimit="10" x1="339.529" y1="327.2" x2="339.529" y2="347.396"/>
	
		<line fill="none" stroke="#000000" stroke-width="0.085" stroke-linecap="round" stroke-linejoin="round" stroke-miterlimit="10" x1="340.717" y1="327.2" x2="340.717" y2="347.396"/>
	
		<polyline fill="none" stroke="#000000" stroke-width="0.085" stroke-linecap="round" stroke-linejoin="round" stroke-miterlimit="10" points="
		339.529,398.803 340.717,398.803 340.717,376.665 339.529,376.665 339.529,398.803 	"/>
	
		<polyline fill="none" stroke="#000000" stroke-width="0.1984" stroke-linecap="round" stroke-linejoin="round" stroke-miterlimit="10" points="
		339.529,376.665 340.717,376.665 340.717,376.016 339.529,376.016 339.529,376.665 	"/>
	
		<polyline fill="none" stroke="#000000" stroke-width="0.1984" stroke-linecap="round" stroke-linejoin="round" stroke-miterlimit="10" points="
		339.529,398.803 340.717,398.803 340.717,399.453 339.529,399.453 339.529,398.803 	"/>
	
		<polyline fill="none" stroke="#000000" stroke-width="0.1984" stroke-linecap="round" stroke-linejoin="round" stroke-miterlimit="10" points="
		339.529,356.361 340.717,356.361 340.717,355.711 339.529,355.711 339.529,356.361 	"/>
	
		<line fill="none" stroke="#000000" stroke-width="0.085" stroke-linecap="round" stroke-linejoin="round" stroke-miterlimit="10" x1="339.529" y1="376.016" x2="339.529" y2="356.361"/>
	
		<line fill="none" stroke="#000000" stroke-width="0.085" stroke-linecap="round" stroke-linejoin="round" stroke-miterlimit="10" x1="340.717" y1="376.016" x2="340.717" y2="356.361"/>
	
		<line fill="none" stroke="#000000" stroke-width="0.8504" stroke-linecap="round" stroke-linejoin="round" stroke-miterlimit="10" x1="339.529" y1="366.188" x2="339.529" y2="366.188"/>
	
		<path fill="none" stroke="#000000" stroke-width="0.085" stroke-linecap="round" stroke-linejoin="round" stroke-miterlimit="10" d="
		M329.809,366.188c0,5.368,4.354,9.721,9.721,9.721l0,0"/>
	
		<path fill="none" stroke="#000000" stroke-width="0.085" stroke-linecap="round" stroke-linejoin="round" stroke-miterlimit="10" d="
		M349.25,366.188c0-5.367-4.354-9.721-9.721-9.721l0,0"/>
	
		<line fill="none" stroke="#000000" stroke-width="0.085" stroke-linecap="round" stroke-linejoin="round" stroke-miterlimit="10" x1="349.355" y1="366.188" x2="329.702" y2="366.188"/>
	
		<path fill="none" stroke="#000000" stroke-width="0.085" stroke-linecap="round" stroke-linejoin="round" stroke-miterlimit="10" d="
		M349.572,337.352c0-5.547-4.495-10.043-10.043-10.043l0,0"/>
	
		<path fill="none" stroke="#000000" stroke-width="0.085" stroke-linecap="round" stroke-linejoin="round" stroke-miterlimit="10" d="
		M329.486,337.352c0,5.547,4.496,10.044,10.043,10.044l0,0"/>
	
		<line fill="none" stroke="#000000" stroke-width="0.085" stroke-linecap="round" stroke-linejoin="round" stroke-miterlimit="10" x1="329.377" y1="337.352" x2="349.682" y2="337.352"/>
	
		<line fill="none" stroke="#000000" stroke-width="0.8504" stroke-linecap="round" stroke-linejoin="round" stroke-miterlimit="10" x1="339.529" y1="337.352" x2="339.529" y2="337.352"/>
	
		<line fill="none" stroke="#000000" stroke-width="0.8504" stroke-linecap="round" stroke-linejoin="round" stroke-miterlimit="10" x1="255.721" y1="337.352" x2="255.721" y2="337.352"/>
	
		<path fill="none" stroke="#000000" stroke-width="0.085" stroke-linecap="round" stroke-linejoin="round" stroke-miterlimit="10" d="
		M255.723,327.309c-5.547,0-10.043,4.496-10.043,10.043l0,0"/>
	
		<path fill="none" stroke="#000000" stroke-width="0.085" stroke-linecap="round" stroke-linejoin="round" stroke-miterlimit="10" d="
		M255.723,347.396c5.547,0,10.043-4.497,10.043-10.044"/>
	
		<line fill="none" stroke="#000000" stroke-width="0.085" stroke-linecap="round" stroke-linejoin="round" stroke-miterlimit="10" x1="265.873" y1="337.352" x2="245.57" y2="337.352"/>
	
		<polyline fill="none" stroke="#000000" stroke-width="0.2551" stroke-linecap="round" stroke-linejoin="round" stroke-miterlimit="10" points="
		298.598,562.425 296.545,562.425 296.545,562.533 297.518,562.533 297.518,564.693 296.545,564.693 296.545,564.909 
		298.598,564.909 298.598,564.693 297.732,564.693 297.732,562.533 298.598,562.533 298.598,562.425 	"/>
	
		<polyline fill="none" stroke="#000000" stroke-width="0.2551" stroke-linecap="round" stroke-linejoin="round" stroke-miterlimit="10" points="
		340.609,561.128 339.637,561.128 339.637,562.425 340.609,562.425 340.609,561.128 	"/>
	
		<polyline fill="none" stroke="#000000" stroke-width="0.2551" stroke-linecap="round" stroke-linejoin="round" stroke-miterlimit="10" points="
		298.057,561.128 297.086,561.128 297.086,562.425 298.057,562.425 298.057,561.128 	"/>
	
		<polyline fill="none" stroke="#000000" stroke-width="0.2551" stroke-linecap="round" stroke-linejoin="round" stroke-miterlimit="10" points="
		341.148,562.425 339.098,562.425 339.098,562.533 340.07,562.533 340.07,564.693 339.098,564.693 339.098,564.909 341.148,564.909 
		341.148,564.693 340.178,564.693 340.178,562.533 341.148,562.533 341.148,562.425 	"/>
	
		<polyline fill="none" stroke="#000000" stroke-width="0.1984" stroke-linecap="round" stroke-linejoin="round" stroke-miterlimit="10" points="
		317.928,562.964 338.232,562.964 338.232,561.776 317.928,561.776 317.928,562.964 	"/>
	
		<polyline fill="none" stroke="#000000" stroke-width="0.085" stroke-linecap="round" stroke-linejoin="round" stroke-miterlimit="10" points="
		342.229,574.52 295.465,574.52 295.465,564.909 342.229,564.909 342.229,574.52 	"/>
	
		<line fill="none" stroke="#000000" stroke-width="0.085" stroke-linecap="round" stroke-linejoin="round" stroke-miterlimit="10" x1="342.229" y1="568.148" x2="295.465" y2="568.148"/>
	
		<line fill="none" stroke="#000000" stroke-width="0.085" stroke-linecap="round" stroke-linejoin="round" stroke-miterlimit="10" x1="342.229" y1="571.28" x2="295.465" y2="571.28"/>
	
		<line fill="none" stroke="#000000" stroke-width="0.0283" stroke-linecap="round" stroke-linejoin="round" stroke-miterlimit="10" x1="317.928" y1="562.425" x2="298.598" y2="562.425"/>
	
		<line fill="none" stroke="#000000" stroke-width="0.085" stroke-linecap="round" stroke-linejoin="round" stroke-miterlimit="10" x1="337.262" y1="561.128" x2="337.262" y2="561.776"/>
	
		<line fill="none" stroke="#000000" stroke-width="0.085" stroke-linecap="round" stroke-linejoin="round" stroke-miterlimit="10" x1="318.9" y1="561.128" x2="318.9" y2="561.776"/>
	
		<line stroke="#000000" stroke-width="0.2551" stroke-linecap="round" stroke-linejoin="round" stroke-miterlimit="10" x1="342.014" y1="561.128" x2="338.232" y2="561.128"/>
	<polyline stroke="#000000" stroke-width="0.2551" stroke-linecap="round" stroke-linejoin="round" stroke-miterlimit="10" points="
		214.465,557.24 254.426,557.24 254.426,536.396 255.721,536.396 255.721,557.24 299.57,557.24 299.57,561.128 210.686,561.128 	"/>
	
		<line fill="none" stroke="#000000" stroke-width="0.085" stroke-linecap="round" stroke-linejoin="round" stroke-miterlimit="10" x1="337.262" y1="557.24" x2="318.9" y2="557.24"/>
	
		<polyline fill="none" stroke="#000000" stroke-width="0.085" stroke-linecap="round" stroke-linejoin="round" stroke-miterlimit="10" points="
		233.473,434.984 242.977,434.984 242.977,476.133 233.473,476.133 233.473,434.984 	"/>
	
		<line fill="none" stroke="#000000" stroke-width="0.085" stroke-linecap="round" stroke-linejoin="round" stroke-miterlimit="10" x1="233.473" y1="445.245" x2="242.977" y2="445.245"/>
	
		<line fill="none" stroke="#000000" stroke-width="0.085" stroke-linecap="round" stroke-linejoin="round" stroke-miterlimit="10" x1="233.473" y1="455.504" x2="242.977" y2="455.504"/>
	
		<line fill="none" stroke="#000000" stroke-width="0.0283" stroke-linecap="round" stroke-linejoin="round" stroke-miterlimit="10" x1="239.414" y1="446.108" x2="239.414" y2="454.856"/>
	
		<line fill="none" stroke="#000000" stroke-width="0.0283" stroke-linecap="round" stroke-linejoin="round" stroke-miterlimit="10" x1="241.682" y1="446.108" x2="241.682" y2="454.856"/>
	
		<line fill="none" stroke="#000000" stroke-width="0.0283" stroke-linecap="round" stroke-linejoin="round" stroke-miterlimit="10" x1="237.145" y1="446.108" x2="237.145" y2="454.856"/>
	
		<line fill="none" stroke="#000000" stroke-width="0.0283" stroke-linecap="round" stroke-linejoin="round" stroke-miterlimit="10" x1="234.77" y1="446.108" x2="234.77" y2="454.856"/>
	
		<circle fill="none" stroke="#000000" stroke-width="0.0283" stroke-linecap="round" stroke-linejoin="round" stroke-miterlimit="10" cx="240.602" cy="442.653" r="1.188"/>
	
		<circle fill="none" stroke="#000000" stroke-width="0.0283" stroke-linecap="round" stroke-linejoin="round" stroke-miterlimit="10" cx="235.852" cy="442.653" r="1.188"/>
	
		<circle fill="none" stroke="#000000" stroke-width="0.0283" stroke-linecap="round" stroke-linejoin="round" stroke-miterlimit="10" cx="240.602" cy="437.577" r="1.188"/>
	
		<circle fill="none" stroke="#000000" stroke-width="0.0283" stroke-linecap="round" stroke-linejoin="round" stroke-miterlimit="10" cx="235.852" cy="437.577" r="1.188"/>
	
		<polyline fill="none" stroke="#000000" stroke-width="0.0283" stroke-linecap="round" stroke-linejoin="round" stroke-miterlimit="10" points="
		241.682,456.801 234.77,456.801 234.77,464.577 241.682,464.577 241.682,456.801 	"/>
	
		<line fill="none" stroke="#000000" stroke-width="0.0283" stroke-linecap="round" stroke-linejoin="round" stroke-miterlimit="10" x1="233.797" y1="460.688" x2="235.742" y2="460.688"/>
	
		<polyline fill="none" stroke="#000000" stroke-width="0.085" stroke-linecap="round" stroke-linejoin="round" stroke-miterlimit="10" points="
		226.561,434.984 233.473,434.984 233.473,476.133 226.561,476.133 226.561,434.984 	"/>
	
		<polyline fill="none" stroke="#000000" stroke-width="0.085" stroke-linecap="round" stroke-linejoin="round" stroke-miterlimit="10" points="
		226.561,445.245 233.473,445.245 226.561,445.245 	"/>
	
		<line fill="none" stroke="#000000" stroke-width="0.085" stroke-linecap="round" stroke-linejoin="round" stroke-miterlimit="10" x1="233.473" y1="455.504" x2="226.561" y2="455.504"/>
	
		<polyline fill="none" stroke="#000000" stroke-width="0.085" stroke-linecap="round" stroke-linejoin="round" stroke-miterlimit="10" points="
		226.561,465.764 233.473,465.764 242.977,465.764 	"/>
	
		<polyline fill="none" stroke="#000000" stroke-width="0.085" stroke-linecap="round" stroke-linejoin="round" stroke-miterlimit="10" points="
		255.721,535.749 254.426,535.749 254.426,515.445 255.721,515.445 255.721,535.749 	"/>
	
		<polyline fill="none" stroke="#000000" stroke-width="0.1984" stroke-linecap="round" stroke-linejoin="round" stroke-miterlimit="10" points="
		255.721,515.445 254.426,515.445 254.426,514.795 255.721,514.795 255.721,515.445 	"/>
	
		<polyline fill="none" stroke="#000000" stroke-width="0.1984" stroke-linecap="round" stroke-linejoin="round" stroke-miterlimit="10" points="
		255.721,535.749 254.426,535.749 254.426,536.396 255.721,536.396 255.721,535.749 	"/>
	
		<polyline fill="none" stroke="#000000" stroke-width="0.1984" stroke-linecap="round" stroke-linejoin="round" stroke-miterlimit="10" points="
		255.721,494.6 254.426,494.6 254.426,493.953 255.721,493.953 255.721,494.6 	"/>
	
		<line fill="none" stroke="#000000" stroke-width="0.085" stroke-linecap="round" stroke-linejoin="round" stroke-miterlimit="10" x1="255.721" y1="514.795" x2="255.721" y2="494.6"/>
	
		<line fill="none" stroke="#000000" stroke-width="0.085" stroke-linecap="round" stroke-linejoin="round" stroke-miterlimit="10" x1="254.426" y1="514.795" x2="254.426" y2="494.6"/>
	
		<line fill="none" stroke="#000000" stroke-width="0.8504" stroke-linecap="round" stroke-linejoin="round" stroke-miterlimit="10" x1="255.721" y1="504.645" x2="255.721" y2="504.645"/>
	
		<path fill="none" stroke="#000000" stroke-width="0.085" stroke-linecap="round" stroke-linejoin="round" stroke-miterlimit="10" d="
		M245.68,504.645c0,5.547,4.496,10.043,10.043,10.043l0,0"/>
	
		<path fill="none" stroke="#000000" stroke-width="0.085" stroke-linecap="round" stroke-linejoin="round" stroke-miterlimit="10" d="
		M265.766,504.645c0-5.549-4.496-10.045-10.043-10.045l0,0"/>
	
		<line fill="none" stroke="#000000" stroke-width="0.085" stroke-linecap="round" stroke-linejoin="round" stroke-miterlimit="10" x1="265.873" y1="504.645" x2="245.57" y2="504.645"/>
	
		<line fill="none" stroke="#000000" stroke-width="0.085" stroke-linecap="round" stroke-linejoin="round" stroke-miterlimit="10" x1="250.645" y1="490.711" x2="215.113" y2="490.711"/>
	
		<line fill="none" stroke="#000000" stroke-width="0.085" stroke-linecap="round" stroke-linejoin="round" stroke-miterlimit="10" x1="250.645" y1="489.417" x2="215.113" y2="489.417"/>
	
		<polyline fill="none" stroke="#000000" stroke-width="0.1984" stroke-linecap="round" stroke-linejoin="round" stroke-miterlimit="10" points="
		250.645,490.711 250.645,489.417 251.293,489.417 251.293,490.711 250.645,490.711 	"/>
	
		<polyline fill="none" stroke="#000000" stroke-width="0.1984" stroke-linecap="round" stroke-linejoin="round" stroke-miterlimit="10" points="
		232.609,490.711 232.609,489.417 233.148,489.417 233.148,490.711 232.609,490.711 	"/>
	
		<line fill="none" stroke="#000000" stroke-width="0.9921" stroke-linecap="round" stroke-linejoin="round" stroke-miterlimit="10" x1="241.898" y1="490.711" x2="241.898" y2="490.711"/>
	
		<path fill="none" stroke="#000000" stroke-width="0.085" stroke-linecap="round" stroke-linejoin="round" stroke-miterlimit="10" d="
		M241.898,482.073c-4.773,0-8.643,3.867-8.643,8.639l0,0"/>
	
		<line fill="none" stroke="#000000" stroke-width="0.085" stroke-linecap="round" stroke-linejoin="round" stroke-miterlimit="10" x1="241.898" y1="481.965" x2="241.898" y2="499.46"/>
	
		<path fill="none" stroke="#000000" stroke-width="0.085" stroke-linecap="round" stroke-linejoin="round" stroke-miterlimit="10" d="
		M241.898,499.352c4.77,0,8.64-3.869,8.64-8.641"/>
	
		<polyline fill="none" stroke="#000000" stroke-width="0.1984" stroke-linecap="round" stroke-linejoin="round" stroke-miterlimit="10" points="
		215.113,490.711 215.113,489.417 214.465,489.417 214.465,490.711 215.113,490.711 	"/>
	
		<line fill="none" stroke="#000000" stroke-width="0.085" stroke-linecap="round" stroke-linejoin="round" stroke-miterlimit="10" x1="250.645" y1="351.284" x2="215.113" y2="351.284"/>
	
		<line fill="none" stroke="#000000" stroke-width="0.085" stroke-linecap="round" stroke-linejoin="round" stroke-miterlimit="10" x1="250.645" y1="352.581" x2="215.113" y2="352.581"/>
	
		<polyline fill="none" stroke="#000000" stroke-width="0.1984" stroke-linecap="round" stroke-linejoin="round" stroke-miterlimit="10" points="
		250.645,351.284 250.645,352.581 251.293,352.581 251.293,351.284 250.645,351.284 	"/>
	
		<polyline fill="none" stroke="#000000" stroke-width="0.1984" stroke-linecap="round" stroke-linejoin="round" stroke-miterlimit="10" points="
		232.609,351.284 232.609,352.581 233.148,352.581 233.148,351.284 232.609,351.284 	"/>
	
		<line fill="none" stroke="#000000" stroke-width="0.9921" stroke-linecap="round" stroke-linejoin="round" stroke-miterlimit="10" x1="241.898" y1="351.284" x2="241.898" y2="351.284"/>
	
		<path fill="none" stroke="#000000" stroke-width="0.085" stroke-linecap="round" stroke-linejoin="round" stroke-miterlimit="10" d="
		M233.256,351.284c0,4.771,3.869,8.641,8.643,8.641l0,0"/>
	
		<line fill="none" stroke="#000000" stroke-width="0.085" stroke-linecap="round" stroke-linejoin="round" stroke-miterlimit="10" x1="241.898" y1="360.033" x2="241.898" y2="342.536"/>
	
		<path fill="none" stroke="#000000" stroke-width="0.085" stroke-linecap="round" stroke-linejoin="round" stroke-miterlimit="10" d="
		M250.538,351.284c0-4.771-3.87-8.639-8.64-8.639l0,0"/>
	
		<polyline fill="none" stroke="#000000" stroke-width="0.1984" stroke-linecap="round" stroke-linejoin="round" stroke-miterlimit="10" points="
		215.113,351.284 215.113,352.581 214.465,352.581 214.465,351.284 215.113,351.284 	"/>
	
		<line fill="none" stroke="#000000" stroke-width="0.0283" stroke-linecap="round" stroke-linejoin="round" stroke-miterlimit="10" x1="254.426" y1="316.401" x2="214.465" y2="316.401"/>
	
		<line fill="none" stroke="#000000" stroke-width="0.0283" stroke-linecap="round" stroke-linejoin="round" stroke-miterlimit="10" x1="254.426" y1="337.352" x2="214.465" y2="337.352"/>
	
		<line fill="none" stroke="#000000" stroke-width="0.0283" stroke-linecap="round" stroke-linejoin="round" stroke-miterlimit="10" x1="218.461" y1="284.756" x2="218.461" y2="351.284"/>
	
		<line fill="none" stroke="#000000" stroke-width="0.0283" stroke-linecap="round" stroke-linejoin="round" stroke-miterlimit="10" x1="222.457" y1="284.756" x2="222.457" y2="351.284"/>
	
		<line fill="none" stroke="#000000" stroke-width="0.0283" stroke-linecap="round" stroke-linejoin="round" stroke-miterlimit="10" x1="226.453" y1="284.756" x2="226.453" y2="351.284"/>
	
		<line fill="none" stroke="#000000" stroke-width="0.0283" stroke-linecap="round" stroke-linejoin="round" stroke-miterlimit="10" x1="234.445" y1="284.756" x2="234.445" y2="351.284"/>
	
		<line fill="none" stroke="#000000" stroke-width="0.0283" stroke-linecap="round" stroke-linejoin="round" stroke-miterlimit="10" x1="230.449" y1="284.756" x2="230.449" y2="351.284"/>
	
		<line fill="none" stroke="#000000" stroke-width="0.0283" stroke-linecap="round" stroke-linejoin="round" stroke-miterlimit="10" x1="250.428" y1="284.756" x2="250.428" y2="351.284"/>
	
		<line fill="none" stroke="#000000" stroke-width="0.0283" stroke-linecap="round" stroke-linejoin="round" stroke-miterlimit="10" x1="246.434" y1="284.756" x2="246.434" y2="351.284"/>
	
		<line fill="none" stroke="#000000" stroke-width="0.0283" stroke-linecap="round" stroke-linejoin="round" stroke-miterlimit="10" x1="242.438" y1="284.756" x2="242.438" y2="351.284"/>
	
		<line fill="none" stroke="#000000" stroke-width="0.0283" stroke-linecap="round" stroke-linejoin="round" stroke-miterlimit="10" x1="238.441" y1="284.756" x2="238.441" y2="351.284"/>
	
		<line fill="none" stroke="#000000" stroke-width="0.0283" stroke-linecap="round" stroke-linejoin="round" stroke-miterlimit="10" x1="254.426" y1="295.448" x2="214.465" y2="295.448"/>
	
		<line fill="none" stroke="#000000" stroke-width="0.0283" stroke-linecap="round" stroke-linejoin="round" stroke-miterlimit="10" x1="254.426" y1="305.924" x2="214.465" y2="305.924"/>
	
		<line fill="none" stroke="#000000" stroke-width="0.0283" stroke-linecap="round" stroke-linejoin="round" stroke-miterlimit="10" x1="254.426" y1="326.876" x2="214.465" y2="326.876"/>
	
		<line fill="none" stroke="#000000" stroke-width="0.0283" stroke-linecap="round" stroke-linejoin="round" stroke-miterlimit="10" x1="254.426" y1="347.72" x2="214.465" y2="347.72"/>
	
		<line fill="none" stroke="#000000" stroke-width="0.0283" stroke-linecap="round" stroke-linejoin="round" stroke-miterlimit="10" x1="339.529" y1="420.945" x2="301.404" y2="420.945"/>
	
		<polyline fill="none" stroke="#000000" stroke-width="0.085" stroke-linecap="round" stroke-linejoin="round" stroke-miterlimit="10" points="
		312.529,294.801 312.529,323.529 325.273,323.529 325.273,294.801 312.529,294.801 	"/>
	
		<polyline fill="none" stroke="#000000" stroke-width="0.085" stroke-linecap="round" stroke-linejoin="round" stroke-miterlimit="10" points="
		331.645,306.249 331.645,311.432 326.57,311.432 326.57,306.249 331.645,306.249 	"/>
	
		<line fill="none" stroke="#000000" stroke-width="0.0283" stroke-linecap="round" stroke-linejoin="round" stroke-miterlimit="10" x1="330.998" y1="306.249" x2="330.998" y2="311.432"/>
	
		<polyline fill="none" stroke="#000000" stroke-width="0.085" stroke-linecap="round" stroke-linejoin="round" stroke-miterlimit="10" points="
		331.645,302.467 331.645,297.392 326.57,297.392 326.57,302.467 331.645,302.467 	"/>
	
		<line fill="none" stroke="#000000" stroke-width="0.0283" stroke-linecap="round" stroke-linejoin="round" stroke-miterlimit="10" x1="330.998" y1="302.467" x2="330.998" y2="297.392"/>
	
		<polyline fill="none" stroke="#000000" stroke-width="0.085" stroke-linecap="round" stroke-linejoin="round" stroke-miterlimit="10" points="
		306.156,306.249 306.156,311.432 311.232,311.432 311.232,306.249 306.156,306.249 	"/>
	
		<line fill="none" stroke="#000000" stroke-width="0.0283" stroke-linecap="round" stroke-linejoin="round" stroke-miterlimit="10" x1="306.805" y1="306.249" x2="306.805" y2="311.432"/>
	
		<polyline fill="none" stroke="#000000" stroke-width="0.085" stroke-linecap="round" stroke-linejoin="round" stroke-miterlimit="10" points="
		306.156,302.467 306.156,297.392 311.232,297.392 311.232,302.467 306.156,302.467 	"/>
	
		<line fill="none" stroke="#000000" stroke-width="0.0283" stroke-linecap="round" stroke-linejoin="round" stroke-miterlimit="10" x1="306.805" y1="302.467" x2="306.805" y2="297.392"/>
	
		<polyline fill="none" stroke="#000000" stroke-width="0.085" stroke-linecap="round" stroke-linejoin="round" stroke-miterlimit="10" points="
		306.156,315.211 306.156,320.289 311.232,320.289 311.232,315.211 306.156,315.211 	"/>
	
		<line fill="none" stroke="#000000" stroke-width="0.0283" stroke-linecap="round" stroke-linejoin="round" stroke-miterlimit="10" x1="306.805" y1="315.211" x2="306.805" y2="320.289"/>
	
		<polyline fill="none" stroke="#000000" stroke-width="0.085" stroke-linecap="round" stroke-linejoin="round" stroke-miterlimit="10" points="
		331.645,315.211 331.645,320.289 326.57,320.289 326.57,315.211 331.645,315.211 	"/>
	
		<line fill="none" stroke="#000000" stroke-width="0.0283" stroke-linecap="round" stroke-linejoin="round" stroke-miterlimit="10" x1="330.998" y1="315.211" x2="330.998" y2="320.289"/>
	
		<circle fill="none" stroke="#000000" stroke-width="0.085" stroke-linecap="round" stroke-linejoin="round" stroke-miterlimit="10" cx="273.65" cy="536.288" r="5.076"/>
	
		<polyline fill="none" stroke="#000000" stroke-width="0.085" stroke-linecap="round" stroke-linejoin="round" stroke-miterlimit="10" points="
		281.855,528.728 284.342,533.157 279.914,535.64 277.428,531.211 281.855,528.728 	"/>
	
		<line fill="none" stroke="#000000" stroke-width="0.0283" stroke-linecap="round" stroke-linejoin="round" stroke-miterlimit="10" x1="281.316" y1="529.053" x2="283.801" y2="533.481"/>
	
		<polyline fill="none" stroke="#000000" stroke-width="0.085" stroke-linecap="round" stroke-linejoin="round" stroke-miterlimit="10" points="
		262.957,539.312 265.441,543.848 269.87,541.364 267.387,536.829 262.957,539.312 	"/>
	
		<line fill="none" stroke="#000000" stroke-width="0.0283" stroke-linecap="round" stroke-linejoin="round" stroke-miterlimit="10" x1="263.498" y1="539.096" x2="265.982" y2="543.525"/>
	
		<polyline fill="none" stroke="#000000" stroke-width="0.085" stroke-linecap="round" stroke-linejoin="round" stroke-miterlimit="10" points="
		266.088,528.081 270.625,525.596 273.109,530.024 268.682,532.508 266.088,528.081 	"/>
	
		<line fill="none" stroke="#000000" stroke-width="0.0283" stroke-linecap="round" stroke-linejoin="round" stroke-miterlimit="10" x1="266.414" y1="528.62" x2="270.842" y2="526.136"/>
	
		<polyline fill="none" stroke="#000000" stroke-width="0.085" stroke-linecap="round" stroke-linejoin="round" stroke-miterlimit="10" points="
		276.781,546.981 281.209,544.496 278.727,540.068 274.297,542.553 276.781,546.981 	"/>
	
		<line fill="none" stroke="#000000" stroke-width="0.0283" stroke-linecap="round" stroke-linejoin="round" stroke-miterlimit="10" x1="276.457" y1="546.44" x2="280.887" y2="543.957"/>
	
		<polyline fill="none" stroke="#000000" stroke-width="0.2551" stroke-linecap="round" stroke-linejoin="round" stroke-miterlimit="10" points="
		338.232,557.24 337.262,557.24 337.262,561.128 338.232,561.128 338.232,557.24 	"/>
	
		<polyline fill="none" stroke="#000000" stroke-width="0.085" stroke-linecap="round" stroke-linejoin="round" stroke-miterlimit="10" points="
		300.217,509.18 295.033,509.18 295.033,542.012 300.217,542.012 300.217,509.18 	"/>
	
		<line fill="none" stroke="#000000" stroke-width="0.0283" stroke-linecap="round" stroke-linejoin="round" stroke-miterlimit="10" x1="376.789" y1="326.876" x2="376.789" y2="420.404"/>
	
		<line fill="none" stroke="#000000" stroke-width="0.0283" stroke-linecap="round" stroke-linejoin="round" stroke-miterlimit="10" x1="340.717" y1="376.34" x2="380.786" y2="376.34"/>
	
		<line fill="none" stroke="#000000" stroke-width="0.0283" stroke-linecap="round" stroke-linejoin="round" stroke-miterlimit="10" x1="340.717" y1="387.68" x2="380.786" y2="387.68"/>
	
		<line fill="none" stroke="#000000" stroke-width="0.0283" stroke-linecap="round" stroke-linejoin="round" stroke-miterlimit="10" x1="340.717" y1="399.453" x2="380.786" y2="399.453"/>
	
		<line fill="none" stroke="#000000" stroke-width="0.0283" stroke-linecap="round" stroke-linejoin="round" stroke-miterlimit="10" x1="340.717" y1="409.928" x2="380.786" y2="409.928"/>
	
		<line fill="none" stroke="#000000" stroke-width="0.0283" stroke-linecap="round" stroke-linejoin="round" stroke-miterlimit="10" x1="340.717" y1="356.036" x2="380.786" y2="356.036"/>
	<polyline stroke="#000000" stroke-width="0.2551" stroke-linecap="round" stroke-linejoin="round" stroke-miterlimit="10" points="
		340.717,352.581 340.717,355.711 339.529,355.711 339.529,352.581 336.289,352.581 336.289,351.284 339.529,351.284 
		339.529,348.044 340.717,348.044 340.717,351.284 343.957,351.284 343.957,352.581 340.717,352.581 	"/>
	
		<line fill="none" stroke="#000000" stroke-width="0.0283" stroke-linecap="round" stroke-linejoin="round" stroke-miterlimit="10" x1="343.957" y1="351.932" x2="380.786" y2="351.932"/>
	
		<line fill="none" stroke="#000000" stroke-width="0.0283" stroke-linecap="round" stroke-linejoin="round" stroke-miterlimit="10" x1="254.426" y1="351.284" x2="214.465" y2="284.756"/>
	
		<line fill="none" stroke="#000000" stroke-width="0.0283" stroke-linecap="round" stroke-linejoin="round" stroke-miterlimit="10" x1="214.465" y1="351.284" x2="254.426" y2="284.756"/>
	
		<line fill="none" stroke="#000000" stroke-width="0.0283" stroke-linecap="round" stroke-linejoin="round" stroke-miterlimit="10" x1="340.717" y1="420.404" x2="380.786" y2="284.756"/>
	
		<line fill="none" stroke="#000000" stroke-width="0.0283" stroke-linecap="round" stroke-linejoin="round" stroke-miterlimit="10" x1="380.786" y1="420.404" x2="340.717" y2="284.756"/>
	
		<line fill="none" stroke="#000000" stroke-width="0.0283" stroke-linecap="round" stroke-linejoin="round" stroke-miterlimit="10" x1="254.426" y1="490.711" x2="214.465" y2="557.24"/>
	
		<line fill="none" stroke="#000000" stroke-width="0.0283" stroke-linecap="round" stroke-linejoin="round" stroke-miterlimit="10" x1="214.465" y1="490.711" x2="254.426" y2="557.24"/>
	<polyline stroke="#000000" stroke-width="0.2551" stroke-linecap="round" stroke-linejoin="round" stroke-miterlimit="10" points="
		255.721,489.417 255.721,486.284 254.426,486.284 254.426,489.417 251.293,489.417 251.293,490.711 254.426,490.711 
		254.426,493.953 255.721,493.953 255.721,490.711 258.961,490.711 258.961,489.417 255.721,489.417 	"/>
	<polyline stroke="#000000" stroke-width="0.2551" stroke-linecap="round" stroke-linejoin="round" stroke-miterlimit="10" points="
		255.721,351.284 255.721,348.044 254.426,348.044 254.426,351.284 251.293,351.284 251.293,352.581 254.426,352.581 
		254.426,355.711 255.721,355.711 255.721,352.581 258.961,352.581 258.961,351.284 255.721,351.284 	"/>
	<polyline stroke="#000000" stroke-width="0.2551" stroke-linecap="round" stroke-linejoin="round" stroke-miterlimit="10" points="
		228.506,421.592 254.426,421.592 254.426,424.833 255.721,424.833 255.721,421.592 258.961,421.592 258.961,420.404 
		255.721,420.404 255.721,417.165 254.426,417.165 254.426,420.404 228.506,420.404 228.506,421.592 	"/>
	<polyline stroke="#000000" stroke-width="0.2551" stroke-linecap="round" stroke-linejoin="round" stroke-miterlimit="10" points="
		214.465,557.24 214.465,421.592 215.762,421.592 215.762,420.404 214.465,420.404 214.465,284.756 254.426,284.756 254.426,305.6 
		255.721,305.6 255.721,284.756 266.738,284.756 266.738,280.868 210.686,280.868 210.686,561.128 	"/>
	<polyline stroke="#000000" stroke-width="0.2551" stroke-linecap="round" stroke-linejoin="round" stroke-miterlimit="10" points="
		298.273,351.284 298.273,348.044 296.977,348.044 296.977,351.284 293.738,351.284 293.738,352.581 296.977,352.581 
		296.977,355.711 298.273,355.711 298.273,352.581 301.404,352.581 301.404,351.284 298.273,351.284 	"/>
	<polyline stroke="#000000" stroke-width="0.2551" stroke-linecap="round" stroke-linejoin="round" stroke-miterlimit="10" points="
		340.717,420.404 340.717,399.453 339.529,399.453 339.529,473.54 340.717,473.54 340.717,421.592 348.816,421.592 348.816,420.404 
		340.717,420.404 	"/>
	
		<polyline fill="none" stroke="#000000" stroke-width="0.1984" stroke-linecap="round" stroke-linejoin="round" stroke-miterlimit="10" points="
		349.355,420.404 349.355,421.592 348.816,421.592 348.816,420.404 349.355,420.404 	"/>
	
		<polyline fill="none" stroke="#000000" stroke-width="0.1984" stroke-linecap="round" stroke-linejoin="round" stroke-miterlimit="10" points="
		372.145,420.404 372.145,421.592 372.793,421.592 372.793,420.404 372.145,420.404 	"/>
	
		<line fill="none" stroke="#000000" stroke-width="0.085" stroke-linecap="round" stroke-linejoin="round" stroke-miterlimit="10" x1="372.145" y1="421.592" x2="349.355" y2="421.592"/>
	
		<line fill="none" stroke="#000000" stroke-width="0.085" stroke-linecap="round" stroke-linejoin="round" stroke-miterlimit="10" x1="372.145" y1="420.404" x2="349.355" y2="420.404"/>
	
		<line fill="none" stroke="#000000" stroke-width="0.8504" stroke-linecap="round" stroke-linejoin="round" stroke-miterlimit="10" x1="360.805" y1="421.592" x2="360.805" y2="421.592"/>
	
		<path fill="none" stroke="#000000" stroke-width="0.085" stroke-linecap="round" stroke-linejoin="round" stroke-miterlimit="10" d="
		M360.807,410.252c-6.264,0-11.342,5.077-11.342,11.34l0,0"/>
	
		<path fill="none" stroke="#000000" stroke-width="0.085" stroke-linecap="round" stroke-linejoin="round" stroke-miterlimit="10" d="
		M360.807,432.932c6.262,0,11.34-5.076,11.34-11.34"/>
	
		<line fill="none" stroke="#000000" stroke-width="0.085" stroke-linecap="round" stroke-linejoin="round" stroke-miterlimit="10" x1="360.805" y1="410.252" x2="360.805" y2="432.932"/>
	
		<line fill="none" stroke="#000000" stroke-width="0.085" stroke-linecap="round" stroke-linejoin="round" stroke-miterlimit="10" x1="340.717" y1="473.54" x2="340.717" y2="486.284"/>
	
		<line fill="none" stroke="#000000" stroke-width="0.085" stroke-linecap="round" stroke-linejoin="round" stroke-miterlimit="10" x1="339.529" y1="486.284" x2="339.529" y2="473.54"/>
	
		<line fill="none" stroke="#000000" stroke-width="0.085" stroke-linecap="round" stroke-linejoin="round" stroke-miterlimit="10" x1="228.506" y1="420.404" x2="215.762" y2="420.404"/>
	
		<line fill="none" stroke="#000000" stroke-width="0.085" stroke-linecap="round" stroke-linejoin="round" stroke-miterlimit="10" x1="228.506" y1="421.592" x2="215.762" y2="421.592"/>
	
		<line fill="none" stroke="#000000" stroke-width="0.085" stroke-linecap="round" stroke-linejoin="round" stroke-miterlimit="10" x1="254.426" y1="424.833" x2="254.426" y2="486.284"/>
	
		<polyline fill="none" stroke="#000000" stroke-width="0.085" stroke-linecap="round" stroke-linejoin="round" stroke-miterlimit="10" points="
		255.721,424.833 258.961,424.833 258.961,486.284 255.721,486.284 	"/>
	
		<path fill="none" stroke="#000000" stroke-width="0.085" stroke-linecap="round" stroke-linejoin="round" stroke-miterlimit="10" d="
		M258.952,431.302c0.709,1.38,2.401,1.921,3.778,1.21c1.381-0.711,1.922-2.404,1.211-3.781c-0.711-1.379-2.403-1.921-3.78-1.211
		c-0.522,0.268-0.944,0.69-1.209,1.211"/>
	
		<line fill="none" stroke="#000000" stroke-width="0.085" stroke-linecap="round" stroke-linejoin="round" stroke-miterlimit="10" x1="261.445" y1="427.1" x2="261.445" y2="426.453"/>
	
		<path fill="none" stroke="#000000" stroke-width="0.085" stroke-linecap="round" stroke-linejoin="round" stroke-miterlimit="10" d="
		M261.447,433.472c1.906,0,3.455-1.548,3.455-3.456s-1.549-3.455-3.457-3.455l0,0"/>
	
		<line fill="none" stroke="#000000" stroke-width="0.085" stroke-linecap="round" stroke-linejoin="round" stroke-miterlimit="10" x1="261.445" y1="433.472" x2="261.445" y2="432.825"/>
	
		<path fill="none" stroke="#000000" stroke-width="0.085" stroke-linecap="round" stroke-linejoin="round" stroke-miterlimit="10" d="
		M258.952,443.075c0.709,1.379,2.401,1.92,3.778,1.21c1.381-0.711,1.922-2.405,1.211-3.782c-0.711-1.379-2.403-1.921-3.78-1.21
		c-0.522,0.268-0.944,0.69-1.209,1.21"/>
	
		<line fill="none" stroke="#000000" stroke-width="0.085" stroke-linecap="round" stroke-linejoin="round" stroke-miterlimit="10" x1="261.445" y1="438.873" x2="261.445" y2="438.225"/>
	
		<path fill="none" stroke="#000000" stroke-width="0.085" stroke-linecap="round" stroke-linejoin="round" stroke-miterlimit="10" d="
		M261.447,445.245c1.906,0,3.455-1.547,3.455-3.456s-1.549-3.456-3.457-3.456l0,0"/>
	
		<line fill="none" stroke="#000000" stroke-width="0.085" stroke-linecap="round" stroke-linejoin="round" stroke-miterlimit="10" x1="261.445" y1="445.245" x2="261.445" y2="444.704"/>
	
		<path fill="none" stroke="#000000" stroke-width="0.085" stroke-linecap="round" stroke-linejoin="round" stroke-miterlimit="10" d="
		M258.952,470.616c0.709,1.378,2.401,1.919,3.778,1.209c1.381-0.711,1.922-2.404,1.211-3.783c-0.711-1.377-2.403-1.92-3.78-1.209
		c-0.522,0.267-0.944,0.69-1.209,1.209"/>
	
		<line fill="none" stroke="#000000" stroke-width="0.085" stroke-linecap="round" stroke-linejoin="round" stroke-miterlimit="10" x1="261.445" y1="466.413" x2="261.445" y2="465.764"/>
	
		<path fill="none" stroke="#000000" stroke-width="0.085" stroke-linecap="round" stroke-linejoin="round" stroke-miterlimit="10" d="
		M261.447,472.784c1.906,0,3.455-1.547,3.455-3.455c0-1.909-1.549-3.456-3.457-3.456l0,0"/>
	
		<line fill="none" stroke="#000000" stroke-width="0.085" stroke-linecap="round" stroke-linejoin="round" stroke-miterlimit="10" x1="261.445" y1="472.784" x2="261.445" y2="472.136"/>
	
		<line fill="none" stroke="#000000" stroke-width="0.0283" stroke-linecap="round" stroke-linejoin="round" stroke-miterlimit="10" x1="293.738" y1="420.945" x2="258.961" y2="420.945"/>
	
		<line fill="none" stroke="#000000" stroke-width="0.0283" stroke-linecap="round" stroke-linejoin="round" stroke-miterlimit="10" x1="297.625" y1="493.953" x2="297.625" y2="557.24"/>
	
		<line fill="none" stroke="#000000" stroke-width="0.0283" stroke-linecap="round" stroke-linejoin="round" stroke-miterlimit="10" x1="293.738" y1="490.065" x2="258.961" y2="490.065"/>
	
		<polyline fill="none" stroke="#000000" stroke-width="0.085" stroke-linecap="round" stroke-linejoin="round" stroke-miterlimit="10" points="
		317.172,370.077 240.6,370.077 240.6,377.745 317.172,377.745 317.172,370.077 	"/>
	
		<line fill="none" stroke="#000000" stroke-width="0.0283" stroke-linecap="round" stroke-linejoin="round" stroke-miterlimit="10" x1="293.738" y1="351.932" x2="258.961" y2="351.932"/>
	
		<line fill="none" stroke="#000000" stroke-width="0.0283" stroke-linecap="round" stroke-linejoin="round" stroke-miterlimit="10" x1="336.289" y1="351.932" x2="301.404" y2="351.932"/>
	
		<line fill="none" stroke="#000000" stroke-width="0.0283" stroke-linecap="round" stroke-linejoin="round" stroke-miterlimit="10" x1="255.072" y1="417.165" x2="255.072" y2="355.711"/>
	
		<line fill="none" stroke="#000000" stroke-width="0.0283" stroke-linecap="round" stroke-linejoin="round" stroke-miterlimit="10" x1="297.625" y1="355.711" x2="297.625" y2="417.165"/>
	
		<line fill="none" stroke="#000000" stroke-width="0.0283" stroke-linecap="round" stroke-linejoin="round" stroke-miterlimit="10" x1="297.625" y1="348.044" x2="297.625" y2="284.756"/>
	
		<polyline fill="none" stroke="#000000" stroke-width="0.085" stroke-linecap="round" stroke-linejoin="round" stroke-miterlimit="10" points="
		312.529,446 312.529,465.117 325.273,465.117 325.273,446 312.529,446 	"/>
	
		<polyline fill="none" stroke="#000000" stroke-width="0.085" stroke-linecap="round" stroke-linejoin="round" stroke-miterlimit="10" points="
		331.645,457.448 331.645,462.524 326.57,462.524 326.57,457.448 331.645,457.448 	"/>
	
		<line fill="none" stroke="#000000" stroke-width="0.0283" stroke-linecap="round" stroke-linejoin="round" stroke-miterlimit="10" x1="330.998" y1="457.448" x2="330.998" y2="462.524"/>
	
		<polyline fill="none" stroke="#000000" stroke-width="0.085" stroke-linecap="round" stroke-linejoin="round" stroke-miterlimit="10" points="
		331.645,453.668 331.645,448.484 326.57,448.484 326.57,453.668 331.645,453.668 	"/>
	
		<line fill="none" stroke="#000000" stroke-width="0.0283" stroke-linecap="round" stroke-linejoin="round" stroke-miterlimit="10" x1="330.998" y1="453.668" x2="330.998" y2="448.484"/>
	
		<polyline fill="none" stroke="#000000" stroke-width="0.085" stroke-linecap="round" stroke-linejoin="round" stroke-miterlimit="10" points="
		306.156,457.448 306.156,462.524 311.232,462.524 311.232,457.448 306.156,457.448 	"/>
	
		<line fill="none" stroke="#000000" stroke-width="0.0283" stroke-linecap="round" stroke-linejoin="round" stroke-miterlimit="10" x1="306.805" y1="457.448" x2="306.805" y2="462.524"/>
	
		<polyline fill="none" stroke="#000000" stroke-width="0.085" stroke-linecap="round" stroke-linejoin="round" stroke-miterlimit="10" points="
		306.156,453.668 306.156,448.484 311.232,448.484 311.232,453.668 306.156,453.668 	"/>
	
		<line fill="none" stroke="#000000" stroke-width="0.0283" stroke-linecap="round" stroke-linejoin="round" stroke-miterlimit="10" x1="306.805" y1="453.668" x2="306.805" y2="448.484"/>
	
		<line fill="none" stroke="#000000" stroke-width="0.085" stroke-linecap="round" stroke-linejoin="round" stroke-miterlimit="10" x1="284.988" y1="284.756" x2="267.709" y2="284.756"/>
	
		<polyline fill="none" stroke="#000000" stroke-width="0.2551" stroke-linecap="round" stroke-linejoin="round" stroke-miterlimit="10" points="
		285.961,284.756 284.988,284.756 284.988,280.868 285.961,280.868 285.961,284.756 	"/>
	
		<polyline fill="none" stroke="#000000" stroke-width="0.2551" stroke-linecap="round" stroke-linejoin="round" stroke-miterlimit="10" points="
		266.738,284.756 267.709,284.756 267.709,280.868 266.738,280.868 266.738,284.756 	"/>
	
		<polyline fill="none" stroke="#000000" stroke-width="0.1984" stroke-linecap="round" stroke-linejoin="round" stroke-miterlimit="10" points="
		268.355,280.22 268.355,281.193 284.342,281.193 284.342,280.22 268.355,280.22 	"/>
	
		<line fill="none" stroke="#000000" stroke-width="0.1984" stroke-linecap="round" stroke-linejoin="round" stroke-miterlimit="10" x1="267.277" y1="280.22" x2="285.422" y2="280.22"/>
	
		<line fill="none" stroke="#000000" stroke-width="0.1984" stroke-linecap="round" stroke-linejoin="round" stroke-miterlimit="10" x1="276.35" y1="281.193" x2="276.35" y2="280.22"/>
	
		<polyline fill="none" stroke="#000000" stroke-width="0.085" stroke-linecap="round" stroke-linejoin="round" stroke-miterlimit="10" points="
		285.961,269.42 266.738,269.42 266.738,265.64 285.961,265.64 285.961,269.42 	"/>
	
		<polyline fill="none" stroke="#000000" stroke-width="0.085" stroke-linecap="round" stroke-linejoin="round" stroke-miterlimit="10" points="
		285.961,265.64 266.738,265.64 266.738,261.752 285.961,261.752 285.961,265.64 	"/>
	
		<polyline fill="none" stroke="#000000" stroke-width="0.2551" stroke-linecap="round" stroke-linejoin="round" stroke-miterlimit="10" points="
		285.961,280.868 285.961,265.64 399.9,265.64 399.9,288.104 411.35,288.104 411.35,344.696 399.9,344.696 399.9,576.356 
		195.35,576.356 195.35,265.64 266.738,265.64 266.738,280.868 	"/>
	
		<polyline fill="none" stroke="#000000" stroke-width="0.085" stroke-linecap="round" stroke-linejoin="round" stroke-miterlimit="10" points="
		285.961,261.752 266.738,261.752 266.738,257.972 285.961,257.972 285.961,261.752 	"/>
	
		<line fill="none" stroke="#000000" stroke-width="0.085" stroke-linecap="round" stroke-linejoin="round" stroke-miterlimit="10" x1="360.156" y1="539.205" x2="340.717" y2="539.205"/>
	
		<line fill="none" stroke="#000000" stroke-width="0.085" stroke-linecap="round" stroke-linejoin="round" stroke-miterlimit="10" x1="361.344" y1="539.205" x2="380.786" y2="539.205"/>
</g>
</svg>
