<?xml version="1.0" encoding="utf-8"?>
<!-- Generator: Adobe Illustrator 15.0.2, SVG Export Plug-In . SVG Version: 6.00 Build 0)  -->
<!DOCTYPE svg PUBLIC "-//W3C//DTD SVG 1.1//EN" "http://www.w3.org/Graphics/SVG/1.1/DTD/svg11.dtd">
<svg version="1.1" xmlns="http://www.w3.org/2000/svg" xmlns:xlink="http://www.w3.org/1999/xlink" x="0px" y="0px"
	 width="595.28px" height="841.89px" viewBox="0 0 595.28 841.89" enable-background="new 0 0 595.28 841.89" xml:space="preserve">
<g id="MST">
	<g>
		<path d="M84.846,514.131c0-0.104,0.008-0.479,0-1.111c-0.008-0.271-0.04-0.447-0.192-0.447c-0.072,0-0.192,0.023-0.32,0.063
			l-0.56,0.185c-0.032,0.008-0.063,0.008-0.08-0.024l-0.064-0.144c-0.016-0.032-0.008-0.064,0.048-0.097l1.655-0.951
			c0.04-0.024,0.072-0.048,0.112-0.048c0.048,0,0.056,0.048,0.056,0.112c0,0.071-0.024,1.327-0.024,2.358v0.336
			c0,0.096,0.008,1.791,0.008,1.895c0.008,0.416,0.04,0.472,0.56,0.472h0.288c0.056,0,0.08,0.024,0.08,0.064v0.184
			c0,0.048-0.016,0.064-0.072,0.064c-0.072,0-1.16-0.024-1.231-0.024s-1.199,0.024-1.239,0.024s-0.064-0.017-0.064-0.064v-0.2
			c0-0.04,0.048-0.048,0.112-0.048h0.368c0.52,0,0.536-0.023,0.552-0.447c0.008-0.104,0.008-1.72,0.008-1.863V514.131z"/>
	</g>
	<g>
		<path d="M96.567,517.018c-0.136,0-0.28,0.008-0.4,0.016c-0.12,0.009-0.216,0.017-0.248,0.017c-0.04,0-0.064,0-0.088-0.048
			c-0.024-0.057-0.016-0.08,0.024-0.12c0.376-0.352,1.08-0.968,1.719-1.655s1.007-1.304,0.983-1.999
			c-0.024-0.712-0.456-1.136-1.031-1.127c-0.68,0.008-0.936,0.535-1.071,0.775c-0.032,0.056-0.056,0.063-0.096,0.04l-0.112-0.048
			c-0.024-0.017-0.032-0.04,0-0.112c0.128-0.312,0.52-1.199,1.599-1.199c0.671,0,1.399,0.552,1.399,1.455
			c0,0.68-0.271,1.256-0.991,2.062c-0.544,0.624-1.175,1.088-1.527,1.399h1.623c0.544,0,0.752-0.376,0.928-0.671
			c0.04-0.072,0.064-0.08,0.144-0.04c0.064,0.031,0.096,0.063,0.064,0.111l-0.52,1.247c-0.04,0.088,0.024,0.088-0.12,0.088
			c-0.072,0-0.072-0.008-0.104-0.079c-0.048-0.104-0.2-0.112-0.44-0.112H96.567z"/>
	</g>
	<g>
		<path d="M147.999,513.58c0.2-0.016,0.735,0.04,0.912,0.088c0.783,0.208,1.231,0.768,1.231,1.487
			c0.008,1.144-0.927,1.983-2.015,1.983c-0.592,0-1.04-0.216-1.04-0.448c0-0.111,0.072-0.208,0.176-0.208
			c0.144,0,0.28,0.089,0.4,0.16c0.12,0.072,0.392,0.152,0.632,0.152c0.624,0,1.247-0.528,1.247-1.231c0-0.56-0.184-1-0.704-1.224
			c-0.432-0.191-0.832-0.191-1.039-0.176c-0.048,0.008-0.088,0.016-0.144-0.016c-0.04-0.017-0.048-0.04-0.04-0.088l0.288-2.255
			c0.008-0.096,0.024-0.128,0.128-0.128h1.711c0.28,0,0.352-0.136,0.488-0.4c0.024-0.048,0.048-0.056,0.096-0.04
			c0.088,0.04,0.128,0.049,0.112,0.097l-0.288,0.799c-0.056,0.128-0.096,0.16-0.344,0.16h-1.663L147.999,513.58z"/>
	</g>
	<polyline fill="none" stroke="#010101" stroke-width="0.1" stroke-linecap="square" stroke-miterlimit="10" points="85.039,526.39 
		85.039,520.018 97.783,520.018 97.783,526.39 148.867,526.39 148.867,520.018 	"/>
</g>
<g id="HAUS_OHNE_EIGENSCHAFTEN">
	<g>
		<path d="M29.536,31.537c0-0.62-0.02-1.969-0.02-2.109c0-0.509-0.07-0.649-0.34-0.649h-0.41c-0.11,0-0.12-0.04-0.12-0.1v-0.19
			c0-0.06,0.01-0.12,0.11-0.12c0.17,0,0.49,0.03,1.489,0.03c0.979,0,1.339-0.03,1.509-0.03c0.11,0,0.12,0.03,0.12,0.11v0.21
			c0,0.06-0.01,0.09-0.12,0.09h-0.24c-0.36,0-0.41,0.17-0.44,0.55c-0.01,0.14-0.06,1.459-0.06,2.019v0.15
			c0,0.05,0.03,0.08,0.16,0.08h2.988c0.15,0,0.2-0.02,0.2-0.13v-0.1c0-0.569-0.07-1.958-0.07-2.059c-0.01-0.32-0.05-0.51-0.23-0.51
			h-0.41c-0.09,0-0.1-0.03-0.1-0.1v-0.22c0-0.06,0.01-0.09,0.09-0.09c0.18,0,0.61,0.03,1.459,0.03c0.83,0,1.249-0.03,1.379-0.03
			c0.12,0,0.13,0.03,0.13,0.11v0.19c0,0.07-0.01,0.11-0.13,0.11h-0.3c-0.29,0-0.32,0.17-0.32,0.51c0,0.14-0.02,1.829-0.02,2.199
			v0.34c0,0.32,0.02,2.219,0.03,2.769c0,0.36,0.1,0.5,0.4,0.5h0.34c0.08,0,0.09,0.03,0.09,0.09v0.22c0,0.05-0.01,0.1-0.11,0.1
			c-0.16,0-0.5-0.03-1.399-0.03c-1.02,0-1.339,0.03-1.569,0.03c-0.11,0-0.13-0.05-0.13-0.1v-0.22c0-0.06,0.01-0.09,0.11-0.09h0.439
			c0.24,0,0.27-0.19,0.28-0.439c0.02-0.47,0.04-2.079,0.04-2.399v-0.12c0-0.11-0.1-0.12-0.22-0.12h-2.988
			c-0.11,0-0.14,0.03-0.14,0.12v0.15c0,0.25,0.04,1.789,0.07,2.469c0.01,0.24,0.11,0.34,0.33,0.34h0.28c0.08,0,0.09,0.02,0.09,0.08
			v0.24c0,0.06-0.01,0.09-0.09,0.09c-0.18,0-0.53-0.03-1.369-0.03c-1.06,0-1.359,0.03-1.559,0.03c-0.09,0-0.1-0.03-0.1-0.11v-0.21
			c0-0.07,0.01-0.09,0.1-0.09h0.459c0.25,0,0.28-0.24,0.28-0.459c0.01-0.47,0.03-2.409,0.03-2.669V31.537z"/>
		<path d="M39.575,32.286c0-0.2-0.02-0.43-0.15-0.549c-0.1-0.09-0.26-0.12-0.42-0.12c-0.18,0-0.35,0.04-0.53,0.16
			c-0.15,0.1-0.03,0.27-0.03,0.589c0,0.34-0.25,0.57-0.649,0.57c-0.23,0-0.43-0.14-0.43-0.36s0.07-0.52,0.28-0.7
			c0.419-0.38,1.109-0.739,1.919-0.739c0.64,0,0.81,0.1,1.019,0.29c0.22,0.2,0.28,0.49,0.28,0.85l0.02,1.989
			c0.01,0.52,0.04,0.68,0.23,0.68c0.14,0,0.25-0.11,0.29-0.18c0.04-0.06,0.07-0.07,0.1-0.05l0.14,0.08
			c0.04,0.02,0.07,0.05,0.03,0.14c-0.09,0.21-0.39,0.68-1.009,0.68c-0.39,0-0.759-0.14-0.949-0.61h-0.05
			c-0.25,0.23-0.459,0.37-0.859,0.52c-0.2,0.07-0.43,0.09-0.72,0.09c-0.35,0-0.66-0.38-0.66-0.92c0-0.439,0.21-0.899,0.86-1.219
			c0.779-0.37,1.029-0.479,1.289-0.66V32.286z M39.585,33.216c-0.49,0.28-0.9,0.43-0.9,1.12c0,0.459,0.21,0.649,0.43,0.659
			c0.27-0.02,0.47-0.27,0.47-0.359V33.216z"/>
		<path d="M45.524,35.575c-0.06,0.02-0.13,0.04-0.22,0.04c-0.1,0-0.16-0.05-0.17-0.12l-0.06-0.54h-0.06
			c-0.2,0.35-0.779,0.66-1.319,0.66c-0.399,0-0.699,0-1.049-0.46c-0.419-0.56-0.38-0.879-0.38-1.739l0.01-0.439
			c0-0.38,0-0.78-0.01-1c-0.01-0.24-0.22-0.33-0.34-0.35c-0.169-0.03-0.22-0.02-0.22-0.07v-0.2c0-0.06,0.02-0.08,0.11-0.08h1.459
			c0.06,0,0.1-0.01,0.14-0.02c0.04,0,0.08-0.01,0.11-0.01c0.07,0,0.12,0.05,0.11,0.12c-0.01,0.09-0.04,0.56-0.04,1.35v0.54
			c0,0.4-0.06,1.149,0.19,1.539c0.15,0.23,0.31,0.21,0.49,0.21c0.17,0,0.39-0.13,0.54-0.32c0.09-0.1,0.16-0.26,0.16-0.36
			l-0.01-2.349c0-0.25-0.18-0.33-0.43-0.35c-0.12-0.01-0.17-0.02-0.17-0.07v-0.19c0-0.08,0.02-0.09,0.12-0.09h1.489
			c0.07,0,0.12-0.01,0.17-0.02c0.05,0,0.09-0.01,0.12-0.01c0.06,0,0.1,0.05,0.09,0.1c-0.01,0.09-0.06,0.35-0.06,1.359v0.74
			c0,0.479,0,0.969,0.02,1.149c0.03,0.31,0.14,0.35,0.18,0.35c0.06,0,0.21,0,0.33-0.03c0.08-0.02,0.11,0,0.12,0.04l0.03,0.19
			c0.01,0.05-0.01,0.07-0.05,0.08L45.524,35.575z"/>
		<path d="M50.484,32.276c0.01,0.05,0,0.07-0.04,0.09l-0.18,0.08c-0.03,0.02-0.06,0.01-0.1-0.03l-0.56-0.6
			c-0.13-0.13-0.32-0.29-0.62-0.29s-0.59,0.2-0.59,0.54c0.02,0.35,0.14,0.45,0.88,0.65c0.49,0.13,0.729,0.2,1.029,0.52
			c0.26,0.26,0.32,0.5,0.32,0.85c0,0.89-0.7,1.529-1.789,1.529c-0.56,0-1.049-0.2-1.169-0.29c-0.04-0.03-0.05-0.07-0.06-0.13
			l-0.13-0.959c0-0.05,0.03-0.07,0.07-0.08l0.18-0.05c0.03-0.01,0.05,0,0.07,0.04l0.4,0.589c0.18,0.26,0.41,0.51,0.87,0.51
			c0.37,0,0.589-0.26,0.589-0.609c0-0.4-0.29-0.53-0.939-0.73c-0.709-0.209-1.219-0.549-1.219-1.269c0-0.47,0.14-0.859,0.52-1.14
			c0.399-0.29,0.679-0.359,1.099-0.359c0.54,0,0.87,0.12,1.049,0.209c0.15,0.07,0.17,0.12,0.18,0.19L50.484,32.276z"/>
		<path d="M53.776,34.885c-0.38-0.419-0.53-0.949-0.53-1.579c0-0.45,0.25-1.189,0.859-1.659c0.51-0.399,1.02-0.509,1.489-0.509
			c0.69,0,1.16,0.209,1.609,0.629c0.49,0.44,0.689,0.979,0.689,1.589c0,0.58-0.25,1.139-0.64,1.559c-0.479,0.5-1.06,0.7-1.739,0.7
			C54.785,35.615,54.286,35.465,53.776,34.885z M56.375,33.286c0-1.159-0.4-1.729-0.84-1.729c-0.25,0-0.41,0.07-0.54,0.27
			c-0.2,0.31-0.33,0.74-0.33,1.549c0,0.58,0.05,0.959,0.25,1.389c0.13,0.27,0.29,0.43,0.66,0.43
			C56.125,35.195,56.375,34.385,56.375,33.286z"/>
		<path d="M60.215,34.715c0,0.3,0.06,0.41,0.15,0.41h0.2c0.05,0,0.08,0.02,0.08,0.08v0.19c0,0.07-0.01,0.11-0.07,0.11
			c-0.08,0-0.54-0.03-1.129-0.03c-0.7,0-1.08,0.03-1.169,0.03c-0.04,0-0.07-0.03-0.07-0.1v-0.2c0-0.07,0.04-0.08,0.15-0.08h0.16
			c0.16,0,0.31-0.04,0.34-0.17c0.05-0.18,0.05-0.36,0.05-0.66l-0.02-4.158c0-0.5-0.13-0.79-0.47-0.919l-0.18-0.06
			c-0.06-0.03-0.08-0.06-0.08-0.09v-0.13c0-0.04,0.03-0.08,0.17-0.12c0.55-0.16,0.91-0.32,1.509-0.61c0.13-0.06,0.21-0.1,0.31-0.1
			c0.09,0,0.11,0.08,0.09,0.25s-0.03,2.199-0.03,2.789v0.6h0.07c0.24-0.38,0.729-0.609,1.279-0.609c0.45,0,0.709,0.13,1.02,0.39
			c0.47,0.39,0.43,0.89,0.43,1.529v0.62c0,0.5-0.02,1.109-0.02,1.299c0,0.14,0.2,0.15,0.32,0.15h0.19c0.08,0,0.11,0.02,0.11,0.07
			v0.21c0,0.06-0.02,0.1-0.08,0.1c-0.07,0-0.39-0.03-1.089-0.03c-0.689,0-1.049,0.03-1.139,0.03c-0.07,0-0.09-0.03-0.09-0.11v-0.19
			c0-0.05,0.01-0.08,0.07-0.08h0.13c0.09,0,0.22-0.05,0.24-0.19c0.01-0.14,0.03-0.67,0.03-0.97v-0.609
			c0-0.49,0.03-1.189-0.229-1.449c-0.14-0.14-0.26-0.19-0.47-0.19c-0.22,0-0.44,0.18-0.59,0.35c-0.08,0.1-0.17,0.23-0.17,0.49
			V34.715z"/>
		<path d="M65.845,31.687h0.08c0.11-0.13,0.29-0.26,0.48-0.36c0.22-0.12,0.439-0.189,0.77-0.189c0.39,0,0.77,0.04,1.029,0.28
			c0.42,0.39,0.45,0.64,0.45,1.139v1.06c0,0.34-0.02,0.81-0.04,1.159c-0.01,0.3,0.15,0.35,0.24,0.35h0.27
			c0.09,0,0.11,0.03,0.11,0.09v0.18c0,0.07-0.02,0.11-0.08,0.11c-0.07,0-0.38-0.03-1.18-0.03c-0.66,0-0.979,0.03-1.049,0.03
			c-0.06,0-0.08-0.03-0.08-0.11v-0.18c0-0.07,0.03-0.09,0.13-0.09h0.11c0.07,0,0.16-0.05,0.18-0.23c0.04-0.26,0.06-0.58,0.06-1.04
			v-1.069c0-0.38-0.03-0.64-0.24-0.83c-0.18-0.16-0.32-0.18-0.49-0.18c-0.18,0-0.31,0.05-0.51,0.2c-0.12,0.09-0.2,0.36-0.2,0.77
			l-0.02,2.049c0,0.18,0.07,0.33,0.16,0.33h0.13c0.08,0,0.1,0.03,0.1,0.1v0.19c0,0.06-0.02,0.09-0.07,0.09c-0.07,0-0.34-0.03-1-0.03
			c-0.709,0-1.029,0.03-1.089,0.03c-0.05,0-0.07-0.03-0.07-0.09v-0.2c0-0.06,0.02-0.09,0.1-0.09h0.15c0.11,0,0.28-0.03,0.28-0.2
			v-2.219c0-0.3-0.17-0.47-0.4-0.58l-0.09-0.04c-0.06-0.03-0.07-0.07-0.07-0.11v-0.09c0-0.05,0.04-0.08,0.09-0.1l1.279-0.58
			c0.08-0.03,0.15-0.07,0.23-0.07c0.06,0,0.12,0.05,0.14,0.12L65.845,31.687z"/>
		<path d="M70.996,32.986v0.27c0,1.04,0.59,1.549,1.319,1.549c0.49,0,0.89-0.23,1.089-0.55c0.02-0.05,0.06-0.06,0.1-0.03l0.17,0.09
			c0.04,0.02,0.07,0.07-0.02,0.24c-0.18,0.37-0.83,1.06-1.769,1.06c-0.64,0-1.169-0.11-1.5-0.47c-0.51-0.55-0.679-0.94-0.689-1.719
			c0-0.28,0-0.81,0.45-1.469c0.36-0.53,0.97-0.819,1.739-0.819c1.619,0,1.709,1.549,1.709,1.709c0,0.13-0.09,0.14-0.31,0.14H70.996z
			 M71.965,32.606c0.22,0,0.32-0.05,0.32-0.2c0-0.44-0.18-0.87-0.49-0.87c-0.47,0-0.719,0.37-0.79,1.069H71.965z"/>
		<path d="M78.645,31.646c0.46,0,0.9-0.03,1.02-0.06c0.17-0.04,0.31-0.13,0.46-0.31c0.11-0.15,0.23-0.43,0.23-0.62
			c0-0.07,0.03-0.09,0.08-0.09l0.27,0.03c0.05,0.01,0.09,0.02,0.08,0.08c-0.03,0.17-0.03,0.689-0.03,1.04
			c0,0.45,0.04,0.929,0.06,1.139c0.01,0.06-0.03,0.07-0.08,0.08l-0.24,0.05c-0.04,0.01-0.06-0.01-0.08-0.08
			c-0.04-0.16-0.14-0.39-0.2-0.51c-0.11-0.19-0.35-0.32-0.55-0.35c-0.27-0.04-0.58-0.06-1.02-0.06v0.6c0,0.54,0.05,1.509,0.05,1.689
			c0,0.52,0.11,0.7,0.24,0.759c0.15,0.06,0.34,0.09,0.839,0.09c0.17,0,0.59-0.01,0.8-0.03c0.2-0.02,0.5-0.12,0.76-0.33
			c0.26-0.21,0.819-0.83,1.019-1.069c0.04-0.04,0.07-0.05,0.1-0.03l0.17,0.1c0.04,0.02,0.05,0.05,0.04,0.08l-0.45,1.509
			c-0.03,0.09-0.1,0.15-0.22,0.15c-0.05,0-0.27-0.01-0.909-0.02c-0.65,0-1.709-0.01-3.438-0.01c-0.37,0-0.65,0.01-0.85,0.01
			c-0.21,0.01-0.34,0.02-0.43,0.02c-0.07,0-0.09-0.03-0.09-0.11v-0.21c0-0.06,0.03-0.09,0.1-0.09h0.3c0.46,0,0.5-0.07,0.5-0.419
			v-3.349c0-0.829-0.02-2.059-0.03-2.159c-0.04-0.32-0.14-0.39-0.41-0.39h-0.39c-0.04,0-0.05-0.03-0.05-0.1v-0.24
			c0-0.03,0.01-0.07,0.07-0.07c0.22,0,0.569,0.03,1.479,0.03l3.508-0.01c0.16,0,0.35-0.02,0.4-0.02c0.05,0,0.07,0.02,0.08,0.05
			c0.04,0.14,0.37,1.509,0.41,1.609c0.02,0.05,0.02,0.07-0.03,0.1l-0.16,0.08c-0.04,0.02-0.09,0.01-0.12-0.04
			c-0.05-0.08-0.95-0.979-1.18-1.119c-0.209-0.13-0.49-0.26-0.759-0.27l-1.319-0.04L78.645,31.646z"/>
		<path d="M85.555,35.504c-0.08,0-0.54-0.03-1.41-0.03c-0.58,0-0.969,0.03-1.079,0.03c-0.05,0-0.08-0.02-0.08-0.1v-0.2
			c0-0.06,0.03-0.08,0.1-0.08h0.37c0.11,0,0.18-0.04,0.19-0.2c0.02-0.3,0.02-0.609,0.02-0.889l-0.02-1.399
			c0-0.28-0.06-0.48-0.479-0.63c-0.11-0.04-0.12-0.08-0.12-0.14v-0.11c0-0.03,0.02-0.05,0.11-0.08l1.489-0.48
			c0.11-0.04,0.2-0.06,0.27-0.06c0.08,0,0.11,0.05,0.1,0.12c-0.02,0.17-0.02,0.8-0.02,1.679v1.069c0,0.39,0,0.75,0.01,0.859
			c0.02,0.19,0.07,0.26,0.18,0.26h0.36c0.08,0,0.1,0.03,0.1,0.09v0.19C85.645,35.475,85.625,35.504,85.555,35.504z M84.185,30.348
			c-0.399,0.01-0.699-0.26-0.699-0.65c0-0.32,0.33-0.61,0.75-0.61c0.47,0,0.709,0.3,0.709,0.58
			C84.945,29.988,84.725,30.337,84.185,30.348z"/>
		<path d="M86.315,37.883c-0.37-0.21-0.49-0.47-0.49-0.78c0-0.5,0.56-0.859,1.03-1.049v-0.05c-0.46-0.14-0.69-0.45-0.69-0.8
			c0-0.58,0.56-0.899,0.89-1.059v-0.03c-0.43-0.25-0.879-0.669-0.879-1.519c0-0.649,0.52-1.459,1.939-1.459
			c0.879,0,1.319,0.459,1.409,0.56c0.23-0.19,0.6-0.35,0.879-0.35c0.36,0,0.55,0.2,0.55,0.52c0,0.23-0.21,0.43-0.44,0.43
			c-0.17,0-0.25-0.07-0.31-0.17c-0.05-0.08-0.17-0.15-0.28-0.15c-0.05,0-0.14,0.04-0.189,0.09c0.04,0.07,0.12,0.29,0.12,0.65
			c0,0.379-0.11,0.75-0.45,1.079c-0.38,0.36-0.949,0.48-1.349,0.48c-0.2,0-0.34,0-0.59-0.03c-0.13,0.08-0.37,0.26-0.37,0.46
			c0,0.35,0.29,0.38,1.369,0.35c0.68-0.02,1.189,0.02,1.679,0.4c0.36,0.29,0.49,0.64,0.49,1.009c0,0.42-0.19,0.78-0.58,1.109
			c-0.37,0.3-1.129,0.62-2.139,0.62C87.435,38.193,86.706,38.113,86.315,37.883z M89.564,36.954c0-0.549-0.39-0.849-1.299-0.81
			l-0.87,0.04c-0.29,0.07-0.5,0.38-0.5,0.68c0,0.29,0.16,0.54,0.35,0.68c0.28,0.2,0.56,0.26,1.009,0.26
			C88.914,37.803,89.564,37.454,89.564,36.954z M87.575,31.836c-0.14,0.2-0.2,0.66-0.2,1.109c0,0.29,0.09,0.61,0.22,0.76
			c0.11,0.14,0.26,0.2,0.46,0.2c0.439,0,0.589-0.669,0.589-1.439c0-0.37-0.04-0.58-0.09-0.67c-0.09-0.169-0.21-0.28-0.49-0.28
			C87.845,31.517,87.715,31.637,87.575,31.836z"/>
		<path d="M92.325,32.986v0.27c0,1.04,0.59,1.549,1.319,1.549c0.49,0,0.89-0.23,1.089-0.55c0.02-0.05,0.06-0.06,0.1-0.03l0.17,0.09
			c0.04,0.02,0.07,0.07-0.02,0.24c-0.18,0.37-0.83,1.06-1.769,1.06c-0.64,0-1.169-0.11-1.5-0.47c-0.51-0.55-0.679-0.94-0.689-1.719
			c0-0.28,0-0.81,0.45-1.469c0.36-0.53,0.97-0.819,1.739-0.819c1.619,0,1.709,1.549,1.709,1.709c0,0.13-0.09,0.14-0.31,0.14H92.325z
			 M93.294,32.606c0.22,0,0.32-0.05,0.32-0.2c0-0.44-0.18-0.87-0.49-0.87c-0.47,0-0.719,0.37-0.79,1.069H93.294z"/>
		<path d="M97.334,31.687h0.08c0.11-0.13,0.29-0.26,0.48-0.36c0.22-0.12,0.439-0.189,0.77-0.189c0.39,0,0.77,0.04,1.029,0.28
			c0.42,0.39,0.45,0.64,0.45,1.139v1.06c0,0.34-0.02,0.81-0.04,1.159c-0.01,0.3,0.15,0.35,0.24,0.35h0.27
			c0.09,0,0.11,0.03,0.11,0.09v0.18c0,0.07-0.02,0.11-0.08,0.11c-0.07,0-0.38-0.03-1.18-0.03c-0.66,0-0.979,0.03-1.049,0.03
			c-0.06,0-0.08-0.03-0.08-0.11v-0.18c0-0.07,0.03-0.09,0.13-0.09h0.11c0.07,0,0.16-0.05,0.18-0.23c0.04-0.26,0.06-0.58,0.06-1.04
			v-1.069c0-0.38-0.03-0.64-0.24-0.83c-0.18-0.16-0.32-0.18-0.49-0.18c-0.18,0-0.31,0.05-0.51,0.2c-0.12,0.09-0.2,0.36-0.2,0.77
			l-0.02,2.049c0,0.18,0.07,0.33,0.16,0.33h0.13c0.08,0,0.1,0.03,0.1,0.1v0.19c0,0.06-0.02,0.09-0.07,0.09
			c-0.07,0-0.34-0.03-0.999-0.03c-0.71,0-1.03,0.03-1.09,0.03c-0.05,0-0.07-0.03-0.07-0.09v-0.2c0-0.06,0.02-0.09,0.1-0.09h0.15
			c0.11,0,0.28-0.03,0.28-0.2v-2.219c0-0.3-0.17-0.47-0.4-0.58l-0.09-0.04c-0.06-0.03-0.07-0.07-0.07-0.11v-0.09
			c0-0.05,0.04-0.08,0.09-0.1l1.279-0.58c0.08-0.03,0.15-0.07,0.23-0.07c0.06,0,0.12,0.05,0.14,0.12L97.334,31.687z"/>
		<path d="M104.303,32.276c0.01,0.05,0,0.07-0.04,0.09l-0.18,0.08c-0.03,0.02-0.06,0.01-0.1-0.03l-0.56-0.6
			c-0.13-0.13-0.32-0.29-0.62-0.29s-0.59,0.2-0.59,0.54c0.02,0.35,0.14,0.45,0.88,0.65c0.49,0.13,0.729,0.2,1.029,0.52
			c0.26,0.26,0.32,0.5,0.32,0.85c0,0.89-0.7,1.529-1.789,1.529c-0.56,0-1.049-0.2-1.169-0.29c-0.04-0.03-0.05-0.07-0.06-0.13
			l-0.13-0.959c0-0.05,0.03-0.07,0.07-0.08l0.18-0.05c0.03-0.01,0.05,0,0.07,0.04l0.4,0.589c0.18,0.26,0.41,0.51,0.87,0.51
			c0.37,0,0.589-0.26,0.589-0.609c0-0.4-0.29-0.53-0.939-0.73c-0.709-0.209-1.219-0.549-1.219-1.269c0-0.47,0.14-0.859,0.52-1.14
			c0.399-0.29,0.679-0.359,1.099-0.359c0.54,0,0.87,0.12,1.049,0.209c0.15,0.07,0.17,0.12,0.18,0.19L104.303,32.276z"/>
		<path d="M108.893,32.106c0,0.28-0.2,0.47-0.52,0.47c-0.419,0-0.64-0.28-0.72-0.53c-0.12-0.36-0.31-0.479-0.589-0.479
			c-0.27,0-0.66,0.39-0.66,1.02c0,0.629-0.02,1.079,0.32,1.699c0.25,0.45,0.62,0.58,1.069,0.58c0.46,0,0.68-0.09,1-0.32
			c0.05-0.03,0.08-0.05,0.11-0.01l0.14,0.14c0.03,0.04,0.02,0.08-0.01,0.13c-0.19,0.33-0.969,0.81-1.889,0.81
			c-0.75,0-1.25-0.21-1.569-0.61c-0.39-0.48-0.51-0.87-0.51-1.379c0-0.68,0.22-1.409,0.75-1.899c0.45-0.41,0.939-0.589,1.479-0.589
			C108.603,31.137,108.893,31.796,108.893,32.106z"/>
		<path d="M111.244,34.715c0,0.3,0.06,0.41,0.15,0.41h0.2c0.05,0,0.08,0.02,0.08,0.08v0.19c0,0.07-0.01,0.11-0.07,0.11
			c-0.08,0-0.54-0.03-1.129-0.03c-0.7,0-1.08,0.03-1.169,0.03c-0.04,0-0.07-0.03-0.07-0.1v-0.2c0-0.07,0.04-0.08,0.15-0.08h0.16
			c0.16,0,0.31-0.04,0.34-0.17c0.05-0.18,0.05-0.36,0.05-0.66l-0.02-4.158c0-0.5-0.13-0.79-0.47-0.919l-0.18-0.06
			c-0.06-0.03-0.08-0.06-0.08-0.09v-0.13c0-0.04,0.03-0.08,0.17-0.12c0.55-0.16,0.91-0.32,1.509-0.61c0.13-0.06,0.21-0.1,0.31-0.1
			c0.09,0,0.11,0.08,0.09,0.25s-0.03,2.199-0.03,2.789v0.6h0.07c0.24-0.38,0.729-0.609,1.279-0.609c0.45,0,0.709,0.13,1.02,0.39
			c0.47,0.39,0.43,0.89,0.43,1.529v0.62c0,0.5-0.02,1.109-0.02,1.299c0,0.14,0.2,0.15,0.32,0.15h0.19c0.08,0,0.11,0.02,0.11,0.07
			v0.21c0,0.06-0.02,0.1-0.08,0.1c-0.07,0-0.39-0.03-1.089-0.03c-0.689,0-1.049,0.03-1.139,0.03c-0.07,0-0.09-0.03-0.09-0.11v-0.19
			c0-0.05,0.01-0.08,0.07-0.08h0.13c0.09,0,0.22-0.05,0.24-0.19c0.01-0.14,0.03-0.67,0.03-0.97v-0.609
			c0-0.49,0.03-1.189-0.229-1.449c-0.14-0.14-0.26-0.19-0.47-0.19c-0.22,0-0.44,0.18-0.59,0.35c-0.08,0.1-0.17,0.23-0.17,0.49
			V34.715z"/>
		<path d="M117.314,32.286c0-0.2-0.02-0.43-0.15-0.549c-0.1-0.09-0.26-0.12-0.42-0.12c-0.18,0-0.35,0.04-0.529,0.16
			c-0.15,0.1-0.03,0.27-0.03,0.589c0,0.34-0.25,0.57-0.649,0.57c-0.23,0-0.43-0.14-0.43-0.36s0.07-0.52,0.28-0.7
			c0.419-0.38,1.109-0.739,1.919-0.739c0.64,0,0.81,0.1,1.019,0.29c0.22,0.2,0.28,0.49,0.28,0.85l0.02,1.989
			c0.01,0.52,0.04,0.68,0.23,0.68c0.14,0,0.25-0.11,0.29-0.18c0.04-0.06,0.07-0.07,0.1-0.05l0.14,0.08
			c0.04,0.02,0.07,0.05,0.03,0.14c-0.09,0.21-0.39,0.68-1.01,0.68c-0.39,0-0.759-0.14-0.949-0.61h-0.05
			c-0.25,0.23-0.459,0.37-0.859,0.52c-0.2,0.07-0.43,0.09-0.72,0.09c-0.35,0-0.66-0.38-0.66-0.92c0-0.439,0.21-0.899,0.86-1.219
			c0.779-0.37,1.029-0.479,1.289-0.66V32.286z M117.324,33.216c-0.49,0.28-0.9,0.43-0.9,1.12c0,0.459,0.21,0.649,0.43,0.659
			c0.27-0.02,0.47-0.27,0.47-0.359V33.216z"/>
		<path d="M121.544,31.807v0.87c0,0.479-0.03,1.749-0.01,2.139c0.01,0.22,0.13,0.31,0.29,0.31h0.36c0.09,0,0.11,0.02,0.11,0.08v0.2
			c0,0.06-0.02,0.1-0.07,0.1c-0.06,0-0.43-0.03-1.399-0.03c-0.65,0-1.16,0.03-1.239,0.03c-0.06,0-0.08-0.02-0.08-0.09v-0.22
			c0-0.05,0.02-0.07,0.1-0.07h0.33c0.19,0,0.27-0.12,0.27-0.33l-0.03-2.988h-0.64c-0.05,0-0.07-0.02-0.06-0.11l0.05-0.35
			c0.01-0.06,0.04-0.07,0.12-0.07h0.529v-0.3c0-1.049,0.33-1.699,0.84-2.179c0.54-0.5,1.069-0.689,1.689-0.689
			c0.59,0,1.029,0.24,1.029,0.699c0,0.31-0.32,0.5-0.55,0.5c-0.32,0-0.52-0.12-0.669-0.38c-0.12-0.2-0.26-0.3-0.36-0.3
			c-0.2,0-0.34,0.06-0.5,0.32c-0.18,0.28-0.11,0.989-0.11,1.909v0.42h1.159c0.07,0,0.08,0.06,0.07,0.1l-0.05,0.38
			c-0.01,0.04-0.05,0.05-0.13,0.05H121.544z"/>
		<path d="M124.884,34.016c0,0.819,0.31,0.999,0.55,0.999c0.21,0,0.36-0.03,0.52-0.12c0.03-0.02,0.06-0.02,0.09,0.04l0.07,0.15
			c0.03,0.05,0,0.1-0.04,0.13c-0.17,0.12-0.62,0.4-1.399,0.4c-0.68,0-1.109-0.47-1.109-0.93c0-0.35,0.02-1.109,0.02-1.489
			l0.01-1.319h-0.55c-0.09,0-0.16-0.04-0.16-0.14c0-0.1,0.06-0.17,0.22-0.25c0.33-0.15,1.169-0.899,1.539-1.319
			c0.07-0.08,0.14-0.1,0.19-0.1c0.09,0,0.13,0.07,0.13,0.15l-0.04,1.06h1.269c0.06,0,0.09,0.05,0.07,0.09l-0.1,0.43
			c-0.01,0.04-0.03,0.08-0.09,0.08h-1.169c-0.02,0.41-0.02,0.89-0.02,1.35V34.016z"/>
		<path d="M127.804,32.986v0.27c0,1.04,0.59,1.549,1.319,1.549c0.49,0,0.89-0.23,1.089-0.55c0.02-0.05,0.06-0.06,0.1-0.03l0.17,0.09
			c0.04,0.02,0.07,0.07-0.02,0.24c-0.18,0.37-0.83,1.06-1.769,1.06c-0.64,0-1.169-0.11-1.5-0.47c-0.509-0.55-0.679-0.94-0.689-1.719
			c0-0.28,0-0.81,0.45-1.469c0.36-0.53,0.97-0.819,1.739-0.819c1.619,0,1.709,1.549,1.709,1.709c0,0.13-0.09,0.14-0.31,0.14H127.804
			z M128.773,32.606c0.22,0,0.32-0.05,0.32-0.2c0-0.44-0.18-0.87-0.489-0.87c-0.47,0-0.72,0.37-0.79,1.069H128.773z"/>
		<path d="M132.813,31.687h0.08c0.11-0.13,0.29-0.26,0.48-0.36c0.22-0.12,0.439-0.189,0.77-0.189c0.39,0,0.77,0.04,1.029,0.28
			c0.42,0.39,0.45,0.64,0.45,1.139v1.06c0,0.34-0.02,0.81-0.04,1.159c-0.01,0.3,0.15,0.35,0.24,0.35h0.27
			c0.09,0,0.11,0.03,0.11,0.09v0.18c0,0.07-0.02,0.11-0.08,0.11c-0.07,0-0.38-0.03-1.18-0.03c-0.66,0-0.979,0.03-1.049,0.03
			c-0.06,0-0.08-0.03-0.08-0.11v-0.18c0-0.07,0.03-0.09,0.13-0.09h0.11c0.07,0,0.16-0.05,0.18-0.23c0.04-0.26,0.06-0.58,0.06-1.04
			v-1.069c0-0.38-0.03-0.64-0.24-0.83c-0.18-0.16-0.32-0.18-0.49-0.18c-0.18,0-0.31,0.05-0.51,0.2c-0.12,0.09-0.2,0.36-0.2,0.77
			l-0.02,2.049c0,0.18,0.07,0.33,0.16,0.33h0.13c0.08,0,0.1,0.03,0.1,0.1v0.19c0,0.06-0.02,0.09-0.07,0.09c-0.07,0-0.34-0.03-1-0.03
			c-0.709,0-1.029,0.03-1.089,0.03c-0.05,0-0.07-0.03-0.07-0.09v-0.2c0-0.06,0.02-0.09,0.1-0.09h0.15c0.11,0,0.28-0.03,0.28-0.2
			v-2.219c0-0.3-0.17-0.47-0.4-0.58l-0.09-0.04c-0.06-0.03-0.07-0.07-0.07-0.11v-0.09c0-0.05,0.04-0.08,0.09-0.1l1.279-0.58
			c0.08-0.03,0.15-0.07,0.23-0.07c0.06,0,0.12,0.05,0.14,0.12L132.813,31.687z"/>
	</g>
</g>
<g id="Layer_4">
	
		<line fill="none" stroke="#030303" stroke-width="0.085" stroke-linecap="round" stroke-linejoin="round" stroke-miterlimit="10" x1="280.142" y1="435.021" x2="296.343" y2="435.021"/>
	
		<line fill="none" stroke="#030303" stroke-width="0.085" stroke-linecap="round" stroke-linejoin="round" stroke-miterlimit="10" x1="298.933" y1="435.021" x2="315.026" y2="435.021"/>
	
		<line fill="none" stroke="#030303" stroke-width="0.085" stroke-linecap="round" stroke-linejoin="round" stroke-miterlimit="10" x1="280.142" y1="431.89" x2="296.343" y2="431.89"/>
	
		<line fill="none" stroke="#030303" stroke-width="0.085" stroke-linecap="round" stroke-linejoin="round" stroke-miterlimit="10" x1="298.933" y1="431.89" x2="315.026" y2="431.89"/>
	
		<line fill="none" stroke="#030303" stroke-width="0.085" stroke-linecap="round" stroke-linejoin="round" stroke-miterlimit="10" x1="280.142" y1="428.865" x2="296.343" y2="428.865"/>
	
		<line fill="none" stroke="#030303" stroke-width="0.085" stroke-linecap="round" stroke-linejoin="round" stroke-miterlimit="10" x1="298.933" y1="428.865" x2="315.026" y2="428.865"/>
	
		<line fill="none" stroke="#030303" stroke-width="0.085" stroke-linecap="round" stroke-linejoin="round" stroke-miterlimit="10" x1="280.142" y1="425.734" x2="296.343" y2="425.734"/>
	
		<line fill="none" stroke="#030303" stroke-width="0.085" stroke-linecap="round" stroke-linejoin="round" stroke-miterlimit="10" x1="298.933" y1="425.734" x2="315.026" y2="425.734"/>
	
		<line fill="none" stroke="#030303" stroke-width="0.085" stroke-linecap="round" stroke-linejoin="round" stroke-miterlimit="10" x1="297.638" y1="421.414" x2="297.638" y2="408.562"/>
	
		<line fill="none" stroke="#030303" stroke-width="0.085" stroke-linecap="round" stroke-linejoin="round" stroke-miterlimit="10" x1="298.933" y1="421.414" x2="311.354" y2="408.562"/>
	
		<line fill="none" stroke="#030303" stroke-width="0.085" stroke-linecap="round" stroke-linejoin="round" stroke-miterlimit="10" x1="296.343" y1="421.414" x2="283.814" y2="408.562"/>
	
		<line fill="none" stroke="#030303" stroke-width="0.085" stroke-linecap="round" stroke-linejoin="round" stroke-miterlimit="10" x1="315.026" y1="415.365" x2="298.933" y2="422.169"/>
	
		<line fill="none" stroke="#030303" stroke-width="0.085" stroke-linecap="round" stroke-linejoin="round" stroke-miterlimit="10" x1="303.146" y1="408.562" x2="298.07" y2="421.414"/>
	
		<line fill="none" stroke="#030303" stroke-width="0.085" stroke-linecap="round" stroke-linejoin="round" stroke-miterlimit="10" x1="280.142" y1="415.365" x2="296.343" y2="422.169"/>
	
		<line fill="none" stroke="#030303" stroke-width="0.085" stroke-linecap="round" stroke-linejoin="round" stroke-miterlimit="10" x1="292.021" y1="408.562" x2="297.099" y2="421.414"/>
	
		<polyline fill="none" stroke="#030303" stroke-width="0.085" stroke-linecap="round" stroke-linejoin="round" stroke-miterlimit="10" points="
		298.286,435.021 298.286,422.062 296.989,422.062 296.989,435.021 298.286,435.021 	"/>
	
		<polyline fill="none" stroke="#030303" stroke-width="0.085" stroke-linecap="round" stroke-linejoin="round" stroke-miterlimit="10" points="
		298.933,435.562 298.933,421.414 296.343,421.414 296.343,435.562 298.933,435.562 	"/>
	
		<line fill="none" stroke="#030303" stroke-width="0.085" stroke-linecap="round" stroke-linejoin="round" stroke-miterlimit="10" x1="280.142" y1="422.708" x2="296.343" y2="422.708"/>
	
		<line fill="none" stroke="#030303" stroke-width="0.085" stroke-linecap="round" stroke-linejoin="round" stroke-miterlimit="10" x1="298.933" y1="422.708" x2="315.026" y2="422.708"/>
	
		<polyline fill="none" stroke="#030303" stroke-width="0.0283" stroke-linecap="round" stroke-linejoin="round" stroke-miterlimit="10" points="
		281.438,436.208 313.73,436.208 313.73,450.25 281.438,450.25 281.438,436.208 	"/>
	
		<polyline fill="none" stroke="#030303" stroke-width="0.085" stroke-linecap="round" stroke-linejoin="round" stroke-miterlimit="10" points="
		308.978,531.464 309.626,531.464 309.626,555.548 285.542,555.548 285.542,531.464 286.188,531.464 	"/>
	
		<polyline fill="none" stroke="#030303" stroke-width="0.085" stroke-linecap="round" stroke-linejoin="round" stroke-miterlimit="10" points="
		280.142,488.914 297.638,488.914 297.638,472.605 280.142,472.605 280.142,488.914 	"/>
	
		<polyline fill="none" stroke="#030303" stroke-width="0.0283" stroke-linecap="round" stroke-linejoin="round" stroke-miterlimit="10" points="
		281.438,487.726 296.343,487.726 296.343,473.902 281.438,473.902 281.438,487.726 	"/>
	
		<polyline fill="none" stroke="#030303" stroke-width="0.0283" stroke-linecap="round" stroke-linejoin="round" stroke-miterlimit="10" points="
		262.431,390.742 271.933,390.742 271.933,405.429 262.431,405.429 262.431,390.742 	"/>
	
		<polyline fill="none" stroke="#030303" stroke-width="0.0283" stroke-linecap="round" stroke-linejoin="round" stroke-miterlimit="10" points="
		262.431,450.898 271.933,450.898 271.933,436.208 262.431,436.208 262.431,450.898 	"/>
	
		<polyline fill="none" stroke="#070707" stroke-width="0.2551" stroke-linecap="round" stroke-linejoin="round" stroke-miterlimit="10" points="
		363.303,456.298 363.303,457.269 365.894,457.269 365.894,456.298 363.303,456.298 	"/>
	
		<line fill="none" stroke="#030303" stroke-width="0.2126" stroke-linecap="round" stroke-linejoin="round" stroke-miterlimit="10" x1="365.894" y1="457.269" x2="365.894" y2="522.609"/>
	<polyline fill="#030303" stroke="#030303" stroke-width="0.2551" stroke-linecap="square" stroke-miterlimit="10" points="
		278.306,518.72 278.306,526.39 274.417,526.39 274.417,518.72 278.306,518.72 	"/>
	
		<polyline fill="none" stroke="#070707" stroke-width="0.2551" stroke-linecap="round" stroke-linejoin="round" stroke-miterlimit="10" points="
		363.303,522.609 363.303,523.472 365.894,523.472 365.894,522.609 363.303,522.609 	"/>
	
		<polyline fill="none" stroke="#070707" stroke-width="0.2551" stroke-linecap="round" stroke-linejoin="round" stroke-miterlimit="10" points="
		277.333,526.39 278.306,526.39 278.306,528.982 277.333,528.982 277.333,526.39 	"/>
	
		<polyline fill="none" stroke="#070707" stroke-width="0.2551" stroke-linecap="round" stroke-linejoin="round" stroke-miterlimit="10" points="
		317.942,526.39 316.97,526.39 316.97,528.982 317.942,528.982 317.942,526.39 	"/>
	
		<polyline fill="none" stroke="#070707" stroke-width="0.2551" stroke-linecap="round" stroke-linejoin="round" stroke-miterlimit="10" points="
		319.777,526.39 320.749,526.39 320.749,528.982 319.777,528.982 319.777,526.39 	"/>
	
		<line fill="none" stroke="#030303" stroke-width="0.2126" stroke-linecap="round" stroke-linejoin="round" stroke-miterlimit="10" x1="320.749" y1="528.982" x2="359.521" y2="528.982"/>
	
		<polyline fill="none" stroke="#070707" stroke-width="0.2551" stroke-linecap="round" stroke-linejoin="round" stroke-miterlimit="10" points="
		359.521,526.39 360.386,526.39 360.386,528.982 359.521,528.982 359.521,526.39 	"/>
	
		<line fill="none" stroke="#030303" stroke-width="0.085" stroke-linecap="round" stroke-linejoin="round" stroke-miterlimit="10" x1="357.577" y1="526.39" x2="322.693" y2="526.39"/>
	
		<polyline fill="none" stroke="#070707" stroke-width="0.2551" stroke-linecap="round" stroke-linejoin="round" stroke-miterlimit="10" points="
		363.303,454.46 363.303,453.49 365.894,453.49 365.894,454.46 363.303,454.46 	"/>
	
		<line fill="none" stroke="#030303" stroke-width="0.2126" stroke-linecap="round" stroke-linejoin="round" stroke-miterlimit="10" x1="365.894" y1="453.49" x2="365.894" y2="388.148"/>
	
		<polyline fill="none" stroke="#070707" stroke-width="0.2551" stroke-linecap="round" stroke-linejoin="round" stroke-miterlimit="10" points="
		363.303,388.148 363.303,387.285 365.894,387.285 365.894,388.148 363.303,388.148 	"/>
	
		<line fill="none" stroke="#030303" stroke-width="0.085" stroke-linecap="round" stroke-linejoin="round" stroke-miterlimit="10" x1="363.303" y1="520.666" x2="363.303" y2="459.214"/>
	
		<line fill="none" stroke="#030303" stroke-width="0.085" stroke-linecap="round" stroke-linejoin="round" stroke-miterlimit="10" x1="363.303" y1="390.093" x2="363.303" y2="451.544"/>
	
		<polyline fill="none" stroke="#070707" stroke-width="0.2551" stroke-linecap="round" stroke-linejoin="round" stroke-miterlimit="10" points="
		363.303,318.166 363.303,319.137 365.894,319.137 365.894,318.166 363.303,318.166 	"/>
	
		<line fill="none" stroke="#030303" stroke-width="0.2126" stroke-linecap="round" stroke-linejoin="round" stroke-miterlimit="10" x1="365.894" y1="319.137" x2="365.894" y2="384.369"/>
	
		<polyline fill="none" stroke="#070707" stroke-width="0.2551" stroke-linecap="round" stroke-linejoin="round" stroke-miterlimit="10" points="
		363.303,384.369 363.303,385.341 365.894,385.341 365.894,384.369 363.303,384.369 	"/>
	
		<polyline fill="none" stroke="#070707" stroke-width="0.2551" stroke-linecap="round" stroke-linejoin="round" stroke-miterlimit="10" points="
		231.866,456.298 231.866,457.269 229.382,457.269 229.382,456.298 231.866,456.298 	"/>
	
		<line fill="none" stroke="#030303" stroke-width="0.2126" stroke-linecap="round" stroke-linejoin="round" stroke-miterlimit="10" x1="229.382" y1="457.269" x2="229.382" y2="522.609"/>
	
		<polyline fill="none" stroke="#070707" stroke-width="0.2551" stroke-linecap="round" stroke-linejoin="round" stroke-miterlimit="10" points="
		231.866,522.609 231.866,523.472 229.382,523.472 229.382,522.609 231.866,522.609 	"/>
	
		<polyline fill="none" stroke="#070707" stroke-width="0.2551" stroke-linecap="round" stroke-linejoin="round" stroke-miterlimit="10" points="
		231.866,454.46 231.866,453.49 229.382,453.49 229.382,454.46 231.866,454.46 	"/>
	
		<line fill="none" stroke="#030303" stroke-width="0.2126" stroke-linecap="round" stroke-linejoin="round" stroke-miterlimit="10" x1="229.382" y1="453.49" x2="229.382" y2="388.148"/>
	
		<polyline fill="none" stroke="#070707" stroke-width="0.2551" stroke-linecap="round" stroke-linejoin="round" stroke-miterlimit="10" points="
		231.866,388.148 231.866,387.285 229.382,387.285 229.382,388.148 231.866,388.148 	"/>
	
		<polyline fill="none" stroke="#070707" stroke-width="0.2551" stroke-linecap="round" stroke-linejoin="round" stroke-miterlimit="10" points="
		231.866,318.166 231.866,319.137 229.382,319.137 229.382,318.166 231.866,318.166 	"/>
	
		<line fill="none" stroke="#030303" stroke-width="0.2126" stroke-linecap="round" stroke-linejoin="round" stroke-miterlimit="10" x1="229.382" y1="319.137" x2="229.382" y2="384.369"/>
	
		<polyline fill="none" stroke="#070707" stroke-width="0.2551" stroke-linecap="round" stroke-linejoin="round" stroke-miterlimit="10" points="
		231.866,384.369 231.866,385.341 229.382,385.341 229.382,384.369 231.866,384.369 	"/>
	
		<polyline fill="none" stroke="#070707" stroke-width="0.2551" stroke-linecap="round" stroke-linejoin="round" stroke-miterlimit="10" points="
		275.39,526.39 274.417,526.39 274.417,528.982 275.39,528.982 275.39,526.39 	"/>
	
		<line fill="none" stroke="#030303" stroke-width="0.2126" stroke-linecap="round" stroke-linejoin="round" stroke-miterlimit="10" x1="274.417" y1="528.982" x2="235.754" y2="528.982"/>
	
		<polyline fill="none" stroke="#070707" stroke-width="0.2551" stroke-linecap="round" stroke-linejoin="round" stroke-miterlimit="10" points="
		235.754,526.39 234.782,526.39 234.782,528.982 235.754,528.982 235.754,526.39 	"/>
	
		<line fill="none" stroke="#030303" stroke-width="0.085" stroke-linecap="round" stroke-linejoin="round" stroke-miterlimit="10" x1="235.754" y1="526.39" x2="274.417" y2="526.39"/>
	
		<polyline fill="none" stroke="#070707" stroke-width="0.2551" stroke-linecap="round" stroke-linejoin="round" stroke-miterlimit="10" points="
		319.777,315.25 320.749,315.25 320.749,312.765 319.777,312.765 319.777,315.25 	"/>
	
		<line fill="none" stroke="#030303" stroke-width="0.2126" stroke-linecap="round" stroke-linejoin="round" stroke-miterlimit="10" x1="320.749" y1="312.765" x2="359.521" y2="312.765"/>
	
		<polyline fill="none" stroke="#070707" stroke-width="0.2551" stroke-linecap="round" stroke-linejoin="round" stroke-miterlimit="10" points="
		359.521,315.25 360.386,315.25 360.386,312.765 359.521,312.765 359.521,315.25 	"/>
	
		<line fill="none" stroke="#030303" stroke-width="0.085" stroke-linecap="round" stroke-linejoin="round" stroke-miterlimit="10" x1="357.577" y1="315.25" x2="322.693" y2="315.25"/>
	
		<polyline fill="none" stroke="#070707" stroke-width="0.2551" stroke-linecap="round" stroke-linejoin="round" stroke-miterlimit="10" points="
		275.39,315.25 274.417,315.25 274.417,312.765 275.39,312.765 275.39,315.25 	"/>
	
		<line fill="none" stroke="#030303" stroke-width="0.2126" stroke-linecap="round" stroke-linejoin="round" stroke-miterlimit="10" x1="274.417" y1="312.765" x2="235.754" y2="312.765"/>
	
		<polyline fill="none" stroke="#070707" stroke-width="0.2551" stroke-linecap="round" stroke-linejoin="round" stroke-miterlimit="10" points="
		235.754,315.25 234.782,315.25 234.782,312.765 235.754,312.765 235.754,315.25 	"/>
	
		<polyline fill="none" stroke="#070707" stroke-width="0.2551" stroke-linecap="round" stroke-linejoin="round" stroke-miterlimit="10" points="
		317.942,315.25 316.97,315.25 316.97,312.765 317.942,312.765 317.942,315.25 	"/>
	
		<line fill="none" stroke="#030303" stroke-width="0.2126" stroke-linecap="round" stroke-linejoin="round" stroke-miterlimit="10" x1="316.97" y1="312.765" x2="278.306" y2="312.765"/>
	
		<polyline fill="none" stroke="#070707" stroke-width="0.2551" stroke-linecap="round" stroke-linejoin="round" stroke-miterlimit="10" points="
		278.306,315.25 277.333,315.25 277.333,312.765 278.306,312.765 278.306,315.25 	"/>
	
		<line fill="none" stroke="#070707" stroke-width="0.1984" stroke-linecap="round" stroke-linejoin="round" stroke-miterlimit="10" x1="310.059" y1="532.113" x2="285.11" y2="532.113"/>
	
		<line fill="none" stroke="#070707" stroke-width="0.1984" stroke-linecap="round" stroke-linejoin="round" stroke-miterlimit="10" x1="297.638" y1="532.113" x2="297.638" y2="530.818"/>
	
		<polyline fill="none" stroke="#070707" stroke-width="0.2551" stroke-linecap="round" stroke-linejoin="round" stroke-miterlimit="10" points="
		310.599,530.169 316.97,530.169 316.97,527.685 310.599,527.685 310.599,530.169 	"/>
	
		<polyline fill="none" stroke="#070707" stroke-width="0.1984" stroke-linecap="round" stroke-linejoin="round" stroke-miterlimit="10" points="
		308.978,532.113 308.978,530.818 286.188,530.818 286.188,532.113 308.978,532.113 	"/>
	
		<polyline fill="none" stroke="#070707" stroke-width="0.1984" stroke-linecap="round" stroke-linejoin="round" stroke-miterlimit="10" points="
		280.142,502.197 280.142,490.857 315.026,490.857 315.026,502.197 322.047,502.197 	"/>
	
		<polyline fill="none" stroke="#070707" stroke-width="0.1984" stroke-linecap="round" stroke-linejoin="round" stroke-miterlimit="10" points="
		315.026,502.197 315.026,503.384 322.047,503.384 322.047,502.197 	"/>
	
		<polyline fill="none" stroke="#070707" stroke-width="0.1984" stroke-linecap="round" stroke-linejoin="round" stroke-miterlimit="10" points="
		316.97,518.72 315.026,518.72 315.026,525.742 309.626,525.742 309.626,528.982 	"/>
	
		<polyline fill="none" stroke="#070707" stroke-width="0.2551" stroke-linecap="round" stroke-linejoin="round" stroke-miterlimit="10" points="
		309.626,528.982 310.599,528.982 310.599,531.464 309.626,531.464 309.626,528.982 	"/>
	
		<polyline fill="none" stroke="#070707" stroke-width="0.2551" stroke-linecap="round" stroke-linejoin="round" stroke-miterlimit="10" points="
		284.677,530.169 278.306,530.169 278.306,527.685 284.677,527.685 284.677,530.169 	"/>
	
		<polyline fill="none" stroke="#070707" stroke-width="0.2551" stroke-linecap="round" stroke-linejoin="round" stroke-miterlimit="10" points="
		285.542,528.982 284.677,528.982 284.677,531.464 285.542,531.464 285.542,528.982 	"/>
	
		<line fill="none" stroke="#030303" stroke-width="0.085" stroke-linecap="round" stroke-linejoin="round" stroke-miterlimit="10" x1="309.626" y1="525.742" x2="285.542" y2="525.742"/>
	
		<line fill="none" stroke="#070707" stroke-width="0.1984" stroke-linecap="round" stroke-linejoin="round" stroke-miterlimit="10" x1="359.521" y1="459.214" x2="349.37" y2="459.214"/>
	
		<polyline fill="none" stroke="#070707" stroke-width="0.1984" stroke-linecap="round" stroke-linejoin="round" stroke-miterlimit="10" points="
		332.737,459.214 322.693,459.214 322.693,502.197 322.047,502.197 	"/>
	
		<line fill="none" stroke="#030303" stroke-width="0.085" stroke-linecap="round" stroke-linejoin="round" stroke-miterlimit="10" x1="315.026" y1="503.384" x2="315.026" y2="517.425"/>
	
		<polyline fill="none" stroke="#070707" stroke-width="0.1984" stroke-linecap="round" stroke-linejoin="round" stroke-miterlimit="10" points="
		322.693,522.609 322.693,518.72 322.047,518.72 	"/>
	
		<polyline fill="none" stroke="#070707" stroke-width="0.1984" stroke-linecap="round" stroke-linejoin="round" stroke-miterlimit="10" points="
		322.047,517.425 315.026,517.425 315.026,518.72 322.047,518.72 322.047,517.425 	"/>
	
		<line fill="none" stroke="#070707" stroke-width="0.1984" stroke-linecap="round" stroke-linejoin="round" stroke-miterlimit="10" x1="322.693" y1="502.738" x2="322.693" y2="518.074"/>
	
		<polyline fill="none" stroke="#070707" stroke-width="0.1984" stroke-linecap="round" stroke-linejoin="round" stroke-miterlimit="10" points="
		321.397,516.777 322.693,516.777 322.693,504.033 321.397,504.033 321.397,516.777 	"/>
	
		<line fill="none" stroke="#070707" stroke-width="0.1984" stroke-linecap="round" stroke-linejoin="round" stroke-miterlimit="10" x1="321.397" y1="510.406" x2="322.693" y2="510.406"/>
	<polyline fill="#030303" stroke="#030303" stroke-width="0.2551" stroke-linecap="square" stroke-miterlimit="10" points="
		320.749,518.72 320.749,526.39 316.97,526.39 316.97,518.72 320.749,518.72 	"/>
	
		<polyline fill="none" stroke="#070707" stroke-width="0.1984" stroke-linecap="round" stroke-linejoin="round" stroke-miterlimit="10" points="
		273.122,502.197 280.142,502.197 280.142,503.384 273.122,503.384 273.122,502.197 	"/>
	
		<line fill="none" stroke="#030303" stroke-width="0.085" stroke-linecap="round" stroke-linejoin="round" stroke-miterlimit="10" x1="280.142" y1="503.384" x2="280.142" y2="517.425"/>
	
		<polyline fill="none" stroke="#070707" stroke-width="0.1984" stroke-linecap="round" stroke-linejoin="round" stroke-miterlimit="10" points="
		273.122,517.425 280.142,517.425 280.142,518.72 273.122,518.72 273.122,517.425 	"/>
	
		<line fill="none" stroke="#070707" stroke-width="0.1984" stroke-linecap="round" stroke-linejoin="round" stroke-miterlimit="10" x1="272.475" y1="502.738" x2="272.475" y2="518.074"/>
	
		<polyline fill="none" stroke="#070707" stroke-width="0.1984" stroke-linecap="round" stroke-linejoin="round" stroke-miterlimit="10" points="
		273.771,516.777 272.475,516.777 272.475,504.033 273.771,504.033 273.771,516.777 	"/>
	
		<line fill="none" stroke="#070707" stroke-width="0.1984" stroke-linecap="round" stroke-linejoin="round" stroke-miterlimit="10" x1="273.771" y1="510.406" x2="272.475" y2="510.406"/>
	
		<polyline fill="none" stroke="#070707" stroke-width="0.1984" stroke-linecap="round" stroke-linejoin="round" stroke-miterlimit="10" points="
		278.306,518.72 280.142,518.72 280.142,525.742 285.542,525.742 285.542,528.982 	"/>
	
		<polyline fill="none" stroke="#030303" stroke-width="0.0283" stroke-linecap="round" stroke-linejoin="round" stroke-miterlimit="10" points="
		281.438,492.154 313.73,492.154 313.73,524.445 281.438,524.445 281.438,492.154 	"/>
	
		<polyline fill="none" stroke="#070707" stroke-width="0.1984" stroke-linecap="round" stroke-linejoin="round" stroke-miterlimit="10" points="
		363.303,457.269 363.303,459.214 359.521,459.214 359.521,457.269 363.303,457.269 	"/>
	
		<polyline fill="none" stroke="#070707" stroke-width="0.1984" stroke-linecap="round" stroke-linejoin="round" stroke-miterlimit="10" points="
		322.693,526.39 320.749,526.39 320.749,522.609 322.693,522.609 322.693,526.39 	"/>
	
		<polyline fill="none" stroke="#070707" stroke-width="0.1984" stroke-linecap="round" stroke-linejoin="round" stroke-miterlimit="10" points="
		363.303,520.666 363.303,522.609 359.521,522.609 359.521,520.666 363.303,520.666 	"/>
	
		<polyline fill="none" stroke="#070707" stroke-width="0.1984" stroke-linecap="round" stroke-linejoin="round" stroke-miterlimit="10" points="
		357.577,526.39 359.521,526.39 359.521,522.609 357.577,522.609 357.577,526.39 	"/>
	<polyline fill="#030303" stroke="#030303" stroke-width="0.2551" stroke-linecap="square" stroke-miterlimit="10" points="
		363.303,522.609 359.521,522.609 359.521,526.39 363.303,526.39 363.303,522.609 	"/>
	
		<line fill="none" stroke="#030303" stroke-width="0.085" stroke-linecap="round" stroke-linejoin="round" stroke-miterlimit="10" x1="359.521" y1="459.214" x2="359.521" y2="520.666"/>
	
		<line fill="none" stroke="#030303" stroke-width="0.085" stroke-linecap="round" stroke-linejoin="round" stroke-miterlimit="10" x1="357.577" y1="522.609" x2="322.693" y2="522.609"/>
	
		<polyline fill="none" stroke="#030303" stroke-width="0.0283" stroke-linecap="round" stroke-linejoin="round" stroke-miterlimit="10" points="
		358.226,521.314 323.989,521.314 323.989,460.509 358.226,460.509 358.226,521.314 	"/>
	
		<polyline fill="none" stroke="#030303" stroke-width="0.0283" stroke-linecap="round" stroke-linejoin="round" stroke-miterlimit="10" points="
		355.634,518.72 326.475,518.72 326.475,462.994 355.634,462.994 355.634,518.72 	"/>
	
		<polyline fill="none" stroke="#070707" stroke-width="0.1984" stroke-linecap="round" stroke-linejoin="round" stroke-miterlimit="10" points="
		363.303,453.49 363.303,451.544 359.521,451.544 359.521,453.49 363.303,453.49 	"/>
	
		<line fill="none" stroke="#030303" stroke-width="0.085" stroke-linecap="round" stroke-linejoin="round" stroke-miterlimit="10" x1="359.521" y1="390.093" x2="359.521" y2="451.544"/>
	
		<polyline fill="none" stroke="#070707" stroke-width="0.1984" stroke-linecap="round" stroke-linejoin="round" stroke-miterlimit="10" points="
		349.37,459.214 349.37,451.544 348.075,451.544 348.075,459.214 349.37,459.214 	"/>
	
		<line fill="none" stroke="#070707" stroke-width="0.1984" stroke-linecap="round" stroke-linejoin="round" stroke-miterlimit="10" x1="359.521" y1="451.544" x2="349.37" y2="451.544"/>
	<polyline fill="#030303" stroke="#030303" stroke-width="0.2551" stroke-linecap="square" stroke-miterlimit="10" points="
		349.37,453.49 363.303,453.49 363.303,457.269 349.37,457.269 349.37,453.49 	"/>
	
		<polyline fill="none" stroke="#070707" stroke-width="0.1984" stroke-linecap="round" stroke-linejoin="round" stroke-miterlimit="10" points="
		332.737,451.544 322.693,451.544 322.693,449.601 	"/>
	
		<polyline fill="none" stroke="#070707" stroke-width="0.1984" stroke-linecap="round" stroke-linejoin="round" stroke-miterlimit="10" points="
		322.693,392.037 322.693,390.093 332.737,390.093 	"/>
	
		<polyline fill="none" stroke="#070707" stroke-width="0.1984" stroke-linecap="round" stroke-linejoin="round" stroke-miterlimit="10" points="
		332.737,459.214 332.737,451.544 334.033,451.544 334.033,459.214 332.737,459.214 	"/>
	
		<line fill="none" stroke="#030303" stroke-width="0.085" stroke-linecap="round" stroke-linejoin="round" stroke-miterlimit="10" x1="348.075" y1="451.544" x2="334.033" y2="451.544"/>
	
		<line fill="none" stroke="#030303" stroke-width="0.085" stroke-linecap="round" stroke-linejoin="round" stroke-miterlimit="10" x1="348.075" y1="459.214" x2="334.033" y2="459.214"/>
	
		<polyline fill="none" stroke="#070707" stroke-width="0.1984" stroke-linecap="round" stroke-linejoin="round" stroke-miterlimit="10" points="
		245.798,459.214 245.798,451.544 247.094,451.544 247.094,459.214 245.798,459.214 	"/>
	
		<polyline fill="none" stroke="#070707" stroke-width="0.1984" stroke-linecap="round" stroke-linejoin="round" stroke-miterlimit="10" points="
		262.431,459.214 262.431,451.544 261.134,451.544 261.134,459.214 262.431,459.214 	"/>
	
		<line fill="none" stroke="#030303" stroke-width="0.085" stroke-linecap="round" stroke-linejoin="round" stroke-miterlimit="10" x1="247.094" y1="451.544" x2="261.134" y2="451.544"/>
	
		<line fill="none" stroke="#030303" stroke-width="0.085" stroke-linecap="round" stroke-linejoin="round" stroke-miterlimit="10" x1="247.094" y1="459.214" x2="261.134" y2="459.214"/>
	
		<polyline fill="none" stroke="#070707" stroke-width="0.1984" stroke-linecap="round" stroke-linejoin="round" stroke-miterlimit="10" points="
		231.866,520.666 231.866,522.609 235.754,522.609 235.754,520.666 231.866,520.666 	"/>
	
		<polyline fill="none" stroke="#070707" stroke-width="0.1984" stroke-linecap="round" stroke-linejoin="round" stroke-miterlimit="10" points="
		237.698,526.39 235.754,526.39 235.754,522.609 237.698,522.609 237.698,526.39 	"/>
	<polyline fill="#030303" stroke="#030303" stroke-width="0.2551" stroke-linecap="square" stroke-miterlimit="10" points="
		231.866,522.609 235.754,522.609 235.754,526.39 231.866,526.39 231.866,522.609 	"/>
	
		<polyline fill="none" stroke="#070707" stroke-width="0.1984" stroke-linecap="round" stroke-linejoin="round" stroke-miterlimit="10" points="
		231.866,457.269 231.866,459.214 235.754,459.214 235.754,457.269 231.866,457.269 	"/>
	
		<polyline fill="none" stroke="#070707" stroke-width="0.1984" stroke-linecap="round" stroke-linejoin="round" stroke-miterlimit="10" points="
		231.866,453.49 231.866,451.544 235.754,451.544 235.754,453.49 231.866,453.49 	"/>
	<polyline fill="#030303" stroke="#030303" stroke-width="0.2551" stroke-linecap="square" stroke-miterlimit="10" points="
		245.798,457.269 231.866,457.269 231.866,453.49 245.798,453.49 245.798,457.269 	"/>
	
		<line fill="none" stroke="#030303" stroke-width="0.085" stroke-linecap="round" stroke-linejoin="round" stroke-miterlimit="10" x1="231.866" y1="520.666" x2="231.866" y2="459.214"/>
	
		<line fill="none" stroke="#030303" stroke-width="0.085" stroke-linecap="round" stroke-linejoin="round" stroke-miterlimit="10" x1="235.754" y1="459.214" x2="235.754" y2="520.666"/>
	
		<polyline fill="none" stroke="#030303" stroke-width="0.0283" stroke-linecap="round" stroke-linejoin="round" stroke-miterlimit="10" points="
		237.05,521.314 271.286,521.314 271.286,460.509 237.05,460.509 237.05,521.314 	"/>
	
		<polyline fill="none" stroke="#030303" stroke-width="0.0283" stroke-linecap="round" stroke-linejoin="round" stroke-miterlimit="10" points="
		239.533,518.72 268.693,518.72 268.693,462.994 239.533,462.994 239.533,518.72 	"/>
	
		<polyline fill="none" stroke="#070707" stroke-width="0.1984" stroke-linecap="round" stroke-linejoin="round" stroke-miterlimit="10" points="
		272.475,522.609 272.475,518.72 273.122,518.72 	"/>
	
		<polyline fill="none" stroke="#070707" stroke-width="0.1984" stroke-linecap="round" stroke-linejoin="round" stroke-miterlimit="10" points="
		272.475,526.39 274.417,526.39 274.417,522.609 272.475,522.609 272.475,526.39 	"/>
	
		<line fill="none" stroke="#030303" stroke-width="0.085" stroke-linecap="round" stroke-linejoin="round" stroke-miterlimit="10" x1="237.698" y1="522.609" x2="272.475" y2="522.609"/>
	
		<line fill="none" stroke="#070707" stroke-width="0.1984" stroke-linecap="round" stroke-linejoin="round" stroke-miterlimit="10" x1="235.754" y1="459.214" x2="245.798" y2="459.214"/>
	
		<line fill="none" stroke="#070707" stroke-width="0.1984" stroke-linecap="round" stroke-linejoin="round" stroke-miterlimit="10" x1="235.754" y1="451.544" x2="245.798" y2="451.544"/>
	
		<polyline fill="none" stroke="#070707" stroke-width="0.1984" stroke-linecap="round" stroke-linejoin="round" stroke-miterlimit="10" points="
		262.431,459.214 272.475,459.214 272.475,502.197 273.122,502.197 	"/>
	
		<polyline fill="none" stroke="#070707" stroke-width="0.1984" stroke-linecap="round" stroke-linejoin="round" stroke-miterlimit="10" points="
		363.303,388.148 363.303,390.093 359.521,390.093 359.521,388.148 363.303,388.148 	"/>
	
		<line fill="none" stroke="#030303" stroke-width="0.085" stroke-linecap="round" stroke-linejoin="round" stroke-miterlimit="10" x1="363.303" y1="382.425" x2="363.303" y2="320.973"/>
	
		<polyline fill="none" stroke="#070707" stroke-width="0.1984" stroke-linecap="round" stroke-linejoin="round" stroke-miterlimit="10" points="
		363.303,319.137 363.303,320.973 359.521,320.973 359.521,319.137 363.303,319.137 	"/>
	
		<line fill="none" stroke="#030303" stroke-width="0.085" stroke-linecap="round" stroke-linejoin="round" stroke-miterlimit="10" x1="359.521" y1="382.425" x2="359.521" y2="320.973"/>
	
		<polyline fill="none" stroke="#070707" stroke-width="0.1984" stroke-linecap="round" stroke-linejoin="round" stroke-miterlimit="10" points="
		363.303,384.369 363.303,382.425 359.521,382.425 359.521,384.369 363.303,384.369 	"/>
	
		<polyline fill="none" stroke="#070707" stroke-width="0.1984" stroke-linecap="round" stroke-linejoin="round" stroke-miterlimit="10" points="
		262.431,451.544 272.475,451.544 272.475,449.601 	"/>
	
		<line fill="none" stroke="#070707" stroke-width="0.1984" stroke-linecap="round" stroke-linejoin="round" stroke-miterlimit="10" x1="272.475" y1="436.857" x2="272.475" y2="404.781"/>
	
		<polyline fill="none" stroke="#070707" stroke-width="0.1984" stroke-linecap="round" stroke-linejoin="round" stroke-miterlimit="10" points="
		272.475,392.037 272.475,390.093 262.431,390.093 	"/>
	
		<line fill="none" stroke="#030303" stroke-width="0.085" stroke-linecap="round" stroke-linejoin="round" stroke-miterlimit="10" x1="231.866" y1="390.093" x2="231.866" y2="451.544"/>
	
		<line fill="none" stroke="#030303" stroke-width="0.085" stroke-linecap="round" stroke-linejoin="round" stroke-miterlimit="10" x1="235.754" y1="390.093" x2="235.754" y2="451.544"/>
	
		<polyline fill="none" stroke="#070707" stroke-width="0.1984" stroke-linecap="round" stroke-linejoin="round" stroke-miterlimit="10" points="
		231.866,388.148 231.866,390.093 235.754,390.093 235.754,388.148 231.866,388.148 	"/>
	
		<polyline fill="none" stroke="#070707" stroke-width="0.1984" stroke-linecap="round" stroke-linejoin="round" stroke-miterlimit="10" points="
		231.866,384.369 231.866,382.425 235.754,382.425 235.754,384.369 231.866,384.369 	"/>
	
		<polyline fill="none" stroke="#070707" stroke-width="0.1984" stroke-linecap="round" stroke-linejoin="round" stroke-miterlimit="10" points="
		231.866,319.137 231.866,320.973 235.754,320.973 235.754,319.137 231.866,319.137 	"/>
	
		<line fill="none" stroke="#030303" stroke-width="0.085" stroke-linecap="round" stroke-linejoin="round" stroke-miterlimit="10" x1="231.866" y1="382.425" x2="231.866" y2="320.973"/>
	
		<line fill="none" stroke="#030303" stroke-width="0.085" stroke-linecap="round" stroke-linejoin="round" stroke-miterlimit="10" x1="235.754" y1="382.425" x2="235.754" y2="320.973"/>
	
		<polyline fill="none" stroke="#070707" stroke-width="0.1984" stroke-linecap="round" stroke-linejoin="round" stroke-miterlimit="10" points="
		359.521,315.25 357.577,315.25 357.577,319.137 359.521,319.137 359.521,315.25 	"/>
	
		<polyline fill="none" stroke="#070707" stroke-width="0.1984" stroke-linecap="round" stroke-linejoin="round" stroke-miterlimit="10" points="
		320.749,315.25 322.693,315.25 322.693,319.137 320.749,319.137 320.749,315.25 	"/>
	
		<line fill="none" stroke="#030303" stroke-width="0.085" stroke-linecap="round" stroke-linejoin="round" stroke-miterlimit="10" x1="357.577" y1="319.137" x2="322.693" y2="319.137"/>
	
		<line fill="none" stroke="#030303" stroke-width="0.085" stroke-linecap="round" stroke-linejoin="round" stroke-miterlimit="10" x1="280.142" y1="315.25" x2="315.026" y2="315.25"/>
	
		<polyline fill="none" stroke="#070707" stroke-width="0.1984" stroke-linecap="round" stroke-linejoin="round" stroke-miterlimit="10" points="
		278.306,315.25 280.142,315.25 280.142,319.137 278.306,319.137 278.306,315.25 	"/>
	
		<polyline fill="none" stroke="#070707" stroke-width="0.1984" stroke-linecap="round" stroke-linejoin="round" stroke-miterlimit="10" points="
		316.97,315.25 315.026,315.25 315.026,319.137 316.97,319.137 316.97,315.25 	"/>
	
		<line fill="none" stroke="#030303" stroke-width="0.085" stroke-linecap="round" stroke-linejoin="round" stroke-miterlimit="10" x1="280.142" y1="319.137" x2="315.026" y2="319.137"/>
	
		<line fill="none" stroke="#030303" stroke-width="0.085" stroke-linecap="round" stroke-linejoin="round" stroke-miterlimit="10" x1="272.475" y1="315.25" x2="237.698" y2="315.25"/>
	
		<polyline fill="none" stroke="#070707" stroke-width="0.1984" stroke-linecap="round" stroke-linejoin="round" stroke-miterlimit="10" points="
		274.417,315.25 272.475,315.25 272.475,319.137 274.417,319.137 274.417,315.25 	"/>
	
		<polyline fill="none" stroke="#070707" stroke-width="0.1984" stroke-linecap="round" stroke-linejoin="round" stroke-miterlimit="10" points="
		235.754,315.25 237.698,315.25 237.698,319.137 235.754,319.137 235.754,315.25 	"/>
	
		<line fill="none" stroke="#030303" stroke-width="0.085" stroke-linecap="round" stroke-linejoin="round" stroke-miterlimit="10" x1="272.475" y1="319.137" x2="237.698" y2="319.137"/>
	
		<polyline fill="none" stroke="#070707" stroke-width="0.1984" stroke-linecap="round" stroke-linejoin="round" stroke-miterlimit="10" points="
		271.933,436.208 262.431,436.208 262.431,405.429 271.933,405.429 271.933,436.208 	"/>
	
		<polyline fill="none" stroke="#070707" stroke-width="0.1984" stroke-linecap="round" stroke-linejoin="round" stroke-miterlimit="10" points="
		349.37,382.425 349.37,390.093 348.075,390.093 348.075,382.425 349.37,382.425 	"/>
	
		<polyline fill="none" stroke="#070707" stroke-width="0.1984" stroke-linecap="round" stroke-linejoin="round" stroke-miterlimit="10" points="
		332.737,382.425 332.737,390.093 334.033,390.093 334.033,382.425 332.737,382.425 	"/>
	
		<line fill="none" stroke="#030303" stroke-width="0.085" stroke-linecap="round" stroke-linejoin="round" stroke-miterlimit="10" x1="348.075" y1="390.093" x2="334.033" y2="390.093"/>
	
		<line fill="none" stroke="#030303" stroke-width="0.085" stroke-linecap="round" stroke-linejoin="round" stroke-miterlimit="10" x1="348.075" y1="382.425" x2="334.033" y2="382.425"/>
	
		<line fill="none" stroke="#070707" stroke-width="0.1984" stroke-linecap="round" stroke-linejoin="round" stroke-miterlimit="10" x1="359.521" y1="390.093" x2="349.37" y2="390.093"/>
	
		<line fill="none" stroke="#070707" stroke-width="0.1984" stroke-linecap="round" stroke-linejoin="round" stroke-miterlimit="10" x1="359.521" y1="382.425" x2="349.37" y2="382.425"/>
	<polyline fill="#030303" stroke="#030303" stroke-width="0.2551" stroke-linecap="square" stroke-miterlimit="10" points="
		349.37,388.148 363.303,388.148 363.303,384.369 349.37,384.369 349.37,388.148 	"/>
	
		<polyline fill="none" stroke="#070707" stroke-width="0.1984" stroke-linecap="round" stroke-linejoin="round" stroke-miterlimit="10" points="
		245.798,382.425 245.798,390.093 247.094,390.093 247.094,382.425 245.798,382.425 	"/>
	
		<polyline fill="none" stroke="#070707" stroke-width="0.1984" stroke-linecap="round" stroke-linejoin="round" stroke-miterlimit="10" points="
		262.431,382.425 262.431,390.093 261.134,390.093 261.134,382.425 262.431,382.425 	"/>
	
		<line fill="none" stroke="#030303" stroke-width="0.085" stroke-linecap="round" stroke-linejoin="round" stroke-miterlimit="10" x1="247.094" y1="390.093" x2="261.134" y2="390.093"/>
	
		<line fill="none" stroke="#030303" stroke-width="0.085" stroke-linecap="round" stroke-linejoin="round" stroke-miterlimit="10" x1="247.094" y1="382.425" x2="261.134" y2="382.425"/>
	
		<line fill="none" stroke="#070707" stroke-width="0.1984" stroke-linecap="round" stroke-linejoin="round" stroke-miterlimit="10" x1="235.754" y1="390.093" x2="245.798" y2="390.093"/>
	
		<line fill="none" stroke="#070707" stroke-width="0.1984" stroke-linecap="round" stroke-linejoin="round" stroke-miterlimit="10" x1="235.754" y1="382.425" x2="245.798" y2="382.425"/>
	<polyline fill="#030303" stroke="#030303" stroke-width="0.2551" stroke-linecap="square" stroke-miterlimit="10" points="
		245.798,388.148 231.866,388.148 231.866,384.369 245.798,384.369 245.798,388.148 	"/>
	
		<path fill="none" stroke="#030303" stroke-width="0.0283" stroke-linecap="round" stroke-linejoin="round" stroke-miterlimit="10" d="
		M323.991,433.185c0,9.424,7.639,17.064,17.064,17.064c9.424,0,17.062-7.641,17.062-17.064"/>
	
		<line fill="none" stroke="#030303" stroke-width="0.0283" stroke-linecap="round" stroke-linejoin="round" stroke-miterlimit="10" x1="358.226" y1="433.185" x2="358.226" y2="408.453"/>
	
		<path fill="none" stroke="#030303" stroke-width="0.0283" stroke-linecap="round" stroke-linejoin="round" stroke-miterlimit="10" d="
		M358.118,408.453c0-9.424-7.639-17.062-17.062-17.062c-9.426,0-17.064,7.639-17.064,17.062l0,0"/>
	
		<line fill="none" stroke="#030303" stroke-width="0.0283" stroke-linecap="round" stroke-linejoin="round" stroke-miterlimit="10" x1="323.989" y1="408.453" x2="323.989" y2="433.185"/>
	
		<line fill="none" stroke="#030303" stroke-width="0.0283" stroke-linecap="round" stroke-linejoin="round" stroke-miterlimit="10" x1="322.693" y1="379.292" x2="322.693" y2="320.326"/>
	
		<polyline fill="none" stroke="#070707" stroke-width="0.1984" stroke-linecap="round" stroke-linejoin="round" stroke-miterlimit="10" points="
		322.693,380.589 315.026,380.589 315.026,379.292 322.693,379.292 322.693,380.589 	"/>
	
		<polyline fill="none" stroke="#070707" stroke-width="0.1984" stroke-linecap="round" stroke-linejoin="round" stroke-miterlimit="10" points="
		332.737,382.425 322.693,382.425 322.693,380.589 	"/>
	
		<polyline fill="none" stroke="#070707" stroke-width="0.1984" stroke-linecap="round" stroke-linejoin="round" stroke-miterlimit="10" points="
		262.431,382.425 272.475,382.425 272.475,380.589 280.142,380.589 280.142,379.292 272.475,379.292 272.475,380.589 	"/>
	
		<polyline fill="none" stroke="#070707" stroke-width="0.1984" stroke-linecap="round" stroke-linejoin="round" stroke-miterlimit="10" points="
		315.026,380.589 315.026,382.425 280.142,382.425 280.142,380.589 	"/>
	
		<polyline fill="none" stroke="#070707" stroke-width="0.1984" stroke-linecap="round" stroke-linejoin="round" stroke-miterlimit="10" points="
		322.693,319.137 315.026,319.137 315.026,320.326 322.693,320.326 322.693,319.137 	"/>
	
		<line fill="none" stroke="#030303" stroke-width="0.0283" stroke-linecap="round" stroke-linejoin="round" stroke-miterlimit="10" x1="315.026" y1="379.292" x2="315.026" y2="320.326"/>
	
		<line fill="none" stroke="#030303" stroke-width="0.0283" stroke-linecap="round" stroke-linejoin="round" stroke-miterlimit="10" x1="272.475" y1="379.292" x2="272.475" y2="320.326"/>
	
		<polyline fill="none" stroke="#070707" stroke-width="0.1984" stroke-linecap="round" stroke-linejoin="round" stroke-miterlimit="10" points="
		272.475,319.137 280.142,319.137 280.142,320.326 272.475,320.326 272.475,319.137 	"/>
	
		<line fill="none" stroke="#030303" stroke-width="0.0283" stroke-linecap="round" stroke-linejoin="round" stroke-miterlimit="10" x1="280.142" y1="379.292" x2="280.142" y2="320.326"/>
	<polyline fill="#030303" stroke="#030303" stroke-width="0.2551" stroke-linecap="square" stroke-miterlimit="10" points="
		320.749,319.137 316.97,319.137 316.97,315.25 320.749,315.25 320.749,319.137 	"/>
	<polyline fill="#030303" stroke="#030303" stroke-width="0.2551" stroke-linecap="square" stroke-miterlimit="10" points="
		274.417,319.137 278.306,319.137 278.306,315.25 274.417,315.25 274.417,319.137 	"/>
	<polyline fill="#030303" stroke="#030303" stroke-width="0.2551" stroke-linecap="square" stroke-miterlimit="10" points="
		278.306,404.781 278.306,436.857 274.417,436.857 274.417,404.781 278.306,404.781 	"/>
	<polyline fill="#030303" stroke="#030303" stroke-width="0.2551" stroke-linecap="square" stroke-miterlimit="10" points="
		316.97,388.148 278.306,388.148 278.306,392.037 274.417,392.037 274.417,388.148 262.431,388.148 262.431,384.369 
		274.417,384.369 274.417,380.589 278.306,380.589 278.306,384.369 316.97,384.369 316.97,380.589 320.749,380.589 320.749,384.369 
		332.737,384.369 332.737,388.148 320.749,388.148 320.749,392.037 316.97,392.037 316.97,388.148 	"/>
	<polyline fill="#030303" stroke="#030303" stroke-width="0.2551" stroke-linecap="square" stroke-miterlimit="10" points="
		320.749,404.781 320.749,436.857 316.97,436.857 316.97,404.781 320.749,404.781 	"/>
	<polyline fill="#030303" stroke="#030303" stroke-width="0.2551" stroke-linecap="square" stroke-miterlimit="10" points="
		363.303,319.137 359.521,319.137 359.521,315.25 363.303,315.25 363.303,319.137 	"/>
	<polyline fill="#030303" stroke="#030303" stroke-width="0.2551" stroke-linecap="square" stroke-miterlimit="10" points="
		231.866,319.137 235.754,319.137 235.754,315.25 231.866,315.25 231.866,319.137 	"/>
	
		<polyline fill="none" stroke="#070707" stroke-width="0.1984" stroke-linecap="round" stroke-linejoin="round" stroke-miterlimit="10" points="
		322.693,438.154 315.026,438.154 315.026,436.857 322.693,436.857 322.693,438.154 	"/>
	
		<polyline fill="none" stroke="#070707" stroke-width="0.1984" stroke-linecap="round" stroke-linejoin="round" stroke-miterlimit="10" points="
		315.026,404.781 315.026,406.726 280.142,406.726 280.142,404.781 	"/>
	
		<polyline fill="none" stroke="#070707" stroke-width="0.1984" stroke-linecap="round" stroke-linejoin="round" stroke-miterlimit="10" points="
		280.142,392.037 280.142,390.093 315.026,390.093 315.026,392.037 	"/>
	
		<polyline fill="none" stroke="#070707" stroke-width="0.1984" stroke-linecap="round" stroke-linejoin="round" stroke-miterlimit="10" points="
		280.142,436.857 280.142,408.562 315.026,408.562 315.026,436.857 	"/>
	
		<line fill="none" stroke="#030303" stroke-width="0.085" stroke-linecap="round" stroke-linejoin="round" stroke-miterlimit="10" x1="271.933" y1="425.949" x2="262.431" y2="425.949"/>
	
		<line fill="none" stroke="#030303" stroke-width="0.085" stroke-linecap="round" stroke-linejoin="round" stroke-miterlimit="10" x1="271.933" y1="415.689" x2="262.431" y2="415.689"/>
	
		<line fill="none" stroke="#070707" stroke-width="0.1984" stroke-linecap="round" stroke-linejoin="round" stroke-miterlimit="10" x1="322.693" y1="436.857" x2="322.693" y2="404.781"/>
	
		<polyline fill="none" stroke="#070707" stroke-width="0.1984" stroke-linecap="round" stroke-linejoin="round" stroke-miterlimit="10" points="
		322.693,448.414 315.026,448.414 315.026,449.601 322.693,449.601 322.693,448.414 	"/>
	
		<polyline fill="none" stroke="#070707" stroke-width="0.1984" stroke-linecap="round" stroke-linejoin="round" stroke-miterlimit="10" points="
		272.475,438.154 280.142,438.154 280.142,436.857 272.475,436.857 272.475,438.154 	"/>
	
		<polyline fill="none" stroke="#070707" stroke-width="0.1984" stroke-linecap="round" stroke-linejoin="round" stroke-miterlimit="10" points="
		272.475,448.414 280.142,448.414 280.142,449.601 272.475,449.601 272.475,448.414 	"/>
	
		<polyline fill="none" stroke="#070707" stroke-width="0.1984" stroke-linecap="round" stroke-linejoin="round" stroke-miterlimit="10" points="
		315.026,449.601 315.026,451.544 280.142,451.544 280.142,449.601 	"/>
	
		<line fill="none" stroke="#030303" stroke-width="0.085" stroke-linecap="round" stroke-linejoin="round" stroke-miterlimit="10" x1="280.142" y1="448.414" x2="280.142" y2="438.154"/>
	
		<line fill="none" stroke="#030303" stroke-width="0.085" stroke-linecap="round" stroke-linejoin="round" stroke-miterlimit="10" x1="272.475" y1="448.414" x2="272.475" y2="438.154"/>
	
		<line fill="none" stroke="#030303" stroke-width="0.085" stroke-linecap="round" stroke-linejoin="round" stroke-miterlimit="10" x1="315.026" y1="448.414" x2="315.026" y2="438.154"/>
	
		<line fill="none" stroke="#030303" stroke-width="0.085" stroke-linecap="round" stroke-linejoin="round" stroke-miterlimit="10" x1="322.693" y1="448.414" x2="322.693" y2="438.154"/>
	
		<polyline fill="none" stroke="#030303" stroke-width="0.085" stroke-linecap="round" stroke-linejoin="round" stroke-miterlimit="10" points="
		236.402,450.898 245.798,450.898 245.798,390.742 236.402,390.742 236.402,450.898 	"/>
	
		<line fill="none" stroke="#030303" stroke-width="0.0283" stroke-linecap="round" stroke-linejoin="round" stroke-miterlimit="10" x1="242.233" y1="425.085" x2="242.233" y2="416.337"/>
	
		<line fill="none" stroke="#030303" stroke-width="0.0283" stroke-linecap="round" stroke-linejoin="round" stroke-miterlimit="10" x1="244.61" y1="425.085" x2="244.61" y2="416.337"/>
	
		<line fill="none" stroke="#030303" stroke-width="0.0283" stroke-linecap="round" stroke-linejoin="round" stroke-miterlimit="10" x1="239.966" y1="425.085" x2="239.966" y2="416.337"/>
	
		<line fill="none" stroke="#030303" stroke-width="0.0283" stroke-linecap="round" stroke-linejoin="round" stroke-miterlimit="10" x1="237.698" y1="425.085" x2="237.698" y2="416.337"/>
	
		<circle fill="none" stroke="#030303" stroke-width="0.0283" stroke-linecap="round" stroke-linejoin="round" stroke-miterlimit="10" cx="243.423" cy="428.649" r="1.188"/>
	
		<circle fill="none" stroke="#030303" stroke-width="0.0283" stroke-linecap="round" stroke-linejoin="round" stroke-miterlimit="10" cx="238.779" cy="428.649" r="1.188"/>
	
		<circle fill="none" stroke="#030303" stroke-width="0.0283" stroke-linecap="round" stroke-linejoin="round" stroke-miterlimit="10" cx="243.423" cy="433.617" r="1.188"/>
	
		<circle fill="none" stroke="#030303" stroke-width="0.0283" stroke-linecap="round" stroke-linejoin="round" stroke-miterlimit="10" cx="238.779" cy="433.617" r="1.188"/>
	
		<line fill="none" stroke="#030303" stroke-width="0.085" stroke-linecap="round" stroke-linejoin="round" stroke-miterlimit="10" x1="236.402" y1="425.949" x2="245.798" y2="425.949"/>
	
		<line fill="none" stroke="#030303" stroke-width="0.085" stroke-linecap="round" stroke-linejoin="round" stroke-miterlimit="10" x1="236.402" y1="415.689" x2="245.798" y2="415.689"/>
	
		<polyline fill="none" stroke="#030303" stroke-width="0.0283" stroke-linecap="round" stroke-linejoin="round" stroke-miterlimit="10" points="
		244.61,414.392 237.698,414.392 237.698,406.726 244.61,406.726 244.61,414.392 	"/>
	
		<line fill="none" stroke="#030303" stroke-width="0.0283" stroke-linecap="round" stroke-linejoin="round" stroke-miterlimit="10" x1="236.726" y1="410.505" x2="238.562" y2="410.505"/>
	
		<line fill="none" stroke="#030303" stroke-width="0.085" stroke-linecap="round" stroke-linejoin="round" stroke-miterlimit="10" x1="245.798" y1="436.208" x2="236.402" y2="436.208"/>
	
		<line fill="none" stroke="#030303" stroke-width="0.085" stroke-linecap="round" stroke-linejoin="round" stroke-miterlimit="10" x1="245.798" y1="405.429" x2="236.402" y2="405.429"/>
	
		<line fill="none" stroke="#030303" stroke-width="0.085" stroke-linecap="round" stroke-linejoin="round" stroke-miterlimit="10" x1="236.402" y1="395.169" x2="245.798" y2="395.169"/>
	
		<line fill="none" stroke="#030303" stroke-width="0.085" stroke-linecap="round" stroke-linejoin="round" stroke-miterlimit="10" x1="236.402" y1="446.47" x2="245.798" y2="446.47"/>
	
		<polyline fill="none" stroke="#070707" stroke-width="0.1984" stroke-linecap="round" stroke-linejoin="round" stroke-miterlimit="10" points="
		322.693,403.484 315.026,403.484 315.026,404.781 322.693,404.781 322.693,403.484 	"/>
	
		<polyline fill="none" stroke="#070707" stroke-width="0.1984" stroke-linecap="round" stroke-linejoin="round" stroke-miterlimit="10" points="
		272.475,403.484 280.142,403.484 280.142,404.781 272.475,404.781 272.475,403.484 	"/>
	
		<polyline fill="none" stroke="#070707" stroke-width="0.1984" stroke-linecap="round" stroke-linejoin="round" stroke-miterlimit="10" points="
		322.693,393.333 315.026,393.333 315.026,392.037 322.693,392.037 322.693,393.333 	"/>
	
		<polyline fill="none" stroke="#070707" stroke-width="0.1984" stroke-linecap="round" stroke-linejoin="round" stroke-miterlimit="10" points="
		272.475,393.333 280.142,393.333 280.142,392.037 272.475,392.037 272.475,393.333 	"/>
	
		<line fill="none" stroke="#030303" stroke-width="0.085" stroke-linecap="round" stroke-linejoin="round" stroke-miterlimit="10" x1="280.142" y1="393.333" x2="280.142" y2="403.484"/>
	
		<line fill="none" stroke="#030303" stroke-width="0.085" stroke-linecap="round" stroke-linejoin="round" stroke-miterlimit="10" x1="272.475" y1="393.333" x2="272.475" y2="403.484"/>
	
		<line fill="none" stroke="#030303" stroke-width="0.085" stroke-linecap="round" stroke-linejoin="round" stroke-miterlimit="10" x1="315.026" y1="393.333" x2="315.026" y2="403.484"/>
	
		<line fill="none" stroke="#030303" stroke-width="0.085" stroke-linecap="round" stroke-linejoin="round" stroke-miterlimit="10" x1="322.693" y1="393.333" x2="322.693" y2="403.484"/>
	
		<line fill="none" stroke="#030303" stroke-width="0.085" stroke-linecap="round" stroke-linejoin="round" stroke-miterlimit="10" x1="315.026" y1="403.484" x2="280.142" y2="403.484"/>
	
		<line fill="none" stroke="#030303" stroke-width="0.085" stroke-linecap="round" stroke-linejoin="round" stroke-miterlimit="10" x1="315.026" y1="393.333" x2="280.142" y2="393.333"/>
	
		<polyline fill="none" stroke="#070707" stroke-width="0.1984" stroke-linecap="round" stroke-linejoin="round" stroke-miterlimit="10" points="
		322.693,472.605 315.026,472.605 315.026,473.902 322.693,473.902 322.693,472.605 	"/>
	
		<polyline fill="none" stroke="#070707" stroke-width="0.1984" stroke-linecap="round" stroke-linejoin="round" stroke-miterlimit="10" points="
		322.693,462.345 315.026,462.345 315.026,461.158 322.693,461.158 322.693,462.345 	"/>
	
		<line fill="none" stroke="#030303" stroke-width="0.085" stroke-linecap="round" stroke-linejoin="round" stroke-miterlimit="10" x1="315.026" y1="462.345" x2="315.026" y2="472.605"/>
	
		<line fill="none" stroke="#030303" stroke-width="0.085" stroke-linecap="round" stroke-linejoin="round" stroke-miterlimit="10" x1="322.693" y1="462.345" x2="322.693" y2="472.605"/>
	
		<polyline fill="none" stroke="#070707" stroke-width="0.1984" stroke-linecap="round" stroke-linejoin="round" stroke-miterlimit="10" points="
		272.475,472.605 280.142,472.605 280.142,473.902 272.475,473.902 272.475,472.605 	"/>
	
		<polyline fill="none" stroke="#070707" stroke-width="0.1984" stroke-linecap="round" stroke-linejoin="round" stroke-miterlimit="10" points="
		272.475,462.345 280.142,462.345 280.142,461.158 272.475,461.158 272.475,462.345 	"/>
	
		<line fill="none" stroke="#030303" stroke-width="0.085" stroke-linecap="round" stroke-linejoin="round" stroke-miterlimit="10" x1="280.142" y1="462.345" x2="280.142" y2="472.605"/>
	
		<line fill="none" stroke="#030303" stroke-width="0.085" stroke-linecap="round" stroke-linejoin="round" stroke-miterlimit="10" x1="272.475" y1="462.345" x2="272.475" y2="472.605"/>
	<polyline fill="#030303" stroke="#030303" stroke-width="0.2551" stroke-linecap="square" stroke-miterlimit="10" points="
		274.417,461.158 274.417,457.269 262.431,457.269 262.431,453.49 274.417,453.49 274.417,449.601 278.306,449.601 278.306,453.49 
		316.97,453.49 316.97,449.601 320.749,449.601 320.749,453.49 332.737,453.49 332.737,457.269 320.749,457.269 320.749,461.158 
		316.97,461.158 316.97,457.269 278.306,457.269 278.306,461.158 274.417,461.158 	"/>
	<polyline fill="#030303" stroke="#030303" stroke-width="0.2551" stroke-linecap="square" stroke-miterlimit="10" points="
		320.749,473.902 320.749,502.197 316.97,502.197 316.97,473.902 320.749,473.902 	"/>
	<polyline fill="#030303" stroke="#030303" stroke-width="0.2551" stroke-linecap="square" stroke-miterlimit="10" points="
		278.306,473.902 278.306,502.197 274.417,502.197 274.417,473.902 278.306,473.902 	"/>
	
		<polyline fill="none" stroke="#070707" stroke-width="0.1984" stroke-linecap="round" stroke-linejoin="round" stroke-miterlimit="10" points="
		315.026,473.902 315.026,488.914 280.142,488.914 280.142,473.902 	"/>
	
		<polyline fill="none" stroke="#070707" stroke-width="0.1984" stroke-linecap="round" stroke-linejoin="round" stroke-miterlimit="10" points="
		315.026,461.158 315.026,459.214 280.142,459.214 280.142,461.158 	"/>
	
		<line fill="none" stroke="#030303" stroke-width="0.085" stroke-linecap="round" stroke-linejoin="round" stroke-miterlimit="10" x1="315.026" y1="462.345" x2="280.142" y2="462.345"/>
	
		<polyline fill="none" stroke="#030303" stroke-width="0.085" stroke-linecap="round" stroke-linejoin="round" stroke-miterlimit="10" points="
		303.794,488.373 308.87,488.373 308.87,480.056 303.794,480.056 303.794,488.373 	"/>
	
		<line fill="none" stroke="#030303" stroke-width="0.085" stroke-linecap="round" stroke-linejoin="round" stroke-miterlimit="10" x1="308.87" y1="485.781" x2="303.794" y2="485.781"/>
	
		<line fill="none" stroke="#030303" stroke-width="0.085" stroke-linecap="round" stroke-linejoin="round" stroke-miterlimit="10" x1="306.277" y1="488.373" x2="306.277" y2="488.914"/>
	
		<line fill="none" stroke="#030303" stroke-width="0.085" stroke-linecap="round" stroke-linejoin="round" stroke-miterlimit="10" x1="315.026" y1="472.605" x2="297.638" y2="472.605"/>
	
		<polyline fill="none" stroke="#030303" stroke-width="0.0283" stroke-linecap="round" stroke-linejoin="round" stroke-miterlimit="10" points="
		238.237,321.621 269.989,321.621 269.989,379.941 238.237,379.941 238.237,321.621 	"/>
	
		<polyline fill="none" stroke="#030303" stroke-width="0.0283" stroke-linecap="round" stroke-linejoin="round" stroke-miterlimit="10" points="
		312.433,321.621 282.733,321.621 282.733,379.941 312.433,379.941 312.433,321.621 	"/>
	
		<polyline fill="none" stroke="#030303" stroke-width="0.0283" stroke-linecap="round" stroke-linejoin="round" stroke-miterlimit="10" points="
		356.931,321.621 325.286,321.621 325.286,379.941 356.931,379.941 356.931,321.621 	"/>
	
		<line fill="none" stroke="#030303" stroke-width="0.3402" stroke-linecap="round" stroke-linejoin="round" stroke-miterlimit="10" x1="229.382" y1="235.321" x2="365.894" y2="235.321"/>
	
		<line fill="none" stroke="#030303" stroke-width="0.1701" stroke-linecap="round" stroke-linejoin="round" stroke-miterlimit="10" x1="365.894" y1="235.321" x2="365.894" y2="158.749"/>
	
		<line fill="none" stroke="#030303" stroke-width="0.1701" stroke-linecap="round" stroke-linejoin="round" stroke-miterlimit="10" x1="229.382" y1="235.321" x2="229.382" y2="158.749"/>
	
		<polyline fill="none" stroke="#030303" stroke-width="0.1701" stroke-linecap="round" stroke-linejoin="round" stroke-miterlimit="10" points="
		311.461,235.321 311.461,206.376 283.705,206.376 283.705,235.321 	"/>
	
		<polyline fill="none" stroke="#030303" stroke-width="0.1701" stroke-linecap="round" stroke-linejoin="round" stroke-miterlimit="10" points="
		284.677,235.321 284.677,207.349 310.489,207.349 310.489,235.321 	"/>
	
		<line fill="none" stroke="#070707" stroke-width="0.0283" stroke-linecap="round" stroke-linejoin="round" stroke-miterlimit="10" x1="320.749" y1="185.532" x2="359.521" y2="185.532"/>
	
		<line fill="none" stroke="#070707" stroke-width="0.0283" stroke-linecap="round" stroke-linejoin="round" stroke-miterlimit="10" x1="278.306" y1="185.532" x2="316.97" y2="185.532"/>
	
		<line fill="none" stroke="#070707" stroke-width="0.0283" stroke-linecap="round" stroke-linejoin="round" stroke-miterlimit="10" x1="235.754" y1="185.532" x2="274.417" y2="185.532"/>
	
		<line fill="none" stroke="#030303" stroke-width="0.1701" stroke-linecap="round" stroke-linejoin="round" stroke-miterlimit="10" x1="359.521" y1="162.636" x2="320.749" y2="162.636"/>
	
		<line fill="none" stroke="#070707" stroke-width="0.0283" stroke-linecap="round" stroke-linejoin="round" stroke-miterlimit="10" x1="316.97" y1="162.636" x2="278.306" y2="162.636"/>
	
		<line fill="none" stroke="#030303" stroke-width="0.1701" stroke-linecap="round" stroke-linejoin="round" stroke-miterlimit="10" x1="274.417" y1="162.636" x2="235.754" y2="162.636"/>
	
		<line fill="none" stroke="#030303" stroke-width="0.1701" stroke-linecap="round" stroke-linejoin="round" stroke-miterlimit="10" x1="316.97" y1="235.321" x2="316.97" y2="132.396"/>
	
		<line fill="none" stroke="#070707" stroke-width="0.0283" stroke-linecap="round" stroke-linejoin="round" stroke-miterlimit="10" x1="359.521" y1="197.088" x2="320.749" y2="197.088"/>
	
		<line fill="none" stroke="#070707" stroke-width="0.0283" stroke-linecap="round" stroke-linejoin="round" stroke-miterlimit="10" x1="359.521" y1="200.868" x2="320.749" y2="200.868"/>
	
		<line fill="none" stroke="#030303" stroke-width="0.1701" stroke-linecap="round" stroke-linejoin="round" stroke-miterlimit="10" x1="320.749" y1="235.321" x2="320.749" y2="162.636"/>
	
		<line fill="none" stroke="#030303" stroke-width="0.1701" stroke-linecap="round" stroke-linejoin="round" stroke-miterlimit="10" x1="278.306" y1="235.321" x2="278.306" y2="132.396"/>
	
		<line fill="none" stroke="#030303" stroke-width="0.1701" stroke-linecap="round" stroke-linejoin="round" stroke-miterlimit="10" x1="274.417" y1="235.321" x2="274.417" y2="162.636"/>
	
		<line fill="none" stroke="#030303" stroke-width="0.1701" stroke-linecap="round" stroke-linejoin="round" stroke-miterlimit="10" x1="235.754" y1="235.321" x2="235.754" y2="162.636"/>
	
		<line fill="none" stroke="#030303" stroke-width="0.1701" stroke-linecap="round" stroke-linejoin="round" stroke-miterlimit="10" x1="359.521" y1="235.321" x2="359.521" y2="162.636"/>
	
		<polyline fill="none" stroke="#030303" stroke-width="0.1701" stroke-linecap="round" stroke-linejoin="round" stroke-miterlimit="10" points="
		365.894,158.749 297.638,107.772 229.382,158.749 	"/>
	
		<line fill="none" stroke="#070707" stroke-width="0.0283" stroke-linecap="round" stroke-linejoin="round" stroke-miterlimit="10" x1="316.97" y1="197.088" x2="278.306" y2="197.088"/>
	
		<line fill="none" stroke="#070707" stroke-width="0.0283" stroke-linecap="round" stroke-linejoin="round" stroke-miterlimit="10" x1="316.97" y1="200.868" x2="278.306" y2="200.868"/>
	
		<line fill="none" stroke="#070707" stroke-width="0.0283" stroke-linecap="round" stroke-linejoin="round" stroke-miterlimit="10" x1="274.417" y1="197.088" x2="235.754" y2="197.088"/>
	
		<line fill="none" stroke="#070707" stroke-width="0.0283" stroke-linecap="round" stroke-linejoin="round" stroke-miterlimit="10" x1="274.417" y1="200.868" x2="235.754" y2="200.868"/>
	
		<line fill="none" stroke="#070707" stroke-width="0.0283" stroke-linecap="round" stroke-linejoin="round" stroke-miterlimit="10" x1="278.306" y1="147.3" x2="316.97" y2="147.3"/>
	
		<line fill="none" stroke="#070707" stroke-width="0.0283" stroke-linecap="round" stroke-linejoin="round" stroke-miterlimit="10" x1="316.97" y1="158.749" x2="278.306" y2="158.749"/>
	
		<polyline fill="none" stroke="#030303" stroke-width="0.1701" stroke-linecap="round" stroke-linejoin="round" stroke-miterlimit="10" points="
		316.97,132.396 297.638,117.924 278.306,132.396 	"/>
	
		<polyline fill="none" stroke="#070707" stroke-width="0.085" stroke-linecap="round" stroke-linejoin="round" stroke-miterlimit="10" points="
		297.205,208.212 285.542,208.212 285.542,234.456 297.205,234.456 297.205,208.212 	"/>
	
		<polyline fill="none" stroke="#070707" stroke-width="0.085" stroke-linecap="round" stroke-linejoin="round" stroke-miterlimit="10" points="
		309.626,208.212 298.07,208.212 298.07,234.456 309.626,234.456 309.626,208.212 	"/>
	
		<polyline fill="none" stroke="#070707" stroke-width="0.085" stroke-linecap="round" stroke-linejoin="round" stroke-miterlimit="10" points="
		358.55,201.732 346.886,201.732 346.886,234.456 358.55,234.456 358.55,201.732 	"/>
	
		<polyline fill="none" stroke="#070707" stroke-width="0.085" stroke-linecap="round" stroke-linejoin="round" stroke-miterlimit="10" points="
		346.021,201.732 334.249,201.732 334.249,234.456 346.021,234.456 346.021,201.732 	"/>
	
		<polyline fill="none" stroke="#070707" stroke-width="0.085" stroke-linecap="round" stroke-linejoin="round" stroke-miterlimit="10" points="
		333.386,201.732 321.722,201.732 321.722,234.456 333.386,234.456 333.386,201.732 	"/>
	
		<polyline fill="none" stroke="#070707" stroke-width="0.085" stroke-linecap="round" stroke-linejoin="round" stroke-miterlimit="10" points="
		273.554,201.732 261.782,201.732 261.782,234.456 273.554,234.456 273.554,201.732 	"/>
	
		<polyline fill="none" stroke="#070707" stroke-width="0.085" stroke-linecap="round" stroke-linejoin="round" stroke-miterlimit="10" points="
		260.917,201.732 249.254,201.732 249.254,234.456 260.917,234.456 260.917,201.732 	"/>
	
		<polyline fill="none" stroke="#070707" stroke-width="0.085" stroke-linecap="round" stroke-linejoin="round" stroke-miterlimit="10" points="
		248.39,201.732 236.617,201.732 236.617,234.456 248.39,234.456 248.39,201.732 	"/>
	
		<polyline fill="none" stroke="#070707" stroke-width="0.085" stroke-linecap="round" stroke-linejoin="round" stroke-miterlimit="10" points="
		358.55,163.5 346.886,163.5 346.886,196.116 358.55,196.116 358.55,163.5 	"/>
	
		<polyline fill="none" stroke="#070707" stroke-width="0.085" stroke-linecap="round" stroke-linejoin="round" stroke-miterlimit="10" points="
		346.021,163.5 334.249,163.5 334.249,196.116 346.021,196.116 346.021,163.5 	"/>
	
		<polyline fill="none" stroke="#070707" stroke-width="0.085" stroke-linecap="round" stroke-linejoin="round" stroke-miterlimit="10" points="
		333.386,163.5 321.722,163.5 321.722,196.116 333.386,196.116 333.386,163.5 	"/>
	
		<polyline fill="none" stroke="#070707" stroke-width="0.085" stroke-linecap="round" stroke-linejoin="round" stroke-miterlimit="10" points="
		316.105,163.5 304.333,163.5 304.333,196.116 316.105,196.116 316.105,163.5 	"/>
	
		<polyline fill="none" stroke="#070707" stroke-width="0.085" stroke-linecap="round" stroke-linejoin="round" stroke-miterlimit="10" points="
		303.47,163.5 291.698,163.5 291.698,196.116 303.47,196.116 303.47,163.5 	"/>
	
		<polyline fill="none" stroke="#070707" stroke-width="0.085" stroke-linecap="round" stroke-linejoin="round" stroke-miterlimit="10" points="
		290.833,163.5 279.17,163.5 279.17,196.116 290.833,196.116 290.833,163.5 	"/>
	
		<polyline fill="none" stroke="#070707" stroke-width="0.085" stroke-linecap="round" stroke-linejoin="round" stroke-miterlimit="10" points="
		273.554,163.5 261.782,163.5 261.782,196.116 273.554,196.116 273.554,163.5 	"/>
	
		<polyline fill="none" stroke="#070707" stroke-width="0.085" stroke-linecap="round" stroke-linejoin="round" stroke-miterlimit="10" points="
		260.917,163.5 249.254,163.5 249.254,196.116 260.917,196.116 260.917,163.5 	"/>
	
		<polyline fill="none" stroke="#070707" stroke-width="0.085" stroke-linecap="round" stroke-linejoin="round" stroke-miterlimit="10" points="
		248.39,163.5 236.617,163.5 236.617,196.116 248.39,196.116 248.39,163.5 	"/>
	
		<polyline fill="none" stroke="#070707" stroke-width="0.085" stroke-linecap="round" stroke-linejoin="round" stroke-miterlimit="10" points="
		303.47,123.432 297.638,119.112 291.698,123.432 291.698,157.885 303.47,157.885 303.47,123.432 	"/>
	
		<polyline fill="none" stroke="#070707" stroke-width="0.085" stroke-linecap="round" stroke-linejoin="round" stroke-miterlimit="10" points="
		303.038,123.648 297.638,119.544 292.13,123.648 292.13,157.452 303.038,157.452 303.038,123.648 	"/>
	
		<polyline fill="none" stroke="#070707" stroke-width="0.085" stroke-linecap="round" stroke-linejoin="round" stroke-miterlimit="10" points="
		290.833,124.08 279.17,132.828 279.17,157.885 290.833,157.885 290.833,124.08 	"/>
	
		<polyline fill="none" stroke="#070707" stroke-width="0.085" stroke-linecap="round" stroke-linejoin="round" stroke-miterlimit="10" points="
		290.51,124.836 279.493,133.044 279.493,157.452 290.51,157.452 290.51,124.836 	"/>
	
		<polyline fill="none" stroke="#070707" stroke-width="0.085" stroke-linecap="round" stroke-linejoin="round" stroke-miterlimit="10" points="
		304.333,124.08 316.105,132.828 316.105,157.885 304.333,157.885 304.333,124.08 	"/>
	
		<polyline fill="none" stroke="#070707" stroke-width="0.085" stroke-linecap="round" stroke-linejoin="round" stroke-miterlimit="10" points="
		304.766,124.836 315.675,133.044 315.675,157.452 304.766,157.452 304.766,124.836 	"/>
	
		<polyline fill="none" stroke="#070707" stroke-width="0.085" stroke-linecap="round" stroke-linejoin="round" stroke-miterlimit="10" points="
		273.122,163.824 262.214,163.824 262.214,195.792 273.122,195.792 273.122,163.824 	"/>
	
		<polyline fill="none" stroke="#070707" stroke-width="0.085" stroke-linecap="round" stroke-linejoin="round" stroke-miterlimit="10" points="
		260.594,163.824 249.577,163.824 249.577,195.792 260.594,195.792 260.594,163.824 	"/>
	
		<polyline fill="none" stroke="#070707" stroke-width="0.085" stroke-linecap="round" stroke-linejoin="round" stroke-miterlimit="10" points="
		247.958,163.824 237.05,163.824 237.05,195.792 247.958,195.792 247.958,163.824 	"/>
	
		<line fill="none" stroke="#070707" stroke-width="0.085" stroke-linecap="round" stroke-linejoin="round" stroke-miterlimit="10" x1="242.449" y1="195.792" x2="242.449" y2="163.824"/>
	
		<line fill="none" stroke="#070707" stroke-width="0.085" stroke-linecap="round" stroke-linejoin="round" stroke-miterlimit="10" x1="255.087" y1="195.792" x2="255.087" y2="163.824"/>
	
		<line fill="none" stroke="#070707" stroke-width="0.085" stroke-linecap="round" stroke-linejoin="round" stroke-miterlimit="10" x1="267.722" y1="195.792" x2="267.722" y2="163.824"/>
	
		<polyline fill="none" stroke="#070707" stroke-width="0.085" stroke-linecap="round" stroke-linejoin="round" stroke-miterlimit="10" points="
		315.675,163.824 304.766,163.824 304.766,195.792 315.675,195.792 315.675,163.824 	"/>
	
		<polyline fill="none" stroke="#070707" stroke-width="0.085" stroke-linecap="round" stroke-linejoin="round" stroke-miterlimit="10" points="
		303.038,163.824 292.13,163.824 292.13,195.792 303.038,195.792 303.038,163.824 	"/>
	
		<polyline fill="none" stroke="#070707" stroke-width="0.085" stroke-linecap="round" stroke-linejoin="round" stroke-miterlimit="10" points="
		290.51,163.824 279.493,163.824 279.493,195.792 290.51,195.792 290.51,163.824 	"/>
	
		<line fill="none" stroke="#070707" stroke-width="0.085" stroke-linecap="round" stroke-linejoin="round" stroke-miterlimit="10" x1="285.003" y1="195.792" x2="285.003" y2="163.824"/>
	
		<line fill="none" stroke="#070707" stroke-width="0.085" stroke-linecap="round" stroke-linejoin="round" stroke-miterlimit="10" x1="297.638" y1="195.792" x2="297.638" y2="163.824"/>
	
		<line fill="none" stroke="#070707" stroke-width="0.085" stroke-linecap="round" stroke-linejoin="round" stroke-miterlimit="10" x1="310.165" y1="195.792" x2="310.165" y2="163.824"/>
	
		<polyline fill="none" stroke="#070707" stroke-width="0.085" stroke-linecap="round" stroke-linejoin="round" stroke-miterlimit="10" points="
		358.226,163.824 347.21,163.824 347.21,195.792 358.226,195.792 358.226,163.824 	"/>
	
		<polyline fill="none" stroke="#070707" stroke-width="0.085" stroke-linecap="round" stroke-linejoin="round" stroke-miterlimit="10" points="
		345.589,163.824 334.682,163.824 334.682,195.792 345.589,195.792 345.589,163.824 	"/>
	
		<polyline fill="none" stroke="#070707" stroke-width="0.085" stroke-linecap="round" stroke-linejoin="round" stroke-miterlimit="10" points="
		332.954,163.824 322.047,163.824 322.047,195.792 332.954,195.792 332.954,163.824 	"/>
	
		<line fill="none" stroke="#070707" stroke-width="0.085" stroke-linecap="round" stroke-linejoin="round" stroke-miterlimit="10" x1="327.554" y1="195.792" x2="327.554" y2="163.824"/>
	
		<line fill="none" stroke="#070707" stroke-width="0.085" stroke-linecap="round" stroke-linejoin="round" stroke-miterlimit="10" x1="340.082" y1="195.792" x2="340.082" y2="163.824"/>
	
		<line fill="none" stroke="#070707" stroke-width="0.085" stroke-linecap="round" stroke-linejoin="round" stroke-miterlimit="10" x1="352.717" y1="195.792" x2="352.717" y2="163.824"/>
	
		<polyline fill="none" stroke="#070707" stroke-width="0.085" stroke-linecap="round" stroke-linejoin="round" stroke-miterlimit="10" points="
		358.226,202.165 347.21,202.165 347.21,234.024 358.226,234.024 358.226,202.165 	"/>
	
		<polyline fill="none" stroke="#070707" stroke-width="0.085" stroke-linecap="round" stroke-linejoin="round" stroke-miterlimit="10" points="
		345.589,202.165 334.682,202.165 334.682,234.024 345.589,234.024 345.589,202.165 	"/>
	
		<polyline fill="none" stroke="#070707" stroke-width="0.085" stroke-linecap="round" stroke-linejoin="round" stroke-miterlimit="10" points="
		332.954,202.165 322.047,202.165 322.047,234.024 332.954,234.024 332.954,202.165 	"/>
	
		<line fill="none" stroke="#070707" stroke-width="0.085" stroke-linecap="round" stroke-linejoin="round" stroke-miterlimit="10" x1="327.554" y1="234.024" x2="327.554" y2="202.165"/>
	
		<line fill="none" stroke="#070707" stroke-width="0.085" stroke-linecap="round" stroke-linejoin="round" stroke-miterlimit="10" x1="340.082" y1="234.024" x2="340.082" y2="202.165"/>
	
		<line fill="none" stroke="#070707" stroke-width="0.085" stroke-linecap="round" stroke-linejoin="round" stroke-miterlimit="10" x1="352.717" y1="234.024" x2="352.717" y2="202.165"/>
	
		<polyline fill="none" stroke="#070707" stroke-width="0.085" stroke-linecap="round" stroke-linejoin="round" stroke-miterlimit="10" points="
		273.122,202.165 262.214,202.165 262.214,234.024 273.122,234.024 273.122,202.165 	"/>
	
		<polyline fill="none" stroke="#070707" stroke-width="0.085" stroke-linecap="round" stroke-linejoin="round" stroke-miterlimit="10" points="
		260.594,202.165 249.577,202.165 249.577,234.024 260.594,234.024 260.594,202.165 	"/>
	
		<polyline fill="none" stroke="#070707" stroke-width="0.085" stroke-linecap="round" stroke-linejoin="round" stroke-miterlimit="10" points="
		247.958,202.165 237.05,202.165 237.05,234.024 247.958,234.024 247.958,202.165 	"/>
	
		<line fill="none" stroke="#070707" stroke-width="0.085" stroke-linecap="round" stroke-linejoin="round" stroke-miterlimit="10" x1="242.449" y1="234.024" x2="242.449" y2="202.165"/>
	
		<line fill="none" stroke="#070707" stroke-width="0.085" stroke-linecap="round" stroke-linejoin="round" stroke-miterlimit="10" x1="255.087" y1="234.024" x2="255.087" y2="202.165"/>
	
		<line fill="none" stroke="#070707" stroke-width="0.085" stroke-linecap="round" stroke-linejoin="round" stroke-miterlimit="10" x1="267.722" y1="234.024" x2="267.722" y2="202.165"/>
	
		<line fill="none" stroke="#070707" stroke-width="0.085" stroke-linecap="round" stroke-linejoin="round" stroke-miterlimit="10" x1="297.638" y1="157.452" x2="297.638" y2="119.544"/>
	
		<line fill="none" stroke="#070707" stroke-width="0.085" stroke-linecap="round" stroke-linejoin="round" stroke-miterlimit="10" x1="285.003" y1="157.452" x2="285.003" y2="128.94"/>
	
		<line fill="none" stroke="#070707" stroke-width="0.085" stroke-linecap="round" stroke-linejoin="round" stroke-miterlimit="10" x1="310.165" y1="157.452" x2="310.165" y2="128.94"/>
</g>
</svg>
