<?xml version="1.0" encoding="utf-8"?>
<!-- Generator: Adobe Illustrator 15.0.2, SVG Export Plug-In . SVG Version: 6.00 Build 0)  -->
<!DOCTYPE svg PUBLIC "-//W3C//DTD SVG 1.1//EN" "http://www.w3.org/Graphics/SVG/1.1/DTD/svg11.dtd">
<svg version="1.1" xmlns="http://www.w3.org/2000/svg" xmlns:xlink="http://www.w3.org/1999/xlink" x="0px" y="0px"
	 width="595.28px" height="841.89px" viewBox="0 0 595.28 841.89" enable-background="new 0 0 595.28 841.89" xml:space="preserve">
<g id="MST">
	<g>
		<path d="M84.846,514.204c0-0.104,0.008-0.479,0-1.111c-0.008-0.271-0.04-0.447-0.192-0.447c-0.072,0-0.192,0.023-0.32,0.063
			l-0.56,0.185c-0.032,0.008-0.063,0.008-0.08-0.024l-0.064-0.144c-0.016-0.032-0.008-0.064,0.048-0.097l1.655-0.951
			c0.04-0.024,0.072-0.048,0.112-0.048c0.048,0,0.056,0.048,0.056,0.112c0,0.071-0.024,1.327-0.024,2.358v0.336
			c0,0.096,0.008,1.791,0.008,1.895c0.008,0.416,0.04,0.472,0.56,0.472h0.288c0.056,0,0.08,0.024,0.08,0.064v0.184
			c0,0.048-0.016,0.064-0.072,0.064c-0.072,0-1.16-0.024-1.231-0.024s-1.199,0.024-1.239,0.024s-0.064-0.017-0.064-0.064v-0.2
			c0-0.04,0.048-0.048,0.112-0.048h0.368c0.52,0,0.536-0.023,0.552-0.447c0.008-0.104,0.008-1.72,0.008-1.863V514.204z"/>
	</g>
	<g>
		<path d="M96.567,517.09c-0.136,0-0.28,0.008-0.4,0.016c-0.12,0.009-0.216,0.017-0.248,0.017c-0.04,0-0.064,0-0.088-0.048
			c-0.024-0.057-0.016-0.08,0.024-0.12c0.376-0.352,1.08-0.968,1.719-1.655s1.007-1.304,0.983-1.999
			c-0.024-0.712-0.456-1.136-1.031-1.127c-0.68,0.008-0.936,0.535-1.071,0.775c-0.032,0.056-0.056,0.063-0.096,0.04l-0.112-0.048
			c-0.024-0.017-0.032-0.04,0-0.112c0.128-0.312,0.52-1.199,1.599-1.199c0.671,0,1.399,0.552,1.399,1.455
			c0,0.68-0.271,1.256-0.991,2.062c-0.544,0.624-1.175,1.088-1.527,1.399h1.623c0.544,0,0.752-0.376,0.928-0.671
			c0.04-0.072,0.064-0.08,0.144-0.04c0.064,0.031,0.096,0.063,0.064,0.111l-0.52,1.247c-0.04,0.088,0.024,0.088-0.12,0.088
			c-0.072,0-0.072-0.008-0.104-0.079c-0.048-0.104-0.2-0.112-0.44-0.112H96.567z"/>
	</g>
	<g>
		<path d="M147.999,513.652c0.2-0.016,0.735,0.04,0.912,0.088c0.783,0.208,1.231,0.768,1.231,1.487
			c0.008,1.144-0.927,1.983-2.015,1.983c-0.592,0-1.04-0.216-1.04-0.448c0-0.111,0.072-0.208,0.176-0.208
			c0.144,0,0.28,0.089,0.4,0.16c0.12,0.072,0.392,0.152,0.632,0.152c0.624,0,1.247-0.528,1.247-1.231c0-0.56-0.184-1-0.704-1.224
			c-0.432-0.191-0.832-0.191-1.039-0.176c-0.048,0.008-0.088,0.016-0.144-0.016c-0.04-0.017-0.048-0.04-0.04-0.088l0.288-2.255
			c0.008-0.096,0.024-0.128,0.128-0.128h1.711c0.28,0,0.352-0.136,0.488-0.4c0.024-0.048,0.048-0.056,0.096-0.04
			c0.088,0.04,0.128,0.049,0.112,0.097l-0.288,0.799c-0.056,0.128-0.096,0.16-0.344,0.16h-1.663L147.999,513.652z"/>
	</g>
	<polyline fill="none" stroke="#010101" stroke-width="0.1" stroke-linecap="square" stroke-miterlimit="10" points="
		85.039,526.462 85.039,520.09 97.783,520.09 97.783,526.462 148.867,526.462 148.867,520.09 	"/>
</g>
<g id="HAUS_OHNE_EIGENSCHAFTEN">
	<g>
		<path d="M29.536,31.537c0-0.62-0.02-1.969-0.02-2.109c0-0.509-0.07-0.649-0.34-0.649h-0.41c-0.11,0-0.12-0.04-0.12-0.1v-0.19
			c0-0.06,0.01-0.12,0.11-0.12c0.17,0,0.49,0.03,1.489,0.03c0.979,0,1.339-0.03,1.509-0.03c0.11,0,0.12,0.03,0.12,0.11v0.21
			c0,0.06-0.01,0.09-0.12,0.09h-0.24c-0.36,0-0.41,0.17-0.44,0.55c-0.01,0.14-0.06,1.459-0.06,2.019v0.15
			c0,0.05,0.03,0.08,0.16,0.08h2.988c0.15,0,0.2-0.02,0.2-0.13v-0.1c0-0.569-0.07-1.958-0.07-2.059c-0.01-0.32-0.05-0.51-0.23-0.51
			h-0.41c-0.09,0-0.1-0.03-0.1-0.1v-0.22c0-0.06,0.01-0.09,0.09-0.09c0.18,0,0.61,0.03,1.459,0.03c0.83,0,1.249-0.03,1.379-0.03
			c0.12,0,0.13,0.03,0.13,0.11v0.19c0,0.07-0.01,0.11-0.13,0.11h-0.3c-0.29,0-0.32,0.17-0.32,0.51c0,0.14-0.02,1.829-0.02,2.199
			v0.34c0,0.32,0.02,2.219,0.03,2.769c0,0.36,0.1,0.5,0.4,0.5h0.34c0.08,0,0.09,0.03,0.09,0.09v0.22c0,0.05-0.01,0.1-0.11,0.1
			c-0.16,0-0.5-0.03-1.399-0.03c-1.02,0-1.339,0.03-1.569,0.03c-0.11,0-0.13-0.05-0.13-0.1v-0.22c0-0.06,0.01-0.09,0.11-0.09h0.439
			c0.24,0,0.27-0.19,0.28-0.439c0.02-0.47,0.04-2.079,0.04-2.399v-0.12c0-0.11-0.1-0.12-0.22-0.12h-2.988
			c-0.11,0-0.14,0.03-0.14,0.12v0.15c0,0.25,0.04,1.789,0.07,2.469c0.01,0.24,0.11,0.34,0.33,0.34h0.28c0.08,0,0.09,0.02,0.09,0.08
			v0.24c0,0.06-0.01,0.09-0.09,0.09c-0.18,0-0.53-0.03-1.369-0.03c-1.06,0-1.359,0.03-1.559,0.03c-0.09,0-0.1-0.03-0.1-0.11v-0.21
			c0-0.07,0.01-0.09,0.1-0.09h0.459c0.25,0,0.28-0.24,0.28-0.459c0.01-0.47,0.03-2.409,0.03-2.669V31.537z"/>
		<path d="M39.575,32.286c0-0.2-0.02-0.43-0.15-0.549c-0.1-0.09-0.26-0.12-0.42-0.12c-0.18,0-0.35,0.04-0.53,0.16
			c-0.15,0.1-0.03,0.27-0.03,0.589c0,0.34-0.25,0.57-0.649,0.57c-0.23,0-0.43-0.14-0.43-0.36s0.07-0.52,0.28-0.7
			c0.419-0.38,1.109-0.739,1.919-0.739c0.64,0,0.81,0.1,1.019,0.29c0.22,0.2,0.28,0.49,0.28,0.85l0.02,1.989
			c0.01,0.52,0.04,0.68,0.23,0.68c0.14,0,0.25-0.11,0.29-0.18c0.04-0.06,0.07-0.07,0.1-0.05l0.14,0.08
			c0.04,0.02,0.07,0.05,0.03,0.14c-0.09,0.21-0.39,0.68-1.009,0.68c-0.39,0-0.759-0.14-0.949-0.61h-0.05
			c-0.25,0.23-0.459,0.37-0.859,0.52c-0.2,0.07-0.43,0.09-0.72,0.09c-0.35,0-0.66-0.38-0.66-0.92c0-0.439,0.21-0.899,0.86-1.219
			c0.779-0.37,1.029-0.479,1.289-0.66V32.286z M39.585,33.216c-0.49,0.28-0.9,0.43-0.9,1.12c0,0.459,0.21,0.649,0.43,0.659
			c0.27-0.02,0.47-0.27,0.47-0.359V33.216z"/>
		<path d="M45.524,35.575c-0.06,0.02-0.13,0.04-0.22,0.04c-0.1,0-0.16-0.05-0.17-0.12l-0.06-0.54h-0.06
			c-0.2,0.35-0.779,0.66-1.319,0.66c-0.399,0-0.699,0-1.049-0.46c-0.419-0.56-0.38-0.879-0.38-1.739l0.01-0.439
			c0-0.38,0-0.78-0.01-1c-0.01-0.24-0.22-0.33-0.34-0.35c-0.169-0.03-0.22-0.02-0.22-0.07v-0.2c0-0.06,0.02-0.08,0.11-0.08h1.459
			c0.06,0,0.1-0.01,0.14-0.02c0.04,0,0.08-0.01,0.11-0.01c0.07,0,0.12,0.05,0.11,0.12c-0.01,0.09-0.04,0.56-0.04,1.35v0.54
			c0,0.4-0.06,1.149,0.19,1.539c0.15,0.23,0.31,0.21,0.49,0.21c0.17,0,0.39-0.13,0.54-0.32c0.09-0.1,0.16-0.26,0.16-0.36
			l-0.01-2.349c0-0.25-0.18-0.33-0.43-0.35c-0.12-0.01-0.17-0.02-0.17-0.07v-0.19c0-0.08,0.02-0.09,0.12-0.09h1.489
			c0.07,0,0.12-0.01,0.17-0.02c0.05,0,0.09-0.01,0.12-0.01c0.06,0,0.1,0.05,0.09,0.1c-0.01,0.09-0.06,0.35-0.06,1.359v0.74
			c0,0.479,0,0.969,0.02,1.149c0.03,0.31,0.14,0.35,0.18,0.35c0.06,0,0.21,0,0.33-0.03c0.08-0.02,0.11,0,0.12,0.04l0.03,0.19
			c0.01,0.05-0.01,0.07-0.05,0.08L45.524,35.575z"/>
		<path d="M50.484,32.276c0.01,0.05,0,0.07-0.04,0.09l-0.18,0.08c-0.03,0.02-0.06,0.01-0.1-0.03l-0.56-0.6
			c-0.13-0.13-0.32-0.29-0.62-0.29s-0.59,0.2-0.59,0.54c0.02,0.35,0.14,0.45,0.88,0.65c0.49,0.13,0.729,0.2,1.029,0.52
			c0.26,0.26,0.32,0.5,0.32,0.85c0,0.89-0.7,1.529-1.789,1.529c-0.56,0-1.049-0.2-1.169-0.29c-0.04-0.03-0.05-0.07-0.06-0.13
			l-0.13-0.959c0-0.05,0.03-0.07,0.07-0.08l0.18-0.05c0.03-0.01,0.05,0,0.07,0.04l0.4,0.589c0.18,0.26,0.41,0.51,0.87,0.51
			c0.37,0,0.589-0.26,0.589-0.609c0-0.4-0.29-0.53-0.939-0.73c-0.709-0.209-1.219-0.549-1.219-1.269c0-0.47,0.14-0.859,0.52-1.14
			c0.399-0.29,0.679-0.359,1.099-0.359c0.54,0,0.87,0.12,1.049,0.209c0.15,0.07,0.17,0.12,0.18,0.19L50.484,32.276z"/>
		<path d="M53.776,34.885c-0.38-0.419-0.53-0.949-0.53-1.579c0-0.45,0.25-1.189,0.859-1.659c0.51-0.399,1.02-0.509,1.489-0.509
			c0.69,0,1.16,0.209,1.609,0.629c0.49,0.44,0.689,0.979,0.689,1.589c0,0.58-0.25,1.139-0.64,1.559c-0.479,0.5-1.06,0.7-1.739,0.7
			C54.785,35.615,54.286,35.465,53.776,34.885z M56.375,33.286c0-1.159-0.4-1.729-0.84-1.729c-0.25,0-0.41,0.07-0.54,0.27
			c-0.2,0.31-0.33,0.74-0.33,1.549c0,0.58,0.05,0.959,0.25,1.389c0.13,0.27,0.29,0.43,0.66,0.43
			C56.125,35.195,56.375,34.385,56.375,33.286z"/>
		<path d="M60.215,34.715c0,0.3,0.06,0.41,0.15,0.41h0.2c0.05,0,0.08,0.02,0.08,0.08v0.19c0,0.07-0.01,0.11-0.07,0.11
			c-0.08,0-0.54-0.03-1.129-0.03c-0.7,0-1.08,0.03-1.169,0.03c-0.04,0-0.07-0.03-0.07-0.1v-0.2c0-0.07,0.04-0.08,0.15-0.08h0.16
			c0.16,0,0.31-0.04,0.34-0.17c0.05-0.18,0.05-0.36,0.05-0.66l-0.02-4.158c0-0.5-0.13-0.79-0.47-0.919l-0.18-0.06
			c-0.06-0.03-0.08-0.06-0.08-0.09v-0.13c0-0.04,0.03-0.08,0.17-0.12c0.55-0.16,0.91-0.32,1.509-0.61c0.13-0.06,0.21-0.1,0.31-0.1
			c0.09,0,0.11,0.08,0.09,0.25s-0.03,2.199-0.03,2.789v0.6h0.07c0.24-0.38,0.729-0.609,1.279-0.609c0.45,0,0.709,0.13,1.02,0.39
			c0.47,0.39,0.43,0.89,0.43,1.529v0.62c0,0.5-0.02,1.109-0.02,1.299c0,0.14,0.2,0.15,0.32,0.15h0.19c0.08,0,0.11,0.02,0.11,0.07
			v0.21c0,0.06-0.02,0.1-0.08,0.1c-0.07,0-0.39-0.03-1.089-0.03c-0.689,0-1.049,0.03-1.139,0.03c-0.07,0-0.09-0.03-0.09-0.11v-0.19
			c0-0.05,0.01-0.08,0.07-0.08h0.13c0.09,0,0.22-0.05,0.24-0.19c0.01-0.14,0.03-0.67,0.03-0.97v-0.609
			c0-0.49,0.03-1.189-0.229-1.449c-0.14-0.14-0.26-0.19-0.47-0.19c-0.22,0-0.44,0.18-0.59,0.35c-0.08,0.1-0.17,0.23-0.17,0.49
			V34.715z"/>
		<path d="M65.845,31.687h0.08c0.11-0.13,0.29-0.26,0.48-0.36c0.22-0.12,0.439-0.189,0.77-0.189c0.39,0,0.77,0.04,1.029,0.28
			c0.42,0.39,0.45,0.64,0.45,1.139v1.06c0,0.34-0.02,0.81-0.04,1.159c-0.01,0.3,0.15,0.35,0.24,0.35h0.27
			c0.09,0,0.11,0.03,0.11,0.09v0.18c0,0.07-0.02,0.11-0.08,0.11c-0.07,0-0.38-0.03-1.18-0.03c-0.66,0-0.979,0.03-1.049,0.03
			c-0.06,0-0.08-0.03-0.08-0.11v-0.18c0-0.07,0.03-0.09,0.13-0.09h0.11c0.07,0,0.16-0.05,0.18-0.23c0.04-0.26,0.06-0.58,0.06-1.04
			v-1.069c0-0.38-0.03-0.64-0.24-0.83c-0.18-0.16-0.32-0.18-0.49-0.18c-0.18,0-0.31,0.05-0.51,0.2c-0.12,0.09-0.2,0.36-0.2,0.77
			l-0.02,2.049c0,0.18,0.07,0.33,0.16,0.33h0.13c0.08,0,0.1,0.03,0.1,0.1v0.19c0,0.06-0.02,0.09-0.07,0.09c-0.07,0-0.34-0.03-1-0.03
			c-0.709,0-1.029,0.03-1.089,0.03c-0.05,0-0.07-0.03-0.07-0.09v-0.2c0-0.06,0.02-0.09,0.1-0.09h0.15c0.11,0,0.28-0.03,0.28-0.2
			v-2.219c0-0.3-0.17-0.47-0.4-0.58l-0.09-0.04c-0.06-0.03-0.07-0.07-0.07-0.11v-0.09c0-0.05,0.04-0.08,0.09-0.1l1.279-0.58
			c0.08-0.03,0.15-0.07,0.23-0.07c0.06,0,0.12,0.05,0.14,0.12L65.845,31.687z"/>
		<path d="M70.996,32.986v0.27c0,1.04,0.59,1.549,1.319,1.549c0.49,0,0.89-0.23,1.089-0.55c0.02-0.05,0.06-0.06,0.1-0.03l0.17,0.09
			c0.04,0.02,0.07,0.07-0.02,0.24c-0.18,0.37-0.83,1.06-1.769,1.06c-0.64,0-1.169-0.11-1.5-0.47c-0.51-0.55-0.679-0.94-0.689-1.719
			c0-0.28,0-0.81,0.45-1.469c0.36-0.53,0.97-0.819,1.739-0.819c1.619,0,1.709,1.549,1.709,1.709c0,0.13-0.09,0.14-0.31,0.14H70.996z
			 M71.965,32.606c0.22,0,0.32-0.05,0.32-0.2c0-0.44-0.18-0.87-0.49-0.87c-0.47,0-0.719,0.37-0.79,1.069H71.965z"/>
		<path d="M78.645,31.646c0.46,0,0.9-0.03,1.02-0.06c0.17-0.04,0.31-0.13,0.46-0.31c0.11-0.15,0.23-0.43,0.23-0.62
			c0-0.07,0.03-0.09,0.08-0.09l0.27,0.03c0.05,0.01,0.09,0.02,0.08,0.08c-0.03,0.17-0.03,0.689-0.03,1.04
			c0,0.45,0.04,0.929,0.06,1.139c0.01,0.06-0.03,0.07-0.08,0.08l-0.24,0.05c-0.04,0.01-0.06-0.01-0.08-0.08
			c-0.04-0.16-0.14-0.39-0.2-0.51c-0.11-0.19-0.35-0.32-0.55-0.35c-0.27-0.04-0.58-0.06-1.02-0.06v0.6c0,0.54,0.05,1.509,0.05,1.689
			c0,0.52,0.11,0.7,0.24,0.759c0.15,0.06,0.34,0.09,0.839,0.09c0.17,0,0.59-0.01,0.8-0.03c0.2-0.02,0.5-0.12,0.76-0.33
			c0.26-0.21,0.819-0.83,1.019-1.069c0.04-0.04,0.07-0.05,0.1-0.03l0.17,0.1c0.04,0.02,0.05,0.05,0.04,0.08l-0.45,1.509
			c-0.03,0.09-0.1,0.15-0.22,0.15c-0.05,0-0.27-0.01-0.909-0.02c-0.65,0-1.709-0.01-3.438-0.01c-0.37,0-0.65,0.01-0.85,0.01
			c-0.21,0.01-0.34,0.02-0.43,0.02c-0.07,0-0.09-0.03-0.09-0.11v-0.21c0-0.06,0.03-0.09,0.1-0.09h0.3c0.46,0,0.5-0.07,0.5-0.419
			v-3.349c0-0.829-0.02-2.059-0.03-2.159c-0.04-0.32-0.14-0.39-0.41-0.39h-0.39c-0.04,0-0.05-0.03-0.05-0.1v-0.24
			c0-0.03,0.01-0.07,0.07-0.07c0.22,0,0.569,0.03,1.479,0.03l3.508-0.01c0.16,0,0.35-0.02,0.4-0.02c0.05,0,0.07,0.02,0.08,0.05
			c0.04,0.14,0.37,1.509,0.41,1.609c0.02,0.05,0.02,0.07-0.03,0.1l-0.16,0.08c-0.04,0.02-0.09,0.01-0.12-0.04
			c-0.05-0.08-0.95-0.979-1.18-1.119c-0.209-0.13-0.49-0.26-0.759-0.27l-1.319-0.04L78.645,31.646z"/>
		<path d="M85.555,35.504c-0.08,0-0.54-0.03-1.41-0.03c-0.58,0-0.969,0.03-1.079,0.03c-0.05,0-0.08-0.02-0.08-0.1v-0.2
			c0-0.06,0.03-0.08,0.1-0.08h0.37c0.11,0,0.18-0.04,0.19-0.2c0.02-0.3,0.02-0.609,0.02-0.889l-0.02-1.399
			c0-0.28-0.06-0.48-0.479-0.63c-0.11-0.04-0.12-0.08-0.12-0.14v-0.11c0-0.03,0.02-0.05,0.11-0.08l1.489-0.48
			c0.11-0.04,0.2-0.06,0.27-0.06c0.08,0,0.11,0.05,0.1,0.12c-0.02,0.17-0.02,0.8-0.02,1.679v1.069c0,0.39,0,0.75,0.01,0.859
			c0.02,0.19,0.07,0.26,0.18,0.26h0.36c0.08,0,0.1,0.03,0.1,0.09v0.19C85.645,35.475,85.625,35.504,85.555,35.504z M84.185,30.348
			c-0.399,0.01-0.699-0.26-0.699-0.65c0-0.32,0.33-0.61,0.75-0.61c0.47,0,0.709,0.3,0.709,0.58
			C84.945,29.988,84.725,30.337,84.185,30.348z"/>
		<path d="M86.315,37.883c-0.37-0.21-0.49-0.47-0.49-0.78c0-0.5,0.56-0.859,1.03-1.049v-0.05c-0.46-0.14-0.69-0.45-0.69-0.8
			c0-0.58,0.56-0.899,0.89-1.059v-0.03c-0.43-0.25-0.879-0.669-0.879-1.519c0-0.649,0.52-1.459,1.939-1.459
			c0.879,0,1.319,0.459,1.409,0.56c0.23-0.19,0.6-0.35,0.879-0.35c0.36,0,0.55,0.2,0.55,0.52c0,0.23-0.21,0.43-0.44,0.43
			c-0.17,0-0.25-0.07-0.31-0.17c-0.05-0.08-0.17-0.15-0.28-0.15c-0.05,0-0.14,0.04-0.189,0.09c0.04,0.07,0.12,0.29,0.12,0.65
			c0,0.379-0.11,0.75-0.45,1.079c-0.38,0.36-0.949,0.48-1.349,0.48c-0.2,0-0.34,0-0.59-0.03c-0.13,0.08-0.37,0.26-0.37,0.46
			c0,0.35,0.29,0.38,1.369,0.35c0.68-0.02,1.189,0.02,1.679,0.4c0.36,0.29,0.49,0.64,0.49,1.009c0,0.42-0.19,0.78-0.58,1.109
			c-0.37,0.3-1.129,0.62-2.139,0.62C87.435,38.193,86.706,38.113,86.315,37.883z M89.564,36.954c0-0.549-0.39-0.849-1.299-0.81
			l-0.87,0.04c-0.29,0.07-0.5,0.38-0.5,0.68c0,0.29,0.16,0.54,0.35,0.68c0.28,0.2,0.56,0.26,1.009,0.26
			C88.914,37.803,89.564,37.454,89.564,36.954z M87.575,31.836c-0.14,0.2-0.2,0.66-0.2,1.109c0,0.29,0.09,0.61,0.22,0.76
			c0.11,0.14,0.26,0.2,0.46,0.2c0.439,0,0.589-0.669,0.589-1.439c0-0.37-0.04-0.58-0.09-0.67c-0.09-0.169-0.21-0.28-0.49-0.28
			C87.845,31.517,87.715,31.637,87.575,31.836z"/>
		<path d="M92.325,32.986v0.27c0,1.04,0.59,1.549,1.319,1.549c0.49,0,0.89-0.23,1.089-0.55c0.02-0.05,0.06-0.06,0.1-0.03l0.17,0.09
			c0.04,0.02,0.07,0.07-0.02,0.24c-0.18,0.37-0.83,1.06-1.769,1.06c-0.64,0-1.169-0.11-1.5-0.47c-0.51-0.55-0.679-0.94-0.689-1.719
			c0-0.28,0-0.81,0.45-1.469c0.36-0.53,0.97-0.819,1.739-0.819c1.619,0,1.709,1.549,1.709,1.709c0,0.13-0.09,0.14-0.31,0.14H92.325z
			 M93.294,32.606c0.22,0,0.32-0.05,0.32-0.2c0-0.44-0.18-0.87-0.49-0.87c-0.47,0-0.719,0.37-0.79,1.069H93.294z"/>
		<path d="M97.334,31.687h0.08c0.11-0.13,0.29-0.26,0.48-0.36c0.22-0.12,0.439-0.189,0.77-0.189c0.39,0,0.77,0.04,1.029,0.28
			c0.42,0.39,0.45,0.64,0.45,1.139v1.06c0,0.34-0.02,0.81-0.04,1.159c-0.01,0.3,0.15,0.35,0.24,0.35h0.27
			c0.09,0,0.11,0.03,0.11,0.09v0.18c0,0.07-0.02,0.11-0.08,0.11c-0.07,0-0.38-0.03-1.18-0.03c-0.66,0-0.979,0.03-1.049,0.03
			c-0.06,0-0.08-0.03-0.08-0.11v-0.18c0-0.07,0.03-0.09,0.13-0.09h0.11c0.07,0,0.16-0.05,0.18-0.23c0.04-0.26,0.06-0.58,0.06-1.04
			v-1.069c0-0.38-0.03-0.64-0.24-0.83c-0.18-0.16-0.32-0.18-0.49-0.18c-0.18,0-0.31,0.05-0.51,0.2c-0.12,0.09-0.2,0.36-0.2,0.77
			l-0.02,2.049c0,0.18,0.07,0.33,0.16,0.33h0.13c0.08,0,0.1,0.03,0.1,0.1v0.19c0,0.06-0.02,0.09-0.07,0.09
			c-0.07,0-0.34-0.03-0.999-0.03c-0.71,0-1.03,0.03-1.09,0.03c-0.05,0-0.07-0.03-0.07-0.09v-0.2c0-0.06,0.02-0.09,0.1-0.09h0.15
			c0.11,0,0.28-0.03,0.28-0.2v-2.219c0-0.3-0.17-0.47-0.4-0.58l-0.09-0.04c-0.06-0.03-0.07-0.07-0.07-0.11v-0.09
			c0-0.05,0.04-0.08,0.09-0.1l1.279-0.58c0.08-0.03,0.15-0.07,0.23-0.07c0.06,0,0.12,0.05,0.14,0.12L97.334,31.687z"/>
		<path d="M104.303,32.276c0.01,0.05,0,0.07-0.04,0.09l-0.18,0.08c-0.03,0.02-0.06,0.01-0.1-0.03l-0.56-0.6
			c-0.13-0.13-0.32-0.29-0.62-0.29s-0.59,0.2-0.59,0.54c0.02,0.35,0.14,0.45,0.88,0.65c0.49,0.13,0.729,0.2,1.029,0.52
			c0.26,0.26,0.32,0.5,0.32,0.85c0,0.89-0.7,1.529-1.789,1.529c-0.56,0-1.049-0.2-1.169-0.29c-0.04-0.03-0.05-0.07-0.06-0.13
			l-0.13-0.959c0-0.05,0.03-0.07,0.07-0.08l0.18-0.05c0.03-0.01,0.05,0,0.07,0.04l0.4,0.589c0.18,0.26,0.41,0.51,0.87,0.51
			c0.37,0,0.589-0.26,0.589-0.609c0-0.4-0.29-0.53-0.939-0.73c-0.709-0.209-1.219-0.549-1.219-1.269c0-0.47,0.14-0.859,0.52-1.14
			c0.399-0.29,0.679-0.359,1.099-0.359c0.54,0,0.87,0.12,1.049,0.209c0.15,0.07,0.17,0.12,0.18,0.19L104.303,32.276z"/>
		<path d="M108.893,32.106c0,0.28-0.2,0.47-0.52,0.47c-0.419,0-0.64-0.28-0.72-0.53c-0.12-0.36-0.31-0.479-0.589-0.479
			c-0.27,0-0.66,0.39-0.66,1.02c0,0.629-0.02,1.079,0.32,1.699c0.25,0.45,0.62,0.58,1.069,0.58c0.46,0,0.68-0.09,1-0.32
			c0.05-0.03,0.08-0.05,0.11-0.01l0.14,0.14c0.03,0.04,0.02,0.08-0.01,0.13c-0.19,0.33-0.969,0.81-1.889,0.81
			c-0.75,0-1.25-0.21-1.569-0.61c-0.39-0.48-0.51-0.87-0.51-1.379c0-0.68,0.22-1.409,0.75-1.899c0.45-0.41,0.939-0.589,1.479-0.589
			C108.603,31.137,108.893,31.796,108.893,32.106z"/>
		<path d="M111.244,34.715c0,0.3,0.06,0.41,0.15,0.41h0.2c0.05,0,0.08,0.02,0.08,0.08v0.19c0,0.07-0.01,0.11-0.07,0.11
			c-0.08,0-0.54-0.03-1.129-0.03c-0.7,0-1.08,0.03-1.169,0.03c-0.04,0-0.07-0.03-0.07-0.1v-0.2c0-0.07,0.04-0.08,0.15-0.08h0.16
			c0.16,0,0.31-0.04,0.34-0.17c0.05-0.18,0.05-0.36,0.05-0.66l-0.02-4.158c0-0.5-0.13-0.79-0.47-0.919l-0.18-0.06
			c-0.06-0.03-0.08-0.06-0.08-0.09v-0.13c0-0.04,0.03-0.08,0.17-0.12c0.55-0.16,0.91-0.32,1.509-0.61c0.13-0.06,0.21-0.1,0.31-0.1
			c0.09,0,0.11,0.08,0.09,0.25s-0.03,2.199-0.03,2.789v0.6h0.07c0.24-0.38,0.729-0.609,1.279-0.609c0.45,0,0.709,0.13,1.02,0.39
			c0.47,0.39,0.43,0.89,0.43,1.529v0.62c0,0.5-0.02,1.109-0.02,1.299c0,0.14,0.2,0.15,0.32,0.15h0.19c0.08,0,0.11,0.02,0.11,0.07
			v0.21c0,0.06-0.02,0.1-0.08,0.1c-0.07,0-0.39-0.03-1.089-0.03c-0.689,0-1.049,0.03-1.139,0.03c-0.07,0-0.09-0.03-0.09-0.11v-0.19
			c0-0.05,0.01-0.08,0.07-0.08h0.13c0.09,0,0.22-0.05,0.24-0.19c0.01-0.14,0.03-0.67,0.03-0.97v-0.609
			c0-0.49,0.03-1.189-0.229-1.449c-0.14-0.14-0.26-0.19-0.47-0.19c-0.22,0-0.44,0.18-0.59,0.35c-0.08,0.1-0.17,0.23-0.17,0.49
			V34.715z"/>
		<path d="M117.314,32.286c0-0.2-0.02-0.43-0.15-0.549c-0.1-0.09-0.26-0.12-0.42-0.12c-0.18,0-0.35,0.04-0.529,0.16
			c-0.15,0.1-0.03,0.27-0.03,0.589c0,0.34-0.25,0.57-0.649,0.57c-0.23,0-0.43-0.14-0.43-0.36s0.07-0.52,0.28-0.7
			c0.419-0.38,1.109-0.739,1.919-0.739c0.64,0,0.81,0.1,1.019,0.29c0.22,0.2,0.28,0.49,0.28,0.85l0.02,1.989
			c0.01,0.52,0.04,0.68,0.23,0.68c0.14,0,0.25-0.11,0.29-0.18c0.04-0.06,0.07-0.07,0.1-0.05l0.14,0.08
			c0.04,0.02,0.07,0.05,0.03,0.14c-0.09,0.21-0.39,0.68-1.01,0.68c-0.39,0-0.759-0.14-0.949-0.61h-0.05
			c-0.25,0.23-0.459,0.37-0.859,0.52c-0.2,0.07-0.43,0.09-0.72,0.09c-0.35,0-0.66-0.38-0.66-0.92c0-0.439,0.21-0.899,0.86-1.219
			c0.779-0.37,1.029-0.479,1.289-0.66V32.286z M117.324,33.216c-0.49,0.28-0.9,0.43-0.9,1.12c0,0.459,0.21,0.649,0.43,0.659
			c0.27-0.02,0.47-0.27,0.47-0.359V33.216z"/>
		<path d="M121.544,31.807v0.87c0,0.479-0.03,1.749-0.01,2.139c0.01,0.22,0.13,0.31,0.29,0.31h0.36c0.09,0,0.11,0.02,0.11,0.08v0.2
			c0,0.06-0.02,0.1-0.07,0.1c-0.06,0-0.43-0.03-1.399-0.03c-0.65,0-1.16,0.03-1.239,0.03c-0.06,0-0.08-0.02-0.08-0.09v-0.22
			c0-0.05,0.02-0.07,0.1-0.07h0.33c0.19,0,0.27-0.12,0.27-0.33l-0.03-2.988h-0.64c-0.05,0-0.07-0.02-0.06-0.11l0.05-0.35
			c0.01-0.06,0.04-0.07,0.12-0.07h0.529v-0.3c0-1.049,0.33-1.699,0.84-2.179c0.54-0.5,1.069-0.689,1.689-0.689
			c0.59,0,1.029,0.24,1.029,0.699c0,0.31-0.32,0.5-0.55,0.5c-0.32,0-0.52-0.12-0.669-0.38c-0.12-0.2-0.26-0.3-0.36-0.3
			c-0.2,0-0.34,0.06-0.5,0.32c-0.18,0.28-0.11,0.989-0.11,1.909v0.42h1.159c0.07,0,0.08,0.06,0.07,0.1l-0.05,0.38
			c-0.01,0.04-0.05,0.05-0.13,0.05H121.544z"/>
		<path d="M124.884,34.016c0,0.819,0.31,0.999,0.55,0.999c0.21,0,0.36-0.03,0.52-0.12c0.03-0.02,0.06-0.02,0.09,0.04l0.07,0.15
			c0.03,0.05,0,0.1-0.04,0.13c-0.17,0.12-0.62,0.4-1.399,0.4c-0.68,0-1.109-0.47-1.109-0.93c0-0.35,0.02-1.109,0.02-1.489
			l0.01-1.319h-0.55c-0.09,0-0.16-0.04-0.16-0.14c0-0.1,0.06-0.17,0.22-0.25c0.33-0.15,1.169-0.899,1.539-1.319
			c0.07-0.08,0.14-0.1,0.19-0.1c0.09,0,0.13,0.07,0.13,0.15l-0.04,1.06h1.269c0.06,0,0.09,0.05,0.07,0.09l-0.1,0.43
			c-0.01,0.04-0.03,0.08-0.09,0.08h-1.169c-0.02,0.41-0.02,0.89-0.02,1.35V34.016z"/>
		<path d="M127.804,32.986v0.27c0,1.04,0.59,1.549,1.319,1.549c0.49,0,0.89-0.23,1.089-0.55c0.02-0.05,0.06-0.06,0.1-0.03l0.17,0.09
			c0.04,0.02,0.07,0.07-0.02,0.24c-0.18,0.37-0.83,1.06-1.769,1.06c-0.64,0-1.169-0.11-1.5-0.47c-0.509-0.55-0.679-0.94-0.689-1.719
			c0-0.28,0-0.81,0.45-1.469c0.36-0.53,0.97-0.819,1.739-0.819c1.619,0,1.709,1.549,1.709,1.709c0,0.13-0.09,0.14-0.31,0.14H127.804
			z M128.773,32.606c0.22,0,0.32-0.05,0.32-0.2c0-0.44-0.18-0.87-0.489-0.87c-0.47,0-0.72,0.37-0.79,1.069H128.773z"/>
		<path d="M132.813,31.687h0.08c0.11-0.13,0.29-0.26,0.48-0.36c0.22-0.12,0.439-0.189,0.77-0.189c0.39,0,0.77,0.04,1.029,0.28
			c0.42,0.39,0.45,0.64,0.45,1.139v1.06c0,0.34-0.02,0.81-0.04,1.159c-0.01,0.3,0.15,0.35,0.24,0.35h0.27
			c0.09,0,0.11,0.03,0.11,0.09v0.18c0,0.07-0.02,0.11-0.08,0.11c-0.07,0-0.38-0.03-1.18-0.03c-0.66,0-0.979,0.03-1.049,0.03
			c-0.06,0-0.08-0.03-0.08-0.11v-0.18c0-0.07,0.03-0.09,0.13-0.09h0.11c0.07,0,0.16-0.05,0.18-0.23c0.04-0.26,0.06-0.58,0.06-1.04
			v-1.069c0-0.38-0.03-0.64-0.24-0.83c-0.18-0.16-0.32-0.18-0.49-0.18c-0.18,0-0.31,0.05-0.51,0.2c-0.12,0.09-0.2,0.36-0.2,0.77
			l-0.02,2.049c0,0.18,0.07,0.33,0.16,0.33h0.13c0.08,0,0.1,0.03,0.1,0.1v0.19c0,0.06-0.02,0.09-0.07,0.09c-0.07,0-0.34-0.03-1-0.03
			c-0.709,0-1.029,0.03-1.089,0.03c-0.05,0-0.07-0.03-0.07-0.09v-0.2c0-0.06,0.02-0.09,0.1-0.09h0.15c0.11,0,0.28-0.03,0.28-0.2
			v-2.219c0-0.3-0.17-0.47-0.4-0.58l-0.09-0.04c-0.06-0.03-0.07-0.07-0.07-0.11v-0.09c0-0.05,0.04-0.08,0.09-0.1l1.279-0.58
			c0.08-0.03,0.15-0.07,0.23-0.07c0.06,0,0.12,0.05,0.14,0.12L132.813,31.687z"/>
	</g>
</g>
<g id="Layer_4">
	
		<line fill="none" stroke="#030303" stroke-width="0.0283" stroke-linecap="round" stroke-linejoin="round" stroke-miterlimit="10" x1="319.561" y1="490.929" x2="359.521" y2="490.929"/>
	
		<line fill="none" stroke="#030303" stroke-width="0.0283" stroke-linecap="round" stroke-linejoin="round" stroke-miterlimit="10" x1="319.561" y1="470.085" x2="359.521" y2="470.085"/>
	
		<line fill="none" stroke="#030303" stroke-width="0.0283" stroke-linecap="round" stroke-linejoin="round" stroke-miterlimit="10" x1="355.525" y1="522.681" x2="355.525" y2="456.044"/>
	
		<line fill="none" stroke="#030303" stroke-width="0.0283" stroke-linecap="round" stroke-linejoin="round" stroke-miterlimit="10" x1="351.53" y1="522.681" x2="351.53" y2="456.044"/>
	
		<line fill="none" stroke="#030303" stroke-width="0.0283" stroke-linecap="round" stroke-linejoin="round" stroke-miterlimit="10" x1="347.532" y1="522.681" x2="347.532" y2="456.044"/>
	
		<line fill="none" stroke="#030303" stroke-width="0.0283" stroke-linecap="round" stroke-linejoin="round" stroke-miterlimit="10" x1="339.542" y1="522.681" x2="339.542" y2="456.044"/>
	
		<line fill="none" stroke="#030303" stroke-width="0.0283" stroke-linecap="round" stroke-linejoin="round" stroke-miterlimit="10" x1="343.537" y1="522.681" x2="343.537" y2="456.044"/>
	
		<line fill="none" stroke="#030303" stroke-width="0.0283" stroke-linecap="round" stroke-linejoin="round" stroke-miterlimit="10" x1="323.558" y1="522.681" x2="323.558" y2="456.044"/>
	
		<line fill="none" stroke="#030303" stroke-width="0.0283" stroke-linecap="round" stroke-linejoin="round" stroke-miterlimit="10" x1="327.554" y1="522.681" x2="327.554" y2="456.044"/>
	
		<line fill="none" stroke="#030303" stroke-width="0.0283" stroke-linecap="round" stroke-linejoin="round" stroke-miterlimit="10" x1="331.549" y1="522.681" x2="331.549" y2="456.044"/>
	
		<line fill="none" stroke="#030303" stroke-width="0.0283" stroke-linecap="round" stroke-linejoin="round" stroke-miterlimit="10" x1="335.544" y1="522.681" x2="335.544" y2="456.044"/>
	
		<line fill="none" stroke="#030303" stroke-width="0.0283" stroke-linecap="round" stroke-linejoin="round" stroke-miterlimit="10" x1="319.561" y1="511.882" x2="359.521" y2="511.882"/>
	
		<line fill="none" stroke="#030303" stroke-width="0.0283" stroke-linecap="round" stroke-linejoin="round" stroke-miterlimit="10" x1="319.561" y1="501.406" x2="359.521" y2="501.406"/>
	
		<line fill="none" stroke="#030303" stroke-width="0.0283" stroke-linecap="round" stroke-linejoin="round" stroke-miterlimit="10" x1="319.561" y1="480.453" x2="359.521" y2="480.453"/>
	
		<line fill="none" stroke="#030303" stroke-width="0.0283" stroke-linecap="round" stroke-linejoin="round" stroke-miterlimit="10" x1="319.561" y1="459.609" x2="359.521" y2="459.609"/>
	
		<line fill="none" stroke="#030303" stroke-width="0.0283" stroke-linecap="round" stroke-linejoin="round" stroke-miterlimit="10" x1="319.561" y1="350.853" x2="359.521" y2="350.853"/>
	
		<line fill="none" stroke="#030303" stroke-width="0.0283" stroke-linecap="round" stroke-linejoin="round" stroke-miterlimit="10" x1="319.561" y1="371.806" x2="359.521" y2="371.806"/>
	
		<line fill="none" stroke="#030303" stroke-width="0.0283" stroke-linecap="round" stroke-linejoin="round" stroke-miterlimit="10" x1="355.525" y1="319.209" x2="355.525" y2="385.738"/>
	
		<line fill="none" stroke="#030303" stroke-width="0.0283" stroke-linecap="round" stroke-linejoin="round" stroke-miterlimit="10" x1="351.53" y1="319.209" x2="351.53" y2="385.738"/>
	
		<line fill="none" stroke="#030303" stroke-width="0.0283" stroke-linecap="round" stroke-linejoin="round" stroke-miterlimit="10" x1="347.532" y1="319.209" x2="347.532" y2="385.738"/>
	
		<line fill="none" stroke="#030303" stroke-width="0.0283" stroke-linecap="round" stroke-linejoin="round" stroke-miterlimit="10" x1="339.542" y1="319.209" x2="339.542" y2="385.738"/>
	
		<line fill="none" stroke="#030303" stroke-width="0.0283" stroke-linecap="round" stroke-linejoin="round" stroke-miterlimit="10" x1="343.537" y1="319.209" x2="343.537" y2="385.738"/>
	
		<line fill="none" stroke="#030303" stroke-width="0.0283" stroke-linecap="round" stroke-linejoin="round" stroke-miterlimit="10" x1="323.558" y1="319.209" x2="323.558" y2="385.738"/>
	
		<line fill="none" stroke="#030303" stroke-width="0.0283" stroke-linecap="round" stroke-linejoin="round" stroke-miterlimit="10" x1="327.554" y1="319.209" x2="327.554" y2="385.738"/>
	
		<line fill="none" stroke="#030303" stroke-width="0.0283" stroke-linecap="round" stroke-linejoin="round" stroke-miterlimit="10" x1="331.549" y1="319.209" x2="331.549" y2="385.738"/>
	
		<line fill="none" stroke="#030303" stroke-width="0.0283" stroke-linecap="round" stroke-linejoin="round" stroke-miterlimit="10" x1="335.544" y1="319.209" x2="335.544" y2="385.738"/>
	
		<line fill="none" stroke="#030303" stroke-width="0.0283" stroke-linecap="round" stroke-linejoin="round" stroke-miterlimit="10" x1="319.561" y1="329.902" x2="359.521" y2="329.902"/>
	
		<line fill="none" stroke="#030303" stroke-width="0.0283" stroke-linecap="round" stroke-linejoin="round" stroke-miterlimit="10" x1="319.561" y1="340.378" x2="359.521" y2="340.378"/>
	
		<line fill="none" stroke="#030303" stroke-width="0.0283" stroke-linecap="round" stroke-linejoin="round" stroke-miterlimit="10" x1="319.561" y1="361.33" x2="359.521" y2="361.33"/>
	
		<line fill="none" stroke="#030303" stroke-width="0.0283" stroke-linecap="round" stroke-linejoin="round" stroke-miterlimit="10" x1="319.561" y1="382.173" x2="359.521" y2="382.173"/>
	
		<line fill="none" stroke="#030303" stroke-width="0.0283" stroke-linecap="round" stroke-linejoin="round" stroke-miterlimit="10" x1="275.821" y1="490.929" x2="235.86" y2="490.929"/>
	
		<line fill="none" stroke="#030303" stroke-width="0.0283" stroke-linecap="round" stroke-linejoin="round" stroke-miterlimit="10" x1="275.821" y1="470.085" x2="235.86" y2="470.085"/>
	
		<line fill="none" stroke="#030303" stroke-width="0.0283" stroke-linecap="round" stroke-linejoin="round" stroke-miterlimit="10" x1="239.858" y1="522.681" x2="239.858" y2="456.044"/>
	
		<line fill="none" stroke="#030303" stroke-width="0.0283" stroke-linecap="round" stroke-linejoin="round" stroke-miterlimit="10" x1="243.854" y1="522.681" x2="243.854" y2="456.044"/>
	
		<line fill="none" stroke="#030303" stroke-width="0.0283" stroke-linecap="round" stroke-linejoin="round" stroke-miterlimit="10" x1="247.849" y1="522.681" x2="247.849" y2="456.044"/>
	
		<line fill="none" stroke="#030303" stroke-width="0.0283" stroke-linecap="round" stroke-linejoin="round" stroke-miterlimit="10" x1="255.842" y1="522.681" x2="255.842" y2="456.044"/>
	
		<line fill="none" stroke="#030303" stroke-width="0.0283" stroke-linecap="round" stroke-linejoin="round" stroke-miterlimit="10" x1="251.845" y1="522.681" x2="251.845" y2="456.044"/>
	
		<line fill="none" stroke="#030303" stroke-width="0.0283" stroke-linecap="round" stroke-linejoin="round" stroke-miterlimit="10" x1="271.825" y1="522.681" x2="271.825" y2="456.044"/>
	
		<line fill="none" stroke="#030303" stroke-width="0.0283" stroke-linecap="round" stroke-linejoin="round" stroke-miterlimit="10" x1="267.83" y1="522.681" x2="267.83" y2="456.044"/>
	
		<line fill="none" stroke="#030303" stroke-width="0.0283" stroke-linecap="round" stroke-linejoin="round" stroke-miterlimit="10" x1="263.833" y1="522.681" x2="263.833" y2="456.044"/>
	
		<line fill="none" stroke="#030303" stroke-width="0.0283" stroke-linecap="round" stroke-linejoin="round" stroke-miterlimit="10" x1="259.837" y1="522.681" x2="259.837" y2="456.044"/>
	
		<line fill="none" stroke="#030303" stroke-width="0.0283" stroke-linecap="round" stroke-linejoin="round" stroke-miterlimit="10" x1="275.821" y1="511.882" x2="235.86" y2="511.882"/>
	
		<line fill="none" stroke="#030303" stroke-width="0.0283" stroke-linecap="round" stroke-linejoin="round" stroke-miterlimit="10" x1="275.821" y1="501.406" x2="235.86" y2="501.406"/>
	
		<line fill="none" stroke="#030303" stroke-width="0.0283" stroke-linecap="round" stroke-linejoin="round" stroke-miterlimit="10" x1="275.821" y1="480.453" x2="235.86" y2="480.453"/>
	
		<line fill="none" stroke="#030303" stroke-width="0.0283" stroke-linecap="round" stroke-linejoin="round" stroke-miterlimit="10" x1="275.821" y1="459.609" x2="235.86" y2="459.609"/>
	
		<line fill="none" stroke="#030303" stroke-width="0.0283" stroke-linecap="round" stroke-linejoin="round" stroke-miterlimit="10" x1="275.821" y1="350.853" x2="235.86" y2="350.853"/>
	
		<line fill="none" stroke="#030303" stroke-width="0.0283" stroke-linecap="round" stroke-linejoin="round" stroke-miterlimit="10" x1="275.821" y1="371.806" x2="235.86" y2="371.806"/>
	
		<line fill="none" stroke="#090909" stroke-width="0.9921" stroke-linecap="round" stroke-linejoin="round" stroke-miterlimit="10" x1="319.561" y1="371.806" x2="319.561" y2="371.806"/>
	
		<line fill="none" stroke="#030303" stroke-width="0.085" stroke-linecap="round" stroke-linejoin="round" stroke-miterlimit="10" x1="309.409" y1="371.806" x2="329.714" y2="371.806"/>
	
		<path fill="none" stroke="#030303" stroke-width="0.085" stroke-linecap="round" stroke-linejoin="round" stroke-miterlimit="10" d="
		M309.519,371.806c0,5.547,4.496,10.043,10.044,10.043l0,0"/>
	
		<path fill="none" stroke="#030303" stroke-width="0.085" stroke-linecap="round" stroke-linejoin="round" stroke-miterlimit="10" d="
		M329.604,371.806c0-5.549-4.496-10.045-10.042-10.045l0,0"/>
	
		<line fill="none" stroke="#090909" stroke-width="0.9921" stroke-linecap="round" stroke-linejoin="round" stroke-miterlimit="10" x1="319.561" y1="329.902" x2="319.561" y2="329.902"/>
	
		<line fill="none" stroke="#030303" stroke-width="0.085" stroke-linecap="round" stroke-linejoin="round" stroke-miterlimit="10" x1="309.409" y1="329.902" x2="329.714" y2="329.902"/>
	
		<path fill="none" stroke="#030303" stroke-width="0.085" stroke-linecap="round" stroke-linejoin="round" stroke-miterlimit="10" d="
		M309.519,329.902c0,5.547,4.496,10.043,10.044,10.043l0,0"/>
	
		<path fill="none" stroke="#030303" stroke-width="0.085" stroke-linecap="round" stroke-linejoin="round" stroke-miterlimit="10" d="
		M329.604,329.902c0-5.547-4.496-10.045-10.042-10.045l0,0"/>
	
		<polyline fill="none" stroke="#030303" stroke-width="0.085" stroke-linecap="round" stroke-linejoin="round" stroke-miterlimit="10" points="
		254.87,400.318 264.265,400.318 264.265,441.464 254.87,441.464 254.87,400.318 	"/>
	
		<line fill="none" stroke="#030303" stroke-width="0.085" stroke-linecap="round" stroke-linejoin="round" stroke-miterlimit="10" x1="254.87" y1="410.578" x2="264.265" y2="410.578"/>
	
		<line fill="none" stroke="#030303" stroke-width="0.085" stroke-linecap="round" stroke-linejoin="round" stroke-miterlimit="10" x1="254.87" y1="420.945" x2="264.265" y2="420.945"/>
	
		<line fill="none" stroke="#030303" stroke-width="0.0283" stroke-linecap="round" stroke-linejoin="round" stroke-miterlimit="10" x1="260.702" y1="411.548" x2="260.702" y2="420.298"/>
	
		<line fill="none" stroke="#030303" stroke-width="0.0283" stroke-linecap="round" stroke-linejoin="round" stroke-miterlimit="10" x1="263.077" y1="411.548" x2="263.077" y2="420.298"/>
	
		<line fill="none" stroke="#030303" stroke-width="0.0283" stroke-linecap="round" stroke-linejoin="round" stroke-miterlimit="10" x1="258.433" y1="411.548" x2="258.433" y2="420.298"/>
	
		<line fill="none" stroke="#030303" stroke-width="0.0283" stroke-linecap="round" stroke-linejoin="round" stroke-miterlimit="10" x1="256.165" y1="411.548" x2="256.165" y2="420.298"/>
	
		<circle fill="none" stroke="#030303" stroke-width="0.0283" stroke-linecap="round" stroke-linejoin="round" stroke-miterlimit="10" cx="261.999" cy="407.986" r="1.188"/>
	
		<circle fill="none" stroke="#030303" stroke-width="0.0283" stroke-linecap="round" stroke-linejoin="round" stroke-miterlimit="10" cx="257.246" cy="407.986" r="1.188"/>
	
		<circle fill="none" stroke="#030303" stroke-width="0.0283" stroke-linecap="round" stroke-linejoin="round" stroke-miterlimit="10" cx="261.999" cy="403.018" r="1.188"/>
	
		<circle fill="none" stroke="#030303" stroke-width="0.0283" stroke-linecap="round" stroke-linejoin="round" stroke-miterlimit="10" cx="257.246" cy="403.018" r="1.188"/>
	
		<polyline fill="none" stroke="#030303" stroke-width="0.0283" stroke-linecap="round" stroke-linejoin="round" stroke-miterlimit="10" points="
		263.077,422.134 256.165,422.134 256.165,429.91 263.077,429.91 263.077,422.134 	"/>
	
		<line fill="none" stroke="#030303" stroke-width="0.0283" stroke-linecap="round" stroke-linejoin="round" stroke-miterlimit="10" x1="255.192" y1="426.021" x2="257.138" y2="426.021"/>
	
		<polyline fill="none" stroke="#030303" stroke-width="0.085" stroke-linecap="round" stroke-linejoin="round" stroke-miterlimit="10" points="
		247.958,400.318 254.87,400.318 254.87,441.464 247.958,441.464 247.958,400.318 	"/>
	
		<polyline fill="none" stroke="#030303" stroke-width="0.085" stroke-linecap="round" stroke-linejoin="round" stroke-miterlimit="10" points="
		247.958,410.578 254.87,410.578 247.958,410.578 	"/>
	
		<line fill="none" stroke="#030303" stroke-width="0.085" stroke-linecap="round" stroke-linejoin="round" stroke-miterlimit="10" x1="254.87" y1="420.945" x2="247.958" y2="420.945"/>
	<polyline fill="#030303" stroke="#030303" stroke-width="0.2551" stroke-linecap="square" stroke-miterlimit="10" points="
		318.265,454.857 315.133,454.857 315.133,456.044 318.265,456.044 318.265,459.287 319.561,459.287 319.561,456.044 
		322.802,456.044 322.802,454.857 319.561,454.857 319.561,451.617 318.265,451.617 318.265,454.857 	"/>
	
		<polyline fill="none" stroke="#070707" stroke-width="0.2551" stroke-linecap="round" stroke-linejoin="round" stroke-miterlimit="10" points="
		277.441,527.757 275.389,527.757 275.389,527.974 276.36,527.974 276.36,530.134 275.389,530.134 275.389,530.242 277.441,530.242 
		277.441,530.134 276.577,530.134 276.577,527.974 277.441,527.974 277.441,527.757 	"/>
	
		<polyline fill="none" stroke="#070707" stroke-width="0.2551" stroke-linecap="round" stroke-linejoin="round" stroke-miterlimit="10" points="
		319.453,526.462 318.481,526.462 318.481,527.757 319.453,527.757 319.453,526.462 	"/>
	
		<polyline fill="none" stroke="#070707" stroke-width="0.2551" stroke-linecap="round" stroke-linejoin="round" stroke-miterlimit="10" points="
		276.901,526.462 275.93,526.462 275.93,527.757 276.901,527.757 276.901,526.462 	"/>
	
		<polyline fill="none" stroke="#070707" stroke-width="0.2551" stroke-linecap="round" stroke-linejoin="round" stroke-miterlimit="10" points="
		319.993,527.757 317.941,527.757 317.941,527.974 318.805,527.974 318.805,530.134 317.941,530.134 317.941,530.242 
		319.993,530.242 319.993,530.134 319.021,530.134 319.021,527.974 319.993,527.974 319.993,527.757 	"/>
	<polyline fill="#030303" stroke="#030303" stroke-width="0.2551" stroke-linecap="square" stroke-miterlimit="10" points="
		275.821,454.857 272.581,454.857 272.581,456.044 275.821,456.044 275.821,459.287 277.116,459.287 277.116,456.044 
		280.249,456.044 280.249,454.857 277.116,454.857 277.116,451.617 275.821,451.617 275.821,454.857 	"/>
	
		<line fill="none" stroke="#030303" stroke-width="0.0283" stroke-linecap="round" stroke-linejoin="round" stroke-miterlimit="10" x1="276.47" y1="451.617" x2="276.47" y2="390.166"/>
	<polyline fill="#030303" stroke="#030303" stroke-width="0.2551" stroke-linecap="square" stroke-miterlimit="10" points="
		275.821,385.738 272.581,385.738 272.581,387.033 275.821,387.033 275.821,390.166 277.116,390.166 277.116,387.033 
		280.249,387.033 280.249,385.738 277.116,385.738 277.116,382.498 275.821,382.498 275.821,385.738 	"/>
	<polyline fill="#030303" stroke="#030303" stroke-width="0.2551" stroke-linecap="square" stroke-miterlimit="10" points="
		318.265,385.738 315.133,385.738 315.133,387.033 318.265,387.033 318.265,390.166 319.561,390.166 319.561,387.033 
		322.802,387.033 322.802,385.738 319.561,385.738 319.561,382.498 318.265,382.498 318.265,385.738 	"/>
	
		<line fill="none" stroke="#030303" stroke-width="0.0283" stroke-linecap="round" stroke-linejoin="round" stroke-miterlimit="10" x1="315.133" y1="455.398" x2="280.249" y2="455.398"/>
	
		<line fill="none" stroke="#030303" stroke-width="0.0283" stroke-linecap="round" stroke-linejoin="round" stroke-miterlimit="10" x1="315.133" y1="386.398" x2="280.249" y2="386.398"/>
	
		<polyline fill="none" stroke="#070707" stroke-width="0.2551" stroke-linecap="round" stroke-linejoin="round" stroke-miterlimit="10" points="
		278.305,522.681 297.638,522.681 297.638,526.462 278.305,526.462 278.305,522.681 	"/>
	
		<polyline fill="none" stroke="#070707" stroke-width="0.2551" stroke-linecap="round" stroke-linejoin="round" stroke-miterlimit="10" points="
		317.077,522.681 316.104,522.681 316.104,526.462 317.077,526.462 317.077,522.681 	"/>
	
		<polyline fill="none" stroke="#070707" stroke-width="0.1984" stroke-linecap="round" stroke-linejoin="round" stroke-miterlimit="10" points="
		296.772,528.406 317.077,528.406 317.077,527.109 296.772,527.109 296.772,528.406 	"/>
	
		<polyline fill="none" stroke="#030303" stroke-width="0.085" stroke-linecap="round" stroke-linejoin="round" stroke-miterlimit="10" points="
		321.072,539.853 274.31,539.853 274.31,530.242 321.072,530.242 321.072,539.853 	"/>
	
		<line fill="none" stroke="#030303" stroke-width="0.085" stroke-linecap="round" stroke-linejoin="round" stroke-miterlimit="10" x1="321.072" y1="533.482" x2="274.31" y2="533.482"/>
	
		<line fill="none" stroke="#030303" stroke-width="0.085" stroke-linecap="round" stroke-linejoin="round" stroke-miterlimit="10" x1="321.072" y1="536.615" x2="274.31" y2="536.615"/>
	
		<line fill="none" stroke="#030303" stroke-width="0.0283" stroke-linecap="round" stroke-linejoin="round" stroke-miterlimit="10" x1="296.772" y1="527.757" x2="277.441" y2="527.757"/>
	
		<polyline fill="none" stroke="#030303" stroke-width="0.085" stroke-linecap="round" stroke-linejoin="round" stroke-miterlimit="10" points="
		247.958,431.207 254.87,431.207 264.265,431.207 	"/>
	
		<line fill="none" stroke="#030303" stroke-width="0.085" stroke-linecap="round" stroke-linejoin="round" stroke-miterlimit="10" x1="316.104" y1="522.681" x2="297.638" y2="522.681"/>
	
		<line fill="none" stroke="#030303" stroke-width="0.085" stroke-linecap="round" stroke-linejoin="round" stroke-miterlimit="10" x1="316.104" y1="526.462" x2="316.104" y2="527.109"/>
	
		<line fill="none" stroke="#030303" stroke-width="0.085" stroke-linecap="round" stroke-linejoin="round" stroke-miterlimit="10" x1="297.638" y1="526.462" x2="297.638" y2="527.109"/>
	
		<polyline fill="none" stroke="#070707" stroke-width="0.1984" stroke-linecap="round" stroke-linejoin="round" stroke-miterlimit="10" points="
		319.561,382.498 318.265,382.498 318.265,381.849 319.561,381.849 319.561,382.498 	"/>
	
		<polyline fill="none" stroke="#070707" stroke-width="0.1984" stroke-linecap="round" stroke-linejoin="round" stroke-miterlimit="10" points="
		319.561,319.857 318.265,319.857 318.265,319.209 319.561,319.209 319.561,319.857 	"/>
	
		<line fill="none" stroke="#030303" stroke-width="0.085" stroke-linecap="round" stroke-linejoin="round" stroke-miterlimit="10" x1="319.561" y1="381.849" x2="319.561" y2="319.857"/>
	
		<line fill="none" stroke="#030303" stroke-width="0.085" stroke-linecap="round" stroke-linejoin="round" stroke-miterlimit="10" x1="318.265" y1="381.849" x2="318.265" y2="319.857"/>
	
		<polyline fill="none" stroke="#070707" stroke-width="0.1984" stroke-linecap="round" stroke-linejoin="round" stroke-miterlimit="10" points="
		319.561,361.654 318.265,361.654 318.265,361.005 319.561,361.005 319.561,361.654 	"/>
	
		<polyline fill="none" stroke="#070707" stroke-width="0.1984" stroke-linecap="round" stroke-linejoin="round" stroke-miterlimit="10" points="
		319.561,340.701 318.265,340.701 318.265,340.054 319.561,340.054 319.561,340.701 	"/>
	
		<line fill="none" stroke="#090909" stroke-width="0.9921" stroke-linecap="round" stroke-linejoin="round" stroke-miterlimit="10" x1="319.561" y1="350.853" x2="319.561" y2="350.853"/>
	
		<line fill="none" stroke="#030303" stroke-width="0.085" stroke-linecap="round" stroke-linejoin="round" stroke-miterlimit="10" x1="309.409" y1="350.853" x2="329.714" y2="350.853"/>
	
		<path fill="none" stroke="#030303" stroke-width="0.085" stroke-linecap="round" stroke-linejoin="round" stroke-miterlimit="10" d="
		M309.519,350.853c0,5.547,4.496,10.045,10.044,10.045l0,0"/>
	
		<path fill="none" stroke="#030303" stroke-width="0.085" stroke-linecap="round" stroke-linejoin="round" stroke-miterlimit="10" d="
		M329.604,350.853c0-5.547-4.496-10.043-10.042-10.043l0,0"/>
	
		<line fill="none" stroke="#090909" stroke-width="0.9921" stroke-linecap="round" stroke-linejoin="round" stroke-miterlimit="10" x1="275.821" y1="371.806" x2="275.821" y2="371.806"/>
	
		<path fill="none" stroke="#030303" stroke-width="0.085" stroke-linecap="round" stroke-linejoin="round" stroke-miterlimit="10" d="
		M275.823,381.849c5.545,0,10.042-4.496,10.042-10.045"/>
	
		<path fill="none" stroke="#030303" stroke-width="0.085" stroke-linecap="round" stroke-linejoin="round" stroke-miterlimit="10" d="
		M275.823,361.761c-5.549,0-10.045,4.496-10.045,10.043c0,0.002,0,0.002,0,0.002"/>
	
		<line fill="none" stroke="#090909" stroke-width="0.9921" stroke-linecap="round" stroke-linejoin="round" stroke-miterlimit="10" x1="275.821" y1="329.902" x2="275.821" y2="329.902"/>
	
		<path fill="none" stroke="#030303" stroke-width="0.085" stroke-linecap="round" stroke-linejoin="round" stroke-miterlimit="10" d="
		M275.823,339.945c5.545,0,10.042-4.496,10.042-10.043"/>
	
		<path fill="none" stroke="#030303" stroke-width="0.085" stroke-linecap="round" stroke-linejoin="round" stroke-miterlimit="10" d="
		M275.823,319.857c-5.549,0-10.045,4.498-10.045,10.045l0,0"/>
	
		<polyline fill="none" stroke="#070707" stroke-width="0.1984" stroke-linecap="round" stroke-linejoin="round" stroke-miterlimit="10" points="
		275.821,382.498 277.116,382.498 277.116,381.849 275.821,381.849 275.821,382.498 	"/>
	
		<polyline fill="none" stroke="#070707" stroke-width="0.1984" stroke-linecap="round" stroke-linejoin="round" stroke-miterlimit="10" points="
		275.821,319.857 277.116,319.857 277.116,319.209 275.821,319.209 275.821,319.857 	"/>
	
		<line fill="none" stroke="#030303" stroke-width="0.085" stroke-linecap="round" stroke-linejoin="round" stroke-miterlimit="10" x1="275.821" y1="381.849" x2="275.821" y2="319.857"/>
	
		<line fill="none" stroke="#030303" stroke-width="0.085" stroke-linecap="round" stroke-linejoin="round" stroke-miterlimit="10" x1="277.116" y1="381.849" x2="277.116" y2="319.857"/>
	
		<polyline fill="none" stroke="#070707" stroke-width="0.1984" stroke-linecap="round" stroke-linejoin="round" stroke-miterlimit="10" points="
		275.821,361.654 277.116,361.654 277.116,361.005 275.821,361.005 275.821,361.654 	"/>
	
		<polyline fill="none" stroke="#070707" stroke-width="0.1984" stroke-linecap="round" stroke-linejoin="round" stroke-miterlimit="10" points="
		275.821,340.701 277.116,340.701 277.116,340.054 275.821,340.054 275.821,340.701 	"/>
	
		<line fill="none" stroke="#090909" stroke-width="0.9921" stroke-linecap="round" stroke-linejoin="round" stroke-miterlimit="10" x1="275.821" y1="350.853" x2="275.821" y2="350.853"/>
	
		<path fill="none" stroke="#030303" stroke-width="0.085" stroke-linecap="round" stroke-linejoin="round" stroke-miterlimit="10" d="
		M275.823,360.898c5.545,0,10.042-4.498,10.042-10.045"/>
	
		<path fill="none" stroke="#030303" stroke-width="0.085" stroke-linecap="round" stroke-linejoin="round" stroke-miterlimit="10" d="
		M275.823,340.81c-5.549,0-10.045,4.496-10.045,10.043l0,0"/>
	
		<line fill="#030303" stroke="#030303" stroke-width="0.2551" stroke-linecap="square" stroke-miterlimit="10" x1="320.858" y1="526.462" x2="317.077" y2="526.462"/>
	
		<line fill="none" stroke="#030303" stroke-width="0.085" stroke-linecap="round" stroke-linejoin="round" stroke-miterlimit="10" x1="271.933" y1="456.044" x2="236.509" y2="456.044"/>
	
		<line fill="none" stroke="#030303" stroke-width="0.085" stroke-linecap="round" stroke-linejoin="round" stroke-miterlimit="10" x1="271.933" y1="454.857" x2="236.509" y2="454.857"/>
	
		<polyline fill="none" stroke="#070707" stroke-width="0.1984" stroke-linecap="round" stroke-linejoin="round" stroke-miterlimit="10" points="
		271.933,456.044 271.933,454.857 272.581,454.857 272.581,456.044 271.933,456.044 	"/>
	
		<polyline fill="none" stroke="#070707" stroke-width="0.1984" stroke-linecap="round" stroke-linejoin="round" stroke-miterlimit="10" points="
		236.509,456.044 236.509,454.857 235.86,454.857 235.86,456.044 236.509,456.044 	"/>
	
		<line fill="none" stroke="#090909" stroke-width="0.9921" stroke-linecap="round" stroke-linejoin="round" stroke-miterlimit="10" x1="275.821" y1="470.085" x2="275.821" y2="470.085"/>
	
		<line fill="none" stroke="#030303" stroke-width="0.085" stroke-linecap="round" stroke-linejoin="round" stroke-miterlimit="10" x1="285.972" y1="470.085" x2="265.669" y2="470.085"/>
	
		<path fill="none" stroke="#030303" stroke-width="0.085" stroke-linecap="round" stroke-linejoin="round" stroke-miterlimit="10" d="
		M285.865,470.085c0-5.547-4.497-10.043-10.042-10.043l0,0"/>
	
		<path fill="none" stroke="#030303" stroke-width="0.085" stroke-linecap="round" stroke-linejoin="round" stroke-miterlimit="10" d="
		M265.778,470.085c0,5.547,4.496,10.043,10.045,10.043l0,0"/>
	
		<line fill="none" stroke="#090909" stroke-width="0.9921" stroke-linecap="round" stroke-linejoin="round" stroke-miterlimit="10" x1="275.821" y1="511.882" x2="275.821" y2="511.882"/>
	
		<path fill="none" stroke="#030303" stroke-width="0.085" stroke-linecap="round" stroke-linejoin="round" stroke-miterlimit="10" d="
		M265.669,511.882"/>
	
		<path fill="none" stroke="#030303" stroke-width="0.085" stroke-linecap="round" stroke-linejoin="round" stroke-miterlimit="10" d="
		M285.972,511.882"/>
	
		<path fill="none" stroke="#030303" stroke-width="0.085" stroke-linecap="round" stroke-linejoin="round" stroke-miterlimit="10" d="
		M285.865,511.882c0-5.549-4.497-10.045-10.042-10.045l0,0"/>
	
		<path fill="none" stroke="#030303" stroke-width="0.085" stroke-linecap="round" stroke-linejoin="round" stroke-miterlimit="10" d="
		M265.778,511.882c0,5.545,4.496,10.043,10.045,10.043l0,0"/>
	
		<polyline fill="none" stroke="#070707" stroke-width="0.1984" stroke-linecap="round" stroke-linejoin="round" stroke-miterlimit="10" points="
		275.821,459.287 277.116,459.287 277.116,459.933 275.821,459.933 275.821,459.287 	"/>
	
		<polyline fill="none" stroke="#070707" stroke-width="0.1984" stroke-linecap="round" stroke-linejoin="round" stroke-miterlimit="10" points="
		275.821,522.033 277.116,522.033 277.116,522.681 275.821,522.681 275.821,522.033 	"/>
	
		<path fill="none" stroke="#030303" stroke-width="0.085" stroke-linecap="round" stroke-linejoin="round" stroke-miterlimit="10" d="
		M275.821,522.033"/>
	
		<path fill="none" stroke="#030303" stroke-width="0.085" stroke-linecap="round" stroke-linejoin="round" stroke-miterlimit="10" d="
		M275.821,459.933"/>
	
		<line fill="none" stroke="#030303" stroke-width="0.085" stroke-linecap="round" stroke-linejoin="round" stroke-miterlimit="10" x1="277.116" y1="459.933" x2="277.116" y2="522.033"/>
	
		<polyline fill="none" stroke="#070707" stroke-width="0.1984" stroke-linecap="round" stroke-linejoin="round" stroke-miterlimit="10" points="
		275.821,480.128 277.116,480.128 277.116,480.777 275.821,480.777 275.821,480.128 	"/>
	
		<polyline fill="none" stroke="#070707" stroke-width="0.1984" stroke-linecap="round" stroke-linejoin="round" stroke-miterlimit="10" points="
		275.821,501.082 277.116,501.082 277.116,501.73 275.821,501.73 275.821,501.082 	"/>
	
		<line fill="none" stroke="#090909" stroke-width="0.9921" stroke-linecap="round" stroke-linejoin="round" stroke-miterlimit="10" x1="275.821" y1="490.929" x2="275.821" y2="490.929"/>
	
		<line fill="none" stroke="#030303" stroke-width="0.085" stroke-linecap="round" stroke-linejoin="round" stroke-miterlimit="10" x1="285.972" y1="490.929" x2="265.669" y2="490.929"/>
	
		<path fill="none" stroke="#030303" stroke-width="0.085" stroke-linecap="round" stroke-linejoin="round" stroke-miterlimit="10" d="
		M285.865,490.929c0-5.547-4.497-10.043-10.042-10.043l0,0"/>
	
		<path fill="none" stroke="#030303" stroke-width="0.085" stroke-linecap="round" stroke-linejoin="round" stroke-miterlimit="10" d="
		M265.778,490.929c0,5.547,4.496,10.045,10.045,10.045l0,0"/>
	
		<line fill="none" stroke="#090909" stroke-width="0.9921" stroke-linecap="round" stroke-linejoin="round" stroke-miterlimit="10" x1="319.561" y1="470.085" x2="319.561" y2="470.085"/>
	
		<line fill="none" stroke="#030303" stroke-width="0.085" stroke-linecap="round" stroke-linejoin="round" stroke-miterlimit="10" x1="309.409" y1="470.085" x2="329.714" y2="470.085"/>
	
		<path fill="none" stroke="#030303" stroke-width="0.085" stroke-linecap="round" stroke-linejoin="round" stroke-miterlimit="10" d="
		M319.562,460.042c-5.548,0-10.044,4.496-10.044,10.043l0,0"/>
	
		<path fill="none" stroke="#030303" stroke-width="0.085" stroke-linecap="round" stroke-linejoin="round" stroke-miterlimit="10" d="
		M319.562,480.128c5.546,0,10.042-4.496,10.042-10.043"/>
	
		<line fill="none" stroke="#090909" stroke-width="0.9921" stroke-linecap="round" stroke-linejoin="round" stroke-miterlimit="10" x1="319.561" y1="511.882" x2="319.561" y2="511.882"/>
	
		<line fill="none" stroke="#030303" stroke-width="0.085" stroke-linecap="round" stroke-linejoin="round" stroke-miterlimit="10" x1="309.409" y1="511.882" x2="329.714" y2="511.882"/>
	
		<path fill="none" stroke="#030303" stroke-width="0.085" stroke-linecap="round" stroke-linejoin="round" stroke-miterlimit="10" d="
		M319.562,501.837c-5.548,0-10.044,4.496-10.044,10.045l0,0"/>
	
		<path fill="none" stroke="#030303" stroke-width="0.085" stroke-linecap="round" stroke-linejoin="round" stroke-miterlimit="10" d="
		M319.562,521.925c5.546,0,10.042-4.498,10.042-10.043"/>
	
		<polyline fill="none" stroke="#070707" stroke-width="0.1984" stroke-linecap="round" stroke-linejoin="round" stroke-miterlimit="10" points="
		319.561,459.287 318.265,459.287 318.265,459.933 319.561,459.933 319.561,459.287 	"/>
	
		<polyline fill="none" stroke="#070707" stroke-width="0.1984" stroke-linecap="round" stroke-linejoin="round" stroke-miterlimit="10" points="
		319.561,522.033 318.265,522.033 318.265,522.681 319.561,522.681 319.561,522.033 	"/>
	
		<line fill="none" stroke="#030303" stroke-width="0.085" stroke-linecap="round" stroke-linejoin="round" stroke-miterlimit="10" x1="319.561" y1="459.933" x2="319.561" y2="522.033"/>
	
		<line fill="none" stroke="#030303" stroke-width="0.085" stroke-linecap="round" stroke-linejoin="round" stroke-miterlimit="10" x1="318.265" y1="459.933" x2="318.265" y2="522.033"/>
	
		<polyline fill="none" stroke="#070707" stroke-width="0.1984" stroke-linecap="round" stroke-linejoin="round" stroke-miterlimit="10" points="
		319.561,480.128 318.265,480.128 318.265,480.777 319.561,480.777 319.561,480.128 	"/>
	
		<polyline fill="none" stroke="#070707" stroke-width="0.1984" stroke-linecap="round" stroke-linejoin="round" stroke-miterlimit="10" points="
		319.561,501.082 318.265,501.082 318.265,501.73 319.561,501.73 319.561,501.082 	"/>
	
		<line fill="none" stroke="#090909" stroke-width="0.9921" stroke-linecap="round" stroke-linejoin="round" stroke-miterlimit="10" x1="319.561" y1="490.929" x2="319.561" y2="490.929"/>
	
		<line fill="none" stroke="#030303" stroke-width="0.085" stroke-linecap="round" stroke-linejoin="round" stroke-miterlimit="10" x1="309.409" y1="490.929" x2="329.714" y2="490.929"/>
	
		<path fill="none" stroke="#030303" stroke-width="0.085" stroke-linecap="round" stroke-linejoin="round" stroke-miterlimit="10" d="
		M319.562,480.886c-5.548,0-10.044,4.496-10.044,10.043l0,0"/>
	
		<path fill="none" stroke="#030303" stroke-width="0.085" stroke-linecap="round" stroke-linejoin="round" stroke-miterlimit="10" d="
		M319.562,500.974c5.546,0,10.042-4.498,10.042-10.045"/>
	
		<polyline fill="none" stroke="#070707" stroke-width="0.1984" stroke-linecap="round" stroke-linejoin="round" stroke-miterlimit="10" points="
		253.897,456.044 253.897,454.857 254.544,454.857 254.544,456.044 253.897,456.044 	"/>
	
		<line fill="none" stroke="#090909" stroke-width="0.9921" stroke-linecap="round" stroke-linejoin="round" stroke-miterlimit="10" x1="263.293" y1="456.044" x2="263.293" y2="456.044"/>
	
		<path fill="none" stroke="#030303" stroke-width="0.085" stroke-linecap="round" stroke-linejoin="round" stroke-miterlimit="10" d="
		M263.295,447.406c-4.772,0-8.642,3.867-8.642,8.639l0,0"/>
	
		<line fill="none" stroke="#030303" stroke-width="0.085" stroke-linecap="round" stroke-linejoin="round" stroke-miterlimit="10" x1="263.293" y1="447.406" x2="263.293" y2="464.792"/>
	
		<path fill="none" stroke="#030303" stroke-width="0.085" stroke-linecap="round" stroke-linejoin="round" stroke-miterlimit="10" d="
		M263.295,464.685c4.771,0,8.64-3.867,8.64-8.641"/>
	
		<line fill="none" stroke="#090909" stroke-width="0.9921" stroke-linecap="round" stroke-linejoin="round" stroke-miterlimit="10" x1="245.149" y1="456.044" x2="245.149" y2="456.044"/>
	
		<path fill="none" stroke="#030303" stroke-width="0.085" stroke-linecap="round" stroke-linejoin="round" stroke-miterlimit="10" d="
		M245.15,447.406c-4.772,0-8.642,3.867-8.642,8.639l0,0"/>
	
		<line fill="none" stroke="#030303" stroke-width="0.085" stroke-linecap="round" stroke-linejoin="round" stroke-miterlimit="10" x1="245.149" y1="447.406" x2="245.149" y2="464.792"/>
	
		<path fill="none" stroke="#030303" stroke-width="0.085" stroke-linecap="round" stroke-linejoin="round" stroke-miterlimit="10" d="
		M245.15,464.685c4.771,0,8.64-3.867,8.64-8.641"/>
	
		<line fill="none" stroke="#030303" stroke-width="0.085" stroke-linecap="round" stroke-linejoin="round" stroke-miterlimit="10" x1="271.933" y1="385.738" x2="236.509" y2="385.738"/>
	
		<line fill="none" stroke="#030303" stroke-width="0.085" stroke-linecap="round" stroke-linejoin="round" stroke-miterlimit="10" x1="271.933" y1="387.033" x2="236.509" y2="387.033"/>
	
		<polyline fill="none" stroke="#070707" stroke-width="0.1984" stroke-linecap="round" stroke-linejoin="round" stroke-miterlimit="10" points="
		271.933,385.738 271.933,387.033 272.581,387.033 272.581,385.738 271.933,385.738 	"/>
	
		<polyline fill="none" stroke="#070707" stroke-width="0.1984" stroke-linecap="round" stroke-linejoin="round" stroke-miterlimit="10" points="
		236.509,385.738 236.509,387.033 235.86,387.033 235.86,385.738 236.509,385.738 	"/>
	
		<polyline fill="none" stroke="#070707" stroke-width="0.1984" stroke-linecap="round" stroke-linejoin="round" stroke-miterlimit="10" points="
		253.897,385.738 253.897,387.033 254.544,387.033 254.544,385.738 253.897,385.738 	"/>
	
		<line fill="none" stroke="#090909" stroke-width="0.9921" stroke-linecap="round" stroke-linejoin="round" stroke-miterlimit="10" x1="263.293" y1="385.738" x2="263.293" y2="385.738"/>
	
		<path fill="none" stroke="#030303" stroke-width="0.085" stroke-linecap="round" stroke-linejoin="round" stroke-miterlimit="10" d="
		M254.653,385.738c0,4.771,3.869,8.641,8.642,8.641l0,0"/>
	
		<line fill="none" stroke="#030303" stroke-width="0.085" stroke-linecap="round" stroke-linejoin="round" stroke-miterlimit="10" x1="263.293" y1="394.486" x2="263.293" y2="376.99"/>
	
		<path fill="none" stroke="#030303" stroke-width="0.085" stroke-linecap="round" stroke-linejoin="round" stroke-miterlimit="10" d="
		M271.935,385.738c0-4.771-3.869-8.641-8.64-8.641l0,0"/>
	
		<line fill="none" stroke="#090909" stroke-width="0.9921" stroke-linecap="round" stroke-linejoin="round" stroke-miterlimit="10" x1="245.149" y1="385.738" x2="245.149" y2="385.738"/>
	
		<path fill="none" stroke="#030303" stroke-width="0.085" stroke-linecap="round" stroke-linejoin="round" stroke-miterlimit="10" d="
		M236.509,385.738c0,4.771,3.869,8.641,8.642,8.641l0,0"/>
	
		<line fill="none" stroke="#030303" stroke-width="0.085" stroke-linecap="round" stroke-linejoin="round" stroke-miterlimit="10" x1="245.149" y1="394.486" x2="245.149" y2="376.99"/>
	
		<path fill="none" stroke="#030303" stroke-width="0.085" stroke-linecap="round" stroke-linejoin="round" stroke-miterlimit="10" d="
		M253.79,385.738c0-4.771-3.869-8.641-8.64-8.641l0,0"/>
	
		<line fill="none" stroke="#030303" stroke-width="0.0283" stroke-linecap="round" stroke-linejoin="round" stroke-miterlimit="10" x1="318.913" y1="451.617" x2="318.913" y2="390.166"/>
	
		<line fill="none" stroke="#030303" stroke-width="0.085" stroke-linecap="round" stroke-linejoin="round" stroke-miterlimit="10" x1="323.448" y1="385.738" x2="358.872" y2="385.738"/>
	
		<line fill="none" stroke="#030303" stroke-width="0.085" stroke-linecap="round" stroke-linejoin="round" stroke-miterlimit="10" x1="323.448" y1="387.033" x2="358.872" y2="387.033"/>
	
		<polyline fill="none" stroke="#070707" stroke-width="0.1984" stroke-linecap="round" stroke-linejoin="round" stroke-miterlimit="10" points="
		323.448,385.738 323.448,387.033 322.802,387.033 322.802,385.738 323.448,385.738 	"/>
	
		<polyline fill="none" stroke="#070707" stroke-width="0.1984" stroke-linecap="round" stroke-linejoin="round" stroke-miterlimit="10" points="
		358.872,385.738 358.872,387.033 359.521,387.033 359.521,385.738 358.872,385.738 	"/>
	
		<line fill="none" stroke="#030303" stroke-width="0.085" stroke-linecap="round" stroke-linejoin="round" stroke-miterlimit="10" x1="323.448" y1="456.044" x2="358.872" y2="456.044"/>
	
		<line fill="none" stroke="#030303" stroke-width="0.085" stroke-linecap="round" stroke-linejoin="round" stroke-miterlimit="10" x1="323.448" y1="454.857" x2="338.894" y2="454.857"/>
	
		<polyline fill="none" stroke="#070707" stroke-width="0.1984" stroke-linecap="round" stroke-linejoin="round" stroke-miterlimit="10" points="
		323.448,456.044 323.448,454.857 322.802,454.857 322.802,456.044 323.448,456.044 	"/>
	
		<polyline fill="none" stroke="#070707" stroke-width="0.1984" stroke-linecap="round" stroke-linejoin="round" stroke-miterlimit="10" points="
		358.872,456.044 358.872,454.857 359.521,454.857 359.521,456.044 358.872,456.044 	"/>
	
		<polyline fill="none" stroke="#070707" stroke-width="0.1984" stroke-linecap="round" stroke-linejoin="round" stroke-miterlimit="10" points="
		339.865,456.044 339.865,454.857 339.216,454.857 339.216,456.044 339.865,456.044 	"/>
	
		<line fill="none" stroke="#030303" stroke-width="0.085" stroke-linecap="round" stroke-linejoin="round" stroke-miterlimit="10" x1="320.858" y1="433.042" x2="338.894" y2="433.042"/>
	
		<line fill="none" stroke="#030303" stroke-width="0.085" stroke-linecap="round" stroke-linejoin="round" stroke-miterlimit="10" x1="338.894" y1="407.769" x2="320.858" y2="407.769"/>
	
		<line fill="none" stroke="#030303" stroke-width="0.085" stroke-linecap="round" stroke-linejoin="round" stroke-miterlimit="10" x1="320.858" y1="429.91" x2="338.894" y2="429.91"/>
	
		<line fill="none" stroke="#030303" stroke-width="0.085" stroke-linecap="round" stroke-linejoin="round" stroke-miterlimit="10" x1="320.858" y1="426.777" x2="338.894" y2="426.777"/>
	
		<line fill="none" stroke="#030303" stroke-width="0.085" stroke-linecap="round" stroke-linejoin="round" stroke-miterlimit="10" x1="320.858" y1="423.537" x2="338.894" y2="423.537"/>
	
		<line fill="none" stroke="#030303" stroke-width="0.085" stroke-linecap="round" stroke-linejoin="round" stroke-miterlimit="10" x1="320.858" y1="420.406" x2="338.894" y2="420.406"/>
	
		<line fill="none" stroke="#030303" stroke-width="0.085" stroke-linecap="round" stroke-linejoin="round" stroke-miterlimit="10" x1="320.858" y1="417.273" x2="338.894" y2="417.273"/>
	
		<line fill="none" stroke="#030303" stroke-width="0.085" stroke-linecap="round" stroke-linejoin="round" stroke-miterlimit="10" x1="320.858" y1="414.142" x2="338.894" y2="414.142"/>
	
		<line fill="none" stroke="#030303" stroke-width="0.085" stroke-linecap="round" stroke-linejoin="round" stroke-miterlimit="10" x1="319.561" y1="410.902" x2="338.894" y2="410.902"/>
	
		<line fill="none" stroke="#030303" stroke-width="0.085" stroke-linecap="round" stroke-linejoin="round" stroke-miterlimit="10" x1="340.188" y1="407.769" x2="358.333" y2="407.769"/>
	
		<line fill="none" stroke="#030303" stroke-width="0.085" stroke-linecap="round" stroke-linejoin="round" stroke-miterlimit="10" x1="358.333" y1="429.91" x2="340.188" y2="429.91"/>
	
		<line fill="none" stroke="#030303" stroke-width="0.085" stroke-linecap="round" stroke-linejoin="round" stroke-miterlimit="10" x1="358.333" y1="426.777" x2="340.188" y2="426.777"/>
	
		<line fill="none" stroke="#030303" stroke-width="0.085" stroke-linecap="round" stroke-linejoin="round" stroke-miterlimit="10" x1="358.333" y1="423.537" x2="340.188" y2="423.537"/>
	
		<line fill="none" stroke="#030303" stroke-width="0.085" stroke-linecap="round" stroke-linejoin="round" stroke-miterlimit="10" x1="358.333" y1="420.406" x2="340.188" y2="420.406"/>
	
		<line fill="none" stroke="#030303" stroke-width="0.085" stroke-linecap="round" stroke-linejoin="round" stroke-miterlimit="10" x1="358.333" y1="417.273" x2="340.188" y2="417.273"/>
	
		<line fill="none" stroke="#030303" stroke-width="0.085" stroke-linecap="round" stroke-linejoin="round" stroke-miterlimit="10" x1="358.333" y1="414.142" x2="340.188" y2="414.142"/>
	
		<line fill="none" stroke="#030303" stroke-width="0.085" stroke-linecap="round" stroke-linejoin="round" stroke-miterlimit="10" x1="358.333" y1="410.902" x2="340.188" y2="410.902"/>
	
		<polyline fill="none" stroke="#070707" stroke-width="0.1984" stroke-linecap="round" stroke-linejoin="round" stroke-miterlimit="10" points="
		340.188,448.917 340.188,453.562 344.833,453.562 344.833,454.857 338.894,454.857 338.894,448.917 340.188,448.917 	"/>
	
		<polyline fill="none" stroke="#070707" stroke-width="0.1984" stroke-linecap="round" stroke-linejoin="round" stroke-miterlimit="10" points="
		338.894,407.769 340.188,407.769 340.188,432.287 358.333,432.287 358.333,407.013 	"/>
	
		<path fill="none" stroke="#070707" stroke-width="0.1984" stroke-linecap="round" stroke-linejoin="round" stroke-miterlimit="10" d="
		M358.226,407.013c0-10.318-8.365-18.684-18.684-18.684c-10.32,0-18.686,8.365-18.686,18.684l0,0"/>
	
		<polyline fill="none" stroke="#070707" stroke-width="0.1984" stroke-linecap="round" stroke-linejoin="round" stroke-miterlimit="10" points="
		320.858,407.013 320.858,433.582 319.561,433.582 319.561,407.013 	"/>
	
		<path fill="none" stroke="#070707" stroke-width="0.1984" stroke-linecap="round" stroke-linejoin="round" stroke-miterlimit="10" d="
		M359.521,407.013c0-11.033-8.945-19.98-19.979-19.98c-11.036,0-19.981,8.947-19.981,19.98l0,0"/>
	
		<polyline fill="none" stroke="#070707" stroke-width="0.1984" stroke-linecap="round" stroke-linejoin="round" stroke-miterlimit="10" points="
		359.521,407.013 359.521,433.582 340.188,433.582 340.188,437.47 338.894,437.47 338.894,407.769 	"/>
	
		<polyline fill="none" stroke="#070707" stroke-width="0.1984" stroke-linecap="round" stroke-linejoin="round" stroke-miterlimit="10" points="
		359.521,454.857 354.985,454.857 354.985,453.562 359.521,453.562 	"/>
	
		<polyline fill="none" stroke="#030303" stroke-width="0.085" stroke-linecap="round" stroke-linejoin="round" stroke-miterlimit="10" points="
		358.872,446.433 358.872,441.25 350.665,441.25 350.665,446.433 358.872,446.433 	"/>
	
		<line fill="none" stroke="#030303" stroke-width="0.085" stroke-linecap="round" stroke-linejoin="round" stroke-miterlimit="10" x1="356.389" y1="441.25" x2="356.389" y2="446.433"/>
	
		<line fill="none" stroke="#030303" stroke-width="0.085" stroke-linecap="round" stroke-linejoin="round" stroke-miterlimit="10" x1="358.872" y1="443.841" x2="359.521" y2="443.841"/>
	
		<polyline fill="none" stroke="#030303" stroke-width="0.085" stroke-linecap="round" stroke-linejoin="round" stroke-miterlimit="10" points="
		342.889,433.582 342.889,438.009 349.261,438.009 349.261,433.582 	"/>
	
		<line fill="none" stroke="#030303" stroke-width="0.085" stroke-linecap="round" stroke-linejoin="round" stroke-miterlimit="10" x1="342.889" y1="434.769" x2="349.261" y2="434.769"/>
	
		<line fill="none" stroke="#030303" stroke-width="0.085" stroke-linecap="round" stroke-linejoin="round" stroke-miterlimit="10" x1="354.985" y1="453.562" x2="344.833" y2="453.562"/>
	
		<line fill="none" stroke="#030303" stroke-width="0.085" stroke-linecap="round" stroke-linejoin="round" stroke-miterlimit="10" x1="354.985" y1="454.857" x2="354.985" y2="456.044"/>
	
		<line fill="none" stroke="#030303" stroke-width="0.085" stroke-linecap="round" stroke-linejoin="round" stroke-miterlimit="10" x1="344.833" y1="454.857" x2="344.833" y2="456.044"/>
	
		<line fill="none" stroke="#030303" stroke-width="0.085" stroke-linecap="round" stroke-linejoin="round" stroke-miterlimit="10" x1="338.894" y1="448.917" x2="338.894" y2="437.47"/>
	
		<line fill="none" stroke="#030303" stroke-width="0.085" stroke-linecap="round" stroke-linejoin="round" stroke-miterlimit="10" x1="340.188" y1="448.917" x2="340.188" y2="437.47"/>
	
		<polyline fill="none" stroke="#070707" stroke-width="0.1984" stroke-linecap="round" stroke-linejoin="round" stroke-miterlimit="10" points="
		339.865,385.738 339.865,387.033 339.216,387.033 339.216,385.738 339.865,385.738 	"/>
	
		<polyline fill="none" stroke="#030303" stroke-width="0.085" stroke-linecap="round" stroke-linejoin="round" stroke-miterlimit="10" points="
		300.229,478.185 300.229,503.673 295.153,503.673 295.153,478.185 300.229,478.185 	"/>
	
		<polyline fill="none" stroke="#030303" stroke-width="0.085" stroke-linecap="round" stroke-linejoin="round" stroke-miterlimit="10" points="
		296.017,393.621 296.017,422.242 308.761,422.242 308.761,393.621 296.017,393.621 	"/>
	
		<polyline fill="none" stroke="#030303" stroke-width="0.085" stroke-linecap="round" stroke-linejoin="round" stroke-miterlimit="10" points="
		315.133,405.07 315.133,410.146 310.058,410.146 310.058,405.07 315.133,405.07 	"/>
	
		<line fill="none" stroke="#030303" stroke-width="0.0283" stroke-linecap="round" stroke-linejoin="round" stroke-miterlimit="10" x1="314.485" y1="405.07" x2="314.485" y2="410.146"/>
	
		<polyline fill="none" stroke="#030303" stroke-width="0.085" stroke-linecap="round" stroke-linejoin="round" stroke-miterlimit="10" points="
		315.133,401.181 315.133,396.105 310.058,396.105 310.058,401.181 315.133,401.181 	"/>
	
		<line fill="none" stroke="#030303" stroke-width="0.0283" stroke-linecap="round" stroke-linejoin="round" stroke-miterlimit="10" x1="314.485" y1="401.181" x2="314.485" y2="396.105"/>
	
		<polyline fill="none" stroke="#030303" stroke-width="0.085" stroke-linecap="round" stroke-linejoin="round" stroke-miterlimit="10" points="
		289.645,405.07 289.645,410.146 294.721,410.146 294.721,405.07 289.645,405.07 	"/>
	
		<line fill="none" stroke="#030303" stroke-width="0.0283" stroke-linecap="round" stroke-linejoin="round" stroke-miterlimit="10" x1="290.186" y1="405.07" x2="290.186" y2="410.146"/>
	
		<polyline fill="none" stroke="#030303" stroke-width="0.085" stroke-linecap="round" stroke-linejoin="round" stroke-miterlimit="10" points="
		289.645,401.181 289.645,396.105 294.721,396.105 294.721,401.181 289.645,401.181 	"/>
	
		<line fill="none" stroke="#030303" stroke-width="0.0283" stroke-linecap="round" stroke-linejoin="round" stroke-miterlimit="10" x1="290.186" y1="401.181" x2="290.186" y2="396.105"/>
	
		<circle fill="none" stroke="#030303" stroke-width="0.085" stroke-linecap="round" stroke-linejoin="round" stroke-miterlimit="10" cx="290.728" cy="335.085" r="5.076"/>
	
		<polyline fill="none" stroke="#030303" stroke-width="0.085" stroke-linecap="round" stroke-linejoin="round" stroke-miterlimit="10" points="
		298.825,327.525 301.417,331.954 296.882,334.437 294.397,330.009 298.825,327.525 	"/>
	
		<line fill="none" stroke="#030303" stroke-width="0.0283" stroke-linecap="round" stroke-linejoin="round" stroke-miterlimit="10" x1="298.286" y1="327.849" x2="300.77" y2="332.278"/>
	
		<polyline fill="none" stroke="#030303" stroke-width="0.085" stroke-linecap="round" stroke-linejoin="round" stroke-miterlimit="10" points="
		279.925,338.109 282.517,342.646 286.944,340.054 284.46,335.625 279.925,338.109 	"/>
	
		<line fill="none" stroke="#030303" stroke-width="0.0283" stroke-linecap="round" stroke-linejoin="round" stroke-miterlimit="10" x1="280.572" y1="337.787" x2="283.058" y2="342.322"/>
	
		<polyline fill="none" stroke="#030303" stroke-width="0.085" stroke-linecap="round" stroke-linejoin="round" stroke-miterlimit="10" points="
		283.165,326.878 287.593,324.393 290.077,328.822 285.649,331.306 283.165,326.878 	"/>
	
		<line fill="none" stroke="#030303" stroke-width="0.0283" stroke-linecap="round" stroke-linejoin="round" stroke-miterlimit="10" x1="283.488" y1="327.417" x2="287.917" y2="324.933"/>
	
		<polyline fill="none" stroke="#030303" stroke-width="0.085" stroke-linecap="round" stroke-linejoin="round" stroke-miterlimit="10" points="
		293.749,345.778 298.177,343.292 295.692,338.865 291.265,341.349 293.749,345.778 	"/>
	
		<line fill="none" stroke="#030303" stroke-width="0.0283" stroke-linecap="round" stroke-linejoin="round" stroke-miterlimit="10" x1="293.425" y1="345.238" x2="297.854" y2="342.753"/>
	
		<polyline fill="none" stroke="#030303" stroke-width="0.085" stroke-linecap="round" stroke-linejoin="round" stroke-miterlimit="10" points="
		289.645,414.033 289.645,419.109 294.721,419.109 294.721,414.033 289.645,414.033 	"/>
	
		<line fill="none" stroke="#030303" stroke-width="0.0283" stroke-linecap="round" stroke-linejoin="round" stroke-miterlimit="10" x1="290.186" y1="414.033" x2="290.186" y2="419.109"/>
	
		<polyline fill="none" stroke="#030303" stroke-width="0.085" stroke-linecap="round" stroke-linejoin="round" stroke-miterlimit="10" points="
		315.133,414.033 315.133,419.109 310.058,419.109 310.058,414.033 315.133,414.033 	"/>
	
		<line fill="none" stroke="#030303" stroke-width="0.0283" stroke-linecap="round" stroke-linejoin="round" stroke-miterlimit="10" x1="314.485" y1="414.033" x2="314.485" y2="419.109"/>
	
		<line fill="none" stroke="#030303" stroke-width="0.0283" stroke-linecap="round" stroke-linejoin="round" stroke-miterlimit="10" x1="239.858" y1="319.209" x2="239.858" y2="385.738"/>
	
		<line fill="none" stroke="#030303" stroke-width="0.0283" stroke-linecap="round" stroke-linejoin="round" stroke-miterlimit="10" x1="243.854" y1="319.209" x2="243.854" y2="385.738"/>
	
		<line fill="none" stroke="#030303" stroke-width="0.0283" stroke-linecap="round" stroke-linejoin="round" stroke-miterlimit="10" x1="247.849" y1="319.209" x2="247.849" y2="385.738"/>
	
		<line fill="none" stroke="#030303" stroke-width="0.0283" stroke-linecap="round" stroke-linejoin="round" stroke-miterlimit="10" x1="255.842" y1="319.209" x2="255.842" y2="385.738"/>
	
		<line fill="none" stroke="#030303" stroke-width="0.0283" stroke-linecap="round" stroke-linejoin="round" stroke-miterlimit="10" x1="251.845" y1="319.209" x2="251.845" y2="385.738"/>
	
		<line fill="none" stroke="#030303" stroke-width="0.0283" stroke-linecap="round" stroke-linejoin="round" stroke-miterlimit="10" x1="271.825" y1="319.209" x2="271.825" y2="385.738"/>
	
		<line fill="none" stroke="#030303" stroke-width="0.0283" stroke-linecap="round" stroke-linejoin="round" stroke-miterlimit="10" x1="267.83" y1="319.209" x2="267.83" y2="385.738"/>
	
		<line fill="none" stroke="#030303" stroke-width="0.0283" stroke-linecap="round" stroke-linejoin="round" stroke-miterlimit="10" x1="263.833" y1="319.209" x2="263.833" y2="385.738"/>
	
		<line fill="none" stroke="#030303" stroke-width="0.0283" stroke-linecap="round" stroke-linejoin="round" stroke-miterlimit="10" x1="259.837" y1="319.209" x2="259.837" y2="385.738"/>
	
		<line fill="none" stroke="#030303" stroke-width="0.0283" stroke-linecap="round" stroke-linejoin="round" stroke-miterlimit="10" x1="275.821" y1="329.902" x2="235.86" y2="329.902"/>
	
		<line fill="none" stroke="#030303" stroke-width="0.0283" stroke-linecap="round" stroke-linejoin="round" stroke-miterlimit="10" x1="275.821" y1="340.378" x2="235.86" y2="340.378"/>
	
		<line fill="none" stroke="#030303" stroke-width="0.0283" stroke-linecap="round" stroke-linejoin="round" stroke-miterlimit="10" x1="275.821" y1="361.33" x2="235.86" y2="361.33"/>
	
		<line fill="none" stroke="#030303" stroke-width="0.0283" stroke-linecap="round" stroke-linejoin="round" stroke-miterlimit="10" x1="275.821" y1="382.173" x2="235.86" y2="382.173"/>
	
		<line fill="none" stroke="#030303" stroke-width="0.085" stroke-linecap="round" stroke-linejoin="round" stroke-miterlimit="10" x1="285.972" y1="371.806" x2="265.669" y2="371.806"/>
	
		<line fill="none" stroke="#030303" stroke-width="0.085" stroke-linecap="round" stroke-linejoin="round" stroke-miterlimit="10" x1="285.972" y1="329.902" x2="265.669" y2="329.902"/>
	
		<line fill="none" stroke="#030303" stroke-width="0.085" stroke-linecap="round" stroke-linejoin="round" stroke-miterlimit="10" x1="285.972" y1="350.853" x2="265.669" y2="350.853"/>
	
		<line fill="none" stroke="#030303" stroke-width="0.0283" stroke-linecap="round" stroke-linejoin="round" stroke-miterlimit="10" stroke-dasharray="0.5669,1.1339" x1="275.821" y1="385.738" x2="235.86" y2="319.209"/>
	
		<line fill="none" stroke="#030303" stroke-width="0.0283" stroke-linecap="round" stroke-linejoin="round" stroke-miterlimit="10" stroke-dasharray="0.5669,1.1339" x1="235.86" y1="385.738" x2="275.821" y2="319.209"/>
	
		<line fill="none" stroke="#030303" stroke-width="0.0283" stroke-linecap="round" stroke-linejoin="round" stroke-miterlimit="10" stroke-dasharray="0.5669,1.1339" x1="319.561" y1="385.738" x2="359.521" y2="319.209"/>
	
		<line fill="none" stroke="#030303" stroke-width="0.0283" stroke-linecap="round" stroke-linejoin="round" stroke-miterlimit="10" stroke-dasharray="0.5669,1.1339" x1="359.521" y1="385.738" x2="319.561" y2="319.209"/>
	
		<line fill="none" stroke="#030303" stroke-width="0.0283" stroke-linecap="round" stroke-linejoin="round" stroke-miterlimit="10" stroke-dasharray="0.5669,1.1339" x1="275.821" y1="456.044" x2="235.86" y2="522.681"/>
	
		<line fill="none" stroke="#030303" stroke-width="0.0283" stroke-linecap="round" stroke-linejoin="round" stroke-miterlimit="10" stroke-dasharray="0.5669,1.1339" x1="235.86" y1="456.044" x2="275.821" y2="522.681"/>
	
		<line fill="none" stroke="#030303" stroke-width="0.0283" stroke-linecap="round" stroke-linejoin="round" stroke-miterlimit="10" stroke-dasharray="0.5669,1.1339" x1="319.561" y1="456.044" x2="359.521" y2="522.681"/>
	
		<line fill="none" stroke="#030303" stroke-width="0.0283" stroke-linecap="round" stroke-linejoin="round" stroke-miterlimit="10" stroke-dasharray="0.5669,1.1339" x1="359.521" y1="456.044" x2="319.561" y2="522.681"/>
	
		<polyline fill="none" stroke="#030303" stroke-width="0.1701" stroke-linecap="round" stroke-linejoin="round" stroke-miterlimit="10" points="
		318.805,197.088 276.577,197.088 276.577,230.244 318.805,230.244 318.805,197.088 	"/>
	
		<polyline fill="none" stroke="#070707" stroke-width="0.1134" stroke-linecap="round" stroke-linejoin="round" stroke-miterlimit="10" points="
		277.441,197.952 297.638,197.952 297.638,229.272 277.441,229.272 277.441,197.952 	"/>
	
		<line fill="none" stroke="#030303" stroke-width="0.3402" stroke-linecap="round" stroke-linejoin="round" stroke-miterlimit="10" x1="230.75" y1="235.321" x2="364.704" y2="235.321"/>
	
		<line fill="none" stroke="#030303" stroke-width="0.1701" stroke-linecap="round" stroke-linejoin="round" stroke-miterlimit="10" x1="274.31" y1="230.244" x2="274.31" y2="235.321"/>
	
		<line fill="none" stroke="#030303" stroke-width="0.1701" stroke-linecap="round" stroke-linejoin="round" stroke-miterlimit="10" x1="321.072" y1="232.728" x2="274.31" y2="232.728"/>
	
		<polyline fill="none" stroke="#030303" stroke-width="0.1701" stroke-linecap="round" stroke-linejoin="round" stroke-miterlimit="10" points="
		274.31,230.244 321.072,230.244 321.072,235.321 	"/>
	
		<polyline fill="none" stroke="#030303" stroke-width="0.1701" stroke-linecap="round" stroke-linejoin="round" stroke-miterlimit="10" points="
		364.704,153.672 230.677,153.672 230.677,235.321 	"/>
	
		<line fill="none" stroke="#030303" stroke-width="0.1701" stroke-linecap="round" stroke-linejoin="round" stroke-miterlimit="10" x1="364.704" y1="153.672" x2="364.704" y2="235.321"/>
	
		<line fill="none" stroke="#070707" stroke-width="0.0283" stroke-linecap="round" stroke-linejoin="round" stroke-miterlimit="10" x1="246.014" y1="235.321" x2="246.014" y2="153.672"/>
	
		<line fill="none" stroke="#070707" stroke-width="0.0283" stroke-linecap="round" stroke-linejoin="round" stroke-miterlimit="10" x1="246.661" y1="235.321" x2="246.661" y2="153.672"/>
	
		<line fill="none" stroke="#070707" stroke-width="0.0283" stroke-linecap="round" stroke-linejoin="round" stroke-miterlimit="10" x1="261.997" y1="235.321" x2="261.997" y2="153.672"/>
	
		<line fill="none" stroke="#070707" stroke-width="0.0283" stroke-linecap="round" stroke-linejoin="round" stroke-miterlimit="10" x1="262.645" y1="235.321" x2="262.645" y2="153.672"/>
	
		<line fill="none" stroke="#070707" stroke-width="0.0283" stroke-linecap="round" stroke-linejoin="round" stroke-miterlimit="10" x1="261.997" y1="204.648" x2="246.661" y2="204.648"/>
	
		<line fill="none" stroke="#070707" stroke-width="0.0283" stroke-linecap="round" stroke-linejoin="round" stroke-miterlimit="10" x1="246.014" y1="204.648" x2="230.677" y2="204.648"/>
	
		<line fill="none" stroke="#070707" stroke-width="0.0283" stroke-linecap="round" stroke-linejoin="round" stroke-miterlimit="10" x1="276.577" y1="204.648" x2="262.645" y2="204.648"/>
	
		<line fill="none" stroke="#070707" stroke-width="0.0283" stroke-linecap="round" stroke-linejoin="round" stroke-miterlimit="10" x1="349.37" y1="235.321" x2="349.37" y2="153.672"/>
	
		<line fill="none" stroke="#070707" stroke-width="0.0283" stroke-linecap="round" stroke-linejoin="round" stroke-miterlimit="10" x1="348.721" y1="235.321" x2="348.721" y2="153.672"/>
	
		<line fill="none" stroke="#070707" stroke-width="0.0283" stroke-linecap="round" stroke-linejoin="round" stroke-miterlimit="10" x1="333.386" y1="235.321" x2="333.386" y2="153.672"/>
	
		<line fill="none" stroke="#070707" stroke-width="0.0283" stroke-linecap="round" stroke-linejoin="round" stroke-miterlimit="10" x1="332.737" y1="235.321" x2="332.737" y2="153.672"/>
	
		<line fill="none" stroke="#070707" stroke-width="0.0283" stroke-linecap="round" stroke-linejoin="round" stroke-miterlimit="10" x1="333.386" y1="204.648" x2="348.721" y2="204.648"/>
	
		<line fill="none" stroke="#070707" stroke-width="0.0283" stroke-linecap="round" stroke-linejoin="round" stroke-miterlimit="10" x1="349.37" y1="204.648" x2="364.704" y2="204.648"/>
	
		<line fill="none" stroke="#070707" stroke-width="0.0283" stroke-linecap="round" stroke-linejoin="round" stroke-miterlimit="10" x1="318.805" y1="204.648" x2="332.737" y2="204.648"/>
	
		<line fill="none" stroke="#070707" stroke-width="0.0283" stroke-linecap="round" stroke-linejoin="round" stroke-miterlimit="10" x1="317.509" y1="197.088" x2="317.509" y2="153.672"/>
	
		<line fill="none" stroke="#070707" stroke-width="0.0283" stroke-linecap="round" stroke-linejoin="round" stroke-miterlimit="10" x1="316.86" y1="197.088" x2="316.86" y2="153.672"/>
	
		<line fill="none" stroke="#070707" stroke-width="0.0283" stroke-linecap="round" stroke-linejoin="round" stroke-miterlimit="10" x1="301.525" y1="197.088" x2="301.525" y2="153.672"/>
	
		<line fill="none" stroke="#070707" stroke-width="0.0283" stroke-linecap="round" stroke-linejoin="round" stroke-miterlimit="10" x1="300.877" y1="197.088" x2="300.877" y2="153.672"/>
	
		<line fill="none" stroke="#070707" stroke-width="0.0283" stroke-linecap="round" stroke-linejoin="round" stroke-miterlimit="10" x1="277.872" y1="197.088" x2="277.872" y2="153.672"/>
	
		<line fill="none" stroke="#070707" stroke-width="0.0283" stroke-linecap="round" stroke-linejoin="round" stroke-miterlimit="10" x1="278.521" y1="197.088" x2="278.521" y2="153.672"/>
	
		<line fill="none" stroke="#070707" stroke-width="0.0283" stroke-linecap="round" stroke-linejoin="round" stroke-miterlimit="10" x1="294.505" y1="197.088" x2="294.505" y2="153.672"/>
	
		<line fill="none" stroke="#070707" stroke-width="0.0283" stroke-linecap="round" stroke-linejoin="round" stroke-miterlimit="10" x1="332.737" y1="174.084" x2="317.509" y2="174.084"/>
	
		<line fill="none" stroke="#070707" stroke-width="0.0283" stroke-linecap="round" stroke-linejoin="round" stroke-miterlimit="10" x1="316.86" y1="174.084" x2="301.525" y2="174.084"/>
	
		<line fill="none" stroke="#070707" stroke-width="0.0283" stroke-linecap="round" stroke-linejoin="round" stroke-miterlimit="10" x1="277.872" y1="174.084" x2="262.645" y2="174.084"/>
	
		<line fill="none" stroke="#070707" stroke-width="0.0283" stroke-linecap="round" stroke-linejoin="round" stroke-miterlimit="10" x1="293.858" y1="174.084" x2="278.521" y2="174.084"/>
	
		<line fill="none" stroke="#070707" stroke-width="0.0283" stroke-linecap="round" stroke-linejoin="round" stroke-miterlimit="10" x1="293.858" y1="197.088" x2="293.858" y2="153.672"/>
	
		<line fill="none" stroke="#070707" stroke-width="0.0283" stroke-linecap="round" stroke-linejoin="round" stroke-miterlimit="10" x1="364.704" y1="174.084" x2="349.37" y2="174.084"/>
	
		<line fill="none" stroke="#070707" stroke-width="0.0283" stroke-linecap="round" stroke-linejoin="round" stroke-miterlimit="10" x1="348.721" y1="174.084" x2="333.386" y2="174.084"/>
	
		<line fill="none" stroke="#070707" stroke-width="0.0283" stroke-linecap="round" stroke-linejoin="round" stroke-miterlimit="10" x1="246.014" y1="174.084" x2="230.677" y2="174.084"/>
	
		<line fill="none" stroke="#070707" stroke-width="0.0283" stroke-linecap="round" stroke-linejoin="round" stroke-miterlimit="10" x1="261.997" y1="174.084" x2="246.661" y2="174.084"/>
	
		<line fill="none" stroke="#070707" stroke-width="0.0283" stroke-linecap="round" stroke-linejoin="round" stroke-miterlimit="10" x1="297.638" y1="153.672" x2="297.638" y2="197.088"/>
	
		<line fill="none" stroke="#070707" stroke-width="0.0283" stroke-linecap="round" stroke-linejoin="round" stroke-miterlimit="10" x1="287.593" y1="197.952" x2="287.593" y2="229.272"/>
	<polyline fill="#030303" stroke="#030303" stroke-width="0.2551" stroke-linecap="square" stroke-miterlimit="10" points="
		278.305,526.462 231.972,526.462 231.972,315.322 363.409,315.322 363.409,526.462 317.077,526.462 317.077,522.681 
		359.521,522.681 359.521,319.209 235.86,319.209 235.86,522.681 278.305,522.681 	"/>
	
		<path fill="none" stroke="#030303" stroke-width="0.085" stroke-linecap="round" stroke-linejoin="round" stroke-miterlimit="10" d="
		M265.669,511.882"/>
	
		<path fill="none" stroke="#030303" stroke-width="0.085" stroke-linecap="round" stroke-linejoin="round" stroke-miterlimit="10" d="
		M285.972,511.882"/>
</g>
</svg>
