<?xml version="1.0" encoding="utf-8"?>
<!-- Generator: Adobe Illustrator 15.0.2, SVG Export Plug-In . SVG Version: 6.00 Build 0)  -->
<!DOCTYPE svg PUBLIC "-//W3C//DTD SVG 1.1//EN" "http://www.w3.org/Graphics/SVG/1.1/DTD/svg11.dtd">
<svg version="1.1" xmlns="http://www.w3.org/2000/svg" xmlns:xlink="http://www.w3.org/1999/xlink" x="0px" y="0px"
	 width="595.28px" height="841.89px" viewBox="0 0 595.28 841.89" enable-background="new 0 0 595.28 841.89" xml:space="preserve">
<g id="MST">
	<g>
		<path d="M84.846,513.569c0-0.104,0.008-0.479,0-1.111c-0.008-0.271-0.04-0.447-0.192-0.447c-0.072,0-0.192,0.023-0.32,0.063
			l-0.56,0.185c-0.032,0.008-0.063,0.008-0.08-0.024l-0.064-0.144c-0.016-0.032-0.008-0.064,0.048-0.097l1.655-0.951
			c0.04-0.024,0.072-0.048,0.112-0.048c0.048,0,0.056,0.048,0.056,0.112c0,0.071-0.024,1.327-0.024,2.358v0.336
			c0,0.096,0.008,1.791,0.008,1.895c0.008,0.416,0.04,0.472,0.56,0.472h0.288c0.056,0,0.08,0.024,0.08,0.064v0.184
			c0,0.048-0.016,0.064-0.072,0.064c-0.072,0-1.16-0.024-1.231-0.024s-1.199,0.024-1.239,0.024s-0.064-0.017-0.064-0.064v-0.2
			c0-0.04,0.048-0.048,0.112-0.048h0.368c0.52,0,0.536-0.023,0.552-0.447c0.008-0.104,0.008-1.72,0.008-1.863V513.569z"/>
	</g>
	<g>
		<path d="M96.567,516.456c-0.136,0-0.28,0.008-0.4,0.016c-0.12,0.009-0.216,0.017-0.248,0.017c-0.04,0-0.064,0-0.088-0.048
			c-0.024-0.057-0.016-0.08,0.024-0.12c0.376-0.352,1.08-0.968,1.719-1.655s1.007-1.304,0.983-1.999
			c-0.024-0.712-0.456-1.136-1.031-1.127c-0.68,0.008-0.936,0.535-1.071,0.775c-0.032,0.056-0.056,0.063-0.096,0.04l-0.112-0.048
			c-0.024-0.017-0.032-0.04,0-0.112c0.128-0.312,0.52-1.199,1.599-1.199c0.671,0,1.399,0.552,1.399,1.455
			c0,0.68-0.271,1.256-0.991,2.062c-0.544,0.624-1.175,1.088-1.527,1.399h1.623c0.544,0,0.752-0.376,0.928-0.671
			c0.04-0.072,0.064-0.08,0.144-0.04c0.064,0.031,0.096,0.063,0.064,0.111l-0.52,1.247c-0.04,0.088,0.024,0.088-0.12,0.088
			c-0.072,0-0.072-0.008-0.104-0.079c-0.048-0.104-0.2-0.112-0.44-0.112H96.567z"/>
	</g>
	<g>
		<path d="M147.999,513.017c0.2-0.016,0.735,0.04,0.912,0.088c0.783,0.208,1.231,0.768,1.231,1.487
			c0.008,1.144-0.927,1.983-2.015,1.983c-0.592,0-1.04-0.216-1.04-0.448c0-0.111,0.072-0.208,0.176-0.208
			c0.144,0,0.28,0.089,0.4,0.16c0.12,0.072,0.392,0.152,0.632,0.152c0.624,0,1.247-0.528,1.247-1.231c0-0.56-0.184-1-0.704-1.224
			c-0.432-0.191-0.832-0.191-1.039-0.176c-0.048,0.008-0.088,0.016-0.144-0.016c-0.04-0.017-0.048-0.04-0.04-0.088l0.288-2.255
			c0.008-0.096,0.024-0.128,0.128-0.128h1.711c0.28,0,0.352-0.136,0.488-0.4c0.024-0.048,0.048-0.056,0.096-0.04
			c0.088,0.04,0.128,0.049,0.112,0.097l-0.288,0.799c-0.056,0.128-0.096,0.16-0.344,0.16h-1.663L147.999,513.017z"/>
	</g>
	<polyline fill="none" stroke="#010101" stroke-width="0.1" stroke-linecap="square" stroke-miterlimit="10" points="
		85.039,525.828 85.039,519.456 97.783,519.456 97.783,525.828 148.867,525.828 148.867,519.456 	"/>
</g>
<g id="HAUS_OHNE_EIGENSCHAFTEN">
	<g>
		<path d="M29.536,31.537c0-0.62-0.02-1.969-0.02-2.109c0-0.509-0.07-0.649-0.34-0.649h-0.41c-0.11,0-0.12-0.04-0.12-0.1v-0.19
			c0-0.06,0.01-0.12,0.11-0.12c0.17,0,0.49,0.03,1.489,0.03c0.979,0,1.339-0.03,1.509-0.03c0.11,0,0.12,0.03,0.12,0.11v0.21
			c0,0.06-0.01,0.09-0.12,0.09h-0.24c-0.36,0-0.41,0.17-0.44,0.55c-0.01,0.14-0.06,1.459-0.06,2.019v0.15
			c0,0.05,0.03,0.08,0.16,0.08h2.988c0.15,0,0.2-0.02,0.2-0.13v-0.1c0-0.569-0.07-1.958-0.07-2.059c-0.01-0.32-0.05-0.51-0.23-0.51
			h-0.41c-0.09,0-0.1-0.03-0.1-0.1v-0.22c0-0.06,0.01-0.09,0.09-0.09c0.18,0,0.61,0.03,1.459,0.03c0.83,0,1.249-0.03,1.379-0.03
			c0.12,0,0.13,0.03,0.13,0.11v0.19c0,0.07-0.01,0.11-0.13,0.11h-0.3c-0.29,0-0.32,0.17-0.32,0.51c0,0.14-0.02,1.829-0.02,2.199
			v0.34c0,0.32,0.02,2.219,0.03,2.769c0,0.36,0.1,0.5,0.4,0.5h0.34c0.08,0,0.09,0.03,0.09,0.09v0.22c0,0.05-0.01,0.1-0.11,0.1
			c-0.16,0-0.5-0.03-1.399-0.03c-1.02,0-1.339,0.03-1.569,0.03c-0.11,0-0.13-0.05-0.13-0.1v-0.22c0-0.06,0.01-0.09,0.11-0.09h0.439
			c0.24,0,0.27-0.19,0.28-0.439c0.02-0.47,0.04-2.079,0.04-2.399v-0.12c0-0.11-0.1-0.12-0.22-0.12h-2.988
			c-0.11,0-0.14,0.03-0.14,0.12v0.15c0,0.25,0.04,1.789,0.07,2.469c0.01,0.24,0.11,0.34,0.33,0.34h0.28c0.08,0,0.09,0.02,0.09,0.08
			v0.24c0,0.06-0.01,0.09-0.09,0.09c-0.18,0-0.53-0.03-1.369-0.03c-1.06,0-1.359,0.03-1.559,0.03c-0.09,0-0.1-0.03-0.1-0.11v-0.21
			c0-0.07,0.01-0.09,0.1-0.09h0.459c0.25,0,0.28-0.24,0.28-0.459c0.01-0.47,0.03-2.409,0.03-2.669V31.537z"/>
		<path d="M39.575,32.286c0-0.2-0.02-0.43-0.15-0.549c-0.1-0.09-0.26-0.12-0.42-0.12c-0.18,0-0.35,0.04-0.53,0.16
			c-0.15,0.1-0.03,0.27-0.03,0.589c0,0.34-0.25,0.57-0.649,0.57c-0.23,0-0.43-0.14-0.43-0.36s0.07-0.52,0.28-0.7
			c0.419-0.38,1.109-0.739,1.919-0.739c0.64,0,0.81,0.1,1.019,0.29c0.22,0.2,0.28,0.49,0.28,0.85l0.02,1.989
			c0.01,0.52,0.04,0.68,0.23,0.68c0.14,0,0.25-0.11,0.29-0.18c0.04-0.06,0.07-0.07,0.1-0.05l0.14,0.08
			c0.04,0.02,0.07,0.05,0.03,0.14c-0.09,0.21-0.39,0.68-1.009,0.68c-0.39,0-0.759-0.14-0.949-0.61h-0.05
			c-0.25,0.23-0.459,0.37-0.859,0.52c-0.2,0.07-0.43,0.09-0.72,0.09c-0.35,0-0.66-0.38-0.66-0.92c0-0.439,0.21-0.899,0.86-1.219
			c0.779-0.37,1.029-0.479,1.289-0.66V32.286z M39.585,33.216c-0.49,0.28-0.9,0.43-0.9,1.12c0,0.459,0.21,0.649,0.43,0.659
			c0.27-0.02,0.47-0.27,0.47-0.359V33.216z"/>
		<path d="M45.524,35.575c-0.06,0.02-0.13,0.04-0.22,0.04c-0.1,0-0.16-0.05-0.17-0.12l-0.06-0.54h-0.06
			c-0.2,0.35-0.779,0.66-1.319,0.66c-0.399,0-0.699,0-1.049-0.46c-0.419-0.56-0.38-0.879-0.38-1.739l0.01-0.439
			c0-0.38,0-0.78-0.01-1c-0.01-0.24-0.22-0.33-0.34-0.35c-0.169-0.03-0.22-0.02-0.22-0.07v-0.2c0-0.06,0.02-0.08,0.11-0.08h1.459
			c0.06,0,0.1-0.01,0.14-0.02c0.04,0,0.08-0.01,0.11-0.01c0.07,0,0.12,0.05,0.11,0.12c-0.01,0.09-0.04,0.56-0.04,1.35v0.54
			c0,0.4-0.06,1.149,0.19,1.539c0.15,0.23,0.31,0.21,0.49,0.21c0.17,0,0.39-0.13,0.54-0.32c0.09-0.1,0.16-0.26,0.16-0.36
			l-0.01-2.349c0-0.25-0.18-0.33-0.43-0.35c-0.12-0.01-0.17-0.02-0.17-0.07v-0.19c0-0.08,0.02-0.09,0.12-0.09h1.489
			c0.07,0,0.12-0.01,0.17-0.02c0.05,0,0.09-0.01,0.12-0.01c0.06,0,0.1,0.05,0.09,0.1c-0.01,0.09-0.06,0.35-0.06,1.359v0.74
			c0,0.479,0,0.969,0.02,1.149c0.03,0.31,0.14,0.35,0.18,0.35c0.06,0,0.21,0,0.33-0.03c0.08-0.02,0.11,0,0.12,0.04l0.03,0.19
			c0.01,0.05-0.01,0.07-0.05,0.08L45.524,35.575z"/>
		<path d="M50.484,32.276c0.01,0.05,0,0.07-0.04,0.09l-0.18,0.08c-0.03,0.02-0.06,0.01-0.1-0.03l-0.56-0.6
			c-0.13-0.13-0.32-0.29-0.62-0.29s-0.59,0.2-0.59,0.54c0.02,0.35,0.14,0.45,0.88,0.65c0.49,0.13,0.729,0.2,1.029,0.52
			c0.26,0.26,0.32,0.5,0.32,0.85c0,0.89-0.7,1.529-1.789,1.529c-0.56,0-1.049-0.2-1.169-0.29c-0.04-0.03-0.05-0.07-0.06-0.13
			l-0.13-0.959c0-0.05,0.03-0.07,0.07-0.08l0.18-0.05c0.03-0.01,0.05,0,0.07,0.04l0.4,0.589c0.18,0.26,0.41,0.51,0.87,0.51
			c0.37,0,0.589-0.26,0.589-0.609c0-0.4-0.29-0.53-0.939-0.73c-0.709-0.209-1.219-0.549-1.219-1.269c0-0.47,0.14-0.859,0.52-1.14
			c0.399-0.29,0.679-0.359,1.099-0.359c0.54,0,0.87,0.12,1.049,0.209c0.15,0.07,0.17,0.12,0.18,0.19L50.484,32.276z"/>
		<path d="M53.776,34.885c-0.38-0.419-0.53-0.949-0.53-1.579c0-0.45,0.25-1.189,0.859-1.659c0.51-0.399,1.02-0.509,1.489-0.509
			c0.69,0,1.16,0.209,1.609,0.629c0.49,0.44,0.689,0.979,0.689,1.589c0,0.58-0.25,1.139-0.64,1.559c-0.479,0.5-1.06,0.7-1.739,0.7
			C54.785,35.615,54.286,35.465,53.776,34.885z M56.375,33.286c0-1.159-0.4-1.729-0.84-1.729c-0.25,0-0.41,0.07-0.54,0.27
			c-0.2,0.31-0.33,0.74-0.33,1.549c0,0.58,0.05,0.959,0.25,1.389c0.13,0.27,0.29,0.43,0.66,0.43
			C56.125,35.195,56.375,34.385,56.375,33.286z"/>
		<path d="M60.215,34.715c0,0.3,0.06,0.41,0.15,0.41h0.2c0.05,0,0.08,0.02,0.08,0.08v0.19c0,0.07-0.01,0.11-0.07,0.11
			c-0.08,0-0.54-0.03-1.129-0.03c-0.7,0-1.08,0.03-1.169,0.03c-0.04,0-0.07-0.03-0.07-0.1v-0.2c0-0.07,0.04-0.08,0.15-0.08h0.16
			c0.16,0,0.31-0.04,0.34-0.17c0.05-0.18,0.05-0.36,0.05-0.66l-0.02-4.158c0-0.5-0.13-0.79-0.47-0.919l-0.18-0.06
			c-0.06-0.03-0.08-0.06-0.08-0.09v-0.13c0-0.04,0.03-0.08,0.17-0.12c0.55-0.16,0.91-0.32,1.509-0.61c0.13-0.06,0.21-0.1,0.31-0.1
			c0.09,0,0.11,0.08,0.09,0.25s-0.03,2.199-0.03,2.789v0.6h0.07c0.24-0.38,0.729-0.609,1.279-0.609c0.45,0,0.709,0.13,1.02,0.39
			c0.47,0.39,0.43,0.89,0.43,1.529v0.62c0,0.5-0.02,1.109-0.02,1.299c0,0.14,0.2,0.15,0.32,0.15h0.19c0.08,0,0.11,0.02,0.11,0.07
			v0.21c0,0.06-0.02,0.1-0.08,0.1c-0.07,0-0.39-0.03-1.089-0.03c-0.689,0-1.049,0.03-1.139,0.03c-0.07,0-0.09-0.03-0.09-0.11v-0.19
			c0-0.05,0.01-0.08,0.07-0.08h0.13c0.09,0,0.22-0.05,0.24-0.19c0.01-0.14,0.03-0.67,0.03-0.97v-0.609
			c0-0.49,0.03-1.189-0.229-1.449c-0.14-0.14-0.26-0.19-0.47-0.19c-0.22,0-0.44,0.18-0.59,0.35c-0.08,0.1-0.17,0.23-0.17,0.49
			V34.715z"/>
		<path d="M65.845,31.687h0.08c0.11-0.13,0.29-0.26,0.48-0.36c0.22-0.12,0.439-0.189,0.77-0.189c0.39,0,0.77,0.04,1.029,0.28
			c0.42,0.39,0.45,0.64,0.45,1.139v1.06c0,0.34-0.02,0.81-0.04,1.159c-0.01,0.3,0.15,0.35,0.24,0.35h0.27
			c0.09,0,0.11,0.03,0.11,0.09v0.18c0,0.07-0.02,0.11-0.08,0.11c-0.07,0-0.38-0.03-1.18-0.03c-0.66,0-0.979,0.03-1.049,0.03
			c-0.06,0-0.08-0.03-0.08-0.11v-0.18c0-0.07,0.03-0.09,0.13-0.09h0.11c0.07,0,0.16-0.05,0.18-0.23c0.04-0.26,0.06-0.58,0.06-1.04
			v-1.069c0-0.38-0.03-0.64-0.24-0.83c-0.18-0.16-0.32-0.18-0.49-0.18c-0.18,0-0.31,0.05-0.51,0.2c-0.12,0.09-0.2,0.36-0.2,0.77
			l-0.02,2.049c0,0.18,0.07,0.33,0.16,0.33h0.13c0.08,0,0.1,0.03,0.1,0.1v0.19c0,0.06-0.02,0.09-0.07,0.09c-0.07,0-0.34-0.03-1-0.03
			c-0.709,0-1.029,0.03-1.089,0.03c-0.05,0-0.07-0.03-0.07-0.09v-0.2c0-0.06,0.02-0.09,0.1-0.09h0.15c0.11,0,0.28-0.03,0.28-0.2
			v-2.219c0-0.3-0.17-0.47-0.4-0.58l-0.09-0.04c-0.06-0.03-0.07-0.07-0.07-0.11v-0.09c0-0.05,0.04-0.08,0.09-0.1l1.279-0.58
			c0.08-0.03,0.15-0.07,0.23-0.07c0.06,0,0.12,0.05,0.14,0.12L65.845,31.687z"/>
		<path d="M70.996,32.986v0.27c0,1.04,0.59,1.549,1.319,1.549c0.49,0,0.89-0.23,1.089-0.55c0.02-0.05,0.06-0.06,0.1-0.03l0.17,0.09
			c0.04,0.02,0.07,0.07-0.02,0.24c-0.18,0.37-0.83,1.06-1.769,1.06c-0.64,0-1.169-0.11-1.5-0.47c-0.51-0.55-0.679-0.94-0.689-1.719
			c0-0.28,0-0.81,0.45-1.469c0.36-0.53,0.97-0.819,1.739-0.819c1.619,0,1.709,1.549,1.709,1.709c0,0.13-0.09,0.14-0.31,0.14H70.996z
			 M71.965,32.606c0.22,0,0.32-0.05,0.32-0.2c0-0.44-0.18-0.87-0.49-0.87c-0.47,0-0.719,0.37-0.79,1.069H71.965z"/>
		<path d="M78.645,31.646c0.46,0,0.9-0.03,1.02-0.06c0.17-0.04,0.31-0.13,0.46-0.31c0.11-0.15,0.23-0.43,0.23-0.62
			c0-0.07,0.03-0.09,0.08-0.09l0.27,0.03c0.05,0.01,0.09,0.02,0.08,0.08c-0.03,0.17-0.03,0.689-0.03,1.04
			c0,0.45,0.04,0.929,0.06,1.139c0.01,0.06-0.03,0.07-0.08,0.08l-0.24,0.05c-0.04,0.01-0.06-0.01-0.08-0.08
			c-0.04-0.16-0.14-0.39-0.2-0.51c-0.11-0.19-0.35-0.32-0.55-0.35c-0.27-0.04-0.58-0.06-1.02-0.06v0.6c0,0.54,0.05,1.509,0.05,1.689
			c0,0.52,0.11,0.7,0.24,0.759c0.15,0.06,0.34,0.09,0.839,0.09c0.17,0,0.59-0.01,0.8-0.03c0.2-0.02,0.5-0.12,0.76-0.33
			c0.26-0.21,0.819-0.83,1.019-1.069c0.04-0.04,0.07-0.05,0.1-0.03l0.17,0.1c0.04,0.02,0.05,0.05,0.04,0.08l-0.45,1.509
			c-0.03,0.09-0.1,0.15-0.22,0.15c-0.05,0-0.27-0.01-0.909-0.02c-0.65,0-1.709-0.01-3.438-0.01c-0.37,0-0.65,0.01-0.85,0.01
			c-0.21,0.01-0.34,0.02-0.43,0.02c-0.07,0-0.09-0.03-0.09-0.11v-0.21c0-0.06,0.03-0.09,0.1-0.09h0.3c0.46,0,0.5-0.07,0.5-0.419
			v-3.349c0-0.829-0.02-2.059-0.03-2.159c-0.04-0.32-0.14-0.39-0.41-0.39h-0.39c-0.04,0-0.05-0.03-0.05-0.1v-0.24
			c0-0.03,0.01-0.07,0.07-0.07c0.22,0,0.569,0.03,1.479,0.03l3.508-0.01c0.16,0,0.35-0.02,0.4-0.02c0.05,0,0.07,0.02,0.08,0.05
			c0.04,0.14,0.37,1.509,0.41,1.609c0.02,0.05,0.02,0.07-0.03,0.1l-0.16,0.08c-0.04,0.02-0.09,0.01-0.12-0.04
			c-0.05-0.08-0.95-0.979-1.18-1.119c-0.209-0.13-0.49-0.26-0.759-0.27l-1.319-0.04L78.645,31.646z"/>
		<path d="M85.555,35.504c-0.08,0-0.54-0.03-1.41-0.03c-0.58,0-0.969,0.03-1.079,0.03c-0.05,0-0.08-0.02-0.08-0.1v-0.2
			c0-0.06,0.03-0.08,0.1-0.08h0.37c0.11,0,0.18-0.04,0.19-0.2c0.02-0.3,0.02-0.609,0.02-0.889l-0.02-1.399
			c0-0.28-0.06-0.48-0.479-0.63c-0.11-0.04-0.12-0.08-0.12-0.14v-0.11c0-0.03,0.02-0.05,0.11-0.08l1.489-0.48
			c0.11-0.04,0.2-0.06,0.27-0.06c0.08,0,0.11,0.05,0.1,0.12c-0.02,0.17-0.02,0.8-0.02,1.679v1.069c0,0.39,0,0.75,0.01,0.859
			c0.02,0.19,0.07,0.26,0.18,0.26h0.36c0.08,0,0.1,0.03,0.1,0.09v0.19C85.645,35.475,85.625,35.504,85.555,35.504z M84.185,30.348
			c-0.399,0.01-0.699-0.26-0.699-0.65c0-0.32,0.33-0.61,0.75-0.61c0.47,0,0.709,0.3,0.709,0.58
			C84.945,29.988,84.725,30.337,84.185,30.348z"/>
		<path d="M86.315,37.883c-0.37-0.21-0.49-0.47-0.49-0.78c0-0.5,0.56-0.859,1.03-1.049v-0.05c-0.46-0.14-0.69-0.45-0.69-0.8
			c0-0.58,0.56-0.899,0.89-1.059v-0.03c-0.43-0.25-0.879-0.669-0.879-1.519c0-0.649,0.52-1.459,1.939-1.459
			c0.879,0,1.319,0.459,1.409,0.56c0.23-0.19,0.6-0.35,0.879-0.35c0.36,0,0.55,0.2,0.55,0.52c0,0.23-0.21,0.43-0.44,0.43
			c-0.17,0-0.25-0.07-0.31-0.17c-0.05-0.08-0.17-0.15-0.28-0.15c-0.05,0-0.14,0.04-0.189,0.09c0.04,0.07,0.12,0.29,0.12,0.65
			c0,0.379-0.11,0.75-0.45,1.079c-0.38,0.36-0.949,0.48-1.349,0.48c-0.2,0-0.34,0-0.59-0.03c-0.13,0.08-0.37,0.26-0.37,0.46
			c0,0.35,0.29,0.38,1.369,0.35c0.68-0.02,1.189,0.02,1.679,0.4c0.36,0.29,0.49,0.64,0.49,1.009c0,0.42-0.19,0.78-0.58,1.109
			c-0.37,0.3-1.129,0.62-2.139,0.62C87.435,38.193,86.706,38.113,86.315,37.883z M89.564,36.954c0-0.549-0.39-0.849-1.299-0.81
			l-0.87,0.04c-0.29,0.07-0.5,0.38-0.5,0.68c0,0.29,0.16,0.54,0.35,0.68c0.28,0.2,0.56,0.26,1.009,0.26
			C88.914,37.803,89.564,37.454,89.564,36.954z M87.575,31.836c-0.14,0.2-0.2,0.66-0.2,1.109c0,0.29,0.09,0.61,0.22,0.76
			c0.11,0.14,0.26,0.2,0.46,0.2c0.439,0,0.589-0.669,0.589-1.439c0-0.37-0.04-0.58-0.09-0.67c-0.09-0.169-0.21-0.28-0.49-0.28
			C87.845,31.517,87.715,31.637,87.575,31.836z"/>
		<path d="M92.325,32.986v0.27c0,1.04,0.59,1.549,1.319,1.549c0.49,0,0.89-0.23,1.089-0.55c0.02-0.05,0.06-0.06,0.1-0.03l0.17,0.09
			c0.04,0.02,0.07,0.07-0.02,0.24c-0.18,0.37-0.83,1.06-1.769,1.06c-0.64,0-1.169-0.11-1.5-0.47c-0.51-0.55-0.679-0.94-0.689-1.719
			c0-0.28,0-0.81,0.45-1.469c0.36-0.53,0.97-0.819,1.739-0.819c1.619,0,1.709,1.549,1.709,1.709c0,0.13-0.09,0.14-0.31,0.14H92.325z
			 M93.294,32.606c0.22,0,0.32-0.05,0.32-0.2c0-0.44-0.18-0.87-0.49-0.87c-0.47,0-0.719,0.37-0.79,1.069H93.294z"/>
		<path d="M97.334,31.687h0.08c0.11-0.13,0.29-0.26,0.48-0.36c0.22-0.12,0.439-0.189,0.77-0.189c0.39,0,0.77,0.04,1.029,0.28
			c0.42,0.39,0.45,0.64,0.45,1.139v1.06c0,0.34-0.02,0.81-0.04,1.159c-0.01,0.3,0.15,0.35,0.24,0.35h0.27
			c0.09,0,0.11,0.03,0.11,0.09v0.18c0,0.07-0.02,0.11-0.08,0.11c-0.07,0-0.38-0.03-1.18-0.03c-0.66,0-0.979,0.03-1.049,0.03
			c-0.06,0-0.08-0.03-0.08-0.11v-0.18c0-0.07,0.03-0.09,0.13-0.09h0.11c0.07,0,0.16-0.05,0.18-0.23c0.04-0.26,0.06-0.58,0.06-1.04
			v-1.069c0-0.38-0.03-0.64-0.24-0.83c-0.18-0.16-0.32-0.18-0.49-0.18c-0.18,0-0.31,0.05-0.51,0.2c-0.12,0.09-0.2,0.36-0.2,0.77
			l-0.02,2.049c0,0.18,0.07,0.33,0.16,0.33h0.13c0.08,0,0.1,0.03,0.1,0.1v0.19c0,0.06-0.02,0.09-0.07,0.09
			c-0.07,0-0.34-0.03-0.999-0.03c-0.71,0-1.03,0.03-1.09,0.03c-0.05,0-0.07-0.03-0.07-0.09v-0.2c0-0.06,0.02-0.09,0.1-0.09h0.15
			c0.11,0,0.28-0.03,0.28-0.2v-2.219c0-0.3-0.17-0.47-0.4-0.58l-0.09-0.04c-0.06-0.03-0.07-0.07-0.07-0.11v-0.09
			c0-0.05,0.04-0.08,0.09-0.1l1.279-0.58c0.08-0.03,0.15-0.07,0.23-0.07c0.06,0,0.12,0.05,0.14,0.12L97.334,31.687z"/>
		<path d="M104.303,32.276c0.01,0.05,0,0.07-0.04,0.09l-0.18,0.08c-0.03,0.02-0.06,0.01-0.1-0.03l-0.56-0.6
			c-0.13-0.13-0.32-0.29-0.62-0.29s-0.59,0.2-0.59,0.54c0.02,0.35,0.14,0.45,0.88,0.65c0.49,0.13,0.729,0.2,1.029,0.52
			c0.26,0.26,0.32,0.5,0.32,0.85c0,0.89-0.7,1.529-1.789,1.529c-0.56,0-1.049-0.2-1.169-0.29c-0.04-0.03-0.05-0.07-0.06-0.13
			l-0.13-0.959c0-0.05,0.03-0.07,0.07-0.08l0.18-0.05c0.03-0.01,0.05,0,0.07,0.04l0.4,0.589c0.18,0.26,0.41,0.51,0.87,0.51
			c0.37,0,0.589-0.26,0.589-0.609c0-0.4-0.29-0.53-0.939-0.73c-0.709-0.209-1.219-0.549-1.219-1.269c0-0.47,0.14-0.859,0.52-1.14
			c0.399-0.29,0.679-0.359,1.099-0.359c0.54,0,0.87,0.12,1.049,0.209c0.15,0.07,0.17,0.12,0.18,0.19L104.303,32.276z"/>
		<path d="M108.893,32.106c0,0.28-0.2,0.47-0.52,0.47c-0.419,0-0.64-0.28-0.72-0.53c-0.12-0.36-0.31-0.479-0.589-0.479
			c-0.27,0-0.66,0.39-0.66,1.02c0,0.629-0.02,1.079,0.32,1.699c0.25,0.45,0.62,0.58,1.069,0.58c0.46,0,0.68-0.09,1-0.32
			c0.05-0.03,0.08-0.05,0.11-0.01l0.14,0.14c0.03,0.04,0.02,0.08-0.01,0.13c-0.19,0.33-0.969,0.81-1.889,0.81
			c-0.75,0-1.25-0.21-1.569-0.61c-0.39-0.48-0.51-0.87-0.51-1.379c0-0.68,0.22-1.409,0.75-1.899c0.45-0.41,0.939-0.589,1.479-0.589
			C108.603,31.137,108.893,31.796,108.893,32.106z"/>
		<path d="M111.244,34.715c0,0.3,0.06,0.41,0.15,0.41h0.2c0.05,0,0.08,0.02,0.08,0.08v0.19c0,0.07-0.01,0.11-0.07,0.11
			c-0.08,0-0.54-0.03-1.129-0.03c-0.7,0-1.08,0.03-1.169,0.03c-0.04,0-0.07-0.03-0.07-0.1v-0.2c0-0.07,0.04-0.08,0.15-0.08h0.16
			c0.16,0,0.31-0.04,0.34-0.17c0.05-0.18,0.05-0.36,0.05-0.66l-0.02-4.158c0-0.5-0.13-0.79-0.47-0.919l-0.18-0.06
			c-0.06-0.03-0.08-0.06-0.08-0.09v-0.13c0-0.04,0.03-0.08,0.17-0.12c0.55-0.16,0.91-0.32,1.509-0.61c0.13-0.06,0.21-0.1,0.31-0.1
			c0.09,0,0.11,0.08,0.09,0.25s-0.03,2.199-0.03,2.789v0.6h0.07c0.24-0.38,0.729-0.609,1.279-0.609c0.45,0,0.709,0.13,1.02,0.39
			c0.47,0.39,0.43,0.89,0.43,1.529v0.62c0,0.5-0.02,1.109-0.02,1.299c0,0.14,0.2,0.15,0.32,0.15h0.19c0.08,0,0.11,0.02,0.11,0.07
			v0.21c0,0.06-0.02,0.1-0.08,0.1c-0.07,0-0.39-0.03-1.089-0.03c-0.689,0-1.049,0.03-1.139,0.03c-0.07,0-0.09-0.03-0.09-0.11v-0.19
			c0-0.05,0.01-0.08,0.07-0.08h0.13c0.09,0,0.22-0.05,0.24-0.19c0.01-0.14,0.03-0.67,0.03-0.97v-0.609
			c0-0.49,0.03-1.189-0.229-1.449c-0.14-0.14-0.26-0.19-0.47-0.19c-0.22,0-0.44,0.18-0.59,0.35c-0.08,0.1-0.17,0.23-0.17,0.49
			V34.715z"/>
		<path d="M117.314,32.286c0-0.2-0.02-0.43-0.15-0.549c-0.1-0.09-0.26-0.12-0.42-0.12c-0.18,0-0.35,0.04-0.529,0.16
			c-0.15,0.1-0.03,0.27-0.03,0.589c0,0.34-0.25,0.57-0.649,0.57c-0.23,0-0.43-0.14-0.43-0.36s0.07-0.52,0.28-0.7
			c0.419-0.38,1.109-0.739,1.919-0.739c0.64,0,0.81,0.1,1.019,0.29c0.22,0.2,0.28,0.49,0.28,0.85l0.02,1.989
			c0.01,0.52,0.04,0.68,0.23,0.68c0.14,0,0.25-0.11,0.29-0.18c0.04-0.06,0.07-0.07,0.1-0.05l0.14,0.08
			c0.04,0.02,0.07,0.05,0.03,0.14c-0.09,0.21-0.39,0.68-1.01,0.68c-0.39,0-0.759-0.14-0.949-0.61h-0.05
			c-0.25,0.23-0.459,0.37-0.859,0.52c-0.2,0.07-0.43,0.09-0.72,0.09c-0.35,0-0.66-0.38-0.66-0.92c0-0.439,0.21-0.899,0.86-1.219
			c0.779-0.37,1.029-0.479,1.289-0.66V32.286z M117.324,33.216c-0.49,0.28-0.9,0.43-0.9,1.12c0,0.459,0.21,0.649,0.43,0.659
			c0.27-0.02,0.47-0.27,0.47-0.359V33.216z"/>
		<path d="M121.544,31.807v0.87c0,0.479-0.03,1.749-0.01,2.139c0.01,0.22,0.13,0.31,0.29,0.31h0.36c0.09,0,0.11,0.02,0.11,0.08v0.2
			c0,0.06-0.02,0.1-0.07,0.1c-0.06,0-0.43-0.03-1.399-0.03c-0.65,0-1.16,0.03-1.239,0.03c-0.06,0-0.08-0.02-0.08-0.09v-0.22
			c0-0.05,0.02-0.07,0.1-0.07h0.33c0.19,0,0.27-0.12,0.27-0.33l-0.03-2.988h-0.64c-0.05,0-0.07-0.02-0.06-0.11l0.05-0.35
			c0.01-0.06,0.04-0.07,0.12-0.07h0.529v-0.3c0-1.049,0.33-1.699,0.84-2.179c0.54-0.5,1.069-0.689,1.689-0.689
			c0.59,0,1.029,0.24,1.029,0.699c0,0.31-0.32,0.5-0.55,0.5c-0.32,0-0.52-0.12-0.669-0.38c-0.12-0.2-0.26-0.3-0.36-0.3
			c-0.2,0-0.34,0.06-0.5,0.32c-0.18,0.28-0.11,0.989-0.11,1.909v0.42h1.159c0.07,0,0.08,0.06,0.07,0.1l-0.05,0.38
			c-0.01,0.04-0.05,0.05-0.13,0.05H121.544z"/>
		<path d="M124.884,34.016c0,0.819,0.31,0.999,0.55,0.999c0.21,0,0.36-0.03,0.52-0.12c0.03-0.02,0.06-0.02,0.09,0.04l0.07,0.15
			c0.03,0.05,0,0.1-0.04,0.13c-0.17,0.12-0.62,0.4-1.399,0.4c-0.68,0-1.109-0.47-1.109-0.93c0-0.35,0.02-1.109,0.02-1.489
			l0.01-1.319h-0.55c-0.09,0-0.16-0.04-0.16-0.14c0-0.1,0.06-0.17,0.22-0.25c0.33-0.15,1.169-0.899,1.539-1.319
			c0.07-0.08,0.14-0.1,0.19-0.1c0.09,0,0.13,0.07,0.13,0.15l-0.04,1.06h1.269c0.06,0,0.09,0.05,0.07,0.09l-0.1,0.43
			c-0.01,0.04-0.03,0.08-0.09,0.08h-1.169c-0.02,0.41-0.02,0.89-0.02,1.35V34.016z"/>
		<path d="M127.804,32.986v0.27c0,1.04,0.59,1.549,1.319,1.549c0.49,0,0.89-0.23,1.089-0.55c0.02-0.05,0.06-0.06,0.1-0.03l0.17,0.09
			c0.04,0.02,0.07,0.07-0.02,0.24c-0.18,0.37-0.83,1.06-1.769,1.06c-0.64,0-1.169-0.11-1.5-0.47c-0.509-0.55-0.679-0.94-0.689-1.719
			c0-0.28,0-0.81,0.45-1.469c0.36-0.53,0.97-0.819,1.739-0.819c1.619,0,1.709,1.549,1.709,1.709c0,0.13-0.09,0.14-0.31,0.14H127.804
			z M128.773,32.606c0.22,0,0.32-0.05,0.32-0.2c0-0.44-0.18-0.87-0.489-0.87c-0.47,0-0.72,0.37-0.79,1.069H128.773z"/>
		<path d="M132.813,31.687h0.08c0.11-0.13,0.29-0.26,0.48-0.36c0.22-0.12,0.439-0.189,0.77-0.189c0.39,0,0.77,0.04,1.029,0.28
			c0.42,0.39,0.45,0.64,0.45,1.139v1.06c0,0.34-0.02,0.81-0.04,1.159c-0.01,0.3,0.15,0.35,0.24,0.35h0.27
			c0.09,0,0.11,0.03,0.11,0.09v0.18c0,0.07-0.02,0.11-0.08,0.11c-0.07,0-0.38-0.03-1.18-0.03c-0.66,0-0.979,0.03-1.049,0.03
			c-0.06,0-0.08-0.03-0.08-0.11v-0.18c0-0.07,0.03-0.09,0.13-0.09h0.11c0.07,0,0.16-0.05,0.18-0.23c0.04-0.26,0.06-0.58,0.06-1.04
			v-1.069c0-0.38-0.03-0.64-0.24-0.83c-0.18-0.16-0.32-0.18-0.49-0.18c-0.18,0-0.31,0.05-0.51,0.2c-0.12,0.09-0.2,0.36-0.2,0.77
			l-0.02,2.049c0,0.18,0.07,0.33,0.16,0.33h0.13c0.08,0,0.1,0.03,0.1,0.1v0.19c0,0.06-0.02,0.09-0.07,0.09c-0.07,0-0.34-0.03-1-0.03
			c-0.709,0-1.029,0.03-1.089,0.03c-0.05,0-0.07-0.03-0.07-0.09v-0.2c0-0.06,0.02-0.09,0.1-0.09h0.15c0.11,0,0.28-0.03,0.28-0.2
			v-2.219c0-0.3-0.17-0.47-0.4-0.58l-0.09-0.04c-0.06-0.03-0.07-0.07-0.07-0.11v-0.09c0-0.05,0.04-0.08,0.09-0.1l1.279-0.58
			c0.08-0.03,0.15-0.07,0.23-0.07c0.06,0,0.12,0.05,0.14,0.12L132.813,31.687z"/>
	</g>
</g>
<g id="Layer_4">
	
		<polyline fill="none" stroke="#030303" stroke-width="0.085" stroke-linecap="round" stroke-linejoin="round" stroke-miterlimit="10" points="
		280.25,488.351 297.638,488.351 297.638,472.042 280.25,472.042 280.25,488.351 	"/>
	
		<polyline fill="none" stroke="#030303" stroke-width="0.0283" stroke-linecap="round" stroke-linejoin="round" stroke-miterlimit="10" points="
		281.547,487.164 296.452,487.164 296.452,473.339 281.547,473.339 281.547,487.164 	"/>
	
		<polyline fill="none" stroke="#030303" stroke-width="0.0283" stroke-linecap="round" stroke-linejoin="round" stroke-miterlimit="10" points="
		262.538,390.18 271.936,390.18 271.936,404.867 262.538,404.867 262.538,390.18 	"/>
	
		<polyline fill="none" stroke="#030303" stroke-width="0.0283" stroke-linecap="round" stroke-linejoin="round" stroke-miterlimit="10" points="
		262.538,450.335 271.936,450.335 271.936,435.646 262.538,435.646 262.538,450.335 	"/>
	<polyline fill="#030303" stroke="#030303" stroke-width="0.2551" stroke-linecap="square" stroke-miterlimit="10" points="
		278.307,518.158 278.307,525.828 274.526,525.828 274.526,518.158 278.307,518.158 	"/>
	
		<line fill="none" stroke="#070707" stroke-width="0.1984" stroke-linecap="round" stroke-linejoin="round" stroke-miterlimit="10" x1="280.25" y1="501.634" x2="280.25" y2="501.634"/>
	<rect x="280.25" y="501.527" fill="#98CF91" width="0.107" height="0.107"/>
	
		<polyline fill="none" stroke="#070707" stroke-width="0.1984" stroke-linecap="round" stroke-linejoin="round" stroke-miterlimit="10" points="
		280.25,501.634 280.25,490.294 315.136,490.294 315.136,501.634 322.155,501.634 	"/>
	
		<polyline fill="none" stroke="#070707" stroke-width="0.1984" stroke-linecap="round" stroke-linejoin="round" stroke-miterlimit="10" points="
		315.136,501.634 315.136,502.822 322.155,502.822 322.155,501.634 	"/>
	
		<line fill="none" stroke="#070707" stroke-width="0.1984" stroke-linecap="round" stroke-linejoin="round" stroke-miterlimit="10" x1="359.524" y1="458.652" x2="349.479" y2="458.652"/>
	
		<polyline fill="none" stroke="#070707" stroke-width="0.1984" stroke-linecap="round" stroke-linejoin="round" stroke-miterlimit="10" points="
		332.847,458.652 322.804,458.652 322.804,501.634 322.155,501.634 	"/>
	
		<line fill="none" stroke="#030303" stroke-width="0.085" stroke-linecap="round" stroke-linejoin="round" stroke-miterlimit="10" x1="315.136" y1="502.822" x2="315.136" y2="516.863"/>
	
		<polyline fill="none" stroke="#070707" stroke-width="0.1984" stroke-linecap="round" stroke-linejoin="round" stroke-miterlimit="10" points="
		322.804,522.046 322.804,518.158 322.155,518.158 	"/>
	
		<polyline fill="none" stroke="#070707" stroke-width="0.1984" stroke-linecap="round" stroke-linejoin="round" stroke-miterlimit="10" points="
		322.155,516.863 315.136,516.863 315.136,518.158 322.155,518.158 322.155,516.863 	"/>
	
		<line fill="none" stroke="#070707" stroke-width="0.1984" stroke-linecap="round" stroke-linejoin="round" stroke-miterlimit="10" x1="322.804" y1="502.175" x2="322.804" y2="517.511"/>
	
		<polyline fill="none" stroke="#070707" stroke-width="0.1984" stroke-linecap="round" stroke-linejoin="round" stroke-miterlimit="10" points="
		321.507,516.214 322.804,516.214 322.804,503.47 321.507,503.47 321.507,516.214 	"/>
	
		<line fill="none" stroke="#070707" stroke-width="0.1984" stroke-linecap="round" stroke-linejoin="round" stroke-miterlimit="10" x1="321.507" y1="509.843" x2="322.804" y2="509.843"/>
	<polyline fill="#030303" stroke="#030303" stroke-width="0.2551" stroke-linecap="square" stroke-miterlimit="10" points="
		320.858,518.158 320.858,525.828 317.079,525.828 317.079,518.158 320.858,518.158 	"/>
	
		<polyline fill="none" stroke="#070707" stroke-width="0.1984" stroke-linecap="round" stroke-linejoin="round" stroke-miterlimit="10" points="
		273.231,501.634 280.25,501.634 280.25,502.822 273.231,502.822 273.231,501.634 	"/>
	
		<line fill="none" stroke="#030303" stroke-width="0.085" stroke-linecap="round" stroke-linejoin="round" stroke-miterlimit="10" x1="280.25" y1="502.822" x2="280.25" y2="516.863"/>
	
		<polyline fill="none" stroke="#070707" stroke-width="0.1984" stroke-linecap="round" stroke-linejoin="round" stroke-miterlimit="10" points="
		273.231,516.863 280.25,516.863 280.25,518.158 273.231,518.158 273.231,516.863 	"/>
	
		<line fill="none" stroke="#070707" stroke-width="0.1984" stroke-linecap="round" stroke-linejoin="round" stroke-miterlimit="10" x1="272.583" y1="502.175" x2="272.583" y2="517.511"/>
	
		<polyline fill="none" stroke="#070707" stroke-width="0.1984" stroke-linecap="round" stroke-linejoin="round" stroke-miterlimit="10" points="
		273.879,516.214 272.583,516.214 272.583,503.47 273.879,503.47 273.879,516.214 	"/>
	
		<line fill="none" stroke="#070707" stroke-width="0.1984" stroke-linecap="round" stroke-linejoin="round" stroke-miterlimit="10" x1="273.879" y1="509.843" x2="272.583" y2="509.843"/>
	
		<polyline fill="none" stroke="#030303" stroke-width="0.0283" stroke-linecap="round" stroke-linejoin="round" stroke-miterlimit="10" points="
		281.547,491.591 313.839,491.591 313.839,536.626 281.547,536.626 281.547,491.591 	"/>
	<polyline fill="#030303" stroke="#030303" stroke-width="0.2551" stroke-linecap="square" stroke-miterlimit="10" points="
		363.411,522.046 359.524,522.046 359.524,525.828 363.411,525.828 363.411,522.046 	"/>
	
		<polyline fill="none" stroke="#030303" stroke-width="0.0283" stroke-linecap="round" stroke-linejoin="round" stroke-miterlimit="10" points="
		358.335,520.751 324.099,520.751 324.099,459.947 358.335,459.947 358.335,520.751 	"/>
	
		<polyline fill="none" stroke="#030303" stroke-width="0.0283" stroke-linecap="round" stroke-linejoin="round" stroke-miterlimit="10" points="
		355.743,518.158 326.583,518.158 326.583,462.431 355.743,462.431 355.743,518.158 	"/>
	
		<polyline fill="none" stroke="#070707" stroke-width="0.1984" stroke-linecap="round" stroke-linejoin="round" stroke-miterlimit="10" points="
		349.479,458.652 349.479,450.982 348.183,450.982 348.183,458.652 349.479,458.652 	"/>
	
		<line fill="none" stroke="#070707" stroke-width="0.1984" stroke-linecap="round" stroke-linejoin="round" stroke-miterlimit="10" x1="359.524" y1="450.982" x2="349.479" y2="450.982"/>
	<polyline fill="#030303" stroke="#030303" stroke-width="0.2551" stroke-linecap="square" stroke-miterlimit="10" points="
		349.479,452.927 363.411,452.927 363.411,456.707 349.479,456.707 349.479,452.927 	"/>
	
		<polyline fill="none" stroke="#070707" stroke-width="0.1984" stroke-linecap="round" stroke-linejoin="round" stroke-miterlimit="10" points="
		332.847,450.982 322.804,450.982 322.804,449.039 	"/>
	
		<polyline fill="none" stroke="#070707" stroke-width="0.1984" stroke-linecap="round" stroke-linejoin="round" stroke-miterlimit="10" points="
		322.804,391.475 322.804,389.531 332.847,389.531 	"/>
	
		<polyline fill="none" stroke="#070707" stroke-width="0.1984" stroke-linecap="round" stroke-linejoin="round" stroke-miterlimit="10" points="
		332.847,458.652 332.847,450.982 334.144,450.982 334.144,458.652 332.847,458.652 	"/>
	
		<line fill="none" stroke="#030303" stroke-width="0.085" stroke-linecap="round" stroke-linejoin="round" stroke-miterlimit="10" x1="348.183" y1="450.982" x2="334.144" y2="450.982"/>
	
		<line fill="none" stroke="#030303" stroke-width="0.085" stroke-linecap="round" stroke-linejoin="round" stroke-miterlimit="10" x1="348.183" y1="458.652" x2="334.144" y2="458.652"/>
	
		<polyline fill="none" stroke="#070707" stroke-width="0.1984" stroke-linecap="round" stroke-linejoin="round" stroke-miterlimit="10" points="
		245.907,458.652 245.907,450.982 247.204,450.982 247.204,458.652 245.907,458.652 	"/>
	
		<polyline fill="none" stroke="#070707" stroke-width="0.1984" stroke-linecap="round" stroke-linejoin="round" stroke-miterlimit="10" points="
		262.538,458.652 262.538,450.982 261.243,450.982 261.243,458.652 262.538,458.652 	"/>
	
		<line fill="none" stroke="#030303" stroke-width="0.085" stroke-linecap="round" stroke-linejoin="round" stroke-miterlimit="10" x1="247.204" y1="450.982" x2="261.243" y2="450.982"/>
	
		<line fill="none" stroke="#030303" stroke-width="0.085" stroke-linecap="round" stroke-linejoin="round" stroke-miterlimit="10" x1="247.204" y1="458.652" x2="261.243" y2="458.652"/>
	<polyline fill="#030303" stroke="#030303" stroke-width="0.2551" stroke-linecap="square" stroke-miterlimit="10" points="
		231.975,522.046 235.864,522.046 235.864,525.828 231.975,525.828 231.975,522.046 	"/>
	<polyline fill="#030303" stroke="#030303" stroke-width="0.2551" stroke-linecap="square" stroke-miterlimit="10" points="
		245.907,456.707 231.975,456.707 231.975,452.927 245.907,452.927 245.907,456.707 	"/>
	
		<polyline fill="none" stroke="#030303" stroke-width="0.0283" stroke-linecap="round" stroke-linejoin="round" stroke-miterlimit="10" points="
		237.051,520.751 271.286,520.751 271.286,459.947 237.051,459.947 237.051,520.751 	"/>
	
		<polyline fill="none" stroke="#030303" stroke-width="0.0283" stroke-linecap="round" stroke-linejoin="round" stroke-miterlimit="10" points="
		239.643,518.158 268.803,518.158 268.803,462.431 239.643,462.431 239.643,518.158 	"/>
	
		<polyline fill="none" stroke="#070707" stroke-width="0.1984" stroke-linecap="round" stroke-linejoin="round" stroke-miterlimit="10" points="
		272.583,522.046 272.583,518.158 273.231,518.158 	"/>
	
		<line fill="none" stroke="#070707" stroke-width="0.1984" stroke-linecap="round" stroke-linejoin="round" stroke-miterlimit="10" x1="235.864" y1="458.652" x2="245.907" y2="458.652"/>
	
		<line fill="none" stroke="#070707" stroke-width="0.1984" stroke-linecap="round" stroke-linejoin="round" stroke-miterlimit="10" x1="235.864" y1="450.982" x2="245.907" y2="450.982"/>
	
		<polyline fill="none" stroke="#070707" stroke-width="0.1984" stroke-linecap="round" stroke-linejoin="round" stroke-miterlimit="10" points="
		262.538,458.652 272.583,458.652 272.583,501.634 273.231,501.634 	"/>
	
		<polyline fill="none" stroke="#070707" stroke-width="0.1984" stroke-linecap="round" stroke-linejoin="round" stroke-miterlimit="10" points="
		262.538,450.982 272.583,450.982 272.583,449.039 	"/>
	
		<line fill="none" stroke="#070707" stroke-width="0.1984" stroke-linecap="round" stroke-linejoin="round" stroke-miterlimit="10" x1="272.583" y1="436.294" x2="272.583" y2="404.219"/>
	
		<polyline fill="none" stroke="#070707" stroke-width="0.1984" stroke-linecap="round" stroke-linejoin="round" stroke-miterlimit="10" points="
		272.583,391.475 272.583,389.531 262.538,389.531 	"/>
	
		<line fill="none" stroke="#030303" stroke-width="0.085" stroke-linecap="round" stroke-linejoin="round" stroke-miterlimit="10" x1="235.864" y1="389.531" x2="235.864" y2="450.982"/>
	
		<polyline fill="none" stroke="#070707" stroke-width="0.1984" stroke-linecap="round" stroke-linejoin="round" stroke-miterlimit="10" points="
		271.936,435.646 262.538,435.646 262.538,404.867 271.936,404.867 271.936,435.646 	"/>
	
		<polyline fill="none" stroke="#070707" stroke-width="0.1984" stroke-linecap="round" stroke-linejoin="round" stroke-miterlimit="10" points="
		349.479,381.863 349.479,389.531 348.183,389.531 348.183,381.863 349.479,381.863 	"/>
	
		<polyline fill="none" stroke="#070707" stroke-width="0.1984" stroke-linecap="round" stroke-linejoin="round" stroke-miterlimit="10" points="
		332.847,381.863 332.847,389.531 334.144,389.531 334.144,381.863 332.847,381.863 	"/>
	
		<line fill="none" stroke="#030303" stroke-width="0.085" stroke-linecap="round" stroke-linejoin="round" stroke-miterlimit="10" x1="348.183" y1="389.531" x2="334.144" y2="389.531"/>
	
		<line fill="none" stroke="#030303" stroke-width="0.085" stroke-linecap="round" stroke-linejoin="round" stroke-miterlimit="10" x1="348.183" y1="381.863" x2="334.144" y2="381.863"/>
	
		<line fill="none" stroke="#070707" stroke-width="0.1984" stroke-linecap="round" stroke-linejoin="round" stroke-miterlimit="10" x1="359.524" y1="389.531" x2="349.479" y2="389.531"/>
	
		<line fill="none" stroke="#070707" stroke-width="0.1984" stroke-linecap="round" stroke-linejoin="round" stroke-miterlimit="10" x1="359.524" y1="381.863" x2="349.479" y2="381.863"/>
	<polyline fill="#030303" stroke="#030303" stroke-width="0.2551" stroke-linecap="square" stroke-miterlimit="10" points="
		349.479,387.586 363.411,387.586 363.411,383.807 349.479,383.807 349.479,387.586 	"/>
	
		<polyline fill="none" stroke="#070707" stroke-width="0.1984" stroke-linecap="round" stroke-linejoin="round" stroke-miterlimit="10" points="
		245.907,381.863 245.907,389.531 247.204,389.531 247.204,381.863 245.907,381.863 	"/>
	
		<polyline fill="none" stroke="#070707" stroke-width="0.1984" stroke-linecap="round" stroke-linejoin="round" stroke-miterlimit="10" points="
		262.538,381.863 262.538,389.531 261.243,389.531 261.243,381.863 262.538,381.863 	"/>
	
		<line fill="none" stroke="#030303" stroke-width="0.085" stroke-linecap="round" stroke-linejoin="round" stroke-miterlimit="10" x1="247.204" y1="389.531" x2="261.243" y2="389.531"/>
	
		<line fill="none" stroke="#030303" stroke-width="0.085" stroke-linecap="round" stroke-linejoin="round" stroke-miterlimit="10" x1="247.204" y1="381.863" x2="261.243" y2="381.863"/>
	
		<line fill="none" stroke="#070707" stroke-width="0.1984" stroke-linecap="round" stroke-linejoin="round" stroke-miterlimit="10" x1="235.864" y1="389.531" x2="245.907" y2="389.531"/>
	
		<line fill="none" stroke="#070707" stroke-width="0.1984" stroke-linecap="round" stroke-linejoin="round" stroke-miterlimit="10" x1="235.864" y1="381.863" x2="245.907" y2="381.863"/>
	<polyline fill="#030303" stroke="#030303" stroke-width="0.2551" stroke-linecap="square" stroke-miterlimit="10" points="
		245.907,387.586 231.975,387.586 231.975,383.807 245.907,383.807 245.907,387.586 	"/>
	
		<path fill="none" stroke="#030303" stroke-width="0.0283" stroke-linecap="round" stroke-linejoin="round" stroke-miterlimit="10" d="
		M324.101,432.623c0,9.424,7.639,17.064,17.064,17.064c9.424,0,17.062-7.641,17.062-17.064"/>
	
		<line fill="none" stroke="#030303" stroke-width="0.0283" stroke-linecap="round" stroke-linejoin="round" stroke-miterlimit="10" x1="358.335" y1="432.623" x2="358.335" y2="407.891"/>
	
		<path fill="none" stroke="#030303" stroke-width="0.0283" stroke-linecap="round" stroke-linejoin="round" stroke-miterlimit="10" d="
		M358.228,407.891c0-9.424-7.639-17.062-17.062-17.062c-9.426,0-17.064,7.639-17.064,17.062l0,0"/>
	
		<line fill="none" stroke="#030303" stroke-width="0.0283" stroke-linecap="round" stroke-linejoin="round" stroke-miterlimit="10" x1="324.099" y1="407.891" x2="324.099" y2="432.623"/>
	
		<line fill="none" stroke="#030303" stroke-width="0.0283" stroke-linecap="round" stroke-linejoin="round" stroke-miterlimit="10" x1="274.526" y1="381.863" x2="274.526" y2="318.575"/>
	
		<line fill="none" stroke="#030303" stroke-width="0.0283" stroke-linecap="round" stroke-linejoin="round" stroke-miterlimit="10" x1="278.307" y1="381.863" x2="278.307" y2="318.575"/>
	<polyline fill="#030303" stroke="#030303" stroke-width="0.2551" stroke-linecap="square" stroke-miterlimit="10" points="
		320.858,318.575 317.079,318.575 317.079,314.688 320.858,314.688 320.858,318.575 	"/>
	<polyline fill="#030303" stroke="#030303" stroke-width="0.2551" stroke-linecap="square" stroke-miterlimit="10" points="
		274.526,318.575 278.307,318.575 278.307,314.688 274.526,314.688 274.526,318.575 	"/>
	<polyline fill="#030303" stroke="#030303" stroke-width="0.2551" stroke-linecap="square" stroke-miterlimit="10" points="
		278.307,404.219 278.307,436.294 274.526,436.294 274.526,404.219 278.307,404.219 	"/>
	<polyline fill="#030303" stroke="#030303" stroke-width="0.2551" stroke-linecap="square" stroke-miterlimit="10" points="
		320.858,404.219 320.858,436.294 317.079,436.294 317.079,404.219 320.858,404.219 	"/>
	<polyline fill="#030303" stroke="#030303" stroke-width="0.2551" stroke-linecap="square" stroke-miterlimit="10" points="
		363.411,318.575 359.524,318.575 359.524,314.688 363.411,314.688 363.411,318.575 	"/>
	<polyline fill="#030303" stroke="#030303" stroke-width="0.2551" stroke-linecap="square" stroke-miterlimit="10" points="
		231.975,318.575 235.864,318.575 235.864,314.688 231.975,314.688 231.975,318.575 	"/>
	
		<polyline fill="none" stroke="#070707" stroke-width="0.1984" stroke-linecap="round" stroke-linejoin="round" stroke-miterlimit="10" points="
		322.804,437.591 315.136,437.591 315.136,436.294 322.804,436.294 322.804,437.591 	"/>
	
		<polyline fill="none" stroke="#070707" stroke-width="0.1984" stroke-linecap="round" stroke-linejoin="round" stroke-miterlimit="10" points="
		315.136,404.219 315.136,406.164 280.25,406.164 280.25,404.219 	"/>
	
		<polyline fill="none" stroke="#070707" stroke-width="0.1984" stroke-linecap="round" stroke-linejoin="round" stroke-miterlimit="10" points="
		280.25,391.475 280.25,389.531 315.136,389.531 315.136,391.475 	"/>
	
		<polyline fill="none" stroke="#070707" stroke-width="0.1984" stroke-linecap="round" stroke-linejoin="round" stroke-miterlimit="10" points="
		280.25,436.294 280.25,408 315.136,408 315.136,436.294 	"/>
	
		<line fill="none" stroke="#030303" stroke-width="0.085" stroke-linecap="round" stroke-linejoin="round" stroke-miterlimit="10" x1="271.936" y1="425.386" x2="262.538" y2="425.386"/>
	
		<line fill="none" stroke="#030303" stroke-width="0.085" stroke-linecap="round" stroke-linejoin="round" stroke-miterlimit="10" x1="271.936" y1="415.127" x2="262.538" y2="415.127"/>
	
		<line fill="none" stroke="#070707" stroke-width="0.1984" stroke-linecap="round" stroke-linejoin="round" stroke-miterlimit="10" x1="322.804" y1="436.294" x2="322.804" y2="404.219"/>
	
		<polyline fill="none" stroke="#070707" stroke-width="0.1984" stroke-linecap="round" stroke-linejoin="round" stroke-miterlimit="10" points="
		322.804,447.851 315.136,447.851 315.136,449.039 322.804,449.039 322.804,447.851 	"/>
	
		<polyline fill="none" stroke="#070707" stroke-width="0.1984" stroke-linecap="round" stroke-linejoin="round" stroke-miterlimit="10" points="
		272.583,437.591 280.25,437.591 280.25,436.294 272.583,436.294 272.583,437.591 	"/>
	
		<polyline fill="none" stroke="#070707" stroke-width="0.1984" stroke-linecap="round" stroke-linejoin="round" stroke-miterlimit="10" points="
		272.583,447.851 280.25,447.851 280.25,449.039 272.583,449.039 272.583,447.851 	"/>
	
		<polyline fill="none" stroke="#070707" stroke-width="0.1984" stroke-linecap="round" stroke-linejoin="round" stroke-miterlimit="10" points="
		315.136,449.039 315.136,450.982 280.25,450.982 280.25,449.039 	"/>
	
		<line fill="none" stroke="#030303" stroke-width="0.085" stroke-linecap="round" stroke-linejoin="round" stroke-miterlimit="10" x1="280.25" y1="447.851" x2="280.25" y2="437.591"/>
	
		<line fill="none" stroke="#030303" stroke-width="0.085" stroke-linecap="round" stroke-linejoin="round" stroke-miterlimit="10" x1="272.583" y1="447.851" x2="272.583" y2="437.591"/>
	
		<line fill="none" stroke="#030303" stroke-width="0.085" stroke-linecap="round" stroke-linejoin="round" stroke-miterlimit="10" x1="315.136" y1="447.851" x2="315.136" y2="437.591"/>
	
		<line fill="none" stroke="#030303" stroke-width="0.085" stroke-linecap="round" stroke-linejoin="round" stroke-miterlimit="10" x1="322.804" y1="447.851" x2="322.804" y2="437.591"/>
	
		<polyline fill="none" stroke="#030303" stroke-width="0.085" stroke-linecap="round" stroke-linejoin="round" stroke-miterlimit="10" points="
		236.51,450.335 245.907,450.335 245.907,390.18 236.51,390.18 236.51,450.335 	"/>
	
		<line fill="none" stroke="#030303" stroke-width="0.0283" stroke-linecap="round" stroke-linejoin="round" stroke-miterlimit="10" x1="242.342" y1="424.523" x2="242.342" y2="415.775"/>
	
		<line fill="none" stroke="#030303" stroke-width="0.0283" stroke-linecap="round" stroke-linejoin="round" stroke-miterlimit="10" x1="244.61" y1="424.523" x2="244.61" y2="415.775"/>
	
		<line fill="none" stroke="#030303" stroke-width="0.0283" stroke-linecap="round" stroke-linejoin="round" stroke-miterlimit="10" x1="240.075" y1="424.523" x2="240.075" y2="415.775"/>
	
		<line fill="none" stroke="#030303" stroke-width="0.0283" stroke-linecap="round" stroke-linejoin="round" stroke-miterlimit="10" x1="237.698" y1="424.523" x2="237.698" y2="415.775"/>
	
		<circle fill="none" stroke="#030303" stroke-width="0.0283" stroke-linecap="round" stroke-linejoin="round" stroke-miterlimit="10" cx="243.532" cy="428.086" r="1.188"/>
	
		<circle fill="none" stroke="#030303" stroke-width="0.0283" stroke-linecap="round" stroke-linejoin="round" stroke-miterlimit="10" cx="238.78" cy="428.086" r="1.188"/>
	
		<circle fill="none" stroke="#030303" stroke-width="0.0283" stroke-linecap="round" stroke-linejoin="round" stroke-miterlimit="10" cx="243.532" cy="433.054" r="1.188"/>
	
		<circle fill="none" stroke="#030303" stroke-width="0.0283" stroke-linecap="round" stroke-linejoin="round" stroke-miterlimit="10" cx="238.78" cy="433.054" r="1.188"/>
	
		<line fill="none" stroke="#030303" stroke-width="0.085" stroke-linecap="round" stroke-linejoin="round" stroke-miterlimit="10" x1="236.51" y1="425.386" x2="245.907" y2="425.386"/>
	
		<line fill="none" stroke="#030303" stroke-width="0.085" stroke-linecap="round" stroke-linejoin="round" stroke-miterlimit="10" x1="236.51" y1="415.127" x2="245.907" y2="415.127"/>
	
		<polyline fill="none" stroke="#030303" stroke-width="0.0283" stroke-linecap="round" stroke-linejoin="round" stroke-miterlimit="10" points="
		244.61,413.83 237.698,413.83 237.698,406.164 244.61,406.164 244.61,413.83 	"/>
	
		<line fill="none" stroke="#030303" stroke-width="0.0283" stroke-linecap="round" stroke-linejoin="round" stroke-miterlimit="10" x1="236.834" y1="409.943" x2="238.67" y2="409.943"/>
	
		<line fill="none" stroke="#030303" stroke-width="0.085" stroke-linecap="round" stroke-linejoin="round" stroke-miterlimit="10" x1="245.907" y1="435.646" x2="236.51" y2="435.646"/>
	
		<line fill="none" stroke="#030303" stroke-width="0.085" stroke-linecap="round" stroke-linejoin="round" stroke-miterlimit="10" x1="245.907" y1="404.867" x2="236.51" y2="404.867"/>
	
		<line fill="none" stroke="#030303" stroke-width="0.085" stroke-linecap="round" stroke-linejoin="round" stroke-miterlimit="10" x1="236.51" y1="394.607" x2="245.907" y2="394.607"/>
	
		<line fill="none" stroke="#030303" stroke-width="0.085" stroke-linecap="round" stroke-linejoin="round" stroke-miterlimit="10" x1="236.51" y1="445.908" x2="245.907" y2="445.908"/>
	
		<line fill="none" stroke="#030303" stroke-width="0.085" stroke-linecap="round" stroke-linejoin="round" stroke-miterlimit="10" x1="280.25" y1="434.458" x2="296.452" y2="434.458"/>
	
		<line fill="none" stroke="#030303" stroke-width="0.085" stroke-linecap="round" stroke-linejoin="round" stroke-miterlimit="10" x1="298.937" y1="434.458" x2="315.136" y2="434.458"/>
	
		<line fill="none" stroke="#030303" stroke-width="0.085" stroke-linecap="round" stroke-linejoin="round" stroke-miterlimit="10" x1="280.25" y1="431.328" x2="296.452" y2="431.328"/>
	
		<line fill="none" stroke="#030303" stroke-width="0.085" stroke-linecap="round" stroke-linejoin="round" stroke-miterlimit="10" x1="298.937" y1="431.328" x2="315.136" y2="431.328"/>
	
		<line fill="none" stroke="#030303" stroke-width="0.085" stroke-linecap="round" stroke-linejoin="round" stroke-miterlimit="10" x1="280.25" y1="428.302" x2="296.452" y2="428.302"/>
	
		<line fill="none" stroke="#030303" stroke-width="0.085" stroke-linecap="round" stroke-linejoin="round" stroke-miterlimit="10" x1="298.937" y1="428.302" x2="315.136" y2="428.302"/>
	
		<line fill="none" stroke="#030303" stroke-width="0.085" stroke-linecap="round" stroke-linejoin="round" stroke-miterlimit="10" x1="280.25" y1="425.171" x2="296.452" y2="425.171"/>
	
		<line fill="none" stroke="#030303" stroke-width="0.085" stroke-linecap="round" stroke-linejoin="round" stroke-miterlimit="10" x1="298.937" y1="425.171" x2="315.136" y2="425.171"/>
	
		<line fill="none" stroke="#030303" stroke-width="0.085" stroke-linecap="round" stroke-linejoin="round" stroke-miterlimit="10" x1="297.638" y1="420.852" x2="297.638" y2="408"/>
	
		<line fill="none" stroke="#030303" stroke-width="0.085" stroke-linecap="round" stroke-linejoin="round" stroke-miterlimit="10" x1="298.937" y1="420.852" x2="311.464" y2="408"/>
	
		<line fill="none" stroke="#030303" stroke-width="0.085" stroke-linecap="round" stroke-linejoin="round" stroke-miterlimit="10" x1="296.452" y1="420.852" x2="283.924" y2="408"/>
	
		<line fill="none" stroke="#030303" stroke-width="0.085" stroke-linecap="round" stroke-linejoin="round" stroke-miterlimit="10" x1="315.136" y1="414.803" x2="298.937" y2="421.607"/>
	
		<line fill="none" stroke="#030303" stroke-width="0.085" stroke-linecap="round" stroke-linejoin="round" stroke-miterlimit="10" x1="303.255" y1="408" x2="298.181" y2="420.852"/>
	
		<line fill="none" stroke="#030303" stroke-width="0.085" stroke-linecap="round" stroke-linejoin="round" stroke-miterlimit="10" x1="280.25" y1="414.803" x2="296.452" y2="421.607"/>
	
		<line fill="none" stroke="#030303" stroke-width="0.085" stroke-linecap="round" stroke-linejoin="round" stroke-miterlimit="10" x1="292.132" y1="408" x2="297.208" y2="420.852"/>
	
		<polyline fill="none" stroke="#030303" stroke-width="0.085" stroke-linecap="round" stroke-linejoin="round" stroke-miterlimit="10" points="
		298.286,434.458 298.286,421.5 297.099,421.5 297.099,434.458 298.286,434.458 	"/>
	
		<polyline fill="none" stroke="#030303" stroke-width="0.085" stroke-linecap="round" stroke-linejoin="round" stroke-miterlimit="10" points="
		298.937,435 298.937,420.852 296.452,420.852 296.452,435 298.937,435 	"/>
	
		<line fill="none" stroke="#030303" stroke-width="0.085" stroke-linecap="round" stroke-linejoin="round" stroke-miterlimit="10" x1="280.25" y1="422.146" x2="296.452" y2="422.146"/>
	
		<line fill="none" stroke="#030303" stroke-width="0.085" stroke-linecap="round" stroke-linejoin="round" stroke-miterlimit="10" x1="298.937" y1="422.146" x2="315.136" y2="422.146"/>
	
		<polyline fill="none" stroke="#030303" stroke-width="0.0283" stroke-linecap="round" stroke-linejoin="round" stroke-miterlimit="10" points="
		281.547,435.646 313.839,435.646 313.839,449.687 281.547,449.687 281.547,435.646 	"/>
	
		<polyline fill="none" stroke="#070707" stroke-width="0.1984" stroke-linecap="round" stroke-linejoin="round" stroke-miterlimit="10" points="
		322.804,402.922 315.136,402.922 315.136,404.219 322.804,404.219 322.804,402.922 	"/>
	
		<polyline fill="none" stroke="#070707" stroke-width="0.1984" stroke-linecap="round" stroke-linejoin="round" stroke-miterlimit="10" points="
		272.583,402.922 280.25,402.922 280.25,404.219 272.583,404.219 272.583,402.922 	"/>
	
		<polyline fill="none" stroke="#070707" stroke-width="0.1984" stroke-linecap="round" stroke-linejoin="round" stroke-miterlimit="10" points="
		322.804,392.771 315.136,392.771 315.136,391.475 322.804,391.475 322.804,392.771 	"/>
	
		<polyline fill="none" stroke="#070707" stroke-width="0.1984" stroke-linecap="round" stroke-linejoin="round" stroke-miterlimit="10" points="
		272.583,392.771 280.25,392.771 280.25,391.475 272.583,391.475 272.583,392.771 	"/>
	
		<line fill="none" stroke="#030303" stroke-width="0.085" stroke-linecap="round" stroke-linejoin="round" stroke-miterlimit="10" x1="280.25" y1="392.771" x2="280.25" y2="402.922"/>
	
		<line fill="none" stroke="#030303" stroke-width="0.085" stroke-linecap="round" stroke-linejoin="round" stroke-miterlimit="10" x1="272.583" y1="392.771" x2="272.583" y2="402.922"/>
	
		<line fill="none" stroke="#030303" stroke-width="0.085" stroke-linecap="round" stroke-linejoin="round" stroke-miterlimit="10" x1="315.136" y1="392.771" x2="315.136" y2="402.922"/>
	
		<line fill="none" stroke="#030303" stroke-width="0.085" stroke-linecap="round" stroke-linejoin="round" stroke-miterlimit="10" x1="322.804" y1="392.771" x2="322.804" y2="402.922"/>
	
		<line fill="none" stroke="#030303" stroke-width="0.085" stroke-linecap="round" stroke-linejoin="round" stroke-miterlimit="10" x1="315.136" y1="402.922" x2="280.25" y2="402.922"/>
	
		<line fill="none" stroke="#030303" stroke-width="0.085" stroke-linecap="round" stroke-linejoin="round" stroke-miterlimit="10" x1="315.136" y1="392.771" x2="280.25" y2="392.771"/>
	
		<polyline fill="none" stroke="#070707" stroke-width="0.1984" stroke-linecap="round" stroke-linejoin="round" stroke-miterlimit="10" points="
		322.804,472.042 315.136,472.042 315.136,473.339 322.804,473.339 322.804,472.042 	"/>
	
		<polyline fill="none" stroke="#070707" stroke-width="0.1984" stroke-linecap="round" stroke-linejoin="round" stroke-miterlimit="10" points="
		322.804,461.783 315.136,461.783 315.136,460.595 322.804,460.595 322.804,461.783 	"/>
	
		<line fill="none" stroke="#030303" stroke-width="0.085" stroke-linecap="round" stroke-linejoin="round" stroke-miterlimit="10" x1="315.136" y1="461.783" x2="315.136" y2="472.042"/>
	
		<line fill="none" stroke="#030303" stroke-width="0.085" stroke-linecap="round" stroke-linejoin="round" stroke-miterlimit="10" x1="322.804" y1="461.783" x2="322.804" y2="472.042"/>
	
		<polyline fill="none" stroke="#070707" stroke-width="0.1984" stroke-linecap="round" stroke-linejoin="round" stroke-miterlimit="10" points="
		272.583,472.042 280.25,472.042 280.25,473.339 272.583,473.339 272.583,472.042 	"/>
	
		<polyline fill="none" stroke="#070707" stroke-width="0.1984" stroke-linecap="round" stroke-linejoin="round" stroke-miterlimit="10" points="
		272.583,461.783 280.25,461.783 280.25,460.595 272.583,460.595 272.583,461.783 	"/>
	
		<line fill="none" stroke="#030303" stroke-width="0.085" stroke-linecap="round" stroke-linejoin="round" stroke-miterlimit="10" x1="280.25" y1="461.783" x2="280.25" y2="472.042"/>
	
		<line fill="none" stroke="#030303" stroke-width="0.085" stroke-linecap="round" stroke-linejoin="round" stroke-miterlimit="10" x1="272.583" y1="461.783" x2="272.583" y2="472.042"/>
	<polyline fill="#030303" stroke="#030303" stroke-width="0.2551" stroke-linecap="square" stroke-miterlimit="10" points="
		274.526,460.595 274.526,456.707 262.538,456.707 262.538,452.927 274.526,452.927 274.526,449.039 278.307,449.039 
		278.307,452.927 317.079,452.927 317.079,449.039 320.858,449.039 320.858,452.927 332.847,452.927 332.847,456.707 
		320.858,456.707 320.858,460.595 317.079,460.595 317.079,456.707 278.307,456.707 278.307,460.595 274.526,460.595 	"/>
	<polyline fill="#030303" stroke="#030303" stroke-width="0.2551" stroke-linecap="square" stroke-miterlimit="10" points="
		320.858,473.339 320.858,501.634 317.079,501.634 317.079,473.339 320.858,473.339 	"/>
	<polyline fill="#030303" stroke="#030303" stroke-width="0.2551" stroke-linecap="square" stroke-miterlimit="10" points="
		278.307,473.339 278.307,501.634 274.526,501.634 274.526,473.339 278.307,473.339 	"/>
	
		<polyline fill="none" stroke="#070707" stroke-width="0.1984" stroke-linecap="round" stroke-linejoin="round" stroke-miterlimit="10" points="
		315.136,473.339 315.136,488.351 280.25,488.351 280.25,473.339 	"/>
	
		<polyline fill="none" stroke="#070707" stroke-width="0.1984" stroke-linecap="round" stroke-linejoin="round" stroke-miterlimit="10" points="
		315.136,460.595 315.136,458.652 280.25,458.652 280.25,460.595 	"/>
	
		<line fill="none" stroke="#030303" stroke-width="0.085" stroke-linecap="round" stroke-linejoin="round" stroke-miterlimit="10" x1="315.136" y1="461.783" x2="280.25" y2="461.783"/>
	
		<polyline fill="none" stroke="#030303" stroke-width="0.085" stroke-linecap="round" stroke-linejoin="round" stroke-miterlimit="10" points="
		303.903,487.81 308.979,487.81 308.979,479.494 303.903,479.494 303.903,487.81 	"/>
	
		<line fill="none" stroke="#030303" stroke-width="0.085" stroke-linecap="round" stroke-linejoin="round" stroke-miterlimit="10" x1="308.979" y1="485.218" x2="303.903" y2="485.218"/>
	
		<line fill="none" stroke="#030303" stroke-width="0.085" stroke-linecap="round" stroke-linejoin="round" stroke-miterlimit="10" x1="306.388" y1="487.81" x2="306.388" y2="488.351"/>
	
		<line fill="none" stroke="#030303" stroke-width="0.085" stroke-linecap="round" stroke-linejoin="round" stroke-miterlimit="10" x1="315.136" y1="472.042" x2="297.638" y2="472.042"/>
	
		<polyline fill="none" stroke="#030303" stroke-width="0.0283" stroke-linecap="round" stroke-linejoin="round" stroke-miterlimit="10" points="
		238.346,321.059 271.936,321.059 271.936,379.379 238.346,379.379 238.346,321.059 	"/>
	
		<polyline fill="none" stroke="#030303" stroke-width="0.0283" stroke-linecap="round" stroke-linejoin="round" stroke-miterlimit="10" points="
		314.487,321.059 280.899,321.059 280.899,379.379 314.487,379.379 314.487,321.059 	"/>
	
		<polyline fill="none" stroke="#030303" stroke-width="0.0283" stroke-linecap="round" stroke-linejoin="round" stroke-miterlimit="10" points="
		357.038,321.059 323.452,321.059 323.452,379.379 357.038,379.379 357.038,321.059 	"/>
	
		<polyline fill="none" stroke="#070707" stroke-width="0.2551" stroke-linecap="round" stroke-linejoin="round" stroke-miterlimit="10" points="
		236.834,300.322 237.698,300.322 237.698,317.604 236.834,317.604 236.834,318.575 235.864,318.575 235.864,299.459 
		236.834,299.459 236.834,300.322 	"/>
	
		<polyline fill="none" stroke="#070707" stroke-width="0.2551" stroke-linecap="round" stroke-linejoin="round" stroke-miterlimit="10" points="
		217.61,319.547 217.61,320.411 234.891,320.411 234.891,319.547 235.864,319.547 235.864,318.575 216.637,318.575 216.637,319.547 
		217.61,319.547 	"/>
	
		<polyline fill="none" stroke="#070707" stroke-width="0.2551" stroke-linecap="round" stroke-linejoin="round" stroke-miterlimit="10" points="
		279.28,300.322 280.25,300.322 280.25,317.604 279.28,317.604 279.28,318.575 278.307,318.575 278.307,299.459 279.28,299.459 
		279.28,300.322 	"/>
	
		<polyline fill="none" stroke="#070707" stroke-width="0.2551" stroke-linecap="round" stroke-linejoin="round" stroke-miterlimit="10" points="
		273.553,300.322 272.583,300.322 272.583,317.604 273.553,317.604 273.553,318.575 274.526,318.575 274.526,299.459 
		273.553,299.459 273.553,300.322 	"/>
	
		<polyline fill="none" stroke="#070707" stroke-width="0.2551" stroke-linecap="round" stroke-linejoin="round" stroke-miterlimit="10" points="
		358.552,300.322 357.687,300.322 357.687,317.604 358.552,317.604 358.552,318.575 359.524,318.575 359.524,299.459 
		358.552,299.459 358.552,300.322 	"/>
	
		<polyline fill="none" stroke="#070707" stroke-width="0.2551" stroke-linecap="round" stroke-linejoin="round" stroke-miterlimit="10" points="
		377.774,319.547 377.774,320.411 360.495,320.411 360.495,319.547 359.524,319.547 359.524,318.575 378.638,318.575 
		378.638,319.547 377.774,319.547 	"/>
	
		<polyline fill="none" stroke="#070707" stroke-width="0.2551" stroke-linecap="round" stroke-linejoin="round" stroke-miterlimit="10" points="
		316.108,300.322 315.136,300.322 315.136,317.604 316.108,317.604 316.108,318.575 317.079,318.575 317.079,299.459 
		316.108,299.459 316.108,300.322 	"/>
	
		<polyline fill="none" stroke="#070707" stroke-width="0.2551" stroke-linecap="round" stroke-linejoin="round" stroke-miterlimit="10" points="
		321.831,300.322 322.804,300.322 322.804,317.604 321.831,317.604 321.831,318.575 320.858,318.575 320.858,299.459 
		321.831,299.459 321.831,300.322 	"/>
	
		<polyline fill="none" stroke="#070707" stroke-width="0.2551" stroke-linecap="round" stroke-linejoin="round" stroke-miterlimit="10" points="
		236.834,540.191 237.698,540.191 237.698,522.91 236.834,522.91 236.834,522.046 235.864,522.046 235.864,541.164 236.834,541.164 
		236.834,540.191 	"/>
	
		<polyline fill="none" stroke="#070707" stroke-width="0.2551" stroke-linecap="round" stroke-linejoin="round" stroke-miterlimit="10" points="
		217.61,521.074 217.61,520.103 234.891,520.103 234.891,521.074 235.864,521.074 235.864,522.046 216.637,522.046 216.637,521.074 
		217.61,521.074 	"/>
	
		<polyline fill="none" stroke="#070707" stroke-width="0.2551" stroke-linecap="round" stroke-linejoin="round" stroke-miterlimit="10" points="
		273.553,540.191 272.583,540.191 272.583,522.91 273.553,522.91 273.553,522.046 274.526,522.046 274.526,541.164 273.553,541.164 
		273.553,540.191 	"/>
	
		<polyline fill="none" stroke="#070707" stroke-width="0.2551" stroke-linecap="round" stroke-linejoin="round" stroke-miterlimit="10" points="
		358.552,540.191 357.687,540.191 357.687,522.91 358.552,522.91 358.552,522.046 359.524,522.046 359.524,541.164 358.552,541.164 
		358.552,540.191 	"/>
	
		<polyline fill="none" stroke="#070707" stroke-width="0.2551" stroke-linecap="round" stroke-linejoin="round" stroke-miterlimit="10" points="
		377.774,521.074 377.774,520.103 360.495,520.103 360.495,521.074 359.524,521.074 359.524,522.046 378.638,522.046 
		378.638,521.074 377.774,521.074 	"/>
	
		<polyline fill="none" stroke="#070707" stroke-width="0.2551" stroke-linecap="round" stroke-linejoin="round" stroke-miterlimit="10" points="
		321.831,540.191 322.804,540.191 322.804,522.91 321.831,522.91 321.831,522.046 320.858,522.046 320.858,541.164 321.831,541.164 
		321.831,540.191 	"/>
	
		<polyline fill="none" stroke="#070707" stroke-width="0.2551" stroke-linecap="round" stroke-linejoin="round" stroke-miterlimit="10" points="
		377.774,382.836 377.774,381.863 360.495,381.863 360.495,382.836 359.524,382.836 359.524,383.807 378.638,383.807 
		378.638,382.836 377.774,382.836 	"/>
	
		<polyline fill="none" stroke="#070707" stroke-width="0.2551" stroke-linecap="round" stroke-linejoin="round" stroke-miterlimit="10" points="
		377.774,388.559 377.774,389.531 360.495,389.531 360.495,388.559 359.524,388.559 359.524,387.586 378.638,387.586 
		378.638,388.559 377.774,388.559 	"/>
	
		<polyline fill="none" stroke="#070707" stroke-width="0.2551" stroke-linecap="round" stroke-linejoin="round" stroke-miterlimit="10" points="
		217.61,382.836 217.61,381.863 234.891,381.863 234.891,382.836 235.864,382.836 235.864,383.807 216.637,383.807 216.637,382.836 
		217.61,382.836 	"/>
	
		<polyline fill="none" stroke="#070707" stroke-width="0.2551" stroke-linecap="round" stroke-linejoin="round" stroke-miterlimit="10" points="
		217.61,388.559 217.61,389.531 234.891,389.531 234.891,388.559 235.864,388.559 235.864,387.586 216.637,387.586 216.637,388.559 
		217.61,388.559 	"/>
	
		<polyline fill="none" stroke="#070707" stroke-width="0.2551" stroke-linecap="round" stroke-linejoin="round" stroke-miterlimit="10" points="
		377.774,451.955 377.774,450.982 360.495,450.982 360.495,451.955 359.524,451.955 359.524,452.927 378.638,452.927 
		378.638,451.955 377.774,451.955 	"/>
	
		<polyline fill="none" stroke="#070707" stroke-width="0.2551" stroke-linecap="round" stroke-linejoin="round" stroke-miterlimit="10" points="
		377.774,457.679 377.774,458.652 360.495,458.652 360.495,457.679 359.524,457.679 359.524,456.707 378.638,456.707 
		378.638,457.679 377.774,457.679 	"/>
	
		<polyline fill="none" stroke="#070707" stroke-width="0.2551" stroke-linecap="round" stroke-linejoin="round" stroke-miterlimit="10" points="
		217.61,451.955 217.61,450.982 234.891,450.982 234.891,451.955 235.864,451.955 235.864,452.927 216.637,452.927 216.637,451.955 
		217.61,451.955 	"/>
	
		<polyline fill="none" stroke="#070707" stroke-width="0.2551" stroke-linecap="round" stroke-linejoin="round" stroke-miterlimit="10" points="
		217.61,457.679 217.61,458.652 234.891,458.652 234.891,457.679 235.864,457.679 235.864,456.707 216.637,456.707 216.637,457.679 
		217.61,457.679 	"/>
	
		<line fill="none" stroke="#030303" stroke-width="0.2126" stroke-linecap="round" stroke-linejoin="round" stroke-miterlimit="10" x1="358.552" y1="299.459" x2="321.831" y2="299.459"/>
	
		<line fill="none" stroke="#030303" stroke-width="0.2126" stroke-linecap="round" stroke-linejoin="round" stroke-miterlimit="10" x1="279.28" y1="299.459" x2="316.108" y2="299.459"/>
	
		<line fill="none" stroke="#070707" stroke-width="0.2551" stroke-linecap="round" stroke-linejoin="round" stroke-miterlimit="10" x1="274.526" y1="299.459" x2="278.307" y2="299.459"/>
	
		<polyline fill="none" stroke="#030303" stroke-width="0.085" stroke-linecap="round" stroke-linejoin="round" stroke-miterlimit="10" points="
		275.174,300 277.659,300 277.659,314.039 275.174,314.039 275.174,300 	"/>
	
		<line fill="none" stroke="#030303" stroke-width="0.085" stroke-linecap="round" stroke-linejoin="round" stroke-miterlimit="10" x1="280.25" y1="300.322" x2="315.136" y2="300.322"/>
	
		<line fill="none" stroke="#030303" stroke-width="0.2126" stroke-linecap="round" stroke-linejoin="round" stroke-miterlimit="10" x1="279.28" y1="318.575" x2="316.108" y2="318.575"/>
	
		<line fill="none" stroke="#030303" stroke-width="0.085" stroke-linecap="round" stroke-linejoin="round" stroke-miterlimit="10" x1="280.25" y1="317.604" x2="315.136" y2="317.604"/>
	
		<line fill="none" stroke="#030303" stroke-width="0.085" stroke-linecap="round" stroke-linejoin="round" stroke-miterlimit="10" x1="357.687" y1="300.322" x2="322.804" y2="300.322"/>
	
		<line fill="none" stroke="#030303" stroke-width="0.2126" stroke-linecap="round" stroke-linejoin="round" stroke-miterlimit="10" x1="358.552" y1="318.575" x2="321.831" y2="318.575"/>
	
		<line fill="none" stroke="#030303" stroke-width="0.085" stroke-linecap="round" stroke-linejoin="round" stroke-miterlimit="10" x1="357.687" y1="317.604" x2="322.804" y2="317.604"/>
	
		<line fill="none" stroke="#070707" stroke-width="0.2551" stroke-linecap="round" stroke-linejoin="round" stroke-miterlimit="10" x1="320.858" y1="299.459" x2="317.079" y2="299.459"/>
	
		<polyline fill="none" stroke="#030303" stroke-width="0.085" stroke-linecap="round" stroke-linejoin="round" stroke-miterlimit="10" points="
		320.21,300 317.728,300 317.728,314.039 320.21,314.039 320.21,300 	"/>
	
		<line fill="none" stroke="#030303" stroke-width="0.2126" stroke-linecap="round" stroke-linejoin="round" stroke-miterlimit="10" x1="273.553" y1="299.459" x2="236.834" y2="299.459"/>
	
		<line fill="none" stroke="#030303" stroke-width="0.085" stroke-linecap="round" stroke-linejoin="round" stroke-miterlimit="10" x1="272.583" y1="300.322" x2="237.698" y2="300.322"/>
	
		<line fill="none" stroke="#030303" stroke-width="0.2126" stroke-linecap="round" stroke-linejoin="round" stroke-miterlimit="10" x1="273.553" y1="318.575" x2="236.834" y2="318.575"/>
	
		<line fill="none" stroke="#030303" stroke-width="0.085" stroke-linecap="round" stroke-linejoin="round" stroke-miterlimit="10" x1="272.583" y1="317.604" x2="237.698" y2="317.604"/>
	
		<polyline fill="none" stroke="#030303" stroke-width="0.2126" stroke-linecap="round" stroke-linejoin="round" stroke-miterlimit="10" points="
		235.864,299.459 216.637,299.459 216.637,318.575 	"/>
	
		<polyline fill="none" stroke="#030303" stroke-width="0.085" stroke-linecap="round" stroke-linejoin="round" stroke-miterlimit="10" points="
		234.891,313.715 234.891,300.322 217.61,300.322 217.61,317.604 231.002,317.604 231.002,313.715 234.891,313.715 	"/>
	
		<polyline fill="none" stroke="#030303" stroke-width="0.2126" stroke-linecap="round" stroke-linejoin="round" stroke-miterlimit="10" points="
		359.524,299.459 378.638,299.459 378.638,318.575 	"/>
	
		<polyline fill="none" stroke="#030303" stroke-width="0.085" stroke-linecap="round" stroke-linejoin="round" stroke-miterlimit="10" points="
		360.495,313.715 360.495,300.322 377.774,300.322 377.774,317.604 364.382,317.604 364.382,313.715 360.495,313.715 	"/>
	
		<polyline fill="none" stroke="#030303" stroke-width="0.2126" stroke-linecap="round" stroke-linejoin="round" stroke-miterlimit="10" points="
		235.864,541.164 216.637,541.164 216.637,522.046 	"/>
	
		<polyline fill="none" stroke="#030303" stroke-width="0.085" stroke-linecap="round" stroke-linejoin="round" stroke-miterlimit="10" points="
		234.891,526.798 234.891,540.191 217.61,540.191 217.61,522.91 231.002,522.91 231.002,526.798 234.891,526.798 	"/>
	
		<polyline fill="none" stroke="#030303" stroke-width="0.2126" stroke-linecap="round" stroke-linejoin="round" stroke-miterlimit="10" points="
		359.524,541.164 378.638,541.164 378.638,522.046 	"/>
	
		<polyline fill="none" stroke="#030303" stroke-width="0.085" stroke-linecap="round" stroke-linejoin="round" stroke-miterlimit="10" points="
		360.495,526.798 360.495,540.191 377.774,540.191 377.774,522.91 364.382,522.91 364.382,526.798 360.495,526.798 	"/>
	
		<line fill="none" stroke="#030303" stroke-width="0.2126" stroke-linecap="round" stroke-linejoin="round" stroke-miterlimit="10" x1="358.552" y1="541.164" x2="321.831" y2="541.164"/>
	
		<line fill="none" stroke="#030303" stroke-width="0.085" stroke-linecap="round" stroke-linejoin="round" stroke-miterlimit="10" x1="357.687" y1="540.191" x2="322.804" y2="540.191"/>
	
		<line fill="none" stroke="#030303" stroke-width="0.2126" stroke-linecap="round" stroke-linejoin="round" stroke-miterlimit="10" x1="358.552" y1="522.046" x2="321.831" y2="522.046"/>
	
		<line fill="none" stroke="#030303" stroke-width="0.085" stroke-linecap="round" stroke-linejoin="round" stroke-miterlimit="10" x1="357.687" y1="522.91" x2="322.804" y2="522.91"/>
	
		<line fill="none" stroke="#030303" stroke-width="0.2126" stroke-linecap="round" stroke-linejoin="round" stroke-miterlimit="10" x1="273.553" y1="541.164" x2="236.834" y2="541.164"/>
	
		<line fill="none" stroke="#030303" stroke-width="0.085" stroke-linecap="round" stroke-linejoin="round" stroke-miterlimit="10" x1="272.583" y1="540.191" x2="237.698" y2="540.191"/>
	
		<line fill="none" stroke="#030303" stroke-width="0.2126" stroke-linecap="round" stroke-linejoin="round" stroke-miterlimit="10" x1="273.553" y1="522.046" x2="236.834" y2="522.046"/>
	
		<line fill="none" stroke="#030303" stroke-width="0.085" stroke-linecap="round" stroke-linejoin="round" stroke-miterlimit="10" x1="272.583" y1="522.91" x2="237.698" y2="522.91"/>
	
		<line fill="none" stroke="#030303" stroke-width="0.2126" stroke-linecap="round" stroke-linejoin="round" stroke-miterlimit="10" x1="216.637" y1="319.547" x2="216.637" y2="382.836"/>
	
		<line fill="none" stroke="#030303" stroke-width="0.085" stroke-linecap="round" stroke-linejoin="round" stroke-miterlimit="10" x1="217.61" y1="320.411" x2="217.61" y2="381.863"/>
	
		<line fill="none" stroke="#030303" stroke-width="0.2126" stroke-linecap="round" stroke-linejoin="round" stroke-miterlimit="10" x1="235.864" y1="319.547" x2="235.864" y2="382.836"/>
	
		<line fill="none" stroke="#030303" stroke-width="0.085" stroke-linecap="round" stroke-linejoin="round" stroke-miterlimit="10" x1="234.891" y1="320.411" x2="234.891" y2="381.863"/>
	
		<line fill="none" stroke="#030303" stroke-width="0.2126" stroke-linecap="round" stroke-linejoin="round" stroke-miterlimit="10" x1="216.637" y1="451.955" x2="216.637" y2="388.559"/>
	
		<line fill="none" stroke="#030303" stroke-width="0.085" stroke-linecap="round" stroke-linejoin="round" stroke-miterlimit="10" x1="217.61" y1="450.982" x2="217.61" y2="389.531"/>
	
		<line fill="none" stroke="#030303" stroke-width="0.2126" stroke-linecap="round" stroke-linejoin="round" stroke-miterlimit="10" x1="235.864" y1="451.955" x2="235.864" y2="388.559"/>
	
		<line fill="none" stroke="#030303" stroke-width="0.085" stroke-linecap="round" stroke-linejoin="round" stroke-miterlimit="10" x1="234.891" y1="450.982" x2="234.891" y2="389.531"/>
	
		<line fill="none" stroke="#030303" stroke-width="0.2126" stroke-linecap="round" stroke-linejoin="round" stroke-miterlimit="10" x1="216.637" y1="521.074" x2="216.637" y2="457.679"/>
	
		<line fill="none" stroke="#030303" stroke-width="0.085" stroke-linecap="round" stroke-linejoin="round" stroke-miterlimit="10" x1="217.61" y1="520.103" x2="217.61" y2="458.652"/>
	
		<line fill="none" stroke="#030303" stroke-width="0.2126" stroke-linecap="round" stroke-linejoin="round" stroke-miterlimit="10" x1="235.864" y1="521.074" x2="235.864" y2="457.679"/>
	
		<line fill="none" stroke="#030303" stroke-width="0.085" stroke-linecap="round" stroke-linejoin="round" stroke-miterlimit="10" x1="234.891" y1="520.103" x2="234.891" y2="458.652"/>
	
		<line fill="none" stroke="#030303" stroke-width="0.2126" stroke-linecap="round" stroke-linejoin="round" stroke-miterlimit="10" x1="378.638" y1="319.547" x2="378.638" y2="382.836"/>
	
		<line fill="none" stroke="#030303" stroke-width="0.085" stroke-linecap="round" stroke-linejoin="round" stroke-miterlimit="10" x1="377.774" y1="320.411" x2="377.774" y2="381.863"/>
	
		<line fill="none" stroke="#030303" stroke-width="0.2126" stroke-linecap="round" stroke-linejoin="round" stroke-miterlimit="10" x1="359.524" y1="319.547" x2="359.524" y2="382.836"/>
	
		<line fill="none" stroke="#030303" stroke-width="0.085" stroke-linecap="round" stroke-linejoin="round" stroke-miterlimit="10" x1="360.495" y1="320.411" x2="360.495" y2="381.863"/>
	
		<line fill="none" stroke="#030303" stroke-width="0.2126" stroke-linecap="round" stroke-linejoin="round" stroke-miterlimit="10" x1="378.638" y1="521.074" x2="378.638" y2="457.679"/>
	
		<line fill="none" stroke="#030303" stroke-width="0.085" stroke-linecap="round" stroke-linejoin="round" stroke-miterlimit="10" x1="377.774" y1="520.103" x2="377.774" y2="458.652"/>
	
		<line fill="none" stroke="#030303" stroke-width="0.2126" stroke-linecap="round" stroke-linejoin="round" stroke-miterlimit="10" x1="359.524" y1="521.074" x2="359.524" y2="457.679"/>
	
		<line fill="none" stroke="#030303" stroke-width="0.085" stroke-linecap="round" stroke-linejoin="round" stroke-miterlimit="10" x1="360.495" y1="520.103" x2="360.495" y2="458.652"/>
	
		<line fill="none" stroke="#030303" stroke-width="0.2126" stroke-linecap="round" stroke-linejoin="round" stroke-miterlimit="10" x1="378.638" y1="451.955" x2="378.638" y2="388.559"/>
	
		<line fill="none" stroke="#030303" stroke-width="0.085" stroke-linecap="round" stroke-linejoin="round" stroke-miterlimit="10" x1="377.774" y1="450.982" x2="377.774" y2="389.531"/>
	
		<line fill="none" stroke="#030303" stroke-width="0.2126" stroke-linecap="round" stroke-linejoin="round" stroke-miterlimit="10" x1="359.524" y1="451.955" x2="359.524" y2="388.559"/>
	
		<line fill="none" stroke="#030303" stroke-width="0.085" stroke-linecap="round" stroke-linejoin="round" stroke-miterlimit="10" x1="360.495" y1="450.982" x2="360.495" y2="389.531"/>
	
		<line fill="none" stroke="#070707" stroke-width="0.2551" stroke-linecap="round" stroke-linejoin="round" stroke-miterlimit="10" x1="216.637" y1="456.707" x2="216.637" y2="452.927"/>
	
		<polyline fill="none" stroke="#030303" stroke-width="0.085" stroke-linecap="round" stroke-linejoin="round" stroke-miterlimit="10" points="
		231.327,453.574 217.286,453.574 217.286,456.058 231.327,456.058 231.327,453.574 	"/>
	
		<line fill="none" stroke="#070707" stroke-width="0.2551" stroke-linecap="round" stroke-linejoin="round" stroke-miterlimit="10" x1="216.637" y1="383.807" x2="216.637" y2="387.586"/>
	
		<polyline fill="none" stroke="#030303" stroke-width="0.085" stroke-linecap="round" stroke-linejoin="round" stroke-miterlimit="10" points="
		231.327,387.047 217.286,387.047 217.286,384.455 231.327,384.455 231.327,387.047 	"/>
	
		<line fill="none" stroke="#070707" stroke-width="0.2551" stroke-linecap="round" stroke-linejoin="round" stroke-miterlimit="10" x1="378.638" y1="456.707" x2="378.638" y2="452.927"/>
	
		<polyline fill="none" stroke="#030303" stroke-width="0.085" stroke-linecap="round" stroke-linejoin="round" stroke-miterlimit="10" points="
		364.06,453.574 378.099,453.574 378.099,456.058 364.06,456.058 364.06,453.574 	"/>
	
		<line fill="none" stroke="#070707" stroke-width="0.2551" stroke-linecap="round" stroke-linejoin="round" stroke-miterlimit="10" x1="378.638" y1="383.807" x2="378.638" y2="387.586"/>
	
		<polyline fill="none" stroke="#030303" stroke-width="0.085" stroke-linecap="round" stroke-linejoin="round" stroke-miterlimit="10" points="
		364.06,387.047 378.099,387.047 378.099,384.455 364.06,384.455 364.06,387.047 	"/>
	
		<polyline fill="none" stroke="#070707" stroke-width="0.2551" stroke-linecap="round" stroke-linejoin="round" stroke-miterlimit="10" points="
		317.079,525.828 317.079,541.164 320.858,541.164 	"/>
	
		<polyline fill="none" stroke="#030303" stroke-width="0.085" stroke-linecap="round" stroke-linejoin="round" stroke-miterlimit="10" points="
		275.174,540.515 277.659,540.515 277.659,526.474 275.174,526.474 275.174,540.515 	"/>
	
		<polyline fill="none" stroke="#030303" stroke-width="0.085" stroke-linecap="round" stroke-linejoin="round" stroke-miterlimit="10" points="
		320.21,540.515 317.728,540.515 317.728,526.474 320.21,526.474 320.21,540.515 	"/>
	
		<polyline fill="none" stroke="#070707" stroke-width="0.2551" stroke-linecap="round" stroke-linejoin="round" stroke-miterlimit="10" points="
		278.307,525.828 278.307,541.164 274.526,541.164 	"/>
	
		<polyline fill="none" stroke="#070707" stroke-width="0.2551" stroke-linecap="round" stroke-linejoin="round" stroke-miterlimit="10" points="
		310.708,542.351 317.079,542.351 317.079,539.867 310.708,539.867 310.708,542.351 	"/>
	
		<polyline fill="none" stroke="#070707" stroke-width="0.2551" stroke-linecap="round" stroke-linejoin="round" stroke-miterlimit="10" points="
		309.735,541.164 310.708,541.164 310.708,543.646 309.735,543.646 309.735,541.164 	"/>
	
		<polyline fill="none" stroke="#070707" stroke-width="0.2551" stroke-linecap="round" stroke-linejoin="round" stroke-miterlimit="10" points="
		284.68,542.351 278.307,542.351 278.307,539.867 284.68,539.867 284.68,542.351 	"/>
	
		<polyline fill="none" stroke="#070707" stroke-width="0.2551" stroke-linecap="round" stroke-linejoin="round" stroke-miterlimit="10" points="
		285.651,541.164 284.68,541.164 284.68,543.646 285.651,543.646 285.651,541.164 	"/>
	
		<polyline fill="none" stroke="#070707" stroke-width="0.1984" stroke-linecap="round" stroke-linejoin="round" stroke-miterlimit="10" points="
		315.136,518.158 315.136,537.921 309.735,537.921 309.735,541.164 	"/>
	
		<polyline fill="none" stroke="#070707" stroke-width="0.1984" stroke-linecap="round" stroke-linejoin="round" stroke-miterlimit="10" points="
		280.25,518.158 280.25,537.921 285.651,537.921 285.651,541.164 	"/>
	
		<line fill="none" stroke="#030303" stroke-width="0.085" stroke-linecap="round" stroke-linejoin="round" stroke-miterlimit="10" x1="309.735" y1="537.921" x2="285.651" y2="537.921"/>
	
		<line fill="none" stroke="#070707" stroke-width="0.1984" stroke-linecap="round" stroke-linejoin="round" stroke-miterlimit="10" x1="317.079" y1="381.863" x2="278.307" y2="381.863"/>
	
		<line fill="none" stroke="#030303" stroke-width="0.0283" stroke-linecap="round" stroke-linejoin="round" stroke-miterlimit="10" x1="320.858" y1="381.863" x2="320.858" y2="318.575"/>
	
		<line fill="none" stroke="#030303" stroke-width="0.0283" stroke-linecap="round" stroke-linejoin="round" stroke-miterlimit="10" x1="317.079" y1="381.863" x2="317.079" y2="318.575"/>
	<polyline fill="#030303" stroke="#030303" stroke-width="0.2551" stroke-linecap="square" stroke-miterlimit="10" points="
		274.526,383.807 274.526,381.863 278.307,381.863 278.307,383.807 317.079,383.807 317.079,381.863 320.858,381.863 
		320.858,383.807 332.847,383.807 332.847,387.586 320.858,387.586 320.858,391.475 317.079,391.475 317.079,387.586 
		278.307,387.586 278.307,391.475 274.526,391.475 274.526,387.586 262.538,387.586 262.538,383.807 274.526,383.807 	"/>
	
		<line fill="none" stroke="#070707" stroke-width="0.1984" stroke-linecap="round" stroke-linejoin="round" stroke-miterlimit="10" x1="274.526" y1="381.863" x2="262.538" y2="381.863"/>
	
		<line fill="none" stroke="#070707" stroke-width="0.1984" stroke-linecap="round" stroke-linejoin="round" stroke-miterlimit="10" x1="320.858" y1="381.863" x2="332.847" y2="381.863"/>
	
		<polyline fill="none" stroke="#030303" stroke-width="0.085" stroke-linecap="round" stroke-linejoin="round" stroke-miterlimit="10" points="
		309.087,543.646 309.735,543.646 309.735,567.73 285.651,567.73 285.651,543.646 286.298,543.646 	"/>
	
		<line fill="none" stroke="#070707" stroke-width="0.1984" stroke-linecap="round" stroke-linejoin="round" stroke-miterlimit="10" x1="310.169" y1="544.294" x2="285.22" y2="544.294"/>
	
		<line fill="none" stroke="#070707" stroke-width="0.1984" stroke-linecap="round" stroke-linejoin="round" stroke-miterlimit="10" x1="297.638" y1="544.294" x2="297.638" y2="543"/>
	
		<polyline fill="none" stroke="#070707" stroke-width="0.1984" stroke-linecap="round" stroke-linejoin="round" stroke-miterlimit="10" points="
		309.087,544.294 309.087,543 286.298,543 286.298,544.294 309.087,544.294 	"/>
	
		<line fill="none" stroke="#030303" stroke-width="0.3402" stroke-linecap="round" stroke-linejoin="round" stroke-miterlimit="10" x1="216.637" y1="235.321" x2="378.638" y2="235.321"/>
	
		<line fill="none" stroke="#030303" stroke-width="0.1701" stroke-linecap="round" stroke-linejoin="round" stroke-miterlimit="10" x1="378.638" y1="235.321" x2="378.638" y2="151.08"/>
	
		<line fill="none" stroke="#030303" stroke-width="0.1701" stroke-linecap="round" stroke-linejoin="round" stroke-miterlimit="10" x1="216.637" y1="235.321" x2="216.637" y2="151.08"/>
	
		<polyline fill="none" stroke="#030303" stroke-width="0.1701" stroke-linecap="round" stroke-linejoin="round" stroke-miterlimit="10" points="
		311.571,235.321 311.571,206.376 283.815,206.376 283.815,235.321 	"/>
	
		<polyline fill="none" stroke="#030303" stroke-width="0.1701" stroke-linecap="round" stroke-linejoin="round" stroke-miterlimit="10" points="
		284.786,235.321 284.786,207.349 310.599,207.349 310.599,235.321 	"/>
	
		<line fill="none" stroke="#070707" stroke-width="0.0283" stroke-linecap="round" stroke-linejoin="round" stroke-miterlimit="10" x1="320.858" y1="185.532" x2="359.524" y2="185.532"/>
	
		<line fill="none" stroke="#070707" stroke-width="0.0283" stroke-linecap="round" stroke-linejoin="round" stroke-miterlimit="10" x1="278.307" y1="185.532" x2="317.079" y2="185.532"/>
	
		<line fill="none" stroke="#070707" stroke-width="0.0283" stroke-linecap="round" stroke-linejoin="round" stroke-miterlimit="10" x1="235.864" y1="185.532" x2="274.526" y2="185.532"/>
	
		<line fill="none" stroke="#030303" stroke-width="0.1701" stroke-linecap="round" stroke-linejoin="round" stroke-miterlimit="10" x1="359.524" y1="162.636" x2="320.858" y2="162.636"/>
	
		<line fill="none" stroke="#030303" stroke-width="0.1701" stroke-linecap="round" stroke-linejoin="round" stroke-miterlimit="10" x1="317.079" y1="162.636" x2="278.307" y2="162.636"/>
	
		<line fill="none" stroke="#030303" stroke-width="0.1701" stroke-linecap="round" stroke-linejoin="round" stroke-miterlimit="10" x1="274.526" y1="162.636" x2="235.864" y2="162.636"/>
	
		<line fill="none" stroke="#030303" stroke-width="0.1701" stroke-linecap="round" stroke-linejoin="round" stroke-miterlimit="10" x1="317.079" y1="235.321" x2="317.079" y2="162.636"/>
	
		<line fill="none" stroke="#070707" stroke-width="0.0283" stroke-linecap="round" stroke-linejoin="round" stroke-miterlimit="10" x1="359.524" y1="197.088" x2="320.858" y2="197.088"/>
	
		<line fill="none" stroke="#070707" stroke-width="0.0283" stroke-linecap="round" stroke-linejoin="round" stroke-miterlimit="10" x1="359.524" y1="200.868" x2="320.858" y2="200.868"/>
	
		<line fill="none" stroke="#030303" stroke-width="0.1701" stroke-linecap="round" stroke-linejoin="round" stroke-miterlimit="10" x1="320.858" y1="235.321" x2="320.858" y2="162.636"/>
	
		<line fill="none" stroke="#030303" stroke-width="0.1701" stroke-linecap="round" stroke-linejoin="round" stroke-miterlimit="10" x1="278.307" y1="235.321" x2="278.307" y2="162.636"/>
	
		<line fill="none" stroke="#030303" stroke-width="0.1701" stroke-linecap="round" stroke-linejoin="round" stroke-miterlimit="10" x1="274.526" y1="235.321" x2="274.526" y2="162.636"/>
	
		<line fill="none" stroke="#030303" stroke-width="0.1701" stroke-linecap="round" stroke-linejoin="round" stroke-miterlimit="10" x1="235.864" y1="235.321" x2="235.864" y2="162.636"/>
	
		<line fill="none" stroke="#030303" stroke-width="0.1701" stroke-linecap="round" stroke-linejoin="round" stroke-miterlimit="10" x1="359.524" y1="235.321" x2="359.524" y2="162.636"/>
	
		<line fill="none" stroke="#070707" stroke-width="0.0283" stroke-linecap="round" stroke-linejoin="round" stroke-miterlimit="10" x1="317.079" y1="197.088" x2="278.307" y2="197.088"/>
	
		<line fill="none" stroke="#070707" stroke-width="0.0283" stroke-linecap="round" stroke-linejoin="round" stroke-miterlimit="10" x1="317.079" y1="200.868" x2="278.307" y2="200.868"/>
	
		<line fill="none" stroke="#070707" stroke-width="0.0283" stroke-linecap="round" stroke-linejoin="round" stroke-miterlimit="10" x1="274.526" y1="197.088" x2="235.864" y2="197.088"/>
	
		<line fill="none" stroke="#070707" stroke-width="0.0283" stroke-linecap="round" stroke-linejoin="round" stroke-miterlimit="10" x1="274.526" y1="200.868" x2="235.864" y2="200.868"/>
	
		<polyline fill="none" stroke="#030303" stroke-width="0.1701" stroke-linecap="round" stroke-linejoin="round" stroke-miterlimit="10" points="
		216.637,151.08 297.638,100.104 378.638,151.08 	"/>
	
		<polyline fill="none" stroke="#070707" stroke-width="0.085" stroke-linecap="round" stroke-linejoin="round" stroke-miterlimit="10" points="
		317.942,112.849 359.091,112.849 359.091,138.769 	"/>
	
		<line fill="none" stroke="#070707" stroke-width="0.0283" stroke-linecap="round" stroke-linejoin="round" stroke-miterlimit="10" x1="256.708" y1="124.621" x2="257.247" y2="125.593"/>
	
		<line fill="none" stroke="#070707" stroke-width="0.0283" stroke-linecap="round" stroke-linejoin="round" stroke-miterlimit="10" x1="235.108" y1="138.229" x2="235.754" y2="139.093"/>
	
		<line fill="none" stroke="#070707" stroke-width="0.0283" stroke-linecap="round" stroke-linejoin="round" stroke-miterlimit="10" x1="245.907" y1="131.424" x2="246.448" y2="132.288"/>
	
		<line fill="none" stroke="#070707" stroke-width="0.0283" stroke-linecap="round" stroke-linejoin="round" stroke-miterlimit="10" x1="267.506" y1="117.816" x2="268.047" y2="118.788"/>
	
		<line fill="none" stroke="#070707" stroke-width="0.0283" stroke-linecap="round" stroke-linejoin="round" stroke-miterlimit="10" x1="224.307" y1="145.032" x2="224.954" y2="145.896"/>
	
		<line fill="none" stroke="#070707" stroke-width="0.0283" stroke-linecap="round" stroke-linejoin="round" stroke-miterlimit="10" x1="278.307" y1="111.013" x2="278.846" y2="111.984"/>
	
		<line fill="none" stroke="#070707" stroke-width="0.0283" stroke-linecap="round" stroke-linejoin="round" stroke-miterlimit="10" x1="289.108" y1="104.208" x2="289.647" y2="105.18"/>
	
		<polyline fill="none" stroke="#070707" stroke-width="0.085" stroke-linecap="round" stroke-linejoin="round" stroke-miterlimit="10" points="
		297.208,208.212 285.651,208.212 285.651,234.456 297.208,234.456 297.208,208.212 	"/>
	
		<polyline fill="none" stroke="#070707" stroke-width="0.085" stroke-linecap="round" stroke-linejoin="round" stroke-miterlimit="10" points="
		309.735,208.212 298.181,208.212 298.181,234.456 309.735,234.456 309.735,208.212 	"/>
	
		<polyline fill="none" stroke="#070707" stroke-width="0.085" stroke-linecap="round" stroke-linejoin="round" stroke-miterlimit="10" points="
		358.659,201.732 346.995,201.732 346.995,234.456 358.659,234.456 358.659,201.732 	"/>
	
		<polyline fill="none" stroke="#070707" stroke-width="0.085" stroke-linecap="round" stroke-linejoin="round" stroke-miterlimit="10" points="
		346.024,201.732 334.358,201.732 334.358,234.456 346.024,234.456 346.024,201.732 	"/>
	
		<polyline fill="none" stroke="#070707" stroke-width="0.085" stroke-linecap="round" stroke-linejoin="round" stroke-miterlimit="10" points="
		333.495,201.732 321.724,201.732 321.724,234.456 333.495,234.456 333.495,201.732 	"/>
	
		<polyline fill="none" stroke="#070707" stroke-width="0.085" stroke-linecap="round" stroke-linejoin="round" stroke-miterlimit="10" points="
		273.663,201.732 261.891,201.732 261.891,234.456 273.663,234.456 273.663,201.732 	"/>
	
		<polyline fill="none" stroke="#070707" stroke-width="0.085" stroke-linecap="round" stroke-linejoin="round" stroke-miterlimit="10" points="
		261.026,201.732 249.364,201.732 249.364,234.456 261.026,234.456 261.026,201.732 	"/>
	
		<polyline fill="none" stroke="#070707" stroke-width="0.085" stroke-linecap="round" stroke-linejoin="round" stroke-miterlimit="10" points="
		248.391,201.732 236.727,201.732 236.727,234.456 248.391,234.456 248.391,201.732 	"/>
	
		<polyline fill="none" stroke="#070707" stroke-width="0.085" stroke-linecap="round" stroke-linejoin="round" stroke-miterlimit="10" points="
		358.659,163.5 346.995,163.5 346.995,196.116 358.659,196.116 358.659,163.5 	"/>
	
		<polyline fill="none" stroke="#070707" stroke-width="0.085" stroke-linecap="round" stroke-linejoin="round" stroke-miterlimit="10" points="
		346.024,163.5 334.358,163.5 334.358,196.116 346.024,196.116 346.024,163.5 	"/>
	
		<polyline fill="none" stroke="#070707" stroke-width="0.085" stroke-linecap="round" stroke-linejoin="round" stroke-miterlimit="10" points="
		333.495,163.5 321.724,163.5 321.724,196.116 333.495,196.116 333.495,163.5 	"/>
	
		<polyline fill="none" stroke="#070707" stroke-width="0.085" stroke-linecap="round" stroke-linejoin="round" stroke-miterlimit="10" points="
		316.108,163.5 304.442,163.5 304.442,196.116 316.108,196.116 316.108,163.5 	"/>
	
		<polyline fill="none" stroke="#070707" stroke-width="0.085" stroke-linecap="round" stroke-linejoin="round" stroke-miterlimit="10" points="
		303.579,163.5 291.808,163.5 291.808,196.116 303.579,196.116 303.579,163.5 	"/>
	
		<polyline fill="none" stroke="#070707" stroke-width="0.085" stroke-linecap="round" stroke-linejoin="round" stroke-miterlimit="10" points="
		290.942,163.5 279.28,163.5 279.28,196.116 290.942,196.116 290.942,163.5 	"/>
	
		<polyline fill="none" stroke="#070707" stroke-width="0.085" stroke-linecap="round" stroke-linejoin="round" stroke-miterlimit="10" points="
		273.663,163.5 261.891,163.5 261.891,196.116 273.663,196.116 273.663,163.5 	"/>
	
		<polyline fill="none" stroke="#070707" stroke-width="0.085" stroke-linecap="round" stroke-linejoin="round" stroke-miterlimit="10" points="
		261.026,163.5 249.364,163.5 249.364,196.116 261.026,196.116 261.026,163.5 	"/>
	
		<polyline fill="none" stroke="#070707" stroke-width="0.085" stroke-linecap="round" stroke-linejoin="round" stroke-miterlimit="10" points="
		248.391,163.5 236.727,163.5 236.727,196.116 248.391,196.116 248.391,163.5 	"/>
	
		<polyline fill="none" stroke="#070707" stroke-width="0.0283" stroke-linecap="round" stroke-linejoin="round" stroke-miterlimit="10" points="
		259.624,120.84 260.053,121.272 253.358,127.968 252.926,127.537 259.624,120.84 	"/>
	
		<polyline fill="none" stroke="#070707" stroke-width="0.0283" stroke-linecap="round" stroke-linejoin="round" stroke-miterlimit="10" points="
		238.024,134.449 238.454,134.88 231.758,141.577 231.327,141.144 238.024,134.449 	"/>
	
		<polyline fill="none" stroke="#070707" stroke-width="0.0283" stroke-linecap="round" stroke-linejoin="round" stroke-miterlimit="10" points="
		248.823,127.644 249.254,128.077 242.559,134.772 242.125,134.34 248.823,127.644 	"/>
	
		<polyline fill="none" stroke="#070707" stroke-width="0.0283" stroke-linecap="round" stroke-linejoin="round" stroke-miterlimit="10" points="
		270.424,114.037 270.854,114.468 264.159,121.165 263.727,120.732 270.424,114.037 	"/>
	
		<polyline fill="none" stroke="#070707" stroke-width="0.0283" stroke-linecap="round" stroke-linejoin="round" stroke-miterlimit="10" points="
		227.223,141.252 227.655,141.685 221.067,148.38 220.526,147.949 227.223,141.252 	"/>
	
		<polyline fill="none" stroke="#070707" stroke-width="0.0283" stroke-linecap="round" stroke-linejoin="round" stroke-miterlimit="10" points="
		281.223,107.232 281.655,107.772 274.959,114.36 274.526,113.928 281.223,107.232 	"/>
	
		<polyline fill="none" stroke="#070707" stroke-width="0.0283" stroke-linecap="round" stroke-linejoin="round" stroke-miterlimit="10" points="
		292.024,100.428 292.454,100.968 285.759,107.557 285.327,107.124 292.024,100.428 	"/>
	
		<circle fill="none" stroke="#070707" stroke-width="0.085" stroke-linecap="round" stroke-linejoin="round" stroke-miterlimit="10" cx="297.64" cy="135.205" r="6.372"/>
	
		<circle fill="none" stroke="#030303" stroke-width="0.1701" stroke-linecap="round" stroke-linejoin="round" stroke-miterlimit="10" cx="297.64" cy="135.204" r="7.236"/>
	
		<polyline fill="none" stroke="#070707" stroke-width="0.085" stroke-linecap="round" stroke-linejoin="round" stroke-miterlimit="10" points="
		273.231,163.824 262.323,163.824 262.323,195.792 273.231,195.792 273.231,163.824 	"/>
	
		<polyline fill="none" stroke="#070707" stroke-width="0.085" stroke-linecap="round" stroke-linejoin="round" stroke-miterlimit="10" points="
		260.596,163.824 249.686,163.824 249.686,195.792 260.596,195.792 260.596,163.824 	"/>
	
		<polyline fill="none" stroke="#070707" stroke-width="0.085" stroke-linecap="round" stroke-linejoin="round" stroke-miterlimit="10" points="
		248.067,163.824 237.051,163.824 237.051,195.792 248.067,195.792 248.067,163.824 	"/>
	
		<line fill="none" stroke="#070707" stroke-width="0.085" stroke-linecap="round" stroke-linejoin="round" stroke-miterlimit="10" x1="242.559" y1="163.824" x2="242.559" y2="195.792"/>
	
		<line fill="none" stroke="#070707" stroke-width="0.085" stroke-linecap="round" stroke-linejoin="round" stroke-miterlimit="10" x1="255.196" y1="163.824" x2="255.196" y2="195.792"/>
	
		<line fill="none" stroke="#070707" stroke-width="0.085" stroke-linecap="round" stroke-linejoin="round" stroke-miterlimit="10" x1="267.723" y1="163.824" x2="267.723" y2="195.792"/>
	
		<polyline fill="none" stroke="#070707" stroke-width="0.085" stroke-linecap="round" stroke-linejoin="round" stroke-miterlimit="10" points="
		315.782,163.824 304.876,163.824 304.876,195.792 315.782,195.792 315.782,163.824 	"/>
	
		<polyline fill="none" stroke="#070707" stroke-width="0.085" stroke-linecap="round" stroke-linejoin="round" stroke-miterlimit="10" points="
		303.147,163.824 292.239,163.824 292.239,195.792 303.147,195.792 303.147,163.824 	"/>
	
		<polyline fill="none" stroke="#070707" stroke-width="0.085" stroke-linecap="round" stroke-linejoin="round" stroke-miterlimit="10" points="
		290.511,163.824 279.602,163.824 279.602,195.792 290.511,195.792 290.511,163.824 	"/>
	
		<line fill="none" stroke="#070707" stroke-width="0.085" stroke-linecap="round" stroke-linejoin="round" stroke-miterlimit="10" x1="285.11" y1="163.824" x2="285.11" y2="195.792"/>
	
		<line fill="none" stroke="#070707" stroke-width="0.085" stroke-linecap="round" stroke-linejoin="round" stroke-miterlimit="10" x1="297.638" y1="163.824" x2="297.638" y2="195.792"/>
	
		<line fill="none" stroke="#070707" stroke-width="0.085" stroke-linecap="round" stroke-linejoin="round" stroke-miterlimit="10" x1="310.274" y1="163.824" x2="310.274" y2="195.792"/>
	
		<polyline fill="none" stroke="#070707" stroke-width="0.085" stroke-linecap="round" stroke-linejoin="round" stroke-miterlimit="10" points="
		358.335,163.824 347.319,163.824 347.319,195.792 358.335,195.792 358.335,163.824 	"/>
	
		<polyline fill="none" stroke="#070707" stroke-width="0.085" stroke-linecap="round" stroke-linejoin="round" stroke-miterlimit="10" points="
		345.698,163.824 334.792,163.824 334.792,195.792 345.698,195.792 345.698,163.824 	"/>
	
		<polyline fill="none" stroke="#070707" stroke-width="0.085" stroke-linecap="round" stroke-linejoin="round" stroke-miterlimit="10" points="
		333.063,163.824 322.155,163.824 322.155,195.792 333.063,195.792 333.063,163.824 	"/>
	
		<line fill="none" stroke="#070707" stroke-width="0.085" stroke-linecap="round" stroke-linejoin="round" stroke-miterlimit="10" x1="327.663" y1="163.824" x2="327.663" y2="195.792"/>
	
		<line fill="none" stroke="#070707" stroke-width="0.085" stroke-linecap="round" stroke-linejoin="round" stroke-miterlimit="10" x1="340.192" y1="163.824" x2="340.192" y2="195.792"/>
	
		<line fill="none" stroke="#070707" stroke-width="0.085" stroke-linecap="round" stroke-linejoin="round" stroke-miterlimit="10" x1="352.827" y1="163.824" x2="352.827" y2="195.792"/>
	
		<polyline fill="none" stroke="#070707" stroke-width="0.085" stroke-linecap="round" stroke-linejoin="round" stroke-miterlimit="10" points="
		358.335,202.165 347.319,202.165 347.319,234.024 358.335,234.024 358.335,202.165 	"/>
	
		<polyline fill="none" stroke="#070707" stroke-width="0.085" stroke-linecap="round" stroke-linejoin="round" stroke-miterlimit="10" points="
		345.698,202.165 334.792,202.165 334.792,234.024 345.698,234.024 345.698,202.165 	"/>
	
		<polyline fill="none" stroke="#070707" stroke-width="0.085" stroke-linecap="round" stroke-linejoin="round" stroke-miterlimit="10" points="
		333.063,202.165 322.155,202.165 322.155,234.024 333.063,234.024 333.063,202.165 	"/>
	
		<line fill="none" stroke="#070707" stroke-width="0.085" stroke-linecap="round" stroke-linejoin="round" stroke-miterlimit="10" x1="327.663" y1="202.165" x2="327.663" y2="234.024"/>
	
		<line fill="none" stroke="#070707" stroke-width="0.085" stroke-linecap="round" stroke-linejoin="round" stroke-miterlimit="10" x1="340.192" y1="202.165" x2="340.192" y2="234.024"/>
	
		<line fill="none" stroke="#070707" stroke-width="0.085" stroke-linecap="round" stroke-linejoin="round" stroke-miterlimit="10" x1="352.827" y1="202.165" x2="352.827" y2="234.024"/>
	
		<polyline fill="none" stroke="#070707" stroke-width="0.085" stroke-linecap="round" stroke-linejoin="round" stroke-miterlimit="10" points="
		273.231,202.165 262.323,202.165 262.323,234.024 273.231,234.024 273.231,202.165 	"/>
	
		<polyline fill="none" stroke="#070707" stroke-width="0.085" stroke-linecap="round" stroke-linejoin="round" stroke-miterlimit="10" points="
		260.596,202.165 249.686,202.165 249.686,234.024 260.596,234.024 260.596,202.165 	"/>
	
		<polyline fill="none" stroke="#070707" stroke-width="0.085" stroke-linecap="round" stroke-linejoin="round" stroke-miterlimit="10" points="
		248.067,202.165 237.051,202.165 237.051,234.024 248.067,234.024 248.067,202.165 	"/>
	
		<line fill="none" stroke="#070707" stroke-width="0.085" stroke-linecap="round" stroke-linejoin="round" stroke-miterlimit="10" x1="242.559" y1="202.165" x2="242.559" y2="234.024"/>
	
		<line fill="none" stroke="#070707" stroke-width="0.085" stroke-linecap="round" stroke-linejoin="round" stroke-miterlimit="10" x1="255.196" y1="202.165" x2="255.196" y2="234.024"/>
	
		<line fill="none" stroke="#070707" stroke-width="0.085" stroke-linecap="round" stroke-linejoin="round" stroke-miterlimit="10" x1="267.723" y1="202.165" x2="267.723" y2="234.024"/>
</g>
</svg>
