<?xml version="1.0" encoding="utf-8"?>
<!-- Generator: Adobe Illustrator 15.0.2, SVG Export Plug-In . SVG Version: 6.00 Build 0)  -->
<!DOCTYPE svg PUBLIC "-//W3C//DTD SVG 1.1//EN" "http://www.w3.org/Graphics/SVG/1.1/DTD/svg11.dtd">
<svg version="1.1" xmlns="http://www.w3.org/2000/svg" xmlns:xlink="http://www.w3.org/1999/xlink" x="0px" y="0px"
	 width="595.28px" height="841.89px" viewBox="0 0 595.28 841.89" enable-background="new 0 0 595.28 841.89" xml:space="preserve">
<g id="MST">
	<g>
		<path d="M84.846,514.204c0-0.104,0.008-0.479,0-1.111c-0.008-0.271-0.04-0.447-0.192-0.447c-0.072,0-0.192,0.023-0.32,0.063
			l-0.56,0.185c-0.032,0.008-0.063,0.008-0.08-0.024l-0.064-0.144c-0.016-0.032-0.008-0.064,0.048-0.097l1.655-0.951
			c0.04-0.024,0.072-0.048,0.112-0.048c0.048,0,0.056,0.048,0.056,0.112c0,0.071-0.024,1.327-0.024,2.358v0.336
			c0,0.096,0.008,1.791,0.008,1.895c0.008,0.416,0.04,0.472,0.56,0.472h0.288c0.056,0,0.08,0.024,0.08,0.064v0.184
			c0,0.048-0.016,0.064-0.072,0.064c-0.072,0-1.16-0.024-1.231-0.024s-1.199,0.024-1.239,0.024s-0.064-0.017-0.064-0.064v-0.2
			c0-0.04,0.048-0.048,0.112-0.048h0.368c0.52,0,0.536-0.023,0.552-0.447c0.008-0.104,0.008-1.72,0.008-1.863V514.204z"/>
	</g>
	<g>
		<path d="M96.567,517.09c-0.136,0-0.28,0.008-0.4,0.016c-0.12,0.009-0.216,0.017-0.248,0.017c-0.04,0-0.064,0-0.088-0.048
			c-0.024-0.057-0.016-0.08,0.024-0.12c0.376-0.352,1.08-0.968,1.719-1.655s1.007-1.304,0.983-1.999
			c-0.024-0.712-0.456-1.136-1.031-1.127c-0.68,0.008-0.936,0.535-1.071,0.775c-0.032,0.056-0.056,0.063-0.096,0.04l-0.112-0.048
			c-0.024-0.017-0.032-0.04,0-0.112c0.128-0.312,0.52-1.199,1.599-1.199c0.671,0,1.399,0.552,1.399,1.455
			c0,0.68-0.271,1.256-0.991,2.062c-0.544,0.624-1.175,1.088-1.527,1.399h1.623c0.544,0,0.752-0.376,0.928-0.671
			c0.04-0.072,0.064-0.08,0.144-0.04c0.064,0.031,0.096,0.063,0.064,0.111l-0.52,1.247c-0.04,0.088,0.024,0.088-0.12,0.088
			c-0.072,0-0.072-0.008-0.104-0.079c-0.048-0.104-0.2-0.112-0.44-0.112H96.567z"/>
	</g>
	<g>
		<path d="M147.999,513.652c0.2-0.016,0.735,0.04,0.912,0.088c0.783,0.208,1.231,0.768,1.231,1.487
			c0.008,1.144-0.927,1.983-2.015,1.983c-0.592,0-1.04-0.216-1.04-0.448c0-0.111,0.072-0.208,0.176-0.208
			c0.144,0,0.28,0.089,0.4,0.16c0.12,0.072,0.392,0.152,0.632,0.152c0.624,0,1.247-0.528,1.247-1.231c0-0.56-0.184-1-0.704-1.224
			c-0.432-0.191-0.832-0.191-1.039-0.176c-0.048,0.008-0.088,0.016-0.144-0.016c-0.04-0.017-0.048-0.04-0.04-0.088l0.288-2.255
			c0.008-0.096,0.024-0.128,0.128-0.128h1.711c0.28,0,0.352-0.136,0.488-0.4c0.024-0.048,0.048-0.056,0.096-0.04
			c0.088,0.04,0.128,0.049,0.112,0.097l-0.288,0.799c-0.056,0.128-0.096,0.16-0.344,0.16h-1.663L147.999,513.652z"/>
	</g>
	<polyline fill="none" stroke="#010101" stroke-width="0.1" stroke-linecap="square" stroke-miterlimit="10" points="
		85.039,526.462 85.039,520.09 97.783,520.09 97.783,526.462 148.867,526.462 148.867,520.09 	"/>
</g>
<g id="HAUS_OHNE_EIGENSCHAFTEN">
	<g>
		<path d="M29.536,31.537c0-0.62-0.02-1.969-0.02-2.109c0-0.509-0.07-0.649-0.34-0.649h-0.41c-0.11,0-0.12-0.04-0.12-0.1v-0.19
			c0-0.06,0.01-0.12,0.11-0.12c0.17,0,0.49,0.03,1.489,0.03c0.979,0,1.339-0.03,1.509-0.03c0.11,0,0.12,0.03,0.12,0.11v0.21
			c0,0.06-0.01,0.09-0.12,0.09h-0.24c-0.36,0-0.41,0.17-0.44,0.55c-0.01,0.14-0.06,1.459-0.06,2.019v0.15
			c0,0.05,0.03,0.08,0.16,0.08h2.988c0.15,0,0.2-0.02,0.2-0.13v-0.1c0-0.569-0.07-1.958-0.07-2.059c-0.01-0.32-0.05-0.51-0.23-0.51
			h-0.41c-0.09,0-0.1-0.03-0.1-0.1v-0.22c0-0.06,0.01-0.09,0.09-0.09c0.18,0,0.61,0.03,1.459,0.03c0.83,0,1.249-0.03,1.379-0.03
			c0.12,0,0.13,0.03,0.13,0.11v0.19c0,0.07-0.01,0.11-0.13,0.11h-0.3c-0.29,0-0.32,0.17-0.32,0.51c0,0.14-0.02,1.829-0.02,2.199
			v0.34c0,0.32,0.02,2.219,0.03,2.769c0,0.36,0.1,0.5,0.4,0.5h0.34c0.08,0,0.09,0.03,0.09,0.09v0.22c0,0.05-0.01,0.1-0.11,0.1
			c-0.16,0-0.5-0.03-1.399-0.03c-1.02,0-1.339,0.03-1.569,0.03c-0.11,0-0.13-0.05-0.13-0.1v-0.22c0-0.06,0.01-0.09,0.11-0.09h0.439
			c0.24,0,0.27-0.19,0.28-0.439c0.02-0.47,0.04-2.079,0.04-2.399v-0.12c0-0.11-0.1-0.12-0.22-0.12h-2.988
			c-0.11,0-0.14,0.03-0.14,0.12v0.15c0,0.25,0.04,1.789,0.07,2.469c0.01,0.24,0.11,0.34,0.33,0.34h0.28c0.08,0,0.09,0.02,0.09,0.08
			v0.24c0,0.06-0.01,0.09-0.09,0.09c-0.18,0-0.53-0.03-1.369-0.03c-1.06,0-1.359,0.03-1.559,0.03c-0.09,0-0.1-0.03-0.1-0.11v-0.21
			c0-0.07,0.01-0.09,0.1-0.09h0.459c0.25,0,0.28-0.24,0.28-0.459c0.01-0.47,0.03-2.409,0.03-2.669V31.537z"/>
		<path d="M39.575,32.286c0-0.2-0.02-0.43-0.15-0.549c-0.1-0.09-0.26-0.12-0.42-0.12c-0.18,0-0.35,0.04-0.53,0.16
			c-0.15,0.1-0.03,0.27-0.03,0.589c0,0.34-0.25,0.57-0.649,0.57c-0.23,0-0.43-0.14-0.43-0.36s0.07-0.52,0.28-0.7
			c0.419-0.38,1.109-0.739,1.919-0.739c0.64,0,0.81,0.1,1.019,0.29c0.22,0.2,0.28,0.49,0.28,0.85l0.02,1.989
			c0.01,0.52,0.04,0.68,0.23,0.68c0.14,0,0.25-0.11,0.29-0.18c0.04-0.06,0.07-0.07,0.1-0.05l0.14,0.08
			c0.04,0.02,0.07,0.05,0.03,0.14c-0.09,0.21-0.39,0.68-1.009,0.68c-0.39,0-0.759-0.14-0.949-0.61h-0.05
			c-0.25,0.23-0.459,0.37-0.859,0.52c-0.2,0.07-0.43,0.09-0.72,0.09c-0.35,0-0.66-0.38-0.66-0.92c0-0.439,0.21-0.899,0.86-1.219
			c0.779-0.37,1.029-0.479,1.289-0.66V32.286z M39.585,33.216c-0.49,0.28-0.9,0.43-0.9,1.12c0,0.459,0.21,0.649,0.43,0.659
			c0.27-0.02,0.47-0.27,0.47-0.359V33.216z"/>
		<path d="M45.524,35.575c-0.06,0.02-0.13,0.04-0.22,0.04c-0.1,0-0.16-0.05-0.17-0.12l-0.06-0.54h-0.06
			c-0.2,0.35-0.779,0.66-1.319,0.66c-0.399,0-0.699,0-1.049-0.46c-0.419-0.56-0.38-0.879-0.38-1.739l0.01-0.439
			c0-0.38,0-0.78-0.01-1c-0.01-0.24-0.22-0.33-0.34-0.35c-0.169-0.03-0.22-0.02-0.22-0.07v-0.2c0-0.06,0.02-0.08,0.11-0.08h1.459
			c0.06,0,0.1-0.01,0.14-0.02c0.04,0,0.08-0.01,0.11-0.01c0.07,0,0.12,0.05,0.11,0.12c-0.01,0.09-0.04,0.56-0.04,1.35v0.54
			c0,0.4-0.06,1.149,0.19,1.539c0.15,0.23,0.31,0.21,0.49,0.21c0.17,0,0.39-0.13,0.54-0.32c0.09-0.1,0.16-0.26,0.16-0.36
			l-0.01-2.349c0-0.25-0.18-0.33-0.43-0.35c-0.12-0.01-0.17-0.02-0.17-0.07v-0.19c0-0.08,0.02-0.09,0.12-0.09h1.489
			c0.07,0,0.12-0.01,0.17-0.02c0.05,0,0.09-0.01,0.12-0.01c0.06,0,0.1,0.05,0.09,0.1c-0.01,0.09-0.06,0.35-0.06,1.359v0.74
			c0,0.479,0,0.969,0.02,1.149c0.03,0.31,0.14,0.35,0.18,0.35c0.06,0,0.21,0,0.33-0.03c0.08-0.02,0.11,0,0.12,0.04l0.03,0.19
			c0.01,0.05-0.01,0.07-0.05,0.08L45.524,35.575z"/>
		<path d="M50.484,32.276c0.01,0.05,0,0.07-0.04,0.09l-0.18,0.08c-0.03,0.02-0.06,0.01-0.1-0.03l-0.56-0.6
			c-0.13-0.13-0.32-0.29-0.62-0.29s-0.59,0.2-0.59,0.54c0.02,0.35,0.14,0.45,0.88,0.65c0.49,0.13,0.729,0.2,1.029,0.52
			c0.26,0.26,0.32,0.5,0.32,0.85c0,0.89-0.7,1.529-1.789,1.529c-0.56,0-1.049-0.2-1.169-0.29c-0.04-0.03-0.05-0.07-0.06-0.13
			l-0.13-0.959c0-0.05,0.03-0.07,0.07-0.08l0.18-0.05c0.03-0.01,0.05,0,0.07,0.04l0.4,0.589c0.18,0.26,0.41,0.51,0.87,0.51
			c0.37,0,0.589-0.26,0.589-0.609c0-0.4-0.29-0.53-0.939-0.73c-0.709-0.209-1.219-0.549-1.219-1.269c0-0.47,0.14-0.859,0.52-1.14
			c0.399-0.29,0.679-0.359,1.099-0.359c0.54,0,0.87,0.12,1.049,0.209c0.15,0.07,0.17,0.12,0.18,0.19L50.484,32.276z"/>
		<path d="M53.776,34.885c-0.38-0.419-0.53-0.949-0.53-1.579c0-0.45,0.25-1.189,0.859-1.659c0.51-0.399,1.02-0.509,1.489-0.509
			c0.69,0,1.16,0.209,1.609,0.629c0.49,0.44,0.689,0.979,0.689,1.589c0,0.58-0.25,1.139-0.64,1.559c-0.479,0.5-1.06,0.7-1.739,0.7
			C54.785,35.615,54.286,35.465,53.776,34.885z M56.375,33.286c0-1.159-0.4-1.729-0.84-1.729c-0.25,0-0.41,0.07-0.54,0.27
			c-0.2,0.31-0.33,0.74-0.33,1.549c0,0.58,0.05,0.959,0.25,1.389c0.13,0.27,0.29,0.43,0.66,0.43
			C56.125,35.195,56.375,34.385,56.375,33.286z"/>
		<path d="M60.215,34.715c0,0.3,0.06,0.41,0.15,0.41h0.2c0.05,0,0.08,0.02,0.08,0.08v0.19c0,0.07-0.01,0.11-0.07,0.11
			c-0.08,0-0.54-0.03-1.129-0.03c-0.7,0-1.08,0.03-1.169,0.03c-0.04,0-0.07-0.03-0.07-0.1v-0.2c0-0.07,0.04-0.08,0.15-0.08h0.16
			c0.16,0,0.31-0.04,0.34-0.17c0.05-0.18,0.05-0.36,0.05-0.66l-0.02-4.158c0-0.5-0.13-0.79-0.47-0.919l-0.18-0.06
			c-0.06-0.03-0.08-0.06-0.08-0.09v-0.13c0-0.04,0.03-0.08,0.17-0.12c0.55-0.16,0.91-0.32,1.509-0.61c0.13-0.06,0.21-0.1,0.31-0.1
			c0.09,0,0.11,0.08,0.09,0.25s-0.03,2.199-0.03,2.789v0.6h0.07c0.24-0.38,0.729-0.609,1.279-0.609c0.45,0,0.709,0.13,1.02,0.39
			c0.47,0.39,0.43,0.89,0.43,1.529v0.62c0,0.5-0.02,1.109-0.02,1.299c0,0.14,0.2,0.15,0.32,0.15h0.19c0.08,0,0.11,0.02,0.11,0.07
			v0.21c0,0.06-0.02,0.1-0.08,0.1c-0.07,0-0.39-0.03-1.089-0.03c-0.689,0-1.049,0.03-1.139,0.03c-0.07,0-0.09-0.03-0.09-0.11v-0.19
			c0-0.05,0.01-0.08,0.07-0.08h0.13c0.09,0,0.22-0.05,0.24-0.19c0.01-0.14,0.03-0.67,0.03-0.97v-0.609
			c0-0.49,0.03-1.189-0.229-1.449c-0.14-0.14-0.26-0.19-0.47-0.19c-0.22,0-0.44,0.18-0.59,0.35c-0.08,0.1-0.17,0.23-0.17,0.49
			V34.715z"/>
		<path d="M65.845,31.687h0.08c0.11-0.13,0.29-0.26,0.48-0.36c0.22-0.12,0.439-0.189,0.77-0.189c0.39,0,0.77,0.04,1.029,0.28
			c0.42,0.39,0.45,0.64,0.45,1.139v1.06c0,0.34-0.02,0.81-0.04,1.159c-0.01,0.3,0.15,0.35,0.24,0.35h0.27
			c0.09,0,0.11,0.03,0.11,0.09v0.18c0,0.07-0.02,0.11-0.08,0.11c-0.07,0-0.38-0.03-1.18-0.03c-0.66,0-0.979,0.03-1.049,0.03
			c-0.06,0-0.08-0.03-0.08-0.11v-0.18c0-0.07,0.03-0.09,0.13-0.09h0.11c0.07,0,0.16-0.05,0.18-0.23c0.04-0.26,0.06-0.58,0.06-1.04
			v-1.069c0-0.38-0.03-0.64-0.24-0.83c-0.18-0.16-0.32-0.18-0.49-0.18c-0.18,0-0.31,0.05-0.51,0.2c-0.12,0.09-0.2,0.36-0.2,0.77
			l-0.02,2.049c0,0.18,0.07,0.33,0.16,0.33h0.13c0.08,0,0.1,0.03,0.1,0.1v0.19c0,0.06-0.02,0.09-0.07,0.09c-0.07,0-0.34-0.03-1-0.03
			c-0.709,0-1.029,0.03-1.089,0.03c-0.05,0-0.07-0.03-0.07-0.09v-0.2c0-0.06,0.02-0.09,0.1-0.09h0.15c0.11,0,0.28-0.03,0.28-0.2
			v-2.219c0-0.3-0.17-0.47-0.4-0.58l-0.09-0.04c-0.06-0.03-0.07-0.07-0.07-0.11v-0.09c0-0.05,0.04-0.08,0.09-0.1l1.279-0.58
			c0.08-0.03,0.15-0.07,0.23-0.07c0.06,0,0.12,0.05,0.14,0.12L65.845,31.687z"/>
		<path d="M70.996,32.986v0.27c0,1.04,0.59,1.549,1.319,1.549c0.49,0,0.89-0.23,1.089-0.55c0.02-0.05,0.06-0.06,0.1-0.03l0.17,0.09
			c0.04,0.02,0.07,0.07-0.02,0.24c-0.18,0.37-0.83,1.06-1.769,1.06c-0.64,0-1.169-0.11-1.5-0.47c-0.51-0.55-0.679-0.94-0.689-1.719
			c0-0.28,0-0.81,0.45-1.469c0.36-0.53,0.97-0.819,1.739-0.819c1.619,0,1.709,1.549,1.709,1.709c0,0.13-0.09,0.14-0.31,0.14H70.996z
			 M71.965,32.606c0.22,0,0.32-0.05,0.32-0.2c0-0.44-0.18-0.87-0.49-0.87c-0.47,0-0.719,0.37-0.79,1.069H71.965z"/>
		<path d="M78.645,31.646c0.46,0,0.9-0.03,1.02-0.06c0.17-0.04,0.31-0.13,0.46-0.31c0.11-0.15,0.23-0.43,0.23-0.62
			c0-0.07,0.03-0.09,0.08-0.09l0.27,0.03c0.05,0.01,0.09,0.02,0.08,0.08c-0.03,0.17-0.03,0.689-0.03,1.04
			c0,0.45,0.04,0.929,0.06,1.139c0.01,0.06-0.03,0.07-0.08,0.08l-0.24,0.05c-0.04,0.01-0.06-0.01-0.08-0.08
			c-0.04-0.16-0.14-0.39-0.2-0.51c-0.11-0.19-0.35-0.32-0.55-0.35c-0.27-0.04-0.58-0.06-1.02-0.06v0.6c0,0.54,0.05,1.509,0.05,1.689
			c0,0.52,0.11,0.7,0.24,0.759c0.15,0.06,0.34,0.09,0.839,0.09c0.17,0,0.59-0.01,0.8-0.03c0.2-0.02,0.5-0.12,0.76-0.33
			c0.26-0.21,0.819-0.83,1.019-1.069c0.04-0.04,0.07-0.05,0.1-0.03l0.17,0.1c0.04,0.02,0.05,0.05,0.04,0.08l-0.45,1.509
			c-0.03,0.09-0.1,0.15-0.22,0.15c-0.05,0-0.27-0.01-0.909-0.02c-0.65,0-1.709-0.01-3.438-0.01c-0.37,0-0.65,0.01-0.85,0.01
			c-0.21,0.01-0.34,0.02-0.43,0.02c-0.07,0-0.09-0.03-0.09-0.11v-0.21c0-0.06,0.03-0.09,0.1-0.09h0.3c0.46,0,0.5-0.07,0.5-0.419
			v-3.349c0-0.829-0.02-2.059-0.03-2.159c-0.04-0.32-0.14-0.39-0.41-0.39h-0.39c-0.04,0-0.05-0.03-0.05-0.1v-0.24
			c0-0.03,0.01-0.07,0.07-0.07c0.22,0,0.569,0.03,1.479,0.03l3.508-0.01c0.16,0,0.35-0.02,0.4-0.02c0.05,0,0.07,0.02,0.08,0.05
			c0.04,0.14,0.37,1.509,0.41,1.609c0.02,0.05,0.02,0.07-0.03,0.1l-0.16,0.08c-0.04,0.02-0.09,0.01-0.12-0.04
			c-0.05-0.08-0.95-0.979-1.18-1.119c-0.209-0.13-0.49-0.26-0.759-0.27l-1.319-0.04L78.645,31.646z"/>
		<path d="M85.555,35.504c-0.08,0-0.54-0.03-1.41-0.03c-0.58,0-0.969,0.03-1.079,0.03c-0.05,0-0.08-0.02-0.08-0.1v-0.2
			c0-0.06,0.03-0.08,0.1-0.08h0.37c0.11,0,0.18-0.04,0.19-0.2c0.02-0.3,0.02-0.609,0.02-0.889l-0.02-1.399
			c0-0.28-0.06-0.48-0.479-0.63c-0.11-0.04-0.12-0.08-0.12-0.14v-0.11c0-0.03,0.02-0.05,0.11-0.08l1.489-0.48
			c0.11-0.04,0.2-0.06,0.27-0.06c0.08,0,0.11,0.05,0.1,0.12c-0.02,0.17-0.02,0.8-0.02,1.679v1.069c0,0.39,0,0.75,0.01,0.859
			c0.02,0.19,0.07,0.26,0.18,0.26h0.36c0.08,0,0.1,0.03,0.1,0.09v0.19C85.645,35.475,85.625,35.504,85.555,35.504z M84.185,30.348
			c-0.399,0.01-0.699-0.26-0.699-0.65c0-0.32,0.33-0.61,0.75-0.61c0.47,0,0.709,0.3,0.709,0.58
			C84.945,29.988,84.725,30.337,84.185,30.348z"/>
		<path d="M86.315,37.883c-0.37-0.21-0.49-0.47-0.49-0.78c0-0.5,0.56-0.859,1.03-1.049v-0.05c-0.46-0.14-0.69-0.45-0.69-0.8
			c0-0.58,0.56-0.899,0.89-1.059v-0.03c-0.43-0.25-0.879-0.669-0.879-1.519c0-0.649,0.52-1.459,1.939-1.459
			c0.879,0,1.319,0.459,1.409,0.56c0.23-0.19,0.6-0.35,0.879-0.35c0.36,0,0.55,0.2,0.55,0.52c0,0.23-0.21,0.43-0.44,0.43
			c-0.17,0-0.25-0.07-0.31-0.17c-0.05-0.08-0.17-0.15-0.28-0.15c-0.05,0-0.14,0.04-0.189,0.09c0.04,0.07,0.12,0.29,0.12,0.65
			c0,0.379-0.11,0.75-0.45,1.079c-0.38,0.36-0.949,0.48-1.349,0.48c-0.2,0-0.34,0-0.59-0.03c-0.13,0.08-0.37,0.26-0.37,0.46
			c0,0.35,0.29,0.38,1.369,0.35c0.68-0.02,1.189,0.02,1.679,0.4c0.36,0.29,0.49,0.64,0.49,1.009c0,0.42-0.19,0.78-0.58,1.109
			c-0.37,0.3-1.129,0.62-2.139,0.62C87.435,38.193,86.706,38.113,86.315,37.883z M89.564,36.954c0-0.549-0.39-0.849-1.299-0.81
			l-0.87,0.04c-0.29,0.07-0.5,0.38-0.5,0.68c0,0.29,0.16,0.54,0.35,0.68c0.28,0.2,0.56,0.26,1.009,0.26
			C88.914,37.803,89.564,37.454,89.564,36.954z M87.575,31.836c-0.14,0.2-0.2,0.66-0.2,1.109c0,0.29,0.09,0.61,0.22,0.76
			c0.11,0.14,0.26,0.2,0.46,0.2c0.439,0,0.589-0.669,0.589-1.439c0-0.37-0.04-0.58-0.09-0.67c-0.09-0.169-0.21-0.28-0.49-0.28
			C87.845,31.517,87.715,31.637,87.575,31.836z"/>
		<path d="M92.325,32.986v0.27c0,1.04,0.59,1.549,1.319,1.549c0.49,0,0.89-0.23,1.089-0.55c0.02-0.05,0.06-0.06,0.1-0.03l0.17,0.09
			c0.04,0.02,0.07,0.07-0.02,0.24c-0.18,0.37-0.83,1.06-1.769,1.06c-0.64,0-1.169-0.11-1.5-0.47c-0.51-0.55-0.679-0.94-0.689-1.719
			c0-0.28,0-0.81,0.45-1.469c0.36-0.53,0.97-0.819,1.739-0.819c1.619,0,1.709,1.549,1.709,1.709c0,0.13-0.09,0.14-0.31,0.14H92.325z
			 M93.294,32.606c0.22,0,0.32-0.05,0.32-0.2c0-0.44-0.18-0.87-0.49-0.87c-0.47,0-0.719,0.37-0.79,1.069H93.294z"/>
		<path d="M97.334,31.687h0.08c0.11-0.13,0.29-0.26,0.48-0.36c0.22-0.12,0.439-0.189,0.77-0.189c0.39,0,0.77,0.04,1.029,0.28
			c0.42,0.39,0.45,0.64,0.45,1.139v1.06c0,0.34-0.02,0.81-0.04,1.159c-0.01,0.3,0.15,0.35,0.24,0.35h0.27
			c0.09,0,0.11,0.03,0.11,0.09v0.18c0,0.07-0.02,0.11-0.08,0.11c-0.07,0-0.38-0.03-1.18-0.03c-0.66,0-0.979,0.03-1.049,0.03
			c-0.06,0-0.08-0.03-0.08-0.11v-0.18c0-0.07,0.03-0.09,0.13-0.09h0.11c0.07,0,0.16-0.05,0.18-0.23c0.04-0.26,0.06-0.58,0.06-1.04
			v-1.069c0-0.38-0.03-0.64-0.24-0.83c-0.18-0.16-0.32-0.18-0.49-0.18c-0.18,0-0.31,0.05-0.51,0.2c-0.12,0.09-0.2,0.36-0.2,0.77
			l-0.02,2.049c0,0.18,0.07,0.33,0.16,0.33h0.13c0.08,0,0.1,0.03,0.1,0.1v0.19c0,0.06-0.02,0.09-0.07,0.09
			c-0.07,0-0.34-0.03-0.999-0.03c-0.71,0-1.03,0.03-1.09,0.03c-0.05,0-0.07-0.03-0.07-0.09v-0.2c0-0.06,0.02-0.09,0.1-0.09h0.15
			c0.11,0,0.28-0.03,0.28-0.2v-2.219c0-0.3-0.17-0.47-0.4-0.58l-0.09-0.04c-0.06-0.03-0.07-0.07-0.07-0.11v-0.09
			c0-0.05,0.04-0.08,0.09-0.1l1.279-0.58c0.08-0.03,0.15-0.07,0.23-0.07c0.06,0,0.12,0.05,0.14,0.12L97.334,31.687z"/>
		<path d="M104.303,32.276c0.01,0.05,0,0.07-0.04,0.09l-0.18,0.08c-0.03,0.02-0.06,0.01-0.1-0.03l-0.56-0.6
			c-0.13-0.13-0.32-0.29-0.62-0.29s-0.59,0.2-0.59,0.54c0.02,0.35,0.14,0.45,0.88,0.65c0.49,0.13,0.729,0.2,1.029,0.52
			c0.26,0.26,0.32,0.5,0.32,0.85c0,0.89-0.7,1.529-1.789,1.529c-0.56,0-1.049-0.2-1.169-0.29c-0.04-0.03-0.05-0.07-0.06-0.13
			l-0.13-0.959c0-0.05,0.03-0.07,0.07-0.08l0.18-0.05c0.03-0.01,0.05,0,0.07,0.04l0.4,0.589c0.18,0.26,0.41,0.51,0.87,0.51
			c0.37,0,0.589-0.26,0.589-0.609c0-0.4-0.29-0.53-0.939-0.73c-0.709-0.209-1.219-0.549-1.219-1.269c0-0.47,0.14-0.859,0.52-1.14
			c0.399-0.29,0.679-0.359,1.099-0.359c0.54,0,0.87,0.12,1.049,0.209c0.15,0.07,0.17,0.12,0.18,0.19L104.303,32.276z"/>
		<path d="M108.893,32.106c0,0.28-0.2,0.47-0.52,0.47c-0.419,0-0.64-0.28-0.72-0.53c-0.12-0.36-0.31-0.479-0.589-0.479
			c-0.27,0-0.66,0.39-0.66,1.02c0,0.629-0.02,1.079,0.32,1.699c0.25,0.45,0.62,0.58,1.069,0.58c0.46,0,0.68-0.09,1-0.32
			c0.05-0.03,0.08-0.05,0.11-0.01l0.14,0.14c0.03,0.04,0.02,0.08-0.01,0.13c-0.19,0.33-0.969,0.81-1.889,0.81
			c-0.75,0-1.25-0.21-1.569-0.61c-0.39-0.48-0.51-0.87-0.51-1.379c0-0.68,0.22-1.409,0.75-1.899c0.45-0.41,0.939-0.589,1.479-0.589
			C108.603,31.137,108.893,31.796,108.893,32.106z"/>
		<path d="M111.244,34.715c0,0.3,0.06,0.41,0.15,0.41h0.2c0.05,0,0.08,0.02,0.08,0.08v0.19c0,0.07-0.01,0.11-0.07,0.11
			c-0.08,0-0.54-0.03-1.129-0.03c-0.7,0-1.08,0.03-1.169,0.03c-0.04,0-0.07-0.03-0.07-0.1v-0.2c0-0.07,0.04-0.08,0.15-0.08h0.16
			c0.16,0,0.31-0.04,0.34-0.17c0.05-0.18,0.05-0.36,0.05-0.66l-0.02-4.158c0-0.5-0.13-0.79-0.47-0.919l-0.18-0.06
			c-0.06-0.03-0.08-0.06-0.08-0.09v-0.13c0-0.04,0.03-0.08,0.17-0.12c0.55-0.16,0.91-0.32,1.509-0.61c0.13-0.06,0.21-0.1,0.31-0.1
			c0.09,0,0.11,0.08,0.09,0.25s-0.03,2.199-0.03,2.789v0.6h0.07c0.24-0.38,0.729-0.609,1.279-0.609c0.45,0,0.709,0.13,1.02,0.39
			c0.47,0.39,0.43,0.89,0.43,1.529v0.62c0,0.5-0.02,1.109-0.02,1.299c0,0.14,0.2,0.15,0.32,0.15h0.19c0.08,0,0.11,0.02,0.11,0.07
			v0.21c0,0.06-0.02,0.1-0.08,0.1c-0.07,0-0.39-0.03-1.089-0.03c-0.689,0-1.049,0.03-1.139,0.03c-0.07,0-0.09-0.03-0.09-0.11v-0.19
			c0-0.05,0.01-0.08,0.07-0.08h0.13c0.09,0,0.22-0.05,0.24-0.19c0.01-0.14,0.03-0.67,0.03-0.97v-0.609
			c0-0.49,0.03-1.189-0.229-1.449c-0.14-0.14-0.26-0.19-0.47-0.19c-0.22,0-0.44,0.18-0.59,0.35c-0.08,0.1-0.17,0.23-0.17,0.49
			V34.715z"/>
		<path d="M117.314,32.286c0-0.2-0.02-0.43-0.15-0.549c-0.1-0.09-0.26-0.12-0.42-0.12c-0.18,0-0.35,0.04-0.529,0.16
			c-0.15,0.1-0.03,0.27-0.03,0.589c0,0.34-0.25,0.57-0.649,0.57c-0.23,0-0.43-0.14-0.43-0.36s0.07-0.52,0.28-0.7
			c0.419-0.38,1.109-0.739,1.919-0.739c0.64,0,0.81,0.1,1.019,0.29c0.22,0.2,0.28,0.49,0.28,0.85l0.02,1.989
			c0.01,0.52,0.04,0.68,0.23,0.68c0.14,0,0.25-0.11,0.29-0.18c0.04-0.06,0.07-0.07,0.1-0.05l0.14,0.08
			c0.04,0.02,0.07,0.05,0.03,0.14c-0.09,0.21-0.39,0.68-1.01,0.68c-0.39,0-0.759-0.14-0.949-0.61h-0.05
			c-0.25,0.23-0.459,0.37-0.859,0.52c-0.2,0.07-0.43,0.09-0.72,0.09c-0.35,0-0.66-0.38-0.66-0.92c0-0.439,0.21-0.899,0.86-1.219
			c0.779-0.37,1.029-0.479,1.289-0.66V32.286z M117.324,33.216c-0.49,0.28-0.9,0.43-0.9,1.12c0,0.459,0.21,0.649,0.43,0.659
			c0.27-0.02,0.47-0.27,0.47-0.359V33.216z"/>
		<path d="M121.544,31.807v0.87c0,0.479-0.03,1.749-0.01,2.139c0.01,0.22,0.13,0.31,0.29,0.31h0.36c0.09,0,0.11,0.02,0.11,0.08v0.2
			c0,0.06-0.02,0.1-0.07,0.1c-0.06,0-0.43-0.03-1.399-0.03c-0.65,0-1.16,0.03-1.239,0.03c-0.06,0-0.08-0.02-0.08-0.09v-0.22
			c0-0.05,0.02-0.07,0.1-0.07h0.33c0.19,0,0.27-0.12,0.27-0.33l-0.03-2.988h-0.64c-0.05,0-0.07-0.02-0.06-0.11l0.05-0.35
			c0.01-0.06,0.04-0.07,0.12-0.07h0.529v-0.3c0-1.049,0.33-1.699,0.84-2.179c0.54-0.5,1.069-0.689,1.689-0.689
			c0.59,0,1.029,0.24,1.029,0.699c0,0.31-0.32,0.5-0.55,0.5c-0.32,0-0.52-0.12-0.669-0.38c-0.12-0.2-0.26-0.3-0.36-0.3
			c-0.2,0-0.34,0.06-0.5,0.32c-0.18,0.28-0.11,0.989-0.11,1.909v0.42h1.159c0.07,0,0.08,0.06,0.07,0.1l-0.05,0.38
			c-0.01,0.04-0.05,0.05-0.13,0.05H121.544z"/>
		<path d="M124.884,34.016c0,0.819,0.31,0.999,0.55,0.999c0.21,0,0.36-0.03,0.52-0.12c0.03-0.02,0.06-0.02,0.09,0.04l0.07,0.15
			c0.03,0.05,0,0.1-0.04,0.13c-0.17,0.12-0.62,0.4-1.399,0.4c-0.68,0-1.109-0.47-1.109-0.93c0-0.35,0.02-1.109,0.02-1.489
			l0.01-1.319h-0.55c-0.09,0-0.16-0.04-0.16-0.14c0-0.1,0.06-0.17,0.22-0.25c0.33-0.15,1.169-0.899,1.539-1.319
			c0.07-0.08,0.14-0.1,0.19-0.1c0.09,0,0.13,0.07,0.13,0.15l-0.04,1.06h1.269c0.06,0,0.09,0.05,0.07,0.09l-0.1,0.43
			c-0.01,0.04-0.03,0.08-0.09,0.08h-1.169c-0.02,0.41-0.02,0.89-0.02,1.35V34.016z"/>
		<path d="M127.804,32.986v0.27c0,1.04,0.59,1.549,1.319,1.549c0.49,0,0.89-0.23,1.089-0.55c0.02-0.05,0.06-0.06,0.1-0.03l0.17,0.09
			c0.04,0.02,0.07,0.07-0.02,0.24c-0.18,0.37-0.83,1.06-1.769,1.06c-0.64,0-1.169-0.11-1.5-0.47c-0.509-0.55-0.679-0.94-0.689-1.719
			c0-0.28,0-0.81,0.45-1.469c0.36-0.53,0.97-0.819,1.739-0.819c1.619,0,1.709,1.549,1.709,1.709c0,0.13-0.09,0.14-0.31,0.14H127.804
			z M128.773,32.606c0.22,0,0.32-0.05,0.32-0.2c0-0.44-0.18-0.87-0.489-0.87c-0.47,0-0.72,0.37-0.79,1.069H128.773z"/>
		<path d="M132.813,31.687h0.08c0.11-0.13,0.29-0.26,0.48-0.36c0.22-0.12,0.439-0.189,0.77-0.189c0.39,0,0.77,0.04,1.029,0.28
			c0.42,0.39,0.45,0.64,0.45,1.139v1.06c0,0.34-0.02,0.81-0.04,1.159c-0.01,0.3,0.15,0.35,0.24,0.35h0.27
			c0.09,0,0.11,0.03,0.11,0.09v0.18c0,0.07-0.02,0.11-0.08,0.11c-0.07,0-0.38-0.03-1.18-0.03c-0.66,0-0.979,0.03-1.049,0.03
			c-0.06,0-0.08-0.03-0.08-0.11v-0.18c0-0.07,0.03-0.09,0.13-0.09h0.11c0.07,0,0.16-0.05,0.18-0.23c0.04-0.26,0.06-0.58,0.06-1.04
			v-1.069c0-0.38-0.03-0.64-0.24-0.83c-0.18-0.16-0.32-0.18-0.49-0.18c-0.18,0-0.31,0.05-0.51,0.2c-0.12,0.09-0.2,0.36-0.2,0.77
			l-0.02,2.049c0,0.18,0.07,0.33,0.16,0.33h0.13c0.08,0,0.1,0.03,0.1,0.1v0.19c0,0.06-0.02,0.09-0.07,0.09c-0.07,0-0.34-0.03-1-0.03
			c-0.709,0-1.029,0.03-1.089,0.03c-0.05,0-0.07-0.03-0.07-0.09v-0.2c0-0.06,0.02-0.09,0.1-0.09h0.15c0.11,0,0.28-0.03,0.28-0.2
			v-2.219c0-0.3-0.17-0.47-0.4-0.58l-0.09-0.04c-0.06-0.03-0.07-0.07-0.07-0.11v-0.09c0-0.05,0.04-0.08,0.09-0.1l1.279-0.58
			c0.08-0.03,0.15-0.07,0.23-0.07c0.06,0,0.12,0.05,0.14,0.12L132.813,31.687z"/>
	</g>
</g>
<g id="Layer_4">
	
		<line fill="none" stroke="#030303" stroke-width="0.0283" stroke-linecap="round" stroke-linejoin="round" stroke-miterlimit="10" x1="275.807" y1="490.929" x2="235.846" y2="490.929"/>
	
		<line fill="none" stroke="#030303" stroke-width="0.0283" stroke-linecap="round" stroke-linejoin="round" stroke-miterlimit="10" x1="275.807" y1="470.085" x2="235.846" y2="470.085"/>
	
		<line fill="none" stroke="#030303" stroke-width="0.0283" stroke-linecap="round" stroke-linejoin="round" stroke-miterlimit="10" x1="239.844" y1="522.681" x2="239.844" y2="456.044"/>
	
		<line fill="none" stroke="#030303" stroke-width="0.0283" stroke-linecap="round" stroke-linejoin="round" stroke-miterlimit="10" x1="243.84" y1="522.681" x2="243.84" y2="456.044"/>
	
		<line fill="none" stroke="#030303" stroke-width="0.0283" stroke-linecap="round" stroke-linejoin="round" stroke-miterlimit="10" x1="247.834" y1="522.681" x2="247.834" y2="456.044"/>
	
		<line fill="none" stroke="#030303" stroke-width="0.0283" stroke-linecap="round" stroke-linejoin="round" stroke-miterlimit="10" x1="255.828" y1="522.681" x2="255.828" y2="456.044"/>
	
		<line fill="none" stroke="#030303" stroke-width="0.0283" stroke-linecap="round" stroke-linejoin="round" stroke-miterlimit="10" x1="251.83" y1="522.681" x2="251.83" y2="456.044"/>
	
		<line fill="none" stroke="#030303" stroke-width="0.0283" stroke-linecap="round" stroke-linejoin="round" stroke-miterlimit="10" x1="271.811" y1="522.681" x2="271.811" y2="456.044"/>
	
		<line fill="none" stroke="#030303" stroke-width="0.0283" stroke-linecap="round" stroke-linejoin="round" stroke-miterlimit="10" x1="267.816" y1="522.681" x2="267.816" y2="456.044"/>
	
		<line fill="none" stroke="#030303" stroke-width="0.0283" stroke-linecap="round" stroke-linejoin="round" stroke-miterlimit="10" x1="263.818" y1="522.681" x2="263.818" y2="456.044"/>
	
		<line fill="none" stroke="#030303" stroke-width="0.0283" stroke-linecap="round" stroke-linejoin="round" stroke-miterlimit="10" x1="259.822" y1="522.681" x2="259.822" y2="456.044"/>
	
		<line fill="none" stroke="#030303" stroke-width="0.0283" stroke-linecap="round" stroke-linejoin="round" stroke-miterlimit="10" x1="275.807" y1="511.882" x2="235.846" y2="511.882"/>
	
		<line fill="none" stroke="#030303" stroke-width="0.0283" stroke-linecap="round" stroke-linejoin="round" stroke-miterlimit="10" x1="275.807" y1="501.406" x2="235.846" y2="501.406"/>
	
		<line fill="none" stroke="#030303" stroke-width="0.0283" stroke-linecap="round" stroke-linejoin="round" stroke-miterlimit="10" x1="275.807" y1="480.453" x2="235.846" y2="480.453"/>
	
		<line fill="none" stroke="#030303" stroke-width="0.0283" stroke-linecap="round" stroke-linejoin="round" stroke-miterlimit="10" x1="275.807" y1="459.609" x2="235.846" y2="459.609"/>
	
		<line fill="none" stroke="#030303" stroke-width="0.0283" stroke-linecap="round" stroke-linejoin="round" stroke-miterlimit="10" x1="319.547" y1="400.642" x2="359.506" y2="400.642"/>
	
		<line fill="none" stroke="#030303" stroke-width="0.0283" stroke-linecap="round" stroke-linejoin="round" stroke-miterlimit="10" x1="319.547" y1="350.853" x2="351.516" y2="350.853"/>
	
		<line fill="none" stroke="#030303" stroke-width="0.0283" stroke-linecap="round" stroke-linejoin="round" stroke-miterlimit="10" x1="319.547" y1="371.806" x2="359.506" y2="371.806"/>
	
		<line fill="none" stroke="#030303" stroke-width="0.0283" stroke-linecap="round" stroke-linejoin="round" stroke-miterlimit="10" x1="355.512" y1="319.209" x2="355.512" y2="340.378"/>
	
		<line fill="none" stroke="#030303" stroke-width="0.0283" stroke-linecap="round" stroke-linejoin="round" stroke-miterlimit="10" x1="351.516" y1="319.209" x2="351.516" y2="454.857"/>
	
		<line fill="none" stroke="#030303" stroke-width="0.0283" stroke-linecap="round" stroke-linejoin="round" stroke-miterlimit="10" x1="347.518" y1="319.209" x2="347.518" y2="454.857"/>
	
		<line fill="none" stroke="#030303" stroke-width="0.0283" stroke-linecap="round" stroke-linejoin="round" stroke-miterlimit="10" x1="339.527" y1="319.209" x2="339.527" y2="454.857"/>
	
		<line fill="none" stroke="#030303" stroke-width="0.0283" stroke-linecap="round" stroke-linejoin="round" stroke-miterlimit="10" x1="343.523" y1="319.209" x2="343.523" y2="454.857"/>
	
		<line fill="none" stroke="#030303" stroke-width="0.0283" stroke-linecap="round" stroke-linejoin="round" stroke-miterlimit="10" x1="323.543" y1="319.209" x2="323.543" y2="454.857"/>
	
		<line fill="none" stroke="#030303" stroke-width="0.0283" stroke-linecap="round" stroke-linejoin="round" stroke-miterlimit="10" x1="327.539" y1="319.209" x2="327.539" y2="454.857"/>
	
		<line fill="none" stroke="#030303" stroke-width="0.0283" stroke-linecap="round" stroke-linejoin="round" stroke-miterlimit="10" x1="331.535" y1="319.209" x2="331.535" y2="454.857"/>
	
		<line fill="none" stroke="#030303" stroke-width="0.0283" stroke-linecap="round" stroke-linejoin="round" stroke-miterlimit="10" x1="335.529" y1="319.209" x2="335.529" y2="454.857"/>
	
		<line fill="none" stroke="#030303" stroke-width="0.0283" stroke-linecap="round" stroke-linejoin="round" stroke-miterlimit="10" x1="319.547" y1="329.902" x2="359.506" y2="329.902"/>
	
		<line fill="none" stroke="#030303" stroke-width="0.0283" stroke-linecap="round" stroke-linejoin="round" stroke-miterlimit="10" x1="319.547" y1="340.378" x2="359.506" y2="340.378"/>
	
		<line fill="none" stroke="#030303" stroke-width="0.0283" stroke-linecap="round" stroke-linejoin="round" stroke-miterlimit="10" x1="319.547" y1="361.33" x2="359.506" y2="361.33"/>
	
		<line fill="none" stroke="#030303" stroke-width="0.0283" stroke-linecap="round" stroke-linejoin="round" stroke-miterlimit="10" x1="319.547" y1="382.173" x2="359.506" y2="382.173"/>
	<path fill="#030303" stroke="#030303" stroke-width="0.2551" stroke-linecap="square" stroke-miterlimit="10" d="M363.395,337.893
		v-22.571H231.957v211.141h46.334v-3.781h-1.189V501.73h-1.295v20.951h-39.961V319.209h39.961v20.845h1.295v-20.845h41.148v20.845
		h1.297v-20.845h39.959v21.169h7.668v20.951h-7.668v93.527h-39.959v-20.951h-1.297v20.951h-3.131v1.188h3.131v3.242h1.297v-3.242
		h19.332v7.453h1.295v-7.453h19.332v22.789h-19.332v-3.779h-1.295v29.473h1.295v-24.506h19.332v24.516h-0.01
		c-0.34,10.53-8.801,18.986-19.33,19.322c-11.027,0.352-20.25-8.298-20.607-19.322h-0.012v-25.271h-1.297v43.416h-1.188v3.781
		h46.332V363.814h11.449v-25.921H363.395z M371.064,348.477c0.477,0,0.863,0.388,0.863,0.864s-0.387,0.864-0.863,0.864
		c-0.479,0-0.865-0.388-0.865-0.864S370.586,348.477,371.064,348.477z M371.064,353.445c0.477,0,0.863,0.387,0.863,0.865
		c0,0.477-0.387,0.863-0.863,0.863c-0.479,0-0.865-0.387-0.865-0.863C370.199,353.832,370.586,353.445,371.064,353.445z
		 M371.064,360.898c-0.838,0-1.514-0.678-1.514-1.513s0.676-1.512,1.514-1.512c0.834,0,1.512,0.677,1.512,1.512
		S371.898,360.898,371.064,360.898z"/>
	
		<polyline fill="none" stroke="#030303" stroke-width="0.0283" stroke-linecap="round" stroke-linejoin="round" stroke-miterlimit="10" points="
		360.803,341.673 365.879,341.673 365.879,359.925 360.803,359.925 360.803,341.673 	"/>
	
		<line fill="none" stroke="#030303" stroke-width="0.085" stroke-linecap="round" stroke-linejoin="round" stroke-miterlimit="10" x1="359.506" y1="340.378" x2="359.506" y2="361.33"/>
	
		<line fill="none" stroke="#030303" stroke-width="0.0283" stroke-linecap="round" stroke-linejoin="round" stroke-miterlimit="10" x1="357.455" y1="340.378" x2="357.455" y2="361.221"/>
	
		<line fill="none" stroke="#030303" stroke-width="0.0283" stroke-linecap="round" stroke-linejoin="round" stroke-miterlimit="10" x1="355.512" y1="340.378" x2="355.512" y2="361.221"/>
	
		<line fill="none" stroke="#030303" stroke-width="0.0283" stroke-linecap="round" stroke-linejoin="round" stroke-miterlimit="10" x1="353.674" y1="340.378" x2="353.674" y2="361.221"/>
	
		<polyline fill="none" stroke="#030303" stroke-width="0.085" stroke-linecap="round" stroke-linejoin="round" stroke-miterlimit="10" points="
		359.506,340.378 351.516,340.378 351.516,361.33 359.506,361.33 	"/>
	
		<line fill="none" stroke="#030303" stroke-width="0.0283" stroke-linecap="round" stroke-linejoin="round" stroke-miterlimit="10" x1="359.506" y1="342.322" x2="351.516" y2="342.322"/>
	
		<line fill="none" stroke="#030303" stroke-width="0.0283" stroke-linecap="round" stroke-linejoin="round" stroke-miterlimit="10" x1="359.506" y1="344.265" x2="351.516" y2="344.265"/>
	
		<line fill="none" stroke="#030303" stroke-width="0.0283" stroke-linecap="round" stroke-linejoin="round" stroke-miterlimit="10" x1="359.506" y1="348.154" x2="351.516" y2="348.154"/>
	
		<line fill="none" stroke="#030303" stroke-width="0.0283" stroke-linecap="round" stroke-linejoin="round" stroke-miterlimit="10" x1="359.506" y1="349.99" x2="351.516" y2="349.99"/>
	
		<line fill="none" stroke="#030303" stroke-width="0.0283" stroke-linecap="round" stroke-linejoin="round" stroke-miterlimit="10" x1="359.506" y1="351.933" x2="351.516" y2="351.933"/>
	
		<line fill="none" stroke="#030303" stroke-width="0.0283" stroke-linecap="round" stroke-linejoin="round" stroke-miterlimit="10" x1="359.506" y1="353.878" x2="351.516" y2="353.878"/>
	
		<line fill="none" stroke="#030303" stroke-width="0.0283" stroke-linecap="round" stroke-linejoin="round" stroke-miterlimit="10" x1="359.506" y1="355.714" x2="351.516" y2="355.714"/>
	
		<line fill="none" stroke="#030303" stroke-width="0.0283" stroke-linecap="round" stroke-linejoin="round" stroke-miterlimit="10" x1="359.506" y1="357.658" x2="351.516" y2="357.658"/>
	
		<line fill="none" stroke="#030303" stroke-width="0.0283" stroke-linecap="round" stroke-linejoin="round" stroke-miterlimit="10" x1="359.506" y1="359.601" x2="351.516" y2="359.601"/>
	
		<line fill="none" stroke="#030303" stroke-width="0.0283" stroke-linecap="round" stroke-linejoin="round" stroke-miterlimit="10" x1="359.506" y1="346.101" x2="351.516" y2="346.101"/>
	
		<line fill="none" stroke="#030303" stroke-width="0.085" stroke-linecap="round" stroke-linejoin="round" stroke-miterlimit="10" x1="319.547" y1="479.265" x2="338.879" y2="479.265"/>
	
		<line fill="none" stroke="#030303" stroke-width="0.085" stroke-linecap="round" stroke-linejoin="round" stroke-miterlimit="10" x1="338.879" y1="504.537" x2="319.547" y2="504.537"/>
	
		<line fill="none" stroke="#030303" stroke-width="0.085" stroke-linecap="round" stroke-linejoin="round" stroke-miterlimit="10" x1="319.547" y1="482.398" x2="338.879" y2="482.398"/>
	
		<line fill="none" stroke="#030303" stroke-width="0.085" stroke-linecap="round" stroke-linejoin="round" stroke-miterlimit="10" x1="319.547" y1="485.638" x2="338.879" y2="485.638"/>
	
		<line fill="none" stroke="#030303" stroke-width="0.085" stroke-linecap="round" stroke-linejoin="round" stroke-miterlimit="10" x1="319.547" y1="488.769" x2="338.879" y2="488.769"/>
	
		<line fill="none" stroke="#030303" stroke-width="0.085" stroke-linecap="round" stroke-linejoin="round" stroke-miterlimit="10" x1="319.547" y1="491.902" x2="338.879" y2="491.902"/>
	
		<line fill="none" stroke="#030303" stroke-width="0.085" stroke-linecap="round" stroke-linejoin="round" stroke-miterlimit="10" x1="319.547" y1="495.033" x2="338.879" y2="495.033"/>
	
		<line fill="none" stroke="#030303" stroke-width="0.085" stroke-linecap="round" stroke-linejoin="round" stroke-miterlimit="10" x1="319.547" y1="498.273" x2="338.879" y2="498.273"/>
	
		<line fill="none" stroke="#030303" stroke-width="0.085" stroke-linecap="round" stroke-linejoin="round" stroke-miterlimit="10" x1="319.547" y1="501.406" x2="338.879" y2="501.406"/>
	
		<line fill="none" stroke="#030303" stroke-width="0.085" stroke-linecap="round" stroke-linejoin="round" stroke-miterlimit="10" x1="340.174" y1="504.537" x2="359.506" y2="504.537"/>
	
		<line fill="none" stroke="#030303" stroke-width="0.085" stroke-linecap="round" stroke-linejoin="round" stroke-miterlimit="10" x1="359.506" y1="482.398" x2="340.174" y2="482.398"/>
	
		<line fill="none" stroke="#030303" stroke-width="0.085" stroke-linecap="round" stroke-linejoin="round" stroke-miterlimit="10" x1="359.506" y1="485.638" x2="340.174" y2="485.638"/>
	
		<line fill="none" stroke="#030303" stroke-width="0.085" stroke-linecap="round" stroke-linejoin="round" stroke-miterlimit="10" x1="359.506" y1="488.769" x2="340.174" y2="488.769"/>
	
		<line fill="none" stroke="#030303" stroke-width="0.085" stroke-linecap="round" stroke-linejoin="round" stroke-miterlimit="10" x1="359.506" y1="491.902" x2="340.174" y2="491.902"/>
	
		<line fill="none" stroke="#030303" stroke-width="0.085" stroke-linecap="round" stroke-linejoin="round" stroke-miterlimit="10" x1="359.506" y1="495.033" x2="340.174" y2="495.033"/>
	
		<line fill="none" stroke="#030303" stroke-width="0.085" stroke-linecap="round" stroke-linejoin="round" stroke-miterlimit="10" x1="359.506" y1="498.273" x2="340.174" y2="498.273"/>
	
		<line fill="none" stroke="#030303" stroke-width="0.085" stroke-linecap="round" stroke-linejoin="round" stroke-miterlimit="10" x1="359.506" y1="501.406" x2="340.174" y2="501.406"/>
	
		<polyline fill="none" stroke="#030303" stroke-width="0.085" stroke-linecap="round" stroke-linejoin="round" stroke-miterlimit="10" points="
		277.102,340.701 275.807,340.701 275.807,361.005 277.102,361.005 277.102,340.701 	"/>
	
		<polyline fill="none" stroke="#030303" stroke-width="0.085" stroke-linecap="round" stroke-linejoin="round" stroke-miterlimit="10" points="
		352.055,456.693 346.979,456.693 346.979,465.009 352.055,465.009 352.055,456.693 	"/>
	
		<line fill="none" stroke="#030303" stroke-width="0.085" stroke-linecap="round" stroke-linejoin="round" stroke-miterlimit="10" x1="346.979" y1="459.287" x2="352.055" y2="459.287"/>
	
		<line fill="none" stroke="#030303" stroke-width="0.085" stroke-linecap="round" stroke-linejoin="round" stroke-miterlimit="10" x1="349.572" y1="456.693" x2="349.572" y2="456.044"/>
	
		<polyline fill="none" stroke="#030303" stroke-width="0.085" stroke-linecap="round" stroke-linejoin="round" stroke-miterlimit="10" points="
		352.701,478.833 352.701,474.298 346.33,474.298 346.33,478.833 	"/>
	
		<line fill="none" stroke="#030303" stroke-width="0.085" stroke-linecap="round" stroke-linejoin="round" stroke-miterlimit="10" x1="352.701" y1="477.537" x2="346.33" y2="477.537"/>
	
		<line fill="none" stroke="#030303" stroke-width="0.085" stroke-linecap="round" stroke-linejoin="round" stroke-miterlimit="10" x1="318.25" y1="459.287" x2="318.25" y2="479.265"/>
	
		<line fill="none" stroke="#030303" stroke-width="0.085" stroke-linecap="round" stroke-linejoin="round" stroke-miterlimit="10" x1="319.547" y1="459.287" x2="319.547" y2="479.265"/>
	
		<line fill="none" stroke="#030303" stroke-width="0.085" stroke-linecap="round" stroke-linejoin="round" stroke-miterlimit="10" x1="340.174" y1="463.498" x2="340.174" y2="475.054"/>
	
		<line fill="none" stroke="#030303" stroke-width="0.085" stroke-linecap="round" stroke-linejoin="round" stroke-miterlimit="10" x1="338.879" y1="463.498" x2="338.879" y2="475.054"/>
	<polyline fill="#030303" stroke="#030303" stroke-width="0.2551" stroke-linecap="square" stroke-miterlimit="10" points="
		277.102,454.857 277.102,451.617 275.807,451.617 275.807,454.857 272.566,454.857 272.566,456.044 275.807,456.044 
		275.807,459.287 277.102,459.287 277.102,456.044 280.234,456.044 280.234,454.857 277.102,454.857 	"/>
	
		<line fill="none" stroke="#030303" stroke-width="0.0283" stroke-linecap="round" stroke-linejoin="round" stroke-miterlimit="10" x1="276.455" y1="451.617" x2="276.455" y2="390.166"/>
	
		<line fill="none" stroke="#030303" stroke-width="0.0283" stroke-linecap="round" stroke-linejoin="round" stroke-miterlimit="10" x1="315.119" y1="455.398" x2="280.234" y2="455.398"/>
	
		<line fill="none" stroke="#030303" stroke-width="0.085" stroke-linecap="round" stroke-linejoin="round" stroke-miterlimit="10" x1="319.547" y1="468.789" x2="319.547" y2="457.341"/>
	
		<line fill="none" stroke="#030303" stroke-width="0.085" stroke-linecap="round" stroke-linejoin="round" stroke-miterlimit="10" x1="318.25" y1="468.789" x2="318.25" y2="457.341"/>
	
		<polyline fill="none" stroke="#070707" stroke-width="0.1984" stroke-linecap="round" stroke-linejoin="round" stroke-miterlimit="10" points="
		277.102,361.005 275.807,361.005 275.807,361.654 277.102,361.654 277.102,361.005 	"/>
	
		<polyline fill="none" stroke="#070707" stroke-width="0.1984" stroke-linecap="round" stroke-linejoin="round" stroke-miterlimit="10" points="
		277.102,340.701 275.807,340.701 275.807,340.054 277.102,340.054 277.102,340.701 	"/>
	<polyline fill="#030303" stroke="#030303" stroke-width="0.2551" stroke-linecap="square" stroke-miterlimit="10" points="
		277.102,385.738 277.102,382.498 275.807,382.498 275.807,385.738 272.566,385.738 272.566,387.033 275.807,387.033 
		275.807,390.166 277.102,390.166 277.102,387.033 280.234,387.033 280.234,385.738 277.102,385.738 	"/>
	
		<polyline fill="none" stroke="#070707" stroke-width="0.1984" stroke-linecap="round" stroke-linejoin="round" stroke-miterlimit="10" points="
		277.102,381.849 275.807,381.849 275.807,382.498 277.102,382.498 277.102,381.849 	"/>
	
		<line fill="none" stroke="#030303" stroke-width="0.085" stroke-linecap="round" stroke-linejoin="round" stroke-miterlimit="10" x1="277.102" y1="361.654" x2="277.102" y2="381.849"/>
	
		<line fill="none" stroke="#030303" stroke-width="0.085" stroke-linecap="round" stroke-linejoin="round" stroke-miterlimit="10" x1="275.807" y1="361.654" x2="275.807" y2="381.849"/>
	
		<polyline fill="none" stroke="#030303" stroke-width="0.085" stroke-linecap="round" stroke-linejoin="round" stroke-miterlimit="10" points="
		318.25,340.701 319.547,340.701 319.547,361.005 318.25,361.005 318.25,340.701 	"/>
	
		<polyline fill="none" stroke="#070707" stroke-width="0.1984" stroke-linecap="round" stroke-linejoin="round" stroke-miterlimit="10" points="
		318.25,361.005 319.547,361.005 319.547,361.654 318.25,361.654 318.25,361.005 	"/>
	
		<polyline fill="none" stroke="#070707" stroke-width="0.1984" stroke-linecap="round" stroke-linejoin="round" stroke-miterlimit="10" points="
		318.25,340.701 319.547,340.701 319.547,340.054 318.25,340.054 318.25,340.701 	"/>
	
		<polyline fill="none" stroke="#070707" stroke-width="0.1984" stroke-linecap="round" stroke-linejoin="round" stroke-miterlimit="10" points="
		318.25,381.849 319.547,381.849 319.547,382.498 318.25,382.498 318.25,381.849 	"/>
	
		<line fill="none" stroke="#030303" stroke-width="0.085" stroke-linecap="round" stroke-linejoin="round" stroke-miterlimit="10" x1="318.25" y1="361.654" x2="318.25" y2="381.849"/>
	
		<line fill="none" stroke="#030303" stroke-width="0.085" stroke-linecap="round" stroke-linejoin="round" stroke-miterlimit="10" x1="319.547" y1="361.654" x2="319.547" y2="381.849"/>
	
		<polyline fill="none" stroke="#030303" stroke-width="0.085" stroke-linecap="round" stroke-linejoin="round" stroke-miterlimit="10" points="
		318.25,433.257 319.547,433.257 319.547,411.117 318.25,411.117 318.25,433.257 	"/>
	
		<polyline fill="none" stroke="#070707" stroke-width="0.1984" stroke-linecap="round" stroke-linejoin="round" stroke-miterlimit="10" points="
		318.25,411.117 319.547,411.117 319.547,410.47 318.25,410.47 318.25,411.117 	"/>
	
		<polyline fill="none" stroke="#070707" stroke-width="0.1984" stroke-linecap="round" stroke-linejoin="round" stroke-miterlimit="10" points="
		318.25,433.257 319.547,433.257 319.547,433.906 318.25,433.906 318.25,433.257 	"/>
	
		<polyline fill="none" stroke="#070707" stroke-width="0.1984" stroke-linecap="round" stroke-linejoin="round" stroke-miterlimit="10" points="
		318.25,390.814 319.547,390.814 319.547,390.166 318.25,390.166 318.25,390.814 	"/>
	
		<line fill="none" stroke="#030303" stroke-width="0.085" stroke-linecap="round" stroke-linejoin="round" stroke-miterlimit="10" x1="318.25" y1="410.47" x2="318.25" y2="390.814"/>
	
		<line fill="none" stroke="#030303" stroke-width="0.085" stroke-linecap="round" stroke-linejoin="round" stroke-miterlimit="10" x1="319.547" y1="410.47" x2="319.547" y2="390.814"/>
	
		<line fill="none" stroke="#030303" stroke-width="0.8504" stroke-linecap="round" stroke-linejoin="round" stroke-miterlimit="10" x1="318.25" y1="400.642" x2="318.25" y2="400.642"/>
	
		<path fill="none" stroke="#030303" stroke-width="0.085" stroke-linecap="round" stroke-linejoin="round" stroke-miterlimit="10" d="
		M308.531,400.642c0,5.367,4.354,9.719,9.721,9.719l0,0"/>
	
		<path fill="none" stroke="#030303" stroke-width="0.085" stroke-linecap="round" stroke-linejoin="round" stroke-miterlimit="10" d="
		M327.971,400.642c0-5.369-4.352-9.721-9.719-9.721l0,0"/>
	
		<line fill="none" stroke="#030303" stroke-width="0.085" stroke-linecap="round" stroke-linejoin="round" stroke-miterlimit="10" x1="328.078" y1="400.642" x2="308.529" y2="400.642"/>
	
		<path fill="none" stroke="#030303" stroke-width="0.085" stroke-linecap="round" stroke-linejoin="round" stroke-miterlimit="10" d="
		M328.295,371.806c0-5.549-4.496-10.045-10.043-10.045l0,0"/>
	
		<path fill="none" stroke="#030303" stroke-width="0.085" stroke-linecap="round" stroke-linejoin="round" stroke-miterlimit="10" d="
		M308.209,371.806c0,5.547,4.496,10.043,10.043,10.043l0,0"/>
	
		<line fill="none" stroke="#030303" stroke-width="0.085" stroke-linecap="round" stroke-linejoin="round" stroke-miterlimit="10" x1="308.207" y1="371.806" x2="328.402" y2="371.806"/>
	
		<line fill="none" stroke="#030303" stroke-width="0.8504" stroke-linecap="round" stroke-linejoin="round" stroke-miterlimit="10" x1="318.25" y1="371.806" x2="318.25" y2="371.806"/>
	
		<line fill="none" stroke="#030303" stroke-width="0.8504" stroke-linecap="round" stroke-linejoin="round" stroke-miterlimit="10" x1="277.102" y1="371.806" x2="277.102" y2="371.806"/>
	
		<path fill="none" stroke="#030303" stroke-width="0.085" stroke-linecap="round" stroke-linejoin="round" stroke-miterlimit="10" d="
		M277.104,361.761c-5.547,0-10.043,4.496-10.043,10.043c0,0.002,0,0.002,0,0.002"/>
	
		<path fill="none" stroke="#030303" stroke-width="0.085" stroke-linecap="round" stroke-linejoin="round" stroke-miterlimit="10" d="
		M277.104,381.849c5.547,0,10.043-4.496,10.043-10.045"/>
	
		<line fill="none" stroke="#030303" stroke-width="0.085" stroke-linecap="round" stroke-linejoin="round" stroke-miterlimit="10" x1="287.146" y1="371.806" x2="266.951" y2="371.806"/>
	
		<line fill="#030303" stroke="#030303" stroke-width="0.2551" stroke-linecap="square" stroke-miterlimit="10" x1="320.844" y1="526.462" x2="317.062" y2="526.462"/>
	
		<polyline fill="none" stroke="#030303" stroke-width="0.085" stroke-linecap="round" stroke-linejoin="round" stroke-miterlimit="10" points="
		254.855,400.318 264.25,400.318 264.25,441.464 254.855,441.464 254.855,400.318 	"/>
	
		<line fill="none" stroke="#030303" stroke-width="0.085" stroke-linecap="round" stroke-linejoin="round" stroke-miterlimit="10" x1="254.855" y1="410.578" x2="264.25" y2="410.578"/>
	
		<line fill="none" stroke="#030303" stroke-width="0.085" stroke-linecap="round" stroke-linejoin="round" stroke-miterlimit="10" x1="254.855" y1="420.945" x2="264.25" y2="420.945"/>
	
		<line fill="none" stroke="#030303" stroke-width="0.0283" stroke-linecap="round" stroke-linejoin="round" stroke-miterlimit="10" x1="260.686" y1="411.548" x2="260.686" y2="420.298"/>
	
		<line fill="none" stroke="#030303" stroke-width="0.0283" stroke-linecap="round" stroke-linejoin="round" stroke-miterlimit="10" x1="263.062" y1="411.548" x2="263.062" y2="420.298"/>
	
		<line fill="none" stroke="#030303" stroke-width="0.0283" stroke-linecap="round" stroke-linejoin="round" stroke-miterlimit="10" x1="258.418" y1="411.548" x2="258.418" y2="420.298"/>
	
		<line fill="none" stroke="#030303" stroke-width="0.0283" stroke-linecap="round" stroke-linejoin="round" stroke-miterlimit="10" x1="256.15" y1="411.548" x2="256.15" y2="420.298"/>
	
		<circle fill="none" stroke="#030303" stroke-width="0.0283" stroke-linecap="round" stroke-linejoin="round" stroke-miterlimit="10" cx="261.984" cy="407.986" r="1.188"/>
	
		<circle fill="none" stroke="#030303" stroke-width="0.0283" stroke-linecap="round" stroke-linejoin="round" stroke-miterlimit="10" cx="257.232" cy="407.986" r="1.188"/>
	
		<circle fill="none" stroke="#030303" stroke-width="0.0283" stroke-linecap="round" stroke-linejoin="round" stroke-miterlimit="10" cx="261.984" cy="403.018" r="1.188"/>
	
		<circle fill="none" stroke="#030303" stroke-width="0.0283" stroke-linecap="round" stroke-linejoin="round" stroke-miterlimit="10" cx="257.232" cy="403.018" r="1.188"/>
	
		<polyline fill="none" stroke="#030303" stroke-width="0.0283" stroke-linecap="round" stroke-linejoin="round" stroke-miterlimit="10" points="
		263.062,422.134 256.15,422.134 256.15,429.91 263.062,429.91 263.062,422.134 	"/>
	
		<line fill="none" stroke="#030303" stroke-width="0.0283" stroke-linecap="round" stroke-linejoin="round" stroke-miterlimit="10" x1="255.178" y1="426.021" x2="257.123" y2="426.021"/>
	
		<polyline fill="none" stroke="#030303" stroke-width="0.085" stroke-linecap="round" stroke-linejoin="round" stroke-miterlimit="10" points="
		247.943,400.318 254.855,400.318 254.855,441.464 247.943,441.464 247.943,400.318 	"/>
	
		<polyline fill="none" stroke="#030303" stroke-width="0.085" stroke-linecap="round" stroke-linejoin="round" stroke-miterlimit="10" points="
		247.943,410.578 254.855,410.578 247.943,410.578 	"/>
	
		<line fill="none" stroke="#030303" stroke-width="0.085" stroke-linecap="round" stroke-linejoin="round" stroke-miterlimit="10" x1="254.855" y1="420.945" x2="247.943" y2="420.945"/>
	
		<polyline fill="none" stroke="#030303" stroke-width="0.085" stroke-linecap="round" stroke-linejoin="round" stroke-miterlimit="10" points="
		247.943,431.207 254.855,431.207 264.25,431.207 	"/>
	
		<polyline fill="none" stroke="#030303" stroke-width="0.085" stroke-linecap="round" stroke-linejoin="round" stroke-miterlimit="10" points="
		277.102,501.082 275.807,501.082 275.807,480.777 277.102,480.777 277.102,501.082 	"/>
	
		<polyline fill="none" stroke="#070707" stroke-width="0.1984" stroke-linecap="round" stroke-linejoin="round" stroke-miterlimit="10" points="
		277.102,480.777 275.807,480.777 275.807,480.128 277.102,480.128 277.102,480.777 	"/>
	
		<polyline fill="none" stroke="#070707" stroke-width="0.1984" stroke-linecap="round" stroke-linejoin="round" stroke-miterlimit="10" points="
		277.102,501.082 275.807,501.082 275.807,501.73 277.102,501.73 277.102,501.082 	"/>
	
		<polyline fill="none" stroke="#070707" stroke-width="0.1984" stroke-linecap="round" stroke-linejoin="round" stroke-miterlimit="10" points="
		277.102,459.933 275.807,459.933 275.807,459.287 277.102,459.287 277.102,459.933 	"/>
	
		<line fill="none" stroke="#030303" stroke-width="0.085" stroke-linecap="round" stroke-linejoin="round" stroke-miterlimit="10" x1="277.102" y1="480.128" x2="277.102" y2="459.933"/>
	
		<line fill="none" stroke="#030303" stroke-width="0.085" stroke-linecap="round" stroke-linejoin="round" stroke-miterlimit="10" x1="275.807" y1="480.128" x2="275.807" y2="459.933"/>
	
		<line fill="none" stroke="#030303" stroke-width="0.8504" stroke-linecap="round" stroke-linejoin="round" stroke-miterlimit="10" x1="277.102" y1="470.085" x2="277.102" y2="470.085"/>
	
		<path fill="none" stroke="#030303" stroke-width="0.085" stroke-linecap="round" stroke-linejoin="round" stroke-miterlimit="10" d="
		M267.061,470.085c0,5.547,4.496,10.043,10.043,10.043l0,0"/>
	
		<path fill="none" stroke="#030303" stroke-width="0.085" stroke-linecap="round" stroke-linejoin="round" stroke-miterlimit="10" d="
		M287.146,470.085c0-5.547-4.496-10.043-10.043-10.043l0,0"/>
	
		<line fill="none" stroke="#030303" stroke-width="0.085" stroke-linecap="round" stroke-linejoin="round" stroke-miterlimit="10" x1="287.146" y1="470.085" x2="266.951" y2="470.085"/>
	
		<line fill="none" stroke="#030303" stroke-width="0.085" stroke-linecap="round" stroke-linejoin="round" stroke-miterlimit="10" x1="271.918" y1="456.044" x2="236.494" y2="456.044"/>
	
		<line fill="none" stroke="#030303" stroke-width="0.085" stroke-linecap="round" stroke-linejoin="round" stroke-miterlimit="10" x1="271.918" y1="454.857" x2="236.494" y2="454.857"/>
	
		<polyline fill="none" stroke="#070707" stroke-width="0.1984" stroke-linecap="round" stroke-linejoin="round" stroke-miterlimit="10" points="
		271.918,456.044 271.918,454.857 272.566,454.857 272.566,456.044 271.918,456.044 	"/>
	
		<polyline fill="none" stroke="#070707" stroke-width="0.1984" stroke-linecap="round" stroke-linejoin="round" stroke-miterlimit="10" points="
		253.883,456.044 253.883,454.857 254.529,454.857 254.529,456.044 253.883,456.044 	"/>
	
		<line fill="none" stroke="#090909" stroke-width="0.9921" stroke-linecap="round" stroke-linejoin="round" stroke-miterlimit="10" x1="263.279" y1="456.044" x2="263.279" y2="456.044"/>
	
		<path fill="none" stroke="#030303" stroke-width="0.085" stroke-linecap="round" stroke-linejoin="round" stroke-miterlimit="10" d="
		M263.281,447.406c-4.773,0-8.643,3.867-8.643,8.639l0,0"/>
	
		<line fill="none" stroke="#030303" stroke-width="0.085" stroke-linecap="round" stroke-linejoin="round" stroke-miterlimit="10" x1="263.279" y1="447.406" x2="263.279" y2="464.792"/>
	
		<path fill="none" stroke="#030303" stroke-width="0.085" stroke-linecap="round" stroke-linejoin="round" stroke-miterlimit="10" d="
		M263.281,464.685c4.77,0,8.639-3.867,8.639-8.641"/>
	
		<polyline fill="none" stroke="#070707" stroke-width="0.1984" stroke-linecap="round" stroke-linejoin="round" stroke-miterlimit="10" points="
		236.494,456.044 236.494,454.857 235.846,454.857 235.846,456.044 236.494,456.044 	"/>
	
		<line fill="none" stroke="#030303" stroke-width="0.085" stroke-linecap="round" stroke-linejoin="round" stroke-miterlimit="10" x1="271.918" y1="385.738" x2="236.494" y2="385.738"/>
	
		<line fill="none" stroke="#030303" stroke-width="0.085" stroke-linecap="round" stroke-linejoin="round" stroke-miterlimit="10" x1="271.918" y1="387.033" x2="236.494" y2="387.033"/>
	
		<polyline fill="none" stroke="#070707" stroke-width="0.1984" stroke-linecap="round" stroke-linejoin="round" stroke-miterlimit="10" points="
		271.918,385.738 271.918,387.033 272.566,387.033 272.566,385.738 271.918,385.738 	"/>
	
		<polyline fill="none" stroke="#070707" stroke-width="0.1984" stroke-linecap="round" stroke-linejoin="round" stroke-miterlimit="10" points="
		253.883,385.738 253.883,387.033 254.529,387.033 254.529,385.738 253.883,385.738 	"/>
	
		<line fill="none" stroke="#090909" stroke-width="0.9921" stroke-linecap="round" stroke-linejoin="round" stroke-miterlimit="10" x1="263.279" y1="385.738" x2="263.279" y2="385.738"/>
	
		<path fill="none" stroke="#030303" stroke-width="0.085" stroke-linecap="round" stroke-linejoin="round" stroke-miterlimit="10" d="
		M254.639,385.738c0,4.771,3.869,8.641,8.643,8.641l0,0"/>
	
		<line fill="none" stroke="#030303" stroke-width="0.085" stroke-linecap="round" stroke-linejoin="round" stroke-miterlimit="10" x1="263.279" y1="394.486" x2="263.279" y2="376.99"/>
	
		<path fill="none" stroke="#030303" stroke-width="0.085" stroke-linecap="round" stroke-linejoin="round" stroke-miterlimit="10" d="
		M271.92,385.738c0-4.771-3.869-8.641-8.639-8.641l0,0"/>
	
		<polyline fill="none" stroke="#070707" stroke-width="0.1984" stroke-linecap="round" stroke-linejoin="round" stroke-miterlimit="10" points="
		236.494,385.738 236.494,387.033 235.846,387.033 235.846,385.738 236.494,385.738 	"/>
	
		<line fill="none" stroke="#030303" stroke-width="0.0283" stroke-linecap="round" stroke-linejoin="round" stroke-miterlimit="10" x1="275.807" y1="350.853" x2="235.846" y2="350.853"/>
	
		<line fill="none" stroke="#030303" stroke-width="0.0283" stroke-linecap="round" stroke-linejoin="round" stroke-miterlimit="10" x1="275.807" y1="371.806" x2="235.846" y2="371.806"/>
	
		<line fill="none" stroke="#030303" stroke-width="0.0283" stroke-linecap="round" stroke-linejoin="round" stroke-miterlimit="10" x1="239.844" y1="319.209" x2="239.844" y2="385.738"/>
	
		<line fill="none" stroke="#030303" stroke-width="0.0283" stroke-linecap="round" stroke-linejoin="round" stroke-miterlimit="10" x1="243.84" y1="319.209" x2="243.84" y2="385.738"/>
	
		<line fill="none" stroke="#030303" stroke-width="0.0283" stroke-linecap="round" stroke-linejoin="round" stroke-miterlimit="10" x1="247.834" y1="319.209" x2="247.834" y2="385.738"/>
	
		<line fill="none" stroke="#030303" stroke-width="0.0283" stroke-linecap="round" stroke-linejoin="round" stroke-miterlimit="10" x1="255.828" y1="319.209" x2="255.828" y2="385.738"/>
	
		<line fill="none" stroke="#030303" stroke-width="0.0283" stroke-linecap="round" stroke-linejoin="round" stroke-miterlimit="10" x1="251.83" y1="319.209" x2="251.83" y2="385.738"/>
	
		<line fill="none" stroke="#030303" stroke-width="0.0283" stroke-linecap="round" stroke-linejoin="round" stroke-miterlimit="10" x1="271.811" y1="319.209" x2="271.811" y2="385.738"/>
	
		<line fill="none" stroke="#030303" stroke-width="0.0283" stroke-linecap="round" stroke-linejoin="round" stroke-miterlimit="10" x1="267.816" y1="319.209" x2="267.816" y2="385.738"/>
	
		<line fill="none" stroke="#030303" stroke-width="0.0283" stroke-linecap="round" stroke-linejoin="round" stroke-miterlimit="10" x1="263.818" y1="319.209" x2="263.818" y2="385.738"/>
	
		<line fill="none" stroke="#030303" stroke-width="0.0283" stroke-linecap="round" stroke-linejoin="round" stroke-miterlimit="10" x1="259.822" y1="319.209" x2="259.822" y2="385.738"/>
	
		<line fill="none" stroke="#030303" stroke-width="0.0283" stroke-linecap="round" stroke-linejoin="round" stroke-miterlimit="10" x1="275.807" y1="329.902" x2="235.846" y2="329.902"/>
	
		<line fill="none" stroke="#030303" stroke-width="0.0283" stroke-linecap="round" stroke-linejoin="round" stroke-miterlimit="10" x1="275.807" y1="340.378" x2="235.846" y2="340.378"/>
	
		<line fill="none" stroke="#030303" stroke-width="0.0283" stroke-linecap="round" stroke-linejoin="round" stroke-miterlimit="10" x1="275.807" y1="361.33" x2="235.846" y2="361.33"/>
	
		<line fill="none" stroke="#030303" stroke-width="0.0283" stroke-linecap="round" stroke-linejoin="round" stroke-miterlimit="10" x1="275.807" y1="382.173" x2="235.846" y2="382.173"/>
	
		<line fill="none" stroke="#030303" stroke-width="0.0283" stroke-linecap="round" stroke-linejoin="round" stroke-miterlimit="10" x1="315.119" y1="386.386" x2="280.234" y2="386.386"/>
	
		<polyline fill="none" stroke="#030303" stroke-width="0.085" stroke-linecap="round" stroke-linejoin="round" stroke-miterlimit="10" points="
		296.002,329.792 296.002,358.521 308.746,358.521 308.746,329.792 296.002,329.792 	"/>
	
		<polyline fill="none" stroke="#030303" stroke-width="0.085" stroke-linecap="round" stroke-linejoin="round" stroke-miterlimit="10" points="
		315.119,341.242 315.119,346.425 310.043,346.425 310.043,341.242 315.119,341.242 	"/>
	
		<line fill="none" stroke="#030303" stroke-width="0.0283" stroke-linecap="round" stroke-linejoin="round" stroke-miterlimit="10" x1="314.471" y1="341.242" x2="314.471" y2="346.425"/>
	
		<polyline fill="none" stroke="#030303" stroke-width="0.085" stroke-linecap="round" stroke-linejoin="round" stroke-miterlimit="10" points="
		315.119,337.461 315.119,332.386 310.043,332.386 310.043,337.461 315.119,337.461 	"/>
	
		<line fill="none" stroke="#030303" stroke-width="0.0283" stroke-linecap="round" stroke-linejoin="round" stroke-miterlimit="10" x1="314.471" y1="337.461" x2="314.471" y2="332.386"/>
	
		<polyline fill="none" stroke="#030303" stroke-width="0.085" stroke-linecap="round" stroke-linejoin="round" stroke-miterlimit="10" points="
		289.631,341.242 289.631,346.425 294.707,346.425 294.707,341.242 289.631,341.242 	"/>
	
		<line fill="none" stroke="#030303" stroke-width="0.0283" stroke-linecap="round" stroke-linejoin="round" stroke-miterlimit="10" x1="290.172" y1="341.242" x2="290.172" y2="346.425"/>
	
		<polyline fill="none" stroke="#030303" stroke-width="0.085" stroke-linecap="round" stroke-linejoin="round" stroke-miterlimit="10" points="
		289.631,337.461 289.631,332.386 294.707,332.386 294.707,337.461 289.631,337.461 	"/>
	
		<line fill="none" stroke="#030303" stroke-width="0.0283" stroke-linecap="round" stroke-linejoin="round" stroke-miterlimit="10" x1="290.172" y1="337.461" x2="290.172" y2="332.386"/>
	
		<polyline fill="none" stroke="#030303" stroke-width="0.085" stroke-linecap="round" stroke-linejoin="round" stroke-miterlimit="10" points="
		289.631,350.206 289.631,355.281 294.707,355.281 294.707,350.206 289.631,350.206 	"/>
	
		<line fill="none" stroke="#030303" stroke-width="0.0283" stroke-linecap="round" stroke-linejoin="round" stroke-miterlimit="10" x1="290.172" y1="350.206" x2="290.172" y2="355.281"/>
	
		<polyline fill="none" stroke="#030303" stroke-width="0.085" stroke-linecap="round" stroke-linejoin="round" stroke-miterlimit="10" points="
		315.119,350.206 315.119,355.281 310.043,355.281 310.043,350.206 315.119,350.206 	"/>
	
		<line fill="none" stroke="#030303" stroke-width="0.0283" stroke-linecap="round" stroke-linejoin="round" stroke-miterlimit="10" x1="314.471" y1="350.206" x2="314.471" y2="355.281"/>
	
		<path fill="none" stroke="#030303" stroke-width="0.085" stroke-linecap="round" stroke-linejoin="round" stroke-miterlimit="10" d="
		M291.037,434.986c-2.805,0-5.078,2.271-5.078,5.076c0,2.803,2.273,5.076,5.078,5.076c2.801,0,5.074-2.273,5.074-5.076
		C296.111,437.257,293.838,434.986,291.037,434.986z"/>
	
		<polyline fill="none" stroke="#030303" stroke-width="0.085" stroke-linecap="round" stroke-linejoin="round" stroke-miterlimit="10" points="
		299.244,432.501 301.727,436.929 297.299,439.414 294.816,434.986 299.244,432.501 	"/>
	
		<line fill="none" stroke="#030303" stroke-width="0.0283" stroke-linecap="round" stroke-linejoin="round" stroke-miterlimit="10" x1="298.701" y1="432.826" x2="301.186" y2="437.253"/>
	
		<polyline fill="none" stroke="#030303" stroke-width="0.085" stroke-linecap="round" stroke-linejoin="round" stroke-miterlimit="10" points="
		280.344,443.085 282.828,447.513 287.256,445.029 284.771,440.601 280.344,443.085 	"/>
	
		<line fill="none" stroke="#030303" stroke-width="0.0283" stroke-linecap="round" stroke-linejoin="round" stroke-miterlimit="10" x1="280.883" y1="442.761" x2="283.367" y2="447.298"/>
	
		<polyline fill="none" stroke="#030303" stroke-width="0.085" stroke-linecap="round" stroke-linejoin="round" stroke-miterlimit="10" points="
		283.475,431.853 287.902,429.371 290.494,433.798 285.957,436.281 283.475,431.853 	"/>
	
		<line fill="none" stroke="#030303" stroke-width="0.0283" stroke-linecap="round" stroke-linejoin="round" stroke-miterlimit="10" x1="283.799" y1="432.394" x2="288.227" y2="429.91"/>
	
		<polyline fill="none" stroke="#030303" stroke-width="0.085" stroke-linecap="round" stroke-linejoin="round" stroke-miterlimit="10" points="
		294.166,450.753 298.596,448.269 296.111,443.734 291.684,446.326 294.166,450.753 	"/>
	
		<line fill="none" stroke="#030303" stroke-width="0.0283" stroke-linecap="round" stroke-linejoin="round" stroke-miterlimit="10" x1="293.844" y1="450.214" x2="298.271" y2="447.621"/>
	
		<polyline fill="none" stroke="#030303" stroke-width="0.085" stroke-linecap="round" stroke-linejoin="round" stroke-miterlimit="10" points="
		297.623,480.777 292.547,480.777 292.547,513.718 297.623,513.718 297.623,480.777 	"/>
	
		<line fill="none" stroke="#030303" stroke-width="0.0283" stroke-linecap="round" stroke-linejoin="round" stroke-miterlimit="10" x1="355.512" y1="361.33" x2="355.512" y2="454.857"/>
	
		<line fill="none" stroke="#030303" stroke-width="0.0283" stroke-linecap="round" stroke-linejoin="round" stroke-miterlimit="10" x1="319.547" y1="410.792" x2="359.506" y2="410.792"/>
	
		<line fill="none" stroke="#030303" stroke-width="0.0283" stroke-linecap="round" stroke-linejoin="round" stroke-miterlimit="10" x1="319.547" y1="422.134" x2="359.506" y2="422.134"/>
	
		<line fill="none" stroke="#030303" stroke-width="0.0283" stroke-linecap="round" stroke-linejoin="round" stroke-miterlimit="10" x1="319.547" y1="433.906" x2="359.506" y2="433.906"/>
	
		<line fill="none" stroke="#030303" stroke-width="0.0283" stroke-linecap="round" stroke-linejoin="round" stroke-miterlimit="10" x1="319.547" y1="444.382" x2="359.506" y2="444.382"/>
	
		<line fill="none" stroke="#030303" stroke-width="0.0283" stroke-linecap="round" stroke-linejoin="round" stroke-miterlimit="10" x1="319.547" y1="390.49" x2="359.506" y2="390.49"/>
	<polyline fill="#030303" stroke="#030303" stroke-width="0.2551" stroke-linecap="square" stroke-miterlimit="10" points="
		319.547,387.033 319.547,390.166 318.25,390.166 318.25,387.033 315.119,387.033 315.119,385.738 318.25,385.738 318.25,382.498 
		319.547,382.498 319.547,385.738 322.785,385.738 322.785,387.033 319.547,387.033 	"/>
	
		<line fill="none" stroke="#030303" stroke-width="0.0283" stroke-linecap="round" stroke-linejoin="round" stroke-miterlimit="10" x1="322.785" y1="386.386" x2="359.506" y2="386.386"/>
	
		<line fill="none" stroke="#030303" stroke-width="0.0283" stroke-linecap="round" stroke-linejoin="round" stroke-miterlimit="10" stroke-dasharray="0.5669,1.1339" x1="275.807" y1="385.738" x2="235.846" y2="319.209"/>
	
		<line fill="none" stroke="#030303" stroke-width="0.0283" stroke-linecap="round" stroke-linejoin="round" stroke-miterlimit="10" stroke-dasharray="0.5669,1.1339" x1="235.846" y1="385.738" x2="275.807" y2="319.209"/>
	
		<line fill="none" stroke="#030303" stroke-width="0.0283" stroke-linecap="round" stroke-linejoin="round" stroke-miterlimit="10" stroke-dasharray="0.5669,1.1339" x1="319.547" y1="454.857" x2="359.506" y2="319.209"/>
	
		<line fill="none" stroke="#030303" stroke-width="0.0283" stroke-linecap="round" stroke-linejoin="round" stroke-miterlimit="10" stroke-dasharray="0.5669,1.1339" x1="359.506" y1="454.857" x2="319.547" y2="319.209"/>
	
		<path fill="none" stroke="#030303" stroke-width="0.0283" stroke-linecap="round" stroke-linejoin="round" stroke-miterlimit="10" d="
		M275.807,456.044"/>
	
		<line fill="none" stroke="#030303" stroke-width="0.0283" stroke-linecap="round" stroke-linejoin="round" stroke-miterlimit="10" stroke-dasharray="0.5669,1.1339" x1="235.846" y1="456.044" x2="275.807" y2="522.681"/>
	
		<polyline fill="none" stroke="#070707" stroke-width="0.2551" stroke-linecap="round" stroke-linejoin="round" stroke-miterlimit="10" points="
		278.291,526.462 278.291,541.798 216.623,541.798 216.623,300.093 378.623,300.093 378.623,322.557 390.178,322.557 
		390.178,379.15 378.623,379.15 378.623,541.798 317.062,541.798 317.062,526.462 	"/>
	
		<polyline fill="none" stroke="#070707" stroke-width="0.2551" stroke-linecap="round" stroke-linejoin="round" stroke-miterlimit="10" points="
		278.291,537.91 297.623,537.91 297.623,541.798 278.291,541.798 278.291,537.91 	"/>
	
		<polyline fill="none" stroke="#070707" stroke-width="0.2551" stroke-linecap="round" stroke-linejoin="round" stroke-miterlimit="10" points="
		317.062,537.91 316.09,537.91 316.09,541.798 317.062,541.798 317.062,537.91 	"/>
	
		<polyline fill="none" stroke="#070707" stroke-width="0.1984" stroke-linecap="round" stroke-linejoin="round" stroke-miterlimit="10" points="
		296.758,543.634 317.062,543.634 317.062,542.445 296.758,542.445 296.758,543.634 	"/>
	
		<line fill="none" stroke="#030303" stroke-width="0.085" stroke-linecap="round" stroke-linejoin="round" stroke-miterlimit="10" x1="320.844" y1="544.929" x2="274.512" y2="544.929"/>
	
		<line fill="none" stroke="#030303" stroke-width="0.085" stroke-linecap="round" stroke-linejoin="round" stroke-miterlimit="10" x1="320.844" y1="548.169" x2="274.512" y2="548.169"/>
	
		<line fill="none" stroke="#030303" stroke-width="0.0283" stroke-linecap="round" stroke-linejoin="round" stroke-miterlimit="10" x1="296.758" y1="542.986" x2="277.428" y2="542.986"/>
	
		<line fill="none" stroke="#030303" stroke-width="0.085" stroke-linecap="round" stroke-linejoin="round" stroke-miterlimit="10" x1="316.09" y1="541.798" x2="316.09" y2="542.445"/>
	
		<line fill="none" stroke="#030303" stroke-width="0.085" stroke-linecap="round" stroke-linejoin="round" stroke-miterlimit="10" x1="297.623" y1="541.798" x2="297.623" y2="542.445"/>
	
		<polyline fill="none" stroke="#030303" stroke-width="0.085" stroke-linecap="round" stroke-linejoin="round" stroke-miterlimit="10" points="
		320.844,541.798 320.844,551.3 274.512,551.3 274.512,541.798 	"/>
	
		<line fill="none" stroke="#030303" stroke-width="0.085" stroke-linecap="round" stroke-linejoin="round" stroke-miterlimit="10" x1="316.09" y1="537.91" x2="297.623" y2="537.91"/>
	
		<line fill="none" stroke="#030303" stroke-width="0.085" stroke-linecap="round" stroke-linejoin="round" stroke-miterlimit="10" x1="317.062" y1="522.681" x2="278.291" y2="522.681"/>
	
		<line fill="none" stroke="#030303" stroke-width="0.3402" stroke-linecap="round" stroke-linejoin="round" stroke-miterlimit="10" x1="215.434" y1="235.321" x2="379.918" y2="235.321"/>
	
		<line fill="none" stroke="#030303" stroke-width="0.1701" stroke-linecap="round" stroke-linejoin="round" stroke-miterlimit="10" x1="274.295" y1="230.244" x2="274.295" y2="235.321"/>
	
		<line fill="none" stroke="#030303" stroke-width="0.1701" stroke-linecap="round" stroke-linejoin="round" stroke-miterlimit="10" x1="321.059" y1="232.728" x2="274.295" y2="232.728"/>
	
		<polyline fill="none" stroke="#030303" stroke-width="0.1701" stroke-linecap="round" stroke-linejoin="round" stroke-miterlimit="10" points="
		274.295,230.244 321.059,230.244 321.059,235.321 	"/>
	
		<polyline fill="none" stroke="#070707" stroke-width="0.1417" stroke-linecap="round" stroke-linejoin="round" stroke-miterlimit="10" points="
		379.918,153.672 215.434,153.672 215.434,235.321 	"/>
	
		<line fill="none" stroke="#070707" stroke-width="0.1417" stroke-linecap="round" stroke-linejoin="round" stroke-miterlimit="10" x1="379.918" y1="153.672" x2="379.918" y2="235.321"/>
	
		<polyline fill="none" stroke="#070707" stroke-width="0.085" stroke-linecap="round" stroke-linejoin="round" stroke-miterlimit="10" points="
		290.928,204.648 304.428,204.648 304.428,230.244 290.928,230.244 290.928,204.648 	"/>
	
		<polyline fill="none" stroke="#070707" stroke-width="0.0283" stroke-linecap="round" stroke-linejoin="round" stroke-miterlimit="10" points="
		291.898,205.621 303.455,205.621 303.455,229.272 291.898,229.272 291.898,205.621 	"/>
	
		<polyline fill="none" stroke="#070707" stroke-width="0.085" stroke-linecap="round" stroke-linejoin="round" stroke-miterlimit="10" points="
		248.916,208.537 241.246,208.537 241.246,216.205 248.916,216.205 248.916,208.537 	"/>
	
		<polyline fill="none" stroke="#070707" stroke-width="0.085" stroke-linecap="round" stroke-linejoin="round" stroke-miterlimit="10" points="
		248.916,177.216 241.246,177.216 241.246,184.776 248.916,184.776 248.916,177.216 	"/>
	
		<line fill="none" stroke="#070707" stroke-width="0.0283" stroke-linecap="round" stroke-linejoin="round" stroke-miterlimit="10" x1="245.027" y1="208.86" x2="245.027" y2="215.772"/>
	
		<line fill="none" stroke="#070707" stroke-width="0.0283" stroke-linecap="round" stroke-linejoin="round" stroke-miterlimit="10" x1="241.678" y1="212.316" x2="248.482" y2="212.316"/>
	
		<polyline fill="none" stroke="#070707" stroke-width="0.085" stroke-linecap="round" stroke-linejoin="round" stroke-miterlimit="10" points="
		248.482,208.86 241.678,208.86 241.678,215.772 248.482,215.772 248.482,208.86 	"/>
	
		<line fill="none" stroke="#070707" stroke-width="0.0283" stroke-linecap="round" stroke-linejoin="round" stroke-miterlimit="10" x1="245.027" y1="177.541" x2="245.027" y2="184.452"/>
	
		<line fill="none" stroke="#070707" stroke-width="0.0283" stroke-linecap="round" stroke-linejoin="round" stroke-miterlimit="10" x1="241.678" y1="180.996" x2="248.482" y2="180.996"/>
	
		<polyline fill="none" stroke="#070707" stroke-width="0.085" stroke-linecap="round" stroke-linejoin="round" stroke-miterlimit="10" points="
		248.482,177.541 241.678,177.541 241.678,184.452 248.482,184.452 248.482,177.541 	"/>
	
		<polyline fill="none" stroke="#070707" stroke-width="0.085" stroke-linecap="round" stroke-linejoin="round" stroke-miterlimit="10" points="
		275.158,177.216 267.6,177.216 267.6,184.776 275.158,184.776 275.158,177.216 	"/>
	
		<line fill="none" stroke="#070707" stroke-width="0.0283" stroke-linecap="round" stroke-linejoin="round" stroke-miterlimit="10" x1="271.379" y1="177.541" x2="271.379" y2="184.452"/>
	
		<line fill="none" stroke="#070707" stroke-width="0.0283" stroke-linecap="round" stroke-linejoin="round" stroke-miterlimit="10" x1="267.922" y1="180.996" x2="274.834" y2="180.996"/>
	
		<polyline fill="none" stroke="#070707" stroke-width="0.085" stroke-linecap="round" stroke-linejoin="round" stroke-miterlimit="10" points="
		274.834,177.541 267.922,177.541 267.922,184.452 274.834,184.452 274.834,177.541 	"/>
	
		<polyline fill="none" stroke="#070707" stroke-width="0.085" stroke-linecap="round" stroke-linejoin="round" stroke-miterlimit="10" points="
		275.158,208.537 267.6,208.537 267.6,216.205 275.158,216.205 275.158,208.537 	"/>
	
		<line fill="none" stroke="#070707" stroke-width="0.0283" stroke-linecap="round" stroke-linejoin="round" stroke-miterlimit="10" x1="271.379" y1="208.86" x2="271.379" y2="215.772"/>
	
		<line fill="none" stroke="#070707" stroke-width="0.0283" stroke-linecap="round" stroke-linejoin="round" stroke-miterlimit="10" x1="267.922" y1="212.316" x2="274.834" y2="212.316"/>
	
		<polyline fill="none" stroke="#070707" stroke-width="0.085" stroke-linecap="round" stroke-linejoin="round" stroke-miterlimit="10" points="
		274.834,208.86 267.922,208.86 267.922,215.772 274.834,215.772 274.834,208.86 	"/>
	
		<polyline fill="none" stroke="#070707" stroke-width="0.085" stroke-linecap="round" stroke-linejoin="round" stroke-miterlimit="10" points="
		346.439,208.537 354.107,208.537 354.107,216.205 346.439,216.205 346.439,208.537 	"/>
	
		<polyline fill="none" stroke="#070707" stroke-width="0.085" stroke-linecap="round" stroke-linejoin="round" stroke-miterlimit="10" points="
		346.439,177.216 354.107,177.216 354.107,184.776 346.439,184.776 346.439,177.216 	"/>
	
		<line fill="none" stroke="#070707" stroke-width="0.0283" stroke-linecap="round" stroke-linejoin="round" stroke-miterlimit="10" x1="350.328" y1="208.86" x2="350.328" y2="215.772"/>
	
		<line fill="none" stroke="#070707" stroke-width="0.0283" stroke-linecap="round" stroke-linejoin="round" stroke-miterlimit="10" x1="353.674" y1="212.316" x2="346.871" y2="212.316"/>
	
		<polyline fill="none" stroke="#070707" stroke-width="0.085" stroke-linecap="round" stroke-linejoin="round" stroke-miterlimit="10" points="
		346.871,208.86 353.674,208.86 353.674,215.772 346.871,215.772 346.871,208.86 	"/>
	
		<line fill="none" stroke="#070707" stroke-width="0.0283" stroke-linecap="round" stroke-linejoin="round" stroke-miterlimit="10" x1="350.328" y1="177.541" x2="350.328" y2="184.452"/>
	
		<line fill="none" stroke="#070707" stroke-width="0.0283" stroke-linecap="round" stroke-linejoin="round" stroke-miterlimit="10" x1="353.674" y1="180.996" x2="346.871" y2="180.996"/>
	
		<polyline fill="none" stroke="#070707" stroke-width="0.085" stroke-linecap="round" stroke-linejoin="round" stroke-miterlimit="10" points="
		346.871,177.541 353.674,177.541 353.674,184.452 346.871,184.452 346.871,177.541 	"/>
	
		<polyline fill="none" stroke="#070707" stroke-width="0.085" stroke-linecap="round" stroke-linejoin="round" stroke-miterlimit="10" points="
		320.195,177.216 327.756,177.216 327.756,184.776 320.195,184.776 320.195,177.216 	"/>
	
		<line fill="none" stroke="#070707" stroke-width="0.0283" stroke-linecap="round" stroke-linejoin="round" stroke-miterlimit="10" x1="323.975" y1="177.541" x2="323.975" y2="184.452"/>
	
		<line fill="none" stroke="#070707" stroke-width="0.0283" stroke-linecap="round" stroke-linejoin="round" stroke-miterlimit="10" x1="327.43" y1="180.996" x2="320.518" y2="180.996"/>
	
		<polyline fill="none" stroke="#070707" stroke-width="0.085" stroke-linecap="round" stroke-linejoin="round" stroke-miterlimit="10" points="
		320.518,177.541 327.43,177.541 327.43,184.452 320.518,184.452 320.518,177.541 	"/>
	
		<polyline fill="none" stroke="#070707" stroke-width="0.085" stroke-linecap="round" stroke-linejoin="round" stroke-miterlimit="10" points="
		320.195,208.537 327.756,208.537 327.756,216.205 320.195,216.205 320.195,208.537 	"/>
	
		<line fill="none" stroke="#070707" stroke-width="0.0283" stroke-linecap="round" stroke-linejoin="round" stroke-miterlimit="10" x1="323.975" y1="208.86" x2="323.975" y2="215.772"/>
	
		<line fill="none" stroke="#070707" stroke-width="0.0283" stroke-linecap="round" stroke-linejoin="round" stroke-miterlimit="10" x1="327.43" y1="212.316" x2="320.518" y2="212.316"/>
	
		<polyline fill="none" stroke="#070707" stroke-width="0.085" stroke-linecap="round" stroke-linejoin="round" stroke-miterlimit="10" points="
		320.518,208.86 327.43,208.86 327.43,215.772 320.518,215.772 320.518,208.86 	"/>
	
		<polyline fill="none" stroke="#070707" stroke-width="0.085" stroke-linecap="round" stroke-linejoin="round" stroke-miterlimit="10" points="
		301.512,177.216 293.844,177.216 293.844,184.776 301.512,184.776 301.512,177.216 	"/>
	
		<line fill="none" stroke="#070707" stroke-width="0.0283" stroke-linecap="round" stroke-linejoin="round" stroke-miterlimit="10" x1="297.623" y1="177.541" x2="297.623" y2="184.452"/>
	
		<line fill="none" stroke="#070707" stroke-width="0.0283" stroke-linecap="round" stroke-linejoin="round" stroke-miterlimit="10" x1="294.273" y1="180.996" x2="301.078" y2="180.996"/>
	
		<polyline fill="none" stroke="#070707" stroke-width="0.085" stroke-linecap="round" stroke-linejoin="round" stroke-miterlimit="10" points="
		301.078,177.541 294.273,177.541 294.273,184.452 301.078,184.452 301.078,177.541 	"/>
	
		<line fill="none" stroke="#030303" stroke-width="0.0283" stroke-linecap="round" stroke-linejoin="round" stroke-miterlimit="10" stroke-dasharray="0.5669,1.1339" x1="275.807" y1="456.044" x2="235.846" y2="522.681"/>
</g>
</svg>
