<?xml version="1.0" encoding="utf-8"?>
<!-- Generator: Adobe Illustrator 15.0.2, SVG Export Plug-In . SVG Version: 6.00 Build 0)  -->
<!DOCTYPE svg PUBLIC "-//W3C//DTD SVG 1.1//EN" "http://www.w3.org/Graphics/SVG/1.1/DTD/svg11.dtd">
<svg version="1.1" xmlns="http://www.w3.org/2000/svg" xmlns:xlink="http://www.w3.org/1999/xlink" x="0px" y="0px"
	 width="595.28px" height="841.89px" viewBox="0 0 595.28 841.89" enable-background="new 0 0 595.28 841.89" xml:space="preserve">
<g id="MST">
	<g>
		<path d="M84.846,514.204c0-0.104,0.008-0.479,0-1.111c-0.008-0.271-0.04-0.447-0.192-0.447c-0.072,0-0.192,0.023-0.32,0.063
			l-0.56,0.185c-0.032,0.008-0.063,0.008-0.08-0.024l-0.064-0.144c-0.016-0.032-0.008-0.064,0.048-0.097l1.655-0.951
			c0.04-0.024,0.072-0.048,0.112-0.048c0.048,0,0.056,0.048,0.056,0.112c0,0.071-0.024,1.327-0.024,2.358v0.336
			c0,0.096,0.008,1.791,0.008,1.895c0.008,0.416,0.04,0.472,0.56,0.472h0.288c0.056,0,0.08,0.024,0.08,0.064v0.184
			c0,0.048-0.016,0.064-0.072,0.064c-0.072,0-1.16-0.024-1.231-0.024s-1.199,0.024-1.239,0.024s-0.064-0.017-0.064-0.064v-0.2
			c0-0.04,0.048-0.048,0.112-0.048h0.368c0.52,0,0.536-0.023,0.552-0.447c0.008-0.104,0.008-1.72,0.008-1.863V514.204z"/>
	</g>
	<g>
		<path d="M96.567,517.09c-0.136,0-0.28,0.008-0.4,0.016c-0.12,0.009-0.216,0.017-0.248,0.017c-0.04,0-0.064,0-0.088-0.048
			c-0.024-0.057-0.016-0.08,0.024-0.12c0.376-0.352,1.08-0.968,1.719-1.655s1.007-1.304,0.983-1.999
			c-0.024-0.712-0.456-1.136-1.031-1.127c-0.68,0.008-0.936,0.535-1.071,0.775c-0.032,0.056-0.056,0.063-0.096,0.04l-0.112-0.048
			c-0.024-0.017-0.032-0.04,0-0.112c0.128-0.312,0.52-1.199,1.599-1.199c0.671,0,1.399,0.552,1.399,1.455
			c0,0.68-0.271,1.256-0.991,2.062c-0.544,0.624-1.175,1.088-1.527,1.399h1.623c0.544,0,0.752-0.376,0.928-0.671
			c0.04-0.072,0.064-0.08,0.144-0.04c0.064,0.031,0.096,0.063,0.064,0.111l-0.52,1.247c-0.04,0.088,0.024,0.088-0.12,0.088
			c-0.072,0-0.072-0.008-0.104-0.079c-0.048-0.104-0.2-0.112-0.44-0.112H96.567z"/>
	</g>
	<g>
		<path d="M147.999,513.652c0.2-0.016,0.735,0.04,0.912,0.088c0.783,0.208,1.231,0.768,1.231,1.487
			c0.008,1.144-0.927,1.983-2.015,1.983c-0.592,0-1.04-0.216-1.04-0.448c0-0.111,0.072-0.208,0.176-0.208
			c0.144,0,0.28,0.089,0.4,0.16c0.12,0.072,0.392,0.152,0.632,0.152c0.624,0,1.247-0.528,1.247-1.231c0-0.56-0.184-1-0.704-1.224
			c-0.432-0.191-0.832-0.191-1.039-0.176c-0.048,0.008-0.088,0.016-0.144-0.016c-0.04-0.017-0.048-0.04-0.04-0.088l0.288-2.255
			c0.008-0.096,0.024-0.128,0.128-0.128h1.711c0.28,0,0.352-0.136,0.488-0.4c0.024-0.048,0.048-0.056,0.096-0.04
			c0.088,0.04,0.128,0.049,0.112,0.097l-0.288,0.799c-0.056,0.128-0.096,0.16-0.344,0.16h-1.663L147.999,513.652z"/>
	</g>
	<polyline fill="none" stroke="#010101" stroke-width="0.1" stroke-linecap="square" stroke-miterlimit="10" points="
		85.039,526.462 85.039,520.09 97.783,520.09 97.783,526.462 148.867,526.462 148.867,520.09 	"/>
</g>
<g id="HAUS_OHNE_EIGENSCHAFTEN">
	<g>
		<path d="M29.536,31.537c0-0.62-0.02-1.969-0.02-2.109c0-0.509-0.07-0.649-0.34-0.649h-0.41c-0.11,0-0.12-0.04-0.12-0.1v-0.19
			c0-0.06,0.01-0.12,0.11-0.12c0.17,0,0.49,0.03,1.489,0.03c0.979,0,1.339-0.03,1.509-0.03c0.11,0,0.12,0.03,0.12,0.11v0.21
			c0,0.06-0.01,0.09-0.12,0.09h-0.24c-0.36,0-0.41,0.17-0.44,0.55c-0.01,0.14-0.06,1.459-0.06,2.019v0.15
			c0,0.05,0.03,0.08,0.16,0.08h2.988c0.15,0,0.2-0.02,0.2-0.13v-0.1c0-0.569-0.07-1.958-0.07-2.059c-0.01-0.32-0.05-0.51-0.23-0.51
			h-0.41c-0.09,0-0.1-0.03-0.1-0.1v-0.22c0-0.06,0.01-0.09,0.09-0.09c0.18,0,0.61,0.03,1.459,0.03c0.83,0,1.249-0.03,1.379-0.03
			c0.12,0,0.13,0.03,0.13,0.11v0.19c0,0.07-0.01,0.11-0.13,0.11h-0.3c-0.29,0-0.32,0.17-0.32,0.51c0,0.14-0.02,1.829-0.02,2.199
			v0.34c0,0.32,0.02,2.219,0.03,2.769c0,0.36,0.1,0.5,0.4,0.5h0.34c0.08,0,0.09,0.03,0.09,0.09v0.22c0,0.05-0.01,0.1-0.11,0.1
			c-0.16,0-0.5-0.03-1.399-0.03c-1.02,0-1.339,0.03-1.569,0.03c-0.11,0-0.13-0.05-0.13-0.1v-0.22c0-0.06,0.01-0.09,0.11-0.09h0.439
			c0.24,0,0.27-0.19,0.28-0.439c0.02-0.47,0.04-2.079,0.04-2.399v-0.12c0-0.11-0.1-0.12-0.22-0.12h-2.988
			c-0.11,0-0.14,0.03-0.14,0.12v0.15c0,0.25,0.04,1.789,0.07,2.469c0.01,0.24,0.11,0.34,0.33,0.34h0.28c0.08,0,0.09,0.02,0.09,0.08
			v0.24c0,0.06-0.01,0.09-0.09,0.09c-0.18,0-0.53-0.03-1.369-0.03c-1.06,0-1.359,0.03-1.559,0.03c-0.09,0-0.1-0.03-0.1-0.11v-0.21
			c0-0.07,0.01-0.09,0.1-0.09h0.459c0.25,0,0.28-0.24,0.28-0.459c0.01-0.47,0.03-2.409,0.03-2.669V31.537z"/>
		<path d="M39.575,32.286c0-0.2-0.02-0.43-0.15-0.549c-0.1-0.09-0.26-0.12-0.42-0.12c-0.18,0-0.35,0.04-0.53,0.16
			c-0.15,0.1-0.03,0.27-0.03,0.589c0,0.34-0.25,0.57-0.649,0.57c-0.23,0-0.43-0.14-0.43-0.36s0.07-0.52,0.28-0.7
			c0.419-0.38,1.109-0.739,1.919-0.739c0.64,0,0.81,0.1,1.019,0.29c0.22,0.2,0.28,0.49,0.28,0.85l0.02,1.989
			c0.01,0.52,0.04,0.68,0.23,0.68c0.14,0,0.25-0.11,0.29-0.18c0.04-0.06,0.07-0.07,0.1-0.05l0.14,0.08
			c0.04,0.02,0.07,0.05,0.03,0.14c-0.09,0.21-0.39,0.68-1.009,0.68c-0.39,0-0.759-0.14-0.949-0.61h-0.05
			c-0.25,0.23-0.459,0.37-0.859,0.52c-0.2,0.07-0.43,0.09-0.72,0.09c-0.35,0-0.66-0.38-0.66-0.92c0-0.439,0.21-0.899,0.86-1.219
			c0.779-0.37,1.029-0.479,1.289-0.66V32.286z M39.585,33.216c-0.49,0.28-0.9,0.43-0.9,1.12c0,0.459,0.21,0.649,0.43,0.659
			c0.27-0.02,0.47-0.27,0.47-0.359V33.216z"/>
		<path d="M45.524,35.575c-0.06,0.02-0.13,0.04-0.22,0.04c-0.1,0-0.16-0.05-0.17-0.12l-0.06-0.54h-0.06
			c-0.2,0.35-0.779,0.66-1.319,0.66c-0.399,0-0.699,0-1.049-0.46c-0.419-0.56-0.38-0.879-0.38-1.739l0.01-0.439
			c0-0.38,0-0.78-0.01-1c-0.01-0.24-0.22-0.33-0.34-0.35c-0.169-0.03-0.22-0.02-0.22-0.07v-0.2c0-0.06,0.02-0.08,0.11-0.08h1.459
			c0.06,0,0.1-0.01,0.14-0.02c0.04,0,0.08-0.01,0.11-0.01c0.07,0,0.12,0.05,0.11,0.12c-0.01,0.09-0.04,0.56-0.04,1.35v0.54
			c0,0.4-0.06,1.149,0.19,1.539c0.15,0.23,0.31,0.21,0.49,0.21c0.17,0,0.39-0.13,0.54-0.32c0.09-0.1,0.16-0.26,0.16-0.36
			l-0.01-2.349c0-0.25-0.18-0.33-0.43-0.35c-0.12-0.01-0.17-0.02-0.17-0.07v-0.19c0-0.08,0.02-0.09,0.12-0.09h1.489
			c0.07,0,0.12-0.01,0.17-0.02c0.05,0,0.09-0.01,0.12-0.01c0.06,0,0.1,0.05,0.09,0.1c-0.01,0.09-0.06,0.35-0.06,1.359v0.74
			c0,0.479,0,0.969,0.02,1.149c0.03,0.31,0.14,0.35,0.18,0.35c0.06,0,0.21,0,0.33-0.03c0.08-0.02,0.11,0,0.12,0.04l0.03,0.19
			c0.01,0.05-0.01,0.07-0.05,0.08L45.524,35.575z"/>
		<path d="M50.484,32.276c0.01,0.05,0,0.07-0.04,0.09l-0.18,0.08c-0.03,0.02-0.06,0.01-0.1-0.03l-0.56-0.6
			c-0.13-0.13-0.32-0.29-0.62-0.29s-0.59,0.2-0.59,0.54c0.02,0.35,0.14,0.45,0.88,0.65c0.49,0.13,0.729,0.2,1.029,0.52
			c0.26,0.26,0.32,0.5,0.32,0.85c0,0.89-0.7,1.529-1.789,1.529c-0.56,0-1.049-0.2-1.169-0.29c-0.04-0.03-0.05-0.07-0.06-0.13
			l-0.13-0.959c0-0.05,0.03-0.07,0.07-0.08l0.18-0.05c0.03-0.01,0.05,0,0.07,0.04l0.4,0.589c0.18,0.26,0.41,0.51,0.87,0.51
			c0.37,0,0.589-0.26,0.589-0.609c0-0.4-0.29-0.53-0.939-0.73c-0.709-0.209-1.219-0.549-1.219-1.269c0-0.47,0.14-0.859,0.52-1.14
			c0.399-0.29,0.679-0.359,1.099-0.359c0.54,0,0.87,0.12,1.049,0.209c0.15,0.07,0.17,0.12,0.18,0.19L50.484,32.276z"/>
		<path d="M53.776,34.885c-0.38-0.419-0.53-0.949-0.53-1.579c0-0.45,0.25-1.189,0.859-1.659c0.51-0.399,1.02-0.509,1.489-0.509
			c0.69,0,1.16,0.209,1.609,0.629c0.49,0.44,0.689,0.979,0.689,1.589c0,0.58-0.25,1.139-0.64,1.559c-0.479,0.5-1.06,0.7-1.739,0.7
			C54.785,35.615,54.286,35.465,53.776,34.885z M56.375,33.286c0-1.159-0.4-1.729-0.84-1.729c-0.25,0-0.41,0.07-0.54,0.27
			c-0.2,0.31-0.33,0.74-0.33,1.549c0,0.58,0.05,0.959,0.25,1.389c0.13,0.27,0.29,0.43,0.66,0.43
			C56.125,35.195,56.375,34.385,56.375,33.286z"/>
		<path d="M60.215,34.715c0,0.3,0.06,0.41,0.15,0.41h0.2c0.05,0,0.08,0.02,0.08,0.08v0.19c0,0.07-0.01,0.11-0.07,0.11
			c-0.08,0-0.54-0.03-1.129-0.03c-0.7,0-1.08,0.03-1.169,0.03c-0.04,0-0.07-0.03-0.07-0.1v-0.2c0-0.07,0.04-0.08,0.15-0.08h0.16
			c0.16,0,0.31-0.04,0.34-0.17c0.05-0.18,0.05-0.36,0.05-0.66l-0.02-4.158c0-0.5-0.13-0.79-0.47-0.919l-0.18-0.06
			c-0.06-0.03-0.08-0.06-0.08-0.09v-0.13c0-0.04,0.03-0.08,0.17-0.12c0.55-0.16,0.91-0.32,1.509-0.61c0.13-0.06,0.21-0.1,0.31-0.1
			c0.09,0,0.11,0.08,0.09,0.25s-0.03,2.199-0.03,2.789v0.6h0.07c0.24-0.38,0.729-0.609,1.279-0.609c0.45,0,0.709,0.13,1.02,0.39
			c0.47,0.39,0.43,0.89,0.43,1.529v0.62c0,0.5-0.02,1.109-0.02,1.299c0,0.14,0.2,0.15,0.32,0.15h0.19c0.08,0,0.11,0.02,0.11,0.07
			v0.21c0,0.06-0.02,0.1-0.08,0.1c-0.07,0-0.39-0.03-1.089-0.03c-0.689,0-1.049,0.03-1.139,0.03c-0.07,0-0.09-0.03-0.09-0.11v-0.19
			c0-0.05,0.01-0.08,0.07-0.08h0.13c0.09,0,0.22-0.05,0.24-0.19c0.01-0.14,0.03-0.67,0.03-0.97v-0.609
			c0-0.49,0.03-1.189-0.229-1.449c-0.14-0.14-0.26-0.19-0.47-0.19c-0.22,0-0.44,0.18-0.59,0.35c-0.08,0.1-0.17,0.23-0.17,0.49
			V34.715z"/>
		<path d="M65.845,31.687h0.08c0.11-0.13,0.29-0.26,0.48-0.36c0.22-0.12,0.439-0.189,0.77-0.189c0.39,0,0.77,0.04,1.029,0.28
			c0.42,0.39,0.45,0.64,0.45,1.139v1.06c0,0.34-0.02,0.81-0.04,1.159c-0.01,0.3,0.15,0.35,0.24,0.35h0.27
			c0.09,0,0.11,0.03,0.11,0.09v0.18c0,0.07-0.02,0.11-0.08,0.11c-0.07,0-0.38-0.03-1.18-0.03c-0.66,0-0.979,0.03-1.049,0.03
			c-0.06,0-0.08-0.03-0.08-0.11v-0.18c0-0.07,0.03-0.09,0.13-0.09h0.11c0.07,0,0.16-0.05,0.18-0.23c0.04-0.26,0.06-0.58,0.06-1.04
			v-1.069c0-0.38-0.03-0.64-0.24-0.83c-0.18-0.16-0.32-0.18-0.49-0.18c-0.18,0-0.31,0.05-0.51,0.2c-0.12,0.09-0.2,0.36-0.2,0.77
			l-0.02,2.049c0,0.18,0.07,0.33,0.16,0.33h0.13c0.08,0,0.1,0.03,0.1,0.1v0.19c0,0.06-0.02,0.09-0.07,0.09c-0.07,0-0.34-0.03-1-0.03
			c-0.709,0-1.029,0.03-1.089,0.03c-0.05,0-0.07-0.03-0.07-0.09v-0.2c0-0.06,0.02-0.09,0.1-0.09h0.15c0.11,0,0.28-0.03,0.28-0.2
			v-2.219c0-0.3-0.17-0.47-0.4-0.58l-0.09-0.04c-0.06-0.03-0.07-0.07-0.07-0.11v-0.09c0-0.05,0.04-0.08,0.09-0.1l1.279-0.58
			c0.08-0.03,0.15-0.07,0.23-0.07c0.06,0,0.12,0.05,0.14,0.12L65.845,31.687z"/>
		<path d="M70.996,32.986v0.27c0,1.04,0.59,1.549,1.319,1.549c0.49,0,0.89-0.23,1.089-0.55c0.02-0.05,0.06-0.06,0.1-0.03l0.17,0.09
			c0.04,0.02,0.07,0.07-0.02,0.24c-0.18,0.37-0.83,1.06-1.769,1.06c-0.64,0-1.169-0.11-1.5-0.47c-0.51-0.55-0.679-0.94-0.689-1.719
			c0-0.28,0-0.81,0.45-1.469c0.36-0.53,0.97-0.819,1.739-0.819c1.619,0,1.709,1.549,1.709,1.709c0,0.13-0.09,0.14-0.31,0.14H70.996z
			 M71.965,32.606c0.22,0,0.32-0.05,0.32-0.2c0-0.44-0.18-0.87-0.49-0.87c-0.47,0-0.719,0.37-0.79,1.069H71.965z"/>
		<path d="M78.645,31.646c0.46,0,0.9-0.03,1.02-0.06c0.17-0.04,0.31-0.13,0.46-0.31c0.11-0.15,0.23-0.43,0.23-0.62
			c0-0.07,0.03-0.09,0.08-0.09l0.27,0.03c0.05,0.01,0.09,0.02,0.08,0.08c-0.03,0.17-0.03,0.689-0.03,1.04
			c0,0.45,0.04,0.929,0.06,1.139c0.01,0.06-0.03,0.07-0.08,0.08l-0.24,0.05c-0.04,0.01-0.06-0.01-0.08-0.08
			c-0.04-0.16-0.14-0.39-0.2-0.51c-0.11-0.19-0.35-0.32-0.55-0.35c-0.27-0.04-0.58-0.06-1.02-0.06v0.6c0,0.54,0.05,1.509,0.05,1.689
			c0,0.52,0.11,0.7,0.24,0.759c0.15,0.06,0.34,0.09,0.839,0.09c0.17,0,0.59-0.01,0.8-0.03c0.2-0.02,0.5-0.12,0.76-0.33
			c0.26-0.21,0.819-0.83,1.019-1.069c0.04-0.04,0.07-0.05,0.1-0.03l0.17,0.1c0.04,0.02,0.05,0.05,0.04,0.08l-0.45,1.509
			c-0.03,0.09-0.1,0.15-0.22,0.15c-0.05,0-0.27-0.01-0.909-0.02c-0.65,0-1.709-0.01-3.438-0.01c-0.37,0-0.65,0.01-0.85,0.01
			c-0.21,0.01-0.34,0.02-0.43,0.02c-0.07,0-0.09-0.03-0.09-0.11v-0.21c0-0.06,0.03-0.09,0.1-0.09h0.3c0.46,0,0.5-0.07,0.5-0.419
			v-3.349c0-0.829-0.02-2.059-0.03-2.159c-0.04-0.32-0.14-0.39-0.41-0.39h-0.39c-0.04,0-0.05-0.03-0.05-0.1v-0.24
			c0-0.03,0.01-0.07,0.07-0.07c0.22,0,0.569,0.03,1.479,0.03l3.508-0.01c0.16,0,0.35-0.02,0.4-0.02c0.05,0,0.07,0.02,0.08,0.05
			c0.04,0.14,0.37,1.509,0.41,1.609c0.02,0.05,0.02,0.07-0.03,0.1l-0.16,0.08c-0.04,0.02-0.09,0.01-0.12-0.04
			c-0.05-0.08-0.95-0.979-1.18-1.119c-0.209-0.13-0.49-0.26-0.759-0.27l-1.319-0.04L78.645,31.646z"/>
		<path d="M85.555,35.504c-0.08,0-0.54-0.03-1.41-0.03c-0.58,0-0.969,0.03-1.079,0.03c-0.05,0-0.08-0.02-0.08-0.1v-0.2
			c0-0.06,0.03-0.08,0.1-0.08h0.37c0.11,0,0.18-0.04,0.19-0.2c0.02-0.3,0.02-0.609,0.02-0.889l-0.02-1.399
			c0-0.28-0.06-0.48-0.479-0.63c-0.11-0.04-0.12-0.08-0.12-0.14v-0.11c0-0.03,0.02-0.05,0.11-0.08l1.489-0.48
			c0.11-0.04,0.2-0.06,0.27-0.06c0.08,0,0.11,0.05,0.1,0.12c-0.02,0.17-0.02,0.8-0.02,1.679v1.069c0,0.39,0,0.75,0.01,0.859
			c0.02,0.19,0.07,0.26,0.18,0.26h0.36c0.08,0,0.1,0.03,0.1,0.09v0.19C85.645,35.475,85.625,35.504,85.555,35.504z M84.185,30.348
			c-0.399,0.01-0.699-0.26-0.699-0.65c0-0.32,0.33-0.61,0.75-0.61c0.47,0,0.709,0.3,0.709,0.58
			C84.945,29.988,84.725,30.337,84.185,30.348z"/>
		<path d="M86.315,37.883c-0.37-0.21-0.49-0.47-0.49-0.78c0-0.5,0.56-0.859,1.03-1.049v-0.05c-0.46-0.14-0.69-0.45-0.69-0.8
			c0-0.58,0.56-0.899,0.89-1.059v-0.03c-0.43-0.25-0.879-0.669-0.879-1.519c0-0.649,0.52-1.459,1.939-1.459
			c0.879,0,1.319,0.459,1.409,0.56c0.23-0.19,0.6-0.35,0.879-0.35c0.36,0,0.55,0.2,0.55,0.52c0,0.23-0.21,0.43-0.44,0.43
			c-0.17,0-0.25-0.07-0.31-0.17c-0.05-0.08-0.17-0.15-0.28-0.15c-0.05,0-0.14,0.04-0.189,0.09c0.04,0.07,0.12,0.29,0.12,0.65
			c0,0.379-0.11,0.75-0.45,1.079c-0.38,0.36-0.949,0.48-1.349,0.48c-0.2,0-0.34,0-0.59-0.03c-0.13,0.08-0.37,0.26-0.37,0.46
			c0,0.35,0.29,0.38,1.369,0.35c0.68-0.02,1.189,0.02,1.679,0.4c0.36,0.29,0.49,0.64,0.49,1.009c0,0.42-0.19,0.78-0.58,1.109
			c-0.37,0.3-1.129,0.62-2.139,0.62C87.435,38.193,86.706,38.113,86.315,37.883z M89.564,36.954c0-0.549-0.39-0.849-1.299-0.81
			l-0.87,0.04c-0.29,0.07-0.5,0.38-0.5,0.68c0,0.29,0.16,0.54,0.35,0.68c0.28,0.2,0.56,0.26,1.009,0.26
			C88.914,37.803,89.564,37.454,89.564,36.954z M87.575,31.836c-0.14,0.2-0.2,0.66-0.2,1.109c0,0.29,0.09,0.61,0.22,0.76
			c0.11,0.14,0.26,0.2,0.46,0.2c0.439,0,0.589-0.669,0.589-1.439c0-0.37-0.04-0.58-0.09-0.67c-0.09-0.169-0.21-0.28-0.49-0.28
			C87.845,31.517,87.715,31.637,87.575,31.836z"/>
		<path d="M92.325,32.986v0.27c0,1.04,0.59,1.549,1.319,1.549c0.49,0,0.89-0.23,1.089-0.55c0.02-0.05,0.06-0.06,0.1-0.03l0.17,0.09
			c0.04,0.02,0.07,0.07-0.02,0.24c-0.18,0.37-0.83,1.06-1.769,1.06c-0.64,0-1.169-0.11-1.5-0.47c-0.51-0.55-0.679-0.94-0.689-1.719
			c0-0.28,0-0.81,0.45-1.469c0.36-0.53,0.97-0.819,1.739-0.819c1.619,0,1.709,1.549,1.709,1.709c0,0.13-0.09,0.14-0.31,0.14H92.325z
			 M93.294,32.606c0.22,0,0.32-0.05,0.32-0.2c0-0.44-0.18-0.87-0.49-0.87c-0.47,0-0.719,0.37-0.79,1.069H93.294z"/>
		<path d="M97.334,31.687h0.08c0.11-0.13,0.29-0.26,0.48-0.36c0.22-0.12,0.439-0.189,0.77-0.189c0.39,0,0.77,0.04,1.029,0.28
			c0.42,0.39,0.45,0.64,0.45,1.139v1.06c0,0.34-0.02,0.81-0.04,1.159c-0.01,0.3,0.15,0.35,0.24,0.35h0.27
			c0.09,0,0.11,0.03,0.11,0.09v0.18c0,0.07-0.02,0.11-0.08,0.11c-0.07,0-0.38-0.03-1.18-0.03c-0.66,0-0.979,0.03-1.049,0.03
			c-0.06,0-0.08-0.03-0.08-0.11v-0.18c0-0.07,0.03-0.09,0.13-0.09h0.11c0.07,0,0.16-0.05,0.18-0.23c0.04-0.26,0.06-0.58,0.06-1.04
			v-1.069c0-0.38-0.03-0.64-0.24-0.83c-0.18-0.16-0.32-0.18-0.49-0.18c-0.18,0-0.31,0.05-0.51,0.2c-0.12,0.09-0.2,0.36-0.2,0.77
			l-0.02,2.049c0,0.18,0.07,0.33,0.16,0.33h0.13c0.08,0,0.1,0.03,0.1,0.1v0.19c0,0.06-0.02,0.09-0.07,0.09
			c-0.07,0-0.34-0.03-0.999-0.03c-0.71,0-1.03,0.03-1.09,0.03c-0.05,0-0.07-0.03-0.07-0.09v-0.2c0-0.06,0.02-0.09,0.1-0.09h0.15
			c0.11,0,0.28-0.03,0.28-0.2v-2.219c0-0.3-0.17-0.47-0.4-0.58l-0.09-0.04c-0.06-0.03-0.07-0.07-0.07-0.11v-0.09
			c0-0.05,0.04-0.08,0.09-0.1l1.279-0.58c0.08-0.03,0.15-0.07,0.23-0.07c0.06,0,0.12,0.05,0.14,0.12L97.334,31.687z"/>
		<path d="M104.303,32.276c0.01,0.05,0,0.07-0.04,0.09l-0.18,0.08c-0.03,0.02-0.06,0.01-0.1-0.03l-0.56-0.6
			c-0.13-0.13-0.32-0.29-0.62-0.29s-0.59,0.2-0.59,0.54c0.02,0.35,0.14,0.45,0.88,0.65c0.49,0.13,0.729,0.2,1.029,0.52
			c0.26,0.26,0.32,0.5,0.32,0.85c0,0.89-0.7,1.529-1.789,1.529c-0.56,0-1.049-0.2-1.169-0.29c-0.04-0.03-0.05-0.07-0.06-0.13
			l-0.13-0.959c0-0.05,0.03-0.07,0.07-0.08l0.18-0.05c0.03-0.01,0.05,0,0.07,0.04l0.4,0.589c0.18,0.26,0.41,0.51,0.87,0.51
			c0.37,0,0.589-0.26,0.589-0.609c0-0.4-0.29-0.53-0.939-0.73c-0.709-0.209-1.219-0.549-1.219-1.269c0-0.47,0.14-0.859,0.52-1.14
			c0.399-0.29,0.679-0.359,1.099-0.359c0.54,0,0.87,0.12,1.049,0.209c0.15,0.07,0.17,0.12,0.18,0.19L104.303,32.276z"/>
		<path d="M108.893,32.106c0,0.28-0.2,0.47-0.52,0.47c-0.419,0-0.64-0.28-0.72-0.53c-0.12-0.36-0.31-0.479-0.589-0.479
			c-0.27,0-0.66,0.39-0.66,1.02c0,0.629-0.02,1.079,0.32,1.699c0.25,0.45,0.62,0.58,1.069,0.58c0.46,0,0.68-0.09,1-0.32
			c0.05-0.03,0.08-0.05,0.11-0.01l0.14,0.14c0.03,0.04,0.02,0.08-0.01,0.13c-0.19,0.33-0.969,0.81-1.889,0.81
			c-0.75,0-1.25-0.21-1.569-0.61c-0.39-0.48-0.51-0.87-0.51-1.379c0-0.68,0.22-1.409,0.75-1.899c0.45-0.41,0.939-0.589,1.479-0.589
			C108.603,31.137,108.893,31.796,108.893,32.106z"/>
		<path d="M111.244,34.715c0,0.3,0.06,0.41,0.15,0.41h0.2c0.05,0,0.08,0.02,0.08,0.08v0.19c0,0.07-0.01,0.11-0.07,0.11
			c-0.08,0-0.54-0.03-1.129-0.03c-0.7,0-1.08,0.03-1.169,0.03c-0.04,0-0.07-0.03-0.07-0.1v-0.2c0-0.07,0.04-0.08,0.15-0.08h0.16
			c0.16,0,0.31-0.04,0.34-0.17c0.05-0.18,0.05-0.36,0.05-0.66l-0.02-4.158c0-0.5-0.13-0.79-0.47-0.919l-0.18-0.06
			c-0.06-0.03-0.08-0.06-0.08-0.09v-0.13c0-0.04,0.03-0.08,0.17-0.12c0.55-0.16,0.91-0.32,1.509-0.61c0.13-0.06,0.21-0.1,0.31-0.1
			c0.09,0,0.11,0.08,0.09,0.25s-0.03,2.199-0.03,2.789v0.6h0.07c0.24-0.38,0.729-0.609,1.279-0.609c0.45,0,0.709,0.13,1.02,0.39
			c0.47,0.39,0.43,0.89,0.43,1.529v0.62c0,0.5-0.02,1.109-0.02,1.299c0,0.14,0.2,0.15,0.32,0.15h0.19c0.08,0,0.11,0.02,0.11,0.07
			v0.21c0,0.06-0.02,0.1-0.08,0.1c-0.07,0-0.39-0.03-1.089-0.03c-0.689,0-1.049,0.03-1.139,0.03c-0.07,0-0.09-0.03-0.09-0.11v-0.19
			c0-0.05,0.01-0.08,0.07-0.08h0.13c0.09,0,0.22-0.05,0.24-0.19c0.01-0.14,0.03-0.67,0.03-0.97v-0.609
			c0-0.49,0.03-1.189-0.229-1.449c-0.14-0.14-0.26-0.19-0.47-0.19c-0.22,0-0.44,0.18-0.59,0.35c-0.08,0.1-0.17,0.23-0.17,0.49
			V34.715z"/>
		<path d="M117.314,32.286c0-0.2-0.02-0.43-0.15-0.549c-0.1-0.09-0.26-0.12-0.42-0.12c-0.18,0-0.35,0.04-0.529,0.16
			c-0.15,0.1-0.03,0.27-0.03,0.589c0,0.34-0.25,0.57-0.649,0.57c-0.23,0-0.43-0.14-0.43-0.36s0.07-0.52,0.28-0.7
			c0.419-0.38,1.109-0.739,1.919-0.739c0.64,0,0.81,0.1,1.019,0.29c0.22,0.2,0.28,0.49,0.28,0.85l0.02,1.989
			c0.01,0.52,0.04,0.68,0.23,0.68c0.14,0,0.25-0.11,0.29-0.18c0.04-0.06,0.07-0.07,0.1-0.05l0.14,0.08
			c0.04,0.02,0.07,0.05,0.03,0.14c-0.09,0.21-0.39,0.68-1.01,0.68c-0.39,0-0.759-0.14-0.949-0.61h-0.05
			c-0.25,0.23-0.459,0.37-0.859,0.52c-0.2,0.07-0.43,0.09-0.72,0.09c-0.35,0-0.66-0.38-0.66-0.92c0-0.439,0.21-0.899,0.86-1.219
			c0.779-0.37,1.029-0.479,1.289-0.66V32.286z M117.324,33.216c-0.49,0.28-0.9,0.43-0.9,1.12c0,0.459,0.21,0.649,0.43,0.659
			c0.27-0.02,0.47-0.27,0.47-0.359V33.216z"/>
		<path d="M121.544,31.807v0.87c0,0.479-0.03,1.749-0.01,2.139c0.01,0.22,0.13,0.31,0.29,0.31h0.36c0.09,0,0.11,0.02,0.11,0.08v0.2
			c0,0.06-0.02,0.1-0.07,0.1c-0.06,0-0.43-0.03-1.399-0.03c-0.65,0-1.16,0.03-1.239,0.03c-0.06,0-0.08-0.02-0.08-0.09v-0.22
			c0-0.05,0.02-0.07,0.1-0.07h0.33c0.19,0,0.27-0.12,0.27-0.33l-0.03-2.988h-0.64c-0.05,0-0.07-0.02-0.06-0.11l0.05-0.35
			c0.01-0.06,0.04-0.07,0.12-0.07h0.529v-0.3c0-1.049,0.33-1.699,0.84-2.179c0.54-0.5,1.069-0.689,1.689-0.689
			c0.59,0,1.029,0.24,1.029,0.699c0,0.31-0.32,0.5-0.55,0.5c-0.32,0-0.52-0.12-0.669-0.38c-0.12-0.2-0.26-0.3-0.36-0.3
			c-0.2,0-0.34,0.06-0.5,0.32c-0.18,0.28-0.11,0.989-0.11,1.909v0.42h1.159c0.07,0,0.08,0.06,0.07,0.1l-0.05,0.38
			c-0.01,0.04-0.05,0.05-0.13,0.05H121.544z"/>
		<path d="M124.884,34.016c0,0.819,0.31,0.999,0.55,0.999c0.21,0,0.36-0.03,0.52-0.12c0.03-0.02,0.06-0.02,0.09,0.04l0.07,0.15
			c0.03,0.05,0,0.1-0.04,0.13c-0.17,0.12-0.62,0.4-1.399,0.4c-0.68,0-1.109-0.47-1.109-0.93c0-0.35,0.02-1.109,0.02-1.489
			l0.01-1.319h-0.55c-0.09,0-0.16-0.04-0.16-0.14c0-0.1,0.06-0.17,0.22-0.25c0.33-0.15,1.169-0.899,1.539-1.319
			c0.07-0.08,0.14-0.1,0.19-0.1c0.09,0,0.13,0.07,0.13,0.15l-0.04,1.06h1.269c0.06,0,0.09,0.05,0.07,0.09l-0.1,0.43
			c-0.01,0.04-0.03,0.08-0.09,0.08h-1.169c-0.02,0.41-0.02,0.89-0.02,1.35V34.016z"/>
		<path d="M127.804,32.986v0.27c0,1.04,0.59,1.549,1.319,1.549c0.49,0,0.89-0.23,1.089-0.55c0.02-0.05,0.06-0.06,0.1-0.03l0.17,0.09
			c0.04,0.02,0.07,0.07-0.02,0.24c-0.18,0.37-0.83,1.06-1.769,1.06c-0.64,0-1.169-0.11-1.5-0.47c-0.509-0.55-0.679-0.94-0.689-1.719
			c0-0.28,0-0.81,0.45-1.469c0.36-0.53,0.97-0.819,1.739-0.819c1.619,0,1.709,1.549,1.709,1.709c0,0.13-0.09,0.14-0.31,0.14H127.804
			z M128.773,32.606c0.22,0,0.32-0.05,0.32-0.2c0-0.44-0.18-0.87-0.489-0.87c-0.47,0-0.72,0.37-0.79,1.069H128.773z"/>
		<path d="M132.813,31.687h0.08c0.11-0.13,0.29-0.26,0.48-0.36c0.22-0.12,0.439-0.189,0.77-0.189c0.39,0,0.77,0.04,1.029,0.28
			c0.42,0.39,0.45,0.64,0.45,1.139v1.06c0,0.34-0.02,0.81-0.04,1.159c-0.01,0.3,0.15,0.35,0.24,0.35h0.27
			c0.09,0,0.11,0.03,0.11,0.09v0.18c0,0.07-0.02,0.11-0.08,0.11c-0.07,0-0.38-0.03-1.18-0.03c-0.66,0-0.979,0.03-1.049,0.03
			c-0.06,0-0.08-0.03-0.08-0.11v-0.18c0-0.07,0.03-0.09,0.13-0.09h0.11c0.07,0,0.16-0.05,0.18-0.23c0.04-0.26,0.06-0.58,0.06-1.04
			v-1.069c0-0.38-0.03-0.64-0.24-0.83c-0.18-0.16-0.32-0.18-0.49-0.18c-0.18,0-0.31,0.05-0.51,0.2c-0.12,0.09-0.2,0.36-0.2,0.77
			l-0.02,2.049c0,0.18,0.07,0.33,0.16,0.33h0.13c0.08,0,0.1,0.03,0.1,0.1v0.19c0,0.06-0.02,0.09-0.07,0.09c-0.07,0-0.34-0.03-1-0.03
			c-0.709,0-1.029,0.03-1.089,0.03c-0.05,0-0.07-0.03-0.07-0.09v-0.2c0-0.06,0.02-0.09,0.1-0.09h0.15c0.11,0,0.28-0.03,0.28-0.2
			v-2.219c0-0.3-0.17-0.47-0.4-0.58l-0.09-0.04c-0.06-0.03-0.07-0.07-0.07-0.11v-0.09c0-0.05,0.04-0.08,0.09-0.1l1.279-0.58
			c0.08-0.03,0.15-0.07,0.23-0.07c0.06,0,0.12,0.05,0.14,0.12L132.813,31.687z"/>
	</g>
</g>
<g id="Layer_4">
	
		<line fill="none" stroke="#030303" stroke-width="0.0283" stroke-linecap="round" stroke-linejoin="round" stroke-miterlimit="10" x1="275.714" y1="490.929" x2="235.755" y2="490.929"/>
	
		<line fill="none" stroke="#030303" stroke-width="0.0283" stroke-linecap="round" stroke-linejoin="round" stroke-miterlimit="10" x1="275.714" y1="470.085" x2="235.755" y2="470.085"/>
	
		<line fill="none" stroke="#030303" stroke-width="0.0283" stroke-linecap="round" stroke-linejoin="round" stroke-miterlimit="10" x1="239.749" y1="522.681" x2="239.749" y2="456.044"/>
	
		<line fill="none" stroke="#030303" stroke-width="0.0283" stroke-linecap="round" stroke-linejoin="round" stroke-miterlimit="10" x1="243.745" y1="522.681" x2="243.745" y2="456.044"/>
	
		<line fill="none" stroke="#030303" stroke-width="0.0283" stroke-linecap="round" stroke-linejoin="round" stroke-miterlimit="10" x1="247.743" y1="522.681" x2="247.743" y2="456.044"/>
	
		<line fill="none" stroke="#030303" stroke-width="0.0283" stroke-linecap="round" stroke-linejoin="round" stroke-miterlimit="10" x1="255.733" y1="522.681" x2="255.733" y2="456.044"/>
	
		<line fill="none" stroke="#030303" stroke-width="0.0283" stroke-linecap="round" stroke-linejoin="round" stroke-miterlimit="10" x1="251.737" y1="522.681" x2="251.737" y2="456.044"/>
	
		<line fill="none" stroke="#030303" stroke-width="0.0283" stroke-linecap="round" stroke-linejoin="round" stroke-miterlimit="10" x1="271.718" y1="522.681" x2="271.718" y2="456.044"/>
	
		<line fill="none" stroke="#030303" stroke-width="0.0283" stroke-linecap="round" stroke-linejoin="round" stroke-miterlimit="10" x1="267.722" y1="522.681" x2="267.722" y2="456.044"/>
	
		<line fill="none" stroke="#030303" stroke-width="0.0283" stroke-linecap="round" stroke-linejoin="round" stroke-miterlimit="10" x1="263.726" y1="522.681" x2="263.726" y2="456.044"/>
	
		<line fill="none" stroke="#030303" stroke-width="0.0283" stroke-linecap="round" stroke-linejoin="round" stroke-miterlimit="10" x1="259.731" y1="522.681" x2="259.731" y2="456.044"/>
	
		<line fill="none" stroke="#030303" stroke-width="0.0283" stroke-linecap="round" stroke-linejoin="round" stroke-miterlimit="10" x1="275.714" y1="511.882" x2="235.755" y2="511.882"/>
	
		<line fill="none" stroke="#030303" stroke-width="0.0283" stroke-linecap="round" stroke-linejoin="round" stroke-miterlimit="10" x1="275.714" y1="501.406" x2="235.755" y2="501.406"/>
	
		<line fill="none" stroke="#030303" stroke-width="0.0283" stroke-linecap="round" stroke-linejoin="round" stroke-miterlimit="10" x1="275.714" y1="480.453" x2="235.755" y2="480.453"/>
	
		<line fill="none" stroke="#030303" stroke-width="0.0283" stroke-linecap="round" stroke-linejoin="round" stroke-miterlimit="10" x1="275.714" y1="459.609" x2="235.755" y2="459.609"/>
	
		<line fill="none" stroke="#030303" stroke-width="0.0283" stroke-linecap="round" stroke-linejoin="round" stroke-miterlimit="10" x1="319.562" y1="400.642" x2="359.522" y2="400.642"/>
	
		<line fill="none" stroke="#030303" stroke-width="0.0283" stroke-linecap="round" stroke-linejoin="round" stroke-miterlimit="10" x1="319.562" y1="350.853" x2="351.53" y2="350.853"/>
	
		<line fill="none" stroke="#030303" stroke-width="0.0283" stroke-linecap="round" stroke-linejoin="round" stroke-miterlimit="10" x1="319.562" y1="371.806" x2="359.522" y2="371.806"/>
	
		<line fill="none" stroke="#030303" stroke-width="0.0283" stroke-linecap="round" stroke-linejoin="round" stroke-miterlimit="10" x1="355.526" y1="319.209" x2="355.526" y2="340.378"/>
	
		<line fill="none" stroke="#030303" stroke-width="0.0283" stroke-linecap="round" stroke-linejoin="round" stroke-miterlimit="10" x1="351.53" y1="319.209" x2="351.53" y2="454.857"/>
	
		<line fill="none" stroke="#030303" stroke-width="0.0283" stroke-linecap="round" stroke-linejoin="round" stroke-miterlimit="10" x1="347.534" y1="319.209" x2="347.534" y2="454.857"/>
	
		<line fill="none" stroke="#030303" stroke-width="0.0283" stroke-linecap="round" stroke-linejoin="round" stroke-miterlimit="10" x1="339.542" y1="319.209" x2="339.542" y2="454.857"/>
	
		<line fill="none" stroke="#030303" stroke-width="0.0283" stroke-linecap="round" stroke-linejoin="round" stroke-miterlimit="10" x1="343.538" y1="319.209" x2="343.538" y2="454.857"/>
	
		<line fill="none" stroke="#030303" stroke-width="0.0283" stroke-linecap="round" stroke-linejoin="round" stroke-miterlimit="10" x1="323.558" y1="319.209" x2="323.558" y2="454.857"/>
	
		<line fill="none" stroke="#030303" stroke-width="0.0283" stroke-linecap="round" stroke-linejoin="round" stroke-miterlimit="10" x1="327.554" y1="319.209" x2="327.554" y2="454.857"/>
	
		<line fill="none" stroke="#030303" stroke-width="0.0283" stroke-linecap="round" stroke-linejoin="round" stroke-miterlimit="10" x1="331.55" y1="319.209" x2="331.55" y2="454.857"/>
	
		<line fill="none" stroke="#030303" stroke-width="0.0283" stroke-linecap="round" stroke-linejoin="round" stroke-miterlimit="10" x1="335.546" y1="319.209" x2="335.546" y2="454.857"/>
	
		<line fill="none" stroke="#030303" stroke-width="0.0283" stroke-linecap="round" stroke-linejoin="round" stroke-miterlimit="10" x1="319.562" y1="329.902" x2="359.522" y2="329.902"/>
	
		<line fill="none" stroke="#030303" stroke-width="0.0283" stroke-linecap="round" stroke-linejoin="round" stroke-miterlimit="10" x1="319.562" y1="340.378" x2="359.522" y2="340.378"/>
	
		<line fill="none" stroke="#030303" stroke-width="0.0283" stroke-linecap="round" stroke-linejoin="round" stroke-miterlimit="10" x1="319.562" y1="361.33" x2="359.522" y2="361.33"/>
	
		<line fill="none" stroke="#030303" stroke-width="0.0283" stroke-linecap="round" stroke-linejoin="round" stroke-miterlimit="10" x1="319.562" y1="382.173" x2="359.522" y2="382.173"/>
	<path fill="#030303" stroke="#030303" stroke-width="0.2551" stroke-linecap="square" stroke-miterlimit="10" d="M363.302,337.893
		v-22.571h-56.053v3.888h11.018v20.845h1.295v-20.845h39.961v21.169h7.666v20.951h-7.666v93.527h-39.961v-20.951h-1.295v20.951
		h-3.133v1.188h3.133v3.242h1.295v-3.242h19.332v7.453h1.295v-7.453h19.334v22.789h-19.334v-3.779h-1.295v29.473h1.295v-24.506
		h19.334v24.516h-0.011c-0.341,10.53-8.799,18.986-19.331,19.322c-11.026,0.352-20.25-8.298-20.606-19.322h-0.013v-25.271h-1.295
		v43.416h-1.297v3.781h46.332V363.814h11.557v-25.921H363.302z M370.972,348.477c0.477,0,0.863,0.388,0.863,0.864
		s-0.387,0.864-0.863,0.864c-0.479,0-0.865-0.388-0.865-0.864S370.493,348.477,370.972,348.477z M370.972,353.445
		c0.477,0,0.863,0.387,0.863,0.865c0,0.477-0.387,0.863-0.863,0.863c-0.479,0-0.865-0.387-0.865-0.863
		C370.106,353.832,370.493,353.445,370.972,353.445z M370.972,360.898c-0.836,0-1.514-0.678-1.514-1.513s0.678-1.512,1.514-1.512
		s1.512,0.677,1.512,1.512S371.808,360.898,370.972,360.898z"/>
	
		<polyline fill="none" stroke="#030303" stroke-width="0.0283" stroke-linecap="round" stroke-linejoin="round" stroke-miterlimit="10" points="
		360.817,341.673 365.894,341.673 365.894,359.925 360.817,359.925 360.817,341.673 	"/>
	
		<line fill="none" stroke="#030303" stroke-width="0.085" stroke-linecap="round" stroke-linejoin="round" stroke-miterlimit="10" x1="359.522" y1="340.378" x2="359.522" y2="361.33"/>
	
		<line fill="none" stroke="#030303" stroke-width="0.0283" stroke-linecap="round" stroke-linejoin="round" stroke-miterlimit="10" x1="357.47" y1="340.378" x2="357.47" y2="361.221"/>
	
		<line fill="none" stroke="#030303" stroke-width="0.0283" stroke-linecap="round" stroke-linejoin="round" stroke-miterlimit="10" x1="355.526" y1="340.378" x2="355.526" y2="361.221"/>
	
		<line fill="none" stroke="#030303" stroke-width="0.0283" stroke-linecap="round" stroke-linejoin="round" stroke-miterlimit="10" x1="353.581" y1="340.378" x2="353.581" y2="361.221"/>
	
		<polyline fill="none" stroke="#030303" stroke-width="0.085" stroke-linecap="round" stroke-linejoin="round" stroke-miterlimit="10" points="
		359.522,340.378 351.53,340.378 351.53,361.33 359.522,361.33 	"/>
	
		<line fill="none" stroke="#030303" stroke-width="0.0283" stroke-linecap="round" stroke-linejoin="round" stroke-miterlimit="10" x1="359.522" y1="342.322" x2="351.53" y2="342.322"/>
	
		<line fill="none" stroke="#030303" stroke-width="0.0283" stroke-linecap="round" stroke-linejoin="round" stroke-miterlimit="10" x1="359.522" y1="344.265" x2="351.53" y2="344.265"/>
	
		<line fill="none" stroke="#030303" stroke-width="0.0283" stroke-linecap="round" stroke-linejoin="round" stroke-miterlimit="10" x1="359.522" y1="348.154" x2="351.53" y2="348.154"/>
	
		<line fill="none" stroke="#030303" stroke-width="0.0283" stroke-linecap="round" stroke-linejoin="round" stroke-miterlimit="10" x1="359.522" y1="349.99" x2="351.53" y2="349.99"/>
	
		<line fill="none" stroke="#030303" stroke-width="0.0283" stroke-linecap="round" stroke-linejoin="round" stroke-miterlimit="10" x1="359.522" y1="351.933" x2="351.53" y2="351.933"/>
	
		<line fill="none" stroke="#030303" stroke-width="0.0283" stroke-linecap="round" stroke-linejoin="round" stroke-miterlimit="10" x1="359.522" y1="353.878" x2="351.53" y2="353.878"/>
	
		<line fill="none" stroke="#030303" stroke-width="0.0283" stroke-linecap="round" stroke-linejoin="round" stroke-miterlimit="10" x1="359.522" y1="355.714" x2="351.53" y2="355.714"/>
	
		<line fill="none" stroke="#030303" stroke-width="0.0283" stroke-linecap="round" stroke-linejoin="round" stroke-miterlimit="10" x1="359.522" y1="357.658" x2="351.53" y2="357.658"/>
	
		<line fill="none" stroke="#030303" stroke-width="0.0283" stroke-linecap="round" stroke-linejoin="round" stroke-miterlimit="10" x1="359.522" y1="359.601" x2="351.53" y2="359.601"/>
	
		<line fill="none" stroke="#030303" stroke-width="0.0283" stroke-linecap="round" stroke-linejoin="round" stroke-miterlimit="10" x1="359.522" y1="346.101" x2="351.53" y2="346.101"/>
	
		<line fill="none" stroke="#030303" stroke-width="0.085" stroke-linecap="round" stroke-linejoin="round" stroke-miterlimit="10" x1="319.562" y1="479.265" x2="338.894" y2="479.265"/>
	
		<line fill="none" stroke="#030303" stroke-width="0.085" stroke-linecap="round" stroke-linejoin="round" stroke-miterlimit="10" x1="338.894" y1="504.537" x2="319.562" y2="504.537"/>
	
		<line fill="none" stroke="#030303" stroke-width="0.085" stroke-linecap="round" stroke-linejoin="round" stroke-miterlimit="10" x1="319.562" y1="482.398" x2="338.894" y2="482.398"/>
	
		<line fill="none" stroke="#030303" stroke-width="0.085" stroke-linecap="round" stroke-linejoin="round" stroke-miterlimit="10" x1="319.562" y1="485.638" x2="338.894" y2="485.638"/>
	
		<line fill="none" stroke="#030303" stroke-width="0.085" stroke-linecap="round" stroke-linejoin="round" stroke-miterlimit="10" x1="319.562" y1="488.769" x2="338.894" y2="488.769"/>
	
		<line fill="none" stroke="#030303" stroke-width="0.085" stroke-linecap="round" stroke-linejoin="round" stroke-miterlimit="10" x1="319.562" y1="491.902" x2="338.894" y2="491.902"/>
	
		<line fill="none" stroke="#030303" stroke-width="0.085" stroke-linecap="round" stroke-linejoin="round" stroke-miterlimit="10" x1="319.562" y1="495.033" x2="338.894" y2="495.033"/>
	
		<line fill="none" stroke="#030303" stroke-width="0.085" stroke-linecap="round" stroke-linejoin="round" stroke-miterlimit="10" x1="319.562" y1="498.273" x2="338.894" y2="498.273"/>
	
		<line fill="none" stroke="#030303" stroke-width="0.085" stroke-linecap="round" stroke-linejoin="round" stroke-miterlimit="10" x1="319.562" y1="501.406" x2="338.894" y2="501.406"/>
	
		<line fill="none" stroke="#030303" stroke-width="0.085" stroke-linecap="round" stroke-linejoin="round" stroke-miterlimit="10" x1="340.188" y1="504.537" x2="359.522" y2="504.537"/>
	
		<line fill="none" stroke="#030303" stroke-width="0.085" stroke-linecap="round" stroke-linejoin="round" stroke-miterlimit="10" x1="359.522" y1="482.398" x2="340.188" y2="482.398"/>
	
		<line fill="none" stroke="#030303" stroke-width="0.085" stroke-linecap="round" stroke-linejoin="round" stroke-miterlimit="10" x1="359.522" y1="485.638" x2="340.188" y2="485.638"/>
	
		<line fill="none" stroke="#030303" stroke-width="0.085" stroke-linecap="round" stroke-linejoin="round" stroke-miterlimit="10" x1="359.522" y1="488.769" x2="340.188" y2="488.769"/>
	
		<line fill="none" stroke="#030303" stroke-width="0.085" stroke-linecap="round" stroke-linejoin="round" stroke-miterlimit="10" x1="359.522" y1="491.902" x2="340.188" y2="491.902"/>
	
		<line fill="none" stroke="#030303" stroke-width="0.085" stroke-linecap="round" stroke-linejoin="round" stroke-miterlimit="10" x1="359.522" y1="495.033" x2="340.188" y2="495.033"/>
	
		<line fill="none" stroke="#030303" stroke-width="0.085" stroke-linecap="round" stroke-linejoin="round" stroke-miterlimit="10" x1="359.522" y1="498.273" x2="340.188" y2="498.273"/>
	
		<line fill="none" stroke="#030303" stroke-width="0.085" stroke-linecap="round" stroke-linejoin="round" stroke-miterlimit="10" x1="359.522" y1="501.406" x2="340.188" y2="501.406"/>
	
		<polyline fill="none" stroke="#030303" stroke-width="0.085" stroke-linecap="round" stroke-linejoin="round" stroke-miterlimit="10" points="
		277.011,340.701 275.714,340.701 275.714,361.005 277.011,361.005 277.011,340.701 	"/>
	
		<polyline fill="none" stroke="#030303" stroke-width="0.085" stroke-linecap="round" stroke-linejoin="round" stroke-miterlimit="10" points="
		352.069,456.693 346.993,456.693 346.993,465.009 352.069,465.009 352.069,456.693 	"/>
	
		<line fill="none" stroke="#030303" stroke-width="0.085" stroke-linecap="round" stroke-linejoin="round" stroke-miterlimit="10" x1="346.993" y1="459.287" x2="352.069" y2="459.287"/>
	
		<line fill="none" stroke="#030303" stroke-width="0.085" stroke-linecap="round" stroke-linejoin="round" stroke-miterlimit="10" x1="349.587" y1="456.693" x2="349.587" y2="456.044"/>
	
		<polyline fill="none" stroke="#030303" stroke-width="0.085" stroke-linecap="round" stroke-linejoin="round" stroke-miterlimit="10" points="
		352.718,478.833 352.718,474.298 346.345,474.298 346.345,478.833 	"/>
	
		<line fill="none" stroke="#030303" stroke-width="0.085" stroke-linecap="round" stroke-linejoin="round" stroke-miterlimit="10" x1="352.718" y1="477.537" x2="346.345" y2="477.537"/>
	
		<line fill="none" stroke="#030303" stroke-width="0.085" stroke-linecap="round" stroke-linejoin="round" stroke-miterlimit="10" x1="318.267" y1="459.287" x2="318.267" y2="479.265"/>
	
		<line fill="none" stroke="#030303" stroke-width="0.085" stroke-linecap="round" stroke-linejoin="round" stroke-miterlimit="10" x1="319.562" y1="459.287" x2="319.562" y2="479.265"/>
	
		<line fill="none" stroke="#030303" stroke-width="0.085" stroke-linecap="round" stroke-linejoin="round" stroke-miterlimit="10" x1="340.188" y1="463.498" x2="340.188" y2="475.054"/>
	
		<line fill="none" stroke="#030303" stroke-width="0.085" stroke-linecap="round" stroke-linejoin="round" stroke-miterlimit="10" x1="338.894" y1="463.498" x2="338.894" y2="475.054"/>
	<polyline fill="#030303" stroke="#030303" stroke-width="0.2551" stroke-linecap="square" stroke-miterlimit="10" points="
		277.011,454.857 277.011,451.617 275.714,451.617 275.714,454.857 272.581,454.857 272.581,456.044 275.714,456.044 
		275.714,459.287 277.011,459.287 277.011,456.044 280.249,456.044 280.249,454.857 277.011,454.857 	"/>
	
		<line fill="none" stroke="#030303" stroke-width="0.0283" stroke-linecap="round" stroke-linejoin="round" stroke-miterlimit="10" x1="276.36" y1="451.617" x2="276.36" y2="390.166"/>
	
		<line fill="none" stroke="#030303" stroke-width="0.0283" stroke-linecap="round" stroke-linejoin="round" stroke-miterlimit="10" x1="315.134" y1="455.398" x2="280.249" y2="455.398"/>
	
		<line fill="none" stroke="#030303" stroke-width="0.085" stroke-linecap="round" stroke-linejoin="round" stroke-miterlimit="10" x1="319.562" y1="468.789" x2="319.562" y2="457.341"/>
	
		<line fill="none" stroke="#030303" stroke-width="0.085" stroke-linecap="round" stroke-linejoin="round" stroke-miterlimit="10" x1="318.267" y1="468.789" x2="318.267" y2="457.341"/>
	
		<polyline fill="none" stroke="#070707" stroke-width="0.1984" stroke-linecap="round" stroke-linejoin="round" stroke-miterlimit="10" points="
		277.011,361.005 275.714,361.005 275.714,361.654 277.011,361.654 277.011,361.005 	"/>
	
		<polyline fill="none" stroke="#070707" stroke-width="0.1984" stroke-linecap="round" stroke-linejoin="round" stroke-miterlimit="10" points="
		277.011,340.701 275.714,340.701 275.714,340.054 277.011,340.054 277.011,340.701 	"/>
	<polyline fill="#030303" stroke="#030303" stroke-width="0.2551" stroke-linecap="square" stroke-miterlimit="10" points="
		277.011,385.738 277.011,382.498 275.714,382.498 275.714,385.738 272.581,385.738 272.581,387.033 275.714,387.033 
		275.714,390.166 277.011,390.166 277.011,387.033 280.249,387.033 280.249,385.738 277.011,385.738 	"/>
	
		<polyline fill="none" stroke="#070707" stroke-width="0.1984" stroke-linecap="round" stroke-linejoin="round" stroke-miterlimit="10" points="
		277.011,381.849 275.714,381.849 275.714,382.498 277.011,382.498 277.011,381.849 	"/>
	
		<line fill="none" stroke="#030303" stroke-width="0.085" stroke-linecap="round" stroke-linejoin="round" stroke-miterlimit="10" x1="277.011" y1="361.654" x2="277.011" y2="381.849"/>
	
		<line fill="none" stroke="#030303" stroke-width="0.085" stroke-linecap="round" stroke-linejoin="round" stroke-miterlimit="10" x1="275.714" y1="361.654" x2="275.714" y2="381.849"/>
	
		<polyline fill="none" stroke="#030303" stroke-width="0.085" stroke-linecap="round" stroke-linejoin="round" stroke-miterlimit="10" points="
		318.267,340.701 319.562,340.701 319.562,361.005 318.267,361.005 318.267,340.701 	"/>
	
		<polyline fill="none" stroke="#070707" stroke-width="0.1984" stroke-linecap="round" stroke-linejoin="round" stroke-miterlimit="10" points="
		318.267,361.005 319.562,361.005 319.562,361.654 318.267,361.654 318.267,361.005 	"/>
	
		<polyline fill="none" stroke="#070707" stroke-width="0.1984" stroke-linecap="round" stroke-linejoin="round" stroke-miterlimit="10" points="
		318.267,340.701 319.562,340.701 319.562,340.054 318.267,340.054 318.267,340.701 	"/>
	
		<polyline fill="none" stroke="#070707" stroke-width="0.1984" stroke-linecap="round" stroke-linejoin="round" stroke-miterlimit="10" points="
		318.267,381.849 319.562,381.849 319.562,382.498 318.267,382.498 318.267,381.849 	"/>
	
		<line fill="none" stroke="#030303" stroke-width="0.085" stroke-linecap="round" stroke-linejoin="round" stroke-miterlimit="10" x1="318.267" y1="361.654" x2="318.267" y2="381.849"/>
	
		<line fill="none" stroke="#030303" stroke-width="0.085" stroke-linecap="round" stroke-linejoin="round" stroke-miterlimit="10" x1="319.562" y1="361.654" x2="319.562" y2="381.849"/>
	
		<polyline fill="none" stroke="#030303" stroke-width="0.085" stroke-linecap="round" stroke-linejoin="round" stroke-miterlimit="10" points="
		318.267,433.257 319.562,433.257 319.562,411.117 318.267,411.117 318.267,433.257 	"/>
	
		<polyline fill="none" stroke="#070707" stroke-width="0.1984" stroke-linecap="round" stroke-linejoin="round" stroke-miterlimit="10" points="
		318.267,411.117 319.562,411.117 319.562,410.47 318.267,410.47 318.267,411.117 	"/>
	
		<polyline fill="none" stroke="#070707" stroke-width="0.1984" stroke-linecap="round" stroke-linejoin="round" stroke-miterlimit="10" points="
		318.267,433.257 319.562,433.257 319.562,433.906 318.267,433.906 318.267,433.257 	"/>
	
		<polyline fill="none" stroke="#070707" stroke-width="0.1984" stroke-linecap="round" stroke-linejoin="round" stroke-miterlimit="10" points="
		318.267,390.814 319.562,390.814 319.562,390.166 318.267,390.166 318.267,390.814 	"/>
	
		<line fill="none" stroke="#030303" stroke-width="0.085" stroke-linecap="round" stroke-linejoin="round" stroke-miterlimit="10" x1="318.267" y1="410.47" x2="318.267" y2="390.814"/>
	
		<line fill="none" stroke="#030303" stroke-width="0.085" stroke-linecap="round" stroke-linejoin="round" stroke-miterlimit="10" x1="319.562" y1="410.47" x2="319.562" y2="390.814"/>
	
		<line fill="none" stroke="#030303" stroke-width="0.8504" stroke-linecap="round" stroke-linejoin="round" stroke-miterlimit="10" x1="318.267" y1="400.642" x2="318.267" y2="400.642"/>
	
		<path fill="none" stroke="#030303" stroke-width="0.085" stroke-linecap="round" stroke-linejoin="round" stroke-miterlimit="10" d="
		M308.546,400.642c0,5.367,4.354,9.719,9.721,9.719l0,0"/>
	
		<path fill="none" stroke="#030303" stroke-width="0.085" stroke-linecap="round" stroke-linejoin="round" stroke-miterlimit="10" d="
		M327.987,400.642c0-5.369-4.354-9.721-9.721-9.721l0,0"/>
	
		<line fill="none" stroke="#030303" stroke-width="0.085" stroke-linecap="round" stroke-linejoin="round" stroke-miterlimit="10" x1="328.093" y1="400.642" x2="308.438" y2="400.642"/>
	
		<path fill="none" stroke="#030303" stroke-width="0.085" stroke-linecap="round" stroke-linejoin="round" stroke-miterlimit="10" d="
		M328.31,371.806c0-5.549-4.496-10.045-10.043-10.045l0,0"/>
	
		<path fill="none" stroke="#030303" stroke-width="0.085" stroke-linecap="round" stroke-linejoin="round" stroke-miterlimit="10" d="
		M308.224,371.806c0,5.547,4.496,10.043,10.043,10.043l0,0"/>
	
		<line fill="none" stroke="#030303" stroke-width="0.085" stroke-linecap="round" stroke-linejoin="round" stroke-miterlimit="10" x1="308.114" y1="371.806" x2="328.417" y2="371.806"/>
	
		<line fill="none" stroke="#030303" stroke-width="0.8504" stroke-linecap="round" stroke-linejoin="round" stroke-miterlimit="10" x1="318.267" y1="371.806" x2="318.267" y2="371.806"/>
	
		<line fill="none" stroke="#030303" stroke-width="0.8504" stroke-linecap="round" stroke-linejoin="round" stroke-miterlimit="10" x1="277.011" y1="371.806" x2="277.011" y2="371.806"/>
	
		<path fill="none" stroke="#030303" stroke-width="0.085" stroke-linecap="round" stroke-linejoin="round" stroke-miterlimit="10" d="
		M277.011,361.761c-5.547,0-10.043,4.496-10.043,10.043c0,0.002,0,0.002,0,0.002"/>
	
		<path fill="none" stroke="#030303" stroke-width="0.085" stroke-linecap="round" stroke-linejoin="round" stroke-miterlimit="10" d="
		M277.011,381.849c5.547,0,10.043-4.496,10.043-10.045"/>
	
		<line fill="none" stroke="#030303" stroke-width="0.085" stroke-linecap="round" stroke-linejoin="round" stroke-miterlimit="10" x1="287.161" y1="371.806" x2="266.858" y2="371.806"/>
	
		<line fill="#030303" stroke="#030303" stroke-width="0.2551" stroke-linecap="square" stroke-miterlimit="10" x1="320.858" y1="526.462" x2="316.97" y2="526.462"/>
	<polyline fill="#030303" stroke="#030303" stroke-width="0.2551" stroke-linecap="square" stroke-miterlimit="10" points="
		275.714,522.681 275.714,501.73 277.011,501.73 277.011,522.681 278.306,522.681 278.306,526.462 231.976,526.462 231.976,427.318 
		235.755,427.318 235.755,522.681 275.714,522.681 	"/>
	
		<polyline fill="none" stroke="#030303" stroke-width="0.085" stroke-linecap="round" stroke-linejoin="round" stroke-miterlimit="10" points="
		212.858,411.333 168.146,411.333 168.146,430.449 212.858,430.449 212.858,411.333 	"/>
	
		<line fill="none" stroke="#030303" stroke-width="0.0283" stroke-linecap="round" stroke-linejoin="round" stroke-miterlimit="10" x1="206.487" y1="411.333" x2="206.487" y2="430.449"/>
	
		<line fill="none" stroke="#030303" stroke-width="0.0283" stroke-linecap="round" stroke-linejoin="round" stroke-miterlimit="10" x1="200.114" y1="411.333" x2="200.114" y2="430.449"/>
	
		<line fill="none" stroke="#030303" stroke-width="0.0283" stroke-linecap="round" stroke-linejoin="round" stroke-miterlimit="10" x1="193.743" y1="411.333" x2="193.743" y2="430.449"/>
	
		<line fill="none" stroke="#030303" stroke-width="0.0283" stroke-linecap="round" stroke-linejoin="round" stroke-miterlimit="10" x1="187.37" y1="411.333" x2="187.37" y2="430.449"/>
	
		<line fill="none" stroke="#030303" stroke-width="0.0283" stroke-linecap="round" stroke-linejoin="round" stroke-miterlimit="10" x1="180.89" y1="411.333" x2="180.89" y2="430.449"/>
	
		<line fill="none" stroke="#030303" stroke-width="0.0283" stroke-linecap="round" stroke-linejoin="round" stroke-miterlimit="10" x1="174.517" y1="411.333" x2="174.517" y2="430.449"/>
	
		<line fill="none" stroke="#030303" stroke-width="0.0283" stroke-linecap="round" stroke-linejoin="round" stroke-miterlimit="10" x1="212.858" y1="414.574" x2="168.146" y2="414.574"/>
	
		<line fill="none" stroke="#030303" stroke-width="0.0283" stroke-linecap="round" stroke-linejoin="round" stroke-miterlimit="10" x1="212.858" y1="417.707" x2="168.146" y2="417.707"/>
	
		<line fill="none" stroke="#030303" stroke-width="0.0283" stroke-linecap="round" stroke-linejoin="round" stroke-miterlimit="10" x1="212.858" y1="420.945" x2="168.146" y2="420.945"/>
	
		<line fill="none" stroke="#030303" stroke-width="0.0283" stroke-linecap="round" stroke-linejoin="round" stroke-miterlimit="10" x1="212.858" y1="424.078" x2="168.146" y2="424.078"/>
	
		<line fill="none" stroke="#030303" stroke-width="0.0283" stroke-linecap="round" stroke-linejoin="round" stroke-miterlimit="10" x1="212.858" y1="427.318" x2="168.146" y2="427.318"/>
	
		<polyline fill="none" stroke="#030303" stroke-width="0.085" stroke-linecap="round" stroke-linejoin="round" stroke-miterlimit="10" points="
		254.87,400.318 264.267,400.318 264.267,441.464 254.87,441.464 254.87,400.318 	"/>
	
		<line fill="none" stroke="#030303" stroke-width="0.085" stroke-linecap="round" stroke-linejoin="round" stroke-miterlimit="10" x1="254.87" y1="410.578" x2="264.267" y2="410.578"/>
	
		<line fill="none" stroke="#030303" stroke-width="0.085" stroke-linecap="round" stroke-linejoin="round" stroke-miterlimit="10" x1="254.87" y1="420.945" x2="264.267" y2="420.945"/>
	
		<line fill="none" stroke="#030303" stroke-width="0.0283" stroke-linecap="round" stroke-linejoin="round" stroke-miterlimit="10" x1="260.702" y1="411.548" x2="260.702" y2="420.298"/>
	
		<line fill="none" stroke="#030303" stroke-width="0.0283" stroke-linecap="round" stroke-linejoin="round" stroke-miterlimit="10" x1="262.97" y1="411.548" x2="262.97" y2="420.298"/>
	
		<line fill="none" stroke="#030303" stroke-width="0.0283" stroke-linecap="round" stroke-linejoin="round" stroke-miterlimit="10" x1="258.433" y1="411.548" x2="258.433" y2="420.298"/>
	
		<line fill="none" stroke="#030303" stroke-width="0.0283" stroke-linecap="round" stroke-linejoin="round" stroke-miterlimit="10" x1="256.058" y1="411.548" x2="256.058" y2="420.298"/>
	
		<circle fill="none" stroke="#030303" stroke-width="0.0283" stroke-linecap="round" stroke-linejoin="round" stroke-miterlimit="10" cx="261.892" cy="407.986" r="1.188"/>
	
		<circle fill="none" stroke="#030303" stroke-width="0.0283" stroke-linecap="round" stroke-linejoin="round" stroke-miterlimit="10" cx="257.14" cy="407.986" r="1.188"/>
	
		<circle fill="none" stroke="#030303" stroke-width="0.0283" stroke-linecap="round" stroke-linejoin="round" stroke-miterlimit="10" cx="261.892" cy="403.018" r="1.188"/>
	
		<circle fill="none" stroke="#030303" stroke-width="0.0283" stroke-linecap="round" stroke-linejoin="round" stroke-miterlimit="10" cx="257.14" cy="403.018" r="1.188"/>
	
		<polyline fill="none" stroke="#030303" stroke-width="0.0283" stroke-linecap="round" stroke-linejoin="round" stroke-miterlimit="10" points="
		262.97,422.134 256.058,422.134 256.058,429.91 262.97,429.91 262.97,422.134 	"/>
	
		<line fill="none" stroke="#030303" stroke-width="0.0283" stroke-linecap="round" stroke-linejoin="round" stroke-miterlimit="10" x1="255.087" y1="426.021" x2="257.03" y2="426.021"/>
	
		<polyline fill="none" stroke="#030303" stroke-width="0.085" stroke-linecap="round" stroke-linejoin="round" stroke-miterlimit="10" points="
		247.958,400.318 254.87,400.318 254.87,441.464 247.958,441.464 247.958,400.318 	"/>
	
		<polyline fill="none" stroke="#030303" stroke-width="0.085" stroke-linecap="round" stroke-linejoin="round" stroke-miterlimit="10" points="
		247.958,410.578 254.87,410.578 247.958,410.578 	"/>
	
		<line fill="none" stroke="#030303" stroke-width="0.085" stroke-linecap="round" stroke-linejoin="round" stroke-miterlimit="10" x1="254.87" y1="420.945" x2="247.958" y2="420.945"/>
	
		<polyline fill="none" stroke="#030303" stroke-width="0.085" stroke-linecap="round" stroke-linejoin="round" stroke-miterlimit="10" points="
		247.958,431.207 254.87,431.207 264.267,431.207 	"/>
	
		<polyline fill="none" stroke="#030303" stroke-width="0.085" stroke-linecap="round" stroke-linejoin="round" stroke-miterlimit="10" points="
		277.011,501.082 275.714,501.082 275.714,480.777 277.011,480.777 277.011,501.082 	"/>
	
		<polyline fill="none" stroke="#070707" stroke-width="0.1984" stroke-linecap="round" stroke-linejoin="round" stroke-miterlimit="10" points="
		277.011,480.777 275.714,480.777 275.714,480.128 277.011,480.128 277.011,480.777 	"/>
	
		<polyline fill="none" stroke="#070707" stroke-width="0.1984" stroke-linecap="round" stroke-linejoin="round" stroke-miterlimit="10" points="
		277.011,501.082 275.714,501.082 275.714,501.73 277.011,501.73 277.011,501.082 	"/>
	
		<polyline fill="none" stroke="#070707" stroke-width="0.1984" stroke-linecap="round" stroke-linejoin="round" stroke-miterlimit="10" points="
		277.011,459.933 275.714,459.933 275.714,459.287 277.011,459.287 277.011,459.933 	"/>
	
		<line fill="none" stroke="#030303" stroke-width="0.085" stroke-linecap="round" stroke-linejoin="round" stroke-miterlimit="10" x1="277.011" y1="480.128" x2="277.011" y2="459.933"/>
	
		<line fill="none" stroke="#030303" stroke-width="0.085" stroke-linecap="round" stroke-linejoin="round" stroke-miterlimit="10" x1="275.714" y1="480.128" x2="275.714" y2="459.933"/>
	
		<line fill="none" stroke="#030303" stroke-width="0.8504" stroke-linecap="round" stroke-linejoin="round" stroke-miterlimit="10" x1="277.011" y1="470.085" x2="277.011" y2="470.085"/>
	
		<path fill="none" stroke="#030303" stroke-width="0.085" stroke-linecap="round" stroke-linejoin="round" stroke-miterlimit="10" d="
		M266.968,470.085c0,5.547,4.496,10.043,10.043,10.043l0,0"/>
	
		<path fill="none" stroke="#030303" stroke-width="0.085" stroke-linecap="round" stroke-linejoin="round" stroke-miterlimit="10" d="
		M287.054,470.085c0-5.547-4.496-10.043-10.043-10.043l0,0"/>
	
		<line fill="none" stroke="#030303" stroke-width="0.085" stroke-linecap="round" stroke-linejoin="round" stroke-miterlimit="10" x1="287.161" y1="470.085" x2="266.858" y2="470.085"/>
	
		<line fill="none" stroke="#030303" stroke-width="0.085" stroke-linecap="round" stroke-linejoin="round" stroke-miterlimit="10" x1="271.933" y1="456.044" x2="236.403" y2="456.044"/>
	
		<line fill="none" stroke="#030303" stroke-width="0.085" stroke-linecap="round" stroke-linejoin="round" stroke-miterlimit="10" x1="271.933" y1="454.857" x2="236.403" y2="454.857"/>
	
		<polyline fill="none" stroke="#070707" stroke-width="0.1984" stroke-linecap="round" stroke-linejoin="round" stroke-miterlimit="10" points="
		271.933,456.044 271.933,454.857 272.581,454.857 272.581,456.044 271.933,456.044 	"/>
	
		<polyline fill="none" stroke="#070707" stroke-width="0.1984" stroke-linecap="round" stroke-linejoin="round" stroke-miterlimit="10" points="
		253.897,456.044 253.897,454.857 254.546,454.857 254.546,456.044 253.897,456.044 	"/>
	
		<line fill="none" stroke="#090909" stroke-width="0.9921" stroke-linecap="round" stroke-linejoin="round" stroke-miterlimit="10" x1="263.187" y1="456.044" x2="263.187" y2="456.044"/>
	
		<path fill="none" stroke="#030303" stroke-width="0.085" stroke-linecap="round" stroke-linejoin="round" stroke-miterlimit="10" d="
		M263.188,447.406c-4.773,0-8.643,3.867-8.643,8.639l0,0"/>
	
		<line fill="none" stroke="#030303" stroke-width="0.085" stroke-linecap="round" stroke-linejoin="round" stroke-miterlimit="10" x1="263.187" y1="447.406" x2="263.187" y2="464.792"/>
	
		<path fill="none" stroke="#030303" stroke-width="0.085" stroke-linecap="round" stroke-linejoin="round" stroke-miterlimit="10" d="
		M263.188,464.685c4.77,0,8.639-3.867,8.639-8.641"/>
	
		<polyline fill="none" stroke="#070707" stroke-width="0.1984" stroke-linecap="round" stroke-linejoin="round" stroke-miterlimit="10" points="
		236.403,456.044 236.403,454.857 235.755,454.857 235.755,456.044 236.403,456.044 	"/>
	
		<line fill="none" stroke="#030303" stroke-width="0.085" stroke-linecap="round" stroke-linejoin="round" stroke-miterlimit="10" x1="271.933" y1="385.738" x2="236.403" y2="385.738"/>
	
		<line fill="none" stroke="#030303" stroke-width="0.085" stroke-linecap="round" stroke-linejoin="round" stroke-miterlimit="10" x1="271.933" y1="387.033" x2="236.403" y2="387.033"/>
	
		<polyline fill="none" stroke="#070707" stroke-width="0.1984" stroke-linecap="round" stroke-linejoin="round" stroke-miterlimit="10" points="
		271.933,385.738 271.933,387.033 272.581,387.033 272.581,385.738 271.933,385.738 	"/>
	
		<polyline fill="none" stroke="#070707" stroke-width="0.1984" stroke-linecap="round" stroke-linejoin="round" stroke-miterlimit="10" points="
		253.897,385.738 253.897,387.033 254.546,387.033 254.546,385.738 253.897,385.738 	"/>
	
		<line fill="none" stroke="#090909" stroke-width="0.9921" stroke-linecap="round" stroke-linejoin="round" stroke-miterlimit="10" x1="263.187" y1="385.738" x2="263.187" y2="385.738"/>
	
		<path fill="none" stroke="#030303" stroke-width="0.085" stroke-linecap="round" stroke-linejoin="round" stroke-miterlimit="10" d="
		M254.546,385.738c0,4.771,3.869,8.641,8.643,8.641l0,0"/>
	
		<line fill="none" stroke="#030303" stroke-width="0.085" stroke-linecap="round" stroke-linejoin="round" stroke-miterlimit="10" x1="263.187" y1="394.486" x2="263.187" y2="376.99"/>
	
		<path fill="none" stroke="#030303" stroke-width="0.085" stroke-linecap="round" stroke-linejoin="round" stroke-miterlimit="10" d="
		M271.827,385.738c0-4.771-3.869-8.641-8.639-8.641l0,0"/>
	
		<polyline fill="none" stroke="#070707" stroke-width="0.1984" stroke-linecap="round" stroke-linejoin="round" stroke-miterlimit="10" points="
		236.403,385.738 236.403,387.033 235.755,387.033 235.755,385.738 236.403,385.738 	"/>
	
		<line fill="none" stroke="#030303" stroke-width="0.0283" stroke-linecap="round" stroke-linejoin="round" stroke-miterlimit="10" x1="275.714" y1="350.853" x2="235.755" y2="350.853"/>
	
		<line fill="none" stroke="#030303" stroke-width="0.0283" stroke-linecap="round" stroke-linejoin="round" stroke-miterlimit="10" x1="275.714" y1="371.806" x2="235.755" y2="371.806"/>
	
		<line fill="none" stroke="#030303" stroke-width="0.0283" stroke-linecap="round" stroke-linejoin="round" stroke-miterlimit="10" x1="239.749" y1="319.209" x2="239.749" y2="385.738"/>
	
		<line fill="none" stroke="#030303" stroke-width="0.0283" stroke-linecap="round" stroke-linejoin="round" stroke-miterlimit="10" x1="243.745" y1="319.209" x2="243.745" y2="385.738"/>
	
		<line fill="none" stroke="#030303" stroke-width="0.0283" stroke-linecap="round" stroke-linejoin="round" stroke-miterlimit="10" x1="247.743" y1="319.209" x2="247.743" y2="385.738"/>
	
		<line fill="none" stroke="#030303" stroke-width="0.0283" stroke-linecap="round" stroke-linejoin="round" stroke-miterlimit="10" x1="255.733" y1="319.209" x2="255.733" y2="385.738"/>
	
		<line fill="none" stroke="#030303" stroke-width="0.0283" stroke-linecap="round" stroke-linejoin="round" stroke-miterlimit="10" x1="251.737" y1="319.209" x2="251.737" y2="385.738"/>
	
		<line fill="none" stroke="#030303" stroke-width="0.0283" stroke-linecap="round" stroke-linejoin="round" stroke-miterlimit="10" x1="271.718" y1="319.209" x2="271.718" y2="385.738"/>
	
		<line fill="none" stroke="#030303" stroke-width="0.0283" stroke-linecap="round" stroke-linejoin="round" stroke-miterlimit="10" x1="267.722" y1="319.209" x2="267.722" y2="385.738"/>
	
		<line fill="none" stroke="#030303" stroke-width="0.0283" stroke-linecap="round" stroke-linejoin="round" stroke-miterlimit="10" x1="263.726" y1="319.209" x2="263.726" y2="385.738"/>
	
		<line fill="none" stroke="#030303" stroke-width="0.0283" stroke-linecap="round" stroke-linejoin="round" stroke-miterlimit="10" x1="259.731" y1="319.209" x2="259.731" y2="385.738"/>
	
		<line fill="none" stroke="#030303" stroke-width="0.0283" stroke-linecap="round" stroke-linejoin="round" stroke-miterlimit="10" x1="275.714" y1="329.902" x2="235.755" y2="329.902"/>
	
		<line fill="none" stroke="#030303" stroke-width="0.0283" stroke-linecap="round" stroke-linejoin="round" stroke-miterlimit="10" x1="275.714" y1="340.378" x2="235.755" y2="340.378"/>
	
		<line fill="none" stroke="#030303" stroke-width="0.0283" stroke-linecap="round" stroke-linejoin="round" stroke-miterlimit="10" x1="275.714" y1="361.33" x2="235.755" y2="361.33"/>
	
		<line fill="none" stroke="#030303" stroke-width="0.0283" stroke-linecap="round" stroke-linejoin="round" stroke-miterlimit="10" x1="275.714" y1="382.173" x2="235.755" y2="382.173"/>
	<polyline fill="#030303" stroke="#030303" stroke-width="0.2551" stroke-linecap="square" stroke-miterlimit="10" points="
		288.134,319.209 277.011,319.209 277.011,340.054 275.714,340.054 275.714,319.209 235.755,319.209 235.755,414.574 
		231.976,414.574 231.976,315.322 288.134,315.322 288.134,319.209 	"/>
	
		<line fill="none" stroke="#030303" stroke-width="0.0283" stroke-linecap="round" stroke-linejoin="round" stroke-miterlimit="10" x1="315.134" y1="386.386" x2="280.249" y2="386.386"/>
	
		<polyline fill="none" stroke="#030303" stroke-width="0.085" stroke-linecap="round" stroke-linejoin="round" stroke-miterlimit="10" points="
		295.909,329.792 295.909,358.521 308.653,358.521 308.653,329.792 295.909,329.792 	"/>
	
		<polyline fill="none" stroke="#030303" stroke-width="0.085" stroke-linecap="round" stroke-linejoin="round" stroke-miterlimit="10" points="
		315.026,341.242 315.026,346.425 309.95,346.425 309.95,341.242 315.026,341.242 	"/>
	
		<line fill="none" stroke="#030303" stroke-width="0.0283" stroke-linecap="round" stroke-linejoin="round" stroke-miterlimit="10" x1="314.487" y1="341.242" x2="314.487" y2="346.425"/>
	
		<polyline fill="none" stroke="#030303" stroke-width="0.085" stroke-linecap="round" stroke-linejoin="round" stroke-miterlimit="10" points="
		315.026,337.461 315.026,332.386 309.95,332.386 309.95,337.461 315.026,337.461 	"/>
	
		<line fill="none" stroke="#030303" stroke-width="0.0283" stroke-linecap="round" stroke-linejoin="round" stroke-miterlimit="10" x1="314.487" y1="337.461" x2="314.487" y2="332.386"/>
	
		<polyline fill="none" stroke="#030303" stroke-width="0.085" stroke-linecap="round" stroke-linejoin="round" stroke-miterlimit="10" points="
		289.538,341.242 289.538,346.425 294.722,346.425 294.722,341.242 289.538,341.242 	"/>
	
		<line fill="none" stroke="#030303" stroke-width="0.0283" stroke-linecap="round" stroke-linejoin="round" stroke-miterlimit="10" x1="290.187" y1="341.242" x2="290.187" y2="346.425"/>
	
		<polyline fill="none" stroke="#030303" stroke-width="0.085" stroke-linecap="round" stroke-linejoin="round" stroke-miterlimit="10" points="
		289.538,337.461 289.538,332.386 294.722,332.386 294.722,337.461 289.538,337.461 	"/>
	
		<line fill="none" stroke="#030303" stroke-width="0.0283" stroke-linecap="round" stroke-linejoin="round" stroke-miterlimit="10" x1="290.187" y1="337.461" x2="290.187" y2="332.386"/>
	
		<polyline fill="none" stroke="#030303" stroke-width="0.085" stroke-linecap="round" stroke-linejoin="round" stroke-miterlimit="10" points="
		289.538,350.206 289.538,355.281 294.722,355.281 294.722,350.206 289.538,350.206 	"/>
	
		<line fill="none" stroke="#030303" stroke-width="0.0283" stroke-linecap="round" stroke-linejoin="round" stroke-miterlimit="10" x1="290.187" y1="350.206" x2="290.187" y2="355.281"/>
	
		<polyline fill="none" stroke="#030303" stroke-width="0.085" stroke-linecap="round" stroke-linejoin="round" stroke-miterlimit="10" points="
		315.026,350.206 315.026,355.281 309.95,355.281 309.95,350.206 315.026,350.206 	"/>
	
		<line fill="none" stroke="#030303" stroke-width="0.0283" stroke-linecap="round" stroke-linejoin="round" stroke-miterlimit="10" x1="314.487" y1="350.206" x2="314.487" y2="355.281"/>
	
		<polyline fill="none" stroke="#030303" stroke-width="0.085" stroke-linecap="round" stroke-linejoin="round" stroke-miterlimit="10" points="
		316.755,296.206 316.755,245.229 278.522,245.229 278.522,296.206 316.755,296.206 	"/>
	
		<line fill="none" stroke="#030303" stroke-width="0.085" stroke-linecap="round" stroke-linejoin="round" stroke-miterlimit="10" x1="306.278" y1="319.209" x2="288.999" y2="319.209"/>
	
		<line fill="none" stroke="#030303" stroke-width="0.0283" stroke-linecap="round" stroke-linejoin="round" stroke-miterlimit="10" x1="316.755" y1="289.833" x2="278.522" y2="289.833"/>
	
		<line fill="none" stroke="#030303" stroke-width="0.0283" stroke-linecap="round" stroke-linejoin="round" stroke-miterlimit="10" x1="316.755" y1="283.461" x2="278.522" y2="283.461"/>
	
		<line fill="none" stroke="#030303" stroke-width="0.0283" stroke-linecap="round" stroke-linejoin="round" stroke-miterlimit="10" x1="316.755" y1="277.089" x2="278.522" y2="277.089"/>
	
		<line fill="none" stroke="#030303" stroke-width="0.0283" stroke-linecap="round" stroke-linejoin="round" stroke-miterlimit="10" x1="316.755" y1="270.717" x2="278.522" y2="270.717"/>
	
		<line fill="none" stroke="#030303" stroke-width="0.0283" stroke-linecap="round" stroke-linejoin="round" stroke-miterlimit="10" x1="307.249" y1="296.206" x2="307.249" y2="245.229"/>
	
		<line fill="none" stroke="#030303" stroke-width="0.0283" stroke-linecap="round" stroke-linejoin="round" stroke-miterlimit="10" x1="310.382" y1="296.206" x2="310.382" y2="245.229"/>
	
		<line fill="none" stroke="#030303" stroke-width="0.0283" stroke-linecap="round" stroke-linejoin="round" stroke-miterlimit="10" x1="313.622" y1="296.206" x2="313.622" y2="245.229"/>
	
		<line fill="none" stroke="#030303" stroke-width="0.0283" stroke-linecap="round" stroke-linejoin="round" stroke-miterlimit="10" x1="304.011" y1="296.206" x2="304.011" y2="245.229"/>
	
		<line fill="none" stroke="#030303" stroke-width="0.0283" stroke-linecap="round" stroke-linejoin="round" stroke-miterlimit="10" x1="300.878" y1="296.206" x2="300.878" y2="245.229"/>
	
		<line fill="none" stroke="#030303" stroke-width="0.0283" stroke-linecap="round" stroke-linejoin="round" stroke-miterlimit="10" x1="297.638" y1="296.206" x2="297.638" y2="245.229"/>
	
		<line fill="none" stroke="#030303" stroke-width="0.0283" stroke-linecap="round" stroke-linejoin="round" stroke-miterlimit="10" x1="294.505" y1="296.206" x2="294.505" y2="245.229"/>
	
		<line fill="none" stroke="#030303" stroke-width="0.0283" stroke-linecap="round" stroke-linejoin="round" stroke-miterlimit="10" x1="291.267" y1="296.206" x2="291.267" y2="245.229"/>
	
		<line fill="none" stroke="#030303" stroke-width="0.0283" stroke-linecap="round" stroke-linejoin="round" stroke-miterlimit="10" x1="288.134" y1="296.206" x2="288.134" y2="245.229"/>
	
		<line fill="none" stroke="#030303" stroke-width="0.0283" stroke-linecap="round" stroke-linejoin="round" stroke-miterlimit="10" x1="284.894" y1="296.206" x2="284.894" y2="245.229"/>
	
		<line fill="none" stroke="#030303" stroke-width="0.0283" stroke-linecap="round" stroke-linejoin="round" stroke-miterlimit="10" x1="281.761" y1="296.206" x2="281.761" y2="245.229"/>
	
		<circle fill="none" stroke="#030303" stroke-width="0.085" stroke-linecap="round" stroke-linejoin="round" stroke-miterlimit="10" cx="291.052" cy="440.062" r="5.076"/>
	
		<polyline fill="none" stroke="#030303" stroke-width="0.085" stroke-linecap="round" stroke-linejoin="round" stroke-miterlimit="10" points="
		299.259,432.501 301.743,436.929 297.313,439.414 294.831,434.986 299.259,432.501 	"/>
	
		<line fill="none" stroke="#030303" stroke-width="0.0283" stroke-linecap="round" stroke-linejoin="round" stroke-miterlimit="10" x1="298.718" y1="432.826" x2="301.202" y2="437.253"/>
	
		<polyline fill="none" stroke="#030303" stroke-width="0.085" stroke-linecap="round" stroke-linejoin="round" stroke-miterlimit="10" points="
		280.358,443.085 282.843,447.513 287.271,445.029 284.786,440.601 280.358,443.085 	"/>
	
		<line fill="none" stroke="#030303" stroke-width="0.0283" stroke-linecap="round" stroke-linejoin="round" stroke-miterlimit="10" x1="280.897" y1="442.761" x2="283.382" y2="447.298"/>
	
		<polyline fill="none" stroke="#030303" stroke-width="0.085" stroke-linecap="round" stroke-linejoin="round" stroke-miterlimit="10" points="
		283.489,431.853 287.917,429.371 290.403,433.798 285.976,436.281 283.489,431.853 	"/>
	
		<line fill="none" stroke="#030303" stroke-width="0.0283" stroke-linecap="round" stroke-linejoin="round" stroke-miterlimit="10" x1="283.813" y1="432.394" x2="288.243" y2="429.91"/>
	
		<polyline fill="none" stroke="#030303" stroke-width="0.085" stroke-linecap="round" stroke-linejoin="round" stroke-miterlimit="10" points="
		294.075,450.753 298.61,448.269 296.017,443.734 291.589,446.326 294.075,450.753 	"/>
	
		<line fill="none" stroke="#030303" stroke-width="0.0283" stroke-linecap="round" stroke-linejoin="round" stroke-miterlimit="10" x1="293.749" y1="450.214" x2="298.286" y2="447.621"/>
	
		<polyline fill="none" stroke="#030303" stroke-width="0.085" stroke-linecap="round" stroke-linejoin="round" stroke-miterlimit="10" points="
		297.638,480.777 292.562,480.777 292.562,513.718 297.638,513.718 297.638,480.777 	"/>
	
		<line fill="none" stroke="#030303" stroke-width="0.0283" stroke-linecap="round" stroke-linejoin="round" stroke-miterlimit="10" x1="355.526" y1="361.33" x2="355.526" y2="454.857"/>
	
		<line fill="none" stroke="#030303" stroke-width="0.0283" stroke-linecap="round" stroke-linejoin="round" stroke-miterlimit="10" x1="319.562" y1="410.792" x2="359.522" y2="410.792"/>
	
		<line fill="none" stroke="#030303" stroke-width="0.0283" stroke-linecap="round" stroke-linejoin="round" stroke-miterlimit="10" x1="319.562" y1="422.134" x2="359.522" y2="422.134"/>
	
		<line fill="none" stroke="#030303" stroke-width="0.0283" stroke-linecap="round" stroke-linejoin="round" stroke-miterlimit="10" x1="319.562" y1="433.906" x2="359.522" y2="433.906"/>
	
		<line fill="none" stroke="#030303" stroke-width="0.0283" stroke-linecap="round" stroke-linejoin="round" stroke-miterlimit="10" x1="319.562" y1="444.382" x2="359.522" y2="444.382"/>
	
		<line fill="none" stroke="#030303" stroke-width="0.0283" stroke-linecap="round" stroke-linejoin="round" stroke-miterlimit="10" x1="319.562" y1="390.49" x2="359.522" y2="390.49"/>
	<polyline fill="#030303" stroke="#030303" stroke-width="0.2551" stroke-linecap="square" stroke-miterlimit="10" points="
		319.562,387.033 319.562,390.166 318.267,390.166 318.267,387.033 315.134,387.033 315.134,385.738 318.267,385.738 
		318.267,382.498 319.562,382.498 319.562,385.738 322.694,385.738 322.694,387.033 319.562,387.033 	"/>
	
		<line fill="none" stroke="#030303" stroke-width="0.0283" stroke-linecap="round" stroke-linejoin="round" stroke-miterlimit="10" x1="322.694" y1="386.386" x2="359.522" y2="386.386"/>
	
		<line fill="none" stroke="#030303" stroke-width="0.0283" stroke-linecap="round" stroke-linejoin="round" stroke-miterlimit="10" stroke-dasharray="0.5669,1.1339" x1="275.714" y1="385.738" x2="235.755" y2="319.209"/>
	
		<line fill="none" stroke="#030303" stroke-width="0.0283" stroke-linecap="round" stroke-linejoin="round" stroke-miterlimit="10" stroke-dasharray="0.5669,1.1339" x1="235.755" y1="385.738" x2="275.714" y2="319.209"/>
	
		<line fill="none" stroke="#030303" stroke-width="0.0283" stroke-linecap="round" stroke-linejoin="round" stroke-miterlimit="10" stroke-dasharray="0.5669,1.1339" x1="319.562" y1="454.857" x2="359.522" y2="319.209"/>
	
		<line fill="none" stroke="#030303" stroke-width="0.0283" stroke-linecap="round" stroke-linejoin="round" stroke-miterlimit="10" stroke-dasharray="0.5669,1.1339" x1="359.522" y1="454.857" x2="319.562" y2="319.209"/>
	
		<line fill="none" stroke="#030303" stroke-width="0.0283" stroke-linecap="round" stroke-linejoin="round" stroke-miterlimit="10" stroke-dasharray="0.5669,1.1339" x1="275.714" y1="456.044" x2="235.755" y2="522.681"/>
	
		<line fill="none" stroke="#030303" stroke-width="0.0283" stroke-linecap="round" stroke-linejoin="round" stroke-miterlimit="10" stroke-dasharray="0.5669,1.1339" x1="235.755" y1="456.044" x2="275.714" y2="522.681"/>
	
		<polyline fill="none" stroke="#070707" stroke-width="0.2551" stroke-linecap="round" stroke-linejoin="round" stroke-miterlimit="10" points="
		307.249,315.322 307.249,300.093 378.638,300.093 378.638,322.557 390.087,322.557 390.087,379.15 378.638,379.15 378.638,541.798 
		316.97,541.798 316.97,526.462 	"/>
	
		<polyline fill="none" stroke="#070707" stroke-width="0.2551" stroke-linecap="round" stroke-linejoin="round" stroke-miterlimit="10" points="
		278.306,526.462 278.306,541.798 216.638,541.798 216.638,427.318 231.976,427.318 	"/>
	
		<polyline fill="none" stroke="#070707" stroke-width="0.2551" stroke-linecap="round" stroke-linejoin="round" stroke-miterlimit="10" points="
		231.976,414.574 216.638,414.574 216.638,300.093 288.134,300.093 288.134,315.322 	"/>
	
		<polyline fill="none" stroke="#070707" stroke-width="0.2551" stroke-linecap="round" stroke-linejoin="round" stroke-miterlimit="10" points="
		278.306,537.91 297.638,537.91 297.638,541.798 278.306,541.798 278.306,537.91 	"/>
	
		<polyline fill="none" stroke="#070707" stroke-width="0.2551" stroke-linecap="round" stroke-linejoin="round" stroke-miterlimit="10" points="
		316.97,537.91 315.999,537.91 315.999,541.798 316.97,541.798 316.97,537.91 	"/>
	
		<polyline fill="none" stroke="#070707" stroke-width="0.1984" stroke-linecap="round" stroke-linejoin="round" stroke-miterlimit="10" points="
		296.665,543.634 316.97,543.634 316.97,542.445 296.665,542.445 296.665,543.634 	"/>
	
		<line fill="none" stroke="#030303" stroke-width="0.085" stroke-linecap="round" stroke-linejoin="round" stroke-miterlimit="10" x1="320.858" y1="544.929" x2="274.526" y2="544.929"/>
	
		<line fill="none" stroke="#030303" stroke-width="0.085" stroke-linecap="round" stroke-linejoin="round" stroke-miterlimit="10" x1="320.858" y1="548.169" x2="274.526" y2="548.169"/>
	
		<line fill="none" stroke="#030303" stroke-width="0.0283" stroke-linecap="round" stroke-linejoin="round" stroke-miterlimit="10" x1="296.665" y1="542.986" x2="277.442" y2="542.986"/>
	
		<line fill="none" stroke="#030303" stroke-width="0.085" stroke-linecap="round" stroke-linejoin="round" stroke-miterlimit="10" x1="315.999" y1="541.798" x2="315.999" y2="542.445"/>
	
		<line fill="none" stroke="#030303" stroke-width="0.085" stroke-linecap="round" stroke-linejoin="round" stroke-miterlimit="10" x1="297.638" y1="541.798" x2="297.638" y2="542.445"/>
	
		<polyline fill="none" stroke="#030303" stroke-width="0.085" stroke-linecap="round" stroke-linejoin="round" stroke-miterlimit="10" points="
		320.858,541.798 320.858,551.3 274.526,551.3 274.526,541.798 	"/>
	
		<line fill="none" stroke="#030303" stroke-width="0.085" stroke-linecap="round" stroke-linejoin="round" stroke-miterlimit="10" x1="315.999" y1="537.91" x2="297.638" y2="537.91"/>
	
		<line fill="none" stroke="#030303" stroke-width="0.085" stroke-linecap="round" stroke-linejoin="round" stroke-miterlimit="10" x1="316.97" y1="522.681" x2="278.306" y2="522.681"/>
	
		<line fill="none" stroke="#030303" stroke-width="0.085" stroke-linecap="round" stroke-linejoin="round" stroke-miterlimit="10" x1="216.638" y1="414.574" x2="216.638" y2="427.318"/>
	
		<polyline fill="none" stroke="#070707" stroke-width="0.2551" stroke-linecap="round" stroke-linejoin="round" stroke-miterlimit="10" points="
		235.755,414.574 235.755,415.437 231.976,415.437 231.976,414.574 235.755,414.574 	"/>
	
		<polyline fill="none" stroke="#070707" stroke-width="0.2551" stroke-linecap="round" stroke-linejoin="round" stroke-miterlimit="10" points="
		235.755,427.318 235.755,426.345 231.976,426.345 231.976,427.318 235.755,427.318 	"/>
	
		<line fill="none" stroke="#030303" stroke-width="0.085" stroke-linecap="round" stroke-linejoin="round" stroke-miterlimit="10" x1="235.755" y1="426.345" x2="235.755" y2="415.437"/>
	
		<polyline fill="none" stroke="#070707" stroke-width="0.1984" stroke-linecap="round" stroke-linejoin="round" stroke-miterlimit="10" points="
		231.325,425.697 232.298,425.697 232.298,416.085 231.325,416.085 231.325,425.697 	"/>
	
		<line fill="none" stroke="#070707" stroke-width="0.1984" stroke-linecap="round" stroke-linejoin="round" stroke-miterlimit="10" x1="231.325" y1="426.777" x2="231.325" y2="415.005"/>
	
		<line fill="none" stroke="#030303" stroke-width="0.085" stroke-linecap="round" stroke-linejoin="round" stroke-miterlimit="10" x1="212.858" y1="412.953" x2="216.638" y2="412.953"/>
	
		<line fill="none" stroke="#030303" stroke-width="0.085" stroke-linecap="round" stroke-linejoin="round" stroke-miterlimit="10" x1="212.858" y1="428.83" x2="216.638" y2="428.83"/>
	
		<line fill="none" stroke="#030303" stroke-width="0.085" stroke-linecap="round" stroke-linejoin="round" stroke-miterlimit="10" x1="307.249" y1="300.093" x2="288.134" y2="300.093"/>
	
		<polyline fill="none" stroke="#070707" stroke-width="0.2551" stroke-linecap="round" stroke-linejoin="round" stroke-miterlimit="10" points="
		307.249,319.209 306.278,319.209 306.278,315.322 307.249,315.322 307.249,319.209 	"/>
	
		<polyline fill="none" stroke="#070707" stroke-width="0.2551" stroke-linecap="round" stroke-linejoin="round" stroke-miterlimit="10" points="
		288.134,319.209 288.999,319.209 288.999,315.322 288.134,315.322 288.134,319.209 	"/>
	
		<polyline fill="none" stroke="#070707" stroke-width="0.1984" stroke-linecap="round" stroke-linejoin="round" stroke-miterlimit="10" points="
		289.646,314.673 289.646,315.646 305.63,315.646 305.63,314.673 289.646,314.673 	"/>
	
		<line fill="none" stroke="#070707" stroke-width="0.1984" stroke-linecap="round" stroke-linejoin="round" stroke-miterlimit="10" x1="288.565" y1="314.673" x2="306.71" y2="314.673"/>
	
		<line fill="none" stroke="#070707" stroke-width="0.1984" stroke-linecap="round" stroke-linejoin="round" stroke-miterlimit="10" x1="297.638" y1="315.646" x2="297.638" y2="314.673"/>
	
		<line fill="none" stroke="#030303" stroke-width="0.085" stroke-linecap="round" stroke-linejoin="round" stroke-miterlimit="10" x1="310.382" y1="296.206" x2="310.382" y2="300.093"/>
	
		<line fill="none" stroke="#030303" stroke-width="0.085" stroke-linecap="round" stroke-linejoin="round" stroke-miterlimit="10" x1="284.894" y1="296.206" x2="284.894" y2="300.093"/>
	
		<line fill="none" stroke="#030303" stroke-width="0.0283" stroke-linecap="round" stroke-linejoin="round" stroke-miterlimit="10" x1="316.755" y1="264.345" x2="278.522" y2="264.345"/>
	
		<line fill="none" stroke="#030303" stroke-width="0.0283" stroke-linecap="round" stroke-linejoin="round" stroke-miterlimit="10" x1="316.755" y1="257.973" x2="278.522" y2="257.973"/>
	
		<line fill="none" stroke="#030303" stroke-width="0.0283" stroke-linecap="round" stroke-linejoin="round" stroke-miterlimit="10" x1="316.755" y1="251.601" x2="278.522" y2="251.601"/>
	
		<line fill="none" stroke="#030303" stroke-width="0.3402" stroke-linecap="round" stroke-linejoin="round" stroke-miterlimit="10" x1="168.146" y1="205.321" x2="420.759" y2="205.321"/>
	
		<line fill="none" stroke="#030303" stroke-width="0.1701" stroke-linecap="round" stroke-linejoin="round" stroke-miterlimit="10" x1="274.31" y1="200.244" x2="274.31" y2="205.321"/>
	
		<line fill="none" stroke="#030303" stroke-width="0.1701" stroke-linecap="round" stroke-linejoin="round" stroke-miterlimit="10" x1="321.075" y1="202.728" x2="274.31" y2="202.728"/>
	
		<polyline fill="none" stroke="#030303" stroke-width="0.1701" stroke-linecap="round" stroke-linejoin="round" stroke-miterlimit="10" points="
		274.31,200.244 321.075,200.244 321.075,205.321 	"/>
	
		<line fill="none" stroke="#070707" stroke-width="0.1417" stroke-linecap="round" stroke-linejoin="round" stroke-miterlimit="10" x1="215.343" y1="123.672" x2="379.933" y2="123.672"/>
	
		<polyline fill="none" stroke="#070707" stroke-width="0.0283" stroke-linecap="round" stroke-linejoin="round" stroke-miterlimit="10" points="
		168.146,200.244 212.858,200.244 212.858,205.321 	"/>
	
		<line fill="none" stroke="#070707" stroke-width="0.0283" stroke-linecap="round" stroke-linejoin="round" stroke-miterlimit="10" x1="168.146" y1="200.244" x2="168.146" y2="205.321"/>
	
		<line fill="none" stroke="#070707" stroke-width="0.1417" stroke-linecap="round" stroke-linejoin="round" stroke-miterlimit="10" x1="379.933" y1="123.672" x2="379.933" y2="205.321"/>
	
		<line fill="none" stroke="#070707" stroke-width="0.1417" stroke-linecap="round" stroke-linejoin="round" stroke-miterlimit="10" x1="215.343" y1="205.321" x2="215.343" y2="123.672"/>
	
		<polyline fill="none" stroke="#070707" stroke-width="0.1134" stroke-linecap="round" stroke-linejoin="round" stroke-miterlimit="10" points="
		304.333,175.404 304.333,200.244 290.942,200.244 290.942,175.404 	"/>
	
		<polyline fill="none" stroke="#070707" stroke-width="0.085" stroke-linecap="round" stroke-linejoin="round" stroke-miterlimit="10" points="
		303.47,175.621 303.47,199.272 291.806,199.272 291.806,175.621 	"/>
	
		<polyline fill="none" stroke="#070707" stroke-width="0.085" stroke-linecap="round" stroke-linejoin="round" stroke-miterlimit="10" points="
		248.931,178.537 241.261,178.537 241.261,186.205 248.931,186.205 248.931,178.537 	"/>
	
		<polyline fill="none" stroke="#070707" stroke-width="0.085" stroke-linecap="round" stroke-linejoin="round" stroke-miterlimit="10" points="
		248.931,147.216 241.261,147.216 241.261,154.776 248.931,154.776 248.931,147.216 	"/>
	
		<line fill="none" stroke="#070707" stroke-width="0.0283" stroke-linecap="round" stroke-linejoin="round" stroke-miterlimit="10" x1="245.042" y1="178.86" x2="245.042" y2="185.772"/>
	
		<line fill="none" stroke="#070707" stroke-width="0.0283" stroke-linecap="round" stroke-linejoin="round" stroke-miterlimit="10" x1="241.587" y1="182.316" x2="248.499" y2="182.316"/>
	
		<polyline fill="none" stroke="#070707" stroke-width="0.085" stroke-linecap="round" stroke-linejoin="round" stroke-miterlimit="10" points="
		248.499,178.86 241.587,178.86 241.587,185.772 248.499,185.772 248.499,178.86 	"/>
	
		<line fill="none" stroke="#070707" stroke-width="0.0283" stroke-linecap="round" stroke-linejoin="round" stroke-miterlimit="10" x1="245.042" y1="147.541" x2="245.042" y2="154.452"/>
	
		<line fill="none" stroke="#070707" stroke-width="0.0283" stroke-linecap="round" stroke-linejoin="round" stroke-miterlimit="10" x1="241.587" y1="150.996" x2="248.499" y2="150.996"/>
	
		<polyline fill="none" stroke="#070707" stroke-width="0.085" stroke-linecap="round" stroke-linejoin="round" stroke-miterlimit="10" points="
		248.499,147.541 241.587,147.541 241.587,154.452 248.499,154.452 248.499,147.541 	"/>
	
		<path fill="none" stroke="#070707" stroke-width="0.1134" stroke-linecap="round" stroke-linejoin="round" stroke-miterlimit="10" d="
		M304.335,175.404c0-3.698-2.998-6.696-6.695-6.696c-3.699,0-6.697,2.998-6.697,6.696l0,0"/>
	
		<path fill="none" stroke="#070707" stroke-width="0.085" stroke-linecap="round" stroke-linejoin="round" stroke-miterlimit="10" d="
		M303.362,175.621c0-3.162-2.562-5.724-5.723-5.724c-3.162,0-5.725,2.562-5.725,5.724l0,0"/>
	
		<polyline fill="none" stroke="#070707" stroke-width="0.085" stroke-linecap="round" stroke-linejoin="round" stroke-miterlimit="10" points="
		275.175,147.216 267.505,147.216 267.505,154.776 275.175,154.776 275.175,147.216 	"/>
	
		<line fill="none" stroke="#070707" stroke-width="0.0283" stroke-linecap="round" stroke-linejoin="round" stroke-miterlimit="10" x1="271.394" y1="147.541" x2="271.394" y2="154.452"/>
	
		<line fill="none" stroke="#070707" stroke-width="0.0283" stroke-linecap="round" stroke-linejoin="round" stroke-miterlimit="10" x1="267.938" y1="150.996" x2="274.849" y2="150.996"/>
	
		<polyline fill="none" stroke="#070707" stroke-width="0.085" stroke-linecap="round" stroke-linejoin="round" stroke-miterlimit="10" points="
		274.849,147.541 267.938,147.541 267.938,154.452 274.849,154.452 274.849,147.541 	"/>
	
		<polyline fill="none" stroke="#070707" stroke-width="0.085" stroke-linecap="round" stroke-linejoin="round" stroke-miterlimit="10" points="
		275.175,178.537 267.505,178.537 267.505,186.205 275.175,186.205 275.175,178.537 	"/>
	
		<line fill="none" stroke="#070707" stroke-width="0.0283" stroke-linecap="round" stroke-linejoin="round" stroke-miterlimit="10" x1="271.394" y1="178.86" x2="271.394" y2="185.772"/>
	
		<line fill="none" stroke="#070707" stroke-width="0.0283" stroke-linecap="round" stroke-linejoin="round" stroke-miterlimit="10" x1="267.938" y1="182.316" x2="274.849" y2="182.316"/>
	
		<polyline fill="none" stroke="#070707" stroke-width="0.085" stroke-linecap="round" stroke-linejoin="round" stroke-miterlimit="10" points="
		274.849,178.86 267.938,178.86 267.938,185.772 274.849,185.772 274.849,178.86 	"/>
	
		<polyline fill="none" stroke="#070707" stroke-width="0.085" stroke-linecap="round" stroke-linejoin="round" stroke-miterlimit="10" points="
		346.454,178.537 354.122,178.537 354.122,186.205 346.454,186.205 346.454,178.537 	"/>
	
		<polyline fill="none" stroke="#070707" stroke-width="0.085" stroke-linecap="round" stroke-linejoin="round" stroke-miterlimit="10" points="
		346.454,147.216 354.122,147.216 354.122,154.776 346.454,154.776 346.454,147.216 	"/>
	
		<line fill="none" stroke="#070707" stroke-width="0.0283" stroke-linecap="round" stroke-linejoin="round" stroke-miterlimit="10" x1="350.233" y1="178.86" x2="350.233" y2="185.772"/>
	
		<line fill="none" stroke="#070707" stroke-width="0.0283" stroke-linecap="round" stroke-linejoin="round" stroke-miterlimit="10" x1="353.688" y1="182.316" x2="346.778" y2="182.316"/>
	
		<polyline fill="none" stroke="#070707" stroke-width="0.085" stroke-linecap="round" stroke-linejoin="round" stroke-miterlimit="10" points="
		346.778,178.86 353.688,178.86 353.688,185.772 346.778,185.772 346.778,178.86 	"/>
	
		<line fill="none" stroke="#070707" stroke-width="0.0283" stroke-linecap="round" stroke-linejoin="round" stroke-miterlimit="10" x1="350.233" y1="147.541" x2="350.233" y2="154.452"/>
	
		<line fill="none" stroke="#070707" stroke-width="0.0283" stroke-linecap="round" stroke-linejoin="round" stroke-miterlimit="10" x1="353.688" y1="150.996" x2="346.778" y2="150.996"/>
	
		<polyline fill="none" stroke="#070707" stroke-width="0.085" stroke-linecap="round" stroke-linejoin="round" stroke-miterlimit="10" points="
		346.778,147.541 353.688,147.541 353.688,154.452 346.778,154.452 346.778,147.541 	"/>
	
		<polyline fill="none" stroke="#070707" stroke-width="0.085" stroke-linecap="round" stroke-linejoin="round" stroke-miterlimit="10" points="
		320.103,147.216 327.771,147.216 327.771,154.776 320.103,154.776 320.103,147.216 	"/>
	
		<line fill="none" stroke="#070707" stroke-width="0.0283" stroke-linecap="round" stroke-linejoin="round" stroke-miterlimit="10" x1="323.989" y1="147.541" x2="323.989" y2="154.452"/>
	
		<line fill="none" stroke="#070707" stroke-width="0.0283" stroke-linecap="round" stroke-linejoin="round" stroke-miterlimit="10" x1="327.444" y1="150.996" x2="320.534" y2="150.996"/>
	
		<polyline fill="none" stroke="#070707" stroke-width="0.085" stroke-linecap="round" stroke-linejoin="round" stroke-miterlimit="10" points="
		320.534,147.541 327.444,147.541 327.444,154.452 320.534,154.452 320.534,147.541 	"/>
	
		<polyline fill="none" stroke="#070707" stroke-width="0.085" stroke-linecap="round" stroke-linejoin="round" stroke-miterlimit="10" points="
		320.103,178.537 327.771,178.537 327.771,186.205 320.103,186.205 320.103,178.537 	"/>
	
		<line fill="none" stroke="#070707" stroke-width="0.0283" stroke-linecap="round" stroke-linejoin="round" stroke-miterlimit="10" x1="323.989" y1="178.86" x2="323.989" y2="185.772"/>
	
		<line fill="none" stroke="#070707" stroke-width="0.0283" stroke-linecap="round" stroke-linejoin="round" stroke-miterlimit="10" x1="327.444" y1="182.316" x2="320.534" y2="182.316"/>
	
		<polyline fill="none" stroke="#070707" stroke-width="0.085" stroke-linecap="round" stroke-linejoin="round" stroke-miterlimit="10" points="
		320.534,178.86 327.444,178.86 327.444,185.772 320.534,185.772 320.534,178.86 	"/>
	
		<line fill="none" stroke="#070707" stroke-width="0.0283" stroke-linecap="round" stroke-linejoin="round" stroke-miterlimit="10" x1="297.638" y1="199.272" x2="297.638" y2="169.788"/>
	
		<polyline fill="none" stroke="#070707" stroke-width="0.085" stroke-linecap="round" stroke-linejoin="round" stroke-miterlimit="10" points="
		301.526,147.216 293.858,147.216 293.858,154.776 301.526,154.776 301.526,147.216 	"/>
	
		<line fill="none" stroke="#070707" stroke-width="0.0283" stroke-linecap="round" stroke-linejoin="round" stroke-miterlimit="10" x1="297.638" y1="147.541" x2="297.638" y2="154.452"/>
	
		<line fill="none" stroke="#070707" stroke-width="0.0283" stroke-linecap="round" stroke-linejoin="round" stroke-miterlimit="10" x1="294.183" y1="150.996" x2="301.093" y2="150.996"/>
	
		<polyline fill="none" stroke="#070707" stroke-width="0.085" stroke-linecap="round" stroke-linejoin="round" stroke-miterlimit="10" points="
		301.093,147.541 294.183,147.541 294.183,154.452 301.093,154.452 301.093,147.541 	"/>
	
		<polyline fill="none" stroke="#070707" stroke-width="0.0283" stroke-linecap="round" stroke-linejoin="round" stroke-miterlimit="10" points="
		383.821,101.424 374.966,101.424 374.966,123.672 	"/>
	
		<line fill="none" stroke="#070707" stroke-width="0.0283" stroke-linecap="round" stroke-linejoin="round" stroke-miterlimit="10" x1="386.522" y1="205.224" x2="386.306" y2="197.652"/>
	
		<line fill="none" stroke="#070707" stroke-width="0.0283" stroke-linecap="round" stroke-linejoin="round" stroke-miterlimit="10" x1="386.089" y1="189.337" x2="383.821" y2="101.424"/>
	
		<line fill="none" stroke="#070707" stroke-width="0.085" stroke-linecap="round" stroke-linejoin="round" stroke-miterlimit="10" x1="215.343" y1="129.721" x2="211.13" y2="130.909"/>
	
		<polyline fill="none" stroke="#070707" stroke-width="0.085" stroke-linecap="round" stroke-linejoin="round" stroke-miterlimit="10" points="
		209.403,131.34 208.646,131.557 208.646,133.932 215.343,133.932 	"/>
	
		<path fill="none" stroke="#070707" stroke-width="0.085" stroke-linecap="round" stroke-linejoin="round" stroke-miterlimit="10" d="
		M209.433,131.348c0.123,0.461,0.598,0.734,1.059,0.611c0.461-0.124,0.734-0.598,0.609-1.058"/>
	
		<polyline fill="none" stroke="#070707" stroke-width="0.085" stroke-linecap="round" stroke-linejoin="round" stroke-miterlimit="10" points="
		344.511,118.057 220.202,118.057 220.202,123.672 	"/>
	
		<line fill="none" stroke="#070707" stroke-width="0.085" stroke-linecap="round" stroke-linejoin="round" stroke-miterlimit="10" x1="344.511" y1="123.672" x2="344.511" y2="118.057"/>
	
		<line fill="none" stroke="#070707" stroke-width="0.0283" stroke-linecap="round" stroke-linejoin="round" stroke-miterlimit="10" x1="386.306" y1="197.652" x2="384.47" y2="197.652"/>
	
		<path fill="none" stroke="#070707" stroke-width="0.0283" stroke-linecap="round" stroke-linejoin="round" stroke-miterlimit="10" d="
		M383.821,197.112c0.008,0.299,0.365,0.548,0.664,0.54l0,0"/>
	
		<line fill="none" stroke="#070707" stroke-width="0.0283" stroke-linecap="round" stroke-linejoin="round" stroke-miterlimit="10" x1="383.821" y1="197.112" x2="383.604" y2="189.984"/>
	
		<path fill="none" stroke="#070707" stroke-width="0.0283" stroke-linecap="round" stroke-linejoin="round" stroke-miterlimit="10" d="
		M383.714,189.999"/>
	
		<path fill="none" stroke="#070707" stroke-width="0.0283" stroke-linecap="round" stroke-linejoin="round" stroke-miterlimit="10" d="
		M384.255,189.337c-0.297,0.009-0.656,0.35-0.65,0.647"/>
	
		<line fill="none" stroke="#070707" stroke-width="0.0283" stroke-linecap="round" stroke-linejoin="round" stroke-miterlimit="10" x1="384.255" y1="189.337" x2="386.089" y2="189.337"/>
</g>
</svg>
