<?xml version="1.0" encoding="utf-8"?>
<!-- Generator: Adobe Illustrator 16.0.0, SVG Export Plug-In . SVG Version: 6.00 Build 0)  -->
<!DOCTYPE svg PUBLIC "-//W3C//DTD SVG 1.1//EN" "http://www.w3.org/Graphics/SVG/1.1/DTD/svg11.dtd">
<svg version="1.1" id="Layer_1" xmlns="http://www.w3.org/2000/svg" xmlns:xlink="http://www.w3.org/1999/xlink" x="0px" y="0px"
	 width="841.89px" height="595.281px" viewBox="0 0 841.89 595.281" enable-background="new 0 0 841.89 595.281"
	 xml:space="preserve">
<g id="Calque_1">
	<g>
		<path d="M252.597,316.556h3.141v5.482h5.781v-5.482h3.141v14.283h-3.141v-6.16h-5.781v6.16h-3.141V316.556z"/>
		<path d="M269.458,326.359c0.08,1.801,0.96,2.621,2.541,2.621c1.14,0,2.06-0.701,2.24-1.342h2.5c-0.8,2.441-2.5,3.482-4.841,3.482
			c-3.261,0-5.281-2.242-5.281-5.441c0-3.102,2.141-5.461,5.281-5.461c3.521,0,5.221,2.959,5.021,6.141H269.458L269.458,326.359z
			 M274.078,324.558c-0.26-1.438-0.88-2.199-2.26-2.199c-1.8,0-2.32,1.4-2.36,2.199H274.078z"/>
		<path d="M278.597,320.498h2.701v1.92h0.04c0.52-1.299,1.92-2.199,3.301-2.199c0.2,0,0.44,0.039,0.62,0.102v2.641
			c-0.26-0.061-0.68-0.102-1.021-0.102c-2.08,0-2.8,1.502-2.8,3.32v4.66h-2.841V320.498z"/>
		<path d="M285.736,328.699l5.381-6.061h-4.981v-2.141h8.722v2.141l-5.381,6.061h5.761v2.141h-9.502V328.699z"/>
		<path d="M296.836,316.556h2.841v14.283h-2.841V316.556z"/>
		<path d="M304.837,318.898h-2.841v-2.342h2.841V318.898z M301.997,320.498h2.841v10.342h-2.841V320.498z"/>
		<path d="M314.118,324.138c-0.18-1.158-0.92-1.779-2.1-1.779c-1.821,0-2.421,1.842-2.421,3.359c0,1.48,0.58,3.264,2.361,3.264
			c1.32,0,2.08-0.842,2.26-2.104h2.741c-0.36,2.742-2.261,4.242-4.981,4.242c-3.121,0-5.221-2.201-5.221-5.301
			c0-3.223,1.92-5.602,5.281-5.602c2.44,0,4.681,1.279,4.861,3.92H314.118L314.118,324.138z"/>
		<path d="M318.556,316.556h2.841v5.383h0.06c0.72-1.16,1.96-1.721,3.021-1.721c3.021,0,3.781,1.699,3.781,4.262v6.359h-2.84V325
			c0-1.701-0.5-2.541-1.821-2.541c-1.54,0-2.2,0.859-2.2,2.961v5.42h-2.841L318.556,316.556L318.556,316.556z"/>
		<path d="M330.556,327.759h3.141v3.08c0,1.842-1.4,3.063-3.121,3.322v-1.441c0.84-0.141,1.46-1,1.42-1.881h-1.44V327.759z"/>
		<path d="M341.836,316.556h3.141v14.283h-3.141V316.556z"/>
		<path d="M347.436,316.556h2.841v5.383h0.06c0.72-1.16,1.96-1.721,3.021-1.721c3.021,0,3.781,1.699,3.781,4.262v6.359h-2.84V325
			c0-1.701-0.5-2.541-1.821-2.541c-1.54,0-2.2,0.859-2.2,2.961v5.42h-2.841L347.436,316.556L347.436,316.556z"/>
		<path d="M359.295,320.498h2.701v1.92h0.04c0.52-1.299,1.92-2.199,3.301-2.199c0.2,0,0.44,0.039,0.62,0.102v2.641
			c-0.26-0.061-0.68-0.102-1.02-0.102c-2.081,0-2.801,1.502-2.801,3.32v4.66h-2.841V320.498z"/>
		<path d="M376.256,316.476l0.18,9.924l3.761-9.924h3.021l0.2,9.844l3.721-9.844h3.041l-6.161,14.363h-2.781l-0.14-10.602
			l-4.041,10.602h-2.7l-0.98-14.363H376.256z"/>
		<path d="M394.457,329.679h-0.04c-0.52,0.861-1.541,1.48-2.88,1.48c-1.841,0-3.221-1.141-3.221-3.199
			c0-2.162,1.36-3.422,4.361-3.742l0.98-0.1c1.061-0.1,1.741-0.24,1.741-1.041c0-0.799-0.601-1.119-1.661-1.119
			c-0.84,0-1.5,0.32-1.64,1.18h-2.741c0.12-0.84,0.54-1.658,1.3-2.26c0.78-0.6,1.88-1,3.341-1c2.641,0,4.161,1.199,4.161,3.061
			c0,0.422-0.06,0.842-0.14,1.279l-0.84,4.742c-0.08,0.398-0.08,0.58-0.08,0.84c0,0.42,0.16,0.699,0.32,0.859v0.18h-2.96
			L394.457,329.679L394.457,329.679z M392.416,328.919c1.28,0,2.42-0.959,2.521-3.041c-1.34,0.34-3.861,0.143-3.861,1.781
			C391.076,328.519,391.636,328.919,392.416,328.919z"/>
		<path d="M401.996,316.476h2.84l-2.601,14.363h-2.82L401.996,316.476z"/>
		<path d="M407.776,317.136h2.761l-0.56,3.063h1.52l-0.34,1.961h-1.561l-0.88,5.121c-0.04,0.279-0.1,0.621-0.1,0.818
			c0,0.4,0.24,0.541,0.64,0.541c0.44,0,0.78-0.141,1.06-0.18l-0.32,2.279c-0.5,0.141-0.98,0.26-1.701,0.26
			c-1.24,0-2.581-0.438-2.581-2.039c0-0.262,0.04-0.541,0.18-1.32l0.92-5.48h-1.521l0.4-1.961h1.5L407.776,317.136z"/>
		<path d="M414.116,326.5c-0.02,0.119-0.04,0.26-0.04,0.58c0,0.898,0.6,1.84,2,1.84c0.88,0,1.581-0.5,1.9-1.1h3.101
			c-0.54,1.68-2.24,3.34-5.141,3.34c-2.92,0-4.621-1.959-4.621-5.16c0-2.701,1.741-6.121,5.602-6.121c2.42,0,4.6,1.459,4.6,4.98
			c0,0.699-0.059,1.199-0.159,1.641H414.116L414.116,326.5z M418.757,324.539v-0.4c0-0.979-0.56-2.02-2.041-2.02
			c-1.46,0-2.201,1.24-2.4,2.42H418.757L418.757,324.539z"/>
		<path d="M430.078,319.917l-0.422,2.922c-0.238-0.061-0.52-0.16-0.898-0.16c-1.162,0-2.182,0.459-2.781,3.34l-0.84,4.82h-2.84
			l1.92-10.641h2.58l-0.52,2.16c1.221-1.941,1.92-2.461,3.461-2.461L430.078,319.917z"/>
		<path d="M444.439,320.638c0-1-0.48-2.041-2.361-2.041c-1.16,0-2.102,0.521-2.102,1.621c0,0.762,0.279,1.182,2.803,2.141
			c2.398,0.922,3.721,2.182,3.721,4.32c0,2.781-1.881,4.521-5.402,4.521c-3.16,0-5.32-1.521-5.32-4.84h2.881
			c0.039,1.801,1.16,2.359,2.561,2.359c1.301,0,2.4-0.602,2.4-1.762c0-1.059-0.5-1.479-2.9-2.438
			c-2.16-0.861-3.621-1.883-3.621-4.063c0-3.002,2.383-4.342,5.063-4.342c5.002,0,5.121,3.441,5.16,4.521H444.439L444.439,320.638z"
			/>
		<path d="M450.716,317.136h2.76l-0.561,3.063h1.521l-0.34,1.961h-1.561l-0.881,5.121c-0.039,0.279-0.1,0.621-0.1,0.818
			c0,0.4,0.24,0.541,0.641,0.541c0.439,0,0.779-0.141,1.059-0.18l-0.318,2.279c-0.5,0.141-0.98,0.26-1.699,0.26
			c-1.24,0-2.582-0.438-2.582-2.039c0-0.262,0.041-0.541,0.182-1.32l0.92-5.48h-1.521l0.398-1.961h1.502L450.716,317.136z"/>
		<path d="M457.056,326.5c-0.021,0.119-0.041,0.26-0.041,0.58c0,0.898,0.602,1.84,2,1.84c0.883,0,1.58-0.5,1.9-1.1h3.102
			c-0.541,1.68-2.238,3.34-5.141,3.34c-2.922,0-4.621-1.959-4.621-5.16c0-2.701,1.74-6.121,5.602-6.121
			c2.422,0,4.602,1.459,4.602,4.98c0,0.699-0.061,1.199-0.16,1.641H457.056L457.056,326.5z M461.697,324.539v-0.4
			c0-0.979-0.561-2.02-2.041-2.02c-1.461,0-2.201,1.24-2.4,2.42H461.697L461.697,324.539z"/>
		<path d="M467.236,320.199h2.801l-1.92,10.641h-2.801L467.236,320.199z M468.037,316.136h2.799l-0.459,2.48h-2.801L468.037,316.136
			z"/>
		<path d="M472.675,320.199h2.602l-0.439,1.92c0.9-1.361,2.121-2.201,3.781-2.201c1.52,0,3.061,0.861,3.061,2.881
			c0,0.84-0.061,1.24-0.201,2.021l-1.119,6.02h-2.82l1.119-5.939c0.102-0.539,0.16-0.959,0.16-1.262c0-1.08-0.799-1.359-1.299-1.359
			c-1.701,0-2.641,1.262-2.961,3.141l-0.98,5.422h-2.82L472.675,320.199z"/>
		<path d="M485.955,326.5c-0.02,0.119-0.039,0.26-0.039,0.58c0,0.898,0.6,1.84,2,1.84c0.881,0,1.58-0.5,1.9-1.1h3.102
			c-0.541,1.68-2.242,3.34-5.143,3.34c-2.92,0-4.621-1.959-4.621-5.16c0-2.701,1.74-6.121,5.602-6.121
			c2.42,0,4.604,1.459,4.604,4.98c0,0.699-0.063,1.199-0.16,1.641H485.955L485.955,326.5z M490.595,324.539v-0.4
			c0-0.979-0.559-2.02-2.039-2.02c-1.461,0-2.199,1.24-2.398,2.42H490.595L490.595,324.539z"/>
		<path d="M501.916,319.917l-0.42,2.922c-0.24-0.061-0.52-0.16-0.9-0.16c-1.16,0-2.18,0.459-2.777,3.34l-0.842,4.82h-2.842
			l1.92-10.641h2.582l-0.52,2.16c1.221-1.941,1.922-2.461,3.461-2.461L501.916,319.917z"/>
		<path d="M510.375,316.476h2.941l-1.1,5.703l5.439-5.703h3.721l-5.98,6.162l4.201,8.201h-3.342l-2.939-6.041l-1.82,1.82
			l-0.74,4.221h-2.979L510.375,316.476z"/>
		<path d="M526.416,319.878c2.781,0,4.902,1.602,4.902,4.98c0,2.24-1.461,6.301-6.162,6.301c-2.682,0-4.9-1.721-4.9-4.98
			C520.255,323.939,521.714,319.878,526.416,319.878z M525.355,328.919c1.66,0,3.082-1.58,3.082-4.102
			c0-1.779-0.941-2.699-2.221-2.699c-1.66,0-3.082,1.58-3.082,4.1C523.134,328,524.076,328.919,525.355,328.919z"/>
		<path d="M534.875,316.476h2.842l-2.602,14.363h-2.82L534.875,316.476z"/>
		<path d="M540.435,316.476h2.842l-2.602,14.363h-2.82L540.435,316.476z"/>
		<path d="M546.294,326.5c-0.02,0.119-0.039,0.26-0.039,0.58c0,0.898,0.602,1.84,2,1.84c0.881,0,1.58-0.5,1.9-1.1h3.102
			c-0.541,1.68-2.242,3.34-5.143,3.34c-2.92,0-4.621-1.959-4.621-5.16c0-2.701,1.74-6.121,5.602-6.121
			c2.42,0,4.604,1.459,4.604,4.98c0,0.699-0.063,1.199-0.16,1.641H546.294L546.294,326.5z M550.935,324.539v-0.4
			c0-0.979-0.559-2.02-2.037-2.02c-1.463,0-2.201,1.24-2.4,2.42H550.935L550.935,324.539z"/>
		<path d="M565.796,320.218l-4.361,4.281l2.303,6.34h-2.9l-1.58-4.68l-1.439,1.42l-0.561,3.26h-2.801l2.6-14.363h2.762l-1.381,7.543
			l3.74-3.801H565.796z"/>
		<path d="M568.455,317.136h2.762l-0.561,3.063h1.52l-0.34,1.961h-1.561l-0.879,5.121c-0.041,0.279-0.102,0.621-0.102,0.818
			c0,0.4,0.24,0.541,0.641,0.541c0.441,0,0.781-0.141,1.061-0.18l-0.32,2.279c-0.5,0.141-0.979,0.26-1.697,0.26
			c-1.24,0-2.582-0.438-2.582-2.039c0-0.262,0.041-0.541,0.182-1.32l0.92-5.48h-1.521l0.4-1.961h1.5L568.455,317.136z"/>
		<path d="M574.253,320.199h2.801l-1.92,10.641h-2.801L574.253,320.199z M575.054,316.136h2.803l-0.461,2.48h-2.801L575.054,316.136
			z"/>
		<path d="M588.255,320.199l-5.102,10.641h-3.039l-1.32-10.641h2.76l0.563,7.52l3.141-7.52H588.255z"/>
		<path d="M586.994,327.839h3.021l-0.58,3h-3.021L586.994,327.839z"/>
		<path d="M242.297,374.099c0,1.9,1.48,2.643,3.161,2.643c1.1,0,2.78-0.32,2.78-1.781c0-1.541-2.14-1.801-4.241-2.359
			c-2.121-0.561-4.261-1.381-4.261-4.063c0-2.92,2.761-4.32,5.341-4.32c2.981,0,5.721,1.301,5.721,4.602h-3.041
			c-0.1-1.721-1.32-2.16-2.821-2.16c-1,0-2.16,0.42-2.16,1.621c0,1.1,0.68,1.238,4.261,2.16c1.04,0.26,4.241,0.92,4.241,4.16
			c0,2.621-2.06,4.58-5.941,4.58c-3.161,0-6.122-1.561-6.082-5.08h3.042V374.099z"/>
		<path d="M255.757,366.898h-2.841v-2.342h2.841V366.898z M252.917,368.498h2.841v10.342h-2.841V368.498z"/>
		<path d="M257.997,368.498h2.701v1.441h0.06c0.72-1.16,1.96-1.721,3.161-1.721c3.021,0,3.781,1.699,3.781,4.26v6.361h-2.84v-5.842
			c0-1.699-0.5-2.539-1.821-2.539c-1.54,0-2.2,0.859-2.2,2.959v5.422h-2.841L257.997,368.498L257.997,368.498z"/>
		<path d="M276.898,372.138c-0.18-1.158-0.92-1.779-2.1-1.779c-1.821,0-2.421,1.842-2.421,3.359c0,1.48,0.58,3.264,2.361,3.264
			c1.32,0,2.08-0.842,2.26-2.104h2.741c-0.36,2.742-2.261,4.242-4.981,4.242c-3.121,0-5.221-2.201-5.221-5.301
			c0-3.223,1.92-5.602,5.281-5.602c2.44,0,4.681,1.279,4.861,3.92H276.898L276.898,372.138z"/>
		<path d="M283.677,374.359c0.08,1.801,0.96,2.621,2.541,2.621c1.14,0,2.06-0.701,2.24-1.342h2.5c-0.8,2.441-2.5,3.482-4.841,3.482
			c-3.261,0-5.281-2.242-5.281-5.441c0-3.102,2.141-5.461,5.281-5.461c3.521,0,5.221,2.959,5.021,6.141H283.677L283.677,374.359z
			 M288.297,372.558c-0.26-1.438-0.88-2.199-2.26-2.199c-1.8,0-2.32,1.4-2.36,2.199H288.297z"/>
		<path d="M292.816,368.498h2.701v1.92h0.04c0.52-1.299,1.92-2.199,3.301-2.199c0.2,0,0.44,0.039,0.62,0.102v2.641
			c-0.26-0.061-0.68-0.102-1.02-0.102c-2.081,0-2.801,1.502-2.801,3.32v4.66h-2.841V368.498z"/>
		<path d="M302.577,374.359c0.08,1.801,0.96,2.621,2.541,2.621c1.14,0,2.06-0.701,2.24-1.342h2.5c-0.8,2.441-2.5,3.482-4.841,3.482
			c-3.261,0-5.281-2.242-5.281-5.441c0-3.102,2.141-5.461,5.281-5.461c3.521,0,5.221,2.959,5.021,6.141H302.577L302.577,374.359z
			 M307.197,372.558c-0.26-1.438-0.88-2.199-2.26-2.199c-1.8,0-2.32,1.4-2.36,2.199H307.197z"/>
		<path d="M311.796,364.556h2.841v14.283h-2.841V364.556z"/>
		<path d="M321.977,380.14c-0.62,1.66-1.6,2.342-3.561,2.342c-0.58,0-1.16-0.039-1.74-0.102v-2.34c0.54,0.039,1.1,0.119,1.66,0.1
			c0.98-0.1,1.3-1.119,0.98-1.939l-3.641-9.701h3.041l2.341,7.082h0.04l2.26-7.082h2.941L321.977,380.14z"/>
		<path d="M326.296,375.759h3.141v3.08c0,1.842-1.4,3.063-3.121,3.322v-1.441c0.84-0.141,1.46-1,1.42-1.881h-1.44V375.759z"/>
		<path d="M342.377,380.14c-0.62,1.66-1.6,2.342-3.561,2.342c-0.58,0-1.16-0.039-1.74-0.102v-2.34c0.54,0.039,1.1,0.119,1.66,0.1
			c0.98-0.1,1.3-1.119,0.98-1.939l-3.641-9.701h3.041l2.341,7.082h0.04l2.26-7.082h2.941L342.377,380.14z"/>
		<path d="M352.677,368.218c3.261,0,5.361,2.16,5.361,5.461c0,3.281-2.101,5.441-5.361,5.441c-3.24,0-5.341-2.16-5.341-5.441
			C347.336,370.378,349.437,368.218,352.677,368.218z M352.677,376.98c1.94,0,2.521-1.66,2.521-3.301c0-1.66-0.581-3.32-2.521-3.32
			c-1.92,0-2.5,1.66-2.5,3.32C350.176,375.32,350.756,376.98,352.677,376.98z"/>
		<path d="M369.578,378.839h-2.701V377.4h-0.06c-0.72,1.16-1.96,1.721-3.161,1.721c-3.021,0-3.781-1.701-3.781-4.262v-6.361h2.841
			v5.842c0,1.699,0.5,2.541,1.82,2.541c1.541,0,2.201-0.859,2.201-2.961v-5.422h2.84L369.578,378.839L369.578,378.839z"/>
		<path d="M371.735,368.498h2.701v1.92h0.04c0.52-1.299,1.92-2.199,3.301-2.199c0.2,0,0.44,0.039,0.62,0.102v2.641
			c-0.26-0.061-0.68-0.102-1.021-0.102c-2.08,0-2.8,1.502-2.8,3.32v4.66h-2.841V368.498z"/>
		<path d="M388.696,364.476l0.18,9.924l3.761-9.924h3.021l0.2,9.844l3.721-9.844h3.041l-6.161,14.363h-2.781l-0.14-10.602
			l-4.041,10.602h-2.7l-0.98-14.363H388.696z"/>
		<path d="M406.896,377.679h-0.04c-0.52,0.861-1.541,1.48-2.88,1.48c-1.841,0-3.221-1.141-3.221-3.199
			c0-2.162,1.36-3.422,4.361-3.742l0.98-0.1c1.061-0.1,1.74-0.24,1.74-1.041c0-0.799-0.6-1.119-1.66-1.119
			c-0.84,0-1.5,0.32-1.64,1.18h-2.741c0.12-0.84,0.54-1.658,1.3-2.26c0.78-0.6,1.88-1,3.341-1c2.641,0,4.161,1.199,4.161,3.061
			c0,0.422-0.06,0.842-0.14,1.279l-0.84,4.742c-0.08,0.398-0.08,0.58-0.08,0.84c0,0.42,0.16,0.699,0.32,0.859v0.18h-2.96
			L406.896,377.679L406.896,377.679z M404.856,376.919c1.28,0,2.42-0.959,2.521-3.041c-1.34,0.34-3.861,0.143-3.861,1.781
			C403.516,376.519,404.076,376.919,404.856,376.919z"/>
		<path d="M414.436,364.476h2.84l-2.601,14.363h-2.82L414.436,364.476z"/>
		<path d="M420.216,365.136h2.76l-0.561,3.063h1.521l-0.34,1.961h-1.561l-0.88,5.121c-0.04,0.279-0.1,0.621-0.1,0.818
			c0,0.4,0.24,0.541,0.641,0.541c0.439,0,0.779-0.141,1.059-0.18l-0.318,2.279c-0.5,0.141-0.98,0.26-1.701,0.26
			c-1.24,0-2.581-0.438-2.581-2.039c0-0.262,0.04-0.541,0.18-1.32l0.92-5.48h-1.521l0.4-1.961h1.5L420.216,365.136z"/>
		<path d="M426.556,374.5c-0.021,0.119-0.041,0.26-0.041,0.58c0,0.898,0.602,1.84,2,1.84c0.883,0,1.582-0.5,1.9-1.1h3.102
			c-0.541,1.68-2.238,3.34-5.141,3.34c-2.922,0-4.621-1.959-4.621-5.16c0-2.701,1.74-6.121,5.602-6.121
			c2.422,0,4.602,1.459,4.602,4.98c0,0.699-0.061,1.199-0.16,1.641H426.556L426.556,374.5z M431.197,372.539v-0.4
			c0-0.979-0.561-2.02-2.041-2.02c-1.461,0-2.201,1.24-2.4,2.42H431.197L431.197,372.539z"/>
		<path d="M442.517,367.917l-0.42,2.922c-0.238-0.061-0.521-0.16-0.898-0.16c-1.162,0-2.184,0.459-2.781,3.34l-0.84,4.82h-2.842
			l1.922-10.641h2.58l-0.521,2.16c1.221-1.941,1.92-2.461,3.461-2.461L442.517,367.917z"/>
		<path d="M456.876,368.638c0-1-0.479-2.041-2.359-2.041c-1.16,0-2.102,0.521-2.102,1.621c0,0.762,0.279,1.182,2.801,2.141
			c2.4,0.922,3.723,2.182,3.723,4.32c0,2.781-1.883,4.521-5.402,4.521c-3.16,0-5.32-1.521-5.32-4.84h2.881
			c0.039,1.801,1.16,2.359,2.561,2.359c1.301,0,2.4-0.602,2.4-1.762c0-1.059-0.5-1.479-2.9-2.438
			c-2.16-0.861-3.621-1.883-3.621-4.063c0-3.002,2.381-4.342,5.061-4.342c5.002,0,5.121,3.441,5.162,4.521H456.876L456.876,368.638z
			"/>
		<path d="M463.156,365.136h2.76l-0.561,3.063h1.521l-0.34,1.961h-1.563l-0.881,5.121c-0.039,0.279-0.1,0.621-0.1,0.818
			c0,0.4,0.24,0.541,0.641,0.541c0.439,0,0.779-0.141,1.063-0.18l-0.32,2.279c-0.5,0.141-0.98,0.26-1.701,0.26
			c-1.24,0-2.58-0.438-2.58-2.039c0-0.262,0.039-0.541,0.18-1.32l0.92-5.48h-1.52l0.4-1.961h1.5L463.156,365.136z"/>
		<path d="M469.496,374.5c-0.02,0.119-0.041,0.26-0.041,0.58c0,0.898,0.602,1.84,2.002,1.84c0.879,0,1.58-0.5,1.9-1.1h3.1
			c-0.539,1.68-2.24,3.34-5.141,3.34c-2.922,0-4.621-1.959-4.621-5.16c0-2.701,1.74-6.121,5.602-6.121
			c2.42,0,4.602,1.459,4.602,4.98c0,0.699-0.061,1.199-0.16,1.641H469.496L469.496,374.5z M474.136,372.539v-0.4
			c0-0.979-0.561-2.02-2.041-2.02c-1.459,0-2.197,1.24-2.398,2.42H474.136L474.136,372.539z"/>
		<path d="M479.675,368.199h2.801l-1.92,10.641h-2.801L479.675,368.199z M480.476,364.136h2.801l-0.459,2.48h-2.803L480.476,364.136
			z"/>
		<path d="M485.115,368.199h2.6l-0.438,1.92c0.898-1.361,2.121-2.201,3.779-2.201c1.521,0,3.063,0.861,3.063,2.881
			c0,0.84-0.063,1.24-0.201,2.021l-1.119,6.02h-2.82l1.119-5.939c0.102-0.539,0.16-0.959,0.16-1.262c0-1.08-0.799-1.359-1.299-1.359
			c-1.701,0-2.641,1.262-2.961,3.141l-0.98,5.422h-2.82L485.115,368.199z"/>
		<path d="M498.394,374.5c-0.02,0.119-0.037,0.26-0.037,0.58c0,0.898,0.6,1.84,2,1.84c0.881,0,1.578-0.5,1.898-1.1h3.104
			c-0.541,1.68-2.242,3.34-5.145,3.34c-2.92,0-4.621-1.959-4.621-5.16c0-2.701,1.74-6.121,5.604-6.121
			c2.42,0,4.602,1.459,4.602,4.98c0,0.699-0.061,1.199-0.16,1.641H498.394L498.394,374.5z M503.035,372.539v-0.4
			c0-0.979-0.559-2.02-2.039-2.02c-1.461,0-2.201,1.24-2.4,2.42H503.035L503.035,372.539z"/>
		<path d="M514.355,367.917l-0.42,2.922c-0.24-0.061-0.52-0.16-0.9-0.16c-1.16,0-2.18,0.459-2.779,3.34l-0.84,4.82h-2.842
			l1.92-10.641h2.582l-0.521,2.16c1.223-1.941,1.922-2.461,3.461-2.461L514.355,367.917z"/>
		<path d="M522.814,364.476h2.941l-1.1,5.703l5.438-5.703h3.723l-5.98,6.162l4.201,8.201h-3.342l-2.939-6.041l-1.82,1.82
			l-0.74,4.221h-2.98L522.814,364.476z"/>
		<path d="M538.855,367.878c2.781,0,4.902,1.602,4.902,4.98c0,2.24-1.461,6.301-6.162,6.301c-2.682,0-4.9-1.721-4.9-4.98
			C532.695,371.939,534.154,367.878,538.855,367.878z M537.794,376.919c1.66,0,3.082-1.58,3.082-4.102
			c0-1.779-0.941-2.699-2.221-2.699c-1.66,0-3.082,1.58-3.082,4.1C535.574,376,536.515,376.919,537.794,376.919z"/>
		<path d="M547.314,364.476h2.842l-2.602,14.363h-2.82L547.314,364.476z"/>
		<path d="M552.875,364.476h2.842l-2.602,14.363h-2.82L552.875,364.476z"/>
		<path d="M558.734,374.5c-0.02,0.119-0.039,0.26-0.039,0.58c0,0.898,0.6,1.84,2,1.84c0.881,0,1.58-0.5,1.9-1.1h3.102
			c-0.541,1.68-2.242,3.34-5.143,3.34c-2.92,0-4.621-1.959-4.621-5.16c0-2.701,1.74-6.121,5.602-6.121
			c2.42,0,4.602,1.459,4.602,4.98c0,0.699-0.061,1.199-0.158,1.641H558.734L558.734,374.5z M563.375,372.539v-0.4
			c0-0.979-0.559-2.02-2.039-2.02c-1.461,0-2.201,1.24-2.4,2.42H563.375L563.375,372.539z"/>
		<path d="M578.236,368.218l-4.361,4.281l2.301,6.34h-2.898l-1.58-4.68l-1.439,1.42l-0.561,3.26h-2.803l2.602-14.363h2.762
			l-1.381,7.543l3.74-3.801H578.236z"/>
		<path d="M580.896,365.136h2.762l-0.563,3.063h1.521l-0.34,1.961h-1.563l-0.879,5.121c-0.041,0.279-0.102,0.621-0.102,0.818
			c0,0.4,0.24,0.541,0.641,0.541c0.441,0,0.781-0.141,1.063-0.18l-0.32,2.279c-0.5,0.141-0.98,0.26-1.699,0.26
			c-1.24,0-2.582-0.438-2.582-2.039c0-0.262,0.041-0.541,0.182-1.32l0.92-5.48h-1.521l0.4-1.961h1.5L580.896,365.136z"/>
		<path d="M586.695,368.199h2.801l-1.92,10.641h-2.801L586.695,368.199z M587.496,364.136h2.799l-0.459,2.48h-2.801L587.496,364.136
			z"/>
		<path d="M600.695,368.199l-5.102,10.641h-3.039l-1.32-10.641h2.76l0.561,7.52l3.143-7.52H600.695z"/>
		<path d="M599.433,375.839h3.021l-0.58,3h-3.02L599.433,375.839z"/>
	</g>
</g>
<g id="Calque_3">
	<g>
		<g>
			<path d="M403.907,573.564c-0.074,0.025-0.153,0.047-0.237,0.063c-0.084,0.018-0.172,0.031-0.264,0.041
				c-0.093,0.01-0.186,0.023-0.278,0.041c-0.087,0.016-0.172,0.037-0.256,0.064c-0.085,0.025-0.158,0.063-0.22,0.109
				c-0.063,0.049-0.113,0.105-0.151,0.174c-0.038,0.072-0.058,0.16-0.058,0.271c0,0.102,0.02,0.188,0.058,0.262
				c0.038,0.068,0.089,0.125,0.155,0.166c0.065,0.041,0.141,0.07,0.228,0.084c0.087,0.02,0.177,0.025,0.269,0.025
				c0.229,0,0.406-0.039,0.53-0.115c0.125-0.076,0.218-0.166,0.278-0.27c0.06-0.107,0.096-0.215,0.11-0.322
				c0.014-0.109,0.021-0.197,0.021-0.264v-0.432C404.042,573.507,403.98,573.541,403.907,573.564 M401.62,571.931
				c0.12-0.18,0.271-0.322,0.457-0.434c0.184-0.107,0.392-0.184,0.623-0.232c0.231-0.045,0.464-0.066,0.697-0.066
				c0.212,0,0.427,0.012,0.645,0.045c0.218,0.029,0.416,0.086,0.595,0.174c0.179,0.088,0.326,0.209,0.44,0.363
				c0.114,0.154,0.171,0.359,0.171,0.617v2.191c0,0.189,0.011,0.373,0.033,0.547c0.021,0.174,0.06,0.303,0.114,0.391h-1.174
				c-0.022-0.064-0.04-0.131-0.053-0.199s-0.023-0.137-0.028-0.207c-0.185,0.189-0.402,0.322-0.652,0.398s-0.505,0.113-0.766,0.113
				c-0.202,0-0.39-0.023-0.563-0.07c-0.174-0.051-0.326-0.129-0.457-0.23c-0.13-0.104-0.232-0.232-0.305-0.393
				c-0.075-0.154-0.11-0.346-0.11-0.563c0-0.238,0.042-0.436,0.126-0.59c0.084-0.158,0.193-0.279,0.327-0.373
				c0.133-0.092,0.285-0.16,0.456-0.207c0.171-0.045,0.344-0.084,0.518-0.109c0.174-0.027,0.346-0.049,0.514-0.064
				c0.168-0.018,0.318-0.041,0.448-0.074c0.13-0.031,0.234-0.08,0.31-0.141c0.076-0.064,0.111-0.156,0.106-0.275
				c0-0.125-0.021-0.225-0.061-0.299c-0.041-0.072-0.095-0.129-0.163-0.17c-0.068-0.039-0.147-0.068-0.236-0.082
				c-0.09-0.012-0.186-0.02-0.29-0.02c-0.228,0-0.407,0.051-0.538,0.146c-0.13,0.1-0.206,0.26-0.228,0.488h-1.158
				C401.432,572.335,401.501,572.111,401.62,571.931"/>
		</g>
		<g>
			<path d="M407.172,571.314v0.779h0.016c0.054-0.131,0.128-0.252,0.221-0.361c0.093-0.111,0.198-0.207,0.318-0.285
				c0.119-0.08,0.248-0.141,0.383-0.186c0.135-0.043,0.276-0.063,0.423-0.063c0.077,0,0.161,0.012,0.252,0.041v1.074
				c-0.054-0.012-0.119-0.02-0.194-0.029c-0.077-0.008-0.15-0.012-0.221-0.012c-0.212,0-0.392,0.037-0.538,0.105
				c-0.147,0.072-0.266,0.168-0.355,0.291c-0.09,0.121-0.155,0.264-0.191,0.428c-0.039,0.162-0.058,0.34-0.058,0.529v1.9h-1.158
				v-4.215h1.102V571.314z"/>
		</g>
		<g>
			<path d="M411.176,572.07c-0.185,0-0.34,0.041-0.464,0.125c-0.126,0.084-0.228,0.191-0.307,0.324
				c-0.079,0.137-0.134,0.281-0.166,0.441c-0.033,0.16-0.05,0.32-0.05,0.479c0,0.152,0.017,0.307,0.05,0.465
				c0.032,0.156,0.084,0.301,0.158,0.428c0.074,0.129,0.173,0.232,0.297,0.314c0.125,0.08,0.278,0.119,0.457,0.119
				c0.277,0,0.49-0.074,0.641-0.229c0.149-0.156,0.243-0.363,0.28-0.625h1.118c-0.077,0.561-0.293,0.986-0.654,1.279
				c-0.357,0.295-0.816,0.441-1.375,0.441c-0.316,0-0.605-0.055-0.869-0.16c-0.264-0.104-0.489-0.256-0.672-0.443
				c-0.186-0.191-0.33-0.416-0.433-0.682c-0.103-0.264-0.155-0.555-0.155-0.869c0-0.324,0.048-0.629,0.144-0.906
				c0.095-0.281,0.234-0.523,0.419-0.727c0.185-0.205,0.411-0.363,0.677-0.479c0.266-0.113,0.57-0.17,0.913-0.17
				c0.25,0,0.49,0.033,0.721,0.098c0.231,0.064,0.437,0.162,0.62,0.297c0.182,0.133,0.331,0.301,0.445,0.498
				c0.113,0.197,0.179,0.434,0.197,0.705h-1.134C411.957,572.312,411.669,572.07,411.176,572.07"/>
		</g>
		<g>
			<path d="M414.934,569.705v2.193h0.025c0.147-0.244,0.334-0.424,0.562-0.535s0.451-0.166,0.669-0.166
				c0.309,0,0.563,0.043,0.761,0.127c0.2,0.086,0.354,0.201,0.469,0.35c0.115,0.148,0.197,0.332,0.24,0.547
				c0.048,0.215,0.071,0.455,0.071,0.713v2.594h-1.159v-2.383c0-0.348-0.055-0.605-0.163-0.777c-0.109-0.17-0.303-0.256-0.579-0.256
				c-0.315,0-0.544,0.096-0.685,0.281c-0.142,0.188-0.212,0.496-0.212,0.928v2.207h-1.157v-5.82h1.158V569.705z"/>
		</g>
	</g>
	<g>
		<path d="M419.72,575.527v-4.215h-1.158v4.215H419.72z M419.72,570.66v-0.955h-1.158v0.955H419.72z"/>
	</g>
	<g>
		<g>
			<path d="M445.646,573.894c0.008,0.193,0.037,0.379,0.086,0.559c0.047,0.18,0.121,0.332,0.227,0.459s0.252,0.188,0.447,0.188
				c0.199,0,0.352-0.061,0.459-0.188s0.186-0.279,0.232-0.459c0.045-0.18,0.074-0.363,0.084-0.559
				c0.008-0.191,0.014-0.355,0.014-0.492c0-0.08-0.002-0.18-0.004-0.293c-0.002-0.117-0.012-0.236-0.027-0.359
				c-0.016-0.121-0.037-0.242-0.066-0.361c-0.029-0.121-0.072-0.229-0.133-0.322c-0.061-0.096-0.135-0.172-0.225-0.232
				c-0.092-0.059-0.201-0.086-0.334-0.086c-0.131,0-0.24,0.027-0.328,0.086c-0.09,0.061-0.162,0.137-0.219,0.232
				c-0.057,0.094-0.102,0.201-0.133,0.322c-0.031,0.119-0.053,0.24-0.068,0.361c-0.012,0.123-0.021,0.242-0.021,0.359
				c-0.004,0.113-0.004,0.213-0.004,0.293C445.632,573.539,445.636,573.703,445.646,573.894 M444.806,572.238
				c0.094-0.316,0.219-0.568,0.377-0.76c0.158-0.188,0.344-0.326,0.555-0.406c0.211-0.082,0.434-0.123,0.668-0.123
				c0.24,0,0.465,0.041,0.678,0.123c0.209,0.08,0.396,0.219,0.555,0.406c0.162,0.191,0.287,0.443,0.385,0.76
				c0.092,0.313,0.137,0.703,0.137,1.162c0,0.479-0.045,0.877-0.137,1.193c-0.098,0.32-0.223,0.574-0.385,0.764
				c-0.156,0.191-0.346,0.328-0.555,0.41c-0.213,0.08-0.438,0.121-0.678,0.121c-0.234,0-0.457-0.041-0.668-0.121
				c-0.211-0.082-0.396-0.219-0.555-0.41c-0.158-0.188-0.283-0.443-0.377-0.764c-0.094-0.316-0.141-0.717-0.141-1.193
				C444.666,572.941,444.712,572.552,444.806,572.238"/>
		</g>
	</g>
	<g>
		<rect x="448.587" y="574.753" width="1.066" height="1.049"/>
	</g>
	<g>
		<g>
			<path d="M451.054,575.802v-3.086h-1.197v-0.727c0.168,0.004,0.33-0.01,0.486-0.039c0.156-0.031,0.297-0.08,0.422-0.156
				c0.125-0.074,0.229-0.174,0.316-0.295c0.086-0.123,0.143-0.273,0.17-0.455h0.768v4.758H451.054L451.054,575.802z"/>
		</g>
		<g>
			<path d="M438.949,575.474v-0.586h-0.023c-0.146,0.242-0.338,0.42-0.57,0.527c-0.234,0.109-0.473,0.164-0.719,0.164
				c-0.309,0-0.564-0.041-0.762-0.121c-0.199-0.082-0.355-0.197-0.469-0.346s-0.195-0.332-0.24-0.547
				c-0.047-0.217-0.07-0.453-0.07-0.715v-2.592h1.158v2.379c0,0.348,0.053,0.607,0.162,0.779s0.303,0.256,0.58,0.256
				c0.314,0,0.543-0.092,0.686-0.279c0.141-0.189,0.211-0.498,0.211-0.926v-2.209h1.158v4.213h-1.102V575.474z"/>
		</g>
		<g>
			<path d="M441.974,571.259v0.783h0.016c0.055-0.133,0.129-0.254,0.221-0.363c0.092-0.111,0.199-0.207,0.316-0.285
				c0.121-0.078,0.248-0.141,0.385-0.186c0.137-0.043,0.277-0.063,0.426-0.063c0.074,0,0.16,0.012,0.252,0.039v1.076
				c-0.055-0.012-0.119-0.02-0.193-0.027c-0.078-0.008-0.15-0.014-0.223-0.014c-0.213,0-0.393,0.035-0.539,0.107
				c-0.145,0.07-0.264,0.166-0.354,0.291c-0.09,0.121-0.154,0.264-0.191,0.426c-0.039,0.162-0.057,0.34-0.057,0.529v1.898h-1.158
				v-4.213H441.974L441.974,571.259z"/>
		</g>
		<g>
			<path d="M423.343,571.259v0.775h-0.848v2.086c0,0.195,0.033,0.326,0.098,0.393c0.066,0.066,0.197,0.098,0.393,0.098
				c0.064,0,0.129-0.002,0.188-0.008c0.061-0.008,0.117-0.014,0.172-0.023v0.896c-0.098,0.016-0.207,0.027-0.326,0.031
				c-0.119,0.006-0.236,0.008-0.352,0.008c-0.178,0-0.348-0.012-0.51-0.037c-0.16-0.023-0.301-0.07-0.424-0.143
				c-0.121-0.07-0.219-0.17-0.29-0.303c-0.07-0.129-0.105-0.301-0.105-0.514v-2.484h-0.703v-0.775h0.703v-1.264h1.159v1.264H423.343
				L423.343,571.259z"/>
		</g>
		<g>
			<path d="M426.324,572.244c-0.139-0.15-0.35-0.229-0.633-0.229c-0.184,0-0.338,0.033-0.459,0.096
				c-0.123,0.063-0.221,0.139-0.295,0.234c-0.072,0.09-0.125,0.188-0.154,0.289c-0.031,0.105-0.049,0.197-0.053,0.279h1.883
				C426.558,572.621,426.462,572.398,426.324,572.244 M425.015,574.462c0.176,0.17,0.424,0.254,0.75,0.254
				c0.232,0,0.436-0.061,0.605-0.176c0.168-0.117,0.27-0.24,0.309-0.371h1.02c-0.162,0.508-0.412,0.869-0.75,1.086
				c-0.336,0.217-0.744,0.324-1.223,0.324c-0.332,0-0.631-0.053-0.896-0.158c-0.266-0.104-0.492-0.256-0.678-0.453
				c-0.186-0.193-0.326-0.43-0.43-0.699c-0.098-0.273-0.148-0.57-0.148-0.898c0-0.313,0.051-0.607,0.154-0.879
				s0.25-0.508,0.439-0.705c0.191-0.199,0.418-0.357,0.682-0.469c0.264-0.113,0.557-0.174,0.877-0.174
				c0.357,0,0.672,0.07,0.938,0.207c0.268,0.141,0.484,0.328,0.656,0.563c0.172,0.232,0.295,0.498,0.373,0.799
				c0.074,0.297,0.102,0.611,0.08,0.938h-3.041C424.746,574.023,424.841,574.294,425.015,574.462"/>
		</g>
	</g>
	<g>
		<polygon points="429.587,569.652 429.587,572.777 431.048,571.259 432.419,571.259 430.83,572.808 432.597,575.476 
			431.197,575.476 430.037,573.591 429.587,574.023 429.587,575.476 428.431,575.476 428.431,569.652 		"/>
	</g>
	<g>
		<g>
			<path d="M435.412,571.259v0.775h-0.852v2.086c0,0.195,0.033,0.326,0.102,0.393c0.063,0.064,0.195,0.098,0.391,0.098
				c0.064,0,0.127-0.002,0.188-0.008c0.061-0.008,0.117-0.014,0.172-0.023v0.896c-0.1,0.016-0.207,0.027-0.326,0.031
				c-0.121,0.006-0.238,0.008-0.35,0.008c-0.182,0-0.35-0.012-0.51-0.037c-0.162-0.023-0.303-0.07-0.426-0.143
				c-0.121-0.07-0.219-0.17-0.287-0.303c-0.074-0.129-0.107-0.301-0.107-0.514v-2.484h-0.701v-0.775h0.701v-1.264h1.156v1.264
				H435.412L435.412,571.259z"/>
		</g>
	</g>
	<g>
		<g>
			<path d="M454.021,571.814l-0.189,1.066l0.016,0.016c0.129-0.131,0.27-0.225,0.414-0.279c0.148-0.057,0.318-0.084,0.504-0.084
				c0.232,0,0.439,0.043,0.617,0.129c0.178,0.084,0.332,0.197,0.453,0.342c0.123,0.143,0.217,0.313,0.281,0.506
				c0.064,0.195,0.098,0.402,0.098,0.619c0,0.244-0.047,0.467-0.141,0.676c-0.094,0.207-0.221,0.389-0.379,0.541
				c-0.16,0.152-0.344,0.27-0.555,0.352c-0.209,0.084-0.434,0.123-0.67,0.119c-0.227,0-0.445-0.033-0.654-0.092
				c-0.207-0.063-0.391-0.152-0.553-0.277c-0.16-0.125-0.289-0.281-0.387-0.469c-0.096-0.186-0.146-0.398-0.15-0.646h0.953
				c0.021,0.217,0.104,0.387,0.242,0.514c0.137,0.131,0.316,0.191,0.529,0.191c0.125,0,0.238-0.025,0.34-0.078
				c0.1-0.053,0.184-0.117,0.254-0.201c0.068-0.082,0.123-0.178,0.16-0.287c0.039-0.109,0.059-0.223,0.059-0.34
				c0-0.121-0.02-0.234-0.055-0.342s-0.09-0.201-0.16-0.281c-0.072-0.08-0.156-0.145-0.256-0.188
				c-0.1-0.045-0.211-0.066-0.342-0.066c-0.17,0-0.311,0.029-0.416,0.09c-0.107,0.061-0.209,0.154-0.301,0.285h-0.859l0.461-2.596
				h2.625v0.783h-1.939V571.814z"/>
		</g>
	</g>
	<g>
		<path d="M382.215,24.555c-0.018,0.09,0.036,0.116,0.135,0.018c0.144-0.144,2.386-3.277,2.476-3.403
			c0.225-0.323,0.297-0.594,0.297-0.747c0-0.126-0.099-0.261-0.279-0.261h-0.153c-0.054,0-0.081-0.019-0.072-0.054l0.045-0.207
			c0.009-0.055,0.027-0.072,0.108-0.072c0.09,0,0.324,0.026,0.774,0.026c0.504,0,0.738-0.026,0.846-0.026
			c0.063,0,0.099,0.026,0.081,0.09l-0.045,0.171c-0.018,0.054-0.036,0.072-0.099,0.072h-0.198c-0.189,0-0.271,0.108-0.315,0.45
			l-0.477,3.961c-0.018,0.117,0.027,0.135,0.09,0.081c0.207-0.18,1.233-1.882,1.359-2.098c0.405-0.685,0.955-1.665,1.044-1.908
			c0.09-0.252,0.072-0.486-0.18-0.486h-0.144c-0.045,0-0.063-0.019-0.054-0.072l0.036-0.171c0.009-0.063,0.036-0.09,0.099-0.09
			c0.117,0,0.333,0.026,0.756,0.026c0.486,0,0.72-0.026,0.855-0.026c0.063,0,0.09,0.036,0.081,0.09l-0.036,0.171
			c-0.009,0.054-0.036,0.072-0.072,0.072h-0.153c-0.198,0-0.369,0.063-0.522,0.261c-0.108,0.153-1.44,2.377-1.666,2.729
			c-0.252,0.414-1.477,2.232-1.864,2.683c-0.081,0.09-0.189,0.233-0.297,0.233c-0.117,0-0.162-0.107-0.144-0.27l0.432-4.033
			c0.018-0.126-0.045-0.145-0.108-0.063c-0.09,0.117-2.772,3.8-3.106,4.159c-0.099,0.108-0.18,0.207-0.315,0.207
			c-0.09,0-0.117-0.116-0.072-0.396l0.801-5.033c0.054-0.314,0.009-0.477-0.288-0.477h-0.216c-0.072,0-0.099-0.019-0.09-0.09
			l0.036-0.171c0.009-0.046,0.027-0.072,0.108-0.072c0.09,0,0.45,0.026,0.918,0.026c0.558,0,0.9-0.026,1.008-0.026
			c0.081,0,0.099,0.026,0.09,0.09l-0.036,0.171c-0.009,0.045-0.027,0.072-0.09,0.072h-0.198c-0.306,0-0.405,0.117-0.477,0.504
			L382.215,24.555z"/>
		<path d="M390.982,22.142c0.036,0,0.045,0.045,0.027,0.081c-0.171,0.369-0.63,1.611-0.675,1.756
			c-0.054,0.152-0.432,1.269-0.432,1.35s0.045,0.108,0.099,0.108c0.108,0,0.567-0.468,0.63-0.549
			c0.027-0.027,0.054-0.045,0.072-0.019l0.081,0.09c0.027,0.027,0.036,0.046,0.018,0.072c-0.099,0.181-0.882,0.945-1.396,0.945
			c-0.108,0-0.189-0.036-0.189-0.153c0-0.135,0.09-0.414,0.432-1.368l-0.045-0.018c-0.378,0.576-1.287,1.539-1.927,1.539
			c-0.207,0-0.486-0.171-0.486-0.576c0-1.314,1.477-3.259,2.575-3.259c0.378,0,0.549,0.162,0.639,0.306l0.171-0.242
			c0.027-0.036,0.054-0.063,0.09-0.063H390.982z M389.848,23.708c0.126-0.261,0.216-0.486,0.216-0.747
			c0-0.243-0.09-0.531-0.423-0.531c-0.828,0-1.792,1.899-1.792,2.755c0,0.207,0.09,0.315,0.243,0.315
			C388.542,25.5,389.686,24.041,389.848,23.708z"/>
		<path d="M393.204,20.684c0.135-0.343,0.126-0.567-0.135-0.567h-0.261c-0.063,0-0.072-0.036-0.054-0.081l0.054-0.162
			c0.018-0.054,0.036-0.063,0.09-0.063h1.116c0.081,0,0.108,0.055,0.081,0.136l-1.873,4.762c-0.081,0.207-0.297,0.702-0.108,0.702
			c0.144,0,0.558-0.351,0.667-0.468c0.036-0.036,0.054-0.027,0.081,0l0.099,0.108c0.018,0.018,0.027,0.054-0.009,0.09
			c-0.045,0.072-0.882,0.837-1.458,0.837c-0.117,0-0.198-0.054-0.198-0.261c0-0.135,0.225-0.702,0.333-0.973L393.204,20.684z"/>
		<path d="M394.878,22.718h-0.63c-0.054,0-0.072-0.018-0.054-0.072l0.072-0.198c0.018-0.045,0.045-0.063,0.099-0.063h0.648
			l0.468-1.044c0.045-0.091,0.072-0.108,0.144-0.136c0.099-0.026,0.333-0.117,0.405-0.152c0.054-0.027,0.099-0.055,0.135-0.055
			c0.054,0,0.072,0.055,0.009,0.181l-0.594,1.206h0.918c0.045,0,0.063,0.027,0.036,0.099l-0.081,0.189
			c-0.009,0.027-0.045,0.045-0.081,0.045h-0.918l-0.873,2.025c-0.108,0.252-0.207,0.478-0.207,0.576c0,0.1,0.036,0.153,0.117,0.153
			c0.261,0,0.846-0.514,0.9-0.576c0.027-0.036,0.054-0.027,0.081,0l0.099,0.108c0.027,0.026,0.027,0.045,0.009,0.081
			c-0.117,0.144-0.954,0.891-1.647,0.891c-0.225,0-0.288-0.09-0.288-0.216c0-0.135,0.045-0.288,0.099-0.423L394.878,22.718z"/>
		<path d="M396.354,25.095c0-0.757,0.495-1.702,1.152-2.35c0.288-0.288,0.774-0.604,1.207-0.604c0.351,0,0.513,0.261,0.513,0.478
			c0,0.44-0.333,0.909-0.837,1.17c-0.486,0.243-0.972,0.342-1.305,0.369c-0.045,0.108-0.117,0.405-0.117,0.828
			c0,0.405,0.297,0.567,0.468,0.567c0.441,0,0.837-0.333,1.026-0.64c0.018-0.026,0.045-0.045,0.081-0.009l0.099,0.081
			c0.045,0.027,0.045,0.054,0.009,0.081c-0.225,0.315-0.765,0.909-1.458,0.909C396.605,25.977,396.354,25.688,396.354,25.095z
			 M397.155,23.897c0.315,0.026,1.495-0.352,1.495-1.018c0-0.18-0.09-0.342-0.288-0.342
			C397.785,22.538,397.227,23.573,397.155,23.897z"/>
		<path d="M399.747,25.887c-0.063,0-0.099-0.036-0.081-0.081l0.504-1.458c0.162-0.505,0.441-1.45,0.441-1.576
			c0-0.081-0.072-0.135-0.153-0.135c-0.18,0-0.585,0.405-0.711,0.559c-0.018,0.026-0.054,0.018-0.072,0l-0.09-0.091
			c-0.018-0.018-0.018-0.045,0-0.071c0.189-0.279,0.729-0.892,1.342-0.892c0.18,0,0.252,0.153,0.252,0.315
			c0.009,0.171-0.144,0.675-0.324,1.278l0.045,0.018c0.243-0.504,0.963-1.611,1.468-1.611c0.261,0,0.423,0.162,0.423,0.405
			c0,0.234-0.18,0.414-0.351,0.414c-0.081,0-0.153-0.019-0.225-0.09c-0.072-0.072-0.117-0.108-0.234-0.108
			c-0.243,0-0.747,0.774-1.107,1.368c-0.108,0.172-0.216,0.379-0.351,0.783l-0.297,0.909c-0.018,0.063-0.045,0.063-0.117,0.063
			h-0.362V25.887z"/>
		<path d="M405.597,23.627c0.018-0.045,0.045-0.045,0.099-0.036l0.09,0.027c0.045,0.018,0.081,0.036,0.063,0.099
			c-0.324,1.342,0.477,1.954,1.035,1.954c0.576,0,1.044-0.459,1.044-1.063s-0.441-0.954-0.837-1.387c-0.558-0.612-1-1.071-1-1.917
			c0-0.648,0.513-1.585,1.531-1.585c0.495,0,0.918,0.307,1.062,0.405c0.045,0.027,0.072,0.045,0.126,0.045
			c0.072,0,0.108-0.126,0.145-0.315c0.009-0.026,0.027-0.035,0.09-0.026l0.117,0.009c0.054,0.009,0.072,0.027,0.063,0.063
			l-0.324,1.71c-0.009,0.036-0.027,0.054-0.072,0.054l-0.126-0.009c-0.054-0.009-0.09-0.026-0.081-0.081
			c0.054-0.36-0.063-1.503-0.999-1.503c-0.558,0-0.892,0.495-0.892,0.981c0,0.675,0.396,0.945,0.811,1.368
			c0.414,0.414,0.981,0.918,0.981,1.863c0,1.188-0.837,1.737-1.629,1.737c-0.576,0-0.963-0.324-1.323-0.684
			c-0.072-0.072-0.153-0.063-0.207,0.018c-0.054,0.072-0.126,0.207-0.189,0.342c-0.018,0.036-0.036,0.055-0.09,0.027l-0.117-0.045
			c-0.045-0.018-0.054-0.027-0.036-0.09L405.597,23.627z"/>
		<path d="M410.565,22.718h-0.63c-0.054,0-0.072-0.018-0.054-0.072l0.072-0.198c0.018-0.045,0.045-0.063,0.099-0.063h0.648
			l0.468-1.044c0.045-0.091,0.072-0.108,0.144-0.136c0.099-0.026,0.333-0.117,0.405-0.152c0.054-0.027,0.099-0.055,0.135-0.055
			c0.054,0,0.072,0.055,0.009,0.181l-0.594,1.206h0.918c0.045,0,0.063,0.027,0.036,0.099l-0.081,0.189
			c-0.009,0.027-0.045,0.045-0.081,0.045h-0.918l-0.873,2.025c-0.108,0.252-0.207,0.478-0.207,0.576c0,0.1,0.036,0.153,0.117,0.153
			c0.261,0,0.847-0.514,0.9-0.576c0.027-0.036,0.054-0.027,0.081,0l0.099,0.108c0.027,0.026,0.027,0.045,0.009,0.081
			c-0.117,0.144-0.954,0.891-1.647,0.891c-0.225,0-0.288-0.09-0.288-0.216c0-0.135,0.045-0.288,0.099-0.423L410.565,22.718z"/>
		<path d="M412.041,25.095c0-0.757,0.495-1.702,1.152-2.35c0.288-0.288,0.774-0.604,1.207-0.604c0.351,0,0.513,0.261,0.513,0.478
			c0,0.44-0.333,0.909-0.837,1.17c-0.486,0.243-0.972,0.342-1.305,0.369c-0.045,0.108-0.117,0.405-0.117,0.828
			c0,0.405,0.297,0.567,0.468,0.567c0.441,0,0.837-0.333,1.026-0.64c0.018-0.026,0.045-0.045,0.081-0.009l0.099,0.081
			c0.045,0.027,0.045,0.054,0.009,0.081c-0.225,0.315-0.765,0.909-1.458,0.909C412.293,25.977,412.041,25.688,412.041,25.095z
			 M412.842,23.897c0.315,0.026,1.495-0.352,1.495-1.018c0-0.18-0.09-0.342-0.288-0.342
			C413.473,22.538,412.915,23.573,412.842,23.897z"/>
		<path d="M415.461,25.752c0-0.207,0.153-0.621,0.531-1.63l0.261-0.702c0.09-0.243,0.162-0.423,0.162-0.531
			c0-0.081-0.054-0.117-0.126-0.117c-0.153,0-0.576,0.486-0.72,0.631c-0.036,0.035-0.072,0.035-0.099,0.009l-0.072-0.081
			c-0.036-0.027-0.054-0.045-0.027-0.081c0.036-0.054,0.955-1.135,1.531-1.107c0.108,0,0.216,0.072,0.216,0.225
			c0,0.162-0.144,0.567-0.306,1l-0.522,1.368c-0.126,0.333-0.162,0.531-0.162,0.594c0,0.081,0.027,0.136,0.099,0.153
			c0.189-0.036,0.675-0.549,0.72-0.63c0.018-0.027,0.054-0.027,0.099,0.018l0.072,0.063c0.036,0.045,0.045,0.063,0.018,0.107
			c-0.054,0.072-0.774,0.937-1.521,0.937C415.524,25.968,415.461,25.896,415.461,25.752z M416.596,20.503
			c0-0.243,0.189-0.45,0.468-0.45c0.315,0,0.477,0.226,0.477,0.433c0,0.135-0.108,0.45-0.477,0.45
			C416.667,20.936,416.596,20.603,416.596,20.503z"/>
		<path d="M418.018,25.887c-0.099,0-0.117-0.018-0.099-0.081l0.639-1.665c0.216-0.559,0.468-1.207,0.468-1.359
			c0-0.091-0.036-0.153-0.135-0.153c-0.171,0-0.603,0.432-0.756,0.603c-0.027,0.027-0.054,0.027-0.09-0.009l-0.081-0.081
			c-0.036-0.036-0.045-0.054-0.018-0.09c0.135-0.162,0.801-0.909,1.449-0.909c0.207,0,0.288,0.153,0.288,0.271
			c0,0.278-0.387,1.134-0.459,1.341l0.036,0.019c0.27-0.433,1.251-1.63,2.054-1.63c0.27,0,0.45,0.135,0.45,0.369
			c0,0.396-0.209,0.864-0.504,1.594c-0.243,0.594-0.459,1.098-0.459,1.242c0,0.054,0.036,0.117,0.108,0.117
			c0.135,0,0.531-0.333,0.648-0.459c0.035-0.027,0.072-0.019,0.1,0.018l0.063,0.072c0.035,0.036,0.045,0.054,0.008,0.099
			c-0.107,0.145-0.836,0.783-1.439,0.783c-0.117,0-0.216-0.045-0.216-0.18c0-0.171,0.324-0.883,0.604-1.656
			c0.126-0.352,0.45-1.099,0.45-1.297c0-0.126-0.063-0.207-0.225-0.207c-0.352,0-1.243,0.828-1.639,1.468
			c-0.162,0.261-0.306,0.495-0.54,1.125l-0.225,0.604c-0.018,0.036-0.036,0.054-0.126,0.054h-0.352V25.887z"/>
		<path d="M422.437,25.095c0-0.757,0.494-1.702,1.152-2.35c0.287-0.288,0.773-0.604,1.205-0.604c0.352,0,0.514,0.261,0.514,0.478
			c0,0.44-0.334,0.909-0.838,1.17c-0.484,0.243-0.973,0.342-1.305,0.369c-0.045,0.108-0.117,0.405-0.117,0.828
			c0,0.405,0.297,0.567,0.469,0.567c0.441,0,0.838-0.333,1.025-0.64c0.018-0.026,0.045-0.045,0.082-0.009l0.098,0.081
			c0.045,0.027,0.045,0.054,0.01,0.081c-0.225,0.315-0.766,0.909-1.457,0.909C422.689,25.977,422.437,25.688,422.437,25.095z
			 M423.238,23.897c0.314,0.026,1.494-0.352,1.494-1.018c0-0.18-0.092-0.342-0.289-0.342
			C423.867,22.538,423.31,23.573,423.238,23.897z"/>
		<path d="M425.83,25.887c-0.064,0-0.1-0.036-0.082-0.081l0.504-1.458c0.162-0.505,0.441-1.45,0.441-1.576
			c0-0.081-0.072-0.135-0.152-0.135c-0.18,0-0.586,0.405-0.711,0.559c-0.02,0.026-0.055,0.018-0.072,0l-0.09-0.091
			c-0.02-0.018-0.02-0.045,0-0.071c0.188-0.279,0.729-0.892,1.34-0.892c0.182,0,0.252,0.153,0.252,0.315
			c0.012,0.171-0.143,0.675-0.322,1.278l0.045,0.018c0.242-0.504,0.963-1.611,1.467-1.611c0.262,0,0.424,0.162,0.424,0.405
			c0,0.234-0.18,0.414-0.352,0.414c-0.08,0-0.152-0.019-0.225-0.09c-0.072-0.072-0.117-0.108-0.234-0.108
			c-0.242,0-0.746,0.774-1.107,1.368c-0.107,0.172-0.215,0.379-0.352,0.783l-0.297,0.909c-0.018,0.063-0.045,0.063-0.117,0.063
			h-0.359V25.887z"/>
		<path d="M432.345,24.986c-0.125,0.396,0.02,0.595,0.307,0.595h0.227c0.045,0,0.07,0.026,0.063,0.09l-0.035,0.171
			c-0.01,0.045-0.035,0.072-0.117,0.072c-0.1,0-0.494-0.027-1.107-0.027c-0.676,0-0.943,0.027-1.008,0.027
			c-0.055,0-0.082-0.045-0.072-0.1l0.035-0.162c0.01-0.045,0.027-0.071,0.102-0.071h0.252c0.232,0,0.459-0.172,0.576-0.541
			l1.385-4.303c0.127-0.396,0.047-0.576-0.297-0.576h-0.225c-0.072,0-0.1-0.036-0.082-0.09l0.064-0.189
			c0.018-0.045,0.045-0.054,0.107-0.054c0.08,0,0.404,0.026,1.008,0.026c0.721,0,0.99-0.026,1.1-0.026
			c0.053,0,0.063,0.036,0.053,0.09l-0.025,0.171c-0.01,0.063-0.035,0.072-0.107,0.072h-0.217c-0.305,0-0.479,0.144-0.584,0.477
			l-0.676,2.125c0.387,0,0.504-0.027,0.748-0.252c0.801-0.711,1.844-1.611,2.195-2.053c0.125-0.162,0.09-0.306-0.152-0.306h-0.107
			c-0.063,0-0.082-0.045-0.072-0.091l0.035-0.161c0.02-0.055,0.045-0.072,0.1-0.072c0.09,0,0.469,0.026,0.99,0.026
			c0.539,0,0.791-0.026,0.873-0.026c0.08,0,0.107,0.036,0.1,0.081l-0.035,0.162c-0.02,0.054-0.027,0.09-0.09,0.09h-0.279
			c-0.271,0-0.504,0.135-0.711,0.297c-0.369,0.288-2.584,2.269-2.711,2.413c0.063,0.126,1.387,2.043,1.604,2.305
			c0.162,0.188,0.449,0.405,0.646,0.405h0.262c0.064,0,0.09,0.045,0.082,0.09l-0.037,0.152c-0.018,0.072-0.035,0.091-0.117,0.091
			c-0.107,0-0.35-0.027-0.918-0.027c-0.529,0-1.025,0.027-1.135,0.027c-0.063,0-0.09-0.027-0.08-0.1l0.02-0.144
			c0.008-0.063,0.025-0.09,0.08-0.09h0.135c0.199,0,0.352-0.126,0.27-0.253c-0.07-0.107-1.25-1.926-1.457-2.188
			c-0.082-0.099-0.135-0.126-0.314-0.126L432.345,24.986z"/>
		<path d="M437.125,24.815c0-1.135,0.855-2.674,2.053-2.674c0.604,0,0.963,0.441,0.963,1.054c0,0.99-0.781,2.781-2.088,2.781
			C437.556,25.977,437.125,25.5,437.125,24.815z M439.781,23.06c0.008-0.278-0.154-0.504-0.451-0.504
			c-0.377,0-0.855,0.342-1.305,1.071c-0.307,0.486-0.521,1.035-0.521,1.459c0,0.288,0.197,0.459,0.414,0.459
			C438.853,25.545,439.781,23.654,439.781,23.06z"/>
		<path d="M442.408,20.684c0.135-0.343,0.127-0.567-0.135-0.567h-0.262c-0.063,0-0.07-0.036-0.055-0.081l0.055-0.162
			c0.02-0.054,0.035-0.063,0.09-0.063h1.117c0.08,0,0.107,0.055,0.08,0.136l-1.873,4.762c-0.08,0.207-0.297,0.702-0.105,0.702
			c0.143,0,0.557-0.351,0.666-0.468c0.035-0.036,0.053-0.027,0.08,0l0.1,0.108c0.018,0.018,0.027,0.054-0.01,0.09
			c-0.045,0.072-0.883,0.837-1.459,0.837c-0.115,0-0.197-0.054-0.197-0.261c0-0.135,0.225-0.702,0.334-0.973L442.408,20.684z"/>
		<path d="M444.695,20.684c0.135-0.343,0.125-0.567-0.137-0.567h-0.262c-0.063,0-0.07-0.036-0.053-0.081l0.053-0.162
			c0.02-0.054,0.037-0.063,0.092-0.063h1.115c0.082,0,0.107,0.055,0.082,0.136l-1.873,4.762c-0.082,0.207-0.297,0.702-0.107,0.702
			c0.145,0,0.559-0.351,0.666-0.468c0.035-0.036,0.055-0.027,0.08,0l0.1,0.108c0.02,0.018,0.027,0.054-0.008,0.09
			c-0.045,0.072-0.885,0.837-1.459,0.837c-0.117,0-0.197-0.054-0.197-0.261c0-0.135,0.225-0.702,0.332-0.973L444.695,20.684z"/>
		<path d="M445.154,25.095c0-0.757,0.494-1.702,1.15-2.35c0.289-0.288,0.773-0.604,1.207-0.604c0.352,0,0.514,0.261,0.514,0.478
			c0,0.44-0.334,0.909-0.838,1.17c-0.486,0.243-0.973,0.342-1.307,0.369c-0.045,0.108-0.117,0.405-0.117,0.828
			c0,0.405,0.299,0.567,0.471,0.567c0.439,0,0.836-0.333,1.025-0.64c0.018-0.026,0.045-0.045,0.08-0.009l0.1,0.081
			c0.045,0.027,0.045,0.054,0.01,0.081c-0.227,0.315-0.766,0.909-1.459,0.909C445.406,25.977,445.154,25.688,445.154,25.095z
			 M445.955,23.897c0.314,0.026,1.494-0.352,1.494-1.018c0-0.18-0.09-0.342-0.289-0.342
			C446.583,22.538,446.027,23.573,445.955,23.897z"/>
		<path d="M448.123,25.887c-0.055,0-0.072-0.036-0.045-0.099l2.125-5.276c0.098-0.242,0.008-0.396-0.324-0.396h-0.244
			c-0.053,0-0.063-0.036-0.045-0.09l0.055-0.145c0.027-0.045,0.035-0.072,0.107-0.072h1.197c0.09,0,0.09,0.1,0.072,0.153
			l-1.297,3.124l0.045,0.018c0.279-0.359,0.928-0.963,1.531-0.963c0.188,0,0.467,0.099,0.467,0.531c0,0.711-1.26,1.432-1.664,1.584
			v0.036l0.584,0.945c0.137,0.226,0.289,0.369,0.451,0.369c0.17,0,0.324-0.135,0.422-0.233c0.027-0.036,0.064-0.036,0.082-0.01
			l0.09,0.1c0.02,0.018,0.02,0.045-0.01,0.081c-0.045,0.054-0.387,0.432-0.756,0.432c-0.449,0-0.604-0.117-0.818-0.531l-0.494-0.945
			c-0.064-0.117-0.199-0.126-0.451-0.099l-0.559,1.422c-0.018,0.055-0.055,0.063-0.135,0.063h-0.387V25.887z M449.285,24.186
			c0.854,0.099,1.898-0.774,1.898-1.333c0-0.144-0.107-0.27-0.252-0.27c-0.459,0-1.07,0.63-1.197,0.774
			c-0.072,0.08-0.189,0.225-0.242,0.333L449.285,24.186z"/>
		<path d="M453.416,22.718h-0.631c-0.053,0-0.072-0.018-0.053-0.072l0.07-0.198c0.02-0.045,0.045-0.063,0.1-0.063h0.646l0.469-1.044
			c0.047-0.091,0.072-0.108,0.145-0.136c0.1-0.026,0.334-0.117,0.406-0.152c0.053-0.027,0.1-0.055,0.135-0.055
			c0.055,0,0.072,0.055,0.01,0.181l-0.596,1.206h0.92c0.045,0,0.063,0.027,0.035,0.099l-0.082,0.189
			c-0.008,0.027-0.045,0.045-0.08,0.045h-0.918l-0.873,2.025c-0.109,0.252-0.207,0.478-0.207,0.576c0,0.1,0.035,0.153,0.117,0.153
			c0.26,0,0.846-0.514,0.898-0.576c0.027-0.036,0.055-0.027,0.082,0l0.1,0.108c0.025,0.026,0.025,0.045,0.008,0.081
			c-0.117,0.144-0.953,0.891-1.646,0.891c-0.225,0-0.289-0.09-0.289-0.216c0-0.135,0.047-0.288,0.102-0.423L453.416,22.718z"/>
		<path d="M455.304,25.752c0-0.207,0.154-0.621,0.531-1.63l0.262-0.702c0.092-0.243,0.162-0.423,0.162-0.531
			c0-0.081-0.055-0.117-0.125-0.117c-0.152,0-0.576,0.486-0.721,0.631c-0.037,0.035-0.072,0.035-0.1,0.009l-0.072-0.081
			c-0.035-0.027-0.053-0.045-0.027-0.081c0.037-0.054,0.955-1.135,1.531-1.107c0.107,0,0.217,0.072,0.217,0.225
			c0,0.162-0.145,0.567-0.307,1l-0.521,1.368c-0.127,0.333-0.162,0.531-0.162,0.594c0,0.081,0.025,0.136,0.1,0.153
			c0.188-0.036,0.674-0.549,0.719-0.63c0.02-0.027,0.055-0.027,0.1,0.018l0.072,0.063c0.037,0.045,0.045,0.063,0.02,0.107
			c-0.055,0.072-0.775,0.937-1.521,0.937C455.369,25.968,455.304,25.896,455.304,25.752z M456.439,20.503
			c0-0.243,0.189-0.45,0.469-0.45c0.314,0,0.477,0.226,0.477,0.433c0,0.135-0.107,0.45-0.477,0.45
			C456.511,20.936,456.439,20.603,456.439,20.503z"/>
		<path d="M458.474,22.709c-0.289,0-0.486,0.198-0.494,0.468c0.008,0.162,0.115,0.216,0.197,0.261
			c0.063,0.036,0.197,0.127,0.197,0.271c0,0.145-0.1,0.297-0.334,0.297c-0.17,0-0.414-0.126-0.414-0.513
			c0-0.352,0.227-0.729,0.352-0.873c0.182-0.198,0.379-0.433,1.027-0.433c0.918,0,1.025-0.045,1.125-0.045
			c0.117,0,0.207,0.054,0.117,0.171c-0.189,0.234-1.064,1.449-1.064,2.35c0,0.612,0.324,0.838,0.641,0.838
			c0.773,0,1.557-1.216,1.557-2.125c0-0.145-0.008-0.324-0.07-0.468c-0.072-0.162-0.137-0.262-0.137-0.369
			c0-0.243,0.146-0.396,0.406-0.396c0.252,0,0.352,0.261,0.352,0.478c0,0.432-0.197,1.332-0.596,2.017
			c-0.404,0.702-1.133,1.341-1.871,1.341c-0.451,0-0.893-0.279-0.893-0.927c0-0.838,0.748-1.945,1.27-2.557l-0.063-0.027
			c-0.188,0.162-0.666,0.243-0.836,0.243h-0.469V22.709z"/>
		<path d="M373.409,33.14c0-0.559-0.018-1.773-0.018-1.899c0-0.459-0.063-0.586-0.306-0.586h-0.369c-0.099,0-0.108-0.035-0.108-0.09
			v-0.171c0-0.054,0.009-0.108,0.099-0.108c0.153,0,0.441,0.027,1.341,0.027c0.882,0,1.207-0.027,1.359-0.027
			c0.099,0,0.108,0.027,0.108,0.1v0.188c0,0.055-0.009,0.081-0.108,0.081h-0.216c-0.324,0-0.369,0.153-0.396,0.495
			c-0.009,0.127-0.054,1.314-0.054,1.819v0.135c0,0.045,0.027,0.072,0.144,0.072h2.692c0.135,0,0.18-0.019,0.18-0.117v-0.09
			c0-0.514-0.063-1.765-0.063-1.854c-0.009-0.288-0.045-0.46-0.207-0.46h-0.369c-0.081,0-0.09-0.026-0.09-0.09v-0.198
			c0-0.054,0.009-0.081,0.081-0.081c0.162,0,0.549,0.027,1.314,0.027c0.747,0,1.125-0.027,1.242-0.027
			c0.108,0,0.117,0.027,0.117,0.1v0.171c0,0.063-0.009,0.099-0.117,0.099h-0.27c-0.261,0-0.288,0.153-0.288,0.46
			c0,0.126-0.018,1.647-0.018,1.98V33.4c0,0.288,0.018,1.999,0.027,2.494c0,0.324,0.09,0.45,0.36,0.45h0.306
			c0.072,0,0.081,0.026,0.081,0.081v0.197c0,0.046-0.009,0.091-0.099,0.091c-0.144,0-0.45-0.027-1.26-0.027
			c-0.918,0-1.207,0.027-1.414,0.027c-0.099,0-0.117-0.045-0.117-0.091v-0.197c0-0.055,0.009-0.081,0.099-0.081h0.396
			c0.216,0,0.243-0.171,0.252-0.396c0.018-0.423,0.036-1.872,0.036-2.16V33.68c0-0.099-0.09-0.108-0.198-0.108h-2.692
			c-0.099,0-0.126,0.027-0.126,0.108v0.135c0,0.226,0.036,1.611,0.063,2.224c0.009,0.216,0.099,0.307,0.297,0.307h0.252
			c0.072,0,0.081,0.018,0.081,0.071v0.217c0,0.054-0.009,0.081-0.081,0.081c-0.162,0-0.478-0.027-1.233-0.027
			c-0.955,0-1.225,0.027-1.405,0.027c-0.081,0-0.09-0.027-0.09-0.1v-0.188c0-0.063,0.009-0.081,0.09-0.081h0.414
			c0.225,0,0.252-0.217,0.252-0.414c0.009-0.424,0.027-2.17,0.027-2.404V33.14H373.409z"/>
		<path d="M382.445,33.814c0-0.18-0.018-0.387-0.135-0.495c-0.09-0.081-0.234-0.107-0.378-0.107c-0.162,0-0.315,0.035-0.477,0.144
			c-0.135,0.09-0.027,0.243-0.027,0.531c0,0.306-0.225,0.513-0.585,0.513c-0.207,0-0.387-0.126-0.387-0.323
			c0-0.198,0.063-0.469,0.252-0.631c0.378-0.342,0.999-0.666,1.729-0.666c0.576,0,0.729,0.09,0.918,0.261
			c0.198,0.181,0.252,0.441,0.252,0.766l0.018,1.792c0.009,0.468,0.036,0.611,0.208,0.611c0.126,0,0.225-0.099,0.261-0.162
			c0.036-0.054,0.063-0.063,0.09-0.045l0.126,0.072c0.036,0.019,0.063,0.045,0.027,0.126c-0.081,0.189-0.351,0.612-0.909,0.612
			c-0.351,0-0.684-0.126-0.855-0.549h-0.045c-0.225,0.207-0.414,0.333-0.774,0.468c-0.18,0.063-0.387,0.081-0.648,0.081
			c-0.315,0-0.594-0.342-0.594-0.828c0-0.396,0.189-0.811,0.774-1.099c0.702-0.333,0.927-0.432,1.161-0.594v-0.478H382.445z
			 M382.455,34.652c-0.441,0.252-0.811,0.387-0.811,1.008c0,0.414,0.189,0.585,0.387,0.594c0.243-0.018,0.423-0.242,0.423-0.323
			L382.455,34.652L382.455,34.652z"/>
		<path d="M387.801,36.776c-0.054,0.019-0.117,0.036-0.198,0.036c-0.09,0-0.144-0.045-0.153-0.108l-0.054-0.485h-0.054
			c-0.18,0.314-0.702,0.594-1.188,0.594c-0.36,0-0.63,0-0.945-0.414c-0.378-0.504-0.342-0.792-0.342-1.566l0.009-0.396
			c0-0.342,0-0.702-0.009-0.9c-0.009-0.216-0.198-0.297-0.306-0.314c-0.153-0.027-0.198-0.019-0.198-0.063v-0.18
			c0-0.054,0.018-0.072,0.099-0.072h1.314c0.054,0,0.09-0.009,0.126-0.018c0.036,0,0.072-0.01,0.099-0.01
			c0.063,0,0.108,0.046,0.099,0.108c-0.009,0.081-0.036,0.504-0.036,1.216v0.485c0,0.36-0.054,1.036,0.171,1.387
			c0.135,0.207,0.279,0.189,0.441,0.189c0.153,0,0.351-0.117,0.486-0.288c0.081-0.09,0.144-0.234,0.144-0.324l-0.009-2.116
			c0-0.225-0.162-0.297-0.387-0.314c-0.108-0.009-0.153-0.019-0.153-0.063v-0.171c0-0.072,0.018-0.081,0.108-0.081h1.342
			c0.063,0,0.108-0.009,0.153-0.018c0.045,0,0.081-0.01,0.108-0.01c0.054,0,0.09,0.046,0.081,0.091
			c-0.009,0.081-0.054,0.314-0.054,1.224v0.667c0,0.432,0,0.873,0.018,1.035c0.027,0.279,0.126,0.314,0.162,0.314
			c0.054,0,0.189,0,0.297-0.026c0.072-0.019,0.099,0,0.108,0.036l0.027,0.171c0.009,0.045-0.009,0.063-0.045,0.072L387.801,36.776z"
			/>
		<path d="M392.265,33.806c0.009,0.045,0,0.063-0.036,0.081l-0.162,0.072c-0.027,0.018-0.054,0.009-0.09-0.027l-0.504-0.54
			c-0.117-0.117-0.288-0.261-0.558-0.261s-0.531,0.18-0.531,0.485c0.018,0.315,0.126,0.405,0.792,0.586
			c0.441,0.116,0.657,0.18,0.927,0.468c0.234,0.234,0.288,0.45,0.288,0.766c0,0.801-0.63,1.377-1.612,1.377
			c-0.504,0-0.945-0.18-1.053-0.261c-0.036-0.027-0.045-0.063-0.054-0.117l-0.117-0.864c0-0.045,0.027-0.063,0.063-0.072
			l0.162-0.045c0.027-0.009,0.045,0,0.063,0.036l0.36,0.531c0.162,0.233,0.369,0.459,0.784,0.459c0.333,0,0.531-0.234,0.531-0.549
			c0-0.36-0.261-0.478-0.846-0.657c-0.639-0.189-1.098-0.495-1.098-1.144c0-0.423,0.126-0.774,0.468-1.026
			c0.36-0.261,0.612-0.324,0.99-0.324c0.486,0,0.783,0.108,0.945,0.189c0.135,0.063,0.153,0.107,0.162,0.171L392.265,33.806z"/>
		<path d="M395.224,36.155c-0.342-0.378-0.477-0.855-0.477-1.422c0-0.405,0.225-1.071,0.774-1.495
			c0.459-0.36,0.918-0.459,1.341-0.459c0.621,0,1.044,0.189,1.449,0.567c0.441,0.396,0.622,0.882,0.622,1.432
			c0,0.521-0.225,1.026-0.576,1.404c-0.432,0.45-0.955,0.63-1.567,0.63C396.134,36.813,395.684,36.678,395.224,36.155z
			 M397.565,34.715c0-1.044-0.36-1.558-0.756-1.558c-0.225,0-0.369,0.063-0.486,0.243c-0.18,0.279-0.297,0.666-0.297,1.396
			c0,0.522,0.045,0.864,0.225,1.251c0.117,0.243,0.261,0.388,0.594,0.388C397.34,36.435,397.565,35.705,397.565,34.715z"/>
		<path d="M401.021,36.002c0,0.271,0.054,0.369,0.135,0.369h0.18c0.045,0,0.072,0.019,0.072,0.072v0.171
			c0,0.063-0.009,0.1-0.063,0.1c-0.072,0-0.486-0.027-1.017-0.027c-0.63,0-0.972,0.027-1.053,0.027
			c-0.036,0-0.063-0.027-0.063-0.091v-0.18c0-0.063,0.036-0.072,0.135-0.072h0.144c0.144,0,0.279-0.036,0.306-0.152
			c0.045-0.162,0.045-0.324,0.045-0.595l-0.018-3.745c0-0.45-0.117-0.711-0.423-0.828l-0.162-0.054
			c-0.054-0.027-0.072-0.055-0.072-0.081v-0.117c0-0.036,0.027-0.072,0.153-0.108c0.495-0.144,0.819-0.288,1.359-0.549
			c0.117-0.054,0.189-0.09,0.279-0.09c0.081,0,0.099,0.072,0.081,0.225c-0.018,0.153-0.027,1.98-0.027,2.512v0.54h0.063
			c0.216-0.342,0.657-0.549,1.152-0.549c0.405,0,0.639,0.117,0.918,0.352c0.423,0.351,0.387,0.801,0.387,1.377v0.559
			c0,0.45-0.018,0.999-0.018,1.17c0,0.126,0.18,0.135,0.288,0.135h0.171c0.072,0,0.099,0.019,0.099,0.063v0.188
			c0,0.055-0.018,0.091-0.072,0.091c-0.063,0-0.351-0.027-0.981-0.027c-0.621,0-0.945,0.027-1.026,0.027
			c-0.063,0-0.081-0.027-0.081-0.1v-0.171c0-0.045,0.009-0.072,0.063-0.072h0.117c0.081,0,0.198-0.045,0.216-0.171
			c0.009-0.126,0.027-0.603,0.027-0.873v-0.549c0-0.441,0.027-1.071-0.207-1.306c-0.126-0.126-0.234-0.171-0.423-0.171
			c-0.198,0-0.396,0.162-0.531,0.314c-0.072,0.091-0.153,0.207-0.153,0.441V36.002L401.021,36.002z"/>
		<path d="M406.088,33.274h0.072c0.099-0.117,0.261-0.234,0.432-0.324c0.198-0.107,0.396-0.171,0.693-0.171
			c0.351,0,0.693,0.036,0.927,0.252c0.378,0.352,0.405,0.576,0.405,1.026v0.954c0,0.307-0.018,0.729-0.036,1.045
			c-0.009,0.27,0.135,0.314,0.216,0.314h0.243c0.081,0,0.099,0.027,0.099,0.081v0.162c0,0.063-0.018,0.1-0.072,0.1
			c-0.063,0-0.342-0.027-1.063-0.027c-0.594,0-0.882,0.027-0.945,0.027c-0.054,0-0.072-0.027-0.072-0.1v-0.162
			c0-0.063,0.027-0.081,0.117-0.081h0.099c0.063,0,0.144-0.045,0.162-0.207c0.036-0.233,0.054-0.521,0.054-0.936v-0.964
			c0-0.342-0.027-0.576-0.216-0.747c-0.162-0.145-0.288-0.162-0.441-0.162c-0.162,0-0.279,0.045-0.459,0.18
			c-0.108,0.081-0.18,0.324-0.18,0.693l-0.018,1.846c0,0.162,0.063,0.297,0.144,0.297h0.117c0.072,0,0.09,0.027,0.09,0.091v0.171
			c0,0.054-0.018,0.081-0.063,0.081c-0.063,0-0.306-0.027-0.9-0.027c-0.639,0-0.927,0.027-0.981,0.027
			c-0.045,0-0.063-0.027-0.063-0.081v-0.181c0-0.054,0.018-0.081,0.09-0.081h0.135c0.099,0,0.252-0.026,0.252-0.18v-1.999
			c0-0.27-0.153-0.423-0.36-0.521l-0.081-0.036c-0.054-0.027-0.063-0.063-0.063-0.1v-0.081c0-0.045,0.036-0.071,0.081-0.09
			l1.152-0.521c0.072-0.027,0.135-0.063,0.207-0.063c0.054,0,0.108,0.045,0.126,0.108L406.088,33.274z"/>
		<path d="M410.723,34.445v0.242c0,0.937,0.531,1.396,1.188,1.396c0.441,0,0.801-0.207,0.981-0.495
			c0.018-0.045,0.054-0.054,0.09-0.026l0.153,0.081c0.036,0.018,0.063,0.063-0.018,0.216c-0.162,0.333-0.747,0.954-1.593,0.954
			c-0.576,0-1.053-0.099-1.351-0.423c-0.459-0.495-0.612-0.847-0.621-1.549c0-0.252,0-0.729,0.405-1.323
			c0.324-0.478,0.873-0.738,1.566-0.738c1.458,0,1.54,1.396,1.54,1.539c0,0.117-0.081,0.127-0.279,0.127L410.723,34.445
			L410.723,34.445z M411.596,34.103c0.198,0,0.288-0.045,0.288-0.18c0-0.396-0.162-0.783-0.441-0.783
			c-0.423,0-0.648,0.333-0.711,0.963H411.596z"/>
		<path d="M417.608,33.238c0.414,0,0.81-0.026,0.918-0.054c0.153-0.036,0.279-0.117,0.414-0.279
			c0.099-0.135,0.207-0.387,0.207-0.558c0-0.063,0.027-0.081,0.072-0.081l0.243,0.026c0.045,0.009,0.081,0.019,0.072,0.072
			c-0.027,0.153-0.027,0.621-0.027,0.937c0,0.405,0.036,0.837,0.054,1.026c0.009,0.054-0.027,0.063-0.072,0.071l-0.216,0.046
			c-0.036,0.009-0.054-0.01-0.072-0.072c-0.036-0.145-0.126-0.352-0.18-0.459c-0.099-0.172-0.315-0.288-0.495-0.315
			c-0.243-0.036-0.522-0.054-0.918-0.054v0.54c0,0.486,0.045,1.359,0.045,1.521c0,0.468,0.099,0.63,0.216,0.684
			c0.135,0.055,0.306,0.081,0.756,0.081c0.153,0,0.531-0.009,0.72-0.026c0.18-0.019,0.45-0.108,0.685-0.298
			c0.234-0.188,0.738-0.747,0.918-0.963c0.036-0.036,0.063-0.045,0.09-0.027l0.153,0.091c0.036,0.018,0.045,0.045,0.036,0.071
			l-0.405,1.359c-0.027,0.081-0.09,0.136-0.198,0.136c-0.045,0-0.243-0.01-0.819-0.019c-0.585,0-1.54-0.009-3.097-0.009
			c-0.333,0-0.585,0.009-0.765,0.009c-0.189,0.009-0.306,0.019-0.387,0.019c-0.063,0-0.081-0.027-0.081-0.1v-0.188
			c0-0.055,0.027-0.081,0.09-0.081h0.27c0.414,0,0.45-0.063,0.45-0.378V32.95c0-0.747-0.018-1.854-0.027-1.944
			c-0.036-0.288-0.126-0.352-0.369-0.352h-0.351c-0.036,0-0.045-0.026-0.045-0.09v-0.216c0-0.027,0.009-0.063,0.063-0.063
			c0.198,0,0.513,0.027,1.333,0.027l3.16-0.009c0.144,0,0.315-0.019,0.36-0.019s0.063,0.019,0.072,0.046
			c0.036,0.126,0.333,1.359,0.369,1.449c0.018,0.045,0.018,0.063-0.027,0.09l-0.144,0.072c-0.036,0.018-0.081,0.009-0.108-0.036
			c-0.045-0.072-0.855-0.883-1.063-1.009c-0.189-0.116-0.441-0.233-0.684-0.243l-1.188-0.035L417.608,33.238z"/>
		<path d="M423.828,36.714c-0.072,0-0.486-0.027-1.271-0.027c-0.521,0-0.873,0.027-0.973,0.027c-0.045,0-0.072-0.019-0.072-0.091
			v-0.18c0-0.054,0.027-0.072,0.09-0.072h0.334c0.1,0,0.162-0.036,0.172-0.18c0.018-0.271,0.018-0.549,0.018-0.801l-0.018-1.261
			c0-0.252-0.055-0.433-0.434-0.567c-0.098-0.036-0.107-0.072-0.107-0.126v-0.099c0-0.027,0.018-0.045,0.1-0.072l1.342-0.433
			c0.1-0.036,0.18-0.054,0.242-0.054c0.072,0,0.1,0.045,0.09,0.108c-0.018,0.152-0.018,0.72-0.018,1.512v0.964
			c0,0.351,0,0.675,0.01,0.774c0.018,0.171,0.063,0.233,0.16,0.233h0.324c0.072,0,0.092,0.027,0.092,0.081v0.171
			C423.908,36.687,423.89,36.714,423.828,36.714z M422.593,32.095c-0.377,0.01-0.658-0.288-0.658-0.646
			c0-0.298,0.307-0.595,0.703-0.595c0.441,0,0.666,0.307,0.666,0.567C423.304,31.717,423.097,32.077,422.593,32.095z"/>
		<path d="M424.509,38.856c-0.332-0.189-0.439-0.424-0.439-0.702c0-0.45,0.504-0.774,0.928-0.945v-0.045
			c-0.414-0.126-0.621-0.405-0.621-0.721c0-0.522,0.504-0.811,0.801-0.954v-0.027c-0.387-0.225-0.793-0.603-0.793-1.368
			c0-0.585,0.471-1.313,1.748-1.313c0.791,0,1.188,0.414,1.27,0.504c0.207-0.171,0.541-0.314,0.793-0.314
			c0.322,0,0.494,0.18,0.494,0.468c0,0.207-0.189,0.387-0.396,0.387c-0.152,0-0.225-0.063-0.279-0.152
			c-0.045-0.072-0.15-0.136-0.252-0.136c-0.045,0-0.125,0.036-0.17,0.081c0.035,0.063,0.107,0.262,0.107,0.586
			c0,0.342-0.1,0.675-0.404,0.972c-0.342,0.324-0.855,0.433-1.217,0.433c-0.18,0-0.305,0-0.531-0.027
			c-0.115,0.072-0.332,0.234-0.332,0.414c0,0.315,0.262,0.342,1.232,0.315c0.611-0.019,1.07,0.018,1.514,0.36
			c0.324,0.261,0.441,0.576,0.441,0.909c0,0.378-0.172,0.702-0.523,0.999c-0.332,0.271-1.018,0.558-1.926,0.558
			C425.519,39.135,424.861,39.063,424.509,38.856z M427.435,38.019c0-0.495-0.35-0.765-1.17-0.729l-0.781,0.036
			c-0.262,0.063-0.451,0.342-0.451,0.611c0,0.262,0.145,0.486,0.314,0.612c0.252,0.181,0.504,0.234,0.91,0.234
			C426.851,38.784,427.435,38.469,427.435,38.019z M425.644,33.409c-0.125,0.181-0.18,0.595-0.18,1c0,0.261,0.08,0.549,0.197,0.684
			c0.1,0.126,0.234,0.181,0.414,0.181c0.396,0,0.531-0.604,0.531-1.297c0-0.333-0.035-0.522-0.08-0.604
			c-0.082-0.152-0.189-0.252-0.441-0.252C425.888,33.121,425.771,33.229,425.644,33.409z"/>
		<path d="M429.919,34.445v0.242c0,0.937,0.531,1.396,1.188,1.396c0.441,0,0.801-0.207,0.98-0.495
			c0.02-0.045,0.055-0.054,0.09-0.026l0.154,0.081c0.035,0.018,0.063,0.063-0.02,0.216c-0.162,0.333-0.746,0.954-1.594,0.954
			c-0.576,0-1.053-0.099-1.35-0.423c-0.459-0.495-0.613-0.847-0.621-1.549c0-0.252,0-0.729,0.404-1.323
			c0.322-0.478,0.873-0.738,1.564-0.738c1.459,0,1.541,1.396,1.541,1.539c0,0.117-0.082,0.127-0.279,0.127L429.919,34.445
			L429.919,34.445z M430.792,34.103c0.197,0,0.287-0.045,0.287-0.18c0-0.396-0.162-0.783-0.439-0.783
			c-0.424,0-0.648,0.333-0.713,0.963H430.792z"/>
		<path d="M434.427,33.274h0.072c0.1-0.117,0.262-0.234,0.432-0.324c0.199-0.107,0.396-0.171,0.693-0.171
			c0.352,0,0.693,0.036,0.928,0.252c0.379,0.352,0.404,0.576,0.404,1.026v0.954c0,0.307-0.018,0.729-0.035,1.045
			c-0.01,0.27,0.135,0.314,0.217,0.314h0.242c0.082,0,0.1,0.027,0.1,0.081v0.162c0,0.063-0.018,0.1-0.072,0.1
			c-0.063,0-0.342-0.027-1.063-0.027c-0.594,0-0.883,0.027-0.943,0.027c-0.057,0-0.072-0.027-0.072-0.1v-0.162
			c0-0.063,0.025-0.081,0.117-0.081h0.098c0.064,0,0.146-0.045,0.162-0.207c0.037-0.233,0.055-0.521,0.055-0.936v-0.964
			c0-0.342-0.025-0.576-0.217-0.747c-0.162-0.145-0.287-0.162-0.441-0.162c-0.16,0-0.277,0.045-0.459,0.18
			c-0.105,0.081-0.18,0.324-0.18,0.693l-0.018,1.846c0,0.162,0.063,0.297,0.145,0.297h0.117c0.07,0,0.09,0.027,0.09,0.091v0.171
			c0,0.054-0.02,0.081-0.063,0.081c-0.064,0-0.307-0.027-0.9-0.027c-0.639,0-0.928,0.027-0.98,0.027
			c-0.045,0-0.063-0.027-0.063-0.081v-0.181c0-0.054,0.018-0.081,0.09-0.081h0.135c0.1,0,0.252-0.026,0.252-0.18v-1.999
			c0-0.27-0.152-0.423-0.359-0.521l-0.08-0.036c-0.055-0.027-0.064-0.063-0.064-0.1v-0.081c0-0.045,0.037-0.071,0.082-0.09
			L434,32.842c0.072-0.027,0.135-0.063,0.207-0.063c0.055,0,0.107,0.045,0.127,0.108L434.427,33.274z"/>
		<path d="M440.701,33.806c0.01,0.045,0,0.063-0.035,0.081l-0.162,0.072c-0.027,0.018-0.055,0.009-0.09-0.027l-0.504-0.54
			c-0.117-0.117-0.289-0.261-0.561-0.261c-0.27,0-0.529,0.18-0.529,0.485c0.018,0.315,0.125,0.405,0.791,0.586
			c0.441,0.116,0.656,0.18,0.928,0.468c0.234,0.234,0.289,0.45,0.289,0.766c0,0.801-0.631,1.377-1.611,1.377
			c-0.506,0-0.945-0.18-1.055-0.261c-0.035-0.027-0.045-0.063-0.053-0.117l-0.117-0.864c0-0.045,0.025-0.063,0.063-0.072
			l0.162-0.045c0.027-0.009,0.045,0,0.063,0.036l0.359,0.531c0.162,0.233,0.369,0.459,0.783,0.459c0.334,0,0.531-0.234,0.531-0.549
			c0-0.36-0.262-0.478-0.846-0.657c-0.641-0.189-1.1-0.495-1.1-1.144c0-0.423,0.125-0.774,0.469-1.026
			c0.359-0.261,0.611-0.324,0.99-0.324c0.486,0,0.783,0.108,0.945,0.189c0.135,0.063,0.152,0.107,0.162,0.171L440.701,33.806z"/>
		<path d="M444.832,33.652c0,0.252-0.18,0.424-0.467,0.424c-0.379,0-0.576-0.253-0.648-0.478c-0.107-0.324-0.279-0.433-0.531-0.433
			c-0.242,0-0.594,0.352-0.594,0.919s-0.02,0.972,0.287,1.53c0.227,0.405,0.559,0.521,0.963,0.521c0.414,0,0.613-0.081,0.9-0.288
			c0.045-0.027,0.072-0.045,0.1-0.01l0.127,0.127c0.025,0.035,0.018,0.071-0.01,0.116c-0.172,0.298-0.873,0.729-1.701,0.729
			c-0.676,0-1.125-0.189-1.414-0.549c-0.352-0.433-0.459-0.783-0.459-1.242c0-0.612,0.197-1.27,0.676-1.711
			c0.404-0.369,0.848-0.531,1.332-0.531C444.572,32.779,444.832,33.373,444.832,33.652z"/>
		<path d="M446.947,36.002c0,0.271,0.055,0.369,0.135,0.369h0.18c0.045,0,0.072,0.019,0.072,0.072v0.171c0,0.063-0.01,0.1-0.063,0.1
			c-0.072,0-0.486-0.027-1.018-0.027c-0.631,0-0.973,0.027-1.053,0.027c-0.037,0-0.064-0.027-0.064-0.091v-0.18
			c0-0.063,0.037-0.072,0.137-0.072h0.145c0.145,0,0.279-0.036,0.307-0.152c0.045-0.162,0.045-0.324,0.045-0.595l-0.02-3.745
			c0-0.45-0.117-0.711-0.422-0.828l-0.162-0.054c-0.055-0.027-0.072-0.055-0.072-0.081v-0.117c0-0.036,0.027-0.072,0.152-0.108
			c0.496-0.144,0.82-0.288,1.359-0.549c0.117-0.054,0.189-0.09,0.279-0.09c0.08,0,0.1,0.072,0.08,0.225
			c-0.018,0.153-0.025,1.98-0.025,2.512v0.54h0.063c0.215-0.342,0.656-0.549,1.152-0.549c0.402,0,0.639,0.117,0.918,0.352
			c0.422,0.351,0.387,0.801,0.387,1.377v0.559c0,0.45-0.018,0.999-0.018,1.17c0,0.126,0.18,0.135,0.287,0.135h0.172
			c0.07,0,0.098,0.019,0.098,0.063v0.188c0,0.055-0.018,0.091-0.07,0.091c-0.063,0-0.352-0.027-0.98-0.027
			c-0.621,0-0.945,0.027-1.027,0.027c-0.063,0-0.08-0.027-0.08-0.1v-0.171c0-0.045,0.008-0.072,0.063-0.072h0.117
			c0.08,0,0.197-0.045,0.217-0.171c0.01-0.126,0.025-0.603,0.025-0.873v-0.549c0-0.441,0.027-1.071-0.207-1.306
			c-0.125-0.126-0.232-0.171-0.422-0.171c-0.199,0-0.396,0.162-0.531,0.314c-0.072,0.091-0.152,0.207-0.152,0.441v1.945H446.947z"/>
		<path d="M452.41,33.814c0-0.18-0.02-0.387-0.135-0.495c-0.092-0.081-0.234-0.107-0.379-0.107c-0.162,0-0.314,0.035-0.479,0.144
			c-0.135,0.09-0.025,0.243-0.025,0.531c0,0.306-0.227,0.513-0.586,0.513c-0.207,0-0.387-0.126-0.387-0.323
			c0-0.198,0.063-0.469,0.252-0.631c0.379-0.342,1-0.666,1.729-0.666c0.576,0,0.729,0.09,0.92,0.261
			c0.195,0.181,0.252,0.441,0.252,0.766l0.018,1.792c0.008,0.468,0.035,0.611,0.207,0.611c0.125,0,0.227-0.099,0.262-0.162
			c0.035-0.054,0.063-0.063,0.09-0.045l0.127,0.072c0.035,0.019,0.063,0.045,0.025,0.126c-0.08,0.189-0.352,0.612-0.91,0.612
			c-0.35,0-0.684-0.126-0.854-0.549h-0.045c-0.227,0.207-0.414,0.333-0.773,0.468c-0.182,0.063-0.389,0.081-0.648,0.081
			c-0.314,0-0.594-0.342-0.594-0.828c0-0.396,0.188-0.811,0.773-1.099c0.701-0.333,0.928-0.432,1.162-0.594v-0.478H452.41z
			 M452.419,34.652c-0.441,0.252-0.811,0.387-0.811,1.008c0,0.414,0.188,0.585,0.387,0.594c0.242-0.018,0.424-0.242,0.424-0.323
			V34.652z"/>
		<path d="M456.216,33.383v0.783c0,0.432-0.025,1.575-0.01,1.927c0.01,0.197,0.117,0.278,0.262,0.278h0.324
			c0.08,0,0.1,0.019,0.1,0.072v0.18c0,0.055-0.02,0.091-0.063,0.091c-0.055,0-0.387-0.027-1.26-0.027
			c-0.586,0-1.045,0.027-1.117,0.027c-0.055,0-0.072-0.019-0.072-0.081v-0.198c0-0.045,0.02-0.063,0.09-0.063h0.297
			c0.172,0,0.244-0.107,0.244-0.297l-0.027-2.691h-0.576c-0.045,0-0.063-0.019-0.053-0.1l0.045-0.314
			c0.008-0.055,0.035-0.063,0.107-0.063h0.477v-0.27c0-0.945,0.299-1.531,0.758-1.963c0.484-0.45,0.963-0.621,1.52-0.621
			c0.531,0,0.928,0.216,0.928,0.63c0,0.279-0.287,0.45-0.494,0.45c-0.289,0-0.469-0.108-0.604-0.342
			c-0.107-0.181-0.234-0.271-0.324-0.271c-0.182,0-0.307,0.054-0.449,0.288c-0.162,0.252-0.102,0.892-0.102,1.72v0.378h1.045
			c0.064,0,0.072,0.054,0.064,0.09l-0.045,0.343c-0.01,0.035-0.045,0.045-0.117,0.045L456.216,33.383L456.216,33.383z"/>
		<path d="M459.222,35.372c0,0.738,0.279,0.9,0.494,0.9c0.189,0,0.324-0.027,0.469-0.108c0.027-0.018,0.055-0.018,0.08,0.036
			l0.064,0.135c0.025,0.046,0,0.091-0.037,0.117c-0.152,0.108-0.559,0.36-1.26,0.36c-0.613,0-1-0.423-1-0.837
			c0-0.315,0.018-1,0.018-1.342l0.01-1.188h-0.494c-0.082,0-0.145-0.036-0.145-0.126c0-0.09,0.053-0.153,0.197-0.225
			c0.297-0.136,1.053-0.811,1.387-1.188c0.063-0.072,0.127-0.09,0.172-0.09c0.08,0,0.115,0.063,0.115,0.135l-0.035,0.954h1.145
			c0.055,0,0.08,0.045,0.063,0.081l-0.09,0.387c-0.01,0.036-0.027,0.072-0.082,0.072h-1.053c-0.02,0.369-0.02,0.802-0.02,1.216
			v0.711H459.222z"/>
		<path d="M461.849,34.445v0.242c0,0.937,0.531,1.396,1.189,1.396c0.441,0,0.801-0.207,0.98-0.495
			c0.018-0.045,0.055-0.054,0.09-0.026l0.152,0.081c0.035,0.018,0.064,0.063-0.018,0.216c-0.162,0.333-0.748,0.954-1.594,0.954
			c-0.576,0-1.055-0.099-1.352-0.423c-0.459-0.495-0.611-0.847-0.621-1.549c0-0.252,0-0.729,0.404-1.323
			c0.324-0.478,0.875-0.738,1.566-0.738c1.459,0,1.541,1.396,1.541,1.539c0,0.117-0.082,0.127-0.279,0.127L461.849,34.445
			L461.849,34.445z M462.722,34.103c0.199,0,0.289-0.045,0.289-0.18c0-0.396-0.162-0.783-0.441-0.783
			c-0.422,0-0.646,0.333-0.711,0.963H462.722z"/>
		<path d="M466.359,33.274h0.07c0.1-0.117,0.262-0.234,0.434-0.324c0.197-0.107,0.395-0.171,0.691-0.171
			c0.354,0,0.693,0.036,0.93,0.252c0.377,0.352,0.402,0.576,0.402,1.026v0.954c0,0.307-0.018,0.729-0.035,1.045
			c-0.01,0.27,0.137,0.314,0.217,0.314h0.242c0.082,0,0.1,0.027,0.1,0.081v0.162c0,0.063-0.018,0.1-0.072,0.1
			c-0.063,0-0.342-0.027-1.061-0.027c-0.596,0-0.885,0.027-0.945,0.027c-0.055,0-0.072-0.027-0.072-0.1v-0.162
			c0-0.063,0.025-0.081,0.117-0.081h0.098c0.064,0,0.146-0.045,0.162-0.207c0.037-0.233,0.055-0.521,0.055-0.936v-0.964
			c0-0.342-0.025-0.576-0.217-0.747c-0.16-0.145-0.287-0.162-0.439-0.162c-0.162,0-0.279,0.045-0.459,0.18
			c-0.107,0.081-0.182,0.324-0.182,0.693l-0.018,1.846c0,0.162,0.063,0.297,0.145,0.297h0.117c0.07,0,0.09,0.027,0.09,0.091v0.171
			c0,0.054-0.02,0.081-0.063,0.081c-0.064,0-0.307-0.027-0.9-0.027c-0.639,0-0.928,0.027-0.98,0.027
			c-0.045,0-0.063-0.027-0.063-0.081v-0.181c0-0.054,0.02-0.081,0.09-0.081h0.137c0.098,0,0.252-0.026,0.252-0.18v-1.999
			c0-0.27-0.154-0.423-0.361-0.521l-0.08-0.036c-0.055-0.027-0.063-0.063-0.063-0.1v-0.081c0-0.045,0.035-0.071,0.08-0.09
			l1.152-0.521c0.072-0.027,0.137-0.063,0.207-0.063c0.055,0,0.107,0.045,0.127,0.108L466.359,33.274z"/>
	</g>
	<g>
		<path d="M388.327,572.357c-0.045,0-0.063-0.027-0.045-0.09l0.036-0.152c0.018-0.064,0.036-0.09,0.108-0.09h0.783
			c0.27-0.775,0.576-1.521,1.053-2.055c0.252-0.287,0.747-0.611,1.333-0.611c0.522,0,0.81,0.314,0.81,0.531
			c0,0.279-0.18,0.414-0.36,0.414c-0.288,0-0.369-0.162-0.396-0.359c-0.009-0.092-0.099-0.262-0.369-0.262
			c-0.837,0-1.161,1.332-1.458,2.342h0.874c0.054,0,0.072,0.025,0.054,0.107l-0.045,0.16c-0.009,0.055-0.027,0.064-0.099,0.064
			h-0.855c-0.234,0.729-0.648,2.285-1.099,3.438c-0.549,1.404-1.188,2.404-2.151,2.404c-0.36,0-0.648-0.244-0.648-0.531
			c0-0.207,0.153-0.387,0.387-0.387c0.261,0,0.396,0.252,0.423,0.402c0.018,0.092,0.081,0.154,0.153,0.154
			c0.432,0,0.918-0.756,1.405-2.422l0.909-3.061h-0.803V572.357z"/>
		<path d="M394.501,571.871c0.081,0,0.1,0.027,0.081,0.082l-0.693,1.873c-0.261,0.701-0.378,1.115-0.378,1.17
			c0,0.08,0.009,0.08,0.072,0.107c0.135,0,0.63-0.449,0.702-0.559c0.019-0.027,0.054-0.037,0.081,0l0.09,0.09
			c0.027,0.027,0.027,0.045,0,0.08c-0.026,0.037-0.864,0.9-1.485,0.9c-0.126,0-0.171-0.1-0.171-0.207s0.459-1.232,0.576-1.539
			l-0.054-0.027c-0.378,0.549-1.333,1.773-2.224,1.773c-0.18,0-0.333-0.152-0.333-0.369c0-0.287,0.288-0.846,0.639-1.684
			c0.234-0.559,0.441-0.98,0.441-1.143c0-0.082-0.063-0.127-0.144-0.127c-0.162,0-0.612,0.404-0.702,0.514
			c-0.027,0.027-0.054,0.027-0.081,0l-0.081-0.082c-0.027-0.018-0.027-0.045,0.009-0.08c0.063-0.082,0.811-0.863,1.387-0.863
			c0.18,0,0.261,0.18,0.261,0.322c0,0.227-0.216,0.758-0.585,1.559c-0.243,0.531-0.477,1.107-0.477,1.305
			c0,0.1,0.063,0.154,0.153,0.154c0.477,0,1.432-1.18,1.692-1.559c0.171-0.252,0.315-0.494,0.414-0.766l0.315-0.863
			c0.018-0.055,0.063-0.063,0.125-0.063H394.501L394.501,571.871z M392.521,570.189c0-0.117,0.081-0.352,0.414-0.352
			c0.198,0,0.369,0.135,0.369,0.377c0,0.227-0.162,0.361-0.369,0.361C392.773,570.576,392.521,570.503,392.521,570.189z
			 M393.746,570.189c0-0.117,0.081-0.352,0.414-0.352c0.198,0,0.369,0.135,0.369,0.377c0,0.227-0.162,0.361-0.369,0.361
			C393.998,570.576,393.746,570.503,393.746,570.189z"/>
		<path d="M395.185,575.527c-0.063,0-0.1-0.037-0.081-0.082l0.504-1.457c0.162-0.506,0.441-1.451,0.441-1.576
			c0-0.082-0.072-0.135-0.153-0.135c-0.18,0-0.585,0.404-0.711,0.559c-0.019,0.025-0.055,0.018-0.072,0l-0.09-0.092
			c-0.019-0.018-0.019-0.045,0-0.07c0.188-0.279,0.729-0.893,1.341-0.893c0.181,0,0.252,0.152,0.252,0.314
			c0.01,0.172-0.144,0.676-0.323,1.279l0.045,0.018c0.243-0.504,0.963-1.611,1.467-1.611c0.262,0,0.424,0.162,0.424,0.406
			c0,0.232-0.181,0.412-0.352,0.412c-0.081,0-0.153-0.018-0.225-0.09c-0.072-0.07-0.117-0.107-0.234-0.107
			c-0.243,0-0.747,0.773-1.107,1.369c-0.108,0.172-0.216,0.379-0.352,0.781l-0.297,0.91c-0.018,0.063-0.045,0.063-0.117,0.063h-0.36
			V575.527z"/>
	</g>
</g>
<g id="Calque_2">
</g>
<polygon fill="#1D1D1B" points="774.265,524.341 740.806,541.498 740.806,507.185 774.265,524.341 "/>
</svg>
