<?xml version="1.0" encoding="utf-8"?>
<!-- Generator: Adobe Illustrator 16.0.0, SVG Export Plug-In . SVG Version: 6.00 Build 0)  -->
<!DOCTYPE svg PUBLIC "-//W3C//DTD SVG 1.1//EN" "http://www.w3.org/Graphics/SVG/1.1/DTD/svg11.dtd">
<svg version="1.1" xmlns="http://www.w3.org/2000/svg" xmlns:xlink="http://www.w3.org/1999/xlink" x="0px" y="0px"
	 width="841.89px" height="595.28px" viewBox="0 0 841.89 595.28" enable-background="new 0 0 841.89 595.28" xml:space="preserve">
<g id="Calque_1">
</g>
<g id="Calque_3">
	<g>
		<path d="M166.754,144.721h12.561v23.68l22.32-23.68h15.68l-22.32,22.56l24.48,34.561h-15.76l-17.2-25.681l-7.2,7.28v18.4h-12.561
			V144.721z"/>
		<path d="M223.633,144.721h11.36v57.121h-11.36V144.721z"/>
		<path d="M243.472,173.201c0.64-10.64,10.161-13.84,19.441-13.84c8.24,0,18.16,1.84,18.16,11.76v21.521c0,3.761,0.4,7.521,1.44,9.2
			h-11.52c-0.4-1.279-0.72-2.641-0.8-4c-3.6,3.76-8.88,5.12-13.92,5.12c-7.84,0-14.081-3.921-14.081-12.4
			c0-9.36,7.04-11.601,14.081-12.56c6.96-1.041,13.44-0.801,13.44-5.441c0-4.88-3.36-5.6-7.36-5.6c-4.32,0-7.12,1.76-7.521,6.24
			H243.472z M269.713,181.602c-1.92,1.68-5.92,1.76-9.44,2.4c-3.52,0.719-6.72,1.92-6.72,6.08c0,4.24,3.28,5.279,6.96,5.279
			c8.88,0,9.2-7.04,9.2-9.52V181.602z"/>
		<path d="M298.671,188.401c0.08,4.96,4.24,6.96,8.72,6.96c3.28,0,7.44-1.279,7.44-5.279c0-3.44-4.72-4.641-12.88-6.4
			c-6.56-1.44-13.12-3.76-13.12-11.041c0-10.56,9.12-13.28,18-13.28c9.041,0,17.361,3.04,18.241,13.2h-10.8
			c-0.32-4.4-3.68-5.6-7.76-5.6c-2.56,0-6.32,0.48-6.32,3.84c0,4.08,6.4,4.64,12.88,6.16c6.64,1.521,13.121,3.92,13.121,11.601
			c0,10.88-9.44,14.4-18.88,14.4c-9.601,0-18.96-3.601-19.441-14.561H298.671z"/>
		<path d="M141.714,284.4c0.08,4.961,4.24,6.961,8.72,6.961c3.28,0,7.44-1.279,7.44-5.281c0-3.439-4.72-4.639-12.88-6.398
			c-6.56-1.441-13.12-3.762-13.12-11.041c0-10.561,9.12-13.28,18-13.28c9.041,0,17.361,3.04,18.241,13.2h-10.8
			c-0.32-4.4-3.68-5.6-7.76-5.6c-2.56,0-6.32,0.48-6.32,3.84c0,4.08,6.4,4.641,12.88,6.16c6.64,1.52,13.121,3.92,13.121,11.6
			c0,10.881-9.44,14.4-18.88,14.4c-9.601,0-18.96-3.6-19.441-14.561H141.714z"/>
		<path d="M187.554,250.08h-11.36v-9.359h11.36V250.08z M176.193,256.48h11.36v41.361h-11.36V256.48z"/>
		<path d="M205.313,284.4c0.08,4.961,4.24,6.961,8.72,6.961c3.28,0,7.44-1.279,7.44-5.281c0-3.439-4.72-4.639-12.88-6.398
			c-6.56-1.441-13.12-3.762-13.12-11.041c0-10.561,9.12-13.28,18-13.28c9.041,0,17.361,3.04,18.241,13.2h-10.8
			c-0.32-4.4-3.68-5.6-7.76-5.6c-2.56,0-6.32,0.48-6.32,3.84c0,4.08,6.4,4.641,12.88,6.16c6.64,1.52,13.121,3.92,13.121,11.6
			c0,10.881-9.44,14.4-18.88,14.4c-9.601,0-18.96-3.6-19.441-14.561H205.313z"/>
		<path d="M267.633,271.041c-0.72-4.641-3.68-7.121-8.4-7.121c-7.28,0-9.68,7.361-9.68,13.441c0,5.92,2.32,13.039,9.44,13.039
			c5.28,0,8.32-3.359,9.041-8.4h10.96c-1.44,10.961-9.04,16.961-19.92,16.961c-12.48,0-20.88-8.799-20.88-21.199
			c0-12.881,7.68-22.401,21.121-22.401c9.76,0,18.72,5.12,19.44,15.681H267.633z"/>
		<path d="M285.391,240.721h11.36v21.52h0.24c2.88-4.64,7.84-6.88,12.08-6.88c12.081,0,15.121,6.8,15.121,17.04v25.441h-11.36
			V274.48c0-6.801-2-10.16-7.28-10.16c-6.16,0-8.8,3.439-8.8,11.84v21.682h-11.36V240.721z"/>
	</g>
	<g>
		<path d="M698.299,443.869h-8.879v-3.899l9.119-12.239h3.811v12.629h2.789v3.51h-2.789v4.86h-4.051V443.869z M698.299,433.07h-0.09
			l-5.43,7.289h5.52V433.07z"/>
	</g>
	<g>
		<path d="M511.395,436.221c1.83,0.149,4.471-0.211,4.471-2.611c0-1.77-1.41-2.789-2.971-2.789c-2.129,0-3.27,1.59-3.24,3.75h-4.049
			c0.15-4.29,2.939-7.26,7.26-7.26c3.359,0,7.049,2.07,7.049,5.82c0,1.979-0.989,3.749-2.939,4.289v0.061
			c2.311,0.51,3.72,2.43,3.72,4.77c0,4.41-3.689,6.899-7.8,6.899c-4.709,0-7.889-2.819-7.799-7.649h4.049
			c0.09,2.279,1.23,4.14,3.69,4.14c1.92,0,3.42-1.319,3.42-3.3c0-3.18-2.79-3.12-4.86-3.12V436.221z"/>
	</g>
	<g>
		<path d="M321.28,435.8c-0.15-4.8,2.58-8.489,7.62-8.489c3.84,0,7.2,2.459,7.2,6.569c0,3.149-1.68,4.89-3.75,6.36
			c-2.07,1.47-4.53,2.67-6.06,4.83h9.93v3.659H320.8c0.03-4.86,3-6.93,6.63-9.39c1.86-1.26,4.38-2.55,4.41-5.13
			c0-1.979-1.32-3.239-3.15-3.239c-2.52,0-3.33,2.609-3.33,4.829H321.28z"/>
	</g>
	<g>
		<path d="M147.546,448.729h-4.26v-13.62h-5.28V431.9c2.97,0.06,5.7-0.96,6.15-4.17h3.39V448.729z"/>
	</g>
	<g>
		<path d="M518.415,144.721h17.681l13.36,39.281h0.159l12.641-39.281h17.682v57.121h-11.762v-40.481h-0.16l-14,40.481h-9.68
			l-14-40.081h-0.16v40.081h-11.761V144.721z"/>
		<path d="M609.855,159.361c13.039,0,21.439,8.64,21.439,21.84c0,13.121-8.4,21.761-21.439,21.761
			c-12.961,0-21.361-8.64-21.361-21.761C588.494,168.001,596.895,159.361,609.855,159.361z M609.855,194.402
			c7.76,0,10.08-6.641,10.08-13.201c0-6.64-2.32-13.28-10.08-13.28c-7.68,0-10,6.64-10,13.28
			C599.855,187.762,602.176,194.402,609.855,194.402z"/>
		<path d="M546.736,292.561h-0.16c-2.641,4.48-7.281,6.4-12.561,6.4c-12.48,0-18.561-10.721-18.561-22.16
			c0-11.121,6.16-21.44,18.32-21.44c4.881,0,9.68,2.08,12.24,6.159h0.16v-20.799h11.359v57.121h-10.799V292.561z M536.815,263.92
			c-7.44,0-10,6.4-10,13.201c0,6.48,2.96,13.279,10,13.279c7.521,0,9.761-6.559,9.761-13.359
			C546.576,270.32,544.176,263.92,536.815,263.92z"/>
		<path d="M575.455,279.922c0.318,7.199,3.84,10.479,10.16,10.479c4.559,0,8.24-2.799,8.959-5.359h10
			c-3.199,9.76-10,13.92-19.359,13.92c-13.041,0-21.121-8.959-21.121-21.76c0-12.4,8.561-21.841,21.121-21.841
			c14.08,0,20.881,11.841,20.08,24.562H575.455z M593.936,272.721c-1.041-5.76-3.521-8.801-9.041-8.801
			c-7.201,0-9.281,5.602-9.439,8.801H593.936z"/>
		<path d="M612.014,256.48h10.801v7.68h0.16c2.08-5.199,7.68-8.8,13.199-8.8c0.801,0,1.76,0.16,2.48,0.399v10.561
			c-1.039-0.24-2.721-0.4-4.08-0.4c-8.32,0-11.199,6-11.199,13.281v18.641h-11.361V256.48z"/>
		<path d="M644.572,256.48h10.801v5.76h0.24c2.879-4.64,7.84-6.88,12.641-6.88c12.08,0,15.119,6.8,15.119,17.04v25.441h-11.359
			V274.48c0-6.801-2-10.16-7.281-10.16c-6.16,0-8.799,3.439-8.799,11.84v21.682h-11.361V256.48z"/>
	</g>
	
		<line fill="none" stroke="#000000" stroke-width="0.5" stroke-linecap="square" stroke-miterlimit="10" x1="328.51" y1="393.436" x2="328.51" y2="409.476"/>
	
		<line fill="none" stroke="#000000" stroke-width="0.5" stroke-linecap="square" stroke-miterlimit="10" x1="512.895" y1="393.436" x2="512.895" y2="409.476"/>
	
		<line fill="none" stroke="#000000" stroke-width="0.5" stroke-linecap="square" stroke-miterlimit="10" x1="697.279" y1="393.436" x2="697.279" y2="409.476"/>
	
		<line fill="none" stroke="#000000" stroke-width="0.5" stroke-linecap="square" stroke-miterlimit="10" x1="144.612" y1="393.436" x2="144.612" y2="409.476"/>
	
		<line fill="none" stroke="#000000" stroke-width="2" stroke-miterlimit="10" x1="144.612" y1="393.436" x2="697.279" y2="393.436"/>
	<g>
		<path d="M403.907,573.563c-0.074,0.026-0.153,0.048-0.237,0.063c-0.084,0.018-0.172,0.031-0.264,0.041
			c-0.093,0.011-0.186,0.024-0.278,0.042c-0.087,0.016-0.172,0.037-0.256,0.064c-0.085,0.026-0.158,0.063-0.22,0.109
			c-0.063,0.049-0.113,0.105-0.151,0.175c-0.038,0.071-0.058,0.16-0.058,0.271c0,0.101,0.02,0.188,0.058,0.261
			c0.038,0.069,0.089,0.126,0.155,0.166c0.065,0.041,0.141,0.07,0.228,0.085c0.087,0.019,0.177,0.025,0.269,0.025
			c0.229,0,0.406-0.039,0.53-0.115c0.125-0.076,0.218-0.167,0.278-0.271c0.06-0.106,0.096-0.213,0.11-0.322s0.021-0.196,0.021-0.263
			v-0.432C404.042,573.508,403.98,573.541,403.907,573.563 M401.62,571.931c0.12-0.179,0.271-0.322,0.457-0.433
			c0.184-0.107,0.392-0.185,0.623-0.233c0.231-0.045,0.464-0.067,0.697-0.067c0.212,0,0.427,0.013,0.645,0.046
			c0.218,0.028,0.416,0.086,0.595,0.174c0.179,0.088,0.326,0.208,0.44,0.363c0.114,0.154,0.171,0.359,0.171,0.616v2.193
			c0,0.188,0.011,0.372,0.033,0.547c0.021,0.172,0.06,0.302,0.114,0.39h-1.174c-0.022-0.065-0.04-0.132-0.053-0.199
			c-0.013-0.068-0.023-0.138-0.028-0.208c-0.185,0.189-0.402,0.322-0.652,0.398c-0.25,0.077-0.505,0.115-0.766,0.115
			c-0.202,0-0.39-0.024-0.563-0.072c-0.174-0.049-0.326-0.128-0.457-0.23c-0.13-0.104-0.232-0.233-0.305-0.392
			c-0.075-0.155-0.11-0.345-0.11-0.563c0-0.238,0.042-0.436,0.126-0.59c0.084-0.157,0.193-0.278,0.327-0.372
			c0.133-0.092,0.285-0.161,0.456-0.207c0.171-0.045,0.344-0.084,0.518-0.11c0.174-0.027,0.346-0.049,0.514-0.064
			c0.168-0.017,0.318-0.042,0.448-0.074s0.234-0.081,0.31-0.142c0.076-0.063,0.111-0.155,0.106-0.275
			c0-0.124-0.021-0.224-0.061-0.298c-0.041-0.072-0.095-0.13-0.163-0.171c-0.068-0.039-0.147-0.067-0.236-0.081
			c-0.09-0.013-0.186-0.02-0.29-0.02c-0.228,0-0.407,0.05-0.538,0.147c-0.13,0.099-0.206,0.26-0.228,0.488h-1.158
			C401.432,572.336,401.501,572.11,401.62,571.931"/>
		<path d="M407.172,571.313v0.781h0.016c0.054-0.131,0.128-0.252,0.221-0.362c0.093-0.111,0.198-0.207,0.318-0.286
			c0.119-0.079,0.248-0.139,0.383-0.184c0.135-0.044,0.276-0.064,0.423-0.064c0.077,0,0.161,0.012,0.252,0.042v1.074
			c-0.054-0.011-0.119-0.02-0.194-0.029c-0.077-0.008-0.15-0.012-0.221-0.012c-0.212,0-0.392,0.037-0.538,0.106
			c-0.147,0.072-0.266,0.168-0.355,0.29c-0.09,0.122-0.155,0.265-0.191,0.428c-0.039,0.163-0.058,0.341-0.058,0.529v1.9h-1.158
			v-4.214H407.172z"/>
		<path d="M411.176,572.069c-0.185,0-0.34,0.042-0.464,0.125c-0.126,0.085-0.228,0.193-0.307,0.326
			c-0.079,0.135-0.134,0.281-0.166,0.441c-0.033,0.159-0.05,0.319-0.05,0.478c0,0.153,0.017,0.307,0.05,0.464
			c0.032,0.158,0.084,0.301,0.158,0.429c0.074,0.129,0.173,0.231,0.297,0.314c0.125,0.081,0.278,0.12,0.457,0.12
			c0.277,0,0.49-0.076,0.641-0.23c0.149-0.156,0.243-0.363,0.28-0.625h1.118c-0.077,0.561-0.293,0.987-0.654,1.28
			c-0.357,0.294-0.816,0.441-1.375,0.441c-0.316,0-0.605-0.054-0.869-0.16c-0.264-0.104-0.489-0.255-0.672-0.444
			c-0.186-0.19-0.33-0.416-0.433-0.681c-0.103-0.263-0.155-0.554-0.155-0.869c0-0.324,0.048-0.628,0.144-0.907
			c0.095-0.28,0.234-0.523,0.419-0.726c0.185-0.204,0.411-0.364,0.677-0.478c0.266-0.114,0.57-0.171,0.913-0.171
			c0.25,0,0.49,0.033,0.721,0.098c0.231,0.065,0.437,0.163,0.62,0.297c0.182,0.134,0.331,0.301,0.445,0.498
			c0.113,0.198,0.179,0.433,0.197,0.705h-1.134C411.957,572.312,411.669,572.069,411.176,572.069"/>
		<path d="M414.934,569.705v2.192h0.025c0.147-0.244,0.334-0.422,0.562-0.534c0.228-0.111,0.451-0.166,0.669-0.166
			c0.309,0,0.563,0.042,0.761,0.126c0.2,0.086,0.354,0.201,0.469,0.35c0.115,0.149,0.197,0.332,0.24,0.547
			c0.048,0.215,0.071,0.455,0.071,0.714v2.593h-1.159v-2.382c0-0.348-0.055-0.606-0.163-0.778c-0.109-0.17-0.303-0.256-0.579-0.256
			c-0.315,0-0.544,0.095-0.685,0.281c-0.142,0.188-0.212,0.496-0.212,0.928v2.207h-1.157v-5.821H414.934z"/>
	</g>
	<path d="M419.72,575.526v-4.214h-1.158v4.214H419.72z M419.72,570.659v-0.954h-1.158v0.954H419.72z"/>
	<g>
		<path d="M445.646,573.894c0.008,0.194,0.037,0.379,0.086,0.559c0.047,0.18,0.121,0.331,0.227,0.459
			c0.104,0.127,0.252,0.188,0.447,0.188c0.199,0,0.352-0.062,0.459-0.188c0.107-0.128,0.186-0.279,0.232-0.459
			s0.074-0.364,0.084-0.559c0.008-0.191,0.014-0.355,0.014-0.493c0-0.079-0.002-0.179-0.004-0.293
			c-0.002-0.116-0.012-0.235-0.027-0.358c-0.016-0.121-0.037-0.242-0.066-0.362c-0.031-0.121-0.074-0.229-0.133-0.322
			c-0.061-0.096-0.135-0.172-0.225-0.232c-0.092-0.059-0.201-0.087-0.334-0.087c-0.131,0-0.24,0.028-0.328,0.087
			c-0.09,0.061-0.162,0.137-0.219,0.232c-0.057,0.094-0.102,0.201-0.133,0.322c-0.031,0.12-0.053,0.241-0.068,0.362
			c-0.012,0.123-0.021,0.242-0.021,0.358c-0.004,0.114-0.004,0.214-0.004,0.293C445.632,573.538,445.636,573.702,445.646,573.894
			 M444.806,572.238c0.094-0.316,0.219-0.568,0.377-0.76c0.158-0.188,0.344-0.326,0.555-0.407s0.434-0.122,0.668-0.122
			c0.24,0,0.465,0.041,0.678,0.122c0.209,0.081,0.396,0.219,0.555,0.407c0.162,0.191,0.287,0.443,0.383,0.76
			c0.092,0.313,0.137,0.702,0.137,1.162c0,0.478-0.045,0.876-0.137,1.193c-0.096,0.32-0.221,0.575-0.383,0.764
			c-0.158,0.191-0.346,0.328-0.555,0.41c-0.213,0.08-0.438,0.121-0.678,0.121c-0.234,0-0.457-0.041-0.668-0.121
			c-0.211-0.082-0.396-0.219-0.555-0.41c-0.158-0.188-0.283-0.443-0.377-0.764c-0.094-0.317-0.141-0.716-0.141-1.193
			C444.665,572.94,444.712,572.552,444.806,572.238"/>
	</g>
	<rect x="448.587" y="574.753" width="1.066" height="1.049"/>
	<g>
		<path d="M451.054,575.802v-3.086h-1.197v-0.726c0.168,0.004,0.33-0.01,0.486-0.039c0.156-0.031,0.297-0.081,0.422-0.156
			c0.125-0.074,0.229-0.174,0.316-0.296c0.086-0.122,0.143-0.272,0.17-0.455h0.768v4.758H451.054z"/>
		<path d="M438.948,575.474v-0.586h-0.023c-0.146,0.243-0.338,0.421-0.57,0.528c-0.234,0.108-0.473,0.163-0.719,0.163
			c-0.309,0-0.564-0.041-0.762-0.12c-0.199-0.082-0.354-0.198-0.469-0.347c-0.113-0.148-0.195-0.332-0.24-0.547
			c-0.047-0.215-0.07-0.453-0.07-0.714v-2.592h1.158v2.38c0,0.347,0.053,0.607,0.162,0.779c0.109,0.171,0.303,0.256,0.58,0.256
			c0.316,0,0.543-0.093,0.686-0.281c0.141-0.189,0.211-0.497,0.211-0.924v-2.21h1.158v4.214H438.948z"/>
		<path d="M441.974,571.26v0.782h0.016c0.055-0.132,0.129-0.253,0.221-0.363c0.092-0.112,0.199-0.207,0.316-0.285
			c0.121-0.078,0.248-0.14,0.385-0.185c0.137-0.043,0.277-0.064,0.426-0.064c0.074,0,0.16,0.013,0.252,0.04v1.077
			c-0.055-0.012-0.119-0.021-0.195-0.028c-0.078-0.008-0.15-0.014-0.221-0.014c-0.213,0-0.393,0.035-0.539,0.108
			c-0.146,0.07-0.264,0.166-0.354,0.29c-0.09,0.121-0.154,0.264-0.191,0.426c-0.039,0.163-0.057,0.341-0.057,0.529v1.9h-1.158
			v-4.214H441.974z"/>
		<path d="M423.344,571.26v0.774h-0.848v2.086c0,0.195,0.032,0.327,0.098,0.393s0.196,0.098,0.392,0.098
			c0.065,0,0.128-0.002,0.187-0.009c0.06-0.007,0.117-0.012,0.172-0.023v0.897c-0.098,0.016-0.207,0.027-0.326,0.031
			c-0.119,0.007-0.236,0.008-0.352,0.008c-0.177,0-0.348-0.012-0.509-0.037c-0.16-0.023-0.301-0.07-0.424-0.143
			c-0.122-0.069-0.219-0.169-0.29-0.302c-0.07-0.129-0.105-0.301-0.105-0.514v-2.485h-0.703v-0.774h0.703v-1.265h1.158v1.265
			H423.344z"/>
		<path d="M426.323,572.244c-0.138-0.151-0.349-0.228-0.632-0.228c-0.184,0-0.338,0.032-0.459,0.095
			c-0.123,0.062-0.221,0.139-0.295,0.234c-0.073,0.091-0.125,0.188-0.154,0.29c-0.031,0.105-0.049,0.197-0.054,0.278h1.884
			C426.559,572.62,426.463,572.398,426.323,572.244 M425.016,574.463c0.174,0.17,0.423,0.253,0.75,0.253
			c0.232,0,0.434-0.06,0.604-0.175c0.168-0.118,0.271-0.241,0.309-0.371h1.02c-0.162,0.507-0.412,0.868-0.75,1.085
			c-0.336,0.217-0.744,0.324-1.223,0.324c-0.331,0-0.63-0.052-0.897-0.158c-0.265-0.104-0.492-0.255-0.677-0.452
			c-0.185-0.195-0.326-0.43-0.429-0.7c-0.099-0.273-0.15-0.571-0.15-0.898c0-0.313,0.052-0.608,0.155-0.88
			c0.103-0.271,0.25-0.508,0.44-0.705c0.19-0.198,0.417-0.356,0.681-0.469s0.557-0.172,0.877-0.172c0.358,0,0.672,0.069,0.937,0.207
			c0.269,0.139,0.485,0.327,0.657,0.562c0.172,0.232,0.295,0.498,0.372,0.798c0.075,0.298,0.103,0.612,0.081,0.938h-3.042
			C424.746,574.023,424.841,574.294,425.016,574.463"/>
	</g>
	<polygon points="429.588,569.652 429.588,572.776 431.048,571.26 432.419,571.26 430.829,572.809 432.597,575.476 431.196,575.476 
		430.037,573.591 429.588,574.023 429.588,575.476 428.432,575.476 428.432,569.652 	"/>
	<g>
		<path d="M435.411,571.26v0.774h-0.85v2.086c0,0.195,0.033,0.327,0.1,0.393c0.064,0.065,0.195,0.098,0.391,0.098
			c0.064,0,0.127-0.002,0.188-0.009s0.117-0.012,0.172-0.023v0.897c-0.1,0.016-0.207,0.027-0.326,0.031
			c-0.121,0.007-0.238,0.008-0.35,0.008c-0.182,0-0.35-0.012-0.51-0.037c-0.162-0.023-0.303-0.07-0.426-0.143
			c-0.121-0.069-0.219-0.169-0.287-0.302c-0.074-0.129-0.107-0.301-0.107-0.514v-2.485h-0.701v-0.774h0.701v-1.265h1.156v1.265
			H435.411z"/>
	</g>
	<g>
		<path d="M454.021,571.814l-0.189,1.067l0.016,0.014c0.129-0.129,0.268-0.224,0.414-0.278c0.148-0.057,0.318-0.085,0.504-0.085
			c0.232,0,0.439,0.043,0.617,0.129c0.178,0.085,0.332,0.198,0.453,0.343c0.123,0.142,0.217,0.311,0.281,0.505
			c0.064,0.195,0.098,0.403,0.098,0.62c0,0.243-0.047,0.466-0.141,0.676c-0.094,0.207-0.221,0.388-0.379,0.54
			c-0.16,0.152-0.344,0.269-0.555,0.351c-0.209,0.084-0.434,0.123-0.67,0.119c-0.227,0-0.445-0.032-0.654-0.091
			c-0.207-0.062-0.391-0.153-0.553-0.277c-0.16-0.126-0.289-0.282-0.387-0.469c-0.096-0.185-0.146-0.399-0.15-0.647h0.953
			c0.021,0.217,0.104,0.388,0.242,0.515c0.137,0.129,0.316,0.19,0.529,0.19c0.125,0,0.238-0.025,0.34-0.077
			c0.1-0.053,0.184-0.118,0.254-0.202c0.068-0.081,0.123-0.177,0.16-0.286c0.039-0.111,0.059-0.223,0.059-0.341
			c0-0.12-0.02-0.234-0.055-0.341c-0.035-0.108-0.09-0.202-0.16-0.282c-0.072-0.079-0.156-0.144-0.256-0.188
			c-0.1-0.044-0.211-0.066-0.342-0.066c-0.17,0-0.309,0.03-0.416,0.09s-0.209,0.155-0.301,0.285h-0.859l0.461-2.596h2.625v0.784
			H454.021z"/>
	</g>
	<g>
		<path d="M382.215,24.555c-0.018,0.09,0.036,0.116,0.135,0.018c0.144-0.144,2.386-3.277,2.476-3.403
			c0.225-0.323,0.297-0.594,0.297-0.747c0-0.126-0.099-0.261-0.279-0.261h-0.153c-0.054,0-0.081-0.019-0.072-0.054l0.045-0.207
			c0.009-0.055,0.027-0.072,0.108-0.072c0.09,0,0.324,0.026,0.774,0.026c0.504,0,0.738-0.026,0.846-0.026
			c0.063,0,0.099,0.026,0.081,0.09l-0.045,0.171c-0.018,0.054-0.036,0.072-0.099,0.072h-0.198c-0.189,0-0.271,0.108-0.315,0.45
			l-0.477,3.961c-0.018,0.117,0.027,0.135,0.09,0.081c0.207-0.18,1.233-1.882,1.359-2.098c0.405-0.685,0.955-1.665,1.044-1.908
			c0.09-0.252,0.072-0.486-0.18-0.486h-0.144c-0.045,0-0.063-0.019-0.054-0.072l0.036-0.171c0.009-0.063,0.036-0.09,0.099-0.09
			c0.117,0,0.333,0.026,0.756,0.026c0.486,0,0.72-0.026,0.855-0.026c0.063,0,0.09,0.036,0.081,0.09l-0.036,0.171
			c-0.009,0.054-0.036,0.072-0.072,0.072h-0.153c-0.198,0-0.369,0.063-0.522,0.261c-0.108,0.153-1.44,2.377-1.666,2.729
			c-0.252,0.414-1.477,2.232-1.864,2.683c-0.081,0.09-0.189,0.233-0.297,0.233c-0.117,0-0.162-0.107-0.144-0.27l0.432-4.033
			c0.018-0.126-0.045-0.145-0.108-0.063c-0.09,0.117-2.772,3.8-3.106,4.159c-0.099,0.108-0.18,0.207-0.315,0.207
			c-0.09,0-0.117-0.116-0.072-0.396l0.801-5.033c0.054-0.314,0.009-0.477-0.288-0.477h-0.216c-0.072,0-0.099-0.019-0.09-0.09
			l0.036-0.171c0.009-0.046,0.027-0.072,0.108-0.072c0.09,0,0.45,0.026,0.918,0.026c0.558,0,0.9-0.026,1.008-0.026
			c0.081,0,0.099,0.026,0.09,0.09l-0.036,0.171c-0.009,0.045-0.027,0.072-0.09,0.072h-0.198c-0.306,0-0.405,0.117-0.477,0.504
			L382.215,24.555z"/>
		<path d="M390.982,22.142c0.036,0,0.045,0.045,0.027,0.081c-0.171,0.369-0.63,1.611-0.675,1.756
			c-0.054,0.152-0.432,1.269-0.432,1.35s0.045,0.108,0.099,0.108c0.108,0,0.567-0.468,0.63-0.549
			c0.027-0.027,0.054-0.045,0.072-0.019l0.081,0.09c0.027,0.027,0.036,0.046,0.018,0.072c-0.099,0.181-0.882,0.945-1.396,0.945
			c-0.108,0-0.189-0.036-0.189-0.153c0-0.135,0.09-0.414,0.432-1.368l-0.045-0.018c-0.378,0.576-1.287,1.539-1.927,1.539
			c-0.207,0-0.486-0.171-0.486-0.576c0-1.314,1.477-3.259,2.575-3.259c0.378,0,0.549,0.162,0.639,0.306l0.171-0.242
			c0.027-0.036,0.054-0.063,0.09-0.063H390.982z M389.848,23.708c0.126-0.261,0.216-0.486,0.216-0.747
			c0-0.243-0.09-0.531-0.423-0.531c-0.828,0-1.792,1.899-1.792,2.755c0,0.207,0.09,0.315,0.243,0.315
			C388.542,25.5,389.686,24.041,389.848,23.708z"/>
		<path d="M393.204,20.684c0.135-0.343,0.126-0.567-0.135-0.567h-0.261c-0.063,0-0.072-0.036-0.054-0.081l0.054-0.162
			c0.018-0.054,0.036-0.063,0.09-0.063h1.116c0.081,0,0.108,0.055,0.081,0.136l-1.873,4.762c-0.081,0.207-0.297,0.702-0.108,0.702
			c0.144,0,0.558-0.351,0.667-0.468c0.036-0.036,0.054-0.027,0.081,0l0.099,0.108c0.018,0.018,0.027,0.054-0.009,0.09
			c-0.045,0.072-0.882,0.837-1.458,0.837c-0.117,0-0.198-0.054-0.198-0.261c0-0.135,0.225-0.702,0.333-0.973L393.204,20.684z"/>
		<path d="M394.878,22.718h-0.63c-0.054,0-0.072-0.018-0.054-0.072l0.072-0.198c0.018-0.045,0.045-0.063,0.099-0.063h0.648
			l0.468-1.044c0.045-0.091,0.072-0.108,0.144-0.136c0.099-0.026,0.333-0.117,0.405-0.152c0.054-0.027,0.099-0.055,0.135-0.055
			c0.054,0,0.072,0.055,0.009,0.181l-0.594,1.206h0.918c0.045,0,0.063,0.027,0.036,0.099l-0.081,0.189
			c-0.009,0.027-0.045,0.045-0.081,0.045h-0.918l-0.873,2.025c-0.108,0.252-0.207,0.478-0.207,0.576c0,0.1,0.036,0.153,0.117,0.153
			c0.261,0,0.846-0.514,0.9-0.576c0.027-0.036,0.054-0.027,0.081,0l0.099,0.108c0.027,0.026,0.027,0.045,0.009,0.081
			c-0.117,0.144-0.954,0.891-1.647,0.891c-0.225,0-0.288-0.09-0.288-0.216c0-0.135,0.045-0.288,0.099-0.423L394.878,22.718z"/>
		<path d="M396.354,25.095c0-0.757,0.495-1.702,1.152-2.35c0.288-0.288,0.774-0.604,1.207-0.604c0.351,0,0.513,0.261,0.513,0.478
			c0,0.44-0.333,0.909-0.837,1.17c-0.486,0.243-0.972,0.342-1.305,0.369c-0.045,0.108-0.117,0.405-0.117,0.828
			c0,0.405,0.297,0.567,0.468,0.567c0.441,0,0.837-0.333,1.026-0.64c0.018-0.026,0.045-0.045,0.081-0.009l0.099,0.081
			c0.045,0.027,0.045,0.054,0.009,0.081c-0.225,0.315-0.765,0.909-1.458,0.909C396.605,25.977,396.354,25.688,396.354,25.095z
			 M397.155,23.897c0.315,0.026,1.495-0.352,1.495-1.018c0-0.18-0.09-0.342-0.288-0.342
			C397.785,22.538,397.227,23.573,397.155,23.897z"/>
		<path d="M399.747,25.887c-0.063,0-0.099-0.036-0.081-0.081l0.504-1.458c0.162-0.505,0.441-1.45,0.441-1.576
			c0-0.081-0.072-0.135-0.153-0.135c-0.18,0-0.585,0.405-0.711,0.559c-0.018,0.026-0.054,0.018-0.072,0l-0.09-0.091
			c-0.018-0.018-0.018-0.045,0-0.071c0.189-0.279,0.729-0.892,1.342-0.892c0.18,0,0.252,0.153,0.252,0.315
			c0.009,0.171-0.144,0.675-0.324,1.278l0.045,0.018c0.243-0.504,0.963-1.611,1.468-1.611c0.261,0,0.423,0.162,0.423,0.405
			c0,0.234-0.18,0.414-0.351,0.414c-0.081,0-0.153-0.019-0.225-0.09c-0.072-0.072-0.117-0.108-0.234-0.108
			c-0.243,0-0.747,0.774-1.107,1.368c-0.108,0.172-0.216,0.379-0.351,0.783l-0.297,0.909c-0.018,0.063-0.045,0.063-0.117,0.063
			H399.747z"/>
		<path d="M405.597,23.627c0.018-0.045,0.045-0.045,0.099-0.036l0.09,0.027c0.045,0.018,0.081,0.036,0.063,0.099
			c-0.324,1.342,0.477,1.954,1.035,1.954c0.576,0,1.044-0.459,1.044-1.063s-0.441-0.954-0.837-1.387c-0.558-0.612-1-1.071-1-1.917
			c0-0.648,0.513-1.585,1.531-1.585c0.495,0,0.918,0.307,1.062,0.405c0.045,0.027,0.072,0.045,0.126,0.045
			c0.072,0,0.108-0.126,0.145-0.315c0.009-0.026,0.027-0.035,0.09-0.026l0.117,0.009c0.054,0.009,0.072,0.027,0.063,0.063
			l-0.324,1.71c-0.009,0.036-0.027,0.054-0.072,0.054l-0.126-0.009c-0.054-0.009-0.09-0.026-0.081-0.081
			c0.054-0.36-0.063-1.503-0.999-1.503c-0.558,0-0.892,0.495-0.892,0.981c0,0.675,0.396,0.945,0.811,1.368
			c0.414,0.414,0.981,0.918,0.981,1.863c0,1.188-0.837,1.737-1.629,1.737c-0.576,0-0.963-0.324-1.323-0.684
			c-0.072-0.072-0.153-0.063-0.207,0.018c-0.054,0.072-0.126,0.207-0.189,0.342c-0.018,0.036-0.036,0.055-0.09,0.027l-0.117-0.045
			c-0.045-0.018-0.054-0.027-0.036-0.09L405.597,23.627z"/>
		<path d="M410.565,22.718h-0.63c-0.054,0-0.072-0.018-0.054-0.072l0.072-0.198c0.018-0.045,0.045-0.063,0.099-0.063h0.648
			l0.468-1.044c0.045-0.091,0.072-0.108,0.144-0.136c0.099-0.026,0.333-0.117,0.405-0.152c0.054-0.027,0.099-0.055,0.135-0.055
			c0.054,0,0.072,0.055,0.009,0.181l-0.594,1.206h0.918c0.045,0,0.063,0.027,0.036,0.099l-0.081,0.189
			c-0.009,0.027-0.045,0.045-0.081,0.045h-0.918l-0.873,2.025c-0.108,0.252-0.207,0.478-0.207,0.576c0,0.1,0.036,0.153,0.117,0.153
			c0.261,0,0.847-0.514,0.9-0.576c0.027-0.036,0.054-0.027,0.081,0l0.099,0.108c0.027,0.026,0.027,0.045,0.009,0.081
			c-0.117,0.144-0.954,0.891-1.647,0.891c-0.225,0-0.288-0.09-0.288-0.216c0-0.135,0.045-0.288,0.099-0.423L410.565,22.718z"/>
		<path d="M412.041,25.095c0-0.757,0.495-1.702,1.152-2.35c0.288-0.288,0.774-0.604,1.207-0.604c0.351,0,0.513,0.261,0.513,0.478
			c0,0.44-0.333,0.909-0.837,1.17c-0.486,0.243-0.972,0.342-1.305,0.369c-0.045,0.108-0.117,0.405-0.117,0.828
			c0,0.405,0.297,0.567,0.468,0.567c0.441,0,0.837-0.333,1.026-0.64c0.018-0.026,0.045-0.045,0.081-0.009l0.099,0.081
			c0.045,0.027,0.045,0.054,0.009,0.081c-0.225,0.315-0.765,0.909-1.458,0.909C412.293,25.977,412.041,25.688,412.041,25.095z
			 M412.842,23.897c0.315,0.026,1.495-0.352,1.495-1.018c0-0.18-0.09-0.342-0.288-0.342
			C413.473,22.538,412.915,23.573,412.842,23.897z"/>
		<path d="M415.461,25.752c0-0.207,0.153-0.621,0.531-1.63l0.261-0.702c0.09-0.243,0.162-0.423,0.162-0.531
			c0-0.081-0.054-0.117-0.126-0.117c-0.153,0-0.576,0.486-0.72,0.631c-0.036,0.035-0.072,0.035-0.099,0.009l-0.072-0.081
			c-0.036-0.027-0.054-0.045-0.027-0.081c0.036-0.054,0.955-1.135,1.531-1.107c0.108,0,0.216,0.072,0.216,0.225
			c0,0.162-0.144,0.567-0.306,1l-0.522,1.368c-0.126,0.333-0.162,0.531-0.162,0.594c0,0.081,0.027,0.136,0.099,0.153
			c0.189-0.036,0.675-0.549,0.72-0.63c0.018-0.027,0.054-0.027,0.099,0.018l0.072,0.063c0.036,0.045,0.045,0.063,0.018,0.107
			c-0.054,0.072-0.774,0.937-1.521,0.937C415.524,25.968,415.461,25.896,415.461,25.752z M416.596,20.503
			c0-0.243,0.189-0.45,0.468-0.45c0.315,0,0.477,0.226,0.477,0.433c0,0.135-0.108,0.45-0.477,0.45
			C416.667,20.936,416.596,20.603,416.596,20.503z"/>
		<path d="M418.018,25.887c-0.099,0-0.117-0.018-0.099-0.081l0.639-1.665c0.216-0.559,0.468-1.207,0.468-1.359
			c0-0.091-0.036-0.153-0.135-0.153c-0.171,0-0.603,0.432-0.756,0.603c-0.027,0.027-0.054,0.027-0.09-0.009l-0.081-0.081
			c-0.036-0.036-0.045-0.054-0.018-0.09c0.135-0.162,0.801-0.909,1.449-0.909c0.207,0,0.288,0.153,0.288,0.271
			c0,0.278-0.387,1.134-0.459,1.341l0.036,0.019c0.27-0.433,1.251-1.63,2.053-1.63c0.27,0,0.45,0.135,0.45,0.369
			c0,0.396-0.208,0.864-0.504,1.594c-0.243,0.594-0.459,1.098-0.459,1.242c0,0.054,0.036,0.117,0.108,0.117
			c0.135,0,0.531-0.333,0.648-0.459c0.036-0.027,0.072-0.019,0.099,0.018l0.063,0.072c0.036,0.036,0.045,0.054,0.009,0.099
			c-0.108,0.145-0.837,0.783-1.44,0.783c-0.117,0-0.216-0.045-0.216-0.18c0-0.171,0.324-0.883,0.604-1.656
			c0.126-0.352,0.45-1.099,0.45-1.297c0-0.126-0.063-0.207-0.225-0.207c-0.352,0-1.243,0.828-1.639,1.468
			c-0.162,0.261-0.306,0.495-0.54,1.125l-0.225,0.604c-0.018,0.036-0.036,0.054-0.126,0.054H418.018z"/>
		<path d="M422.437,25.095c0-0.757,0.495-1.702,1.152-2.35c0.288-0.288,0.773-0.604,1.206-0.604c0.351,0,0.513,0.261,0.513,0.478
			c0,0.44-0.333,0.909-0.837,1.17c-0.486,0.243-0.973,0.342-1.306,0.369c-0.045,0.108-0.117,0.405-0.117,0.828
			c0,0.405,0.298,0.567,0.469,0.567c0.441,0,0.837-0.333,1.026-0.64c0.018-0.026,0.045-0.045,0.081-0.009l0.099,0.081
			c0.045,0.027,0.045,0.054,0.009,0.081c-0.225,0.315-0.765,0.909-1.458,0.909C422.688,25.977,422.437,25.688,422.437,25.095z
			 M423.237,23.897c0.315,0.026,1.494-0.352,1.494-1.018c0-0.18-0.09-0.342-0.288-0.342
			C423.867,22.538,423.31,23.573,423.237,23.897z"/>
		<path d="M425.829,25.887c-0.063,0-0.1-0.036-0.081-0.081l0.504-1.458c0.162-0.505,0.441-1.45,0.441-1.576
			c0-0.081-0.072-0.135-0.153-0.135c-0.18,0-0.585,0.405-0.711,0.559c-0.019,0.026-0.055,0.018-0.072,0l-0.09-0.091
			c-0.019-0.018-0.019-0.045,0-0.071c0.188-0.279,0.729-0.892,1.341-0.892c0.181,0,0.252,0.153,0.252,0.315
			c0.01,0.171-0.144,0.675-0.323,1.278l0.045,0.018c0.243-0.504,0.963-1.611,1.467-1.611c0.262,0,0.424,0.162,0.424,0.405
			c0,0.234-0.181,0.414-0.352,0.414c-0.081,0-0.153-0.019-0.225-0.09c-0.072-0.072-0.117-0.108-0.234-0.108
			c-0.243,0-0.747,0.774-1.107,1.368c-0.108,0.172-0.216,0.379-0.352,0.783l-0.297,0.909c-0.018,0.063-0.045,0.063-0.117,0.063
			H425.829z"/>
		<path d="M432.346,24.986c-0.126,0.396,0.018,0.595,0.306,0.595h0.226c0.045,0,0.071,0.026,0.063,0.09l-0.036,0.171
			c-0.009,0.045-0.035,0.072-0.116,0.072c-0.1,0-0.495-0.027-1.107-0.027c-0.676,0-0.945,0.027-1.009,0.027
			c-0.054,0-0.081-0.045-0.072-0.1l0.036-0.162c0.009-0.045,0.027-0.071,0.1-0.071h0.252c0.233,0,0.459-0.172,0.576-0.541
			l1.386-4.303c0.127-0.396,0.046-0.576-0.297-0.576h-0.225c-0.072,0-0.1-0.036-0.081-0.09l0.063-0.189
			c0.019-0.045,0.045-0.054,0.108-0.054c0.081,0,0.405,0.026,1.008,0.026c0.721,0,0.991-0.026,1.099-0.026
			c0.054,0,0.063,0.036,0.054,0.09l-0.026,0.171c-0.009,0.063-0.036,0.072-0.108,0.072h-0.216c-0.306,0-0.478,0.144-0.585,0.477
			l-0.676,2.125c0.388,0,0.505-0.027,0.748-0.252c0.801-0.711,1.845-1.611,2.196-2.053c0.126-0.162,0.09-0.306-0.153-0.306h-0.107
			c-0.063,0-0.081-0.045-0.072-0.091l0.036-0.161c0.018-0.055,0.045-0.072,0.099-0.072c0.09,0,0.468,0.026,0.99,0.026
			c0.54,0,0.792-0.026,0.873-0.026s0.108,0.036,0.1,0.081l-0.036,0.162c-0.019,0.054-0.027,0.09-0.09,0.09h-0.279
			c-0.271,0-0.504,0.135-0.711,0.297c-0.369,0.288-2.584,2.269-2.71,2.413c0.063,0.126,1.386,2.043,1.603,2.305
			c0.162,0.188,0.45,0.405,0.647,0.405h0.262c0.063,0,0.09,0.045,0.081,0.09l-0.036,0.152c-0.019,0.072-0.036,0.091-0.117,0.091
			c-0.108,0-0.351-0.027-0.918-0.027c-0.531,0-1.026,0.027-1.135,0.027c-0.063,0-0.09-0.027-0.081-0.1l0.019-0.144
			c0.009-0.063,0.026-0.09,0.081-0.09h0.135c0.198,0,0.351-0.126,0.27-0.253c-0.071-0.107-1.251-1.926-1.458-2.188
			c-0.081-0.099-0.135-0.126-0.315-0.126L432.346,24.986z"/>
		<path d="M437.124,24.815c0-1.135,0.855-2.674,2.053-2.674c0.604,0,0.964,0.441,0.964,1.054c0,0.99-0.783,2.781-2.089,2.781
			C437.557,25.977,437.124,25.5,437.124,24.815z M439.78,23.06c0.009-0.278-0.153-0.504-0.45-0.504
			c-0.378,0-0.855,0.342-1.306,1.071c-0.306,0.486-0.521,1.035-0.521,1.459c0,0.288,0.197,0.459,0.414,0.459
			C438.853,25.545,439.78,23.654,439.78,23.06z"/>
		<path d="M442.408,20.684c0.135-0.343,0.126-0.567-0.135-0.567h-0.262c-0.063,0-0.071-0.036-0.054-0.081l0.054-0.162
			c0.019-0.054,0.036-0.063,0.091-0.063h1.116c0.081,0,0.107,0.055,0.081,0.136l-1.873,4.762c-0.081,0.207-0.297,0.702-0.107,0.702
			c0.144,0,0.558-0.351,0.666-0.468c0.036-0.036,0.054-0.027,0.081,0l0.099,0.108c0.019,0.018,0.027,0.054-0.009,0.09
			c-0.045,0.072-0.883,0.837-1.459,0.837c-0.116,0-0.197-0.054-0.197-0.261c0-0.135,0.225-0.702,0.333-0.973L442.408,20.684z"/>
		<path d="M444.694,20.684c0.135-0.343,0.126-0.567-0.135-0.567h-0.262c-0.063,0-0.071-0.036-0.054-0.081l0.054-0.162
			c0.019-0.054,0.036-0.063,0.091-0.063h1.116c0.081,0,0.107,0.055,0.081,0.136l-1.873,4.762c-0.081,0.207-0.297,0.702-0.107,0.702
			c0.144,0,0.558-0.351,0.666-0.468c0.036-0.036,0.054-0.027,0.081,0l0.099,0.108c0.019,0.018,0.027,0.054-0.009,0.09
			c-0.045,0.072-0.883,0.837-1.459,0.837c-0.116,0-0.197-0.054-0.197-0.261c0-0.135,0.225-0.702,0.333-0.973L444.694,20.684z"/>
		<path d="M445.153,25.095c0-0.757,0.495-1.702,1.152-2.35c0.288-0.288,0.773-0.604,1.206-0.604c0.351,0,0.513,0.261,0.513,0.478
			c0,0.44-0.333,0.909-0.837,1.17c-0.486,0.243-0.973,0.342-1.306,0.369c-0.045,0.108-0.117,0.405-0.117,0.828
			c0,0.405,0.298,0.567,0.469,0.567c0.441,0,0.837-0.333,1.026-0.64c0.018-0.026,0.045-0.045,0.081-0.009l0.099,0.081
			c0.045,0.027,0.045,0.054,0.009,0.081c-0.225,0.315-0.765,0.909-1.458,0.909C445.405,25.977,445.153,25.688,445.153,25.095z
			 M445.954,23.897c0.315,0.026,1.494-0.352,1.494-1.018c0-0.18-0.09-0.342-0.288-0.342
			C446.584,22.538,446.026,23.573,445.954,23.897z"/>
		<path d="M448.122,25.887c-0.054,0-0.071-0.036-0.045-0.099l2.125-5.276c0.099-0.242,0.009-0.396-0.324-0.396h-0.243
			c-0.054,0-0.063-0.036-0.045-0.09l0.054-0.145c0.027-0.045,0.036-0.072,0.108-0.072h1.197c0.09,0,0.09,0.1,0.072,0.153
			l-1.297,3.124l0.046,0.018c0.278-0.359,0.927-0.963,1.53-0.963c0.188,0,0.468,0.099,0.468,0.531c0,0.711-1.261,1.432-1.665,1.584
			v0.036l0.585,0.945c0.135,0.226,0.288,0.369,0.45,0.369c0.171,0,0.324-0.135,0.423-0.233c0.027-0.036,0.063-0.036,0.081-0.01
			l0.09,0.1c0.019,0.018,0.019,0.045-0.009,0.081c-0.045,0.054-0.387,0.432-0.756,0.432c-0.45,0-0.604-0.117-0.819-0.531
			l-0.495-0.945c-0.063-0.117-0.198-0.126-0.45-0.099l-0.559,1.422c-0.018,0.055-0.054,0.063-0.135,0.063H448.122z M449.284,24.186
			c0.854,0.099,1.899-0.774,1.899-1.333c0-0.144-0.108-0.27-0.252-0.27c-0.459,0-1.071,0.63-1.197,0.774
			c-0.072,0.08-0.189,0.225-0.243,0.333L449.284,24.186z"/>
		<path d="M453.415,22.718h-0.63c-0.054,0-0.072-0.018-0.054-0.072l0.071-0.198c0.019-0.045,0.045-0.063,0.1-0.063h0.647
			l0.469-1.044c0.045-0.091,0.072-0.108,0.144-0.136c0.1-0.026,0.333-0.117,0.405-0.152c0.054-0.027,0.1-0.055,0.135-0.055
			c0.055,0,0.072,0.055,0.01,0.181l-0.595,1.206h0.919c0.045,0,0.063,0.027,0.035,0.099l-0.081,0.189
			c-0.009,0.027-0.045,0.045-0.081,0.045h-0.918l-0.873,2.025c-0.108,0.252-0.207,0.478-0.207,0.576c0,0.1,0.036,0.153,0.117,0.153
			c0.261,0,0.846-0.514,0.9-0.576c0.026-0.036,0.054-0.027,0.081,0l0.099,0.108c0.027,0.026,0.027,0.045,0.009,0.081
			c-0.117,0.144-0.954,0.891-1.647,0.891c-0.225,0-0.288-0.09-0.288-0.216c0-0.135,0.045-0.288,0.1-0.423L453.415,22.718z"/>
		<path d="M455.305,25.752c0-0.207,0.153-0.621,0.531-1.63l0.262-0.702c0.09-0.243,0.162-0.423,0.162-0.531
			c0-0.081-0.055-0.117-0.126-0.117c-0.153,0-0.576,0.486-0.721,0.631c-0.036,0.035-0.072,0.035-0.099,0.009l-0.072-0.081
			c-0.036-0.027-0.054-0.045-0.027-0.081c0.036-0.054,0.954-1.135,1.53-1.107c0.108,0,0.217,0.072,0.217,0.225
			c0,0.162-0.145,0.567-0.307,1l-0.521,1.368c-0.127,0.333-0.162,0.531-0.162,0.594c0,0.081,0.026,0.136,0.099,0.153
			c0.189-0.036,0.675-0.549,0.72-0.63c0.019-0.027,0.055-0.027,0.1,0.018l0.072,0.063c0.036,0.045,0.045,0.063,0.018,0.107
			c-0.054,0.072-0.774,0.937-1.521,0.937C455.368,25.968,455.305,25.896,455.305,25.752z M456.439,20.503
			c0-0.243,0.189-0.45,0.468-0.45c0.315,0,0.478,0.226,0.478,0.433c0,0.135-0.108,0.45-0.478,0.45
			C456.512,20.936,456.439,20.603,456.439,20.503z"/>
		<path d="M458.474,22.709c-0.288,0-0.486,0.198-0.495,0.468c0.009,0.162,0.117,0.216,0.198,0.261
			c0.063,0.036,0.197,0.127,0.197,0.271c0,0.145-0.099,0.297-0.333,0.297c-0.171,0-0.414-0.126-0.414-0.513
			c0-0.352,0.226-0.729,0.352-0.873c0.18-0.198,0.378-0.433,1.026-0.433c0.918,0,1.026-0.045,1.125-0.045
			c0.117,0,0.207,0.054,0.117,0.171c-0.189,0.234-1.063,1.449-1.063,2.35c0,0.612,0.324,0.838,0.64,0.838
			c0.773,0,1.557-1.216,1.557-2.125c0-0.145-0.009-0.324-0.071-0.468c-0.072-0.162-0.136-0.262-0.136-0.369
			c0-0.243,0.145-0.396,0.405-0.396c0.252,0,0.352,0.261,0.352,0.478c0,0.432-0.198,1.332-0.595,2.017
			c-0.405,0.702-1.134,1.341-1.872,1.341c-0.45,0-0.892-0.279-0.892-0.927c0-0.838,0.747-1.945,1.27-2.557l-0.063-0.027
			c-0.188,0.162-0.666,0.243-0.837,0.243H458.474z"/>
		<path d="M373.409,33.14c0-0.559-0.018-1.773-0.018-1.899c0-0.459-0.063-0.586-0.306-0.586h-0.369c-0.099,0-0.108-0.035-0.108-0.09
			v-0.171c0-0.054,0.009-0.108,0.099-0.108c0.153,0,0.441,0.027,1.341,0.027c0.882,0,1.207-0.027,1.359-0.027
			c0.099,0,0.108,0.027,0.108,0.1v0.188c0,0.055-0.009,0.081-0.108,0.081h-0.216c-0.324,0-0.369,0.153-0.396,0.495
			c-0.009,0.127-0.054,1.314-0.054,1.819v0.135c0,0.045,0.027,0.072,0.144,0.072h2.692c0.135,0,0.18-0.019,0.18-0.117v-0.09
			c0-0.514-0.063-1.765-0.063-1.854c-0.009-0.288-0.045-0.46-0.207-0.46h-0.369c-0.081,0-0.09-0.026-0.09-0.09v-0.198
			c0-0.054,0.009-0.081,0.081-0.081c0.162,0,0.549,0.027,1.314,0.027c0.747,0,1.125-0.027,1.242-0.027
			c0.108,0,0.117,0.027,0.117,0.1v0.171c0,0.063-0.009,0.099-0.117,0.099h-0.27c-0.261,0-0.288,0.153-0.288,0.46
			c0,0.126-0.018,1.647-0.018,1.98V33.4c0,0.288,0.018,1.999,0.027,2.494c0,0.324,0.09,0.45,0.36,0.45h0.306
			c0.072,0,0.081,0.026,0.081,0.081v0.197c0,0.046-0.009,0.091-0.099,0.091c-0.144,0-0.45-0.027-1.26-0.027
			c-0.918,0-1.207,0.027-1.414,0.027c-0.099,0-0.117-0.045-0.117-0.091v-0.197c0-0.055,0.009-0.081,0.099-0.081h0.396
			c0.216,0,0.243-0.171,0.252-0.396c0.018-0.423,0.036-1.872,0.036-2.16V33.68c0-0.099-0.09-0.108-0.198-0.108h-2.692
			c-0.099,0-0.126,0.027-0.126,0.108v0.135c0,0.226,0.036,1.611,0.063,2.224c0.009,0.216,0.099,0.307,0.297,0.307h0.252
			c0.072,0,0.081,0.018,0.081,0.071v0.217c0,0.054-0.009,0.081-0.081,0.081c-0.162,0-0.478-0.027-1.233-0.027
			c-0.955,0-1.225,0.027-1.405,0.027c-0.081,0-0.09-0.027-0.09-0.1v-0.188c0-0.063,0.009-0.081,0.09-0.081h0.414
			c0.225,0,0.252-0.217,0.252-0.414c0.009-0.424,0.027-2.17,0.027-2.404V33.14z"/>
		<path d="M382.445,33.814c0-0.18-0.018-0.387-0.135-0.495c-0.09-0.081-0.234-0.107-0.378-0.107c-0.162,0-0.315,0.035-0.477,0.144
			c-0.135,0.09-0.027,0.243-0.027,0.531c0,0.306-0.225,0.513-0.585,0.513c-0.207,0-0.387-0.126-0.387-0.323
			c0-0.198,0.063-0.469,0.252-0.631c0.378-0.342,0.999-0.666,1.729-0.666c0.576,0,0.729,0.09,0.918,0.261
			c0.198,0.181,0.252,0.441,0.252,0.766l0.018,1.792c0.009,0.468,0.036,0.611,0.208,0.611c0.126,0,0.225-0.099,0.261-0.162
			c0.036-0.054,0.063-0.063,0.09-0.045l0.126,0.072c0.036,0.019,0.063,0.045,0.027,0.126c-0.081,0.189-0.351,0.612-0.909,0.612
			c-0.351,0-0.684-0.126-0.855-0.549h-0.045c-0.225,0.207-0.414,0.333-0.774,0.468c-0.18,0.063-0.387,0.081-0.648,0.081
			c-0.315,0-0.594-0.342-0.594-0.828c0-0.396,0.189-0.811,0.774-1.099c0.702-0.333,0.927-0.432,1.161-0.594V33.814z M382.455,34.652
			c-0.441,0.252-0.811,0.387-0.811,1.008c0,0.414,0.189,0.585,0.387,0.594c0.243-0.018,0.423-0.242,0.423-0.323V34.652z"/>
		<path d="M387.801,36.776c-0.054,0.019-0.117,0.036-0.198,0.036c-0.09,0-0.144-0.045-0.153-0.108l-0.054-0.485h-0.054
			c-0.18,0.314-0.702,0.594-1.188,0.594c-0.36,0-0.63,0-0.945-0.414c-0.378-0.504-0.342-0.792-0.342-1.566l0.009-0.396
			c0-0.342,0-0.702-0.009-0.9c-0.009-0.216-0.198-0.297-0.306-0.314c-0.153-0.027-0.198-0.019-0.198-0.063v-0.18
			c0-0.054,0.018-0.072,0.099-0.072h1.314c0.054,0,0.09-0.009,0.126-0.018c0.036,0,0.072-0.01,0.099-0.01
			c0.063,0,0.108,0.046,0.099,0.108c-0.009,0.081-0.036,0.504-0.036,1.216v0.485c0,0.36-0.054,1.036,0.171,1.387
			c0.135,0.207,0.279,0.189,0.441,0.189c0.153,0,0.351-0.117,0.486-0.288c0.081-0.09,0.144-0.234,0.144-0.324l-0.009-2.116
			c0-0.225-0.162-0.297-0.387-0.314c-0.108-0.009-0.153-0.019-0.153-0.063v-0.171c0-0.072,0.018-0.081,0.108-0.081h1.342
			c0.063,0,0.108-0.009,0.153-0.018c0.045,0,0.081-0.01,0.108-0.01c0.054,0,0.09,0.046,0.081,0.091
			c-0.009,0.081-0.054,0.314-0.054,1.224v0.667c0,0.432,0,0.873,0.018,1.035c0.027,0.279,0.126,0.314,0.162,0.314
			c0.054,0,0.189,0,0.297-0.026c0.072-0.019,0.099,0,0.108,0.036l0.027,0.171c0.009,0.045-0.009,0.063-0.045,0.072L387.801,36.776z"
			/>
		<path d="M392.265,33.806c0.009,0.045,0,0.063-0.036,0.081l-0.162,0.072c-0.027,0.018-0.054,0.009-0.09-0.027l-0.504-0.54
			c-0.117-0.117-0.288-0.261-0.558-0.261s-0.531,0.18-0.531,0.485c0.018,0.315,0.126,0.405,0.792,0.586
			c0.441,0.116,0.657,0.18,0.927,0.468c0.234,0.234,0.288,0.45,0.288,0.766c0,0.801-0.63,1.377-1.612,1.377
			c-0.504,0-0.945-0.18-1.053-0.261c-0.036-0.027-0.045-0.063-0.054-0.117l-0.117-0.864c0-0.045,0.027-0.063,0.063-0.072
			l0.162-0.045c0.027-0.009,0.045,0,0.063,0.036l0.36,0.531c0.162,0.233,0.369,0.459,0.784,0.459c0.333,0,0.531-0.234,0.531-0.549
			c0-0.36-0.261-0.478-0.846-0.657c-0.639-0.189-1.098-0.495-1.098-1.144c0-0.423,0.126-0.774,0.468-1.026
			c0.36-0.261,0.612-0.324,0.99-0.324c0.486,0,0.783,0.108,0.945,0.189c0.135,0.063,0.153,0.107,0.162,0.171L392.265,33.806z"/>
		<path d="M395.224,36.155c-0.342-0.378-0.477-0.855-0.477-1.422c0-0.405,0.225-1.071,0.774-1.495
			c0.459-0.36,0.918-0.459,1.341-0.459c0.621,0,1.044,0.189,1.449,0.567c0.441,0.396,0.622,0.882,0.622,1.432
			c0,0.521-0.225,1.026-0.576,1.404c-0.432,0.45-0.955,0.63-1.567,0.63C396.134,36.813,395.684,36.678,395.224,36.155z
			 M397.565,34.715c0-1.044-0.36-1.558-0.756-1.558c-0.225,0-0.369,0.063-0.486,0.243c-0.18,0.279-0.297,0.666-0.297,1.396
			c0,0.522,0.045,0.864,0.225,1.251c0.117,0.243,0.261,0.388,0.594,0.388C397.34,36.435,397.565,35.705,397.565,34.715z"/>
		<path d="M401.021,36.002c0,0.271,0.054,0.369,0.135,0.369h0.18c0.045,0,0.072,0.019,0.072,0.072v0.171
			c0,0.063-0.009,0.1-0.063,0.1c-0.072,0-0.486-0.027-1.017-0.027c-0.63,0-0.972,0.027-1.053,0.027
			c-0.036,0-0.063-0.027-0.063-0.091v-0.18c0-0.063,0.036-0.072,0.135-0.072h0.144c0.144,0,0.279-0.036,0.306-0.152
			c0.045-0.162,0.045-0.324,0.045-0.595l-0.018-3.745c0-0.45-0.117-0.711-0.423-0.828l-0.162-0.054
			c-0.054-0.027-0.072-0.055-0.072-0.081v-0.117c0-0.036,0.027-0.072,0.153-0.108c0.495-0.144,0.819-0.288,1.359-0.549
			c0.117-0.054,0.189-0.09,0.279-0.09c0.081,0,0.099,0.072,0.081,0.225c-0.018,0.153-0.027,1.98-0.027,2.512v0.54h0.063
			c0.216-0.342,0.657-0.549,1.152-0.549c0.405,0,0.639,0.117,0.918,0.352c0.423,0.351,0.387,0.801,0.387,1.377v0.559
			c0,0.45-0.018,0.999-0.018,1.17c0,0.126,0.18,0.135,0.288,0.135h0.171c0.072,0,0.099,0.019,0.099,0.063v0.188
			c0,0.055-0.018,0.091-0.072,0.091c-0.063,0-0.351-0.027-0.981-0.027c-0.621,0-0.945,0.027-1.026,0.027
			c-0.063,0-0.081-0.027-0.081-0.1v-0.171c0-0.045,0.009-0.072,0.063-0.072h0.117c0.081,0,0.198-0.045,0.216-0.171
			c0.009-0.126,0.027-0.603,0.027-0.873v-0.549c0-0.441,0.027-1.071-0.207-1.306c-0.126-0.126-0.234-0.171-0.423-0.171
			c-0.198,0-0.396,0.162-0.531,0.314c-0.072,0.091-0.153,0.207-0.153,0.441V36.002z"/>
		<path d="M406.088,33.274h0.072c0.099-0.117,0.261-0.234,0.432-0.324c0.198-0.107,0.396-0.171,0.693-0.171
			c0.351,0,0.693,0.036,0.927,0.252c0.378,0.352,0.405,0.576,0.405,1.026v0.954c0,0.307-0.018,0.729-0.036,1.045
			c-0.009,0.27,0.135,0.314,0.216,0.314h0.243c0.081,0,0.099,0.027,0.099,0.081v0.162c0,0.063-0.018,0.1-0.072,0.1
			c-0.063,0-0.342-0.027-1.063-0.027c-0.594,0-0.882,0.027-0.945,0.027c-0.054,0-0.072-0.027-0.072-0.1v-0.162
			c0-0.063,0.027-0.081,0.117-0.081h0.099c0.063,0,0.144-0.045,0.162-0.207c0.036-0.233,0.054-0.521,0.054-0.936v-0.964
			c0-0.342-0.027-0.576-0.216-0.747c-0.162-0.145-0.288-0.162-0.441-0.162c-0.162,0-0.279,0.045-0.459,0.18
			c-0.108,0.081-0.18,0.324-0.18,0.693l-0.018,1.846c0,0.162,0.063,0.297,0.144,0.297h0.117c0.072,0,0.09,0.027,0.09,0.091v0.171
			c0,0.054-0.018,0.081-0.063,0.081c-0.063,0-0.306-0.027-0.9-0.027c-0.639,0-0.927,0.027-0.981,0.027
			c-0.045,0-0.063-0.027-0.063-0.081v-0.181c0-0.054,0.018-0.081,0.09-0.081h0.135c0.099,0,0.252-0.026,0.252-0.18v-1.999
			c0-0.27-0.153-0.423-0.36-0.521l-0.081-0.036c-0.054-0.027-0.063-0.063-0.063-0.1v-0.081c0-0.045,0.036-0.071,0.081-0.09
			l1.152-0.521c0.072-0.027,0.135-0.063,0.207-0.063c0.054,0,0.108,0.045,0.126,0.108L406.088,33.274z"/>
		<path d="M410.723,34.445v0.242c0,0.937,0.531,1.396,1.188,1.396c0.441,0,0.801-0.207,0.981-0.495
			c0.018-0.045,0.054-0.054,0.09-0.026l0.153,0.081c0.036,0.018,0.063,0.063-0.018,0.216c-0.162,0.333-0.747,0.954-1.593,0.954
			c-0.576,0-1.053-0.099-1.351-0.423c-0.459-0.495-0.612-0.847-0.621-1.549c0-0.252,0-0.729,0.405-1.323
			c0.324-0.478,0.873-0.738,1.566-0.738c1.458,0,1.54,1.396,1.54,1.539c0,0.117-0.081,0.127-0.279,0.127H410.723z M411.596,34.103
			c0.198,0,0.288-0.045,0.288-0.18c0-0.396-0.162-0.783-0.441-0.783c-0.423,0-0.648,0.333-0.711,0.963H411.596z"/>
		<path d="M417.608,33.238c0.414,0,0.81-0.026,0.918-0.054c0.153-0.036,0.279-0.117,0.414-0.279
			c0.099-0.135,0.207-0.387,0.207-0.558c0-0.063,0.027-0.081,0.072-0.081l0.243,0.026c0.045,0.009,0.081,0.019,0.072,0.072
			c-0.027,0.153-0.027,0.621-0.027,0.937c0,0.405,0.036,0.837,0.054,1.026c0.009,0.054-0.027,0.063-0.072,0.071l-0.216,0.046
			c-0.036,0.009-0.054-0.01-0.072-0.072c-0.036-0.145-0.126-0.352-0.18-0.459c-0.099-0.172-0.315-0.288-0.495-0.315
			c-0.243-0.036-0.522-0.054-0.918-0.054v0.54c0,0.486,0.045,1.359,0.045,1.521c0,0.468,0.099,0.63,0.216,0.684
			c0.135,0.055,0.306,0.081,0.756,0.081c0.153,0,0.531-0.009,0.72-0.026c0.18-0.019,0.45-0.108,0.685-0.298
			c0.234-0.188,0.738-0.747,0.918-0.963c0.036-0.036,0.063-0.045,0.09-0.027l0.153,0.091c0.036,0.018,0.045,0.045,0.036,0.071
			l-0.405,1.359c-0.027,0.081-0.09,0.136-0.198,0.136c-0.045,0-0.243-0.01-0.819-0.019c-0.585,0-1.54-0.009-3.097-0.009
			c-0.333,0-0.585,0.009-0.765,0.009c-0.189,0.009-0.306,0.019-0.387,0.019c-0.063,0-0.081-0.027-0.081-0.1v-0.188
			c0-0.055,0.027-0.081,0.09-0.081h0.27c0.414,0,0.45-0.063,0.45-0.378V32.95c0-0.747-0.018-1.854-0.027-1.944
			c-0.036-0.288-0.126-0.352-0.369-0.352h-0.351c-0.036,0-0.045-0.026-0.045-0.09v-0.216c0-0.027,0.009-0.063,0.063-0.063
			c0.198,0,0.513,0.027,1.333,0.027l3.16-0.009c0.144,0,0.315-0.019,0.36-0.019s0.063,0.019,0.072,0.046
			c0.036,0.126,0.333,1.359,0.369,1.449c0.018,0.045,0.018,0.063-0.027,0.09l-0.144,0.072c-0.036,0.018-0.081,0.009-0.108-0.036
			c-0.045-0.072-0.855-0.883-1.063-1.009c-0.189-0.116-0.441-0.233-0.684-0.243l-1.188-0.035L417.608,33.238z"/>
		<path d="M423.827,36.714c-0.072,0-0.486-0.027-1.27-0.027c-0.522,0-0.874,0.027-0.973,0.027c-0.045,0-0.072-0.019-0.072-0.091
			v-0.18c0-0.054,0.027-0.072,0.09-0.072h0.333c0.099,0,0.162-0.036,0.171-0.18c0.018-0.271,0.018-0.549,0.018-0.801l-0.018-1.261
			c0-0.252-0.054-0.433-0.432-0.567c-0.099-0.036-0.108-0.072-0.108-0.126v-0.099c0-0.027,0.018-0.045,0.099-0.072l1.342-0.433
			c0.099-0.036,0.18-0.054,0.243-0.054c0.071,0,0.099,0.045,0.09,0.108c-0.019,0.152-0.019,0.72-0.019,1.512v0.964
			c0,0.351,0,0.675,0.01,0.774c0.018,0.171,0.063,0.233,0.161,0.233h0.324c0.072,0,0.091,0.027,0.091,0.081v0.171
			C423.908,36.687,423.89,36.714,423.827,36.714z M422.594,32.095c-0.378,0.01-0.658-0.288-0.658-0.647
			c0-0.298,0.306-0.595,0.703-0.595c0.44,0,0.666,0.307,0.666,0.567C423.305,31.717,423.098,32.077,422.594,32.095z"/>
		<path d="M424.51,38.856c-0.333-0.189-0.44-0.424-0.44-0.702c0-0.45,0.504-0.774,0.927-0.945v-0.045
			c-0.414-0.126-0.621-0.405-0.621-0.721c0-0.522,0.504-0.811,0.801-0.954v-0.027c-0.387-0.225-0.792-0.603-0.792-1.368
			c0-0.585,0.469-1.314,1.747-1.314c0.792,0,1.188,0.414,1.269,0.504c0.207-0.171,0.541-0.314,0.793-0.314
			c0.324,0,0.495,0.18,0.495,0.468c0,0.207-0.189,0.387-0.396,0.387c-0.153,0-0.225-0.063-0.279-0.152
			c-0.045-0.072-0.152-0.136-0.252-0.136c-0.045,0-0.126,0.036-0.171,0.081c0.036,0.063,0.108,0.262,0.108,0.586
			c0,0.342-0.1,0.675-0.405,0.972c-0.342,0.324-0.855,0.433-1.216,0.433c-0.18,0-0.306,0-0.531-0.027
			c-0.116,0.072-0.333,0.234-0.333,0.414c0,0.315,0.262,0.342,1.233,0.315c0.612-0.019,1.071,0.018,1.513,0.36
			c0.324,0.261,0.441,0.576,0.441,0.909c0,0.378-0.171,0.702-0.522,0.999c-0.333,0.271-1.018,0.558-1.927,0.558
			C425.519,39.135,424.861,39.063,424.51,38.856z M427.436,38.019c0-0.495-0.351-0.765-1.17-0.729l-0.783,0.036
			c-0.261,0.063-0.45,0.342-0.45,0.611c0,0.262,0.144,0.486,0.315,0.612c0.252,0.181,0.504,0.234,0.909,0.234
			C426.851,38.784,427.436,38.469,427.436,38.019z M425.645,33.409c-0.126,0.181-0.181,0.595-0.181,1
			c0,0.261,0.081,0.549,0.198,0.684c0.1,0.126,0.234,0.181,0.414,0.181c0.396,0,0.531-0.604,0.531-1.297
			c0-0.333-0.036-0.522-0.081-0.604c-0.081-0.152-0.188-0.252-0.44-0.252C425.888,33.121,425.771,33.229,425.645,33.409z"/>
		<path d="M429.919,34.445v0.242c0,0.937,0.531,1.396,1.188,1.396c0.441,0,0.801-0.207,0.981-0.495
			c0.018-0.045,0.054-0.054,0.09-0.026l0.153,0.081c0.036,0.018,0.063,0.063-0.019,0.216c-0.162,0.333-0.747,0.954-1.594,0.954
			c-0.576,0-1.053-0.099-1.35-0.423c-0.459-0.495-0.612-0.847-0.621-1.549c0-0.252,0-0.729,0.404-1.323
			c0.324-0.478,0.874-0.738,1.566-0.738c1.459,0,1.54,1.396,1.54,1.539c0,0.117-0.081,0.127-0.279,0.127H429.919z M430.792,34.103
			c0.198,0,0.288-0.045,0.288-0.18c0-0.396-0.162-0.783-0.44-0.783c-0.424,0-0.648,0.333-0.712,0.963H430.792z"/>
		<path d="M434.428,33.274h0.072c0.099-0.117,0.261-0.234,0.432-0.324c0.198-0.107,0.396-0.171,0.693-0.171
			c0.352,0,0.693,0.036,0.928,0.252c0.378,0.352,0.404,0.576,0.404,1.026v0.954c0,0.307-0.018,0.729-0.035,1.045
			c-0.01,0.27,0.135,0.314,0.216,0.314h0.243c0.081,0,0.099,0.027,0.099,0.081v0.162c0,0.063-0.018,0.1-0.072,0.1
			c-0.063,0-0.342-0.027-1.062-0.027c-0.595,0-0.883,0.027-0.945,0.027c-0.055,0-0.072-0.027-0.072-0.1v-0.162
			c0-0.063,0.026-0.081,0.117-0.081h0.099c0.063,0,0.145-0.045,0.162-0.207c0.036-0.233,0.054-0.521,0.054-0.936v-0.964
			c0-0.342-0.026-0.576-0.216-0.747c-0.162-0.145-0.288-0.162-0.441-0.162c-0.162,0-0.278,0.045-0.459,0.18
			c-0.107,0.081-0.18,0.324-0.18,0.693l-0.019,1.846c0,0.162,0.063,0.297,0.145,0.297h0.117c0.071,0,0.09,0.027,0.09,0.091v0.171
			c0,0.054-0.019,0.081-0.063,0.081c-0.063,0-0.306-0.027-0.9-0.027c-0.639,0-0.927,0.027-0.98,0.027
			c-0.045,0-0.063-0.027-0.063-0.081v-0.181c0-0.054,0.019-0.081,0.09-0.081h0.136c0.099,0,0.252-0.026,0.252-0.18v-1.999
			c0-0.27-0.153-0.423-0.36-0.521l-0.081-0.036c-0.054-0.027-0.063-0.063-0.063-0.1v-0.081c0-0.045,0.036-0.071,0.081-0.09
			l1.152-0.521c0.072-0.027,0.136-0.063,0.207-0.063c0.055,0,0.108,0.045,0.127,0.108L434.428,33.274z"/>
		<path d="M440.701,33.806c0.009,0.045,0,0.063-0.036,0.081l-0.162,0.072c-0.027,0.018-0.054,0.009-0.09-0.027l-0.504-0.54
			c-0.117-0.117-0.288-0.261-0.559-0.261s-0.531,0.18-0.531,0.485c0.019,0.315,0.126,0.405,0.792,0.586
			c0.441,0.116,0.657,0.18,0.928,0.468c0.234,0.234,0.288,0.45,0.288,0.766c0,0.801-0.63,1.377-1.611,1.377
			c-0.505,0-0.945-0.18-1.054-0.261c-0.036-0.027-0.045-0.063-0.054-0.117l-0.117-0.864c0-0.045,0.027-0.063,0.063-0.072
			l0.162-0.045c0.027-0.009,0.046,0,0.063,0.036l0.36,0.531c0.162,0.233,0.369,0.459,0.783,0.459c0.333,0,0.531-0.234,0.531-0.549
			c0-0.36-0.262-0.478-0.847-0.657c-0.639-0.189-1.099-0.495-1.099-1.144c0-0.423,0.126-0.774,0.469-1.026
			c0.36-0.261,0.612-0.324,0.99-0.324c0.486,0,0.783,0.108,0.945,0.189c0.135,0.063,0.153,0.107,0.162,0.171L440.701,33.806z"/>
		<path d="M444.832,33.652c0,0.252-0.18,0.424-0.468,0.424c-0.378,0-0.576-0.253-0.648-0.478c-0.107-0.324-0.279-0.433-0.531-0.433
			c-0.243,0-0.594,0.352-0.594,0.919s-0.019,0.972,0.288,1.53c0.225,0.405,0.558,0.522,0.963,0.522c0.414,0,0.612-0.081,0.9-0.288
			c0.045-0.027,0.072-0.045,0.1-0.01l0.126,0.127c0.026,0.035,0.018,0.071-0.01,0.116c-0.171,0.298-0.873,0.729-1.701,0.729
			c-0.675,0-1.125-0.189-1.413-0.549c-0.352-0.433-0.459-0.783-0.459-1.242c0-0.612,0.197-1.27,0.675-1.711
			c0.405-0.369,0.847-0.531,1.332-0.531C444.571,32.779,444.832,33.373,444.832,33.652z"/>
		<path d="M446.946,36.002c0,0.271,0.055,0.369,0.136,0.369h0.18c0.045,0,0.072,0.019,0.072,0.072v0.171c0,0.063-0.01,0.1-0.063,0.1
			c-0.072,0-0.486-0.027-1.018-0.027c-0.63,0-0.972,0.027-1.053,0.027c-0.036,0-0.063-0.027-0.063-0.091v-0.18
			c0-0.063,0.036-0.072,0.136-0.072h0.144c0.145,0,0.279-0.036,0.307-0.152c0.045-0.162,0.045-0.324,0.045-0.595l-0.019-3.745
			c0-0.45-0.117-0.711-0.423-0.828l-0.162-0.054c-0.054-0.027-0.072-0.055-0.072-0.081v-0.117c0-0.036,0.027-0.072,0.153-0.108
			c0.495-0.144,0.819-0.288,1.359-0.549c0.117-0.054,0.189-0.09,0.279-0.09c0.081,0,0.099,0.072,0.081,0.225
			c-0.019,0.153-0.027,1.98-0.027,2.512v0.54h0.063c0.216-0.342,0.657-0.549,1.152-0.549c0.404,0,0.639,0.117,0.918,0.352
			c0.423,0.351,0.387,0.801,0.387,1.377v0.559c0,0.45-0.018,0.999-0.018,1.17c0,0.126,0.18,0.135,0.288,0.135h0.171
			c0.072,0,0.099,0.019,0.099,0.063v0.188c0,0.055-0.018,0.091-0.071,0.091c-0.063,0-0.352-0.027-0.981-0.027
			c-0.621,0-0.945,0.027-1.026,0.027c-0.063,0-0.081-0.027-0.081-0.1v-0.171c0-0.045,0.009-0.072,0.063-0.072h0.117
			c0.081,0,0.198-0.045,0.217-0.171c0.009-0.126,0.026-0.603,0.026-0.873v-0.549c0-0.441,0.027-1.071-0.207-1.306
			c-0.126-0.126-0.234-0.171-0.423-0.171c-0.198,0-0.396,0.162-0.531,0.314c-0.072,0.091-0.153,0.207-0.153,0.441V36.002z"/>
		<path d="M452.41,33.814c0-0.18-0.019-0.387-0.136-0.495c-0.09-0.081-0.233-0.107-0.378-0.107c-0.162,0-0.315,0.035-0.478,0.144
			c-0.135,0.09-0.026,0.243-0.026,0.531c0,0.306-0.226,0.513-0.585,0.513c-0.207,0-0.388-0.126-0.388-0.323
			c0-0.198,0.063-0.469,0.252-0.631c0.379-0.342,1-0.666,1.729-0.666c0.576,0,0.729,0.09,0.919,0.261
			c0.197,0.181,0.252,0.441,0.252,0.766l0.018,1.792c0.009,0.468,0.036,0.611,0.207,0.611c0.126,0,0.226-0.099,0.262-0.162
			c0.035-0.054,0.063-0.063,0.09-0.045l0.126,0.072c0.036,0.019,0.063,0.045,0.026,0.126c-0.08,0.189-0.351,0.612-0.909,0.612
			c-0.351,0-0.684-0.126-0.854-0.549h-0.045c-0.226,0.207-0.415,0.333-0.774,0.468c-0.181,0.063-0.388,0.081-0.648,0.081
			c-0.315,0-0.594-0.342-0.594-0.828c0-0.396,0.188-0.811,0.773-1.099c0.702-0.333,0.928-0.432,1.162-0.594V33.814z M452.419,34.652
			c-0.441,0.252-0.811,0.387-0.811,1.008c0,0.414,0.189,0.585,0.387,0.594c0.243-0.018,0.424-0.242,0.424-0.323V34.652z"/>
		<path d="M456.216,33.383v0.783c0,0.432-0.026,1.575-0.009,1.927c0.009,0.197,0.117,0.278,0.261,0.278h0.324
			c0.081,0,0.1,0.019,0.1,0.072v0.18c0,0.055-0.019,0.091-0.063,0.091c-0.054,0-0.387-0.027-1.26-0.027
			c-0.586,0-1.045,0.027-1.117,0.027c-0.054,0-0.071-0.019-0.071-0.081v-0.198c0-0.045,0.018-0.063,0.09-0.063h0.297
			c0.171,0,0.243-0.107,0.243-0.297l-0.027-2.691h-0.576c-0.045,0-0.063-0.019-0.054-0.1l0.045-0.314
			c0.009-0.055,0.036-0.063,0.108-0.063h0.477v-0.27c0-0.945,0.298-1.531,0.757-1.963c0.486-0.45,0.963-0.621,1.521-0.621
			c0.531,0,0.927,0.216,0.927,0.63c0,0.279-0.288,0.45-0.495,0.45c-0.288,0-0.468-0.108-0.603-0.342
			c-0.108-0.181-0.234-0.271-0.324-0.271c-0.181,0-0.307,0.054-0.45,0.288c-0.162,0.252-0.1,0.892-0.1,1.72v0.378h1.045
			c0.063,0,0.071,0.054,0.063,0.09l-0.045,0.343c-0.009,0.035-0.045,0.045-0.117,0.045H456.216z"/>
		<path d="M459.222,35.372c0,0.738,0.279,0.9,0.495,0.9c0.188,0,0.324-0.027,0.468-0.108c0.027-0.018,0.054-0.018,0.081,0.036
			l0.063,0.135c0.026,0.046,0,0.091-0.036,0.117c-0.153,0.108-0.559,0.36-1.261,0.36c-0.612,0-0.999-0.423-0.999-0.837
			c0-0.315,0.018-1,0.018-1.342l0.009-1.188h-0.495c-0.081,0-0.144-0.036-0.144-0.126s0.054-0.153,0.198-0.225
			c0.297-0.136,1.053-0.811,1.386-1.188c0.063-0.072,0.127-0.09,0.172-0.09c0.081,0,0.116,0.063,0.116,0.135l-0.035,0.954h1.143
			c0.055,0,0.081,0.045,0.063,0.081l-0.09,0.387c-0.01,0.036-0.027,0.072-0.081,0.072h-1.054c-0.018,0.369-0.018,0.802-0.018,1.216
			V35.372z"/>
		<path d="M461.85,34.445v0.242c0,0.937,0.531,1.396,1.188,1.396c0.441,0,0.801-0.207,0.981-0.495
			c0.018-0.045,0.054-0.054,0.09-0.026l0.153,0.081c0.035,0.018,0.063,0.063-0.019,0.216c-0.162,0.333-0.747,0.954-1.594,0.954
			c-0.576,0-1.053-0.099-1.35-0.423c-0.46-0.495-0.612-0.847-0.621-1.549c0-0.252,0-0.729,0.404-1.323
			c0.324-0.478,0.874-0.738,1.566-0.738c1.459,0,1.54,1.396,1.54,1.539c0,0.117-0.081,0.127-0.279,0.127H461.85z M462.723,34.103
			c0.198,0,0.288-0.045,0.288-0.18c0-0.396-0.162-0.783-0.441-0.783c-0.423,0-0.647,0.333-0.711,0.963H462.723z"/>
		<path d="M466.358,33.274h0.072c0.099-0.117,0.261-0.234,0.432-0.324c0.198-0.107,0.396-0.171,0.693-0.171
			c0.352,0,0.693,0.036,0.928,0.252c0.378,0.352,0.404,0.576,0.404,1.026v0.954c0,0.307-0.018,0.729-0.035,1.045
			c-0.01,0.27,0.135,0.314,0.216,0.314h0.243c0.081,0,0.099,0.027,0.099,0.081v0.162c0,0.063-0.018,0.1-0.072,0.1
			c-0.063,0-0.342-0.027-1.062-0.027c-0.595,0-0.883,0.027-0.945,0.027c-0.055,0-0.072-0.027-0.072-0.1v-0.162
			c0-0.063,0.026-0.081,0.117-0.081h0.099c0.063,0,0.145-0.045,0.162-0.207c0.036-0.233,0.054-0.521,0.054-0.936v-0.964
			c0-0.342-0.026-0.576-0.216-0.747c-0.162-0.145-0.288-0.162-0.441-0.162c-0.162,0-0.278,0.045-0.459,0.18
			c-0.107,0.081-0.18,0.324-0.18,0.693l-0.019,1.846c0,0.162,0.063,0.297,0.145,0.297h0.117c0.071,0,0.09,0.027,0.09,0.091v0.171
			c0,0.054-0.019,0.081-0.063,0.081c-0.063,0-0.306-0.027-0.899-0.027c-0.64,0-0.928,0.027-0.981,0.027
			c-0.045,0-0.063-0.027-0.063-0.081v-0.181c0-0.054,0.019-0.081,0.09-0.081h0.136c0.099,0,0.252-0.026,0.252-0.18v-1.999
			c0-0.27-0.153-0.423-0.36-0.521l-0.081-0.036c-0.054-0.027-0.063-0.063-0.063-0.1v-0.081c0-0.045,0.036-0.071,0.081-0.09
			l1.152-0.521c0.072-0.027,0.136-0.063,0.207-0.063c0.055,0,0.108,0.045,0.127,0.108L466.358,33.274z"/>
	</g>
	<g>
		<path d="M388.327,572.357c-0.045,0-0.063-0.027-0.045-0.09l0.036-0.153c0.018-0.063,0.036-0.09,0.108-0.09h0.783
			c0.27-0.774,0.576-1.521,1.053-2.053c0.252-0.288,0.747-0.612,1.333-0.612c0.522,0,0.81,0.315,0.81,0.531
			c0,0.279-0.18,0.414-0.36,0.414c-0.288,0-0.369-0.162-0.396-0.36c-0.009-0.09-0.099-0.261-0.369-0.261
			c-0.837,0-1.161,1.332-1.458,2.341h0.874c0.054,0,0.072,0.027,0.054,0.108l-0.045,0.161c-0.009,0.055-0.027,0.063-0.099,0.063
			h-0.855c-0.234,0.729-0.648,2.287-1.099,3.439c-0.549,1.404-1.188,2.403-2.151,2.403c-0.36,0-0.648-0.243-0.648-0.531
			c0-0.207,0.153-0.387,0.387-0.387c0.261,0,0.396,0.252,0.423,0.404c0.018,0.091,0.081,0.153,0.153,0.153
			c0.432,0,0.918-0.756,1.405-2.422l0.909-3.061H388.327z"/>
		<path d="M394.501,571.871c0.081,0,0.1,0.027,0.081,0.081l-0.693,1.873c-0.261,0.702-0.378,1.116-0.378,1.17
			c0,0.081,0.009,0.081,0.072,0.108c0.135,0,0.63-0.45,0.702-0.559c0.019-0.026,0.054-0.036,0.081,0l0.09,0.09
			c0.027,0.027,0.027,0.045,0,0.081c-0.026,0.036-0.864,0.9-1.485,0.9c-0.126,0-0.171-0.099-0.171-0.207
			c0-0.107,0.459-1.233,0.576-1.539l-0.054-0.027c-0.378,0.549-1.333,1.773-2.224,1.773c-0.18,0-0.333-0.153-0.333-0.369
			c0-0.288,0.288-0.846,0.639-1.684c0.234-0.558,0.441-0.981,0.441-1.143c0-0.081-0.063-0.127-0.144-0.127
			c-0.162,0-0.612,0.405-0.702,0.514c-0.027,0.027-0.054,0.027-0.081,0l-0.081-0.081c-0.027-0.018-0.027-0.045,0.009-0.081
			c0.063-0.081,0.811-0.864,1.387-0.864c0.18,0,0.261,0.18,0.261,0.324c0,0.225-0.216,0.756-0.585,1.558
			c-0.243,0.531-0.477,1.107-0.477,1.305c0,0.1,0.063,0.153,0.153,0.153c0.477,0,1.432-1.179,1.692-1.558
			c0.171-0.252,0.315-0.495,0.414-0.765l0.315-0.864c0.018-0.055,0.063-0.063,0.125-0.063H394.501z M392.521,570.188
			c0-0.117,0.081-0.351,0.414-0.351c0.198,0,0.369,0.135,0.369,0.378c0,0.225-0.162,0.36-0.369,0.36
			C392.773,570.575,392.521,570.503,392.521,570.188z M393.746,570.188c0-0.117,0.081-0.351,0.414-0.351
			c0.198,0,0.369,0.135,0.369,0.378c0,0.225-0.162,0.36-0.369,0.36C393.998,570.575,393.746,570.503,393.746,570.188z"/>
		<path d="M395.185,575.526c-0.063,0-0.1-0.036-0.081-0.081l0.504-1.458c0.162-0.505,0.441-1.45,0.441-1.576
			c0-0.081-0.072-0.135-0.153-0.135c-0.18,0-0.585,0.405-0.711,0.559c-0.019,0.026-0.055,0.018-0.072,0l-0.09-0.091
			c-0.019-0.018-0.019-0.045,0-0.071c0.188-0.279,0.729-0.892,1.341-0.892c0.181,0,0.252,0.153,0.252,0.315
			c0.01,0.171-0.144,0.675-0.323,1.278l0.045,0.018c0.243-0.504,0.963-1.611,1.467-1.611c0.262,0,0.424,0.162,0.424,0.405
			c0,0.234-0.181,0.414-0.352,0.414c-0.081,0-0.153-0.019-0.225-0.09c-0.072-0.072-0.117-0.108-0.234-0.108
			c-0.243,0-0.747,0.774-1.107,1.368c-0.108,0.172-0.216,0.379-0.352,0.783l-0.297,0.909c-0.018,0.063-0.045,0.063-0.117,0.063
			H395.185z"/>
	</g>
</g>
<g id="Calque_2">
	<g>
		<path d="M253.194,321.358c-0.2-1.421-1.561-2.501-3.121-2.501c-2.821,0-3.881,2.4-3.881,4.901c0,2.38,1.06,4.781,3.881,4.781
			c1.92,0,3-1.32,3.241-3.2h3.041c-0.32,3.561-2.781,5.84-6.281,5.84c-4.421,0-7.021-3.3-7.021-7.421
			c0-4.241,2.601-7.542,7.021-7.542c3.141,0,5.781,1.841,6.161,5.142H253.194z"/>
		<path d="M258.271,316.557h2.841v14.283h-2.841V316.557z"/>
		<path d="M263.232,323.679c0.16-2.661,2.541-3.46,4.861-3.46c2.061,0,4.541,0.459,4.541,2.939v5.382c0,0.94,0.1,1.88,0.36,2.3
			h-2.88c-0.1-0.319-0.18-0.66-0.2-1c-0.9,0.94-2.22,1.281-3.481,1.281c-1.96,0-3.521-0.98-3.521-3.102c0-2.34,1.76-2.9,3.521-3.141
			c1.741-0.26,3.361-0.199,3.361-1.36c0-1.22-0.84-1.399-1.84-1.399c-1.08,0-1.78,0.439-1.88,1.56H263.232z M269.793,325.779
			c-0.48,0.42-1.48,0.439-2.36,0.6c-0.88,0.181-1.68,0.48-1.68,1.521c0,1.06,0.82,1.32,1.74,1.32c2.22,0,2.3-1.762,2.3-2.381
			V325.779z"/>
		<path d="M277.032,327.479c0.02,1.24,1.06,1.741,2.18,1.741c0.82,0,1.861-0.32,1.861-1.32c0-0.861-1.181-1.161-3.221-1.602
			c-1.641-0.359-3.281-0.939-3.281-2.76c0-2.641,2.28-3.32,4.501-3.32c2.26,0,4.341,0.76,4.561,3.3h-2.701
			c-0.08-1.101-0.92-1.399-1.94-1.399c-0.64,0-1.581,0.119-1.581,0.959c0,1.021,1.601,1.16,3.221,1.541
			c1.661,0.38,3.281,0.98,3.281,2.9c0,2.721-2.36,3.602-4.721,3.602c-2.4,0-4.741-0.9-4.861-3.642H277.032z"/>
		<path d="M287.771,327.479c0.02,1.24,1.06,1.741,2.18,1.741c0.82,0,1.861-0.32,1.861-1.32c0-0.861-1.181-1.161-3.221-1.602
			c-1.641-0.359-3.281-0.939-3.281-2.76c0-2.641,2.28-3.32,4.501-3.32c2.26,0,4.341,0.76,4.561,3.3h-2.701
			c-0.08-1.101-0.92-1.399-1.94-1.399c-0.64,0-1.581,0.119-1.581,0.959c0,1.021,1.601,1.16,3.221,1.541
			c1.661,0.38,3.281,0.98,3.281,2.9c0,2.721-2.36,3.602-4.721,3.602c-2.401,0-4.741-0.9-4.861-3.642H287.771z"/>
		<path d="M299.231,318.898h-2.841v-2.342h2.841V318.898z M296.391,320.498h2.841v10.342h-2.841V320.498z"/>
		<path d="M308.512,324.139c-0.18-1.16-0.92-1.78-2.1-1.78c-1.821,0-2.421,1.841-2.421,3.36c0,1.48,0.58,3.262,2.361,3.262
			c1.32,0,2.08-0.841,2.26-2.102h2.741c-0.36,2.741-2.261,4.242-4.981,4.242c-3.121,0-5.221-2.201-5.221-5.302
			c0-3.221,1.92-5.601,5.281-5.601c2.44,0,4.681,1.279,4.861,3.92H308.512z"/>
		<path d="M312.831,323.679c0.16-2.661,2.541-3.46,4.861-3.46c2.061,0,4.541,0.459,4.541,2.939v5.382c0,0.94,0.1,1.88,0.36,2.3
			h-2.88c-0.1-0.319-0.18-0.66-0.2-1c-0.9,0.94-2.22,1.281-3.48,1.281c-1.96,0-3.521-0.98-3.521-3.102c0-2.34,1.76-2.9,3.521-3.141
			c1.74-0.26,3.36-0.199,3.36-1.36c0-1.22-0.84-1.399-1.84-1.399c-1.08,0-1.78,0.439-1.88,1.56H312.831z M319.392,325.779
			c-0.48,0.42-1.48,0.439-2.36,0.6c-0.88,0.181-1.68,0.48-1.68,1.521c0,1.06,0.82,1.32,1.74,1.32c2.22,0,2.3-1.762,2.3-2.381
			V325.779z"/>
		<path d="M324.51,316.557h2.841v14.283h-2.841V316.557z"/>
	</g>
	<g>
		<path d="M514.275,316.557h4.42l3.342,9.822h0.039l3.161-9.822h4.421v14.283h-2.941v-10.121h-0.039l-3.501,10.121h-2.421
			l-3.5-10.021h-0.041v10.021h-2.939V316.557z"/>
		<path d="M537.136,320.219c3.261,0,5.361,2.16,5.361,5.461c0,3.28-2.101,5.441-5.361,5.441c-3.24,0-5.341-2.161-5.341-5.441
			C531.795,322.379,533.896,320.219,537.136,320.219z M537.136,328.98c1.94,0,2.521-1.661,2.521-3.301
			c0-1.66-0.58-3.321-2.521-3.321c-1.921,0-2.501,1.661-2.501,3.321C534.635,327.319,535.215,328.98,537.136,328.98z"/>
		<path d="M551.716,329.52h-0.04c-0.66,1.121-1.82,1.602-3.141,1.602c-3.12,0-4.641-2.682-4.641-5.542c0-2.78,1.541-5.36,4.581-5.36
			c1.22,0,2.421,0.52,3.061,1.539h0.04v-5.201h2.841v14.283h-2.701V329.52z M549.236,322.358c-1.861,0-2.501,1.601-2.501,3.301
			c0,1.62,0.739,3.321,2.501,3.321c1.88,0,2.439-1.641,2.439-3.342C551.676,323.959,551.076,322.358,549.236,322.358z"/>
		<path d="M558.896,326.359c0.08,1.801,0.96,2.621,2.54,2.621c1.141,0,2.061-0.701,2.241-1.341h2.5c-0.8,2.44-2.5,3.481-4.841,3.481
			c-3.261,0-5.281-2.241-5.281-5.441c0-3.102,2.141-5.461,5.281-5.461c3.521,0,5.221,2.96,5.021,6.141H558.896z M563.517,324.559
			c-0.261-1.439-0.881-2.2-2.261-2.2c-1.801,0-2.32,1.4-2.36,2.2H563.517z"/>
		<path d="M568.034,320.498h2.701v1.92h0.04c0.52-1.3,1.92-2.199,3.3-2.199c0.2,0,0.44,0.039,0.62,0.1v2.641
			c-0.26-0.061-0.68-0.101-1.02-0.101c-2.081,0-2.801,1.501-2.801,3.321v4.66h-2.841V320.498z"/>
		<path d="M576.174,320.498h2.701v1.44h0.06c0.72-1.16,1.96-1.72,3.161-1.72c3.021,0,3.78,1.699,3.78,4.26v6.361h-2.841v-5.841
			c0-1.7-0.5-2.54-1.82-2.54c-1.54,0-2.2,0.859-2.2,2.96v5.421h-2.841V320.498z"/>
	</g>
</g>
</svg>
