<?xml version="1.0" encoding="utf-8"?>
<!-- Generator: Adobe Illustrator 16.0.0, SVG Export Plug-In . SVG Version: 6.00 Build 0)  -->
<!DOCTYPE svg PUBLIC "-//W3C//DTD SVG 1.1//EN" "http://www.w3.org/Graphics/SVG/1.1/DTD/svg11.dtd">
<svg version="1.1" id="Layer_1" xmlns="http://www.w3.org/2000/svg" xmlns:xlink="http://www.w3.org/1999/xlink" x="0px" y="0px"
	 width="841.89px" height="595.281px" viewBox="0 0 841.89 595.281" enable-background="new 0 0 841.89 595.281"
	 xml:space="preserve">
<g id="Calque_1">
	<g enable-background="new    ">
		<path d="M400.268,197.682c0-2.96,2-5.04,4.8-5.04c2.8,0,4.72,2.08,4.72,5.04c0,2.88-1.84,5.04-4.8,5.04
			C402.188,202.722,400.268,200.562,400.268,197.682z"/>
		<path d="M416.826,197.682c0-2.96,2-5.04,4.8-5.04c2.8,0,4.72,2.08,4.72,5.04c0,2.88-1.84,5.04-4.8,5.04
			C418.746,202.722,416.826,200.562,416.826,197.682z"/>
		<path d="M433.385,197.682c0-2.96,2-5.04,4.8-5.04c2.801,0,4.721,2.08,4.721,5.04c0,2.88-1.84,5.04-4.801,5.04
			C435.305,202.722,433.385,200.562,433.385,197.682z"/>
	</g>
	<g>
		<path d="M236.87,326.099c0,1.9,1.48,2.643,3.161,2.643c1.1,0,2.78-0.32,2.78-1.781c0-1.541-2.14-1.801-4.241-2.359
			c-2.121-0.561-4.261-1.381-4.261-4.063c0-2.92,2.76-4.32,5.341-4.32c2.98,0,5.721,1.301,5.721,4.602h-3.041
			c-0.1-1.721-1.32-2.16-2.821-2.16c-1,0-2.16,0.42-2.16,1.621c0,1.1,0.68,1.238,4.261,2.16c1.04,0.26,4.241,0.92,4.241,4.16
			c0,2.621-2.06,4.58-5.941,4.58c-3.161,0-6.122-1.561-6.082-5.08h3.042V326.099z"/>
		<path d="M254.45,324.138c-0.18-1.158-0.92-1.779-2.1-1.779c-1.821,0-2.421,1.842-2.421,3.359c0,1.48,0.58,3.264,2.361,3.264
			c1.32,0,2.08-0.842,2.26-2.104h2.741c-0.36,2.742-2.261,4.242-4.981,4.242c-3.121,0-5.221-2.201-5.221-5.301
			c0-3.223,1.92-5.602,5.281-5.602c2.44,0,4.681,1.279,4.861,3.92H254.45L254.45,324.138z"/>
		<path d="M258.888,316.556h2.841v5.383h0.06c0.72-1.16,1.96-1.721,3.021-1.721c3.021,0,3.781,1.699,3.781,4.262v6.359h-2.84V325
			c0-1.701-0.5-2.541-1.821-2.541c-1.54,0-2.2,0.859-2.2,2.961v5.42h-2.841L258.888,316.556L258.888,316.556z"/>
		<path d="M270.748,320.498h2.701v1.92h0.04c0.52-1.299,1.92-2.199,3.301-2.199c0.2,0,0.44,0.039,0.62,0.102v2.641
			c-0.26-0.061-0.68-0.102-1.021-0.102c-2.08,0-2.8,1.502-2.8,3.32v4.66h-2.841V320.498z"/>
		<path d="M280.509,326.359c0.08,1.801,0.96,2.621,2.541,2.621c1.14,0,2.06-0.701,2.24-1.342h2.5c-0.8,2.441-2.5,3.482-4.841,3.482
			c-3.261,0-5.281-2.242-5.281-5.441c0-3.102,2.141-5.461,5.281-5.461c3.521,0,5.221,2.959,5.021,6.141H280.509L280.509,326.359z
			 M285.129,324.558c-0.26-1.438-0.88-2.199-2.26-2.199c-1.8,0-2.32,1.4-2.36,2.199H285.129z"/>
		<path d="M292.569,318.898h-2.841v-2.342h2.841V318.898z M289.728,320.498h2.841v10.342h-2.841V320.498z"/>
		<path d="M294.808,316.556h2.841v5.201h0.04c0.7-1.059,1.98-1.539,3.261-1.539c2.06,0,4.281,1.66,4.281,5.441
			c0,3.801-2.221,5.461-4.281,5.461c-1.521,0-2.781-0.461-3.401-1.602h-0.04v1.32h-2.701V316.556z M299.969,322.359
			c-1.68,0-2.42,1.58-2.42,3.32c0,1.721,0.74,3.301,2.42,3.301c1.681,0,2.42-1.58,2.42-3.301
			C302.389,323.939,301.649,322.359,299.969,322.359z"/>
		<path d="M309.369,326.359c0.08,1.801,0.96,2.621,2.541,2.621c1.14,0,2.06-0.701,2.24-1.342h2.5c-0.8,2.441-2.5,3.482-4.841,3.482
			c-3.261,0-5.281-2.242-5.281-5.441c0-3.102,2.141-5.461,5.281-5.461c3.521,0,5.221,2.959,5.021,6.141H309.369L309.369,326.359z
			 M313.989,324.558c-0.26-1.438-0.88-2.199-2.26-2.199c-1.8,0-2.32,1.4-2.36,2.199H313.989z"/>
		<path d="M318.507,320.498h2.701v1.441h0.06c0.72-1.16,1.96-1.721,3.161-1.721c3.021,0,3.781,1.699,3.781,4.26v6.361h-2.84v-5.842
			c0-1.699-0.5-2.539-1.821-2.539c-1.54,0-2.2,0.859-2.2,2.959v5.422h-2.841L318.507,320.498L318.507,320.498z"/>
		<path d="M338.368,326.099c0,1.9,1.48,2.643,3.161,2.643c1.1,0,2.78-0.32,2.78-1.781c0-1.541-2.14-1.801-4.241-2.359
			c-2.121-0.561-4.261-1.381-4.261-4.063c0-2.92,2.761-4.32,5.341-4.32c2.981,0,5.721,1.301,5.721,4.602h-3.041
			c-0.1-1.721-1.32-2.16-2.821-2.16c-1,0-2.16,0.42-2.16,1.621c0,1.1,0.68,1.238,4.261,2.16c1.04,0.26,4.241,0.92,4.241,4.16
			c0,2.621-2.06,4.58-5.941,4.58c-3.161,0-6.122-1.561-6.082-5.08h3.042V326.099z"/>
		<path d="M351.828,318.898h-2.841v-2.342h2.841V318.898z M348.987,320.498h2.841v10.342h-2.841V320.498z"/>
		<path d="M356.408,326.359c0.08,1.801,0.96,2.621,2.541,2.621c1.14,0,2.06-0.701,2.24-1.342h2.5c-0.8,2.441-2.5,3.482-4.841,3.482
			c-3.261,0-5.281-2.242-5.281-5.441c0-3.102,2.141-5.461,5.281-5.461c3.521,0,5.221,2.959,5.021,6.141H356.408L356.408,326.359z
			 M361.028,324.558c-0.26-1.438-0.88-2.199-2.26-2.199c-1.8,0-2.32,1.4-2.36,2.199H361.028z"/>
		<path d="M378.488,329.519h-0.04c-0.66,1.121-1.82,1.604-3.141,1.604c-3.121,0-4.641-2.682-4.641-5.543
			c0-2.779,1.541-5.359,4.581-5.359c1.22,0,2.42,0.52,3.061,1.539h0.04v-5.201h2.841v14.283h-2.701L378.488,329.519L378.488,329.519
			z M376.008,322.359c-1.86,0-2.5,1.6-2.5,3.301c0,1.619,0.74,3.32,2.5,3.32c1.88,0,2.44-1.641,2.44-3.342
			C378.448,323.958,377.848,322.359,376.008,322.359z"/>
		<path d="M385.667,326.359c0.08,1.801,0.96,2.621,2.541,2.621c1.14,0,2.06-0.701,2.24-1.342h2.5c-0.8,2.441-2.5,3.482-4.841,3.482
			c-3.261,0-5.281-2.242-5.281-5.441c0-3.102,2.141-5.461,5.281-5.461c3.521,0,5.221,2.959,5.021,6.141H385.667L385.667,326.359z
			 M390.288,324.558c-0.26-1.438-0.88-2.199-2.26-2.199c-1.8,0-2.32,1.4-2.36,2.199H390.288z"/>
		<path d="M394.806,320.498h2.701v1.441h0.06c0.72-1.16,1.96-1.721,3.161-1.721c3.021,0,3.781,1.699,3.781,4.26v6.361h-2.84v-5.842
			c0-1.699-0.5-2.539-1.821-2.539c-1.54,0-2.2,0.859-2.2,2.959v5.422h-2.841L394.806,320.498L394.806,320.498z"/>
		<path d="M412.526,316.556h3.121l5.962,9.582h0.039v-9.582h2.939v14.283h-3.141l-5.941-9.561h-0.04v9.561h-2.94V316.556z"/>
		<path d="M426.925,323.679c0.16-2.662,2.541-3.461,4.861-3.461c2.061,0,4.541,0.459,4.541,2.939v5.383
			c0,0.939,0.1,1.879,0.359,2.299h-2.881c-0.1-0.318-0.18-0.66-0.199-1c-0.9,0.941-2.221,1.281-3.48,1.281
			c-1.961,0-3.52-0.98-3.52-3.102c0-2.34,1.76-2.9,3.52-3.141c1.74-0.26,3.361-0.199,3.361-1.361c0-1.219-0.842-1.398-1.842-1.398
			c-1.08,0-1.779,0.439-1.881,1.561H426.925L426.925,323.679z M433.488,325.779c-0.48,0.42-1.48,0.439-2.361,0.6
			c-0.881,0.182-1.68,0.48-1.68,1.521c0,1.061,0.818,1.32,1.74,1.32c2.221,0,2.301-1.762,2.301-2.381V325.779z"/>
		<path d="M438.605,320.498h2.682v1.4h0.039c0.74-1.061,1.82-1.68,3.162-1.68c1.299,0,2.459,0.479,3.02,1.721
			c0.602-0.9,1.682-1.721,3.121-1.721c2.201,0,3.781,1.02,3.781,3.699v6.922h-2.842v-5.861c0-1.381-0.119-2.52-1.74-2.52
			c-1.6,0-1.9,1.32-1.9,2.619v5.762h-2.84v-5.801c0-1.201,0.08-2.58-1.721-2.58c-0.561,0-1.92,0.359-1.92,2.379v6.002h-2.842
			V320.498z"/>
		<path d="M458.986,326.359c0.08,1.801,0.961,2.621,2.541,2.621c1.139,0,2.061-0.701,2.24-1.342h2.5
			c-0.801,2.441-2.5,3.482-4.842,3.482c-3.26,0-5.281-2.242-5.281-5.441c0-3.102,2.143-5.461,5.281-5.461
			c3.521,0,5.223,2.959,5.021,6.141H458.986L458.986,326.359z M463.607,324.558c-0.26-1.438-0.881-2.199-2.262-2.199
			c-1.799,0-2.32,1.4-2.359,2.199H463.607z"/>
		<path d="M468.125,320.498h2.701v1.441h0.061c0.721-1.16,1.959-1.721,3.16-1.721c3.021,0,3.781,1.699,3.781,4.26v6.361h-2.842
			v-5.842c0-1.699-0.5-2.539-1.82-2.539c-1.539,0-2.199,0.859-2.199,2.959v5.422h-2.842V320.498L468.125,320.498z"/>
		<path d="M485.845,316.556h3.143v14.283h-3.143V316.556z"/>
		<path d="M491.445,316.556h2.84v5.383h0.061c0.723-1.16,1.961-1.721,3.021-1.721c3.02,0,3.779,1.699,3.779,4.262v6.359h-2.84V325
			c0-1.701-0.5-2.541-1.82-2.541c-1.541,0-2.201,0.859-2.201,2.961v5.42h-2.84V316.556z"/>
		<path d="M503.304,320.498h2.701v1.92h0.041c0.521-1.299,1.92-2.199,3.299-2.199c0.201,0,0.441,0.039,0.621,0.102v2.641
			c-0.26-0.061-0.68-0.102-1.02-0.102c-2.082,0-2.801,1.502-2.801,3.32v4.66h-2.842V320.498L503.304,320.498z"/>
		<path d="M513.066,326.359c0.08,1.801,0.959,2.621,2.539,2.621c1.141,0,2.061-0.701,2.242-1.342h2.5
			c-0.801,2.441-2.5,3.482-4.842,3.482c-3.26,0-5.281-2.242-5.281-5.441c0-3.102,2.141-5.461,5.281-5.461
			c3.521,0,5.221,2.959,5.021,6.141H513.066L513.066,326.359z M517.689,324.558c-0.264-1.438-0.883-2.199-2.264-2.199
			c-1.801,0-2.318,1.4-2.357,2.199H517.689z"/>
		<path d="M524.404,327.48c0.021,1.238,1.061,1.74,2.182,1.74c0.82,0,1.859-0.32,1.859-1.32c0-0.861-1.18-1.16-3.221-1.602
			c-1.639-0.359-3.279-0.939-3.279-2.76c0-2.641,2.279-3.32,4.5-3.32c2.262,0,4.342,0.76,4.561,3.299h-2.699
			c-0.08-1.1-0.92-1.398-1.939-1.398c-0.643,0-1.58,0.119-1.58,0.959c0,1.021,1.6,1.16,3.221,1.541c1.66,0.381,3.281,0.98,3.281,2.9
			c0,2.721-2.361,3.602-4.721,3.602c-2.4,0-4.742-0.9-4.861-3.643h2.697V327.48z"/>
		<path d="M538.804,316.556h3.143v5.482h5.779v-5.482h3.143v14.283h-3.143v-6.16h-5.779v6.16h-3.143V316.556z"/>
		<path d="M553.205,323.679c0.16-2.662,2.541-3.461,4.861-3.461c2.061,0,4.541,0.459,4.541,2.939v5.383
			c0,0.939,0.1,1.879,0.359,2.299h-2.881c-0.1-0.318-0.18-0.66-0.199-1c-0.9,0.941-2.221,1.281-3.48,1.281
			c-1.961,0-3.521-0.98-3.521-3.102c0-2.34,1.762-2.9,3.521-3.141c1.74-0.26,3.359-0.199,3.359-1.361c0-1.219-0.84-1.398-1.84-1.398
			c-1.08,0-1.781,0.439-1.881,1.561H553.205L553.205,323.679z M559.765,325.779c-0.479,0.42-1.479,0.439-2.357,0.6
			c-0.881,0.182-1.684,0.48-1.684,1.521c0,1.061,0.82,1.32,1.74,1.32c2.221,0,2.301-1.762,2.301-2.381V325.779z"/>
		<path d="M574.505,330.839h-2.699V329.4h-0.061c-0.721,1.16-1.961,1.721-3.16,1.721c-3.02,0-3.781-1.701-3.781-4.262v-6.361h2.842
			v5.842c0,1.699,0.5,2.541,1.818,2.541c1.541,0,2.201-0.859,2.201-2.961v-5.422h2.84V330.839L574.505,330.839z"/>
		<path d="M578.863,327.48c0.021,1.238,1.061,1.74,2.182,1.74c0.82,0,1.859-0.32,1.859-1.32c0-0.861-1.18-1.16-3.221-1.602
			c-1.639-0.359-3.279-0.939-3.279-2.76c0-2.641,2.279-3.32,4.5-3.32c2.262,0,4.342,0.76,4.561,3.299h-2.699
			c-0.08-1.1-0.92-1.398-1.939-1.398c-0.643,0-1.58,0.119-1.58,0.959c0,1.021,1.6,1.16,3.221,1.541c1.66,0.381,3.281,0.98,3.281,2.9
			c0,2.721-2.361,3.602-4.721,3.602c-2.4,0-4.742-0.9-4.861-3.643h2.697V327.48z"/>
		<path d="M589.744,326.359c0.08,1.801,0.961,2.621,2.541,2.621c1.141,0,2.061-0.701,2.24-1.342h2.5
			c-0.799,2.441-2.5,3.482-4.84,3.482c-3.262,0-5.281-2.242-5.281-5.441c0-3.102,2.141-5.461,5.281-5.461
			c3.52,0,5.221,2.959,5.02,6.141H589.744L589.744,326.359z M594.365,324.558c-0.26-1.438-0.881-2.199-2.26-2.199
			c-1.801,0-2.32,1.4-2.361,2.199H594.365z"/>
		<path d="M601.083,327.48c0.021,1.238,1.061,1.74,2.18,1.74c0.82,0,1.861-0.32,1.861-1.32c0-0.861-1.18-1.16-3.221-1.602
			c-1.641-0.359-3.281-0.939-3.281-2.76c0-2.641,2.281-3.32,4.502-3.32c2.26,0,4.34,0.76,4.561,3.299h-2.699
			c-0.08-1.1-0.92-1.398-1.939-1.398c-0.641,0-1.58,0.119-1.58,0.959c0,1.021,1.6,1.16,3.221,1.541c1.66,0.381,3.279,0.98,3.279,2.9
			c0,2.721-2.359,3.602-4.721,3.602c-2.4,0-4.74-0.9-4.861-3.643h2.699V327.48z"/>
		<path d="M317.83,354.839h-2.701V353.4h-0.06c-0.72,1.16-1.96,1.721-3.161,1.721c-3.021,0-3.781-1.701-3.781-4.262v-6.361h2.841
			v5.842c0,1.699,0.5,2.541,1.82,2.541c1.541,0,2.201-0.859,2.201-2.961v-5.422h2.84L317.83,354.839L317.83,354.839z"/>
		<path d="M319.987,344.498h2.701v1.441h0.06c0.72-1.16,1.96-1.721,3.161-1.721c3.021,0,3.781,1.699,3.781,4.26v6.361h-2.84v-5.842
			c0-1.699-0.5-2.539-1.821-2.539c-1.54,0-2.2,0.859-2.2,2.959v5.422h-2.841L319.987,344.498L319.987,344.498z"/>
		<path d="M339.229,353.519h-0.04c-0.66,1.121-1.82,1.604-3.141,1.604c-3.121,0-4.641-2.682-4.641-5.543
			c0-2.779,1.541-5.359,4.581-5.359c1.22,0,2.42,0.52,3.061,1.539h0.04v-5.201h2.841v14.283h-2.701V353.519L339.229,353.519z
			 M336.748,346.359c-1.86,0-2.5,1.6-2.5,3.301c0,1.619,0.74,3.32,2.5,3.32c1.88,0,2.44-1.641,2.44-3.342
			C339.188,347.958,338.588,346.359,336.748,346.359z"/>
		<path d="M357.008,353.519h-0.04c-0.66,1.121-1.82,1.604-3.141,1.604c-3.121,0-4.641-2.682-4.641-5.543
			c0-2.779,1.541-5.359,4.581-5.359c1.22,0,2.42,0.52,3.061,1.539h0.04v-5.201h2.841v14.283h-2.701V353.519L357.008,353.519z
			 M354.528,346.359c-1.86,0-2.5,1.6-2.5,3.301c0,1.619,0.74,3.32,2.5,3.32c1.88,0,2.44-1.641,2.44-3.342
			C356.968,347.958,356.368,346.359,354.528,346.359z"/>
		<path d="M361.847,344.498h2.701v1.92h0.04c0.52-1.299,1.92-2.199,3.301-2.199c0.2,0,0.44,0.039,0.62,0.102v2.641
			c-0.26-0.061-0.68-0.102-1.021-0.102c-2.08,0-2.8,1.502-2.8,3.32v4.66h-2.841V344.498z"/>
		<path d="M379.329,354.839h-2.701V353.4h-0.06c-0.72,1.16-1.96,1.721-3.161,1.721c-3.021,0-3.781-1.701-3.781-4.262v-6.361h2.841
			v5.842c0,1.699,0.5,2.541,1.82,2.541c1.541,0,2.201-0.859,2.201-2.961v-5.422h2.84L379.329,354.839L379.329,354.839z"/>
		<path d="M388.528,348.138c-0.18-1.158-0.92-1.779-2.1-1.779c-1.821,0-2.421,1.842-2.421,3.359c0,1.48,0.58,3.264,2.361,3.264
			c1.32,0,2.08-0.842,2.26-2.104h2.741c-0.36,2.742-2.261,4.242-4.981,4.242c-3.121,0-5.221-2.201-5.221-5.301
			c0-3.223,1.92-5.602,5.281-5.602c2.44,0,4.681,1.279,4.861,3.92H388.528L388.528,348.138z"/>
		<path d="M393.226,340.556h2.84v7.662l3.581-3.721h3.361l-3.901,3.801l4.341,6.541h-3.441l-2.84-4.621l-1.101,1.063v3.561h-2.84
			V340.556L393.226,340.556z"/>
		<path d="M406.787,350.359c0.08,1.801,0.96,2.621,2.541,2.621c1.14,0,2.06-0.701,2.24-1.342h2.5c-0.8,2.441-2.5,3.482-4.841,3.482
			c-3.261,0-5.281-2.242-5.281-5.441c0-3.102,2.141-5.461,5.281-5.461c3.521,0,5.221,2.959,5.021,6.141H406.787L406.787,350.359z
			 M411.407,348.558c-0.26-1.438-0.88-2.199-2.26-2.199c-1.8,0-2.32,1.4-2.36,2.199H411.407z"/>
		<path d="M415.925,344.498h2.701v1.441h0.06c0.72-1.16,1.96-1.721,3.161-1.721c3.021,0,3.779,1.699,3.779,4.26v6.361h-2.84v-5.842
			c0-1.699-0.5-2.539-1.821-2.539c-1.54,0-2.2,0.859-2.2,2.959v5.422h-2.841V344.498L415.925,344.498z"/>
		<path d="M435.785,350.099c0,1.9,1.48,2.643,3.162,2.643c1.1,0,2.779-0.32,2.779-1.781c0-1.541-2.141-1.801-4.24-2.359
			c-2.121-0.561-4.262-1.381-4.262-4.063c0-2.92,2.762-4.32,5.342-4.32c2.98,0,5.721,1.301,5.721,4.602h-3.039
			c-0.102-1.721-1.32-2.16-2.822-2.16c-1,0-2.16,0.42-2.16,1.621c0,1.1,0.682,1.238,4.264,2.16c1.039,0.26,4.238,0.92,4.238,4.16
			c0,2.621-2.061,4.58-5.939,4.58c-3.16,0-6.121-1.561-6.082-5.08h3.039V350.099z"/>
		<path d="M449.246,342.898h-2.84v-2.342h2.84V342.898z M446.406,344.498h2.84v10.342h-2.84V344.498z"/>
		<path d="M453.826,350.359c0.08,1.801,0.959,2.621,2.541,2.621c1.139,0,2.059-0.701,2.24-1.342h2.5
			c-0.801,2.441-2.5,3.482-4.842,3.482c-3.26,0-5.281-2.242-5.281-5.441c0-3.102,2.141-5.461,5.281-5.461
			c3.521,0,5.221,2.959,5.021,6.141H453.826L453.826,350.359z M458.447,348.558c-0.262-1.438-0.881-2.199-2.262-2.199
			c-1.801,0-2.32,1.4-2.359,2.199H458.447z"/>
		<path d="M468.824,340.556h10.684v2.643h-7.543v3.061h6.922v2.441h-6.922v3.5h7.703v2.641h-10.844V340.556z"/>
		<path d="M481.785,340.556h3.121l5.961,9.582h0.039v-9.582h2.941v14.283h-3.141l-5.941-9.561h-0.039v9.561h-2.941V340.556z"/>
		<path d="M499.765,343.197h-4.279v-2.641h11.703v2.641h-4.281v11.643h-3.143V343.197z"/>
		<path d="M508.824,340.556h10.682v2.643h-7.541v3.061h6.922v2.441h-6.922v3.5h7.701v2.641h-10.842V340.556z"/>
		<path d="M521.783,340.556h7.703c2.561,0,4.18,1.781,4.18,3.941c0,1.682-0.68,2.941-2.26,3.582v0.039c1.541,0.4,1.98,1.9,2.08,3.34
			c0.061,0.9,0.041,2.582,0.6,3.381h-3.141c-0.379-0.898-0.34-2.277-0.5-3.42c-0.219-1.5-0.799-2.16-2.379-2.16h-3.143v5.58h-3.141
			V340.556L521.783,340.556z M524.923,347.019h3.441c1.4,0,2.16-0.602,2.16-2.039c0-1.383-0.76-1.98-2.16-1.98h-3.441V347.019z"/>
		<path d="M536.044,351.759h3.141v3.08h-3.141V351.759z"/>
		<path d="M318.01,401.22c-1.101,1.42-2.541,1.959-3.921,1.959c-4.421,0-7.021-3.301-7.021-7.42c0-4.242,2.601-7.543,7.021-7.543
			c2.92,0,5.681,1.801,6.021,5.041h-3c-0.36-1.58-1.54-2.398-3.021-2.398c-2.821,0-3.881,2.398-3.881,4.9
			c0,2.379,1.06,4.779,3.881,4.779c2.041,0,3.221-1.1,3.401-3.08h-3.161v-2.34h6.001v7.721h-2L318.01,401.22z"/>
		<path d="M325.488,390.898h-2.841v-2.342h2.841V390.898z M322.647,392.498h2.841v10.342h-2.841V392.498z"/>
		<path d="M333.449,402.839h-3.161l-3.541-10.342h2.98l2.181,7.063h0.04l2.18-7.063h2.821L333.449,402.839z"/>
		<path d="M340.468,398.359c0.08,1.801,0.96,2.621,2.541,2.621c1.14,0,2.06-0.701,2.24-1.342h2.5c-0.8,2.441-2.5,3.48-4.841,3.48
			c-3.261,0-5.281-2.24-5.281-5.441c0-3.1,2.141-5.461,5.281-5.461c3.521,0,5.221,2.961,5.021,6.143H340.468L340.468,398.359z
			 M345.088,396.558c-0.26-1.439-0.88-2.199-2.26-2.199c-1.8,0-2.32,1.4-2.36,2.199H345.088z"/>
		<path d="M360.268,404.14c-0.62,1.66-1.6,2.342-3.561,2.342c-0.58,0-1.16-0.041-1.74-0.102v-2.34c0.54,0.039,1.1,0.119,1.66,0.1
			c0.98-0.1,1.3-1.119,0.98-1.939l-3.641-9.701h3.041l2.341,7.08h0.04l2.26-7.08h2.941L360.268,404.14z"/>
		<path d="M370.568,392.218c3.261,0,5.361,2.16,5.361,5.461c0,3.279-2.101,5.441-5.361,5.441c-3.24,0-5.341-2.162-5.341-5.441
			C365.227,394.378,367.328,392.218,370.568,392.218z M370.568,400.98c1.94,0,2.521-1.66,2.521-3.303
			c0-1.66-0.581-3.318-2.521-3.318c-1.92,0-2.5,1.658-2.5,3.318C368.067,399.32,368.647,400.98,370.568,400.98z"/>
		<path d="M387.469,402.839h-2.701V401.4h-0.06c-0.72,1.16-1.96,1.721-3.161,1.721c-3.021,0-3.781-1.699-3.781-4.26V392.5h2.841
			v5.84c0,1.701,0.5,2.541,1.82,2.541c1.541,0,2.201-0.859,2.201-2.961v-5.42h2.84L387.469,402.839L387.469,402.839z"/>
		<path d="M389.626,392.498h2.701v1.92h0.04c0.52-1.299,1.92-2.199,3.301-2.199c0.2,0,0.44,0.039,0.62,0.1v2.641
			c-0.26-0.059-0.68-0.1-1.02-0.1c-2.081,0-2.801,1.5-2.801,3.32v4.66h-2.841V392.498z"/>
		<path d="M402.966,388.556h2.841v5.383h0.06c0.72-1.16,1.96-1.721,3.021-1.721c3.021,0,3.781,1.699,3.781,4.262v6.359h-2.84V397
			c0-1.701-0.5-2.541-1.821-2.541c-1.54,0-2.2,0.859-2.2,2.961v5.42h-2.841L402.966,388.556L402.966,388.556z"/>
		<path d="M419.847,392.218c3.26,0,5.361,2.16,5.361,5.461c0,3.279-2.102,5.441-5.361,5.441c-3.24,0-5.341-2.162-5.341-5.441
			C414.506,394.378,416.607,392.218,419.847,392.218z M419.847,400.98c1.939,0,2.521-1.66,2.521-3.303
			c0-1.66-0.582-3.318-2.521-3.318c-1.92,0-2.5,1.658-2.5,3.318C417.347,399.32,417.927,400.98,419.847,400.98z"/>
		<path d="M436.748,402.839h-2.701V401.4h-0.059c-0.721,1.16-1.961,1.721-3.162,1.721c-3.02,0-3.779-1.699-3.779-4.26V392.5h2.84
			v5.84c0,1.701,0.5,2.541,1.82,2.541c1.541,0,2.201-0.859,2.201-2.961v-5.42h2.84V402.839z"/>
		<path d="M441.107,399.48c0.02,1.238,1.059,1.738,2.18,1.738c0.82,0,1.861-0.318,1.861-1.318c0-0.861-1.182-1.16-3.223-1.602
			c-1.641-0.359-3.279-0.939-3.279-2.762c0-2.641,2.279-3.32,4.5-3.32c2.262,0,4.342,0.76,4.563,3.301h-2.701
			c-0.08-1.1-0.92-1.398-1.939-1.398c-0.641,0-1.58,0.119-1.58,0.959c0,1.021,1.6,1.16,3.221,1.541
			c1.66,0.381,3.281,0.979,3.281,2.9c0,2.721-2.361,3.602-4.723,3.602c-2.4,0-4.74-0.9-4.859-3.641H441.107z"/>
		<path d="M451.986,398.359c0.08,1.801,0.961,2.621,2.541,2.621c1.141,0,2.061-0.701,2.24-1.342h2.5
			c-0.801,2.441-2.5,3.48-4.842,3.48c-3.26,0-5.281-2.24-5.281-5.441c0-3.1,2.143-5.461,5.281-5.461
			c3.521,0,5.223,2.961,5.021,6.143H451.986L451.986,398.359z M456.607,396.558c-0.26-1.439-0.881-2.199-2.262-2.199
			c-1.799,0-2.318,1.4-2.359,2.199H456.607z"/>
		<path d="M466.564,395.679c0.16-2.662,2.541-3.461,4.861-3.461c2.061,0,4.541,0.459,4.541,2.939v5.381
			c0,0.941,0.1,1.881,0.361,2.301h-2.881c-0.104-0.32-0.182-0.66-0.201-1c-0.9,0.941-2.221,1.281-3.48,1.281
			c-1.961,0-3.521-0.98-3.521-3.102c0-2.342,1.762-2.9,3.521-3.141c1.74-0.262,3.361-0.201,3.361-1.361
			c0-1.221-0.84-1.398-1.84-1.398c-1.082,0-1.781,0.438-1.881,1.561H466.564L466.564,395.679z M473.126,397.779
			c-0.479,0.42-1.479,0.439-2.361,0.6c-0.879,0.18-1.68,0.48-1.68,1.521c0,1.061,0.82,1.32,1.74,1.32
			c2.221,0,2.301-1.762,2.301-2.381V397.779z"/>
		<path d="M483.724,392.498h2.701v1.439h0.063c0.719-1.16,1.959-1.721,3.16-1.721c3.02,0,3.779,1.701,3.779,4.262v6.361h-2.842
			v-5.842c0-1.701-0.5-2.541-1.82-2.541c-1.539,0-2.197,0.861-2.197,2.961v5.422h-2.844V392.498L483.724,392.498z"/>
		<path d="M495.464,395.679c0.16-2.662,2.541-3.461,4.861-3.461c2.061,0,4.541,0.459,4.541,2.939v5.381
			c0,0.941,0.1,1.881,0.359,2.301h-2.881c-0.1-0.32-0.18-0.66-0.199-1c-0.9,0.941-2.221,1.281-3.48,1.281
			c-1.961,0-3.521-0.98-3.521-3.102c0-2.342,1.762-2.9,3.521-3.141c1.74-0.262,3.359-0.201,3.359-1.361
			c0-1.221-0.84-1.398-1.84-1.398c-1.08,0-1.781,0.438-1.881,1.561H495.464L495.464,395.679z M502.025,397.779
			c-0.48,0.42-1.48,0.439-2.359,0.6c-0.881,0.18-1.682,0.48-1.682,1.521c0,1.061,0.82,1.32,1.74,1.32
			c2.221,0,2.301-1.762,2.301-2.381V397.779L502.025,397.779z"/>
		<path d="M507.144,392.498h2.684v1.4h0.039c0.74-1.061,1.818-1.682,3.16-1.682c1.301,0,2.461,0.48,3.02,1.721
			c0.602-0.898,1.68-1.721,3.121-1.721c2.199,0,3.781,1.021,3.781,3.701v6.922h-2.842v-5.861c0-1.381-0.119-2.521-1.74-2.521
			c-1.6,0-1.9,1.32-1.9,2.621v5.762h-2.84v-5.801c0-1.201,0.08-2.582-1.721-2.582c-0.561,0-1.92,0.361-1.92,2.381v6.002h-2.842
			V392.498L507.144,392.498z"/>
		<path d="M527.525,398.359c0.08,1.801,0.959,2.621,2.539,2.621c1.141,0,2.061-0.701,2.242-1.342h2.5
			c-0.801,2.441-2.5,3.48-4.842,3.48c-3.26,0-5.281-2.24-5.281-5.441c0-3.1,2.141-5.461,5.281-5.461
			c3.521,0,5.221,2.961,5.021,6.143H527.525L527.525,398.359z M532.146,396.558c-0.262-1.439-0.881-2.199-2.262-2.199
			c-1.801,0-2.32,1.4-2.359,2.199H532.146z"/>
		<path d="M335.787,419.679c0.16-2.662,2.541-3.461,4.861-3.461c2.061,0,4.541,0.459,4.541,2.939v5.381
			c0,0.941,0.1,1.881,0.36,2.301h-2.88c-0.1-0.32-0.18-0.66-0.2-1c-0.9,0.941-2.22,1.281-3.48,1.281c-1.96,0-3.521-0.98-3.521-3.102
			c0-2.342,1.76-2.9,3.521-3.141c1.74-0.262,3.36-0.201,3.36-1.361c0-1.221-0.84-1.398-1.84-1.398c-1.08,0-1.78,0.438-1.88,1.561
			H335.787L335.787,419.679z M342.348,421.779c-0.48,0.42-1.48,0.439-2.36,0.6c-0.88,0.18-1.68,0.48-1.68,1.521
			c0,1.061,0.82,1.32,1.74,1.32c2.22,0,2.3-1.762,2.3-2.381V421.779z"/>
		<path d="M347.387,416.498h2.701v1.439h0.06c0.72-1.16,1.96-1.721,3.161-1.721c3.021,0,3.781,1.701,3.781,4.262v6.361h-2.84v-5.842
			c0-1.701-0.5-2.541-1.821-2.541c-1.54,0-2.2,0.861-2.2,2.961v5.422h-2.841L347.387,416.498L347.387,416.498z"/>
		<path d="M366.628,425.519h-0.04c-0.66,1.121-1.82,1.602-3.141,1.602c-3.121,0-4.641-2.68-4.641-5.541
			c0-2.781,1.541-5.361,4.581-5.361c1.22,0,2.42,0.521,3.061,1.541h0.04v-5.201h2.841v14.283h-2.701V425.519L366.628,425.519z
			 M364.147,418.359c-1.86,0-2.5,1.6-2.5,3.301c0,1.619,0.74,3.32,2.5,3.32c1.88,0,2.44-1.643,2.44-3.342
			C366.588,419.958,365.988,418.359,364.147,418.359z"/>
		<path d="M377.026,416.498h2.701v1.32h0.04c0.68-1.102,1.8-1.602,3.081-1.602c3.241,0,4.701,2.621,4.701,5.563
			c0,2.76-1.521,5.342-4.541,5.342c-1.24,0-2.42-0.541-3.101-1.563h-0.04v4.922h-2.841V416.498L377.026,416.498z M384.708,421.699
			c0-1.641-0.66-3.34-2.48-3.34c-1.86,0-2.46,1.658-2.46,3.34c0,1.68,0.64,3.281,2.48,3.281
			C384.107,424.98,384.708,423.378,384.708,421.699z"/>
		<path d="M389.246,416.498h2.701v1.92h0.04c0.52-1.299,1.92-2.199,3.301-2.199c0.2,0,0.44,0.039,0.62,0.1v2.641
			c-0.26-0.059-0.68-0.1-1.021-0.1c-2.08,0-2.8,1.5-2.8,3.32v4.66h-2.841V416.498z"/>
		<path d="M399.007,422.359c0.08,1.801,0.96,2.621,2.541,2.621c1.14,0,2.06-0.701,2.24-1.342h2.5c-0.8,2.441-2.5,3.48-4.841,3.48
			c-3.261,0-5.281-2.24-5.281-5.441c0-3.1,2.141-5.461,5.281-5.461c3.521,0,5.221,2.961,5.021,6.143H399.007L399.007,422.359z
			 M403.627,420.558c-0.26-1.439-0.88-2.199-2.26-2.199c-1.8,0-2.32,1.4-2.36,2.199H403.627z"/>
		<path d="M410.347,423.48c0.02,1.238,1.06,1.738,2.18,1.738c0.82,0,1.861-0.318,1.861-1.318c0-0.861-1.181-1.16-3.221-1.602
			c-1.641-0.359-3.281-0.939-3.281-2.762c0-2.641,2.28-3.32,4.501-3.32c2.26,0,4.341,0.76,4.561,3.301h-2.701
			c-0.08-1.1-0.92-1.398-1.94-1.398c-0.64,0-1.581,0.119-1.581,0.959c0,1.021,1.601,1.16,3.221,1.541
			c1.661,0.381,3.281,0.979,3.281,2.9c0,2.721-2.36,3.602-4.721,3.602c-2.401,0-4.741-0.9-4.861-3.641H410.347z"/>
		<path d="M421.086,423.48c0.021,1.238,1.06,1.738,2.179,1.738c0.82,0,1.861-0.318,1.861-1.318c0-0.861-1.18-1.16-3.221-1.602
			c-1.641-0.359-3.281-0.939-3.281-2.762c0-2.641,2.28-3.32,4.501-3.32c2.26,0,4.34,0.76,4.561,3.301h-2.699
			c-0.08-1.1-0.922-1.398-1.941-1.398c-0.641,0-1.58,0.119-1.58,0.959c0,1.021,1.6,1.16,3.221,1.541
			c1.66,0.381,3.279,0.979,3.279,2.9c0,2.721-2.359,3.602-4.721,3.602c-2.4,0-4.741-0.9-4.861-3.641H421.086z"/>
		<path d="M435.486,412.556h10.682v2.643h-7.541v3.061h6.92v2.439h-6.92v3.502h7.701v2.641h-10.842V412.556L435.486,412.556z"/>
		<path d="M448.445,412.556h3.121l5.961,9.582h0.041v-9.582h2.939v14.283h-3.141l-5.941-9.563h-0.041v9.563h-2.939V412.556z"/>
		<path d="M466.425,415.197h-4.281v-2.641h11.703v2.641h-4.279v11.643h-3.143V415.197z"/>
		<path d="M475.484,412.556h10.684v2.643h-7.543v3.061h6.922v2.439h-6.922v3.502h7.703v2.641h-10.844V412.556z"/>
		<path d="M488.445,412.556h7.701c2.561,0,4.182,1.781,4.182,3.941c0,1.68-0.68,2.941-2.262,3.58v0.041
			c1.541,0.398,1.98,1.898,2.082,3.34c0.059,0.9,0.039,2.582,0.6,3.381h-3.141c-0.381-0.898-0.34-2.279-0.5-3.42
			c-0.221-1.5-0.801-2.16-2.381-2.16h-3.141v5.58h-3.141V412.556L488.445,412.556z M491.585,419.019h3.441
			c1.4,0,2.16-0.602,2.16-2.041c0-1.381-0.76-1.98-2.16-1.98h-3.441V419.019z"/>
		<path d="M502.705,423.759h3.141v3.08h-3.141V423.759z"/>
	</g>
</g>
<g id="Calque_3">
	<g>
		<path d="M403.907,573.564c-0.074,0.025-0.153,0.047-0.237,0.063c-0.084,0.018-0.172,0.031-0.264,0.041
			c-0.093,0.01-0.186,0.023-0.278,0.041c-0.087,0.016-0.172,0.037-0.256,0.064c-0.085,0.025-0.158,0.063-0.22,0.109
			c-0.063,0.049-0.113,0.105-0.151,0.174c-0.038,0.072-0.058,0.16-0.058,0.271c0,0.102,0.02,0.188,0.058,0.262
			c0.038,0.068,0.089,0.125,0.155,0.166c0.065,0.041,0.141,0.07,0.228,0.084c0.087,0.02,0.177,0.025,0.269,0.025
			c0.229,0,0.406-0.039,0.53-0.115c0.125-0.076,0.218-0.166,0.278-0.27c0.06-0.107,0.096-0.215,0.11-0.322
			c0.014-0.109,0.021-0.197,0.021-0.264v-0.432C404.042,573.507,403.98,573.541,403.907,573.564 M401.62,571.931
			c0.12-0.18,0.271-0.322,0.457-0.434c0.184-0.107,0.392-0.184,0.623-0.232c0.231-0.045,0.464-0.066,0.697-0.066
			c0.212,0,0.427,0.012,0.645,0.045c0.218,0.029,0.416,0.086,0.595,0.174c0.179,0.088,0.326,0.209,0.44,0.363
			c0.114,0.154,0.171,0.359,0.171,0.617v2.191c0,0.189,0.011,0.373,0.033,0.547c0.021,0.174,0.06,0.303,0.114,0.391h-1.174
			c-0.022-0.064-0.04-0.131-0.053-0.199s-0.023-0.137-0.028-0.207c-0.185,0.189-0.402,0.322-0.652,0.398s-0.505,0.113-0.766,0.113
			c-0.202,0-0.39-0.023-0.563-0.07c-0.174-0.051-0.326-0.129-0.457-0.23c-0.13-0.104-0.232-0.232-0.305-0.393
			c-0.075-0.154-0.11-0.346-0.11-0.563c0-0.238,0.042-0.436,0.126-0.59c0.084-0.158,0.193-0.279,0.327-0.373
			c0.133-0.092,0.285-0.16,0.456-0.207c0.171-0.045,0.344-0.084,0.518-0.109c0.174-0.027,0.346-0.049,0.514-0.064
			c0.168-0.018,0.318-0.041,0.448-0.074c0.13-0.031,0.234-0.08,0.31-0.141c0.076-0.064,0.111-0.156,0.106-0.275
			c0-0.125-0.021-0.225-0.061-0.299c-0.041-0.072-0.095-0.129-0.163-0.17c-0.068-0.039-0.147-0.068-0.236-0.082
			c-0.09-0.012-0.186-0.02-0.29-0.02c-0.228,0-0.407,0.051-0.538,0.146c-0.13,0.1-0.206,0.26-0.228,0.488h-1.158
			C401.432,572.335,401.501,572.111,401.62,571.931"/>
		<path d="M407.172,571.314v0.779h0.016c0.054-0.131,0.128-0.252,0.221-0.361c0.093-0.111,0.198-0.207,0.318-0.285
			c0.119-0.08,0.248-0.141,0.383-0.186c0.135-0.043,0.276-0.063,0.423-0.063c0.077,0,0.161,0.012,0.252,0.041v1.074
			c-0.054-0.012-0.119-0.02-0.194-0.029c-0.077-0.008-0.15-0.012-0.221-0.012c-0.212,0-0.392,0.037-0.538,0.105
			c-0.147,0.072-0.266,0.168-0.355,0.291c-0.09,0.121-0.155,0.264-0.191,0.428c-0.039,0.162-0.058,0.34-0.058,0.529v1.9h-1.158
			v-4.215h1.102V571.314z"/>
		<path d="M411.176,572.07c-0.185,0-0.34,0.041-0.464,0.125c-0.126,0.084-0.228,0.191-0.307,0.324
			c-0.079,0.137-0.134,0.281-0.166,0.441c-0.033,0.16-0.05,0.32-0.05,0.479c0,0.152,0.017,0.307,0.05,0.465
			c0.032,0.156,0.084,0.301,0.158,0.428c0.074,0.129,0.173,0.232,0.297,0.314c0.125,0.08,0.278,0.119,0.457,0.119
			c0.277,0,0.49-0.074,0.641-0.229c0.149-0.156,0.243-0.363,0.28-0.625h1.118c-0.077,0.561-0.293,0.986-0.654,1.279
			c-0.357,0.295-0.816,0.441-1.375,0.441c-0.316,0-0.605-0.055-0.869-0.16c-0.264-0.104-0.489-0.256-0.672-0.443
			c-0.186-0.191-0.33-0.416-0.433-0.682c-0.103-0.264-0.155-0.555-0.155-0.869c0-0.324,0.048-0.629,0.144-0.906
			c0.095-0.281,0.234-0.523,0.419-0.727c0.185-0.205,0.411-0.363,0.677-0.479c0.266-0.113,0.57-0.17,0.913-0.17
			c0.25,0,0.49,0.033,0.721,0.098c0.231,0.064,0.437,0.162,0.62,0.297c0.182,0.133,0.331,0.301,0.445,0.498
			c0.113,0.197,0.179,0.434,0.197,0.705h-1.134C411.957,572.312,411.669,572.07,411.176,572.07"/>
		<path d="M414.934,569.705v2.193h0.025c0.147-0.244,0.334-0.424,0.562-0.535s0.451-0.166,0.669-0.166
			c0.309,0,0.563,0.043,0.761,0.127c0.2,0.086,0.354,0.201,0.469,0.35c0.115,0.148,0.197,0.332,0.24,0.547
			c0.048,0.215,0.071,0.455,0.071,0.713v2.594h-1.159v-2.383c0-0.348-0.055-0.605-0.163-0.777c-0.109-0.17-0.303-0.256-0.579-0.256
			c-0.315,0-0.544,0.096-0.685,0.281c-0.142,0.188-0.212,0.496-0.212,0.928v2.207h-1.157v-5.82h1.158V569.705z"/>
	</g>
	<path d="M419.72,575.527v-4.215h-1.158v4.215H419.72z M419.72,570.66v-0.955h-1.158v0.955H419.72z"/>
	<g>
		<path d="M445.646,573.894c0.008,0.193,0.037,0.379,0.086,0.559c0.047,0.18,0.121,0.332,0.227,0.459s0.252,0.188,0.447,0.188
			c0.199,0,0.352-0.061,0.459-0.188s0.186-0.279,0.232-0.459c0.045-0.18,0.074-0.363,0.084-0.559
			c0.008-0.191,0.014-0.355,0.014-0.492c0-0.08-0.002-0.18-0.004-0.293c-0.002-0.117-0.012-0.236-0.027-0.359
			c-0.016-0.121-0.037-0.242-0.066-0.361c-0.029-0.121-0.072-0.229-0.133-0.322c-0.061-0.096-0.135-0.172-0.225-0.232
			c-0.092-0.059-0.201-0.086-0.334-0.086c-0.131,0-0.24,0.027-0.328,0.086c-0.09,0.061-0.162,0.137-0.219,0.232
			c-0.057,0.094-0.102,0.201-0.133,0.322c-0.031,0.119-0.053,0.24-0.068,0.361c-0.012,0.123-0.021,0.242-0.021,0.359
			c-0.004,0.113-0.004,0.213-0.004,0.293C445.632,573.539,445.636,573.703,445.646,573.894 M444.806,572.238
			c0.094-0.316,0.219-0.568,0.377-0.76c0.158-0.188,0.344-0.326,0.555-0.406c0.211-0.082,0.434-0.123,0.668-0.123
			c0.24,0,0.465,0.041,0.678,0.123c0.209,0.08,0.396,0.219,0.555,0.406c0.162,0.191,0.287,0.443,0.385,0.76
			c0.092,0.313,0.137,0.703,0.137,1.162c0,0.479-0.045,0.877-0.137,1.193c-0.098,0.32-0.223,0.574-0.385,0.764
			c-0.156,0.191-0.346,0.328-0.555,0.41c-0.213,0.08-0.438,0.121-0.678,0.121c-0.234,0-0.457-0.041-0.668-0.121
			c-0.211-0.082-0.396-0.219-0.555-0.41c-0.158-0.188-0.283-0.443-0.377-0.764c-0.094-0.316-0.141-0.717-0.141-1.193
			C444.666,572.941,444.712,572.552,444.806,572.238"/>
	</g>
	<rect x="448.587" y="574.753" width="1.066" height="1.049"/>
	<g>
		<path d="M451.054,575.802v-3.086h-1.197v-0.727c0.168,0.004,0.33-0.01,0.486-0.039c0.156-0.031,0.297-0.08,0.422-0.156
			c0.125-0.074,0.229-0.174,0.316-0.295c0.086-0.123,0.143-0.273,0.17-0.455h0.768v4.758H451.054L451.054,575.802z"/>
		<path d="M438.949,575.474v-0.586h-0.023c-0.146,0.242-0.338,0.42-0.57,0.527c-0.234,0.109-0.473,0.164-0.719,0.164
			c-0.309,0-0.564-0.041-0.762-0.121c-0.199-0.082-0.355-0.197-0.469-0.346s-0.195-0.332-0.24-0.547
			c-0.047-0.217-0.07-0.453-0.07-0.715v-2.592h1.158v2.379c0,0.348,0.053,0.607,0.162,0.779s0.303,0.256,0.58,0.256
			c0.314,0,0.543-0.092,0.686-0.279c0.141-0.189,0.211-0.498,0.211-0.926v-2.209h1.158v4.213h-1.102V575.474z"/>
		<path d="M441.974,571.259v0.783h0.016c0.055-0.133,0.129-0.254,0.221-0.363c0.092-0.111,0.199-0.207,0.316-0.285
			c0.121-0.078,0.248-0.141,0.385-0.186c0.137-0.043,0.277-0.063,0.426-0.063c0.074,0,0.16,0.012,0.252,0.039v1.076
			c-0.055-0.012-0.119-0.02-0.193-0.027c-0.078-0.008-0.15-0.014-0.223-0.014c-0.213,0-0.393,0.035-0.539,0.107
			c-0.145,0.07-0.264,0.166-0.354,0.291c-0.09,0.121-0.154,0.264-0.191,0.426c-0.039,0.162-0.057,0.34-0.057,0.529v1.898h-1.158
			v-4.213H441.974L441.974,571.259z"/>
		<path d="M423.343,571.259v0.775h-0.848v2.086c0,0.195,0.033,0.326,0.098,0.393c0.066,0.066,0.197,0.098,0.393,0.098
			c0.064,0,0.129-0.002,0.188-0.008c0.061-0.008,0.117-0.014,0.172-0.023v0.896c-0.098,0.016-0.207,0.027-0.326,0.031
			c-0.119,0.006-0.236,0.008-0.352,0.008c-0.178,0-0.348-0.012-0.51-0.037c-0.16-0.023-0.301-0.07-0.424-0.143
			c-0.121-0.07-0.219-0.17-0.29-0.303c-0.07-0.129-0.105-0.301-0.105-0.514v-2.484h-0.703v-0.775h0.703v-1.264h1.159v1.264H423.343
			L423.343,571.259z"/>
		<path d="M426.324,572.244c-0.139-0.15-0.35-0.229-0.633-0.229c-0.184,0-0.338,0.033-0.459,0.096
			c-0.123,0.063-0.221,0.139-0.295,0.234c-0.072,0.09-0.125,0.188-0.154,0.289c-0.031,0.105-0.049,0.197-0.053,0.279h1.883
			C426.558,572.621,426.462,572.398,426.324,572.244 M425.015,574.462c0.176,0.17,0.424,0.254,0.75,0.254
			c0.232,0,0.436-0.061,0.605-0.176c0.168-0.117,0.27-0.24,0.309-0.371h1.02c-0.162,0.508-0.412,0.869-0.75,1.086
			c-0.336,0.217-0.744,0.324-1.223,0.324c-0.332,0-0.631-0.053-0.896-0.158c-0.266-0.104-0.492-0.256-0.678-0.453
			c-0.186-0.193-0.326-0.43-0.43-0.699c-0.098-0.273-0.148-0.57-0.148-0.898c0-0.313,0.051-0.607,0.154-0.879
			s0.25-0.508,0.439-0.705c0.191-0.199,0.418-0.357,0.682-0.469c0.264-0.113,0.557-0.174,0.877-0.174
			c0.357,0,0.672,0.07,0.938,0.207c0.268,0.141,0.484,0.328,0.656,0.563c0.172,0.232,0.295,0.498,0.373,0.799
			c0.074,0.297,0.102,0.611,0.08,0.938h-3.041C424.746,574.023,424.841,574.294,425.015,574.462"/>
	</g>
	<polygon points="429.587,569.652 429.587,572.777 431.048,571.259 432.419,571.259 430.83,572.808 432.597,575.476 
		431.197,575.476 430.037,573.591 429.587,574.023 429.587,575.476 428.431,575.476 428.431,569.652 	"/>
	<g>
		<path d="M435.412,571.259v0.775h-0.852v2.086c0,0.195,0.033,0.326,0.102,0.393c0.063,0.064,0.195,0.098,0.391,0.098
			c0.064,0,0.127-0.002,0.188-0.008c0.061-0.008,0.117-0.014,0.172-0.023v0.896c-0.1,0.016-0.207,0.027-0.326,0.031
			c-0.121,0.006-0.238,0.008-0.35,0.008c-0.182,0-0.35-0.012-0.51-0.037c-0.162-0.023-0.303-0.07-0.426-0.143
			c-0.121-0.07-0.219-0.17-0.287-0.303c-0.074-0.129-0.107-0.301-0.107-0.514v-2.484h-0.701v-0.775h0.701v-1.264h1.156v1.264
			H435.412L435.412,571.259z"/>
	</g>
	<g>
		<path d="M454.021,571.814l-0.189,1.066l0.016,0.016c0.129-0.131,0.27-0.225,0.414-0.279c0.148-0.057,0.318-0.084,0.504-0.084
			c0.232,0,0.439,0.043,0.617,0.129c0.178,0.084,0.332,0.197,0.453,0.342c0.123,0.143,0.217,0.313,0.281,0.506
			c0.064,0.195,0.098,0.402,0.098,0.619c0,0.244-0.047,0.467-0.141,0.676c-0.094,0.207-0.221,0.389-0.379,0.541
			c-0.16,0.152-0.344,0.27-0.555,0.352c-0.209,0.084-0.434,0.123-0.67,0.119c-0.227,0-0.445-0.033-0.654-0.092
			c-0.207-0.063-0.391-0.152-0.553-0.277c-0.16-0.125-0.289-0.281-0.387-0.469c-0.096-0.186-0.146-0.398-0.15-0.646h0.953
			c0.021,0.217,0.104,0.387,0.242,0.514c0.137,0.131,0.316,0.191,0.529,0.191c0.125,0,0.238-0.025,0.34-0.078
			c0.1-0.053,0.184-0.117,0.254-0.201c0.068-0.082,0.123-0.178,0.16-0.287c0.039-0.109,0.059-0.223,0.059-0.34
			c0-0.121-0.02-0.234-0.055-0.342s-0.09-0.201-0.16-0.281c-0.072-0.08-0.156-0.145-0.256-0.188c-0.1-0.045-0.211-0.066-0.342-0.066
			c-0.17,0-0.311,0.029-0.416,0.09c-0.107,0.061-0.209,0.154-0.301,0.285h-0.859l0.461-2.596h2.625v0.783h-1.939V571.814z"/>
	</g>
	<g>
		<path d="M382.215,24.555c-0.018,0.09,0.036,0.116,0.135,0.018c0.144-0.144,2.386-3.277,2.476-3.403
			c0.225-0.323,0.297-0.594,0.297-0.747c0-0.126-0.099-0.261-0.279-0.261h-0.153c-0.054,0-0.081-0.019-0.072-0.054l0.045-0.207
			c0.009-0.055,0.027-0.072,0.108-0.072c0.09,0,0.324,0.026,0.774,0.026c0.504,0,0.738-0.026,0.846-0.026
			c0.063,0,0.099,0.026,0.081,0.09l-0.045,0.171c-0.018,0.054-0.036,0.072-0.099,0.072h-0.198c-0.189,0-0.271,0.108-0.315,0.45
			l-0.477,3.961c-0.018,0.117,0.027,0.135,0.09,0.081c0.207-0.18,1.233-1.882,1.359-2.098c0.405-0.685,0.955-1.665,1.044-1.908
			c0.09-0.252,0.072-0.486-0.18-0.486h-0.144c-0.045,0-0.063-0.019-0.054-0.072l0.036-0.171c0.009-0.063,0.036-0.09,0.099-0.09
			c0.117,0,0.333,0.026,0.756,0.026c0.486,0,0.72-0.026,0.855-0.026c0.063,0,0.09,0.036,0.081,0.09l-0.036,0.171
			c-0.009,0.054-0.036,0.072-0.072,0.072h-0.153c-0.198,0-0.369,0.063-0.522,0.261c-0.108,0.153-1.44,2.377-1.666,2.729
			c-0.252,0.414-1.477,2.232-1.864,2.683c-0.081,0.09-0.189,0.233-0.297,0.233c-0.117,0-0.162-0.107-0.144-0.27l0.432-4.033
			c0.018-0.126-0.045-0.145-0.108-0.063c-0.09,0.117-2.772,3.8-3.106,4.159c-0.099,0.108-0.18,0.207-0.315,0.207
			c-0.09,0-0.117-0.116-0.072-0.396l0.801-5.033c0.054-0.314,0.009-0.477-0.288-0.477h-0.216c-0.072,0-0.099-0.019-0.09-0.09
			l0.036-0.171c0.009-0.046,0.027-0.072,0.108-0.072c0.09,0,0.45,0.026,0.918,0.026c0.558,0,0.9-0.026,1.008-0.026
			c0.081,0,0.099,0.026,0.09,0.09l-0.036,0.171c-0.009,0.045-0.027,0.072-0.09,0.072h-0.198c-0.306,0-0.405,0.117-0.477,0.504
			L382.215,24.555z"/>
		<path d="M390.982,22.142c0.036,0,0.045,0.045,0.027,0.081c-0.171,0.369-0.63,1.611-0.675,1.756
			c-0.054,0.152-0.432,1.269-0.432,1.35s0.045,0.108,0.099,0.108c0.108,0,0.567-0.468,0.63-0.549
			c0.027-0.027,0.054-0.045,0.072-0.019l0.081,0.09c0.027,0.027,0.036,0.046,0.018,0.072c-0.099,0.181-0.882,0.945-1.396,0.945
			c-0.108,0-0.189-0.036-0.189-0.153c0-0.135,0.09-0.414,0.432-1.368l-0.045-0.018c-0.378,0.576-1.287,1.539-1.927,1.539
			c-0.207,0-0.486-0.171-0.486-0.576c0-1.314,1.477-3.259,2.575-3.259c0.378,0,0.549,0.162,0.639,0.306l0.171-0.242
			c0.027-0.036,0.054-0.063,0.09-0.063H390.982z M389.848,23.708c0.126-0.261,0.216-0.486,0.216-0.747
			c0-0.243-0.09-0.531-0.423-0.531c-0.828,0-1.792,1.899-1.792,2.755c0,0.207,0.09,0.315,0.243,0.315
			C388.542,25.5,389.686,24.041,389.848,23.708z"/>
		<path d="M393.204,20.684c0.135-0.343,0.126-0.567-0.135-0.567h-0.261c-0.063,0-0.072-0.036-0.054-0.081l0.054-0.162
			c0.018-0.054,0.036-0.063,0.09-0.063h1.116c0.081,0,0.108,0.055,0.081,0.136l-1.873,4.762c-0.081,0.207-0.297,0.702-0.108,0.702
			c0.144,0,0.558-0.351,0.667-0.468c0.036-0.036,0.054-0.027,0.081,0l0.099,0.108c0.018,0.018,0.027,0.054-0.009,0.09
			c-0.045,0.072-0.882,0.837-1.458,0.837c-0.117,0-0.198-0.054-0.198-0.261c0-0.135,0.225-0.702,0.333-0.973L393.204,20.684z"/>
		<path d="M394.878,22.718h-0.63c-0.054,0-0.072-0.018-0.054-0.072l0.072-0.198c0.018-0.045,0.045-0.063,0.099-0.063h0.648
			l0.468-1.044c0.045-0.091,0.072-0.108,0.144-0.136c0.099-0.026,0.333-0.117,0.405-0.152c0.054-0.027,0.099-0.055,0.135-0.055
			c0.054,0,0.072,0.055,0.009,0.181l-0.594,1.206h0.918c0.045,0,0.063,0.027,0.036,0.099l-0.081,0.189
			c-0.009,0.027-0.045,0.045-0.081,0.045h-0.918l-0.873,2.025c-0.108,0.252-0.207,0.478-0.207,0.576c0,0.1,0.036,0.153,0.117,0.153
			c0.261,0,0.846-0.514,0.9-0.576c0.027-0.036,0.054-0.027,0.081,0l0.099,0.108c0.027,0.026,0.027,0.045,0.009,0.081
			c-0.117,0.144-0.954,0.891-1.647,0.891c-0.225,0-0.288-0.09-0.288-0.216c0-0.135,0.045-0.288,0.099-0.423L394.878,22.718z"/>
		<path d="M396.354,25.095c0-0.757,0.495-1.702,1.152-2.35c0.288-0.288,0.774-0.604,1.207-0.604c0.351,0,0.513,0.261,0.513,0.478
			c0,0.44-0.333,0.909-0.837,1.17c-0.486,0.243-0.972,0.342-1.305,0.369c-0.045,0.108-0.117,0.405-0.117,0.828
			c0,0.405,0.297,0.567,0.468,0.567c0.441,0,0.837-0.333,1.026-0.64c0.018-0.026,0.045-0.045,0.081-0.009l0.099,0.081
			c0.045,0.027,0.045,0.054,0.009,0.081c-0.225,0.315-0.765,0.909-1.458,0.909C396.605,25.977,396.354,25.688,396.354,25.095z
			 M397.155,23.897c0.315,0.026,1.495-0.352,1.495-1.018c0-0.18-0.09-0.342-0.288-0.342
			C397.785,22.538,397.227,23.573,397.155,23.897z"/>
		<path d="M399.747,25.887c-0.063,0-0.099-0.036-0.081-0.081l0.504-1.458c0.162-0.505,0.441-1.45,0.441-1.576
			c0-0.081-0.072-0.135-0.153-0.135c-0.18,0-0.585,0.405-0.711,0.559c-0.018,0.026-0.054,0.018-0.072,0l-0.09-0.091
			c-0.018-0.018-0.018-0.045,0-0.071c0.189-0.279,0.729-0.892,1.342-0.892c0.18,0,0.252,0.153,0.252,0.315
			c0.009,0.171-0.144,0.675-0.324,1.278l0.045,0.018c0.243-0.504,0.963-1.611,1.468-1.611c0.261,0,0.423,0.162,0.423,0.405
			c0,0.234-0.18,0.414-0.351,0.414c-0.081,0-0.153-0.019-0.225-0.09c-0.072-0.072-0.117-0.108-0.234-0.108
			c-0.243,0-0.747,0.774-1.107,1.368c-0.108,0.172-0.216,0.379-0.351,0.783l-0.297,0.909c-0.018,0.063-0.045,0.063-0.117,0.063
			h-0.362V25.887z"/>
		<path d="M405.597,23.627c0.018-0.045,0.045-0.045,0.099-0.036l0.09,0.027c0.045,0.018,0.081,0.036,0.063,0.099
			c-0.324,1.342,0.477,1.954,1.035,1.954c0.576,0,1.044-0.459,1.044-1.063s-0.441-0.954-0.837-1.387c-0.558-0.612-1-1.071-1-1.917
			c0-0.648,0.513-1.585,1.531-1.585c0.495,0,0.918,0.307,1.062,0.405c0.045,0.027,0.072,0.045,0.126,0.045
			c0.072,0,0.108-0.126,0.145-0.315c0.009-0.026,0.027-0.035,0.09-0.026l0.117,0.009c0.054,0.009,0.072,0.027,0.063,0.063
			l-0.324,1.71c-0.009,0.036-0.027,0.054-0.072,0.054l-0.126-0.009c-0.054-0.009-0.09-0.026-0.081-0.081
			c0.054-0.36-0.063-1.503-0.999-1.503c-0.558,0-0.892,0.495-0.892,0.981c0,0.675,0.396,0.945,0.811,1.368
			c0.414,0.414,0.981,0.918,0.981,1.863c0,1.188-0.837,1.737-1.629,1.737c-0.576,0-0.963-0.324-1.323-0.684
			c-0.072-0.072-0.153-0.063-0.207,0.018c-0.054,0.072-0.126,0.207-0.189,0.342c-0.018,0.036-0.036,0.055-0.09,0.027l-0.117-0.045
			c-0.045-0.018-0.054-0.027-0.036-0.09L405.597,23.627z"/>
		<path d="M410.565,22.718h-0.63c-0.054,0-0.072-0.018-0.054-0.072l0.072-0.198c0.018-0.045,0.045-0.063,0.099-0.063h0.648
			l0.468-1.044c0.045-0.091,0.072-0.108,0.144-0.136c0.099-0.026,0.333-0.117,0.405-0.152c0.054-0.027,0.099-0.055,0.135-0.055
			c0.054,0,0.072,0.055,0.009,0.181l-0.594,1.206h0.918c0.045,0,0.063,0.027,0.036,0.099l-0.081,0.189
			c-0.009,0.027-0.045,0.045-0.081,0.045h-0.918l-0.873,2.025c-0.108,0.252-0.207,0.478-0.207,0.576c0,0.1,0.036,0.153,0.117,0.153
			c0.261,0,0.847-0.514,0.9-0.576c0.027-0.036,0.054-0.027,0.081,0l0.099,0.108c0.027,0.026,0.027,0.045,0.009,0.081
			c-0.117,0.144-0.954,0.891-1.647,0.891c-0.225,0-0.288-0.09-0.288-0.216c0-0.135,0.045-0.288,0.099-0.423L410.565,22.718z"/>
		<path d="M412.041,25.095c0-0.757,0.495-1.702,1.152-2.35c0.288-0.288,0.774-0.604,1.207-0.604c0.351,0,0.513,0.261,0.513,0.478
			c0,0.44-0.333,0.909-0.837,1.17c-0.486,0.243-0.972,0.342-1.305,0.369c-0.045,0.108-0.117,0.405-0.117,0.828
			c0,0.405,0.297,0.567,0.468,0.567c0.441,0,0.837-0.333,1.026-0.64c0.018-0.026,0.045-0.045,0.081-0.009l0.099,0.081
			c0.045,0.027,0.045,0.054,0.009,0.081c-0.225,0.315-0.765,0.909-1.458,0.909C412.293,25.977,412.041,25.688,412.041,25.095z
			 M412.842,23.897c0.315,0.026,1.495-0.352,1.495-1.018c0-0.18-0.09-0.342-0.288-0.342
			C413.473,22.538,412.915,23.573,412.842,23.897z"/>
		<path d="M415.461,25.752c0-0.207,0.153-0.621,0.531-1.63l0.261-0.702c0.09-0.243,0.162-0.423,0.162-0.531
			c0-0.081-0.054-0.117-0.126-0.117c-0.153,0-0.576,0.486-0.72,0.631c-0.036,0.035-0.072,0.035-0.099,0.009l-0.072-0.081
			c-0.036-0.027-0.054-0.045-0.027-0.081c0.036-0.054,0.955-1.135,1.531-1.107c0.108,0,0.216,0.072,0.216,0.225
			c0,0.162-0.144,0.567-0.306,1l-0.522,1.368c-0.126,0.333-0.162,0.531-0.162,0.594c0,0.081,0.027,0.136,0.099,0.153
			c0.189-0.036,0.675-0.549,0.72-0.63c0.018-0.027,0.054-0.027,0.099,0.018l0.072,0.063c0.036,0.045,0.045,0.063,0.018,0.107
			c-0.054,0.072-0.774,0.937-1.521,0.937C415.524,25.968,415.461,25.896,415.461,25.752z M416.596,20.503
			c0-0.243,0.189-0.45,0.468-0.45c0.315,0,0.477,0.226,0.477,0.433c0,0.135-0.108,0.45-0.477,0.45
			C416.667,20.936,416.596,20.603,416.596,20.503z"/>
		<path d="M418.018,25.887c-0.099,0-0.117-0.018-0.099-0.081l0.639-1.665c0.216-0.559,0.468-1.207,0.468-1.359
			c0-0.091-0.036-0.153-0.135-0.153c-0.171,0-0.603,0.432-0.756,0.603c-0.027,0.027-0.054,0.027-0.09-0.009l-0.081-0.081
			c-0.036-0.036-0.045-0.054-0.018-0.09c0.135-0.162,0.801-0.909,1.449-0.909c0.207,0,0.288,0.153,0.288,0.271
			c0,0.278-0.387,1.134-0.459,1.341l0.036,0.019c0.27-0.433,1.251-1.63,2.054-1.63c0.27,0,0.45,0.135,0.45,0.369
			c0,0.396-0.209,0.864-0.504,1.594c-0.243,0.594-0.459,1.098-0.459,1.242c0,0.054,0.036,0.117,0.108,0.117
			c0.135,0,0.531-0.333,0.648-0.459c0.035-0.027,0.072-0.019,0.1,0.018l0.063,0.072c0.035,0.036,0.045,0.054,0.008,0.099
			c-0.107,0.145-0.836,0.783-1.439,0.783c-0.117,0-0.216-0.045-0.216-0.18c0-0.171,0.324-0.883,0.604-1.656
			c0.126-0.352,0.45-1.099,0.45-1.297c0-0.126-0.063-0.207-0.225-0.207c-0.352,0-1.243,0.828-1.639,1.468
			c-0.162,0.261-0.306,0.495-0.54,1.125l-0.225,0.604c-0.018,0.036-0.036,0.054-0.126,0.054h-0.352V25.887z"/>
		<path d="M422.437,25.095c0-0.757,0.494-1.702,1.152-2.35c0.287-0.288,0.773-0.604,1.205-0.604c0.352,0,0.514,0.261,0.514,0.478
			c0,0.44-0.334,0.909-0.838,1.17c-0.484,0.243-0.973,0.342-1.305,0.369c-0.045,0.108-0.117,0.405-0.117,0.828
			c0,0.405,0.297,0.567,0.469,0.567c0.441,0,0.838-0.333,1.025-0.64c0.018-0.026,0.045-0.045,0.082-0.009l0.098,0.081
			c0.045,0.027,0.045,0.054,0.01,0.081c-0.225,0.315-0.766,0.909-1.457,0.909C422.689,25.977,422.437,25.688,422.437,25.095z
			 M423.238,23.897c0.314,0.026,1.494-0.352,1.494-1.018c0-0.18-0.092-0.342-0.289-0.342
			C423.867,22.538,423.31,23.573,423.238,23.897z"/>
		<path d="M425.83,25.887c-0.064,0-0.1-0.036-0.082-0.081l0.504-1.458c0.162-0.505,0.441-1.45,0.441-1.576
			c0-0.081-0.072-0.135-0.152-0.135c-0.18,0-0.586,0.405-0.711,0.559c-0.02,0.026-0.055,0.018-0.072,0l-0.09-0.091
			c-0.02-0.018-0.02-0.045,0-0.071c0.188-0.279,0.729-0.892,1.34-0.892c0.182,0,0.252,0.153,0.252,0.315
			c0.012,0.171-0.143,0.675-0.322,1.278l0.045,0.018c0.242-0.504,0.963-1.611,1.467-1.611c0.262,0,0.424,0.162,0.424,0.405
			c0,0.234-0.18,0.414-0.352,0.414c-0.08,0-0.152-0.019-0.225-0.09c-0.072-0.072-0.117-0.108-0.234-0.108
			c-0.242,0-0.746,0.774-1.107,1.368c-0.107,0.172-0.215,0.379-0.352,0.783l-0.297,0.909c-0.018,0.063-0.045,0.063-0.117,0.063
			h-0.359V25.887z"/>
		<path d="M432.345,24.986c-0.125,0.396,0.02,0.595,0.307,0.595h0.227c0.045,0,0.07,0.026,0.063,0.09l-0.035,0.171
			c-0.01,0.045-0.035,0.072-0.117,0.072c-0.1,0-0.494-0.027-1.107-0.027c-0.676,0-0.943,0.027-1.008,0.027
			c-0.055,0-0.082-0.045-0.072-0.1l0.035-0.162c0.01-0.045,0.027-0.071,0.102-0.071h0.252c0.232,0,0.459-0.172,0.576-0.541
			l1.385-4.303c0.127-0.396,0.047-0.576-0.297-0.576h-0.225c-0.072,0-0.1-0.036-0.082-0.09l0.064-0.189
			c0.018-0.045,0.045-0.054,0.107-0.054c0.08,0,0.404,0.026,1.008,0.026c0.721,0,0.99-0.026,1.1-0.026
			c0.053,0,0.063,0.036,0.053,0.09l-0.025,0.171c-0.01,0.063-0.035,0.072-0.107,0.072h-0.217c-0.305,0-0.479,0.144-0.584,0.477
			l-0.676,2.125c0.387,0,0.504-0.027,0.748-0.252c0.801-0.711,1.844-1.611,2.195-2.053c0.125-0.162,0.09-0.306-0.152-0.306h-0.107
			c-0.063,0-0.082-0.045-0.072-0.091l0.035-0.161c0.02-0.055,0.045-0.072,0.1-0.072c0.09,0,0.469,0.026,0.99,0.026
			c0.539,0,0.791-0.026,0.873-0.026c0.08,0,0.107,0.036,0.1,0.081l-0.035,0.162c-0.02,0.054-0.027,0.09-0.09,0.09h-0.279
			c-0.271,0-0.504,0.135-0.711,0.297c-0.369,0.288-2.584,2.269-2.711,2.413c0.063,0.126,1.387,2.043,1.604,2.305
			c0.162,0.188,0.449,0.405,0.646,0.405h0.262c0.064,0,0.09,0.045,0.082,0.09l-0.037,0.152c-0.018,0.072-0.035,0.091-0.117,0.091
			c-0.107,0-0.35-0.027-0.918-0.027c-0.529,0-1.025,0.027-1.135,0.027c-0.063,0-0.09-0.027-0.08-0.1l0.02-0.144
			c0.008-0.063,0.025-0.09,0.08-0.09h0.135c0.199,0,0.352-0.126,0.27-0.253c-0.07-0.107-1.25-1.926-1.457-2.188
			c-0.082-0.099-0.135-0.126-0.314-0.126L432.345,24.986z"/>
		<path d="M437.125,24.815c0-1.135,0.855-2.674,2.053-2.674c0.604,0,0.963,0.441,0.963,1.054c0,0.99-0.781,2.781-2.088,2.781
			C437.556,25.977,437.125,25.5,437.125,24.815z M439.781,23.06c0.008-0.278-0.154-0.504-0.451-0.504
			c-0.377,0-0.855,0.342-1.305,1.071c-0.307,0.486-0.521,1.035-0.521,1.459c0,0.288,0.197,0.459,0.414,0.459
			C438.853,25.545,439.781,23.654,439.781,23.06z"/>
		<path d="M442.408,20.684c0.135-0.343,0.127-0.567-0.135-0.567h-0.262c-0.063,0-0.07-0.036-0.055-0.081l0.055-0.162
			c0.02-0.054,0.035-0.063,0.09-0.063h1.117c0.08,0,0.107,0.055,0.08,0.136l-1.873,4.762c-0.08,0.207-0.297,0.702-0.105,0.702
			c0.143,0,0.557-0.351,0.666-0.468c0.035-0.036,0.053-0.027,0.08,0l0.1,0.108c0.018,0.018,0.027,0.054-0.01,0.09
			c-0.045,0.072-0.883,0.837-1.459,0.837c-0.115,0-0.197-0.054-0.197-0.261c0-0.135,0.225-0.702,0.334-0.973L442.408,20.684z"/>
		<path d="M444.695,20.684c0.135-0.343,0.125-0.567-0.137-0.567h-0.262c-0.063,0-0.07-0.036-0.053-0.081l0.053-0.162
			c0.02-0.054,0.037-0.063,0.092-0.063h1.115c0.082,0,0.107,0.055,0.082,0.136l-1.873,4.762c-0.082,0.207-0.297,0.702-0.107,0.702
			c0.145,0,0.559-0.351,0.666-0.468c0.035-0.036,0.055-0.027,0.08,0l0.1,0.108c0.02,0.018,0.027,0.054-0.008,0.09
			c-0.045,0.072-0.885,0.837-1.459,0.837c-0.117,0-0.197-0.054-0.197-0.261c0-0.135,0.225-0.702,0.332-0.973L444.695,20.684z"/>
		<path d="M445.154,25.095c0-0.757,0.494-1.702,1.15-2.35c0.289-0.288,0.773-0.604,1.207-0.604c0.352,0,0.514,0.261,0.514,0.478
			c0,0.44-0.334,0.909-0.838,1.17c-0.486,0.243-0.973,0.342-1.307,0.369c-0.045,0.108-0.117,0.405-0.117,0.828
			c0,0.405,0.299,0.567,0.471,0.567c0.439,0,0.836-0.333,1.025-0.64c0.018-0.026,0.045-0.045,0.08-0.009l0.1,0.081
			c0.045,0.027,0.045,0.054,0.01,0.081c-0.227,0.315-0.766,0.909-1.459,0.909C445.406,25.977,445.154,25.688,445.154,25.095z
			 M445.955,23.897c0.314,0.026,1.494-0.352,1.494-1.018c0-0.18-0.09-0.342-0.289-0.342
			C446.583,22.538,446.027,23.573,445.955,23.897z"/>
		<path d="M448.123,25.887c-0.055,0-0.072-0.036-0.045-0.099l2.125-5.276c0.098-0.242,0.008-0.396-0.324-0.396h-0.244
			c-0.053,0-0.063-0.036-0.045-0.09l0.055-0.145c0.027-0.045,0.035-0.072,0.107-0.072h1.197c0.09,0,0.09,0.1,0.072,0.153
			l-1.297,3.124l0.045,0.018c0.279-0.359,0.928-0.963,1.531-0.963c0.188,0,0.467,0.099,0.467,0.531c0,0.711-1.26,1.432-1.664,1.584
			v0.036l0.584,0.945c0.137,0.226,0.289,0.369,0.451,0.369c0.17,0,0.324-0.135,0.422-0.233c0.027-0.036,0.064-0.036,0.082-0.01
			l0.09,0.1c0.02,0.018,0.02,0.045-0.01,0.081c-0.045,0.054-0.387,0.432-0.756,0.432c-0.449,0-0.604-0.117-0.818-0.531l-0.494-0.945
			c-0.064-0.117-0.199-0.126-0.451-0.099l-0.559,1.422c-0.018,0.055-0.055,0.063-0.135,0.063h-0.387V25.887z M449.285,24.186
			c0.854,0.099,1.898-0.774,1.898-1.333c0-0.144-0.107-0.27-0.252-0.27c-0.459,0-1.07,0.63-1.197,0.774
			c-0.072,0.08-0.189,0.225-0.242,0.333L449.285,24.186z"/>
		<path d="M453.416,22.718h-0.631c-0.053,0-0.072-0.018-0.053-0.072l0.07-0.198c0.02-0.045,0.045-0.063,0.1-0.063h0.646l0.469-1.044
			c0.047-0.091,0.072-0.108,0.145-0.136c0.1-0.026,0.334-0.117,0.406-0.152c0.053-0.027,0.1-0.055,0.135-0.055
			c0.055,0,0.072,0.055,0.01,0.181l-0.596,1.206h0.92c0.045,0,0.063,0.027,0.035,0.099l-0.082,0.189
			c-0.008,0.027-0.045,0.045-0.08,0.045h-0.918l-0.873,2.025c-0.109,0.252-0.207,0.478-0.207,0.576c0,0.1,0.035,0.153,0.117,0.153
			c0.26,0,0.846-0.514,0.898-0.576c0.027-0.036,0.055-0.027,0.082,0l0.1,0.108c0.025,0.026,0.025,0.045,0.008,0.081
			c-0.117,0.144-0.953,0.891-1.646,0.891c-0.225,0-0.289-0.09-0.289-0.216c0-0.135,0.047-0.288,0.102-0.423L453.416,22.718z"/>
		<path d="M455.304,25.752c0-0.207,0.154-0.621,0.531-1.63l0.262-0.702c0.092-0.243,0.162-0.423,0.162-0.531
			c0-0.081-0.055-0.117-0.125-0.117c-0.152,0-0.576,0.486-0.721,0.631c-0.037,0.035-0.072,0.035-0.1,0.009l-0.072-0.081
			c-0.035-0.027-0.053-0.045-0.027-0.081c0.037-0.054,0.955-1.135,1.531-1.107c0.107,0,0.217,0.072,0.217,0.225
			c0,0.162-0.145,0.567-0.307,1l-0.521,1.368c-0.127,0.333-0.162,0.531-0.162,0.594c0,0.081,0.025,0.136,0.1,0.153
			c0.188-0.036,0.674-0.549,0.719-0.63c0.02-0.027,0.055-0.027,0.1,0.018l0.072,0.063c0.037,0.045,0.045,0.063,0.02,0.107
			c-0.055,0.072-0.775,0.937-1.521,0.937C455.369,25.968,455.304,25.896,455.304,25.752z M456.439,20.503
			c0-0.243,0.189-0.45,0.469-0.45c0.314,0,0.477,0.226,0.477,0.433c0,0.135-0.107,0.45-0.477,0.45
			C456.511,20.936,456.439,20.603,456.439,20.503z"/>
		<path d="M458.474,22.709c-0.289,0-0.486,0.198-0.494,0.468c0.008,0.162,0.115,0.216,0.197,0.261
			c0.063,0.036,0.197,0.127,0.197,0.271c0,0.145-0.1,0.297-0.334,0.297c-0.17,0-0.414-0.126-0.414-0.513
			c0-0.352,0.227-0.729,0.352-0.873c0.182-0.198,0.379-0.433,1.027-0.433c0.918,0,1.025-0.045,1.125-0.045
			c0.117,0,0.207,0.054,0.117,0.171c-0.189,0.234-1.064,1.449-1.064,2.35c0,0.612,0.324,0.838,0.641,0.838
			c0.773,0,1.557-1.216,1.557-2.125c0-0.145-0.008-0.324-0.07-0.468c-0.072-0.162-0.137-0.262-0.137-0.369
			c0-0.243,0.146-0.396,0.406-0.396c0.252,0,0.352,0.261,0.352,0.478c0,0.432-0.197,1.332-0.596,2.017
			c-0.404,0.702-1.133,1.341-1.871,1.341c-0.451,0-0.893-0.279-0.893-0.927c0-0.838,0.748-1.945,1.27-2.557l-0.063-0.027
			c-0.188,0.162-0.666,0.243-0.836,0.243h-0.469V22.709z"/>
		<path d="M373.409,33.14c0-0.559-0.018-1.773-0.018-1.899c0-0.459-0.063-0.586-0.306-0.586h-0.369c-0.099,0-0.108-0.035-0.108-0.09
			v-0.171c0-0.054,0.009-0.108,0.099-0.108c0.153,0,0.441,0.027,1.341,0.027c0.882,0,1.207-0.027,1.359-0.027
			c0.099,0,0.108,0.027,0.108,0.1v0.188c0,0.055-0.009,0.081-0.108,0.081h-0.216c-0.324,0-0.369,0.153-0.396,0.495
			c-0.009,0.127-0.054,1.314-0.054,1.819v0.135c0,0.045,0.027,0.072,0.144,0.072h2.692c0.135,0,0.18-0.019,0.18-0.117v-0.09
			c0-0.514-0.063-1.765-0.063-1.854c-0.009-0.288-0.045-0.46-0.207-0.46h-0.369c-0.081,0-0.09-0.026-0.09-0.09v-0.198
			c0-0.054,0.009-0.081,0.081-0.081c0.162,0,0.549,0.027,1.314,0.027c0.747,0,1.125-0.027,1.242-0.027
			c0.108,0,0.117,0.027,0.117,0.1v0.171c0,0.063-0.009,0.099-0.117,0.099h-0.27c-0.261,0-0.288,0.153-0.288,0.46
			c0,0.126-0.018,1.647-0.018,1.98V33.4c0,0.288,0.018,1.999,0.027,2.494c0,0.324,0.09,0.45,0.36,0.45h0.306
			c0.072,0,0.081,0.026,0.081,0.081v0.197c0,0.046-0.009,0.091-0.099,0.091c-0.144,0-0.45-0.027-1.26-0.027
			c-0.918,0-1.207,0.027-1.414,0.027c-0.099,0-0.117-0.045-0.117-0.091v-0.197c0-0.055,0.009-0.081,0.099-0.081h0.396
			c0.216,0,0.243-0.171,0.252-0.396c0.018-0.423,0.036-1.872,0.036-2.16V33.68c0-0.099-0.09-0.108-0.198-0.108h-2.692
			c-0.099,0-0.126,0.027-0.126,0.108v0.135c0,0.226,0.036,1.611,0.063,2.224c0.009,0.216,0.099,0.307,0.297,0.307h0.252
			c0.072,0,0.081,0.018,0.081,0.071v0.217c0,0.054-0.009,0.081-0.081,0.081c-0.162,0-0.478-0.027-1.233-0.027
			c-0.955,0-1.225,0.027-1.405,0.027c-0.081,0-0.09-0.027-0.09-0.1v-0.188c0-0.063,0.009-0.081,0.09-0.081h0.414
			c0.225,0,0.252-0.217,0.252-0.414c0.009-0.424,0.027-2.17,0.027-2.404V33.14H373.409z"/>
		<path d="M382.445,33.814c0-0.18-0.018-0.387-0.135-0.495c-0.09-0.081-0.234-0.107-0.378-0.107c-0.162,0-0.315,0.035-0.477,0.144
			c-0.135,0.09-0.027,0.243-0.027,0.531c0,0.306-0.225,0.513-0.585,0.513c-0.207,0-0.387-0.126-0.387-0.323
			c0-0.198,0.063-0.469,0.252-0.631c0.378-0.342,0.999-0.666,1.729-0.666c0.576,0,0.729,0.09,0.918,0.261
			c0.198,0.181,0.252,0.441,0.252,0.766l0.018,1.792c0.009,0.468,0.036,0.611,0.208,0.611c0.126,0,0.225-0.099,0.261-0.162
			c0.036-0.054,0.063-0.063,0.09-0.045l0.126,0.072c0.036,0.019,0.063,0.045,0.027,0.126c-0.081,0.189-0.351,0.612-0.909,0.612
			c-0.351,0-0.684-0.126-0.855-0.549h-0.045c-0.225,0.207-0.414,0.333-0.774,0.468c-0.18,0.063-0.387,0.081-0.648,0.081
			c-0.315,0-0.594-0.342-0.594-0.828c0-0.396,0.189-0.811,0.774-1.099c0.702-0.333,0.927-0.432,1.161-0.594v-0.478H382.445z
			 M382.455,34.652c-0.441,0.252-0.811,0.387-0.811,1.008c0,0.414,0.189,0.585,0.387,0.594c0.243-0.018,0.423-0.242,0.423-0.323
			L382.455,34.652L382.455,34.652z"/>
		<path d="M387.801,36.776c-0.054,0.019-0.117,0.036-0.198,0.036c-0.09,0-0.144-0.045-0.153-0.108l-0.054-0.485h-0.054
			c-0.18,0.314-0.702,0.594-1.188,0.594c-0.36,0-0.63,0-0.945-0.414c-0.378-0.504-0.342-0.792-0.342-1.566l0.009-0.396
			c0-0.342,0-0.702-0.009-0.9c-0.009-0.216-0.198-0.297-0.306-0.314c-0.153-0.027-0.198-0.019-0.198-0.063v-0.18
			c0-0.054,0.018-0.072,0.099-0.072h1.314c0.054,0,0.09-0.009,0.126-0.018c0.036,0,0.072-0.01,0.099-0.01
			c0.063,0,0.108,0.046,0.099,0.108c-0.009,0.081-0.036,0.504-0.036,1.216v0.485c0,0.36-0.054,1.036,0.171,1.387
			c0.135,0.207,0.279,0.189,0.441,0.189c0.153,0,0.351-0.117,0.486-0.288c0.081-0.09,0.144-0.234,0.144-0.324l-0.009-2.116
			c0-0.225-0.162-0.297-0.387-0.314c-0.108-0.009-0.153-0.019-0.153-0.063v-0.171c0-0.072,0.018-0.081,0.108-0.081h1.342
			c0.063,0,0.108-0.009,0.153-0.018c0.045,0,0.081-0.01,0.108-0.01c0.054,0,0.09,0.046,0.081,0.091
			c-0.009,0.081-0.054,0.314-0.054,1.224v0.667c0,0.432,0,0.873,0.018,1.035c0.027,0.279,0.126,0.314,0.162,0.314
			c0.054,0,0.189,0,0.297-0.026c0.072-0.019,0.099,0,0.108,0.036l0.027,0.171c0.009,0.045-0.009,0.063-0.045,0.072L387.801,36.776z"
			/>
		<path d="M392.265,33.806c0.009,0.045,0,0.063-0.036,0.081l-0.162,0.072c-0.027,0.018-0.054,0.009-0.09-0.027l-0.504-0.54
			c-0.117-0.117-0.288-0.261-0.558-0.261s-0.531,0.18-0.531,0.485c0.018,0.315,0.126,0.405,0.792,0.586
			c0.441,0.116,0.657,0.18,0.927,0.468c0.234,0.234,0.288,0.45,0.288,0.766c0,0.801-0.63,1.377-1.612,1.377
			c-0.504,0-0.945-0.18-1.053-0.261c-0.036-0.027-0.045-0.063-0.054-0.117l-0.117-0.864c0-0.045,0.027-0.063,0.063-0.072
			l0.162-0.045c0.027-0.009,0.045,0,0.063,0.036l0.36,0.531c0.162,0.233,0.369,0.459,0.784,0.459c0.333,0,0.531-0.234,0.531-0.549
			c0-0.36-0.261-0.478-0.846-0.657c-0.639-0.189-1.098-0.495-1.098-1.144c0-0.423,0.126-0.774,0.468-1.026
			c0.36-0.261,0.612-0.324,0.99-0.324c0.486,0,0.783,0.108,0.945,0.189c0.135,0.063,0.153,0.107,0.162,0.171L392.265,33.806z"/>
		<path d="M395.224,36.155c-0.342-0.378-0.477-0.855-0.477-1.422c0-0.405,0.225-1.071,0.774-1.495
			c0.459-0.36,0.918-0.459,1.341-0.459c0.621,0,1.044,0.189,1.449,0.567c0.441,0.396,0.622,0.882,0.622,1.432
			c0,0.521-0.225,1.026-0.576,1.404c-0.432,0.45-0.955,0.63-1.567,0.63C396.134,36.813,395.684,36.678,395.224,36.155z
			 M397.565,34.715c0-1.044-0.36-1.558-0.756-1.558c-0.225,0-0.369,0.063-0.486,0.243c-0.18,0.279-0.297,0.666-0.297,1.396
			c0,0.522,0.045,0.864,0.225,1.251c0.117,0.243,0.261,0.388,0.594,0.388C397.34,36.435,397.565,35.705,397.565,34.715z"/>
		<path d="M401.021,36.002c0,0.271,0.054,0.369,0.135,0.369h0.18c0.045,0,0.072,0.019,0.072,0.072v0.171
			c0,0.063-0.009,0.1-0.063,0.1c-0.072,0-0.486-0.027-1.017-0.027c-0.63,0-0.972,0.027-1.053,0.027
			c-0.036,0-0.063-0.027-0.063-0.091v-0.18c0-0.063,0.036-0.072,0.135-0.072h0.144c0.144,0,0.279-0.036,0.306-0.152
			c0.045-0.162,0.045-0.324,0.045-0.595l-0.018-3.745c0-0.45-0.117-0.711-0.423-0.828l-0.162-0.054
			c-0.054-0.027-0.072-0.055-0.072-0.081v-0.117c0-0.036,0.027-0.072,0.153-0.108c0.495-0.144,0.819-0.288,1.359-0.549
			c0.117-0.054,0.189-0.09,0.279-0.09c0.081,0,0.099,0.072,0.081,0.225c-0.018,0.153-0.027,1.98-0.027,2.512v0.54h0.063
			c0.216-0.342,0.657-0.549,1.152-0.549c0.405,0,0.639,0.117,0.918,0.352c0.423,0.351,0.387,0.801,0.387,1.377v0.559
			c0,0.45-0.018,0.999-0.018,1.17c0,0.126,0.18,0.135,0.288,0.135h0.171c0.072,0,0.099,0.019,0.099,0.063v0.188
			c0,0.055-0.018,0.091-0.072,0.091c-0.063,0-0.351-0.027-0.981-0.027c-0.621,0-0.945,0.027-1.026,0.027
			c-0.063,0-0.081-0.027-0.081-0.1v-0.171c0-0.045,0.009-0.072,0.063-0.072h0.117c0.081,0,0.198-0.045,0.216-0.171
			c0.009-0.126,0.027-0.603,0.027-0.873v-0.549c0-0.441,0.027-1.071-0.207-1.306c-0.126-0.126-0.234-0.171-0.423-0.171
			c-0.198,0-0.396,0.162-0.531,0.314c-0.072,0.091-0.153,0.207-0.153,0.441V36.002L401.021,36.002z"/>
		<path d="M406.088,33.274h0.072c0.099-0.117,0.261-0.234,0.432-0.324c0.198-0.107,0.396-0.171,0.693-0.171
			c0.351,0,0.693,0.036,0.927,0.252c0.378,0.352,0.405,0.576,0.405,1.026v0.954c0,0.307-0.018,0.729-0.036,1.045
			c-0.009,0.27,0.135,0.314,0.216,0.314h0.243c0.081,0,0.099,0.027,0.099,0.081v0.162c0,0.063-0.018,0.1-0.072,0.1
			c-0.063,0-0.342-0.027-1.063-0.027c-0.594,0-0.882,0.027-0.945,0.027c-0.054,0-0.072-0.027-0.072-0.1v-0.162
			c0-0.063,0.027-0.081,0.117-0.081h0.099c0.063,0,0.144-0.045,0.162-0.207c0.036-0.233,0.054-0.521,0.054-0.936v-0.964
			c0-0.342-0.027-0.576-0.216-0.747c-0.162-0.145-0.288-0.162-0.441-0.162c-0.162,0-0.279,0.045-0.459,0.18
			c-0.108,0.081-0.18,0.324-0.18,0.693l-0.018,1.846c0,0.162,0.063,0.297,0.144,0.297h0.117c0.072,0,0.09,0.027,0.09,0.091v0.171
			c0,0.054-0.018,0.081-0.063,0.081c-0.063,0-0.306-0.027-0.9-0.027c-0.639,0-0.927,0.027-0.981,0.027
			c-0.045,0-0.063-0.027-0.063-0.081v-0.181c0-0.054,0.018-0.081,0.09-0.081h0.135c0.099,0,0.252-0.026,0.252-0.18v-1.999
			c0-0.27-0.153-0.423-0.36-0.521l-0.081-0.036c-0.054-0.027-0.063-0.063-0.063-0.1v-0.081c0-0.045,0.036-0.071,0.081-0.09
			l1.152-0.521c0.072-0.027,0.135-0.063,0.207-0.063c0.054,0,0.108,0.045,0.126,0.108L406.088,33.274z"/>
		<path d="M410.723,34.445v0.242c0,0.937,0.531,1.396,1.188,1.396c0.441,0,0.801-0.207,0.981-0.495
			c0.018-0.045,0.054-0.054,0.09-0.026l0.153,0.081c0.036,0.018,0.063,0.063-0.018,0.216c-0.162,0.333-0.747,0.954-1.593,0.954
			c-0.576,0-1.053-0.099-1.351-0.423c-0.459-0.495-0.612-0.847-0.621-1.549c0-0.252,0-0.729,0.405-1.323
			c0.324-0.478,0.873-0.738,1.566-0.738c1.458,0,1.54,1.396,1.54,1.539c0,0.117-0.081,0.127-0.279,0.127L410.723,34.445
			L410.723,34.445z M411.596,34.103c0.198,0,0.288-0.045,0.288-0.18c0-0.396-0.162-0.783-0.441-0.783
			c-0.423,0-0.648,0.333-0.711,0.963H411.596z"/>
		<path d="M417.608,33.238c0.414,0,0.81-0.026,0.918-0.054c0.153-0.036,0.279-0.117,0.414-0.279
			c0.099-0.135,0.207-0.387,0.207-0.558c0-0.063,0.027-0.081,0.072-0.081l0.243,0.026c0.045,0.009,0.081,0.019,0.072,0.072
			c-0.027,0.153-0.027,0.621-0.027,0.937c0,0.405,0.036,0.837,0.054,1.026c0.009,0.054-0.027,0.063-0.072,0.071l-0.216,0.046
			c-0.036,0.009-0.054-0.01-0.072-0.072c-0.036-0.145-0.126-0.352-0.18-0.459c-0.099-0.172-0.315-0.288-0.495-0.315
			c-0.243-0.036-0.522-0.054-0.918-0.054v0.54c0,0.486,0.045,1.359,0.045,1.521c0,0.468,0.099,0.63,0.216,0.684
			c0.135,0.055,0.306,0.081,0.756,0.081c0.153,0,0.531-0.009,0.72-0.026c0.18-0.019,0.45-0.108,0.685-0.298
			c0.234-0.188,0.738-0.747,0.918-0.963c0.036-0.036,0.063-0.045,0.09-0.027l0.153,0.091c0.036,0.018,0.045,0.045,0.036,0.071
			l-0.405,1.359c-0.027,0.081-0.09,0.136-0.198,0.136c-0.045,0-0.243-0.01-0.819-0.019c-0.585,0-1.54-0.009-3.097-0.009
			c-0.333,0-0.585,0.009-0.765,0.009c-0.189,0.009-0.306,0.019-0.387,0.019c-0.063,0-0.081-0.027-0.081-0.1v-0.188
			c0-0.055,0.027-0.081,0.09-0.081h0.27c0.414,0,0.45-0.063,0.45-0.378V32.95c0-0.747-0.018-1.854-0.027-1.944
			c-0.036-0.288-0.126-0.352-0.369-0.352h-0.351c-0.036,0-0.045-0.026-0.045-0.09v-0.216c0-0.027,0.009-0.063,0.063-0.063
			c0.198,0,0.513,0.027,1.333,0.027l3.16-0.009c0.144,0,0.315-0.019,0.36-0.019s0.063,0.019,0.072,0.046
			c0.036,0.126,0.333,1.359,0.369,1.449c0.018,0.045,0.018,0.063-0.027,0.09l-0.144,0.072c-0.036,0.018-0.081,0.009-0.108-0.036
			c-0.045-0.072-0.855-0.883-1.063-1.009c-0.189-0.116-0.441-0.233-0.684-0.243l-1.188-0.035L417.608,33.238z"/>
		<path d="M423.828,36.714c-0.072,0-0.486-0.027-1.271-0.027c-0.521,0-0.873,0.027-0.973,0.027c-0.045,0-0.072-0.019-0.072-0.091
			v-0.18c0-0.054,0.027-0.072,0.09-0.072h0.334c0.1,0,0.162-0.036,0.172-0.18c0.018-0.271,0.018-0.549,0.018-0.801l-0.018-1.261
			c0-0.252-0.055-0.433-0.434-0.567c-0.098-0.036-0.107-0.072-0.107-0.126v-0.099c0-0.027,0.018-0.045,0.1-0.072l1.342-0.433
			c0.1-0.036,0.18-0.054,0.242-0.054c0.072,0,0.1,0.045,0.09,0.108c-0.018,0.152-0.018,0.72-0.018,1.512v0.964
			c0,0.351,0,0.675,0.01,0.774c0.018,0.171,0.063,0.233,0.16,0.233h0.324c0.072,0,0.092,0.027,0.092,0.081v0.171
			C423.908,36.687,423.89,36.714,423.828,36.714z M422.593,32.095c-0.377,0.01-0.658-0.288-0.658-0.646
			c0-0.298,0.307-0.595,0.703-0.595c0.441,0,0.666,0.307,0.666,0.567C423.304,31.717,423.097,32.077,422.593,32.095z"/>
		<path d="M424.509,38.856c-0.332-0.189-0.439-0.424-0.439-0.702c0-0.45,0.504-0.774,0.928-0.945v-0.045
			c-0.414-0.126-0.621-0.405-0.621-0.721c0-0.522,0.504-0.811,0.801-0.954v-0.027c-0.387-0.225-0.793-0.603-0.793-1.368
			c0-0.585,0.471-1.313,1.748-1.313c0.791,0,1.188,0.414,1.27,0.504c0.207-0.171,0.541-0.314,0.793-0.314
			c0.322,0,0.494,0.18,0.494,0.468c0,0.207-0.189,0.387-0.396,0.387c-0.152,0-0.225-0.063-0.279-0.152
			c-0.045-0.072-0.15-0.136-0.252-0.136c-0.045,0-0.125,0.036-0.17,0.081c0.035,0.063,0.107,0.262,0.107,0.586
			c0,0.342-0.1,0.675-0.404,0.972c-0.342,0.324-0.855,0.433-1.217,0.433c-0.18,0-0.305,0-0.531-0.027
			c-0.115,0.072-0.332,0.234-0.332,0.414c0,0.315,0.262,0.342,1.232,0.315c0.611-0.019,1.07,0.018,1.514,0.36
			c0.324,0.261,0.441,0.576,0.441,0.909c0,0.378-0.172,0.702-0.523,0.999c-0.332,0.271-1.018,0.558-1.926,0.558
			C425.519,39.135,424.861,39.063,424.509,38.856z M427.435,38.019c0-0.495-0.35-0.765-1.17-0.729l-0.781,0.036
			c-0.262,0.063-0.451,0.342-0.451,0.611c0,0.262,0.145,0.486,0.314,0.612c0.252,0.181,0.504,0.234,0.91,0.234
			C426.851,38.784,427.435,38.469,427.435,38.019z M425.644,33.409c-0.125,0.181-0.18,0.595-0.18,1c0,0.261,0.08,0.549,0.197,0.684
			c0.1,0.126,0.234,0.181,0.414,0.181c0.396,0,0.531-0.604,0.531-1.297c0-0.333-0.035-0.522-0.08-0.604
			c-0.082-0.152-0.189-0.252-0.441-0.252C425.888,33.121,425.771,33.229,425.644,33.409z"/>
		<path d="M429.919,34.445v0.242c0,0.937,0.531,1.396,1.188,1.396c0.441,0,0.801-0.207,0.98-0.495
			c0.02-0.045,0.055-0.054,0.09-0.026l0.154,0.081c0.035,0.018,0.063,0.063-0.02,0.216c-0.162,0.333-0.746,0.954-1.594,0.954
			c-0.576,0-1.053-0.099-1.35-0.423c-0.459-0.495-0.613-0.847-0.621-1.549c0-0.252,0-0.729,0.404-1.323
			c0.322-0.478,0.873-0.738,1.564-0.738c1.459,0,1.541,1.396,1.541,1.539c0,0.117-0.082,0.127-0.279,0.127L429.919,34.445
			L429.919,34.445z M430.792,34.103c0.197,0,0.287-0.045,0.287-0.18c0-0.396-0.162-0.783-0.439-0.783
			c-0.424,0-0.648,0.333-0.713,0.963H430.792z"/>
		<path d="M434.427,33.274h0.072c0.1-0.117,0.262-0.234,0.432-0.324c0.199-0.107,0.396-0.171,0.693-0.171
			c0.352,0,0.693,0.036,0.928,0.252c0.379,0.352,0.404,0.576,0.404,1.026v0.954c0,0.307-0.018,0.729-0.035,1.045
			c-0.01,0.27,0.135,0.314,0.217,0.314h0.242c0.082,0,0.1,0.027,0.1,0.081v0.162c0,0.063-0.018,0.1-0.072,0.1
			c-0.063,0-0.342-0.027-1.063-0.027c-0.594,0-0.883,0.027-0.943,0.027c-0.057,0-0.072-0.027-0.072-0.1v-0.162
			c0-0.063,0.025-0.081,0.117-0.081h0.098c0.064,0,0.146-0.045,0.162-0.207c0.037-0.233,0.055-0.521,0.055-0.936v-0.964
			c0-0.342-0.025-0.576-0.217-0.747c-0.162-0.145-0.287-0.162-0.441-0.162c-0.16,0-0.277,0.045-0.459,0.18
			c-0.105,0.081-0.18,0.324-0.18,0.693l-0.018,1.846c0,0.162,0.063,0.297,0.145,0.297h0.117c0.07,0,0.09,0.027,0.09,0.091v0.171
			c0,0.054-0.02,0.081-0.063,0.081c-0.064,0-0.307-0.027-0.9-0.027c-0.639,0-0.928,0.027-0.98,0.027
			c-0.045,0-0.063-0.027-0.063-0.081v-0.181c0-0.054,0.018-0.081,0.09-0.081h0.135c0.1,0,0.252-0.026,0.252-0.18v-1.999
			c0-0.27-0.152-0.423-0.359-0.521l-0.08-0.036c-0.055-0.027-0.064-0.063-0.064-0.1v-0.081c0-0.045,0.037-0.071,0.082-0.09
			L434,32.842c0.072-0.027,0.135-0.063,0.207-0.063c0.055,0,0.107,0.045,0.127,0.108L434.427,33.274z"/>
		<path d="M440.701,33.806c0.01,0.045,0,0.063-0.035,0.081l-0.162,0.072c-0.027,0.018-0.055,0.009-0.09-0.027l-0.504-0.54
			c-0.117-0.117-0.289-0.261-0.561-0.261c-0.27,0-0.529,0.18-0.529,0.485c0.018,0.315,0.125,0.405,0.791,0.586
			c0.441,0.116,0.656,0.18,0.928,0.468c0.234,0.234,0.289,0.45,0.289,0.766c0,0.801-0.631,1.377-1.611,1.377
			c-0.506,0-0.945-0.18-1.055-0.261c-0.035-0.027-0.045-0.063-0.053-0.117l-0.117-0.864c0-0.045,0.025-0.063,0.063-0.072
			l0.162-0.045c0.027-0.009,0.045,0,0.063,0.036l0.359,0.531c0.162,0.233,0.369,0.459,0.783,0.459c0.334,0,0.531-0.234,0.531-0.549
			c0-0.36-0.262-0.478-0.846-0.657c-0.641-0.189-1.1-0.495-1.1-1.144c0-0.423,0.125-0.774,0.469-1.026
			c0.359-0.261,0.611-0.324,0.99-0.324c0.486,0,0.783,0.108,0.945,0.189c0.135,0.063,0.152,0.107,0.162,0.171L440.701,33.806z"/>
		<path d="M444.832,33.652c0,0.252-0.18,0.424-0.467,0.424c-0.379,0-0.576-0.253-0.648-0.478c-0.107-0.324-0.279-0.433-0.531-0.433
			c-0.242,0-0.594,0.352-0.594,0.919s-0.02,0.972,0.287,1.53c0.227,0.405,0.559,0.521,0.963,0.521c0.414,0,0.613-0.081,0.9-0.288
			c0.045-0.027,0.072-0.045,0.1-0.01l0.127,0.127c0.025,0.035,0.018,0.071-0.01,0.116c-0.172,0.298-0.873,0.729-1.701,0.729
			c-0.676,0-1.125-0.189-1.414-0.549c-0.352-0.433-0.459-0.783-0.459-1.242c0-0.612,0.197-1.27,0.676-1.711
			c0.404-0.369,0.848-0.531,1.332-0.531C444.572,32.779,444.832,33.373,444.832,33.652z"/>
		<path d="M446.947,36.002c0,0.271,0.055,0.369,0.135,0.369h0.18c0.045,0,0.072,0.019,0.072,0.072v0.171c0,0.063-0.01,0.1-0.063,0.1
			c-0.072,0-0.486-0.027-1.018-0.027c-0.631,0-0.973,0.027-1.053,0.027c-0.037,0-0.064-0.027-0.064-0.091v-0.18
			c0-0.063,0.037-0.072,0.137-0.072h0.145c0.145,0,0.279-0.036,0.307-0.152c0.045-0.162,0.045-0.324,0.045-0.595l-0.02-3.745
			c0-0.45-0.117-0.711-0.422-0.828l-0.162-0.054c-0.055-0.027-0.072-0.055-0.072-0.081v-0.117c0-0.036,0.027-0.072,0.152-0.108
			c0.496-0.144,0.82-0.288,1.359-0.549c0.117-0.054,0.189-0.09,0.279-0.09c0.08,0,0.1,0.072,0.08,0.225
			c-0.018,0.153-0.025,1.98-0.025,2.512v0.54h0.063c0.215-0.342,0.656-0.549,1.152-0.549c0.402,0,0.639,0.117,0.918,0.352
			c0.422,0.351,0.387,0.801,0.387,1.377v0.559c0,0.45-0.018,0.999-0.018,1.17c0,0.126,0.18,0.135,0.287,0.135h0.172
			c0.07,0,0.098,0.019,0.098,0.063v0.188c0,0.055-0.018,0.091-0.07,0.091c-0.063,0-0.352-0.027-0.98-0.027
			c-0.621,0-0.945,0.027-1.027,0.027c-0.063,0-0.08-0.027-0.08-0.1v-0.171c0-0.045,0.008-0.072,0.063-0.072h0.117
			c0.08,0,0.197-0.045,0.217-0.171c0.01-0.126,0.025-0.603,0.025-0.873v-0.549c0-0.441,0.027-1.071-0.207-1.306
			c-0.125-0.126-0.232-0.171-0.422-0.171c-0.199,0-0.396,0.162-0.531,0.314c-0.072,0.091-0.152,0.207-0.152,0.441v1.945H446.947z"/>
		<path d="M452.41,33.814c0-0.18-0.02-0.387-0.135-0.495c-0.092-0.081-0.234-0.107-0.379-0.107c-0.162,0-0.314,0.035-0.479,0.144
			c-0.135,0.09-0.025,0.243-0.025,0.531c0,0.306-0.227,0.513-0.586,0.513c-0.207,0-0.387-0.126-0.387-0.323
			c0-0.198,0.063-0.469,0.252-0.631c0.379-0.342,1-0.666,1.729-0.666c0.576,0,0.729,0.09,0.92,0.261
			c0.195,0.181,0.252,0.441,0.252,0.766l0.018,1.792c0.008,0.468,0.035,0.611,0.207,0.611c0.125,0,0.227-0.099,0.262-0.162
			c0.035-0.054,0.063-0.063,0.09-0.045l0.127,0.072c0.035,0.019,0.063,0.045,0.025,0.126c-0.08,0.189-0.352,0.612-0.91,0.612
			c-0.35,0-0.684-0.126-0.854-0.549h-0.045c-0.227,0.207-0.414,0.333-0.773,0.468c-0.182,0.063-0.389,0.081-0.648,0.081
			c-0.314,0-0.594-0.342-0.594-0.828c0-0.396,0.188-0.811,0.773-1.099c0.701-0.333,0.928-0.432,1.162-0.594v-0.478H452.41z
			 M452.419,34.652c-0.441,0.252-0.811,0.387-0.811,1.008c0,0.414,0.188,0.585,0.387,0.594c0.242-0.018,0.424-0.242,0.424-0.323
			V34.652z"/>
		<path d="M456.216,33.383v0.783c0,0.432-0.025,1.575-0.01,1.927c0.01,0.197,0.117,0.278,0.262,0.278h0.324
			c0.08,0,0.1,0.019,0.1,0.072v0.18c0,0.055-0.02,0.091-0.063,0.091c-0.055,0-0.387-0.027-1.26-0.027
			c-0.586,0-1.045,0.027-1.117,0.027c-0.055,0-0.072-0.019-0.072-0.081v-0.198c0-0.045,0.02-0.063,0.09-0.063h0.297
			c0.172,0,0.244-0.107,0.244-0.297l-0.027-2.691h-0.576c-0.045,0-0.063-0.019-0.053-0.1l0.045-0.314
			c0.008-0.055,0.035-0.063,0.107-0.063h0.477v-0.27c0-0.945,0.299-1.531,0.758-1.963c0.484-0.45,0.963-0.621,1.52-0.621
			c0.531,0,0.928,0.216,0.928,0.63c0,0.279-0.287,0.45-0.494,0.45c-0.289,0-0.469-0.108-0.604-0.342
			c-0.107-0.181-0.234-0.271-0.324-0.271c-0.182,0-0.307,0.054-0.449,0.288c-0.162,0.252-0.102,0.892-0.102,1.72v0.378h1.045
			c0.064,0,0.072,0.054,0.064,0.09l-0.045,0.343c-0.01,0.035-0.045,0.045-0.117,0.045L456.216,33.383L456.216,33.383z"/>
		<path d="M459.222,35.372c0,0.738,0.279,0.9,0.494,0.9c0.189,0,0.324-0.027,0.469-0.108c0.027-0.018,0.055-0.018,0.08,0.036
			l0.064,0.135c0.025,0.046,0,0.091-0.037,0.117c-0.152,0.108-0.559,0.36-1.26,0.36c-0.613,0-1-0.423-1-0.837
			c0-0.315,0.018-1,0.018-1.342l0.01-1.188h-0.494c-0.082,0-0.145-0.036-0.145-0.126c0-0.09,0.053-0.153,0.197-0.225
			c0.297-0.136,1.053-0.811,1.387-1.188c0.063-0.072,0.127-0.09,0.172-0.09c0.08,0,0.115,0.063,0.115,0.135l-0.035,0.954h1.145
			c0.055,0,0.08,0.045,0.063,0.081l-0.09,0.387c-0.01,0.036-0.027,0.072-0.082,0.072h-1.053c-0.02,0.369-0.02,0.802-0.02,1.216
			v0.711H459.222z"/>
		<path d="M461.849,34.445v0.242c0,0.937,0.531,1.396,1.189,1.396c0.441,0,0.801-0.207,0.98-0.495
			c0.018-0.045,0.055-0.054,0.09-0.026l0.152,0.081c0.035,0.018,0.064,0.063-0.018,0.216c-0.162,0.333-0.748,0.954-1.594,0.954
			c-0.576,0-1.055-0.099-1.352-0.423c-0.459-0.495-0.611-0.847-0.621-1.549c0-0.252,0-0.729,0.404-1.323
			c0.324-0.478,0.875-0.738,1.566-0.738c1.459,0,1.541,1.396,1.541,1.539c0,0.117-0.082,0.127-0.279,0.127L461.849,34.445
			L461.849,34.445z M462.722,34.103c0.199,0,0.289-0.045,0.289-0.18c0-0.396-0.162-0.783-0.441-0.783
			c-0.422,0-0.646,0.333-0.711,0.963H462.722z"/>
		<path d="M466.359,33.274h0.07c0.1-0.117,0.262-0.234,0.434-0.324c0.197-0.107,0.395-0.171,0.691-0.171
			c0.354,0,0.693,0.036,0.93,0.252c0.377,0.352,0.402,0.576,0.402,1.026v0.954c0,0.307-0.018,0.729-0.035,1.045
			c-0.01,0.27,0.137,0.314,0.217,0.314h0.242c0.082,0,0.1,0.027,0.1,0.081v0.162c0,0.063-0.018,0.1-0.072,0.1
			c-0.063,0-0.342-0.027-1.061-0.027c-0.596,0-0.885,0.027-0.945,0.027c-0.055,0-0.072-0.027-0.072-0.1v-0.162
			c0-0.063,0.025-0.081,0.117-0.081h0.098c0.064,0,0.146-0.045,0.162-0.207c0.037-0.233,0.055-0.521,0.055-0.936v-0.964
			c0-0.342-0.025-0.576-0.217-0.747c-0.16-0.145-0.287-0.162-0.439-0.162c-0.162,0-0.279,0.045-0.459,0.18
			c-0.107,0.081-0.182,0.324-0.182,0.693l-0.018,1.846c0,0.162,0.063,0.297,0.145,0.297h0.117c0.07,0,0.09,0.027,0.09,0.091v0.171
			c0,0.054-0.02,0.081-0.063,0.081c-0.064,0-0.307-0.027-0.9-0.027c-0.639,0-0.928,0.027-0.98,0.027
			c-0.045,0-0.063-0.027-0.063-0.081v-0.181c0-0.054,0.02-0.081,0.09-0.081h0.137c0.098,0,0.252-0.026,0.252-0.18v-1.999
			c0-0.27-0.154-0.423-0.361-0.521l-0.08-0.036c-0.055-0.027-0.063-0.063-0.063-0.1v-0.081c0-0.045,0.035-0.071,0.08-0.09
			l1.152-0.521c0.072-0.027,0.137-0.063,0.207-0.063c0.055,0,0.107,0.045,0.127,0.108L466.359,33.274z"/>
	</g>
	<g>
		<path d="M388.327,572.357c-0.045,0-0.063-0.027-0.045-0.09l0.036-0.152c0.018-0.064,0.036-0.09,0.108-0.09h0.783
			c0.27-0.775,0.576-1.521,1.053-2.055c0.252-0.287,0.747-0.611,1.333-0.611c0.522,0,0.81,0.314,0.81,0.531
			c0,0.279-0.18,0.414-0.36,0.414c-0.288,0-0.369-0.162-0.396-0.359c-0.009-0.092-0.099-0.262-0.369-0.262
			c-0.837,0-1.161,1.332-1.458,2.342h0.874c0.054,0,0.072,0.025,0.054,0.107l-0.045,0.16c-0.009,0.055-0.027,0.064-0.099,0.064
			h-0.855c-0.234,0.729-0.648,2.285-1.099,3.438c-0.549,1.404-1.188,2.404-2.151,2.404c-0.36,0-0.648-0.244-0.648-0.531
			c0-0.207,0.153-0.387,0.387-0.387c0.261,0,0.396,0.252,0.423,0.402c0.018,0.092,0.081,0.154,0.153,0.154
			c0.432,0,0.918-0.756,1.405-2.422l0.909-3.061h-0.803V572.357z"/>
		<path d="M394.501,571.871c0.081,0,0.1,0.027,0.081,0.082l-0.693,1.873c-0.261,0.701-0.378,1.115-0.378,1.17
			c0,0.08,0.009,0.08,0.072,0.107c0.135,0,0.63-0.449,0.702-0.559c0.019-0.027,0.054-0.037,0.081,0l0.09,0.09
			c0.027,0.027,0.027,0.045,0,0.08c-0.026,0.037-0.864,0.9-1.485,0.9c-0.126,0-0.171-0.1-0.171-0.207s0.459-1.232,0.576-1.539
			l-0.054-0.027c-0.378,0.549-1.333,1.773-2.224,1.773c-0.18,0-0.333-0.152-0.333-0.369c0-0.287,0.288-0.846,0.639-1.684
			c0.234-0.559,0.441-0.98,0.441-1.143c0-0.082-0.063-0.127-0.144-0.127c-0.162,0-0.612,0.404-0.702,0.514
			c-0.027,0.027-0.054,0.027-0.081,0l-0.081-0.082c-0.027-0.018-0.027-0.045,0.009-0.08c0.063-0.082,0.811-0.863,1.387-0.863
			c0.18,0,0.261,0.18,0.261,0.322c0,0.227-0.216,0.758-0.585,1.559c-0.243,0.531-0.477,1.107-0.477,1.305
			c0,0.1,0.063,0.154,0.153,0.154c0.477,0,1.432-1.18,1.692-1.559c0.171-0.252,0.315-0.494,0.414-0.766l0.315-0.863
			c0.018-0.055,0.063-0.063,0.125-0.063H394.501L394.501,571.871z M392.521,570.189c0-0.117,0.081-0.352,0.414-0.352
			c0.198,0,0.369,0.135,0.369,0.377c0,0.227-0.162,0.361-0.369,0.361C392.773,570.576,392.521,570.503,392.521,570.189z
			 M393.746,570.189c0-0.117,0.081-0.352,0.414-0.352c0.198,0,0.369,0.135,0.369,0.377c0,0.227-0.162,0.361-0.369,0.361
			C393.998,570.576,393.746,570.503,393.746,570.189z"/>
		<path d="M395.185,575.527c-0.063,0-0.1-0.037-0.081-0.082l0.504-1.457c0.162-0.506,0.441-1.451,0.441-1.576
			c0-0.082-0.072-0.135-0.153-0.135c-0.18,0-0.585,0.404-0.711,0.559c-0.019,0.025-0.055,0.018-0.072,0l-0.09-0.092
			c-0.019-0.018-0.019-0.045,0-0.07c0.188-0.279,0.729-0.893,1.341-0.893c0.181,0,0.252,0.152,0.252,0.314
			c0.01,0.172-0.144,0.676-0.323,1.279l0.045,0.018c0.243-0.504,0.963-1.611,1.467-1.611c0.262,0,0.424,0.162,0.424,0.406
			c0,0.232-0.181,0.412-0.352,0.412c-0.081,0-0.153-0.018-0.225-0.09c-0.072-0.07-0.117-0.107-0.234-0.107
			c-0.243,0-0.747,0.773-1.107,1.369c-0.108,0.172-0.216,0.379-0.352,0.781l-0.297,0.91c-0.018,0.063-0.045,0.063-0.117,0.063h-0.36
			V575.527z"/>
	</g>
</g>
<g id="Calque_2">
</g>
</svg>
